# https://github.com/mikedh/trimesh
v 0.00582773 -0.00769547 0.03193175
v -0.00667214 -0.00769547 0.03192979
v 0.00567156 -0.00786801 0.03189076
v 0.00582773 -0.00786801 0.03189076
v 0.00582773 -0.00769547 0.02907249
v -0.00687477 -0.00769547 0.03192199
v -0.00701158 -0.00784336 0.03188296
v -0.00667214 -0.00786353 0.03188686
v -0.00602295 -0.00818844 0.03181074
v -0.00277182 -0.00819068 0.03181074
v 0.00582773 -0.00819516 0.03180879
v -0.00667214 -0.00769547 0.02912909
v 0.00582773 -0.02758221 0.01199498
v -0.00602295 -0.02763823 0.01199498
v -0.00703610 -0.00769547 0.03190052
v -0.00712903 -0.00942758 0.03134233
v -0.00705933 -0.00990486 0.03127012
v -0.00667214 -0.00942758 0.03145943
v -0.00667214 -0.00877776 0.03164290
v -0.00602295 -0.00877776 0.03165265
v -0.00277182 -0.00877776 0.03165460
v 0.00437188 -0.00877776 0.03165656
v 0.00582773 -0.00877776 0.03165656
v -0.00699609 -0.00769547 0.02917788
v -0.00667214 -0.02764495 0.01199498
v 0.00582773 -0.02994173 0.01199498
v -0.00709676 -0.00769547 0.03180293
v -0.00717162 -0.00877776 0.03142821
v -0.00730843 -0.00942758 0.03089734
v -0.00717420 -0.01072722 0.03080366
v -0.00712387 -0.01137704 0.03069046
v -0.00667214 -0.01030595 0.03118619
v -0.00667214 -0.00998104 0.03129354
v -0.00705030 -0.01180502 0.03061239
v -0.00602295 -0.00942758 0.03146138
v 0.00502237 -0.00942758 0.03146724
v 0.00582773 -0.00942758 0.03146724
v -0.00708386 -0.00769547 0.02920130
v -0.00713678 -0.02779956 0.01199498
v 0.00582773 -0.03048847 0.01223114
v 0.00582127 -0.03058258 0.01199498
v -0.00721292 -0.00769547 0.03155897
v -0.00735102 -0.00877776 0.03089734
v -0.00735231 -0.01072722 0.03024937
v -0.00730197 -0.01137704 0.03024937
v -0.00715484 -0.01267668 0.03010299
v -0.00708643 -0.01318309 0.03000150
v -0.00667214 -0.01072722 0.03103982
v -0.00602295 -0.01030819 0.03119400
v -0.00667214 -0.01185656 0.03063191
v -0.00667214 -0.01137704 0.03080951
v -0.00667214 -0.01327272 0.03004054
v -0.00667214 -0.01267668 0.03029426
v -0.00667214 -0.01218147 0.03049919
v 0.00582773 -0.00984884 0.03133648
v -0.00716775 -0.00769547 0.02938086
v -0.00714968 -0.02782421 0.01199498
v 0.00567156 -0.03048847 0.01223114
v 0.00582773 -0.03029577 0.01270151
v -0.00648758 -0.03058258 0.01199498
v -0.00728261 -0.00769547 0.03133257
v -0.00735747 -0.00812794 0.03089734
v -0.00735747 -0.01202686 0.02959750
v -0.00734456 -0.01397408 0.02894953
v -0.00733295 -0.01267668 0.02959750
v -0.00735747 -0.01007740 0.03024937
v -0.00716259 -0.01397408 0.02949211
v -0.00715484 -0.01405474 0.02947454
v -0.00709934 -0.01449841 0.02937305
v -0.00667214 -0.01405474 0.02968142
v -0.00667214 -0.01359763 0.02989416
v -0.00602295 -0.01072722 0.03104567
v 0.00582773 -0.01072722 0.03104567
v 0.00372140 -0.01030595 0.03119400
v 0.00112334 -0.01185880 0.03063386
v -0.00602295 -0.01218147 0.03050895
v 0.00567156 -0.01137704 0.03081342
v -0.00602295 -0.01359763 0.02990001
v -0.00602295 -0.01267668 0.03030207
v 0.00582773 -0.00997880 0.03129549
v -0.00723615 -0.00769547 0.02956042
v -0.00731359 -0.02827012 0.01199498
v 0.00567156 -0.03029577 0.01270151
v 0.00582773 -0.03002912 0.01332410
v -0.00667214 -0.03057810 0.01199498
v -0.00602295 -0.03048623 0.01222724
v -0.00667214 -0.03002464 0.01332215
v -0.00735747 -0.00769547 0.03089734
v -0.00735747 -0.01332650 0.02894953
v -0.00735747 -0.01722542 0.02699976
v -0.00734070 -0.01527596 0.02829766
v -0.00716259 -0.01527596 0.02884609
v -0.00667214 -0.01459477 0.02942380
v -0.00709676 -0.01577116 0.02871923
v -0.00667214 -0.01527596 0.02907444
v -0.00610555 -0.01405474 0.02968728
v 0.00582773 -0.01030371 0.03119205
v 0.00582773 -0.01137704 0.03081342
v 0.00582773 -0.01185880 0.03063386
v -0.00212392 -0.01218371 0.03050895
v 0.00307350 -0.01218595 0.03050895
v -0.00537247 -0.01359987 0.02990001
v 0.00437188 -0.01267668 0.03030402
v 0.00437188 -0.01360211 0.02990197
v -0.00734456 -0.00769547 0.03003078
v -0.00732779 -0.02833062 0.01199498
v 0.00502237 -0.03002912 0.01332410
v -0.00082424 -0.03002687 0.01332410
v -0.00602295 -0.03028680 0.01270151
v 0.00582773 -0.02988571 0.01365004
v -0.00690704 -0.03054897 0.01199498
v -0.00602295 -0.02988571 0.01364614
v -0.00667214 -0.02988123 0.01364614
v -0.00709031 -0.02998206 0.01322457
v -0.00735747 -0.00769547 0.03024937
v -0.00735747 -0.01982470 0.02504805
v -0.00735102 -0.01917264 0.02569992
v -0.00732779 -0.01852506 0.02634984
v -0.00732134 -0.01657560 0.02764774
v -0.00718324 -0.01722542 0.02767115
v -0.00714194 -0.01657560 0.02815713
v -0.00472198 -0.01459701 0.02942380
v -0.00602295 -0.01527596 0.02907639
v -0.00342230 -0.01492192 0.02925985
v 0.00307350 -0.01492640 0.02926180
v -0.00667214 -0.01585631 0.02876802
v -0.00707095 -0.01700582 0.02803613
v 0.00502237 -0.01460149 0.02942380
v 0.00582773 -0.01405474 0.02968923
v 0.00582773 -0.01388669 0.02976925
v 0.00582773 -0.01218595 0.03050895
v 0.00582773 -0.01256016 0.03035281
v 0.00582773 -0.01267668 0.03030402
v 0.00582773 -0.01352592 0.02993515
v 0.00582773 -0.01360211 0.02990197
v -0.00735747 -0.02892218 0.01199498
v -0.00212392 -0.02988571 0.01365004
v 0.00582773 -0.02971765 0.01400330
v -0.00714323 -0.03035403 0.01199498
v -0.00212392 -0.02971541 0.01400330
v -0.00602295 -0.02971317 0.01400330
v -0.00667214 -0.02940170 0.01463956
v -0.00710193 -0.02935017 0.01453417
v -0.00715613 -0.03008514 0.01270151
v -0.00716387 -0.02947565 0.01400330
v -0.00735747 -0.02307604 0.02180040
v -0.00732779 -0.02307604 0.02244837
v -0.00732779 -0.02242398 0.02309634
v -0.00732134 -0.02177416 0.02374821
v -0.00730714 -0.02112434 0.02439813
v -0.00718711 -0.01917264 0.02636546
v -0.00726970 -0.01787524 0.02699976
v -0.00728133 -0.02047452 0.02504805
v -0.00708127 -0.01895753 0.02675190
v -0.00709159 -0.01787524 0.02743695
v 0.00567156 -0.01492864 0.02926180
v 0.00582773 -0.01485021 0.02930084
v 0.00177382 -0.01527596 0.02908029
v -0.00602295 -0.01618122 0.02858261
v 0.00567156 -0.01618795 0.02858846
v 0.00567156 -0.01586080 0.02876607
v -0.00667214 -0.01705960 0.02806735
v -0.00700513 -0.01820687 0.02732765
v 0.00582773 -0.01460149 0.02942380
v -0.00735747 -0.02957200 0.01199498
v 0.00502237 -0.02971765 0.01400330
v 0.00582773 -0.02936809 0.01472348
v -0.00717420 -0.03029577 0.01199498
v 0.00437188 -0.02924709 0.01497135
v -0.00602295 -0.02924261 0.01496354
v -0.00667214 -0.02924037 0.01496354
v -0.00716259 -0.02882807 0.01530119
v -0.00709676 -0.02869587 0.01580083
v -0.00718969 -0.03025319 0.01199498
v -0.00733553 -0.02957200 0.01270151
v -0.00734456 -0.02892218 0.01400330
v -0.00735747 -0.02502326 0.01985064
v -0.00716904 -0.02306484 0.02308853
v -0.00735231 -0.02567308 0.01920071
v -0.00732134 -0.02372362 0.02180040
v -0.00716259 -0.02241053 0.02373650
v -0.00714710 -0.02174503 0.02438057
v -0.00720905 -0.01986727 0.02574286
v -0.00714323 -0.01973731 0.02602781
v -0.00711095 -0.01967681 0.02616053
v -0.00701804 -0.02081960 0.02538960
v 0.00582773 -0.01492864 0.02926180
v 0.00582773 -0.01527596 0.02908029
v -0.00602295 -0.01657560 0.02835230
v 0.00582773 -0.01618795 0.02858846
v 0.00582773 -0.01586080 0.02876607
v -0.00667214 -0.01738451 0.02787023
v -0.00602295 -0.01738451 0.02787218
v -0.00472198 -0.01705960 0.02806735
v -0.00667214 -0.01901130 0.02679093
v -0.00667214 -0.01853626 0.02711492
v -0.00667214 -0.01787524 0.02755210
v -0.00735231 -0.02963026 0.01199498
v -0.00735747 -0.02957200 0.01205354
v 0.00582773 -0.02924709 0.01497135
v 0.00177382 -0.02907007 0.01530119
v -0.00602295 -0.02906559 0.01530119
v -0.00667214 -0.02906335 0.01530119
v -0.00714710 -0.02813791 0.01660103
v -0.00732521 -0.02762254 0.01660103
v -0.00734070 -0.02827236 0.01530119
v -0.00667214 -0.02874516 0.01588670
v -0.00707741 -0.02801691 0.01703821
v -0.00735747 -0.02697272 0.01725291
v -0.00716259 -0.02371242 0.02243080
v -0.00708257 -0.02349058 0.02286603
v -0.00707869 -0.02284076 0.02351010
v -0.00732779 -0.02632290 0.01855079
v -0.00730843 -0.02437344 0.02115048
v -0.00707224 -0.02218198 0.02415026
v -0.00705159 -0.02150751 0.02477286
v -0.00711483 -0.02107056 0.02501292
v -0.00710322 -0.02047452 0.02552232
v -0.00667214 -0.02186155 0.02451328
v -0.00667214 -0.02153664 0.02479628
v -0.00667214 -0.02082856 0.02539741
v -0.00667214 -0.02009359 0.02597707
v -0.00667214 -0.01973955 0.02624836
v -0.00667214 -0.01933397 0.02655087
v 0.00582773 -0.01738227 0.02787218
v -0.00602295 -0.01787524 0.02755405
v -0.00537247 -0.01787524 0.02755600
v 0.00502237 -0.01787524 0.02755796
v -0.00342230 -0.01738451 0.02787218
v -0.00472198 -0.01933397 0.02655282
v 0.00242302 -0.01901354 0.02679093
v 0.00177382 -0.01854074 0.02711492
v 0.00582773 -0.01846456 0.02716761
v 0.00582773 -0.01821583 0.02733351
v 0.00582773 -0.02907007 0.01530119
v 0.00372140 -0.02874740 0.01589451
v -0.00407279 -0.02874740 0.01589061
v -0.00718840 -0.02764719 0.01725291
v -0.00727487 -0.02697272 0.01790283
v -0.00602295 -0.02834183 0.01660103
v -0.00667214 -0.02805277 0.01709482
v -0.00701029 -0.02730883 0.01824047
v -0.00707869 -0.02672624 0.01898408
v -0.00709676 -0.02741415 0.01790283
v -0.00714839 -0.02435551 0.02177308
v -0.00667214 -0.02353540 0.02291483
v -0.00667214 -0.02321273 0.02323881
v -0.00707095 -0.02412472 0.02220440
v -0.00667214 -0.02288782 0.02355499
v -0.00718711 -0.02634083 0.01920071
v -0.00728133 -0.02502326 0.02050056
v -0.00667214 -0.02254722 0.02388093
v -0.00667214 -0.02222231 0.02418930
v -0.00342230 -0.02186155 0.02451523
v -0.00147344 -0.02222455 0.02419125
v 0.00582773 -0.02153888 0.02479823
v 0.00582773 -0.02082856 0.02539741
v 0.00567156 -0.02047452 0.02568236
v -0.00602295 -0.02047452 0.02568041
v -0.00602295 -0.02009359 0.02598097
v 0.00582773 -0.02115347 0.02512417
v 0.00047286 -0.02009583 0.02598292
v 0.00502237 -0.01977092 0.02622884
v 0.00582773 -0.01787524 0.02755796
v 0.00502237 -0.01901354 0.02679093
v 0.00582773 -0.01890150 0.02686705
v 0.00582773 -0.02874740 0.01589451
v 0.00437188 -0.02856590 0.01622045
v -0.00712515 -0.02695479 0.01849615
v 0.00372140 -0.02834631 0.01660103
v 0.00582773 -0.02827908 0.01671813
v 0.00047286 -0.02805501 0.01709482
v 0.00437188 -0.02784886 0.01742075
v 0.00437188 -0.02754187 0.01790283
v -0.00602295 -0.02784662 0.01741880
v -0.00667214 -0.02731108 0.01824828
v -0.00667214 -0.02708924 0.01857422
v -0.00667214 -0.02676657 0.01903872
v -0.00667214 -0.02620414 0.01980575
v -0.00701804 -0.02536386 0.02084406
v -0.00711225 -0.02613468 0.01971206
v -0.00720905 -0.02572014 0.01989943
v -0.00711612 -0.02499189 0.02109778
v -0.00705675 -0.02475213 0.02153692
v -0.00212392 -0.02353764 0.02291678
v -0.00147344 -0.02321497 0.02324272
v -0.00667214 -0.02386031 0.02256937
v -0.00277182 -0.02386255 0.02257133
v -0.00342230 -0.02289006 0.02355694
v -0.00147344 -0.02255170 0.02388288
v 0.00582773 -0.02186379 0.02451328
v 0.00582773 -0.02222455 0.02418930
v 0.00372140 -0.02255170 0.02388483
v 0.00582773 -0.02255170 0.02388483
v 0.00582773 -0.02047452 0.02568236
v 0.00582773 -0.02009583 0.02598292
v 0.00582773 -0.02001964 0.02604147
v 0.00582773 -0.01977092 0.02622884
v 0.00582773 -0.01933397 0.02655282
v 0.00582773 -0.01901354 0.02678898
v 0.00582773 -0.02856590 0.01622045
v 0.00582773 -0.02805277 0.01709482
v 0.00242302 -0.02805501 0.01709482
v 0.00582773 -0.02784886 0.01742075
v 0.00582773 -0.02754187 0.01790283
v 0.00307350 -0.02731556 0.01825413
v -0.00602295 -0.02753515 0.01790283
v 0.00307350 -0.02709372 0.01858007
v 0.00582773 -0.02645510 0.01947200
v 0.00437188 -0.02676881 0.01904263
v -0.00602295 -0.02596438 0.02013168
v -0.00667214 -0.02595990 0.02013168
v -0.00667214 -0.02537058 0.02085382
v -0.00667214 -0.02510393 0.02117975
v -0.00667214 -0.02477902 0.02156815
v -0.00667214 -0.02448548 0.02189213
v -0.00017763 -0.02353764 0.02291678
v 0.00047286 -0.02386255 0.02257328
v 0.00567156 -0.02386255 0.02257523
v -0.00082424 -0.02321497 0.02324272
v 0.00567156 -0.02289230 0.02356084
v -0.00472198 -0.02448772 0.02189408
v -0.00147344 -0.02448996 0.02189603
v 0.00372140 -0.02416505 0.02224929
v 0.00582773 -0.02289230 0.02356084
v 0.00582773 -0.02731556 0.01825413
v 0.00582773 -0.02709372 0.01858007
v 0.00582773 -0.02596438 0.02013168
v 0.00582773 -0.02676881 0.01904263
v -0.00602295 -0.02566412 0.02050056
v 0.00582773 -0.02537282 0.02085772
v -0.00537247 -0.02478126 0.02157010
v 0.00582773 -0.02386255 0.02257523
v 0.00582773 -0.02353764 0.02291483
v 0.00582773 -0.02321721 0.02323881
v 0.00582773 -0.02409334 0.02232736
v 0.00502237 -0.02478126 0.02157010
v 0.00582773 -0.02449220 0.02189213
v 0.00582773 -0.02416505 0.02224929
v 0.00582773 -0.02510393 0.02118171
v 0.00437188 -0.02510393 0.02118171
v 0.00582773 -0.02478126 0.02156815
f 1 2 3
f 1 3 4
f 1 4 11
f 1 11 23
f 1 23 37
f 1 37 55
f 1 55 80
f 1 80 97
f 1 97 73
f 1 73 98
f 1 98 99
f 1 99 131
f 1 131 132
f 1 132 133
f 1 133 134
f 1 134 135
f 1 135 130
f 1 130 129
f 1 129 164
f 1 164 157
f 1 157 187
f 1 187 188
f 1 188 191
f 1 191 190
f 1 190 225
f 1 225 264
f 1 264 234
f 1 234 233
f 1 233 266
f 1 266 300
f 1 300 299
f 1 299 298
f 1 298 297
f 1 297 296
f 1 296 295
f 1 295 257
f 1 257 261
f 1 261 256
f 1 256 291
f 1 291 292
f 1 292 294
f 1 294 325
f 1 325 335
f 1 335 334
f 1 334 333
f 1 333 336
f 1 336 339
f 1 339 338
f 1 338 342
f 1 342 340
f 1 340 331
f 1 331 328
f 1 328 309
f 1 309 329
f 1 329 327
f 1 327 326
f 1 326 305
f 1 305 304
f 1 304 302
f 1 302 271
f 1 271 301
f 1 301 267
f 1 267 235
f 1 235 200
f 1 200 167
f 1 167 138
f 1 138 110
f 1 110 84
f 1 84 59
f 1 59 40
f 1 40 26
f 1 26 13
f 1 13 5
f 1 5 12
f 1 12 24
f 1 24 38
f 1 38 56
f 1 56 81
f 1 81 105
f 1 105 115
f 1 115 88
f 1 88 61
f 1 61 42
f 1 42 27
f 1 27 15
f 1 15 6
f 1 6 2
f 2 6 7
f 2 7 8
f 2 8 9
f 2 9 3
f 3 9 10
f 3 10 4
f 4 10 11
f 5 13 14
f 5 14 12
f 6 15 7
f 7 15 16
f 7 16 17
f 7 17 18
f 7 18 19
f 7 19 8
f 8 19 9
f 9 19 20
f 9 20 21
f 9 21 22
f 9 22 10
f 10 22 23
f 10 23 11
f 12 14 25
f 12 25 24
f 13 26 41
f 13 41 60
f 13 60 85
f 13 85 111
f 13 111 139
f 13 139 168
f 13 168 174
f 13 174 198
f 13 198 165
f 13 165 136
f 13 136 106
f 13 106 82
f 13 82 57
f 13 57 39
f 13 39 25
f 13 25 14
f 15 27 28
f 15 28 16
f 16 28 29
f 16 29 30
f 16 30 31
f 16 31 17
f 17 32 33
f 17 33 18
f 17 31 34
f 17 34 32
f 18 35 20
f 18 20 19
f 18 33 35
f 20 35 21
f 21 35 36
f 21 36 22
f 22 36 37
f 22 37 23
f 24 25 38
f 25 39 38
f 26 40 41
f 27 42 28
f 28 42 29
f 29 42 43
f 29 43 44
f 29 44 45
f 29 45 30
f 30 45 31
f 31 45 46
f 31 46 47
f 31 47 34
f 32 48 49
f 32 49 33
f 32 34 48
f 33 49 36
f 33 36 35
f 34 50 51
f 34 51 48
f 34 47 52
f 34 52 53
f 34 53 54
f 34 54 50
f 36 49 37
f 37 49 55
f 38 39 57
f 38 57 56
f 40 58 60
f 40 60 41
f 40 59 83
f 40 83 58
f 42 61 43
f 43 61 62
f 43 62 44
f 44 63 64
f 44 64 65
f 44 65 45
f 44 62 66
f 44 66 63
f 45 65 46
f 46 65 67
f 46 67 68
f 46 68 47
f 47 68 69
f 47 69 70
f 47 70 71
f 47 71 52
f 48 72 49
f 48 51 72
f 49 72 73
f 49 73 74
f 49 74 55
f 50 75 51
f 50 54 76
f 50 76 75
f 51 75 77
f 51 77 72
f 52 71 78
f 52 78 79
f 52 79 53
f 53 79 76
f 53 76 54
f 55 74 80
f 56 57 82
f 56 82 81
f 58 83 60
f 59 84 107
f 59 107 83
f 60 83 86
f 60 86 87
f 60 87 85
f 61 88 62
f 62 88 115
f 62 115 136
f 62 136 165
f 62 165 199
f 62 199 209
f 62 209 177
f 62 177 146
f 62 146 116
f 62 116 90
f 62 90 89
f 62 89 63
f 62 63 66
f 63 89 64
f 64 67 65
f 64 89 90
f 64 90 91
f 64 91 92
f 64 92 67
f 67 92 68
f 68 92 69
f 69 93 70
f 69 92 94
f 69 94 95
f 69 95 93
f 70 93 96
f 70 96 71
f 71 96 78
f 72 77 98
f 72 98 73
f 73 97 74
f 74 97 80
f 75 99 98
f 75 98 77
f 75 76 100
f 75 100 101
f 75 101 131
f 75 131 99
f 76 79 100
f 78 102 79
f 78 96 102
f 79 103 100
f 79 102 104
f 79 104 103
f 81 82 106
f 81 106 105
f 83 107 108
f 83 108 87
f 83 87 109
f 83 109 86
f 84 110 137
f 84 137 107
f 85 87 111
f 86 109 87
f 87 108 112
f 87 112 113
f 87 113 114
f 87 114 111
f 90 116 117
f 90 117 118
f 90 118 119
f 90 119 91
f 91 119 92
f 92 119 120
f 92 120 121
f 92 121 94
f 93 122 96
f 93 95 123
f 93 123 124
f 93 124 125
f 93 125 122
f 94 126 95
f 94 121 127
f 94 127 126
f 95 126 123
f 96 122 128
f 96 128 129
f 96 129 130
f 96 130 104
f 96 104 102
f 100 103 101
f 101 132 131
f 101 103 132
f 103 133 132
f 103 104 134
f 103 134 133
f 104 130 135
f 104 135 134
f 105 106 115
f 106 136 115
f 107 137 108
f 108 137 112
f 110 138 166
f 110 166 137
f 111 114 139
f 112 137 140
f 112 140 141
f 112 141 142
f 112 142 113
f 113 142 143
f 113 143 114
f 114 144 139
f 114 143 145
f 114 145 144
f 116 146 147
f 116 147 148
f 116 148 149
f 116 149 117
f 117 149 150
f 117 150 118
f 118 151 152
f 118 152 119
f 118 150 153
f 118 153 151
f 119 152 120
f 120 152 151
f 120 151 154
f 120 154 155
f 120 155 127
f 120 127 121
f 122 125 156
f 122 156 157
f 122 157 128
f 123 126 158
f 123 158 125
f 123 125 124
f 125 158 156
f 126 159 160
f 126 160 161
f 126 161 158
f 126 127 162
f 126 162 159
f 127 155 154
f 127 154 163
f 127 163 162
f 128 157 164
f 128 164 129
f 137 166 140
f 138 167 166
f 139 144 168
f 140 166 167
f 140 167 169
f 140 169 141
f 141 169 142
f 142 169 170
f 142 170 171
f 142 171 143
f 143 172 145
f 143 171 173
f 143 173 172
f 144 174 168
f 144 145 175
f 144 175 174
f 145 172 176
f 145 176 175
f 146 177 147
f 147 178 148
f 147 177 179
f 147 179 180
f 147 180 178
f 148 178 149
f 149 178 181
f 149 181 150
f 150 181 182
f 150 182 153
f 151 183 184
f 151 184 185
f 151 185 154
f 151 153 183
f 153 182 183
f 154 185 186
f 154 186 163
f 156 158 188
f 156 188 187
f 156 187 157
f 158 161 191
f 158 191 188
f 159 189 160
f 159 162 189
f 160 190 191
f 160 191 161
f 160 189 162
f 160 162 194
f 160 194 190
f 162 163 192
f 162 192 193
f 162 193 229
f 162 229 194
f 163 195 196
f 163 196 197
f 163 197 192
f 163 186 195
f 165 198 199
f 167 200 169
f 169 200 235
f 169 235 201
f 169 201 202
f 169 202 170
f 170 202 203
f 170 203 171
f 171 203 173
f 172 173 204
f 172 204 205
f 172 205 206
f 172 206 176
f 173 207 208
f 173 208 204
f 173 203 207
f 174 175 198
f 175 176 199
f 175 199 198
f 176 206 209
f 176 209 199
f 177 209 179
f 178 180 210
f 178 210 211
f 178 211 212
f 178 212 181
f 179 209 213
f 179 213 214
f 179 214 180
f 180 214 210
f 181 212 215
f 181 215 182
f 182 215 216
f 182 216 217
f 182 217 185
f 182 185 184
f 182 184 183
f 185 217 218
f 185 218 216
f 185 216 186
f 186 216 219
f 186 219 220
f 186 220 221
f 186 221 222
f 186 222 223
f 186 223 224
f 186 224 195
f 190 194 225
f 192 197 226
f 192 226 193
f 193 226 227
f 193 227 228
f 193 228 264
f 193 264 229
f 194 229 225
f 195 224 230
f 195 230 231
f 195 231 232
f 195 232 196
f 196 232 233
f 196 233 234
f 196 234 227
f 196 227 226
f 196 226 197
f 201 235 267
f 201 267 236
f 201 236 237
f 201 237 202
f 202 237 207
f 202 207 203
f 204 208 238
f 204 238 205
f 205 238 239
f 205 239 213
f 205 213 209
f 205 209 206
f 207 237 240
f 207 240 241
f 207 241 208
f 208 241 242
f 208 242 243
f 208 243 244
f 208 244 238
f 210 214 245
f 210 245 211
f 211 246 247
f 211 247 212
f 211 245 248
f 211 248 246
f 212 247 249
f 212 249 215
f 213 250 251
f 213 251 214
f 213 239 250
f 214 251 245
f 215 249 252
f 215 252 253
f 215 253 216
f 216 253 219
f 216 218 217
f 219 254 220
f 219 253 255
f 219 255 254
f 220 254 256
f 220 256 221
f 221 257 295
f 221 295 258
f 221 258 259
f 221 259 260
f 221 260 222
f 221 256 261
f 221 261 257
f 222 260 223
f 223 260 262
f 223 262 263
f 223 263 230
f 223 230 224
f 225 229 264
f 227 234 228
f 228 234 264
f 230 263 231
f 231 265 233
f 231 233 232
f 231 263 298
f 231 298 265
f 233 265 266
f 236 267 301
f 236 301 268
f 236 268 237
f 237 268 240
f 238 244 269
f 238 269 250
f 238 250 239
f 240 268 270
f 240 270 271
f 240 271 241
f 241 271 272
f 241 272 273
f 241 273 274
f 241 274 275
f 241 275 276
f 241 276 242
f 242 276 277
f 242 277 278
f 242 278 279
f 242 279 280
f 242 280 243
f 243 280 281
f 243 281 250
f 243 250 269
f 243 269 244
f 245 251 282
f 245 282 281
f 245 281 283
f 245 283 284
f 245 284 248
f 246 285 286
f 246 286 247
f 246 248 287
f 246 287 288
f 246 288 285
f 247 286 289
f 247 289 249
f 248 284 287
f 249 289 252
f 250 281 282
f 250 282 251
f 252 289 290
f 252 290 253
f 253 290 255
f 254 291 256
f 254 255 291
f 255 292 291
f 255 290 293
f 255 293 294
f 255 294 292
f 258 295 296
f 258 296 262
f 258 262 259
f 259 262 260
f 262 296 297
f 262 297 263
f 263 297 298
f 265 298 299
f 265 299 300
f 265 300 266
f 268 301 271
f 268 271 270
f 271 302 303
f 271 303 272
f 272 303 304
f 272 304 273
f 273 304 305
f 273 305 274
f 274 305 326
f 274 326 306
f 274 306 275
f 275 306 307
f 275 307 276
f 276 307 306
f 276 306 308
f 276 308 277
f 277 308 278
f 278 309 279
f 278 308 310
f 278 310 309
f 279 309 311
f 279 311 312
f 279 312 280
f 280 312 313
f 280 313 314
f 280 314 315
f 280 315 284
f 280 284 281
f 281 284 283
f 284 315 316
f 284 316 287
f 285 317 320
f 285 320 286
f 285 288 318
f 285 318 319
f 285 319 333
f 285 333 317
f 286 320 325
f 286 325 321
f 286 321 289
f 287 316 322
f 287 322 323
f 287 323 288
f 288 324 318
f 288 323 324
f 289 321 290
f 290 321 293
f 293 321 325
f 293 325 294
f 302 304 303
f 306 326 327
f 306 327 308
f 308 327 329
f 308 329 310
f 309 328 311
f 309 310 329
f 311 328 330
f 311 330 312
f 312 330 313
f 313 330 314
f 314 330 331
f 314 331 332
f 314 332 315
f 315 332 316
f 316 332 322
f 317 333 334
f 317 334 335
f 317 335 320
f 318 324 336
f 318 336 319
f 319 336 333
f 320 335 325
f 322 332 323
f 323 332 337
f 323 337 338
f 323 338 339
f 323 339 336
f 323 336 324
f 328 331 330
f 331 340 341
f 331 341 332
f 332 341 340
f 332 340 337
f 337 340 342
f 337 342 338
