# https://github.com/mikedh/trimesh
v 0.03984915 -0.03081494 -0.01984459
v 0.03216916 -0.03081494 -0.01413285
v 0.03215495 -0.03997448 -0.01415243
v 0.03984915 -0.03997448 -0.01987786
v 0.03984915 -0.03081494 -0.03301602
v 0.03173401 -0.03081494 -0.01383924
v 0.03167540 -0.03997448 -0.01382750
v 0.03135036 -0.04030164 -0.01362588
v 0.03210345 -0.04062467 -0.01419353
v 0.03984915 -0.04062467 -0.01995616
v 0.03984915 -0.03997448 -0.03301602
v 0.03618677 -0.03081494 -0.03077870
v 0.03138944 -0.03081494 -0.01364154
v 0.03124380 -0.04073511 -0.01368069
v 0.03160968 -0.04056069 -0.01385294
v 0.03102711 -0.03081494 -0.01345950
v 0.03102356 -0.03997448 -0.01348103
v 0.03037527 -0.03997448 -0.01324027
v 0.03102534 -0.04056069 -0.01353976
v 0.03203418 -0.04097661 -0.01424834
v 0.03984915 -0.04099622 -0.02007948
v 0.03984915 -0.04046058 -0.03295534
v 0.03908719 -0.04046677 -0.03251101
v 0.03585641 -0.04041826 -0.03054968
v 0.03262563 -0.04036666 -0.02858835
v 0.02939662 -0.04031093 -0.02662703
v 0.03143207 -0.03997448 -0.02787390
v 0.03143207 -0.03081494 -0.02787390
v 0.03081043 -0.04099932 -0.01357891
v 0.03044809 -0.03081494 -0.01324223
v 0.03037527 -0.04062467 -0.01331661
v 0.03037527 -0.03081494 -0.01322461
v 0.02980336 -0.03081494 -0.01309151
v 0.02972521 -0.03997448 -0.01308955
v 0.03167362 -0.04105711 -0.01413481
v 0.03984915 -0.04118302 -0.02043573
v 0.03984915 -0.04063293 -0.03293186
v 0.03917244 -0.04090023 -0.03245816
v 0.03070031 -0.04094977 -0.02727493
v 0.02738782 -0.04047090 -0.02536254
v 0.02416059 -0.04042033 -0.02340121
v 0.02452647 -0.03997448 -0.02365176
v 0.02499182 -0.03997448 -0.02393754
v 0.02614097 -0.03081494 -0.02464025
v 0.03102534 -0.04113038 -0.01391950
v 0.02972521 -0.04062467 -0.01316589
v 0.03037527 -0.04106124 -0.01350844
v 0.02972521 -0.03867408 -0.01308759
v 0.02972521 -0.03081494 -0.01308172
v 0.02907514 -0.03997448 -0.01302300
v 0.03167362 -0.04125630 -0.01460068
v 0.03947439 -0.04126455 -0.02045139
v 0.03984915 -0.04134815 -0.02110125
v 0.03984915 -0.04107052 -0.03268326
v 0.03960582 -0.04104163 -0.03258735
v 0.03838562 -0.04101170 -0.03189051
v 0.03716186 -0.04097248 -0.03119563
v 0.03393108 -0.04096112 -0.02923626
v 0.02546249 -0.04097351 -0.02404715
v 0.02747130 -0.04090437 -0.02530969
v 0.02537901 -0.04062467 -0.02409805
v 0.02424229 -0.04085379 -0.02334444
v 0.02391726 -0.04063190 -0.02316436
v 0.02345902 -0.04062467 -0.02281007
v 0.02341461 -0.03997448 -0.02285118
v 0.02381602 -0.03997448 -0.02317415
v 0.02414105 -0.03997448 -0.02341295
v 0.02448917 -0.03081494 -0.02363023
v 0.03037527 -0.04126455 -0.01395081
v 0.02907514 -0.04062467 -0.01310130
v 0.02972521 -0.04111181 -0.01343601
v 0.02917638 -0.03081494 -0.01302496
v 0.02907514 -0.03081494 -0.01302104
v 0.02842508 -0.03081494 -0.01303670
v 0.02842508 -0.03802491 -0.01303866
v 0.02842508 -0.03997448 -0.01304062
v 0.03102356 -0.04134196 -0.01460068
v 0.03167362 -0.04135228 -0.01525054
v 0.03947439 -0.04135641 -0.02110125
v 0.03984915 -0.04135744 -0.02175111
v 0.03984915 -0.04126043 -0.03217042
v 0.03942288 -0.04116135 -0.03220370
v 0.03882432 -0.04109013 -0.03202557
v 0.03637504 -0.04103543 -0.03062602
v 0.03314426 -0.04102821 -0.02866470
v 0.03192228 -0.04099312 -0.02796981
v 0.02869328 -0.04098383 -0.02600848
v 0.02467567 -0.04103646 -0.02347755
v 0.02668625 -0.04101273 -0.02474204
v 0.02351940 -0.04097557 -0.02275526
v 0.02313399 -0.04062467 -0.02247927
v 0.02308959 -0.03997448 -0.02252624
v 0.02341461 -0.03081494 -0.02285118
v 0.02381602 -0.03081494 -0.02317415
v 0.02411086 -0.03081494 -0.02339142
v 0.02414105 -0.03081494 -0.02341295
v 0.02972521 -0.04131616 -0.01395081
v 0.02842508 -0.04062467 -0.01311891
v 0.02842508 -0.04112522 -0.01341057
v 0.02907514 -0.04112935 -0.01340274
v 0.02777679 -0.03081494 -0.01312870
v 0.02777679 -0.03997448 -0.01313653
v 0.02907514 -0.04133267 -0.01395081
v 0.03037527 -0.04135744 -0.01460068
v 0.03984915 -0.04135744 -0.03084917
v 0.03984915 -0.04135331 -0.03149903
v 0.03947439 -0.04134918 -0.03149903
v 0.03882432 -0.04129345 -0.03149903
v 0.03752419 -0.04125010 -0.03084917
v 0.03232368 -0.04107156 -0.02808921
v 0.03817071 -0.04113451 -0.03152448
v 0.02712673 -0.04109117 -0.02487710
v 0.02521739 -0.04109530 -0.02369482
v 0.02448562 -0.04115516 -0.02309585
v 0.02387641 -0.04106021 -0.02288837
v 0.02327253 -0.04105091 -0.02234812
v 0.02288533 -0.04096526 -0.02209561
v 0.02283915 -0.04062467 -0.02215434
v 0.02280007 -0.03997448 -0.02220131
v 0.02306294 -0.03081494 -0.02249688
v 0.02308959 -0.03081494 -0.02252624
v 0.02777679 -0.04062467 -0.01321483
v 0.02777679 -0.04109943 -0.01345950
v 0.02777679 -0.04130274 -0.01395081
v 0.02842508 -0.04132957 -0.01395081
v 0.02712673 -0.03081494 -0.01330095
v 0.02712673 -0.03997448 -0.01331661
v 0.02712673 -0.04062467 -0.01339099
v 0.02712673 -0.04135538 -0.01460068
v 0.02777679 -0.04135744 -0.01460068
v 0.03882432 -0.04135744 -0.03084917
v 0.03752419 -0.04135434 -0.03019931
v 0.03427388 -0.04135331 -0.02824972
v 0.03622407 -0.04134712 -0.02954945
v 0.03817426 -0.04133680 -0.03084917
v 0.03687413 -0.04131719 -0.03019931
v 0.03362381 -0.04131099 -0.02824972
v 0.03557400 -0.04128519 -0.02954945
v 0.03232368 -0.04127488 -0.02759986
v 0.02907514 -0.04126352 -0.02564832
v 0.02582660 -0.04125113 -0.02369873
v 0.03427388 -0.04123669 -0.02889958
v 0.03102356 -0.04122224 -0.02694804
v 0.03169316 -0.04111594 -0.02760965
v 0.02647133 -0.04113451 -0.02437404
v 0.02387641 -0.04125733 -0.02240097
v 0.02322634 -0.04124288 -0.02175111
v 0.02277521 -0.04104576 -0.02175111
v 0.02220862 -0.04099518 -0.02087223
v 0.02230453 -0.04062467 -0.02132439
v 0.02256740 -0.04062467 -0.02175111
v 0.02248748 -0.03997448 -0.02175111
v 0.02276988 -0.03081494 -0.02216021
v 0.02280007 -0.03081494 -0.02220131
v 0.02676085 -0.04097145 -0.01360631
v 0.02712673 -0.04103027 -0.01354563
v 0.02712673 -0.04123256 -0.01395081
v 0.02647666 -0.04132338 -0.01460068
v 0.02659033 -0.03081494 -0.01350452
v 0.02659389 -0.03997448 -0.01352606
v 0.02666671 -0.04062467 -0.01356129
v 0.02582660 -0.04134402 -0.01525054
v 0.02517654 -0.04135434 -0.01590040
v 0.02452647 -0.04135744 -0.01655026
v 0.02647666 -0.04135744 -0.01525054
v 0.03232368 -0.04135641 -0.02694804
v 0.02712673 -0.04135744 -0.02369873
v 0.02582660 -0.04135434 -0.02304887
v 0.03102356 -0.04135125 -0.02629818
v 0.02777679 -0.04134918 -0.02434860
v 0.02452647 -0.04134608 -0.02240097
v 0.03297375 -0.04134402 -0.02759986
v 0.03492394 -0.04133370 -0.02889958
v 0.02842508 -0.04132338 -0.02499846
v 0.02517654 -0.04131719 -0.02304887
v 0.02712673 -0.04129449 -0.02434860
v 0.02387641 -0.04135022 -0.02175111
v 0.02322634 -0.04133886 -0.02110125
v 0.02257628 -0.04126043 -0.02045139
v 0.02254964 -0.04112522 -0.02109342
v 0.02215179 -0.04062467 -0.02099946
v 0.02213935 -0.04105607 -0.02045139
v 0.02180011 -0.04062467 -0.01980153
v 0.02195464 -0.04062467 -0.02045139
v 0.02226369 -0.03997448 -0.02140073
v 0.02246616 -0.03081494 -0.02171783
v 0.02248748 -0.03081494 -0.02175111
v 0.02634168 -0.04062467 -0.01373159
v 0.02553887 -0.04085689 -0.01430511
v 0.02597224 -0.04104369 -0.01415830
v 0.02651574 -0.04109839 -0.01394494
v 0.02578397 -0.04115825 -0.01455370
v 0.02517654 -0.04126249 -0.01525054
v 0.02452647 -0.04130686 -0.01590040
v 0.02629550 -0.03081494 -0.01365525
v 0.02626886 -0.03997448 -0.01368852
v 0.02387641 -0.04132441 -0.01655026
v 0.02387641 -0.04135744 -0.01720012
v 0.02517654 -0.04135744 -0.02240097
v 0.02647666 -0.04133783 -0.02369873
v 0.02387641 -0.04135744 -0.02110125
v 0.02322634 -0.04135641 -0.02045139
v 0.02257628 -0.04131409 -0.01980153
v 0.02206476 -0.04111078 -0.01980153
v 0.02188004 -0.03997448 -0.02045139
v 0.02211626 -0.03997448 -0.02107580
v 0.02178235 -0.04062467 -0.01915166
v 0.02172374 -0.03997448 -0.01980153
v 0.02226369 -0.03081494 -0.02140073
v 0.02546249 -0.04042342 -0.01424834
v 0.02578397 -0.04063397 -0.01408392
v 0.02472895 -0.04062467 -0.01483752
v 0.02440392 -0.04062467 -0.01507828
v 0.02480710 -0.04097970 -0.01489429
v 0.02517654 -0.04106124 -0.01476118
v 0.02456555 -0.04109013 -0.01526424
v 0.02387108 -0.04112935 -0.01588670
v 0.02582660 -0.03081494 -0.01395277
v 0.02542342 -0.03081494 -0.01420919
v 0.02582660 -0.03997448 -0.01397235
v 0.02321036 -0.04113038 -0.01654439
v 0.02322634 -0.04130480 -0.01720012
v 0.02322634 -0.04135228 -0.01785194
v 0.02322634 -0.04135744 -0.01850180
v 0.02322634 -0.04135744 -0.01980153
v 0.02257628 -0.04132028 -0.01915166
v 0.02205410 -0.04111697 -0.01915166
v 0.02188004 -0.03081494 -0.02045139
v 0.02211626 -0.03081494 -0.02107580
v 0.02170775 -0.03997448 -0.01915166
v 0.02210916 -0.04108188 -0.01850180
v 0.02189425 -0.04062467 -0.01850180
v 0.02170598 -0.03477599 -0.01915166
v 0.02172196 -0.03081494 -0.01974085
v 0.02172374 -0.03081494 -0.01980153
v 0.02544296 -0.03997448 -0.01423268
v 0.02434886 -0.03997448 -0.01503326
v 0.02391549 -0.03997448 -0.01535820
v 0.02397055 -0.04062467 -0.01540322
v 0.02364551 -0.04062467 -0.01565572
v 0.02408422 -0.04102202 -0.01548934
v 0.02341817 -0.04104163 -0.01609418
v 0.02512681 -0.03081494 -0.01442842
v 0.02281784 -0.04102305 -0.01675775
v 0.02268285 -0.04110149 -0.01720012
v 0.02251589 -0.04115102 -0.01779713
v 0.02257628 -0.04128623 -0.01850180
v 0.02181965 -0.03997448 -0.01850180
v 0.02218021 -0.04102098 -0.01797722
v 0.02226013 -0.04091984 -0.01754463
v 0.02211449 -0.04067215 -0.01779713
v 0.02201502 -0.03997448 -0.01785194
v 0.02171664 -0.03081494 -0.01908903
v 0.02170598 -0.03081494 -0.01915166
v 0.02436307 -0.03081494 -0.01499412
v 0.02359045 -0.03997448 -0.01561070
v 0.02330272 -0.04062467 -0.01598065
v 0.02297769 -0.04062467 -0.01631733
v 0.02273613 -0.04062467 -0.01664226
v 0.02183741 -0.03081494 -0.01843916
v 0.02181965 -0.03081494 -0.01850180
v 0.02238446 -0.04067215 -0.01722165
v 0.02221217 -0.04048638 -0.01745067
v 0.02201502 -0.03081494 -0.01785194
v 0.02219441 -0.03997448 -0.01741348
v 0.02361532 -0.03081494 -0.01557547
v 0.02325477 -0.03997448 -0.01593563
v 0.02292973 -0.03997448 -0.01626252
v 0.02269528 -0.03997448 -0.01658745
v 0.02237025 -0.03997448 -0.01708855
v 0.02219441 -0.03081494 -0.01741348
v 0.02221040 -0.03081494 -0.01738216
v 0.02325832 -0.03081494 -0.01592780
v 0.02296525 -0.03081494 -0.01622142
v 0.02292973 -0.03081494 -0.01626056
v 0.02240044 -0.03081494 -0.01703961
v 0.02269528 -0.03081494 -0.01658549
v 0.02237025 -0.03081494 -0.01708855
f 1 2 3
f 1 3 4
f 1 4 10
f 1 10 21
f 1 21 36
f 1 36 53
f 1 53 80
f 1 80 105
f 1 105 106
f 1 106 81
f 1 81 54
f 1 54 37
f 1 37 22
f 1 22 11
f 1 11 5
f 1 5 12
f 1 12 28
f 1 28 44
f 1 44 68
f 1 68 96
f 1 96 95
f 1 95 94
f 1 94 93
f 1 93 121
f 1 121 120
f 1 120 154
f 1 154 153
f 1 153 187
f 1 187 186
f 1 186 209
f 1 209 229
f 1 229 228
f 1 228 235
f 1 235 234
f 1 234 254
f 1 254 253
f 1 253 261
f 1 261 260
f 1 260 264
f 1 264 271
f 1 271 272
f 1 272 278
f 1 278 276
f 1 276 277
f 1 277 275
f 1 275 274
f 1 274 273
f 1 273 266
f 1 266 255
f 1 255 243
f 1 243 219
f 1 219 218
f 1 218 195
f 1 195 159
f 1 159 126
f 1 126 101
f 1 101 74
f 1 74 73
f 1 73 72
f 1 72 49
f 1 49 33
f 1 33 32
f 1 32 30
f 1 30 16
f 1 16 13
f 1 13 6
f 1 6 2
f 2 6 7
f 2 7 3
f 3 7 8
f 3 8 9
f 3 9 10
f 3 10 4
f 5 11 12
f 6 13 8
f 6 8 7
f 8 14 15
f 8 15 9
f 8 13 16
f 8 16 17
f 8 17 18
f 8 18 19
f 8 19 14
f 9 15 20
f 9 20 10
f 10 20 21
f 11 22 23
f 11 23 24
f 11 24 25
f 11 25 26
f 11 26 27
f 11 27 12
f 12 27 28
f 14 19 29
f 14 29 20
f 14 20 15
f 16 30 17
f 17 30 18
f 18 31 19
f 18 30 32
f 18 32 33
f 18 33 34
f 18 34 46
f 18 46 31
f 19 31 29
f 20 29 35
f 20 35 36
f 20 36 21
f 22 37 23
f 23 37 38
f 23 38 39
f 23 39 24
f 24 39 25
f 25 39 40
f 25 40 41
f 25 41 26
f 26 41 42
f 26 42 43
f 26 43 27
f 27 43 44
f 27 44 28
f 29 45 35
f 29 31 46
f 29 46 47
f 29 47 45
f 33 48 34
f 33 49 48
f 34 48 50
f 34 50 46
f 35 45 51
f 35 51 36
f 36 52 53
f 36 51 52
f 37 54 55
f 37 55 38
f 38 55 56
f 38 56 57
f 38 57 58
f 38 58 39
f 39 58 59
f 39 59 60
f 39 60 61
f 39 61 40
f 40 61 41
f 41 62 63
f 41 63 64
f 41 64 65
f 41 65 66
f 41 66 67
f 41 67 42
f 41 61 62
f 42 67 68
f 42 68 43
f 43 68 44
f 45 47 69
f 45 69 51
f 46 50 70
f 46 70 71
f 46 71 47
f 47 71 69
f 48 49 72
f 48 72 50
f 50 72 73
f 50 73 74
f 50 74 75
f 50 75 76
f 50 76 98
f 50 98 70
f 51 69 77
f 51 77 53
f 51 53 52
f 53 77 78
f 53 78 79
f 53 79 80
f 54 81 82
f 54 82 83
f 54 83 55
f 55 83 84
f 55 84 56
f 56 84 85
f 56 85 86
f 56 86 57
f 57 86 58
f 58 86 87
f 58 87 59
f 59 88 62
f 59 62 60
f 59 87 89
f 59 89 88
f 60 62 61
f 62 88 90
f 62 90 63
f 63 90 64
f 64 90 91
f 64 91 92
f 64 92 65
f 65 92 121
f 65 121 93
f 65 93 94
f 65 94 66
f 66 94 95
f 66 95 67
f 67 95 96
f 67 96 68
f 69 71 97
f 69 97 77
f 70 98 99
f 70 99 100
f 70 100 71
f 71 100 97
f 74 101 75
f 75 101 102
f 75 102 76
f 76 102 122
f 76 122 98
f 77 97 103
f 77 103 104
f 77 104 78
f 78 104 79
f 79 104 80
f 80 104 130
f 80 130 165
f 80 165 164
f 80 164 198
f 80 198 224
f 80 224 225
f 80 225 201
f 80 201 199
f 80 199 167
f 80 167 131
f 80 131 105
f 81 106 107
f 81 107 108
f 81 108 82
f 82 108 109
f 82 109 83
f 83 110 84
f 83 109 111
f 83 111 112
f 83 112 110
f 84 110 88
f 84 88 85
f 85 88 89
f 85 89 86
f 86 89 87
f 88 112 113
f 88 113 114
f 88 114 115
f 88 115 90
f 88 110 112
f 90 115 116
f 90 116 117
f 90 117 91
f 91 117 118
f 91 118 92
f 92 118 119
f 92 119 120
f 92 120 121
f 97 100 103
f 98 122 123
f 98 123 99
f 99 123 124
f 99 124 125
f 99 125 100
f 100 125 103
f 101 126 102
f 102 126 127
f 102 127 128
f 102 128 122
f 103 125 129
f 103 129 130
f 103 130 104
f 105 131 106
f 106 131 107
f 107 131 132
f 107 132 133
f 107 133 134
f 107 134 135
f 107 135 108
f 108 135 136
f 108 136 137
f 108 137 138
f 108 138 109
f 109 138 139
f 109 139 140
f 109 140 141
f 109 141 142
f 109 142 111
f 111 142 143
f 111 143 144
f 111 144 112
f 112 145 113
f 112 144 145
f 113 141 114
f 113 145 141
f 114 141 146
f 114 146 115
f 115 146 116
f 116 146 147
f 116 147 148
f 116 148 117
f 117 148 149
f 117 149 150
f 117 150 151
f 117 151 118
f 118 151 152
f 118 152 119
f 119 152 153
f 119 153 154
f 119 154 120
f 122 128 155
f 122 155 156
f 122 156 123
f 123 156 157
f 123 157 124
f 124 157 158
f 124 158 129
f 124 129 125
f 126 159 127
f 127 159 160
f 127 160 161
f 127 161 128
f 128 161 155
f 129 158 162
f 129 162 163
f 129 163 164
f 129 164 165
f 129 165 130
f 131 166 132
f 131 167 166
f 132 166 133
f 133 166 168
f 133 168 169
f 133 169 134
f 134 169 170
f 134 170 171
f 134 171 172
f 134 172 173
f 134 173 135
f 135 173 136
f 136 173 174
f 136 174 137
f 137 174 175
f 137 175 176
f 137 176 138
f 138 176 139
f 139 176 140
f 140 176 141
f 141 176 175
f 141 175 146
f 141 145 143
f 141 143 142
f 143 145 144
f 146 171 177
f 146 177 178
f 146 178 147
f 146 175 171
f 147 178 179
f 147 179 180
f 147 180 148
f 148 180 149
f 149 181 150
f 149 180 182
f 149 182 183
f 149 183 184
f 149 184 181
f 150 185 151
f 150 181 185
f 151 185 152
f 152 185 186
f 152 186 187
f 152 187 153
f 155 188 189
f 155 189 190
f 155 190 191
f 155 191 156
f 155 161 188
f 156 191 157
f 157 191 192
f 157 192 158
f 158 192 193
f 158 193 194
f 158 194 162
f 159 195 196
f 159 196 160
f 160 196 161
f 161 196 188
f 162 194 197
f 162 197 163
f 163 197 164
f 164 197 198
f 166 167 168
f 167 199 168
f 168 199 177
f 168 177 171
f 168 171 170
f 168 170 169
f 171 175 200
f 171 200 172
f 172 200 173
f 173 200 174
f 174 200 175
f 177 201 202
f 177 202 178
f 177 199 201
f 178 202 203
f 178 203 179
f 179 203 204
f 179 204 182
f 179 182 180
f 181 184 205
f 181 205 206
f 181 206 185
f 182 204 183
f 183 204 207
f 183 207 208
f 183 208 184
f 184 208 205
f 185 209 186
f 185 206 229
f 185 229 209
f 188 196 210
f 188 210 211
f 188 211 189
f 189 211 210
f 189 210 212
f 189 212 213
f 189 213 214
f 189 214 190
f 190 214 215
f 190 215 192
f 190 192 191
f 192 215 216
f 192 216 193
f 193 216 217
f 193 217 194
f 194 217 197
f 195 218 196
f 196 218 219
f 196 219 220
f 196 220 210
f 197 217 221
f 197 221 222
f 197 222 223
f 197 223 198
f 198 223 224
f 201 225 202
f 202 225 226
f 202 226 203
f 203 226 227
f 203 227 204
f 204 227 207
f 205 208 235
f 205 235 228
f 205 228 229
f 205 229 206
f 207 230 208
f 207 227 231
f 207 231 232
f 207 232 248
f 207 248 230
f 208 230 233
f 208 233 234
f 208 234 235
f 210 220 236
f 210 236 237
f 210 237 238
f 210 238 239
f 210 239 213
f 210 213 212
f 213 239 214
f 214 239 240
f 214 240 241
f 214 241 215
f 215 241 216
f 216 241 217
f 217 242 221
f 217 241 242
f 219 243 237
f 219 237 236
f 219 236 220
f 221 242 244
f 221 244 245
f 221 245 222
f 222 245 246
f 222 246 247
f 222 247 223
f 223 247 226
f 223 226 224
f 224 226 225
f 226 247 227
f 227 247 231
f 230 248 233
f 231 247 246
f 231 246 249
f 231 249 232
f 232 249 250
f 232 250 251
f 232 251 252
f 232 252 248
f 233 248 253
f 233 253 254
f 233 254 234
f 237 255 238
f 237 243 255
f 238 255 256
f 238 256 240
f 238 240 239
f 240 256 257
f 240 257 242
f 240 242 241
f 242 258 244
f 242 257 258
f 244 259 250
f 244 250 245
f 244 258 259
f 245 250 249
f 245 249 246
f 248 252 260
f 248 260 261
f 248 261 253
f 250 259 262
f 250 262 263
f 250 263 251
f 251 263 252
f 252 264 260
f 252 263 265
f 252 265 271
f 252 271 264
f 255 266 256
f 256 267 257
f 256 266 267
f 257 267 268
f 257 268 258
f 258 268 259
f 259 269 270
f 259 270 263
f 259 263 262
f 259 268 269
f 263 270 265
f 265 272 271
f 265 270 272
f 266 273 267
f 267 273 274
f 267 274 268
f 268 274 275
f 268 275 277
f 268 277 269
f 269 276 270
f 269 277 276
f 270 276 278
f 270 278 272
