# https://github.com/mikedh/trimesh
v -0.00602456 0.00927794 -0.03150827
v 0.00605470 0.00927794 -0.03150827
v -0.00652292 0.00927794 -0.03150465
v -0.00667454 0.00942792 -0.03146115
v -0.00602456 0.00942792 -0.03146478
v 0.00605470 0.00942792 -0.03146478
v 0.00611139 0.03169681 -0.00860792
v 0.00611139 0.02874793 -0.00860792
v 0.00605470 0.00927794 -0.02859408
v -0.00667454 0.00927794 -0.03150102
v -0.00707665 0.00994709 -0.03123643
v -0.00667454 0.01004631 -0.03126905
v 0.00605470 0.01004631 -0.03126905
v 0.00611139 0.03187910 -0.00789750
v 0.00605470 0.01072930 -0.03104070
v 0.00605470 0.01137769 -0.03081234
v 0.00605470 0.01191301 -0.03060574
v 0.00605470 0.01242295 -0.03040276
v 0.00605470 0.01267677 -0.03030128
v 0.00605470 0.01294904 -0.03018529
v 0.00605470 0.01346359 -0.02996056
v 0.00605470 0.01397815 -0.02971771
v 0.00605470 0.01462653 -0.02940962
v 0.00605470 0.01498188 -0.02923926
v 0.00605470 0.01622788 -0.02855783
v 0.00605470 0.01637325 -0.02847447
v 0.00605470 0.01657630 -0.02835485
v 0.00605470 0.01709547 -0.02804314
v 0.00605470 0.01787768 -0.02755744
v 0.00605470 0.01803690 -0.02745595
v 0.00605470 0.01825841 -0.02731096
v 0.00605470 0.01839455 -0.02722035
v 0.00605470 0.01858376 -0.02708624
v 0.00605470 0.01904293 -0.02676002
v 0.00605470 0.01936828 -0.02652804
v 0.00605470 0.01980669 -0.02620183
v 0.00605470 0.02012973 -0.02595898
v 0.00605470 0.02047584 -0.02568351
v 0.00605470 0.02086118 -0.02537179
v 0.00605470 0.02118191 -0.02510357
v 0.00605470 0.02134343 -0.02496583
v 0.00605470 0.02156263 -0.02477735
v 0.00605470 0.02189029 -0.02448738
v 0.00605470 0.02212795 -0.02427353
v 0.00605470 0.02225255 -0.02416117
v 0.00605470 0.02257790 -0.02386033
v 0.00605470 0.02291247 -0.02353773
v 0.00605470 0.02324013 -0.02321514
v 0.00605470 0.02337396 -0.02308103
v 0.00605470 0.02356086 -0.02288893
v 0.00605470 0.02388620 -0.02255184
v 0.00605470 0.02418386 -0.02222562
v 0.00605470 0.02432000 -0.02207339
v 0.00605470 0.02450920 -0.02185954
v 0.00605470 0.02479533 -0.02153332
v 0.00605470 0.02511836 -0.02115998
v 0.00605470 0.02539525 -0.02083377
v 0.00605470 0.02569983 -0.02044956
v 0.00605470 0.02622823 -0.01977175
v 0.00605470 0.02636437 -0.01959415
v 0.00605470 0.02655127 -0.01934405
v 0.00605470 0.02677971 -0.01901783
v 0.00605470 0.02732656 -0.01821679
v 0.00605470 0.02757115 -0.01785071
v 0.00605470 0.02786419 -0.01738675
v 0.00605470 0.02806494 -0.01706054
v 0.00605470 0.02858410 -0.01619425
v 0.00605470 0.02875716 -0.01587166
v 0.00605470 0.02908251 -0.01525548
v 0.00605470 0.02925326 -0.01492926
v 0.00605470 0.02942170 -0.01459580
v 0.00605470 0.02955322 -0.01432758
v 0.00605470 0.02973551 -0.01394699
v 0.00605470 0.03003778 -0.01328006
v 0.00605470 0.03031236 -0.01264938
v 0.00605470 0.03049695 -0.01219630
v 0.00605470 0.03082230 -0.01135176
v 0.00605470 0.03105535 -0.01069933
v 0.00605470 0.03117995 -0.01032237
v 0.00605470 0.03147299 -0.00940172
v 0.00605470 0.03155145 -0.00913350
v 0.00605470 0.03165989 -0.00875291
v 0.00605470 0.03167605 -0.00869129
v 0.00611139 0.02947015 0.00552084
v -0.00602456 0.00927794 -0.02866657
v -0.00703842 0.00927794 -0.03139228
v -0.00667454 0.01036935 -0.03116031
v -0.00714784 0.00942792 -0.03131617
v -0.00714125 0.01137769 -0.03066374
v -0.00706874 0.01184379 -0.03058037
v -0.00602456 0.01072930 -0.03104070
v -0.00667322 0.03187910 -0.00789750
v 0.00611139 0.03199216 -0.00744805
v -0.00602456 0.01137769 -0.03081234
v -0.00667454 0.01191301 -0.03060574
v -0.00602456 0.01267677 -0.03030128
v -0.00667454 0.01332746 -0.03001855
v -0.00699886 0.01365280 -0.02986995
v -0.00667454 0.01397815 -0.02971771
v -0.00667454 0.01462653 -0.02940962
v -0.00667454 0.01498188 -0.02923926
v -0.00602456 0.01622788 -0.02855783
v -0.00602456 0.01657630 -0.02835485
v -0.00667454 0.01709547 -0.02804314
v -0.00602456 0.01787768 -0.02755744
v -0.00667454 0.01825841 -0.02731096
v -0.00667454 0.01858376 -0.02708261
v -0.00537326 0.01936597 -0.02652804
v 0.00502370 0.01936828 -0.02652804
v 0.00307378 0.01980669 -0.02620183
v 0.00177251 0.02012973 -0.02595898
v 0.00047256 0.02047584 -0.02568351
v 0.00437373 0.02086118 -0.02537179
v 0.00047256 0.02118191 -0.02510357
v -0.00667454 0.02156263 -0.02477735
v 0.00502370 0.02189029 -0.02448738
v 0.00372243 0.02212795 -0.02427353
v -0.00017742 0.02225255 -0.02416117
v 0.00047256 0.02257790 -0.02386033
v -0.00537326 0.02291247 -0.02353773
v 0.00177251 0.02324013 -0.02321514
v -0.00537326 0.02388390 -0.02255184
v 0.00502370 0.02388620 -0.02255184
v -0.00667454 0.02418386 -0.02222562
v -0.00667454 0.02450920 -0.02185954
v -0.00667454 0.02479533 -0.02153332
v -0.00667454 0.02511836 -0.02115998
v -0.00667454 0.02539525 -0.02083377
v -0.00602456 0.02569983 -0.02044956
v -0.00602456 0.02622823 -0.01977175
v -0.00667454 0.02655127 -0.01934405
v -0.00667454 0.02677971 -0.01901783
v -0.00667454 0.02732656 -0.01821679
v -0.00602456 0.02757115 -0.01785071
v -0.00602456 0.02786419 -0.01738675
v -0.00602456 0.02806494 -0.01706054
v -0.00602456 0.02858410 -0.01619425
v -0.00667454 0.02875716 -0.01587166
v -0.00667454 0.02908251 -0.01525548
v -0.00667454 0.02925326 -0.01492926
v -0.00667454 0.02942170 -0.01459580
v -0.00602456 0.02973551 -0.01394699
v -0.00667454 0.03003778 -0.01328006
v -0.00602456 0.03031236 -0.01264938
v -0.00602456 0.03049695 -0.01219630
v -0.00602456 0.03082230 -0.01135176
v -0.00602456 0.03105535 -0.01069933
v -0.00602456 0.03117995 -0.01032237
v -0.00667454 0.03147299 -0.00940172
v -0.00602456 0.03165989 -0.00875291
v 0.00611139 0.03237981 0.00552084
v -0.00667322 0.02962014 0.00552084
v -0.00667454 0.00927794 -0.02867382
v -0.00715443 0.00927794 -0.03133429
v -0.00667454 0.01137769 -0.03080872
v -0.00729155 0.00927794 -0.03097545
v -0.00732583 0.00942792 -0.03084859
v -0.00731924 0.01137769 -0.03019616
v -0.00716499 0.01267677 -0.03007655
v -0.00707533 0.01332746 -0.02994606
v -0.00667454 0.03165066 -0.00875291
v -0.00702786 0.03186756 -0.00785763
v -0.00667322 0.03199216 -0.00744805
v 0.00611139 0.03213522 -0.00679924
v -0.00667454 0.01267677 -0.03029040
v -0.00701469 0.01497034 -0.02923201
v -0.00667454 0.01590254 -0.02873544
v -0.00667454 0.01622788 -0.02855421
v -0.00667454 0.01657630 -0.02835123
v -0.00703182 0.01823995 -0.02730009
v -0.00667454 0.01904062 -0.02675640
v -0.00602456 0.01936366 -0.02652804
v -0.00667454 0.01980207 -0.02620183
v -0.00212207 0.01980438 -0.02620183
v -0.00602456 0.02012742 -0.02595536
v -0.00602456 0.02047584 -0.02567988
v -0.00667454 0.02085887 -0.02537179
v -0.00667454 0.02118191 -0.02509995
v -0.00703578 0.02084041 -0.02535367
v -0.00706742 0.02152341 -0.02474111
v -0.00667454 0.02212333 -0.02427353
v -0.00667454 0.02225024 -0.02415754
v -0.00537326 0.02257559 -0.02386033
v -0.00667454 0.02257328 -0.02386033
v -0.00667454 0.02291017 -0.02353411
v -0.00667454 0.02323551 -0.02321152
v -0.00667454 0.02355624 -0.02288530
v -0.00667454 0.02388159 -0.02254821
v -0.00708324 0.02414002 -0.02217488
v -0.00706347 0.02476302 -0.02149707
v -0.00703842 0.02538141 -0.02081564
v -0.00667454 0.02622592 -0.01977175
v -0.00702391 0.02731733 -0.01820229
v -0.00667454 0.02756423 -0.01785071
v -0.00667454 0.02785958 -0.01738675
v -0.00668245 0.02806263 -0.01706054
v -0.00667454 0.02857949 -0.01619425
v -0.00700281 0.02925095 -0.01492926
v -0.00667454 0.02973320 -0.01394699
v -0.00706215 0.03059848 -0.01180484
v -0.00667454 0.03030313 -0.01264938
v -0.00667454 0.03062156 -0.01187008
v -0.00667454 0.03081999 -0.01135176
v -0.00667454 0.03104843 -0.01069933
v -0.00667454 0.03128378 -0.00999615
v -0.00707138 0.03125610 -0.00990554
v 0.00372112 0.03237981 0.00552084
v 0.00611139 0.03251595 0.00467993
v -0.00669035 0.02962475 0.00552084
v -0.00672068 0.00927794 -0.02869557
v -0.00733242 0.00927794 -0.03084859
v -0.00735747 0.01072930 -0.03019616
v -0.00734429 0.01267677 -0.02954735
v -0.00725595 0.01332746 -0.02954735
v -0.00727178 0.01462653 -0.02889854
v -0.00709247 0.01462653 -0.02931538
v -0.00708984 0.03191832 -0.00744805
v -0.00701469 0.03250903 -0.00460634
v -0.00667322 0.03213522 -0.00679924
v -0.00714125 0.03133455 -0.00940172
v 0.00611139 0.03238442 -0.00550163
v -0.00710301 0.01580101 -0.02868107
v -0.00708324 0.01703086 -0.02800327
v -0.00711357 0.01787768 -0.02740883
v -0.00708852 0.01897602 -0.02671290
v -0.00667454 0.01936366 -0.02652442
v -0.00667454 0.02012742 -0.02595173
v -0.00711620 0.01970055 -0.02612571
v -0.00713466 0.02108038 -0.02497308
v -0.00716235 0.02175415 -0.02433515
v -0.00713994 0.02188106 -0.02427353
v -0.00708192 0.02219717 -0.02411405
v -0.00709247 0.02285709 -0.02347974
v -0.00708852 0.02350317 -0.02283093
v -0.00716235 0.02436384 -0.02172905
v -0.00717553 0.02372007 -0.02239235
v -0.00713466 0.02499607 -0.02105849
v -0.00711620 0.02614978 -0.01967026
v -0.00708852 0.02673586 -0.01895259
v -0.00707928 0.02802571 -0.01699892
v -0.00710170 0.02870409 -0.01577017
v -0.00708324 0.02933402 -0.01459580
v -0.00709643 0.02999163 -0.01317857
v -0.00713466 0.03068386 -0.01135176
v -0.00602192 0.03237519 0.00552084
v -0.00667322 0.03251364 0.00466906
v 0.00502239 0.03257594 0.00424860
v 0.00437109 0.03251595 0.00467631
v 0.00611139 0.03257594 0.00424860
v -0.00715048 0.02975858 0.00552084
v -0.00716235 0.00927794 -0.02891305
v -0.00735747 0.00927794 -0.03034840
v -0.00735088 0.01397815 -0.02889854
v -0.00735747 0.01722699 -0.02694850
v -0.00734561 0.01527723 -0.02824611
v -0.00733110 0.01657630 -0.02759731
v -0.00715312 0.01657630 -0.02813375
v -0.00714257 0.01522416 -0.02889854
v -0.00715312 0.03199216 -0.00679924
v -0.00705160 0.03253441 -0.00420401
v -0.00667322 0.03271669 -0.00290277
v -0.00667322 0.03265439 -0.00355158
v -0.00667322 0.03257132 -0.00420401
v -0.00667322 0.03251364 -0.00464622
v -0.00667322 0.03246288 -0.00496881
v -0.00667322 0.03225290 -0.00615043
v -0.00602192 0.03238442 -0.00550163
v -0.00732188 0.03087306 -0.00940172
v -0.00717685 0.03141992 -0.00875291
v 0.00611139 0.03246980 -0.00496881
v -0.00714389 0.01848454 -0.02693763
v -0.00719399 0.01723853 -0.02762631
v -0.00719663 0.01918599 -0.02632507
v -0.00729551 0.02047584 -0.02499846
v -0.00716367 0.02182106 -0.02427353
v -0.00717553 0.02241869 -0.02369722
v -0.00718212 0.02307399 -0.02304841
v -0.00731660 0.02437307 -0.02109837
v -0.00729683 0.02502376 -0.02044956
v -0.00733110 0.02372238 -0.02175080
v -0.00719531 0.02634822 -0.01916282
v -0.00713994 0.02695968 -0.01845239
v -0.00710697 0.02742809 -0.01785071
v -0.00711357 0.02791726 -0.01706054
v -0.00715048 0.02815723 -0.01654584
v -0.00726386 0.02892330 -0.01459580
v -0.00717158 0.02948861 -0.01394699
v -0.00716103 0.03009546 -0.01264938
v -0.00731528 0.03022237 -0.01135176
v -0.00667322 0.03235674 0.00552084
v -0.00537195 0.03257132 0.00424860
v -0.00667322 0.03256902 0.00424860
v -0.00701469 0.03250903 0.00463644
v 0.00567236 0.03265208 0.00359617
v 0.00611139 0.03265208 0.00359617
v -0.00732847 0.03022468 0.00552084
v -0.00735483 0.00927794 -0.02954735
v -0.00720981 0.00927794 -0.02904716
v -0.00735747 0.00927794 -0.02969959
v -0.00733506 0.01852607 -0.02629969
v -0.00735747 0.01917445 -0.02564726
v -0.00729155 0.01787768 -0.02694850
v -0.00733242 0.03152376 -0.00679924
v -0.00717553 0.03204523 -0.00615043
v -0.00710170 0.03257594 -0.00355158
v -0.00667322 0.03276515 -0.00225397
v 0.00611139 0.03271669 -0.00290277
v 0.00611139 0.03265439 -0.00355158
v 0.00611139 0.03257132 -0.00420401
v -0.00602192 0.03246980 -0.00496881
v -0.00735747 0.03022237 -0.01069933
v -0.00735747 0.03087306 -0.00875291
v -0.00731792 0.02112192 -0.02434965
v -0.00732978 0.02177261 -0.02370084
v -0.00731924 0.02120037 -0.02427353
v -0.00733769 0.02242330 -0.02304841
v -0.00733637 0.02307168 -0.02239960
v -0.00735747 0.02567215 -0.01914832
v -0.00733506 0.02632053 -0.01849951
v -0.00728759 0.02697353 -0.01785071
v -0.00719004 0.02764960 -0.01720915
v -0.00718212 0.02776728 -0.01706054
v -0.00732847 0.02762422 -0.01654584
v -0.00734693 0.02827491 -0.01524823
v -0.00735088 0.02892330 -0.01394699
v -0.00734033 0.02957399 -0.01264938
v -0.00715048 0.03210984 0.00552084
v -0.00667322 0.03264516 0.00359617
v -0.00667322 0.03271208 0.00294736
v -0.00705160 0.03253441 0.00424860
v -0.00717553 0.03209600 0.00552084
v 0.00611139 0.03269593 0.00316122
v -0.00735352 0.03087306 0.00552084
v -0.00735747 0.00942792 -0.02954735
v -0.00735747 0.02112422 -0.02370084
v -0.00735352 0.03152376 -0.00615043
v -0.00731001 0.03217214 -0.00290277
v -0.00727968 0.03217214 -0.00355158
v -0.00713202 0.03260824 -0.00290277
v -0.00667322 0.03281130 -0.00152904
v -0.00602192 0.03280899 -0.00160154
v 0.00611139 0.03276515 -0.00225397
v -0.00735747 0.02762422 -0.01589704
v -0.00735747 0.03087306 -0.00860792
v -0.00735352 0.03217445 -0.00030392
v -0.00735747 0.02437307 -0.02044956
v -0.00735747 0.02697353 -0.01719827
v -0.00722299 0.02764268 -0.01706054
v 0.00611139 0.03271669 0.00294736
v 0.00567236 0.03277207 0.00229493
v -0.00667322 0.03276515 0.00229493
v -0.00709643 0.03257132 0.00359617
v -0.00735352 0.03152376 0.00552084
v -0.00712806 0.03260593 0.00294736
v -0.00727573 0.03217445 0.00359617
v -0.00735747 0.03022237 -0.00860792
v -0.00734165 0.03217445 -0.00152542
v -0.00732847 0.03217214 -0.00225397
v -0.00716499 0.03265439 -0.00152904
v -0.00716367 0.03265208 -0.00160154
v -0.00715048 0.03263132 -0.00225397
v -0.00667322 0.03283206 -0.00095273
v 0.00437109 0.03283437 -0.00095273
v 0.00611139 0.03280899 -0.00160154
v -0.00735352 0.03217445 0.00034489
v -0.00717289 0.03267054 0.00034489
v -0.00717158 0.03266824 -0.00030392
v -0.00717026 0.03266362 -0.00095273
v -0.00732319 0.03223214 -0.00152542
v 0.00611139 0.03277207 0.00229493
v 0.00567236 0.03280668 0.00164613
v -0.00667322 0.03280207 0.00164613
v -0.00730869 0.03217445 0.00294736
v -0.00732847 0.03217445 0.00229493
v -0.00734033 0.03217445 0.00164613
v -0.00734693 0.03217445 0.00099732
v -0.00715048 0.03263132 0.00229493
v -0.00667322 0.03284129 -0.00030392
v 0.00567236 0.03284591 -0.00030392
v 0.00611139 0.03283437 -0.00095273
v -0.00717026 0.03266362 0.00099732
v -0.00667322 0.03284360 0.00034489
v 0.00611139 0.03280668 0.00164613
v 0.00372112 0.03283437 0.00099732
v -0.00667322 0.03282976 0.00099732
v -0.00716103 0.03264978 0.00164613
v 0.00611139 0.03284821 -0.00009007
v -0.00017742 0.03284821 0.00034489
v 0.00437109 0.03285052 0.00034489
v 0.00611139 0.03284591 -0.00030392
v 0.00611139 0.03283437 0.00099732
v 0.00611139 0.03285052 0.00034489
f 1 2 9
f 1 9 85
f 1 85 153
f 1 153 210
f 1 210 251
f 1 251 298
f 1 298 297
f 1 297 299
f 1 299 252
f 1 252 211
f 1 211 156
f 1 156 154
f 1 154 86
f 1 86 10
f 1 10 3
f 1 3 4
f 1 4 5
f 1 5 6
f 1 6 2
f 2 6 7
f 2 7 8
f 2 8 9
f 3 10 4
f 4 10 11
f 4 11 12
f 4 12 5
f 5 12 13
f 5 13 6
f 6 13 7
f 7 14 93
f 7 93 164
f 7 164 221
f 7 221 270
f 7 270 309
f 7 309 308
f 7 308 307
f 7 307 342
f 7 342 364
f 7 364 380
f 7 380 390
f 7 390 387
f 7 387 392
f 7 392 391
f 7 391 383
f 7 383 370
f 7 370 349
f 7 349 332
f 7 332 295
f 7 295 249
f 7 249 208
f 7 208 151
f 7 151 84
f 7 84 8
f 7 13 15
f 7 15 16
f 7 16 17
f 7 17 18
f 7 18 19
f 7 19 20
f 7 20 21
f 7 21 22
f 7 22 23
f 7 23 24
f 7 24 25
f 7 25 26
f 7 26 27
f 7 27 28
f 7 28 29
f 7 29 30
f 7 30 31
f 7 31 32
f 7 32 33
f 7 33 34
f 7 34 35
f 7 35 36
f 7 36 37
f 7 37 38
f 7 38 39
f 7 39 40
f 7 40 41
f 7 41 42
f 7 42 43
f 7 43 44
f 7 44 45
f 7 45 46
f 7 46 47
f 7 47 48
f 7 48 49
f 7 49 50
f 7 50 51
f 7 51 52
f 7 52 53
f 7 53 54
f 7 54 55
f 7 55 56
f 7 56 57
f 7 57 58
f 7 58 59
f 7 59 60
f 7 60 61
f 7 61 62
f 7 62 63
f 7 63 64
f 7 64 65
f 7 65 66
f 7 66 67
f 7 67 68
f 7 68 69
f 7 69 70
f 7 70 71
f 7 71 72
f 7 72 73
f 7 73 74
f 7 74 75
f 7 75 76
f 7 76 77
f 7 77 78
f 7 78 79
f 7 79 80
f 7 80 81
f 7 81 82
f 7 82 83
f 7 83 14
f 8 84 9
f 9 84 85
f 10 86 11
f 11 87 12
f 11 86 88
f 11 88 89
f 11 89 90
f 11 90 87
f 12 87 91
f 12 91 15
f 12 15 13
f 14 83 92
f 14 92 163
f 14 163 93
f 15 91 94
f 15 94 16
f 16 94 95
f 16 95 17
f 17 95 18
f 18 95 96
f 18 96 19
f 19 96 20
f 20 96 97
f 20 97 21
f 21 97 98
f 21 98 99
f 21 99 22
f 22 99 100
f 22 100 23
f 23 100 101
f 23 101 24
f 24 101 102
f 24 102 25
f 25 102 26
f 26 102 103
f 26 103 27
f 27 103 104
f 27 104 28
f 28 104 105
f 28 105 29
f 29 105 30
f 30 105 106
f 30 106 31
f 31 106 32
f 32 106 107
f 32 107 33
f 33 107 108
f 33 108 34
f 34 108 109
f 34 109 35
f 35 109 110
f 35 110 36
f 36 110 111
f 36 111 37
f 37 111 112
f 37 112 38
f 38 112 113
f 38 113 39
f 39 113 114
f 39 114 40
f 40 114 41
f 41 114 115
f 41 115 42
f 42 115 116
f 42 116 43
f 43 116 117
f 43 117 44
f 44 117 118
f 44 118 45
f 45 118 119
f 45 119 46
f 46 119 120
f 46 120 47
f 47 120 121
f 47 121 48
f 48 121 49
f 49 121 122
f 49 122 50
f 50 122 123
f 50 123 51
f 51 123 124
f 51 124 52
f 52 124 53
f 53 124 125
f 53 125 54
f 54 125 126
f 54 126 55
f 55 126 127
f 55 127 56
f 56 127 128
f 56 128 57
f 57 128 129
f 57 129 58
f 58 129 130
f 58 130 59
f 59 130 60
f 60 130 131
f 60 131 61
f 61 131 132
f 61 132 62
f 62 132 133
f 62 133 63
f 63 133 134
f 63 134 64
f 64 134 135
f 64 135 65
f 65 135 136
f 65 136 66
f 66 136 137
f 66 137 67
f 67 137 138
f 67 138 68
f 68 138 139
f 68 139 69
f 69 139 140
f 69 140 70
f 70 140 141
f 70 141 71
f 71 141 72
f 72 141 142
f 72 142 73
f 73 142 143
f 73 143 74
f 74 143 144
f 74 144 75
f 75 144 145
f 75 145 76
f 76 145 146
f 76 146 77
f 77 146 147
f 77 147 78
f 78 147 148
f 78 148 79
f 79 148 205
f 79 205 149
f 79 149 80
f 80 149 81
f 81 149 150
f 81 150 82
f 82 150 83
f 83 150 92
f 84 151 207
f 84 207 245
f 84 245 290
f 84 290 327
f 84 327 331
f 84 331 353
f 84 353 333
f 84 333 296
f 84 296 250
f 84 250 209
f 84 209 152
f 84 152 153
f 84 153 85
f 86 154 88
f 87 90 155
f 87 155 91
f 88 154 156
f 88 156 157
f 88 157 158
f 88 158 89
f 89 158 159
f 89 159 160
f 89 160 90
f 90 95 155
f 90 160 98
f 90 98 95
f 91 155 94
f 92 150 161
f 92 161 162
f 92 162 163
f 93 163 219
f 93 219 164
f 94 155 95
f 95 98 165
f 95 165 96
f 96 165 97
f 97 165 98
f 98 160 166
f 98 166 101
f 98 101 100
f 98 100 99
f 101 166 167
f 101 167 102
f 102 167 168
f 102 168 169
f 102 169 103
f 103 169 104
f 104 169 170
f 104 170 106
f 104 106 105
f 106 170 107
f 107 170 171
f 107 171 172
f 107 172 108
f 108 172 173
f 108 173 174
f 108 174 110
f 108 110 109
f 110 174 111
f 111 174 173
f 111 173 175
f 111 175 176
f 111 176 112
f 112 176 177
f 112 177 113
f 113 177 114
f 114 177 178
f 114 178 115
f 115 178 179
f 115 179 180
f 115 180 181
f 115 181 118
f 115 118 116
f 116 118 117
f 118 181 182
f 118 182 183
f 118 183 119
f 119 183 120
f 120 183 184
f 120 184 185
f 120 185 186
f 120 186 121
f 121 186 187
f 121 187 122
f 122 188 124
f 122 124 123
f 122 187 188
f 124 188 189
f 124 189 190
f 124 190 191
f 124 191 125
f 125 191 126
f 126 191 127
f 127 191 128
f 128 191 192
f 128 192 129
f 129 192 130
f 130 192 131
f 131 192 191
f 131 191 193
f 131 193 132
f 132 193 133
f 133 193 194
f 133 194 134
f 134 194 195
f 134 195 135
f 135 195 196
f 135 196 136
f 136 196 137
f 137 196 197
f 137 197 138
f 138 197 198
f 138 198 139
f 139 198 140
f 140 198 141
f 141 198 199
f 141 199 142
f 142 199 143
f 143 200 201
f 143 201 144
f 143 199 198
f 143 198 200
f 144 201 202
f 144 202 145
f 145 202 146
f 146 203 147
f 146 202 203
f 147 203 204
f 147 204 205
f 147 205 148
f 149 205 206
f 149 206 162
f 149 162 161
f 149 161 150
f 151 208 207
f 152 209 153
f 153 209 210
f 156 211 157
f 157 211 212
f 157 212 158
f 158 212 213
f 158 213 214
f 158 214 159
f 159 214 215
f 159 215 216
f 159 216 160
f 160 216 166
f 162 217 218
f 162 218 219
f 162 219 163
f 162 206 220
f 162 220 217
f 164 219 267
f 164 267 221
f 166 216 222
f 166 222 223
f 166 223 169
f 166 169 168
f 166 168 167
f 169 223 170
f 170 223 224
f 170 224 225
f 170 225 179
f 170 179 173
f 170 173 226
f 170 226 171
f 171 226 172
f 172 226 173
f 173 179 227
f 173 227 175
f 175 227 176
f 176 227 177
f 177 179 178
f 177 227 179
f 179 225 228
f 179 228 180
f 180 228 229
f 180 229 230
f 180 230 231
f 180 231 232
f 180 232 184
f 180 184 182
f 180 182 181
f 182 184 183
f 184 232 233
f 184 233 185
f 185 233 186
f 186 234 187
f 186 233 234
f 187 234 189
f 187 189 188
f 189 235 190
f 189 234 236
f 189 236 235
f 190 235 237
f 190 237 191
f 191 238 239
f 191 239 193
f 191 237 238
f 193 239 240
f 193 240 196
f 193 196 195
f 193 195 194
f 196 240 197
f 197 240 198
f 198 240 241
f 198 241 242
f 198 242 243
f 198 243 200
f 200 244 206
f 200 206 204
f 200 204 203
f 200 203 202
f 200 202 201
f 200 243 244
f 204 206 205
f 206 244 220
f 207 208 246
f 207 246 245
f 208 247 248
f 208 248 246
f 208 249 247
f 209 250 210
f 210 250 251
f 211 252 212
f 212 253 213
f 212 252 299
f 212 299 334
f 212 334 356
f 212 356 344
f 212 344 312
f 212 312 311
f 212 311 343
f 212 343 347
f 212 347 318
f 212 318 346
f 212 346 335
f 212 335 301
f 212 301 254
f 212 254 253
f 213 253 215
f 213 215 214
f 215 255 256
f 215 256 257
f 215 257 258
f 215 258 216
f 215 253 255
f 216 258 222
f 217 220 259
f 217 259 218
f 218 260 261
f 218 261 262
f 218 262 263
f 218 263 264
f 218 264 265
f 218 265 266
f 218 266 219
f 218 259 260
f 219 266 267
f 220 244 289
f 220 289 268
f 220 268 269
f 220 269 259
f 221 267 310
f 221 310 270
f 222 258 257
f 222 257 223
f 223 257 224
f 224 271 225
f 224 257 272
f 224 272 271
f 225 271 273
f 225 273 228
f 228 273 229
f 229 274 230
f 229 273 274
f 230 275 231
f 230 274 275
f 231 275 276
f 231 276 232
f 232 276 233
f 233 276 277
f 233 277 234
f 234 277 236
f 235 278 279
f 235 279 237
f 235 236 278
f 236 277 280
f 236 280 278
f 237 279 281
f 237 281 238
f 238 281 239
f 239 281 282
f 239 282 283
f 239 283 240
f 240 284 285
f 240 285 241
f 240 283 284
f 241 286 287
f 241 287 242
f 241 285 286
f 242 287 243
f 243 287 288
f 243 288 244
f 244 288 289
f 245 246 290
f 246 247 291
f 246 291 292
f 246 292 293
f 246 293 290
f 246 248 247
f 247 249 295
f 247 295 294
f 247 294 291
f 250 296 297
f 250 297 298
f 250 298 251
f 253 254 255
f 254 300 256
f 254 256 255
f 254 301 300
f 256 272 257
f 256 300 302
f 256 302 272
f 259 303 304
f 259 304 305
f 259 305 260
f 259 269 268
f 259 268 303
f 260 305 261
f 261 305 306
f 261 306 342
f 261 342 307
f 261 307 308
f 261 308 262
f 262 308 309
f 262 309 263
f 263 309 264
f 264 310 265
f 264 309 270
f 264 270 310
f 265 310 267
f 265 267 266
f 268 289 311
f 268 311 312
f 268 312 303
f 271 272 302
f 271 302 273
f 273 302 274
f 274 313 275
f 274 302 300
f 274 300 313
f 275 313 276
f 276 314 277
f 276 313 315
f 276 315 314
f 277 316 317
f 277 317 280
f 277 314 316
f 278 280 318
f 278 318 279
f 279 318 319
f 279 319 281
f 280 317 318
f 281 319 320
f 281 320 321
f 281 321 282
f 282 321 322
f 282 322 283
f 283 322 284
f 284 322 285
f 285 322 323
f 285 323 286
f 286 323 324
f 286 324 325
f 286 325 326
f 286 326 287
f 287 326 288
f 288 326 289
f 289 326 311
f 290 293 327
f 291 294 328
f 291 328 292
f 292 328 293
f 293 328 329
f 293 329 330
f 293 330 331
f 293 331 327
f 294 295 332
f 294 332 329
f 294 329 328
f 296 333 297
f 297 333 299
f 299 333 334
f 300 301 313
f 301 335 316
f 301 316 314
f 301 314 315
f 301 315 313
f 303 336 337
f 303 337 338
f 303 338 304
f 303 312 336
f 304 338 339
f 304 339 305
f 305 339 340
f 305 340 306
f 306 340 341
f 306 341 364
f 306 364 342
f 311 326 325
f 311 325 343
f 312 344 365
f 312 365 345
f 312 345 336
f 316 346 318
f 316 318 317
f 316 335 346
f 318 347 319
f 319 347 323
f 319 323 320
f 320 323 348
f 320 348 322
f 320 322 321
f 322 348 323
f 323 347 324
f 324 347 325
f 325 347 343
f 329 349 350
f 329 350 351
f 329 351 330
f 329 332 349
f 330 352 331
f 330 351 352
f 331 352 354
f 331 354 355
f 331 355 353
f 333 353 344
f 333 344 356
f 333 356 334
f 336 345 357
f 336 357 358
f 336 358 337
f 337 339 338
f 337 358 359
f 337 359 360
f 337 360 361
f 337 361 339
f 339 361 340
f 340 361 360
f 340 360 359
f 340 359 362
f 340 362 341
f 341 362 363
f 341 363 380
f 341 380 364
f 344 353 365
f 345 365 366
f 345 366 367
f 345 367 368
f 345 368 369
f 345 369 357
f 349 370 350
f 350 371 372
f 350 372 351
f 350 370 383
f 350 383 371
f 351 372 354
f 351 354 352
f 353 355 373
f 353 373 374
f 353 374 375
f 353 375 376
f 353 376 365
f 354 372 377
f 354 377 373
f 354 373 355
f 357 369 358
f 358 369 359
f 359 369 368
f 359 368 362
f 362 368 378
f 362 378 379
f 362 379 363
f 363 379 390
f 363 390 380
f 365 376 381
f 365 381 366
f 366 381 382
f 366 382 378
f 366 378 367
f 367 378 368
f 371 383 391
f 371 391 384
f 371 384 372
f 372 384 385
f 372 385 377
f 373 377 374
f 374 377 386
f 374 386 381
f 374 381 375
f 375 381 376
f 377 385 386
f 378 387 379
f 378 382 388
f 378 388 389
f 378 389 387
f 379 387 390
f 381 386 385
f 381 385 382
f 382 385 388
f 384 391 392
f 384 392 389
f 384 389 385
f 385 389 388
f 387 389 392
