# https://github.com/mikedh/trimesh
v 0.02712285 0.02835512 0.02302234
v 0.03554898 0.02836854 0.01782090
v 0.03554898 0.02924114 0.01629761
v 0.03554898 0.02931273 0.01597252
v 0.03427310 0.02933063 0.01464739
v 0.02647351 0.02835512 0.02244957
v 0.02647351 0.02830589 0.02302234
v 0.02712665 0.02827457 0.02302234
v 0.03554898 -0.01635747 0.01782090
v 0.03554898 0.02935301 0.01531925
v 0.03492243 0.02935748 0.01464739
v 0.03297254 0.02935748 0.01269685
v 0.03232320 0.02935301 0.01204667
v 0.02387619 0.02835064 0.01984884
v 0.02452552 0.02835512 0.02049902
v 0.02582608 0.02830142 0.02244957
v 0.02585076 0.02812243 0.02302234
v 0.02712665 -0.01635747 0.02302234
v 0.03554898 -0.01635747 -0.00860432
v 0.03554898 0.02935748 0.01464739
v 0.03167387 0.02935748 0.01074631
v 0.03102454 0.02935301 0.01009613
v 0.03167387 0.02933958 0.01139649
v 0.02192629 0.02834169 0.01724812
v 0.02322496 0.02833274 0.01919866
v 0.02517485 0.02828800 0.02179939
v 0.02520713 0.02809558 0.02240932
v 0.02577102 0.02808663 0.02302234
v 0.02704690 -0.01635747 0.02302234
v 0.02712285 -0.01635747 -0.00860741
v 0.02712665 -0.01620980 -0.00860741
v 0.03554898 0.02935748 -0.00860432
v 0.02972587 0.02935748 0.00685141
v 0.03037521 0.02935301 0.00879886
v 0.02127696 0.02835512 0.01594776
v 0.02062763 0.02831484 0.01529757
v 0.02127696 0.02828800 0.01659794
v 0.02257563 0.02829695 0.01854848
v 0.02452552 0.02827010 0.02114921
v 0.02456539 0.02807320 0.02174675
v 0.02480841 0.02799713 0.02216782
v 0.02544446 0.02801055 0.02283348
v 0.02557167 0.02761677 0.02302234
v 0.02647351 -0.01635747 0.02244957
v 0.02647351 -0.01633509 0.02302234
v 0.01867583 -0.01635747 -0.00860741
v 0.02712665 0.02835512 -0.00860741
v 0.03088214 0.02935748 -0.00860432
v 0.02907464 0.02935748 0.00490087
v 0.02907464 0.02935301 0.00554796
v 0.02972587 0.02934853 0.00749540
v 0.01932516 0.02835064 0.01204977
v 0.01997640 0.02835512 0.01334703
v 0.01997640 0.02831932 0.01399721
v 0.02012259 0.02810900 0.01529757
v 0.02059725 0.02815823 0.01595395
v 0.02080610 0.02808663 0.01659794
v 0.02127126 0.02812690 0.01721716
v 0.02187693 0.02818060 0.01794164
v 0.02257752 0.02812690 0.01917079
v 0.02319458 0.02817165 0.01986432
v 0.02339204 0.02807768 0.02036899
v 0.02403757 0.02806425 0.02114921
v 0.02417997 0.02797475 0.02149597
v 0.02509131 0.02761677 0.02251768
v 0.02541598 0.02761677 0.02286135
v 0.02557167 -0.01527008 0.02302234
v 0.02387619 -0.01635747 0.01984884
v 0.02639567 -0.01633062 0.02302234
v 0.02582608 -0.01633062 0.02244957
v 0.01802650 -0.01635747 -0.00809965
v 0.01802650 -0.01635299 -0.00860741
v 0.01853343 0.02835512 -0.00860741
v 0.03037521 0.02935301 -0.00860432
v 0.03037521 0.02935748 -0.00809656
v 0.02842531 0.02935748 0.00100288
v 0.02842531 0.02935301 0.00230015
v 0.01737527 0.02835064 0.00555105
v 0.01802650 0.02835512 0.00814868
v 0.01867583 0.02835512 0.01009922
v 0.01867583 0.02833274 0.01074631
v 0.01932516 0.02830142 0.01269685
v 0.01947326 0.02811348 0.01399721
v 0.01958338 0.02803293 0.01446163
v 0.02023651 0.02802845 0.01574032
v 0.02091622 0.02799713 0.01698185
v 0.02148581 0.02806425 0.01775278
v 0.02207438 0.02809110 0.01854848
v 0.02279776 0.02805083 0.01966308
v 0.02298762 0.02761677 0.02005938
v 0.02331229 0.02761677 0.02046496
v 0.02357810 0.02761677 0.02079315
v 0.02417047 0.02761677 0.02150835
v 0.02446286 0.02761677 0.02183344
v 0.02478753 0.02761677 0.02218949
v 0.02220539 0.02800608 0.01893549
v 0.02509131 -0.01527008 0.02251768
v 0.02541598 -0.01527008 0.02286135
v 0.02545205 -0.01592341 0.02282419
v 0.02564761 -0.01592341 0.02302234
v 0.02257563 -0.01635747 0.01789830
v 0.02387619 -0.01631272 0.02049593
v 0.02324394 -0.01630824 0.01982407
v 0.02322496 -0.01634852 0.01919866
v 0.02192629 -0.01635299 0.01724812
v 0.02588114 -0.01627692 0.02302234
v 0.02534193 -0.01627692 0.02244957
v 0.02511789 -0.01631272 0.02185511
v 0.02449704 -0.01631272 0.02117707
v 0.01737527 -0.01635747 -0.00549893
v 0.01737527 -0.01634852 -0.00614911
v 0.01761070 -0.01629930 -0.00860741
v 0.01802650 0.02833722 -0.00860741
v 0.03022711 0.02934406 -0.00860432
v 0.02972587 0.02935301 -0.00744638
v 0.02972587 0.02935748 -0.00679620
v 0.02842531 0.02935748 -0.00159475
v 0.01672593 0.02831037 0.00035270
v 0.01737527 0.02835512 0.00490397
v 0.01672593 0.02830589 0.00100288
v 0.01672593 0.02828800 0.00165306
v 0.01672593 0.02827010 0.00230015
v 0.01737527 0.02832827 0.00620123
v 0.01802650 0.02833274 0.00879576
v 0.01802650 0.02825220 0.00944904
v 0.01867583 0.02824772 0.01139958
v 0.01885620 0.02810005 0.01269685
v 0.01895113 0.02801503 0.01313959
v 0.01929099 0.02761677 0.01399721
v 0.01954920 0.02761677 0.01453284
v 0.01971249 0.02761677 0.01485793
v 0.01994032 0.02761677 0.01529757
v 0.02020233 0.02761677 0.01579295
v 0.02065990 0.02761677 0.01659794
v 0.02089723 0.02761677 0.01700972
v 0.02110228 0.02761677 0.01733481
v 0.02142695 0.02761677 0.01783947
v 0.02164150 0.02761677 0.01816766
v 0.02274650 0.02761677 0.01973429
v 0.02298762 -0.01527008 0.02005938
v 0.02331229 -0.01527008 0.02046496
v 0.02357620 0.02697239 0.02079315
v 0.02417047 -0.01527008 0.02150835
v 0.02446286 -0.01527008 0.02183344
v 0.02478753 -0.01527008 0.02218949
v 0.02189591 0.02761677 0.01854848
v 0.02218071 0.02761677 0.01896645
v 0.02241994 0.02761677 0.01929154
v 0.02480841 -0.01579811 0.02216782
v 0.02549192 -0.01625007 0.02278085
v 0.02567609 -0.01603528 0.02302234
v 0.02127696 -0.01635747 0.01594776
v 0.02140797 -0.01629930 0.01724812
v 0.02257563 -0.01633062 0.01854848
v 0.02347368 -0.01628140 0.02027920
v 0.02285472 -0.01627692 0.01958877
v 0.02154846 -0.01628140 0.01766299
v 0.02062763 -0.01633957 0.01529757
v 0.01997640 -0.01634404 0.01399721
v 0.02585646 -0.01627245 0.02302234
v 0.01737527 -0.01635747 0.00555105
v 0.01672593 -0.01634404 -0.00094766
v 0.01672593 -0.01633509 -0.00159784
v 0.01698415 -0.01629482 -0.00614911
v 0.01702212 -0.01627245 -0.00679929
v 0.01704681 -0.01625007 -0.00714606
v 0.01755374 -0.01621427 -0.00860741
v 0.01789739 0.02829247 -0.00860741
v 0.01737527 0.02827457 -0.00679929
v 0.01737527 0.02832827 -0.00614911
v 0.01802650 0.02835512 -0.00809965
v 0.02907464 0.02935301 -0.00549583
v 0.02907464 0.02935748 -0.00484565
v 0.02842531 0.02935301 -0.00224493
v 0.01737527 0.02835512 -0.00484875
v 0.01672593 0.02830589 -0.00094766
v 0.01627976 0.02810453 -0.00029748
v 0.01627786 0.02810453 0.00035270
v 0.01628545 0.02810005 0.00100288
v 0.01630064 0.02808663 0.00165306
v 0.01631773 0.02806873 0.00230015
v 0.01672593 0.02823877 0.00295342
v 0.01684555 0.02814480 0.00555105
v 0.01689871 0.02812243 0.00620123
v 0.01737527 0.02827010 0.00685451
v 0.01752906 0.02812690 0.00879576
v 0.01816320 0.02813137 0.01074631
v 0.01827332 0.02804188 0.01139958
v 0.01833787 0.02797028 0.01175564
v 0.01892455 0.02761677 0.01320152
v 0.01906885 0.02761677 0.01352661
v 0.01928529 0.02697239 0.01399721
v 0.01970869 0.02697239 0.01485793
v 0.01993462 0.02697239 0.01529757
v 0.02020233 -0.01527008 0.01579295
v 0.02038650 0.02697239 0.01612114
v 0.02065990 -0.01527008 0.01659794
v 0.02089723 -0.01527008 0.01700972
v 0.02110228 -0.01527008 0.01733481
v 0.02142695 -0.01527008 0.01783947
v 0.02163959 0.02697239 0.01816766
v 0.02274650 -0.01527008 0.01973429
v 0.02221299 -0.01592341 0.01892001
v 0.02278827 -0.01592341 0.01967856
v 0.02417997 -0.01570862 0.02149597
v 0.02357620 -0.01527008 0.02079315
v 0.02189401 0.02697239 0.01854848
v 0.02218071 -0.01527008 0.01896645
v 0.02241994 -0.01527008 0.01929154
v 0.02486348 -0.01623217 0.02211209
v 0.01932516 -0.01635747 0.01204977
v 0.02064661 -0.01629930 0.01590751
v 0.02028018 -0.01626350 0.01566291
v 0.02224716 -0.01625007 0.01887667
v 0.02096368 -0.01623217 0.01691064
v 0.02022132 -0.01628587 0.01529757
v 0.01957199 -0.01628587 0.01399721
v 0.01894544 -0.01628140 0.01269685
v 0.01932516 -0.01633509 0.01269685
v 0.01802650 -0.01635747 0.00814868
v 0.01737527 -0.01634852 0.00620123
v 0.01672593 -0.01633509 0.00165306
v 0.01672593 -0.01634404 0.00035270
v 0.01634811 -0.01629035 0.00035270
v 0.01635190 -0.01629035 -0.00029748
v 0.01635380 -0.01628587 -0.00094766
v 0.01636140 -0.01628140 -0.00159784
v 0.01637659 -0.01626797 -0.00224802
v 0.01639178 -0.01625455 -0.00277127
v 0.01640696 -0.01624112 -0.00320472
v 0.01639557 -0.01563702 -0.00391373
v 0.01692719 -0.01592341 -0.00679929
v 0.01701643 -0.01592341 -0.00726371
v 0.01738286 -0.01577574 -0.00860741
v 0.01741324 -0.01592341 -0.00860741
v 0.01750627 0.02813585 -0.00860741
v 0.01689491 0.02812243 -0.00614911
v 0.01737527 0.02835064 -0.00549893
v 0.01683985 0.02814480 -0.00549893
v 0.01672593 0.02824325 -0.00289821
v 0.01672593 0.02827010 -0.00224802
v 0.02842531 0.02934406 -0.00289511
v 0.01672593 0.02829247 -0.00159784
v 0.01628355 0.02810005 -0.00094766
v 0.01615255 0.02761677 0.00035270
v 0.01616774 0.02761677 0.00100288
v 0.01634431 0.02803293 0.00295342
v 0.01620002 0.02761677 0.00165306
v 0.01623229 0.02761677 0.00230015
v 0.01637849 0.02798818 0.00360051
v 0.01639747 0.02795238 0.00395656
v 0.01696516 0.02806425 0.00685451
v 0.01701832 0.02800160 0.00731583
v 0.01762399 0.02805083 0.00944904
v 0.01768095 0.02798370 0.00983605
v 0.01796954 0.02761677 0.01074631
v 0.01819737 0.02761677 0.01139958
v 0.01833218 0.02761677 0.01177112
v 0.01846319 0.02761677 0.01209621
v 0.01871191 0.02761677 0.01269685
v 0.01892455 -0.01527008 0.01320152
v 0.01906505 0.02697239 0.01352661
v 0.01928529 -0.01527008 0.01399721
v 0.01970869 -0.01527008 0.01485793
v 0.01993462 -0.01527008 0.01529757
v 0.02023651 -0.01592341 0.01574032
v 0.02091622 -0.01579811 0.01698185
v 0.02038650 -0.01527008 0.01612114
v 0.02163959 -0.01527008 0.01816766
v 0.02189401 -0.01527008 0.01854848
v 0.02304838 -0.01592341 0.02000365
v 0.02426161 -0.01614267 0.02141237
v 0.01867583 -0.01634852 0.01074631
v 0.01958338 -0.01592341 0.01446782
v 0.01962705 -0.01626350 0.01437494
v 0.01899100 -0.01625455 0.01304981
v 0.01831319 -0.01627692 0.01120763
v 0.01826573 -0.01629482 0.01074631
v 0.01802650 -0.01634852 0.00879576
v 0.01762779 -0.01629482 0.00879576
v 0.01698415 -0.01629482 0.00620123
v 0.01672593 -0.01632614 0.00230015
v 0.01635380 -0.01628587 0.00100288
v 0.01622469 -0.01592341 0.00035270
v 0.01623609 -0.01592341 -0.00094766
v 0.01625697 -0.01592341 -0.00159784
v 0.01634621 -0.01598158 -0.00295084
v 0.01637279 -0.01578469 -0.00354839
v 0.01627976 -0.01527008 -0.00289821
v 0.01634431 -0.01527008 -0.00354839
v 0.01643544 -0.01527008 -0.00426049
v 0.01651139 -0.01527008 -0.00484875
v 0.01661581 -0.01527008 -0.00549893
v 0.01673923 -0.01527008 -0.00614911
v 0.01686453 -0.01527008 -0.00679929
v 0.01698984 -0.01527008 -0.00736897
v 0.01717211 -0.01527008 -0.00809965
v 0.01730312 -0.01527008 -0.00860741
v 0.01701073 0.02801055 -0.00728848
v 0.01695757 0.02807320 -0.00679929
v 0.01730692 0.02761677 -0.00860741
v 0.01639557 0.02795686 -0.00391373
v 0.01637279 0.02799713 -0.00354839
v 0.01634051 0.02803740 -0.00289821
v 0.01631773 0.02806873 -0.00224802
v 0.01629684 0.02809110 -0.00159784
v 0.01616584 0.02761677 -0.00094766
v 0.01615824 0.02761677 -0.00029748
v 0.01615255 -0.01527008 0.00035270
v 0.01616774 -0.01527008 0.00100288
v 0.01620002 -0.01527008 0.00165306
v 0.01623229 -0.01527008 0.00230015
v 0.01628545 0.02761677 0.00295342
v 0.01639557 0.02761677 0.00397204
v 0.01644114 0.02761677 0.00429713
v 0.01653227 0.02761677 0.00490397
v 0.01663480 0.02761677 0.00555105
v 0.01674302 0.02761677 0.00620123
v 0.01687593 0.02761677 0.00685451
v 0.01700124 0.02761677 0.00739013
v 0.01718730 0.02761677 0.00814868
v 0.01735818 0.02761677 0.00879576
v 0.01754614 0.02761677 0.00944904
v 0.01766956 0.02761677 0.00986701
v 0.01777968 0.02761677 0.01019211
v 0.01796575 0.02697239 0.01074631
v 0.01819737 -0.01527008 0.01139958
v 0.01833218 -0.01527008 0.01177112
v 0.01846319 -0.01527008 0.01209621
v 0.01871191 -0.01527008 0.01269685
v 0.01833787 -0.01569072 0.01175564
v 0.01906505 -0.01527008 0.01352661
v 0.01895493 -0.01592341 0.01313340
v 0.01826762 -0.01591446 0.01141507
v 0.01841952 -0.01612478 0.01164108
v 0.01775120 -0.01616953 0.00971221
v 0.01766576 -0.01627245 0.00927876
v 0.01701643 -0.01627245 0.00673686
v 0.01638798 -0.01625902 0.00277075
v 0.01637659 -0.01626797 0.00230015
v 0.01636329 -0.01627692 0.00165306
v 0.01623799 -0.01592341 0.00100288
v 0.01615824 -0.01527008 -0.00029748
v 0.01616584 -0.01527008 -0.00094766
v 0.01629495 -0.01592341 -0.00224802
v 0.01619052 -0.01527008 -0.00159784
v 0.01627976 0.02761677 -0.00289821
v 0.01634431 0.02761677 -0.00354839
v 0.01639367 0.02761677 -0.00393540
v 0.01643544 0.02697239 -0.00426049
v 0.01651139 0.02697239 -0.00484875
v 0.01661581 0.02697239 -0.00549893
v 0.01673923 0.02761677 -0.00614911
v 0.01686453 0.02761677 -0.00679929
v 0.01698984 0.02761677 -0.00736897
v 0.01717211 0.02697239 -0.00809965
v 0.01730312 0.02697239 -0.00860741
v 0.01662151 0.02761677 -0.00549893
v 0.01652468 0.02761677 -0.00484875
v 0.01619052 0.02761677 -0.00159784
v 0.01626267 -0.01592341 0.00165306
v 0.01629115 -0.01592341 0.00230015
v 0.01634811 -0.01596368 0.00297510
v 0.01637849 -0.01574889 0.00360051
v 0.01628545 -0.01527008 0.00295342
v 0.01639557 -0.01527008 0.00397204
v 0.01643354 0.02697239 0.00429713
v 0.01652088 0.02697239 0.00490397
v 0.01662911 0.02697239 0.00555105
v 0.01674302 -0.01527008 0.00620123
v 0.01687593 -0.01527008 0.00685451
v 0.01707529 0.02697239 0.00771523
v 0.01717971 0.02697239 0.00814868
v 0.01735628 0.02697239 0.00879576
v 0.01754614 -0.01527008 0.00944904
v 0.01766956 -0.01527008 0.00986701
v 0.01777588 0.02697239 0.01019211
v 0.01796575 -0.01527008 0.01074631
v 0.01768095 -0.01573994 0.00983605
v 0.01761829 -0.01594131 0.00947691
v 0.01705630 -0.01624112 0.00717341
v 0.01642975 -0.01620980 0.00320730
v 0.01639747 -0.01562359 0.00395656
v 0.01643354 -0.01527008 0.00429713
v 0.01652088 -0.01527008 0.00490397
v 0.01662911 -0.01527008 0.00555105
v 0.01695947 -0.01598158 0.00691334
v 0.01701832 -0.01580706 0.00731583
v 0.01707529 -0.01527008 0.00771523
v 0.01717971 -0.01527008 0.00814868
v 0.01735628 -0.01527008 0.00879576
v 0.01777588 -0.01527008 0.01019211
f 1 2 3
f 1 3 4
f 1 4 5
f 1 5 6
f 1 6 7
f 1 7 17
f 1 17 28
f 1 28 43
f 1 43 67
f 1 67 100
f 1 100 151
f 1 151 160
f 1 160 106
f 1 106 69
f 1 69 45
f 1 45 29
f 1 29 18
f 1 18 8
f 1 8 2
f 2 8 18
f 2 18 9
f 2 9 19
f 2 19 32
f 2 32 20
f 2 20 10
f 2 10 4
f 2 4 3
f 4 10 5
f 5 10 11
f 5 11 12
f 5 12 13
f 5 13 14
f 5 14 15
f 5 15 6
f 6 15 16
f 6 16 7
f 7 16 17
f 9 18 29
f 9 29 44
f 9 44 68
f 9 68 101
f 9 101 152
f 9 152 211
f 9 211 220
f 9 220 161
f 9 161 110
f 9 110 71
f 9 71 46
f 9 46 30
f 9 30 19
f 10 20 11
f 11 20 32
f 11 32 48
f 11 48 75
f 11 75 116
f 11 116 173
f 11 173 117
f 11 117 76
f 11 76 49
f 11 49 33
f 11 33 21
f 11 21 12
f 12 21 22
f 12 22 13
f 13 22 23
f 13 23 14
f 14 24 25
f 14 25 26
f 14 26 16
f 14 16 15
f 14 23 24
f 16 26 17
f 17 27 28
f 17 26 27
f 19 30 31
f 19 31 47
f 19 47 32
f 21 33 34
f 21 34 22
f 22 34 35
f 22 35 24
f 22 24 23
f 24 35 36
f 24 36 37
f 24 37 38
f 24 38 25
f 25 38 39
f 25 39 26
f 26 39 27
f 27 40 41
f 27 41 42
f 27 42 28
f 27 39 40
f 28 42 43
f 29 45 44
f 30 46 72
f 30 72 112
f 30 112 167
f 30 167 235
f 30 235 234
f 30 234 298
f 30 298 357
f 30 357 301
f 30 301 236
f 30 236 168
f 30 168 113
f 30 113 73
f 30 73 47
f 30 47 31
f 32 47 73
f 32 73 48
f 33 49 50
f 33 50 34
f 34 50 51
f 34 51 52
f 34 52 53
f 34 53 35
f 35 53 54
f 35 54 36
f 36 54 55
f 36 55 56
f 36 56 37
f 37 56 57
f 37 57 58
f 37 58 59
f 37 59 38
f 38 59 60
f 38 60 61
f 38 61 39
f 39 61 62
f 39 62 40
f 40 62 63
f 40 63 64
f 40 64 41
f 41 64 65
f 41 65 66
f 41 66 42
f 42 66 43
f 43 66 98
f 43 98 67
f 44 45 68
f 45 69 70
f 45 70 68
f 46 71 72
f 48 74 75
f 48 73 74
f 49 76 77
f 49 77 50
f 50 77 78
f 50 78 79
f 50 79 80
f 50 80 52
f 50 52 51
f 52 80 81
f 52 81 82
f 52 82 54
f 52 54 53
f 54 82 83
f 54 83 55
f 55 83 84
f 55 84 85
f 55 85 57
f 55 57 56
f 57 85 86
f 57 86 87
f 57 87 58
f 58 87 88
f 58 88 59
f 59 88 60
f 60 88 89
f 60 89 61
f 61 89 62
f 62 89 64
f 62 64 63
f 64 90 91
f 64 91 92
f 64 92 93
f 64 93 94
f 64 94 95
f 64 95 65
f 64 89 96
f 64 96 90
f 65 95 145
f 65 145 97
f 65 97 98
f 65 98 66
f 67 98 99
f 67 99 100
f 68 70 102
f 68 102 103
f 68 103 104
f 68 104 105
f 68 105 101
f 69 106 70
f 70 106 107
f 70 107 108
f 70 108 109
f 70 109 102
f 71 110 72
f 72 110 111
f 72 111 112
f 73 113 74
f 74 114 115
f 74 115 75
f 74 113 114
f 75 115 116
f 76 117 118
f 76 118 119
f 76 119 77
f 77 119 78
f 78 119 120
f 78 120 121
f 78 121 122
f 78 122 123
f 78 123 79
f 79 123 124
f 79 124 81
f 79 81 80
f 81 124 125
f 81 125 126
f 81 126 82
f 82 126 127
f 82 127 83
f 83 127 84
f 84 127 128
f 84 128 129
f 84 129 130
f 84 130 131
f 84 131 85
f 85 131 132
f 85 132 133
f 85 133 86
f 86 96 87
f 86 133 134
f 86 134 135
f 86 135 136
f 86 136 137
f 86 137 138
f 86 138 96
f 87 96 88
f 88 96 89
f 90 96 139
f 90 139 202
f 90 202 140
f 90 140 141
f 90 141 91
f 91 141 206
f 91 206 142
f 91 142 92
f 92 142 93
f 93 142 206
f 93 206 143
f 93 143 144
f 93 144 94
f 94 144 145
f 94 145 95
f 96 138 146
f 96 146 147
f 96 147 148
f 96 148 139
f 97 145 149
f 97 149 98
f 98 149 99
f 99 149 150
f 99 150 100
f 100 150 151
f 101 105 152
f 102 109 107
f 102 107 103
f 103 153 154
f 103 154 104
f 103 107 155
f 103 155 156
f 103 156 157
f 103 157 153
f 104 154 105
f 105 154 153
f 105 153 158
f 105 158 159
f 105 159 152
f 106 160 150
f 106 150 107
f 107 150 155
f 107 109 108
f 110 161 223
f 110 223 162
f 110 162 163
f 110 163 111
f 111 163 164
f 111 164 112
f 112 164 165
f 112 165 166
f 112 166 167
f 113 168 169
f 113 169 170
f 113 170 171
f 113 171 115
f 113 115 114
f 115 172 173
f 115 173 116
f 115 171 172
f 117 173 172
f 117 172 174
f 117 174 238
f 117 238 175
f 117 175 118
f 118 175 176
f 118 176 177
f 118 177 178
f 118 178 120
f 118 120 119
f 120 178 179
f 120 179 121
f 121 179 122
f 122 179 180
f 122 180 181
f 122 181 182
f 122 182 123
f 123 182 183
f 123 183 184
f 123 184 185
f 123 185 124
f 124 185 186
f 124 186 125
f 125 186 187
f 125 187 126
f 126 187 127
f 127 187 188
f 127 188 189
f 127 189 128
f 128 189 190
f 128 190 191
f 128 191 129
f 129 191 192
f 129 192 130
f 130 192 193
f 130 193 131
f 131 193 194
f 131 194 132
f 132 194 133
f 133 194 265
f 133 265 195
f 133 195 268
f 133 268 196
f 133 196 134
f 134 196 268
f 134 268 197
f 134 197 198
f 134 198 135
f 135 198 199
f 135 199 136
f 136 199 200
f 136 200 137
f 137 200 269
f 137 269 201
f 137 201 138
f 138 201 207
f 138 207 146
f 139 148 209
f 139 209 202
f 140 202 203
f 140 203 204
f 140 204 205
f 140 205 141
f 141 205 206
f 143 206 205
f 143 205 144
f 144 205 145
f 145 205 149
f 146 207 147
f 147 207 270
f 147 270 208
f 147 208 209
f 147 209 148
f 149 205 210
f 149 210 150
f 150 210 156
f 150 156 155
f 150 160 151
f 152 159 211
f 153 212 158
f 153 157 213
f 153 213 212
f 156 210 214
f 156 214 157
f 157 214 215
f 157 215 213
f 158 212 216
f 158 216 159
f 159 216 217
f 159 217 218
f 159 218 219
f 159 219 211
f 161 220 221
f 161 221 222
f 161 222 223
f 162 223 224
f 162 224 225
f 162 225 226
f 162 226 227
f 162 227 163
f 163 227 164
f 164 227 228
f 164 228 229
f 164 229 230
f 164 230 165
f 165 230 166
f 166 230 231
f 166 231 232
f 166 232 233
f 166 233 234
f 166 234 235
f 166 235 167
f 168 236 169
f 169 236 237
f 169 237 170
f 170 238 171
f 170 237 239
f 170 239 240
f 170 240 241
f 170 241 243
f 170 243 238
f 171 238 172
f 172 242 174
f 172 238 242
f 174 242 238
f 175 238 176
f 176 243 244
f 176 244 177
f 176 238 243
f 177 244 245
f 177 245 178
f 178 245 179
f 179 245 246
f 179 246 180
f 180 246 181
f 181 247 183
f 181 183 182
f 181 246 248
f 181 248 249
f 181 249 247
f 183 247 184
f 184 247 250
f 184 250 251
f 184 251 252
f 184 252 186
f 184 186 185
f 186 252 253
f 186 253 254
f 186 254 187
f 187 254 188
f 188 254 255
f 188 255 189
f 189 255 256
f 189 256 257
f 189 257 258
f 189 258 259
f 189 259 260
f 189 260 190
f 190 260 330
f 190 330 261
f 190 261 332
f 190 332 262
f 190 262 191
f 191 262 192
f 192 262 332
f 192 332 263
f 192 263 264
f 192 264 193
f 193 264 265
f 193 265 194
f 195 265 266
f 195 266 267
f 195 267 268
f 197 268 267
f 197 267 198
f 198 267 199
f 199 267 200
f 200 267 269
f 201 269 270
f 201 270 207
f 202 209 203
f 203 214 204
f 203 209 208
f 203 208 270
f 203 270 269
f 203 269 267
f 203 267 214
f 204 271 205
f 204 214 271
f 205 271 214
f 205 214 272
f 205 272 210
f 210 272 214
f 211 273 279
f 211 279 220
f 211 219 273
f 212 213 216
f 213 215 266
f 213 266 274
f 213 274 275
f 213 275 216
f 214 267 215
f 215 267 266
f 216 275 217
f 217 275 218
f 218 275 276
f 218 276 277
f 218 277 219
f 219 278 273
f 219 277 278
f 220 279 221
f 221 279 280
f 221 280 281
f 221 281 282
f 221 282 222
f 222 282 283
f 222 283 224
f 222 224 223
f 224 283 284
f 224 284 226
f 224 226 225
f 226 284 285
f 226 285 227
f 227 285 228
f 228 285 286
f 228 286 229
f 229 286 230
f 230 286 287
f 230 287 288
f 230 288 231
f 231 288 289
f 231 289 290
f 231 290 291
f 231 291 292
f 231 292 293
f 231 293 232
f 232 293 294
f 232 294 233
f 233 294 295
f 233 295 296
f 233 296 297
f 233 297 298
f 233 298 234
f 236 299 300
f 236 300 237
f 236 301 299
f 237 300 302
f 237 302 303
f 237 303 304
f 237 304 239
f 239 304 305
f 239 305 240
f 240 305 306
f 240 306 241
f 241 306 243
f 243 306 244
f 244 306 307
f 244 307 308
f 244 308 245
f 245 308 343
f 245 343 309
f 245 309 310
f 245 310 246
f 246 310 311
f 246 311 248
f 247 249 250
f 248 311 312
f 248 312 249
f 249 312 365
f 249 365 313
f 249 313 251
f 249 251 250
f 251 313 314
f 251 314 315
f 251 315 316
f 251 316 317
f 251 317 318
f 251 318 253
f 251 253 252
f 253 318 319
f 253 319 320
f 253 320 321
f 253 321 255
f 253 255 254
f 255 321 322
f 255 322 323
f 255 323 324
f 255 324 325
f 255 325 256
f 256 325 377
f 256 377 326
f 256 326 257
f 257 326 378
f 257 378 327
f 257 327 328
f 257 328 258
f 258 328 329
f 258 329 259
f 259 329 330
f 259 330 260
f 261 330 331
f 261 331 332
f 263 332 333
f 263 333 274
f 263 274 264
f 264 274 266
f 264 266 265
f 273 278 279
f 274 333 276
f 274 276 275
f 276 333 331
f 276 331 334
f 276 334 335
f 276 335 277
f 277 335 334
f 277 334 336
f 277 336 337
f 277 337 280
f 277 280 278
f 278 280 279
f 280 337 338
f 280 338 281
f 281 338 339
f 281 339 340
f 281 340 282
f 282 340 341
f 282 341 283
f 283 341 284
f 284 341 342
f 284 342 309
f 284 309 343
f 284 343 285
f 285 343 344
f 285 344 286
f 286 345 287
f 286 344 346
f 286 346 345
f 287 345 346
f 287 346 289
f 287 289 288
f 289 346 360
f 289 360 347
f 289 347 348
f 289 348 290
f 290 348 349
f 290 349 291
f 291 349 350
f 291 350 351
f 291 351 292
f 292 351 352
f 292 352 293
f 293 352 353
f 293 353 294
f 294 353 354
f 294 354 295
f 295 354 355
f 295 355 296
f 296 355 356
f 296 356 297
f 297 356 357
f 297 357 298
f 299 302 300
f 299 301 355
f 299 355 354
f 299 354 353
f 299 353 358
f 299 358 302
f 301 357 356
f 301 356 355
f 302 358 359
f 302 359 351
f 302 351 349
f 302 349 348
f 302 348 347
f 302 347 303
f 303 347 360
f 303 360 304
f 304 360 305
f 305 360 306
f 306 360 307
f 307 360 346
f 307 346 344
f 307 344 343
f 307 343 308
f 309 342 310
f 310 342 361
f 310 361 362
f 310 362 311
f 311 362 312
f 312 362 363
f 312 363 364
f 312 364 365
f 313 365 366
f 313 366 314
f 314 366 384
f 314 384 367
f 314 367 315
f 315 367 368
f 315 368 316
f 316 368 317
f 317 368 318
f 318 368 369
f 318 369 386
f 318 386 370
f 318 370 371
f 318 371 319
f 319 371 389
f 319 389 372
f 319 372 320
f 320 372 373
f 320 373 321
f 321 373 322
f 322 373 374
f 322 374 323
f 323 374 391
f 323 391 375
f 323 375 376
f 323 376 324
f 324 376 392
f 324 392 377
f 324 377 325
f 326 377 392
f 326 392 378
f 327 378 331
f 327 331 328
f 328 331 329
f 329 331 330
f 331 378 379
f 331 379 334
f 331 333 332
f 334 379 336
f 336 380 381
f 336 381 337
f 336 379 380
f 337 381 338
f 338 381 339
f 339 381 382
f 339 382 363
f 339 363 362
f 339 362 361
f 339 361 342
f 339 342 340
f 340 342 341
f 349 351 350
f 351 359 358
f 351 358 352
f 352 358 353
f 363 382 364
f 364 383 365
f 364 382 383
f 365 383 366
f 366 383 384
f 367 384 385
f 367 385 368
f 368 385 386
f 368 386 369
f 370 386 387
f 370 387 388
f 370 388 371
f 371 388 389
f 372 389 390
f 372 390 373
f 373 390 391
f 373 391 374
f 375 391 379
f 375 379 376
f 376 379 392
f 378 392 379
f 379 388 380
f 379 391 390
f 379 390 388
f 380 388 381
f 381 388 387
f 381 387 383
f 381 383 382
f 383 386 385
f 383 385 384
f 383 387 386
f 388 390 389
