# https://github.com/mikedh/trimesh
v 0.00568166 -0.03169592 -0.00860314
v 0.00568166 -0.02889688 -0.00860314
v 0.00568166 -0.03165801 -0.00875105
v 0.01234889 -0.03169592 -0.00860314
v 0.01092093 -0.03116518 0.01038803
v 0.00582935 -0.03115886 0.01038803
v 0.00582935 -0.03080503 0.01139772
v 0.00582935 -0.03061548 0.01189935
v 0.00582935 -0.03028692 0.01269681
v 0.00582935 -0.03022374 0.01284472
v 0.00582935 -0.02988255 0.01364219
v 0.00582935 -0.02924439 0.01496700
v 0.00582935 -0.02906747 0.01529499
v 0.00582935 -0.02873892 0.01589308
v 0.00582935 -0.02851146 0.01630468
v 0.00582935 -0.02834086 0.01659408
v 0.00582935 -0.02784803 0.01741727
v 0.00582935 -0.02731096 0.01824688
v 0.00582935 -0.02676126 0.01903791
v 0.00582935 -0.02652748 0.01935947
v 0.00582935 -0.02595882 0.02012478
v 0.00582935 -0.02501739 0.02126952
v 0.00582935 -0.02448032 0.02189334
v 0.00582935 -0.02385480 0.02257504
v 0.00582935 -0.02320401 0.02323745
v 0.00582935 -0.02279963 0.02363618
v 0.00582935 -0.02221834 0.02418926
v 0.00582935 -0.02152964 0.02479379
v 0.00582935 -0.02081566 0.02539831
v 0.00582935 -0.02046815 0.02567485
v 0.00582935 -0.02007641 0.02598355
v 0.00582935 -0.01965307 0.02630511
v 0.00582935 -0.01924238 0.02660737
v 0.00582935 -0.01899596 0.02678101
v 0.00582935 -0.01852840 0.02710900
v 0.00582935 -0.01785865 0.02755918
v 0.00582935 -0.01735950 0.02786787
v 0.00582935 -0.01646229 0.02840809
v 0.00582935 -0.01584309 0.02876180
v 0.00582935 -0.01517966 0.02912194
v 0.00582935 -0.01396652 0.02972647
v 0.00582935 -0.01358110 0.02990011
v 0.00582935 -0.01265230 0.03029884
v 0.00582935 -0.01216578 0.03049821
v 0.00582935 -0.01183723 0.03062683
v 0.00582935 -0.01135703 0.03080690
v 0.00582935 -0.01071255 0.03104486
v 0.00582935 -0.01028290 0.03118634
v 0.00582935 -0.00996699 0.03128924
v 0.00582935 -0.00941097 0.03146288
v 0.00582935 -0.00876649 0.03164938
v 0.00582935 -0.00809674 0.03182302
v 0.00582935 -0.00776187 0.03190663
v 0.00582935 -0.00746490 0.03197737
v 0.00582935 -0.00682043 0.03212529
v 0.00582935 -0.00616331 0.03226034
v 0.00582935 -0.00536720 0.03240183
v 0.00582935 -0.00456476 0.03252402
v 0.00582935 -0.00421093 0.03256904
v 0.00582935 -0.00356646 0.03264621
v 0.00582935 -0.00291566 0.03271052
v 0.00582935 -0.00161408 0.03280056
v 0.00582935 -0.00097592 0.03283272
v 0.00568166 -0.02886529 -0.00860957
v 0.00582935 -0.00077373 0.03283272
v 0.00568166 -0.03146846 -0.00940060
v 0.01217269 -0.03165801 -0.00875105
v 0.01282250 -0.03165169 -0.00875105
v 0.01282250 -0.03168961 -0.00860314
v 0.01282352 -0.03115886 0.01038803
v 0.01217269 -0.03103881 0.01074817
v 0.01282352 -0.03080503 0.01139772
v 0.01282352 -0.03061548 0.01189935
v 0.01217269 -0.03029324 0.01269681
v 0.00892666 -0.03002787 0.01332063
v 0.01217269 -0.02988255 0.01364219
v 0.00827583 -0.02924439 0.01496700
v 0.01087509 -0.02856832 0.01622107
v 0.01022629 -0.02834718 0.01659408
v 0.01369537 -0.02784803 0.01741727
v 0.01369537 -0.02731096 0.01824688
v 0.01369537 -0.02698240 0.01873565
v 0.01369537 -0.02676126 0.01904435
v 0.01369537 -0.02652748 0.01936590
v 0.01369537 -0.02621156 0.01979679
v 0.01358130 -0.02595882 0.02012478
v 0.01358130 -0.02561131 0.02056209
v 0.01358130 -0.02532699 0.02091581
v 0.00632638 -0.02536490 0.02085149
v 0.01358130 -0.02478361 0.02157822
v 0.01358130 -0.02416440 0.02226635
v 0.01358130 -0.02386744 0.02259434
v 0.01358130 -0.02323560 0.02326317
v 0.01358130 -0.02290705 0.02359116
v 0.01358130 -0.02251530 0.02396417
v 0.01358130 -0.02189611 0.02454297
v 0.01608584 -0.01848417 0.02768137
v 0.01608686 -0.01777020 0.02811869
v 0.01608686 -0.01660129 0.02874894
v 0.01608686 -0.01586836 0.02912838
v 0.01608686 -0.01530602 0.02941135
v 0.01608686 -0.01455413 0.02976506
v 0.01608686 -0.01330941 0.03029884
v 0.01608686 -0.01248170 0.03062683
v 0.01608686 -0.01135703 0.03102556
v 0.01608686 -0.01090211 0.03117991
v 0.01608686 -0.01006176 0.03143073
v 0.01608686 -0.00941097 0.03161723
v 0.01608686 -0.00869699 0.03180373
v 0.01608686 -0.00817256 0.03193235
v 0.01608686 -0.00744595 0.03208670
v 0.01607769 -0.00726272 0.03212529
v 0.01608686 -0.00681411 0.03221532
v 0.01608686 -0.00616331 0.03233108
v 0.01608686 -0.00551252 0.03244041
v 0.01608686 -0.00474168 0.03254974
v 0.01608686 -0.00507023 0.03250473
v 0.01608686 -0.00420461 0.03261406
v 0.01608686 -0.00356014 0.03267837
v 0.01607158 -0.00291566 0.03273625
v 0.01607158 -0.00226487 0.03277484
v 0.01607158 -0.00160776 0.03281342
v 0.01607158 -0.00097592 0.03283915
v 0.00587518 -0.00077373 0.03283915
v 0.00568166 -0.01722050 -0.02470671
v 0.00611351 0.00097646 0.03283272
v 0.00611351 0.00205691 0.03277484
v 0.00611351 0.00291621 0.03271052
v 0.00611351 0.00356700 0.03264621
v 0.00611351 0.00421148 0.03256904
v 0.00611351 0.00457795 0.03252402
v 0.00611351 0.00551307 0.03236967
v 0.00611351 0.00616386 0.03224748
v 0.00611351 0.00680834 0.03212529
v 0.00611351 0.00746545 0.03197737
v 0.00611351 0.00817311 0.03180373
v 0.00611351 0.00876704 0.03164938
v 0.00611351 0.01018867 0.03122493
v 0.00611351 0.01071310 0.03104486
v 0.00611351 0.01184409 0.03063326
v 0.00611351 0.01250120 0.03036315
v 0.00611351 0.01358797 0.02990011
v 0.00611351 0.01396075 0.02972647
v 0.00611351 0.01438409 0.02952068
v 0.00611351 0.01525602 0.02907050
v 0.00611351 0.01584995 0.02876180
v 0.00611351 0.01704413 0.02806724
v 0.00611351 0.01737268 0.02786787
v 0.00611351 0.01808666 0.02740483
v 0.00611351 0.01852263 0.02711543
v 0.00611351 0.01900283 0.02678101
v 0.00611351 0.02007695 0.02598355
v 0.00611351 0.02081621 0.02539831
v 0.00611351 0.02184610 0.02451725
v 0.00611249 0.02291391 0.02350756
v 0.00611249 0.02352679 0.02290303
v 0.00611249 0.02437346 0.02200267
v 0.00611249 0.02476520 0.02155892
v 0.00611249 0.02527067 0.02095439
v 0.00611249 0.02565609 0.02049135
v 0.00611249 0.02594674 0.02011835
v 0.00611249 0.02674917 0.01903148
v 0.00611249 0.02708405 0.01856844
v 0.00611249 0.02731151 0.01824045
v 0.00611249 0.02784225 0.01740440
v 0.00611249 0.02832877 0.01659408
v 0.00611249 0.02867628 0.01599598
v 0.00611249 0.02923230 0.01495414
v 0.00611249 0.02970617 0.01399590
v 0.00611249 0.03028747 0.01268395
v 0.00611249 0.03048334 0.01220804
v 0.00611249 0.03060339 0.01189292
v 0.00611249 0.03076767 0.01144917
v 0.00605648 0.03169015 -0.00859670
v 0.00568166 -0.03128523 -0.00998583
v 0.01282250 -0.03146846 -0.00940060
v 0.01347232 -0.03163906 -0.00875105
v 0.01347232 -0.03167697 -0.00860314
v 0.01347232 -0.03113991 0.01038803
v 0.01347232 -0.03078608 0.01139772
v 0.01347232 -0.03060284 0.01188648
v 0.01347232 -0.03047648 0.01220804
v 0.01347232 -0.03028060 0.01269681
v 0.01282352 -0.03002787 0.01331420
v 0.00957648 -0.03002787 0.01332063
v 0.01347232 -0.02970563 0.01399590
v 0.01282352 -0.02971195 0.01399590
v 0.01282352 -0.02940235 0.01463901
v 0.01217269 -0.02923807 0.01496700
v 0.01282352 -0.02906747 0.01529499
v 0.01282352 -0.02856832 0.01622107
v 0.01282352 -0.02834718 0.01659408
v 0.01369537 -0.02834086 0.01659408
v 0.01608686 -0.01848417 0.02766207
v 0.01608686 -0.01810507 0.02791289
v 0.01369537 -0.02856200 0.01620821
v 0.01369537 -0.02873892 0.01588666
v 0.01369537 -0.02905484 0.01529499
v 0.01369537 -0.02934548 0.01473548
v 0.01369537 -0.02969299 0.01399590
v 0.01369537 -0.02986991 0.01361646
v 0.01369537 -0.02996469 0.01340423
v 0.01369537 -0.03026797 0.01269681
v 0.01369537 -0.03040065 0.01237525
v 0.01369537 -0.03055861 0.01197652
v 0.01369537 -0.03072289 0.01154563
v 0.01369537 -0.03109567 0.01046520
v 0.01369537 -0.03112095 0.01038803
v 0.01608686 -0.00291566 0.03273625
v 0.01608686 -0.00226487 0.03277484
v 0.01608686 -0.00160776 0.03281342
v 0.01608686 -0.00095696 0.03283915
v 0.01608584 -0.00031881 0.03285201
v 0.01477297 -0.00031881 0.03285201
v 0.00611351 -0.00031881 0.03284558
v 0.00611351 0.00033831 0.03284558
v 0.00605648 0.02836036 -0.01653916
v 0.00605648 0.02793703 -0.01724016
v 0.00605648 0.02755160 -0.01783825
v 0.00605648 0.02718514 -0.01840420
v 0.00605648 0.02654066 -0.01933671
v 0.00605648 0.02621843 -0.01976117
v 0.00605648 0.02580773 -0.02029495
v 0.00605648 0.02551709 -0.02066153
v 0.00605648 0.02537808 -0.02082874
v 0.00605648 0.02484102 -0.02147185
v 0.00568166 -0.01900860 -0.02677754
v 0.00605648 0.03145637 -0.00939417
v 0.00605648 0.03104568 -0.01069326
v 0.00605648 0.03081189 -0.01134280
v 0.00605648 0.03048966 -0.01218528
v 0.00605648 0.03030010 -0.01264189
v 0.00605648 0.03014215 -0.01300847
v 0.00605648 0.02972513 -0.01394098
v 0.00605648 0.02940921 -0.01459696
v 0.00605648 0.02923862 -0.01493138
v 0.00605648 0.02864469 -0.01605040
v 0.01282352 0.00033831 0.03285201
v 0.01607260 0.00097015 0.03283915
v 0.01608584 0.00162094 0.03281342
v 0.01608584 0.00227805 0.03277484
v 0.01607260 0.00290989 0.03273625
v 0.01607260 0.00356069 0.03268480
v 0.01608584 0.00422412 0.03262049
v 0.01607260 0.00511501 0.03251116
v 0.01608584 0.00550675 0.03245971
v 0.01608584 0.00616386 0.03235681
v 0.01608584 0.00680834 0.03224748
v 0.01608584 0.00747809 0.03212529
v 0.01607260 0.00810993 0.03199666
v 0.01608584 0.00889972 0.03182302
v 0.01608584 0.00942415 0.03169440
v 0.01608584 0.01007494 0.03153362
v 0.01608584 0.01113643 0.03124422
v 0.01608584 0.01266548 0.03076189
v 0.01608584 0.01343633 0.03049821
v 0.01608584 0.01397339 0.03029884
v 0.01608584 0.01494010 0.02991941
v 0.01608584 0.01593209 0.02950138
v 0.01608584 0.01635542 0.02931488
v 0.01608584 0.01668398 0.02916696
v 0.01608584 0.01720840 0.02892258
v 0.01608584 0.01801084 0.02853028
v 0.01608584 0.01850999 0.02826660
v 0.01608584 0.01889541 0.02803508
v 0.00611351 0.02220625 0.02418926
v 0.01217167 0.02414600 0.02224706
v 0.01217167 0.02476520 0.02155892
v 0.01152389 0.02536544 0.02085149
v 0.01217167 0.02565609 0.02049135
v 0.01087407 0.02619315 0.01979036
v 0.01152389 0.02675549 0.01903148
v 0.01217167 0.02594674 0.02011835
v 0.01217167 0.02675549 0.01903148
v 0.01217167 0.02731151 0.01824045
v 0.01217167 0.02784225 0.01740440
v 0.01022629 0.02803812 0.01708285
v 0.01217167 0.02803812 0.01708285
v 0.01217167 0.02855623 0.01620821
v 0.01087407 0.02855623 0.01620821
v 0.01217167 0.02923230 0.01496700
v 0.00632638 0.02905538 0.01528856
v 0.01087407 0.02939658 0.01463258
v 0.01217167 0.02970617 0.01399590
v 0.00697926 0.03001578 0.01331420
v 0.01217167 0.03028747 0.01268395
v 0.01217167 0.03048334 0.01220804
v 0.01217167 0.03060339 0.01189292
v 0.01217167 0.03076767 0.01144917
v 0.00611351 0.03103304 0.01072888
v 0.00611351 0.03117204 0.01034301
v 0.00611351 0.03144373 0.00943622
v 0.00611351 0.03163960 0.00878024
v 0.00611351 0.03284642 0.00033615
v 0.00611351 0.03284010 -0.00029410
v 0.00611351 0.03283378 -0.00073142
v 0.00611351 0.03282746 -0.00094364
v 0.00611351 0.03279587 -0.00159962
v 0.00611351 0.03275796 -0.00224274
v 0.00611351 0.03270741 -0.00289871
v 0.00611351 0.03264423 -0.00354183
v 0.00611351 0.03246100 -0.00495025
v 0.00611351 0.03237254 -0.00549046
v 0.00611351 0.03211980 -0.00678955
v 0.00611351 0.03203135 -0.00722687
v 0.01217065 0.03198080 -0.00743910
v 0.01217167 0.03169015 -0.00859670
v 0.00611351 0.03178493 0.00824646
v 0.00611351 0.03186707 0.00792490
v 0.00611351 0.03193657 0.00762907
v 0.00611351 0.03220826 0.00640072
v 0.00611351 0.03236622 0.00553252
v 0.00611351 0.03250522 0.00467717
v 0.00611351 0.03256209 0.00422699
v 0.00611351 0.03263791 0.00358388
v 0.00611351 0.03270741 0.00292790
v 0.00611351 0.03274532 0.00250345
v 0.00611351 0.03276428 0.00228479
v 0.00611351 0.03278955 0.00183461
v 0.00611351 0.03282746 0.00098570
v 0.00568166 -0.03117782 -0.01032025
v 0.01217269 -0.03117782 -0.01032025
v 0.01347232 -0.03117150 -0.01029453
v 0.01347232 -0.03127259 -0.00997297
v 0.01347232 -0.03144951 -0.00940060
v 0.01282250 -0.03117782 -0.01031382
v 0.01364750 -0.03143687 -0.00940060
v 0.01364750 -0.03162010 -0.00875105
v 0.01364750 -0.03165801 -0.00860314
v 0.01347232 -0.03002155 0.01330133
v 0.01347232 -0.02987623 0.01362289
v 0.01347232 -0.02940235 0.01463258
v 0.01347232 -0.02923807 0.01495414
v 0.01347232 -0.02906116 0.01529499
v 0.01347232 -0.02856200 0.01621464
v 0.01608686 -0.01848417 0.02429859
v 0.01608584 0.00511501 0.03251116
v 0.01608584 0.00356069 0.03268480
v 0.01608584 0.00290989 0.03273625
v 0.01608584 0.00097015 0.03283915
v 0.01608584 -0.00029985 0.03285201
v 0.01608686 -0.00077373 0.03204168
v 0.01608584 0.01928084 0.02699324
v 0.01608584 0.01911024 0.02764278
v 0.01608584 0.00810993 0.03199666
v 0.01217167 0.02836036 -0.01653916
v 0.01217167 0.02805076 -0.01705366
v 0.01217167 0.02856887 -0.01618545
v 0.01217167 0.02731783 -0.01821126
v 0.01217167 0.02654066 -0.01933671
v 0.01217167 0.02621843 -0.01976117
v 0.01217167 0.02537808 -0.02082874
v 0.01217167 0.02484102 -0.02147185
v 0.00605648 0.02417127 -0.02222429
v 0.00605648 0.02155546 -0.02477103
v 0.00605648 0.02117004 -0.02509901
v 0.00605648 0.02084148 -0.02536912
v 0.00605648 0.02010854 -0.02595436
v 0.00605648 0.01978631 -0.02620517
v 0.00605648 0.01935666 -0.02652030
v 0.00605648 0.01857318 -0.02707981
v 0.00605648 0.01824462 -0.02730490
v 0.00605648 0.01801716 -0.02745281
v 0.00605648 0.01708204 -0.02803805
v 0.00605648 0.01677875 -0.02822455
v 0.00605648 0.01621010 -0.02855254
v 0.00605648 0.01496538 -0.02923424
v 0.00605648 0.01377120 -0.02980661
v 0.00605648 0.01330996 -0.03001241
v 0.00605648 0.01265917 -0.03029538
v 0.00605648 0.01190728 -0.03059764
v 0.00605648 0.01137021 -0.03080344
v 0.00605648 0.01071310 -0.03103496
v 0.00605648 0.01017604 -0.03121503
v 0.00605648 0.00941783 -0.03145298
v 0.00605648 0.00876704 -0.03163949
v 0.00605648 0.00795197 -0.03186458
v 0.00605648 0.00747177 -0.03198034
v 0.00605648 0.00616386 -0.03225688
v 0.00605648 0.00551939 -0.03237263
v 0.00605648 0.00422412 -0.03257200
v 0.00605648 0.00356700 -0.03264917
v 0.00605648 0.00227805 -0.03276494
v 0.00605648 0.00162094 -0.03280352
v 0.00605648 0.00034463 -0.03284211
v 0.00605648 -0.00031249 -0.03284211
v 0.00605648 -0.00054627 -0.03283568
v 0.01364750 -0.01900860 -0.02688044
v 0.01364750 -0.01943825 -0.02657818
v 0.00568166 -0.01936243 -0.02652673
v 0.00605648 0.02387431 -0.02255228
v 0.00605648 0.02322983 -0.02321469
v 0.00605648 0.02270540 -0.02372275
v 0.00605648 0.02223784 -0.02416007
v 0.01217167 0.03145637 -0.00939417
v 0.01217167 0.03117204 -0.01031382
v 0.01217167 0.03104568 -0.01069326
v 0.01217167 0.03081189 -0.01134280
v 0.01217167 0.03048966 -0.01218528
v 0.01217167 0.03030010 -0.01264189
v 0.01217167 0.03002210 -0.01327858
v 0.01217167 0.02972513 -0.01394098
v 0.01217167 0.02940921 -0.01459696
v 0.01217167 0.02923862 -0.01493138
v 0.01217167 0.02906802 -0.01525294
v 0.01321056 0.02866364 0.01576446
v 0.01319120 0.02798758 0.01699924
v 0.01313824 0.02728624 0.01821473
v 0.01315148 0.02533385 0.02082577
v 0.01282250 0.02475888 0.02153963
v 0.01217167 0.02536544 0.02085149
v 0.01282250 0.02535281 0.02082577
v 0.01217167 0.02619315 0.01979036
v 0.01282250 0.02616788 0.01976463
v 0.01282250 0.02673653 0.01901219
v 0.01282250 0.02802549 0.01706355
v 0.01282250 0.02872051 0.01586093
v 0.01282250 0.02920702 0.01494128
v 0.01282250 0.02937762 0.01461329
v 0.01217167 0.02939658 0.01463258
v 0.01282250 0.03000314 0.01328204
v 0.01217167 0.03001578 0.01331420
v 0.01282250 0.03059707 0.01186076
v 0.01217065 0.03103304 0.01072888
v 0.01217065 0.03117204 0.01034301
v 0.01217065 0.03145005 0.00943622
v 0.01217065 0.03163960 0.00878024
v 0.01217065 0.03285274 0.00033615
v 0.00827889 0.03284642 -0.00029410
v 0.01217065 0.03282746 -0.00094364
v 0.01217065 0.03284642 -0.00029410
v 0.01217065 0.03279587 -0.00159962
v 0.01217065 0.03275796 -0.00224274
v 0.01217065 0.03270741 -0.00289871
v 0.01217065 0.03264423 -0.00354183
v 0.01217065 0.03246100 -0.00495025
v 0.01217065 0.03237254 -0.00549046
v 0.01217065 0.03211980 -0.00678955
v 0.01282250 0.03195552 -0.00743910
v 0.01282250 0.03186075 -0.00785069
v 0.01282250 0.03126682 -0.00995367
v 0.01217065 0.03178493 0.00824646
v 0.01217065 0.03186707 0.00792490
v 0.01087407 0.03197448 0.00747472
v 0.01022528 0.03211349 0.00683804
v 0.01217065 0.03211349 0.00683804
v 0.01217065 0.03224617 0.00618849
v 0.01217065 0.03236622 0.00553252
v 0.01217065 0.03245468 0.00499873
v 0.01217065 0.03250522 0.00467717
v 0.01217065 0.03256209 0.00422699
v 0.01217065 0.03263791 0.00358388
v 0.01217065 0.03270741 0.00292790
v 0.01217065 0.03276428 0.00228479
v 0.01217065 0.03282746 0.00098570
v 0.00568166 -0.03105145 -0.01069969
v 0.01282250 -0.03105145 -0.01069969
v 0.01364750 -0.03116518 -0.01027523
v 0.01347232 -0.03103881 -0.01069969
v 0.01608584 0.01853527 0.02496743
v 0.01608584 0.01908497 0.02505103
v 0.01608686 -0.00077373 0.03012520
v 0.01364750 -0.03102618 -0.01069969
v 0.01364750 -0.03079240 -0.01134923
v 0.01364750 -0.03060916 -0.01184443
v 0.01364750 -0.03029324 -0.01264832
v 0.01364750 -0.03002787 -0.01327214
v 0.01364750 -0.02972459 -0.01394742
v 0.01364750 -0.02925071 -0.01493138
v 0.01364750 -0.02875155 -0.01586389
v 0.01364750 -0.02857464 -0.01619188
v 0.01364750 -0.02837245 -0.01654560
v 0.01364750 -0.02806285 -0.01706652
v 0.01364750 -0.02786698 -0.01739451
v 0.01364750 -0.02757633 -0.01784469
v 0.01364750 -0.02732992 -0.01822412
v 0.01364750 -0.02710877 -0.01854568
v 0.01364750 -0.02686867 -0.01889296
v 0.01364750 -0.02655276 -0.01934314
v 0.01364750 -0.02623052 -0.01978046
v 0.01364750 -0.02598410 -0.02010845
v 0.01364750 -0.02571873 -0.02044930
v 0.01364750 -0.02540281 -0.02084160
v 0.01364750 -0.02480888 -0.02154903
v 0.01364750 -0.02452455 -0.02187701
v 0.01364750 -0.02420232 -0.02224359
v 0.01364750 -0.02390535 -0.02256515
v 0.01364750 -0.02358311 -0.02291243
v 0.01364750 -0.02294496 -0.02356197
v 0.01364750 -0.02261008 -0.02388996
v 0.01364750 -0.02228784 -0.02419866
v 0.01419954 -0.00054627 -0.03283568
v 0.01419954 -0.00031249 -0.03284854
v 0.01419954 0.00034463 -0.03284854
v 0.01608584 0.01928084 0.02569414
v 0.01335213 0.03215771 0.00163524
v 0.01324620 0.03260632 0.00163524
v 0.01324111 0.03259368 0.00228479
v 0.01322889 0.03256841 0.00292790
v 0.01323806 0.03194289 0.00683804
v 0.01322889 0.03128577 0.00943622
v 0.01318917 0.03122891 0.00988640
v 0.01321769 0.03061603 0.01144917
v 0.01318000 0.03056548 0.01179002
v 0.01320546 0.02994628 0.01317271
v 0.01321056 0.02931444 0.01450396
v 0.01282250 0.02803180 -0.01703436
v 0.01282250 0.02731151 -0.01819197
v 0.01255667 0.02923862 -0.01492495
v 0.01282250 0.02872683 -0.01583817
v 0.01282250 0.02854359 -0.01616616
v 0.01282250 0.02674917 -0.01898943
v 0.01282250 0.02651539 -0.01931099
v 0.01282250 0.02537176 -0.02081587
v 0.01282250 0.02480311 -0.02147185
v 0.01282250 0.02415863 -0.02221143
v 0.01217167 0.02417127 -0.02222429
v 0.01423722 0.01997586 -0.02661033
v 0.01423722 0.01962835 -0.02686758
v 0.01423722 0.01922397 -0.02714412
v 0.01423722 0.01898387 -0.02729847
v 0.01423722 0.01854790 -0.02756857
v 0.01423722 0.01808666 -0.02785154
v 0.01423722 0.01775810 -0.02804448
v 0.01423722 0.01717681 -0.02837247
v 0.01423722 0.01588154 -0.02905417
v 0.01423722 0.01538871 -0.02929855
v 0.01423722 0.01665870 -0.02865544
v 0.01423722 0.01461155 -0.02966513
v 0.01423722 0.01421981 -0.02983877
v 0.01423722 0.01389757 -0.02997382
v 0.01423722 0.01277290 -0.03043686
v 0.01423722 0.01245066 -0.03055905
v 0.01423722 0.01201469 -0.03071983
v 0.01423722 0.01087106 -0.03111213
v 0.01423722 0.01054882 -0.03121503
v 0.01419954 0.00941783 -0.03154945
v 0.01419954 0.00870385 -0.03173595
v 0.01419954 0.00815415 -0.03187744
v 0.01419954 0.00747177 -0.03203179
v 0.01419954 0.00681466 -0.03216684
v 0.01419954 0.00616386 -0.03229547
v 0.01419954 0.00550675 -0.03240479
v 0.01419954 0.00422412 -0.03258486
v 0.01419954 0.00515292 -0.03245624
v 0.01419954 0.00356700 -0.03265561
v 0.01419954 0.00292253 -0.03271992
v 0.01419954 0.00227805 -0.03277137
v 0.01419954 0.00162094 -0.03280352
v 0.01419954 0.00098278 -0.03282925
v 0.01412009 0.00034463 -0.03284854
v 0.01364750 -0.01984894 -0.02626948
v 0.00568166 -0.01980472 -0.02619874
v 0.01217167 0.02387431 -0.02255228
v 0.01282250 0.03060339 -0.01183800
v 0.01282250 0.03000314 -0.01325285
v 0.01279093 0.02935866 -0.01464198
v 0.01282250 0.03126050 0.00998930
v 0.01282250 0.03186075 0.00789918
v 0.01282250 0.03276428 0.00163524
v 0.01282250 0.03278323 0.00098570
v 0.01282250 0.03278955 0.00033615
v 0.01282250 0.03278955 -0.00029410
v 0.01282250 0.03278323 -0.00094364
v 0.01282250 0.03276428 -0.00159962
v 0.01282250 0.03272637 -0.00224274
v 0.01282250 0.03268214 -0.00289871
v 0.01282250 0.03262527 -0.00354183
v 0.01287750 0.03253682 -0.00425568
v 0.01269620 0.03249890 -0.00459010
v 0.01313315 0.03248627 -0.00450650
v 0.01282250 0.03208821 -0.00678955
v 0.01315454 0.03184811 -0.00780567
v 0.01318917 0.03122891 -0.00985721
v 0.01318408 0.03056548 -0.01176726
v 0.01217065 0.03197448 0.00747472
v 0.01282250 0.03208189 0.00683804
v 0.01282250 0.03249890 0.00463216
v 0.01282250 0.03262527 0.00358388
v 0.01282250 0.03268214 0.00292790
v 0.01282250 0.03273269 0.00228479
v 0.00568166 -0.03081767 -0.01134923
v 0.01282250 -0.03081767 -0.01134923
v 0.01347232 -0.03080503 -0.01134923
v 0.01423722 0.01015077 -0.03133079
v 0.01423722 0.02031705 -0.02620517
v 0.01423722 0.02055083 -0.02578715
v 0.01423722 0.02079725 -0.02498325
v 0.01347232 -0.03061548 -0.01185729
v 0.01347232 -0.03048911 -0.01217885
v 0.01347232 -0.03029956 -0.01264832
v 0.01347232 -0.03002787 -0.01327858
v 0.01347232 -0.02988886 -0.01360013
v 0.01347232 -0.02973090 -0.01394742
v 0.01282250 -0.02942130 -0.01459696
v 0.00632740 -0.02925071 -0.01493138
v 0.01348352 -0.02906747 -0.01528509
v 0.01347232 -0.02875787 -0.01587033
v 0.01347232 -0.02858096 -0.01619188
v 0.01282250 -0.02858096 -0.01619831
v 0.00568166 -0.02858096 -0.01619831
v 0.00568166 -0.02786066 -0.01738808
v 0.00568166 -0.02757002 -0.01784469
v 0.00568166 -0.02732992 -0.01821126
v 0.00568166 -0.02678022 -0.01900872
v 0.00568166 -0.02655276 -0.01933671
v 0.00568166 -0.02623052 -0.01977403
v 0.00568166 -0.02597778 -0.02010202
v 0.00568166 -0.02540281 -0.02082874
v 0.00568166 -0.02479624 -0.02152973
v 0.00568166 -0.02451191 -0.02185772
v 0.00568166 -0.02418968 -0.02221786
v 0.00568166 -0.02388008 -0.02254585
v 0.00568166 -0.02355784 -0.02288027
v 0.00568166 -0.02323560 -0.02320826
v 0.00568166 -0.02291336 -0.02352982
v 0.00568166 -0.02257217 -0.02385781
v 0.00568166 -0.02224993 -0.02415364
v 0.01364750 -0.02161178 -0.02481604
v 0.01364750 -0.02123899 -0.02514403
v 0.01364750 -0.02091675 -0.02541414
v 0.01364750 -0.02047447 -0.02578072
v 0.01364750 -0.02022173 -0.02598008
v 0.01334194 0.03150691 -0.00678955
v 0.01333278 0.03215771 -0.00289871
v 0.01335213 0.03215771 -0.00159962
v 0.01324722 0.03261895 0.00098570
v 0.01324824 0.03261895 0.00033615
v 0.01320445 0.03254313 0.00358388
v 0.01314843 0.03248627 0.00456784
v 0.01319120 0.03187970 0.00747472
v 0.01315352 0.03184811 0.00782843
v 0.01315148 0.02729887 -0.01817268
v 0.01298852 0.02921334 -0.01489279
v 0.01319732 0.02799389 -0.01696362
v 0.01316370 0.02535281 -0.02078372
v 0.01282250 0.02386167 -0.02253299
v 0.00568166 -0.02012695 -0.02595436
v 0.01320648 0.02995891 -0.01314352
v 0.01324824 0.03261895 -0.00029410
v 0.01324722 0.03261895 -0.00094364
v 0.01324620 0.03260632 -0.00159962
v 0.01324111 0.03258736 -0.00224274
v 0.01320445 0.03254313 -0.00354183
v 0.01317695 0.03251154 -0.00408204
v 0.01319426 0.03188602 -0.00743910
v 0.01323093 0.03128577 -0.00939417
v 0.01322685 0.03063498 -0.01134280
v 0.00568166 -0.03049543 -0.01219171
v 0.01282250 -0.03049543 -0.01219171
v 0.01321260 0.02866364 -0.01572884
v 0.01321463 0.02932707 -0.01446191
v 0.01324417 0.03004105 -0.01264189
v 0.01332769 0.03021165 -0.01134280
v 0.01333482 0.03085612 -0.00939417
v 0.01282250 -0.03030588 -0.01264832
v 0.01282250 -0.03003419 -0.01328501
v 0.01282250 -0.02988886 -0.01360656
v 0.00568166 -0.02973090 -0.01394742
v 0.00568166 -0.02942130 -0.01459696
v 0.00568166 -0.02875787 -0.01586389
v 0.01282250 -0.02906747 -0.01528509
v 0.00568166 -0.02925071 -0.01492495
v 0.00568166 -0.02188979 -0.02448163
v 0.00568166 -0.02156755 -0.02477103
v 0.00568166 -0.02118212 -0.02509901
v 0.00568166 -0.02085989 -0.02536269
v 0.01324010 0.03194920 -0.00678955
v 0.01330935 0.03215771 -0.00354183
v 0.01322889 0.03256209 -0.00289871
v 0.00568166 -0.03030588 -0.01264832
v 0.00632740 -0.03003419 -0.01327858
v 0.00568166 -0.02988886 -0.01360656
f 1 2 64
f 1 64 125
f 1 125 227
f 1 227 390
f 1 390 553
f 1 553 638
f 1 638 667
f 1 667 666
f 1 666 665
f 1 665 664
f 1 664 618
f 1 618 617
f 1 617 616
f 1 616 615
f 1 615 614
f 1 614 613
f 1 613 612
f 1 612 611
f 1 611 610
f 1 610 609
f 1 609 608
f 1 608 607
f 1 607 606
f 1 606 605
f 1 605 604
f 1 604 603
f 1 603 602
f 1 602 601
f 1 601 661
f 1 661 663
f 1 663 660
f 1 660 659
f 1 659 673
f 1 673 671
f 1 671 649
f 1 649 582
f 1 582 456
f 1 456 321
f 1 321 175
f 1 175 66
f 1 66 3
f 1 3 67
f 1 67 4
f 1 4 5
f 1 5 6
f 1 6 7
f 1 7 8
f 1 8 9
f 1 9 10
f 1 10 11
f 1 11 12
f 1 12 13
f 1 13 14
f 1 14 15
f 1 15 16
f 1 16 17
f 1 17 18
f 1 18 19
f 1 19 20
f 1 20 21
f 1 21 22
f 1 22 23
f 1 23 24
f 1 24 25
f 1 25 26
f 1 26 27
f 1 27 28
f 1 28 29
f 1 29 30
f 1 30 31
f 1 31 32
f 1 32 33
f 1 33 34
f 1 34 35
f 1 35 36
f 1 36 37
f 1 37 38
f 1 38 39
f 1 39 40
f 1 40 41
f 1 41 42
f 1 42 43
f 1 43 44
f 1 44 45
f 1 45 46
f 1 46 47
f 1 47 48
f 1 48 49
f 1 49 50
f 1 50 51
f 1 51 52
f 1 52 53
f 1 53 54
f 1 54 55
f 1 55 56
f 1 56 57
f 1 57 58
f 1 58 59
f 1 59 60
f 1 60 61
f 1 61 62
f 1 62 63
f 1 63 65
f 1 65 2
f 2 65 64
f 3 66 176
f 3 176 67
f 4 67 68
f 4 68 69
f 4 69 70
f 4 70 5
f 5 70 71
f 5 71 7
f 5 7 6
f 7 72 73
f 7 73 8
f 7 71 72
f 8 73 74
f 8 74 9
f 9 74 75
f 9 75 10
f 10 75 11
f 11 75 185
f 11 185 76
f 11 76 77
f 11 77 12
f 12 77 191
f 12 191 78
f 12 78 13
f 13 78 14
f 14 78 15
f 15 78 16
f 16 78 79
f 16 79 17
f 17 79 192
f 17 192 80
f 17 80 81
f 17 81 18
f 18 81 82
f 18 82 19
f 19 83 84
f 19 84 20
f 19 82 83
f 20 84 85
f 20 85 21
f 21 86 87
f 21 87 88
f 21 88 89
f 21 89 22
f 21 85 86
f 22 90 23
f 22 89 90
f 23 90 91
f 23 91 92
f 23 92 24
f 24 92 93
f 24 93 25
f 25 93 94
f 25 94 26
f 26 94 95
f 26 95 27
f 27 95 96
f 27 96 97
f 27 97 28
f 28 97 29
f 29 97 30
f 30 97 31
f 31 97 32
f 32 97 33
f 33 97 34
f 34 97 35
f 35 97 36
f 36 97 37
f 37 97 98
f 37 98 38
f 38 98 39
f 39 98 40
f 40 98 99
f 40 99 100
f 40 100 101
f 40 101 41
f 41 102 42
f 41 101 102
f 42 102 43
f 43 102 103
f 43 103 44
f 44 104 45
f 44 103 104
f 45 104 46
f 46 104 47
f 47 104 105
f 47 105 106
f 47 106 48
f 48 106 49
f 49 106 50
f 50 106 107
f 50 107 51
f 51 107 108
f 51 108 109
f 51 109 52
f 52 109 53
f 53 109 110
f 53 110 54
f 54 110 55
f 55 111 112
f 55 112 56
f 55 110 111
f 56 112 113
f 56 113 114
f 56 114 57
f 57 115 58
f 57 114 115
f 58 116 59
f 58 115 117
f 58 117 116
f 59 116 118
f 59 118 60
f 60 118 119
f 60 119 61
f 61 119 120
f 61 120 62
f 62 121 122
f 62 122 63
f 62 120 121
f 63 122 123
f 63 123 124
f 63 124 65
f 64 65 125
f 65 124 126
f 65 126 127
f 65 127 128
f 65 128 129
f 65 129 130
f 65 130 131
f 65 131 132
f 65 132 133
f 65 133 134
f 65 134 135
f 65 135 136
f 65 136 137
f 65 137 138
f 65 138 139
f 65 139 140
f 65 140 141
f 65 141 142
f 65 142 143
f 65 143 144
f 65 144 145
f 65 145 146
f 65 146 147
f 65 147 148
f 65 148 149
f 65 149 150
f 65 150 151
f 65 151 152
f 65 152 153
f 65 153 154
f 65 154 155
f 65 155 156
f 65 156 157
f 65 157 158
f 65 158 159
f 65 159 160
f 65 160 161
f 65 161 162
f 65 162 163
f 65 163 164
f 65 164 165
f 65 165 166
f 65 166 167
f 65 167 168
f 65 168 169
f 65 169 170
f 65 170 171
f 65 171 172
f 65 172 173
f 65 173 174
f 65 174 125
f 66 175 176
f 67 176 68
f 68 176 177
f 68 177 178
f 68 178 69
f 69 178 70
f 70 179 180
f 70 180 72
f 70 72 71
f 70 178 179
f 72 180 181
f 72 181 73
f 73 182 183
f 73 183 74
f 73 181 182
f 74 183 184
f 74 184 185
f 74 185 75
f 76 186 187
f 76 187 188
f 76 188 77
f 76 185 184
f 76 184 186
f 77 188 189
f 77 189 190
f 77 190 191
f 78 191 192
f 78 192 79
f 80 192 193
f 80 193 97
f 80 97 81
f 81 97 82
f 82 97 83
f 83 97 84
f 84 97 85
f 85 97 90
f 85 90 88
f 85 88 87
f 85 87 86
f 88 90 89
f 90 97 91
f 91 97 92
f 92 97 93
f 93 97 94
f 94 97 95
f 95 97 96
f 97 194 195
f 97 195 98
f 97 193 196
f 97 196 197
f 97 197 198
f 97 198 199
f 97 199 200
f 97 200 201
f 97 201 202
f 97 202 203
f 97 203 204
f 97 204 205
f 97 205 206
f 97 206 207
f 97 207 208
f 97 208 194
f 98 195 194
f 98 194 336
f 98 336 462
f 98 462 342
f 98 342 212
f 98 212 211
f 98 211 210
f 98 210 209
f 98 209 119
f 98 119 118
f 98 118 116
f 98 116 117
f 98 117 115
f 98 115 114
f 98 114 113
f 98 113 111
f 98 111 110
f 98 110 109
f 98 109 108
f 98 108 107
f 98 107 106
f 98 106 105
f 98 105 104
f 98 104 103
f 98 103 102
f 98 102 101
f 98 101 100
f 98 100 99
f 111 113 112
f 119 209 120
f 120 209 210
f 120 210 121
f 121 210 211
f 121 211 122
f 122 211 123
f 123 212 213
f 123 213 214
f 123 214 124
f 123 211 212
f 124 214 215
f 124 215 216
f 124 216 126
f 125 217 218
f 125 218 219
f 125 219 220
f 125 220 221
f 125 221 222
f 125 222 223
f 125 223 224
f 125 224 225
f 125 225 226
f 125 226 227
f 125 174 228
f 125 228 229
f 125 229 230
f 125 230 231
f 125 231 232
f 125 232 233
f 125 233 234
f 125 234 235
f 125 235 236
f 125 236 237
f 125 237 217
f 126 216 238
f 126 238 239
f 126 239 240
f 126 240 127
f 127 240 241
f 127 241 242
f 127 242 128
f 128 242 243
f 128 243 244
f 128 244 129
f 129 244 130
f 130 244 245
f 130 245 131
f 131 245 246
f 131 246 247
f 131 247 132
f 132 247 248
f 132 248 249
f 132 249 133
f 133 249 134
f 134 249 250
f 134 250 251
f 134 251 135
f 135 251 252
f 135 252 136
f 136 252 253
f 136 253 137
f 137 253 254
f 137 254 138
f 138 254 255
f 138 255 256
f 138 256 139
f 139 256 140
f 140 256 257
f 140 257 258
f 140 258 141
f 141 258 259
f 141 259 142
f 142 259 260
f 142 260 261
f 142 261 143
f 143 261 262
f 143 262 144
f 144 262 263
f 144 263 145
f 145 263 146
f 146 263 264
f 146 264 147
f 147 264 265
f 147 265 148
f 148 265 149
f 149 265 150
f 150 265 151
f 151 265 152
f 152 265 153
f 153 265 154
f 154 265 266
f 154 266 155
f 155 266 265
f 155 265 156
f 156 265 157
f 157 265 267
f 157 267 268
f 157 268 158
f 158 268 411
f 158 411 269
f 158 269 159
f 159 269 160
f 160 269 411
f 160 411 270
f 160 270 273
f 160 273 161
f 161 271 272
f 161 272 162
f 161 273 413
f 161 413 271
f 162 272 163
f 163 272 274
f 163 274 275
f 163 275 164
f 164 275 276
f 164 276 165
f 165 276 278
f 165 278 277
f 165 277 166
f 166 277 278
f 166 278 279
f 166 279 280
f 166 280 167
f 167 280 279
f 167 279 281
f 167 281 282
f 167 282 168
f 168 282 281
f 168 281 283
f 168 283 169
f 169 283 420
f 169 420 284
f 169 284 422
f 169 422 285
f 169 285 170
f 170 285 422
f 170 422 286
f 170 286 287
f 170 287 171
f 171 287 288
f 171 288 172
f 172 288 289
f 172 289 173
f 173 289 424
f 173 424 290
f 173 290 291
f 173 291 292
f 173 292 293
f 173 293 174
f 174 294 295
f 174 295 296
f 174 296 297
f 174 297 298
f 174 298 299
f 174 299 300
f 174 300 301
f 174 301 302
f 174 302 303
f 174 303 304
f 174 304 305
f 174 305 306
f 174 306 307
f 174 307 395
f 174 395 228
f 174 293 308
f 174 308 309
f 174 309 310
f 174 310 311
f 174 311 312
f 174 312 313
f 174 313 314
f 174 314 315
f 174 315 316
f 174 316 317
f 174 317 318
f 174 318 319
f 174 319 320
f 174 320 294
f 175 321 322
f 175 322 176
f 176 323 324
f 176 324 325
f 176 325 177
f 176 322 326
f 176 326 323
f 177 325 327
f 177 327 328
f 177 328 329
f 177 329 178
f 178 329 208
f 178 208 179
f 179 208 207
f 179 207 206
f 179 206 180
f 180 206 181
f 181 206 205
f 181 205 182
f 182 205 204
f 182 204 183
f 183 203 330
f 183 330 184
f 183 204 203
f 184 330 331
f 184 331 186
f 186 331 201
f 186 201 200
f 186 200 199
f 186 199 332
f 186 332 187
f 187 332 188
f 188 332 190
f 188 190 189
f 190 332 333
f 190 333 334
f 190 334 191
f 191 335 193
f 191 193 192
f 191 334 197
f 191 197 335
f 193 335 196
f 194 208 329
f 194 329 336
f 196 335 197
f 197 334 198
f 198 334 199
f 199 334 333
f 199 333 332
f 201 331 330
f 201 330 202
f 202 330 203
f 212 246 337
f 212 337 244
f 212 244 338
f 212 338 339
f 212 339 241
f 212 241 240
f 212 240 340
f 212 340 341
f 212 341 213
f 212 342 343
f 212 343 344
f 212 344 265
f 212 265 264
f 212 264 263
f 212 263 262
f 212 262 261
f 212 261 260
f 212 260 259
f 212 259 258
f 212 258 257
f 212 257 256
f 212 256 255
f 212 255 254
f 212 254 253
f 212 253 252
f 212 252 251
f 212 251 345
f 212 345 249
f 212 249 248
f 212 248 247
f 212 247 246
f 213 341 238
f 213 238 214
f 214 238 215
f 215 238 216
f 217 346 347
f 217 347 218
f 217 237 348
f 217 348 346
f 218 347 349
f 218 349 219
f 219 349 220
f 220 349 350
f 220 350 221
f 221 350 351
f 221 351 222
f 222 351 223
f 223 351 352
f 223 352 224
f 224 352 225
f 225 352 353
f 225 353 226
f 226 353 517
f 226 517 354
f 226 354 227
f 227 355 356
f 227 356 357
f 227 357 358
f 227 358 359
f 227 359 360
f 227 360 361
f 227 361 362
f 227 362 363
f 227 363 364
f 227 364 365
f 227 365 366
f 227 366 367
f 227 367 368
f 227 368 369
f 227 369 370
f 227 370 371
f 227 371 372
f 227 372 373
f 227 373 374
f 227 374 375
f 227 375 376
f 227 376 377
f 227 377 378
f 227 378 379
f 227 379 380
f 227 380 381
f 227 381 382
f 227 382 383
f 227 383 384
f 227 384 385
f 227 385 386
f 227 386 387
f 227 387 388
f 227 388 389
f 227 389 390
f 227 354 391
f 227 391 392
f 227 392 393
f 227 393 394
f 227 394 355
f 228 395 396
f 228 396 229
f 229 396 397
f 229 397 398
f 229 398 230
f 230 398 399
f 230 399 231
f 231 399 400
f 231 400 232
f 232 400 233
f 233 400 401
f 233 401 234
f 234 401 402
f 234 402 403
f 234 403 235
f 235 403 404
f 235 404 236
f 236 404 405
f 236 405 237
f 237 405 348
f 238 341 340
f 238 340 239
f 239 340 240
f 241 339 242
f 242 339 338
f 242 338 243
f 243 338 244
f 244 337 245
f 245 337 246
f 249 345 250
f 250 345 251
f 265 344 406
f 265 406 407
f 265 407 408
f 265 408 409
f 265 409 410
f 265 410 268
f 265 268 267
f 268 410 411
f 270 411 412
f 270 412 409
f 270 409 273
f 271 413 274
f 271 274 272
f 273 409 414
f 273 414 415
f 273 415 413
f 274 413 415
f 274 415 408
f 274 408 275
f 275 408 276
f 276 416 278
f 276 408 416
f 278 416 279
f 279 416 417
f 279 417 281
f 281 417 418
f 281 418 419
f 281 419 420
f 281 420 283
f 284 421 422
f 284 420 419
f 284 419 421
f 286 423 287
f 286 422 421
f 286 421 423
f 287 423 288
f 288 423 289
f 289 423 424
f 290 424 425
f 290 425 291
f 291 425 426
f 291 426 292
f 292 426 293
f 293 426 427
f 293 427 442
f 293 442 308
f 294 428 429
f 294 429 295
f 294 320 428
f 295 429 296
f 296 430 297
f 296 429 431
f 296 431 430
f 297 430 432
f 297 432 298
f 298 432 433
f 298 433 299
f 299 433 434
f 299 434 300
f 300 434 435
f 300 435 301
f 301 435 436
f 301 436 302
f 302 436 437
f 302 437 303
f 303 437 438
f 303 438 304
f 304 438 305
f 305 438 306
f 306 439 440
f 306 440 307
f 306 438 439
f 307 440 441
f 307 441 395
f 308 442 443
f 308 443 309
f 309 443 576
f 309 576 444
f 309 444 310
f 310 444 311
f 311 444 445
f 311 445 446
f 311 446 447
f 311 447 448
f 311 448 312
f 312 448 449
f 312 449 313
f 313 449 450
f 313 450 451
f 313 451 314
f 314 451 452
f 314 452 315
f 315 452 453
f 315 453 316
f 316 453 317
f 317 453 454
f 317 454 318
f 318 454 319
f 319 454 455
f 319 455 320
f 320 455 428
f 321 456 457
f 321 457 322
f 322 457 326
f 323 458 324
f 323 326 457
f 323 457 459
f 323 459 463
f 323 463 458
f 324 458 327
f 324 327 325
f 327 458 336
f 327 336 328
f 328 336 329
f 336 460 461
f 336 461 462
f 336 458 463
f 336 463 464
f 336 464 465
f 336 465 466
f 336 466 467
f 336 467 468
f 336 468 469
f 336 469 470
f 336 470 471
f 336 471 472
f 336 472 473
f 336 473 474
f 336 474 475
f 336 475 476
f 336 476 477
f 336 477 478
f 336 478 479
f 336 479 480
f 336 480 481
f 336 481 482
f 336 482 483
f 336 483 484
f 336 484 485
f 336 485 486
f 336 486 487
f 336 487 488
f 336 488 489
f 336 489 490
f 336 490 491
f 336 491 492
f 336 492 493
f 336 493 494
f 336 494 460
f 342 462 495
f 342 495 343
f 343 495 626
f 343 626 496
f 343 496 497
f 343 497 498
f 343 498 499
f 343 499 500
f 343 500 501
f 343 501 344
f 344 501 502
f 344 502 503
f 344 503 504
f 344 504 505
f 344 505 506
f 344 506 406
f 346 507 347
f 346 348 511
f 346 511 507
f 347 507 508
f 347 508 349
f 348 405 509
f 348 509 510
f 348 510 511
f 349 508 350
f 350 512 513
f 350 513 351
f 350 508 512
f 351 513 514
f 351 514 352
f 352 514 353
f 353 515 516
f 353 516 517
f 353 514 515
f 354 517 554
f 354 554 391
f 355 518 356
f 355 394 518
f 356 518 357
f 357 518 358
f 358 518 359
f 359 518 519
f 359 519 360
f 360 519 361
f 361 519 362
f 362 520 363
f 362 519 520
f 363 520 521
f 363 521 364
f 364 521 522
f 364 522 365
f 365 522 523
f 365 523 524
f 365 524 366
f 366 524 525
f 366 525 367
f 367 526 527
f 367 527 368
f 367 525 528
f 367 528 526
f 368 527 529
f 368 529 369
f 369 530 370
f 369 529 530
f 370 530 531
f 370 531 532
f 370 532 371
f 371 532 372
f 372 532 533
f 372 533 534
f 372 534 373
f 373 534 535
f 373 535 374
f 374 536 375
f 374 535 536
f 375 537 376
f 375 536 537
f 376 537 377
f 377 538 539
f 377 539 378
f 377 537 538
f 378 539 540
f 378 540 379
f 379 541 542
f 379 542 380
f 379 540 541
f 380 542 543
f 380 543 381
f 381 544 382
f 381 543 545
f 381 545 544
f 382 544 546
f 382 546 547
f 382 547 383
f 383 547 548
f 383 548 384
f 384 548 549
f 384 549 550
f 384 550 551
f 384 551 385
f 385 551 386
f 386 551 493
f 386 493 387
f 387 493 492
f 387 492 388
f 388 492 389
f 389 552 553
f 389 553 390
f 389 492 552
f 391 554 518
f 391 518 392
f 392 518 393
f 393 518 394
f 395 441 396
f 396 441 397
f 397 441 555
f 397 555 398
f 398 555 399
f 399 555 400
f 400 555 556
f 400 556 401
f 401 556 402
f 402 557 509
f 402 509 403
f 402 556 557
f 403 509 404
f 404 509 405
f 406 506 419
f 406 419 418
f 406 418 417
f 406 417 407
f 407 417 416
f 407 416 408
f 408 415 409
f 409 412 410
f 409 415 414
f 410 412 411
f 419 506 505
f 419 505 421
f 421 505 504
f 421 504 423
f 423 504 558
f 423 558 425
f 423 425 424
f 425 558 426
f 426 558 427
f 427 558 559
f 427 559 442
f 428 455 560
f 428 560 561
f 428 561 562
f 428 562 563
f 428 563 564
f 428 564 431
f 428 431 429
f 430 431 565
f 430 565 432
f 431 564 565
f 432 565 566
f 432 566 433
f 433 566 567
f 433 567 434
f 434 567 568
f 434 568 435
f 435 568 569
f 435 569 570
f 435 570 436
f 436 570 437
f 437 570 571
f 437 571 572
f 437 572 438
f 438 572 439
f 439 573 440
f 439 572 573
f 440 573 441
f 441 573 574
f 441 574 575
f 441 575 555
f 442 559 443
f 443 559 576
f 444 576 446
f 444 446 445
f 446 577 447
f 446 576 559
f 446 559 577
f 447 578 448
f 447 577 578
f 448 578 449
f 449 578 450
f 450 578 451
f 451 578 579
f 451 579 452
f 452 579 453
f 453 579 454
f 454 579 580
f 454 580 581
f 454 581 560
f 454 560 455
f 456 582 583
f 456 583 457
f 457 583 584
f 457 584 459
f 459 584 464
f 459 464 463
f 460 494 550
f 460 550 585
f 460 585 461
f 461 495 462
f 461 585 536
f 461 536 535
f 461 535 534
f 461 534 533
f 461 533 532
f 461 532 531
f 461 531 530
f 461 530 529
f 461 529 527
f 461 527 526
f 461 526 528
f 461 528 525
f 461 525 524
f 461 524 523
f 461 523 522
f 461 522 521
f 461 521 520
f 461 520 519
f 461 519 518
f 461 518 586
f 461 586 587
f 461 587 588
f 461 588 495
f 464 584 465
f 465 584 589
f 465 589 590
f 465 590 466
f 466 590 591
f 466 591 467
f 467 591 592
f 467 592 593
f 467 593 468
f 468 593 594
f 468 594 469
f 469 594 595
f 469 595 660
f 469 660 596
f 469 596 662
f 469 662 597
f 469 597 598
f 469 598 470
f 470 598 471
f 471 598 599
f 471 599 472
f 472 599 600
f 472 600 473
f 473 600 601
f 473 601 474
f 474 601 602
f 474 602 603
f 474 603 475
f 475 603 476
f 476 603 604
f 476 604 477
f 477 604 605
f 477 605 478
f 478 605 606
f 478 606 479
f 479 606 607
f 479 607 480
f 480 607 481
f 481 607 608
f 481 608 482
f 482 608 609
f 482 609 483
f 483 609 484
f 484 609 610
f 484 610 611
f 484 611 485
f 485 611 486
f 486 611 612
f 486 612 487
f 487 612 488
f 488 612 613
f 488 613 614
f 488 614 615
f 488 615 489
f 489 615 616
f 489 616 490
f 490 616 617
f 490 617 491
f 491 617 618
f 491 618 619
f 491 619 492
f 492 619 620
f 492 620 621
f 492 621 622
f 492 622 623
f 492 623 552
f 493 551 494
f 494 551 550
f 495 588 624
f 495 624 625
f 495 625 626
f 496 627 497
f 496 626 640
f 496 640 628
f 496 628 627
f 497 627 561
f 497 561 498
f 498 561 560
f 498 560 499
f 499 560 581
f 499 581 629
f 499 629 500
f 500 629 630
f 500 630 631
f 500 631 501
f 501 631 632
f 501 632 502
f 502 558 504
f 502 504 503
f 502 632 558
f 507 633 508
f 507 511 633
f 508 633 512
f 509 557 634
f 509 634 510
f 510 634 511
f 511 634 635
f 511 635 633
f 512 633 513
f 513 633 636
f 513 636 514
f 514 636 515
f 515 636 516
f 516 637 554
f 516 554 517
f 516 636 518
f 516 518 637
f 518 554 637
f 518 636 586
f 536 585 537
f 537 585 538
f 538 585 539
f 539 585 540
f 540 585 541
f 541 585 542
f 542 585 543
f 543 585 545
f 544 545 585
f 544 585 546
f 546 585 547
f 547 585 548
f 548 585 549
f 549 585 550
f 552 623 638
f 552 638 553
f 555 575 556
f 556 575 639
f 556 639 634
f 556 634 557
f 558 632 559
f 559 632 577
f 561 627 562
f 562 627 628
f 562 628 640
f 562 640 563
f 563 640 641
f 563 641 564
f 564 641 642
f 564 642 565
f 565 642 643
f 565 643 644
f 565 644 566
f 566 644 567
f 567 644 645
f 567 645 571
f 567 571 568
f 568 571 569
f 569 571 570
f 571 645 646
f 571 646 573
f 571 573 572
f 573 646 574
f 574 646 647
f 574 647 648
f 574 648 575
f 575 648 639
f 577 632 630
f 577 630 578
f 578 630 579
f 579 630 580
f 580 630 581
f 581 630 629
f 582 649 650
f 582 650 583
f 583 650 589
f 583 589 584
f 586 636 633
f 586 633 635
f 586 635 651
f 586 651 587
f 587 651 652
f 587 652 639
f 587 639 653
f 587 653 654
f 587 654 655
f 587 655 588
f 588 655 624
f 589 650 590
f 590 650 591
f 591 656 657
f 591 657 592
f 591 650 656
f 592 657 593
f 593 658 594
f 593 657 658
f 594 658 673
f 594 673 659
f 594 659 660
f 594 660 595
f 596 661 662
f 596 660 663
f 596 663 661
f 597 662 598
f 598 600 599
f 598 662 601
f 598 601 600
f 601 662 661
f 618 664 619
f 619 665 620
f 619 664 665
f 620 665 666
f 620 666 621
f 621 666 622
f 622 666 667
f 622 667 638
f 622 638 623
f 624 655 668
f 624 668 625
f 625 668 669
f 625 669 670
f 625 670 643
f 625 643 626
f 626 643 642
f 626 642 641
f 626 641 640
f 630 632 631
f 634 639 652
f 634 652 651
f 634 651 635
f 639 648 653
f 643 670 644
f 644 670 668
f 644 668 645
f 645 668 646
f 646 668 647
f 647 655 648
f 647 668 655
f 648 654 653
f 648 655 654
f 649 671 656
f 649 656 650
f 656 671 657
f 657 671 672
f 657 672 673
f 657 673 658
f 668 670 669
f 671 673 672
