# https://github.com/mikedh/trimesh
v 0.06743168 0.02935402 -0.00861017
v 0.07131927 0.03021426 -0.01209241
v 0.07067203 0.03021426 -0.01200439
v 0.07002066 0.03021426 -0.01199614
v 0.05864853 0.02935402 -0.00861017
v 0.06807480 0.02930569 -0.00861017
v 0.07969841 0.02835361 -0.00861017
v 0.07190880 0.03021426 -0.01224095
v 0.06936929 0.03021426 -0.01206491
v 0.05864441 0.02935402 -0.01174859
v 0.05864853 0.02846477 -0.00861017
v 0.06872617 0.03021426 -0.01221619
v 0.06838194 0.03021426 -0.01232071
v 0.06805831 0.03021426 -0.01246924
v 0.06745642 0.03021426 -0.01279381
v 0.06712867 0.03021426 -0.01299461
v 0.06677001 0.03021426 -0.01329167
v 0.06642165 0.03021426 -0.01359424
v 0.06382030 0.03021426 -0.01609452
v 0.07969841 0.02835361 -0.00875320
v 0.07737946 0.03021426 -0.01609452
v 0.07523572 0.03021426 -0.01441391
v 0.07391237 0.03021426 -0.01337694
v 0.07348569 0.03021426 -0.01305237
v 0.07316206 0.03021426 -0.01283507
v 0.07261994 0.03021426 -0.01253251
v 0.07223242 0.03021426 -0.01235097
v 0.07969841 -0.01668875 -0.00861017
v 0.07970253 0.02112847 -0.01756334
v 0.05864441 0.02935402 -0.01441391
v 0.05864441 0.02846477 -0.01174859
v 0.05865059 0.02112847 -0.00861017
v 0.06092625 0.02112847 -0.03670745
v 0.06034497 0.02112847 -0.03653141
v 0.06006051 0.02935402 -0.01609452
v 0.07970253 0.02112847 -0.03670745
v 0.07969841 0.02833428 -0.00940234
v 0.07969841 0.02826662 -0.01005423
v 0.07969841 0.02812647 -0.01108295
v 0.07768865 -0.01668875 -0.00861017
v 0.07799166 -0.01915834 -0.01650436
v 0.07970253 -0.01915834 -0.01756334
v 0.06007082 0.02112847 -0.03604731
v 0.05864441 0.02846477 -0.01441391
v 0.05865059 0.02112847 -0.01441391
v 0.05984202 -0.01915834 -0.02811185
v 0.05984408 -0.01635045 -0.00861017
v 0.06035116 0.02111880 -0.03653691
v 0.06092625 -0.01915834 -0.03670745
v 0.06035116 -0.01915834 -0.03653691
v 0.06034291 -0.01915834 -0.03652866
v 0.07970253 -0.01915834 -0.03670745
v 0.07421125 -0.01915834 -0.01650436
v 0.06007082 -0.01915834 -0.03604731
v 0.05984202 -0.01915834 -0.03165736
f 1 2 3
f 1 3 4
f 1 4 5
f 1 5 11
f 1 11 32
f 1 32 47
f 1 47 40
f 1 40 28
f 1 28 7
f 1 7 6
f 1 6 2
f 2 6 7
f 2 7 8
f 2 8 27
f 2 27 26
f 2 26 25
f 2 25 24
f 2 24 23
f 2 23 22
f 2 22 21
f 2 21 19
f 2 19 18
f 2 18 17
f 2 17 16
f 2 16 15
f 2 15 14
f 2 14 13
f 2 13 12
f 2 12 9
f 2 9 4
f 2 4 3
f 4 9 5
f 5 10 31
f 5 31 11
f 5 9 12
f 5 12 13
f 5 13 14
f 5 14 15
f 5 15 16
f 5 16 17
f 5 17 18
f 5 18 19
f 5 19 10
f 7 20 21
f 7 21 22
f 7 22 23
f 7 23 24
f 7 24 25
f 7 25 26
f 7 26 27
f 7 27 8
f 7 28 42
f 7 42 29
f 7 29 36
f 7 36 20
f 10 19 30
f 10 30 44
f 10 44 31
f 11 31 32
f 19 21 36
f 19 36 33
f 19 33 34
f 19 34 35
f 19 35 30
f 20 36 37
f 20 37 21
f 21 37 38
f 21 38 39
f 21 39 36
f 28 40 53
f 28 53 41
f 28 41 42
f 29 42 52
f 29 52 36
f 30 35 34
f 30 34 43
f 30 43 54
f 30 54 44
f 31 44 45
f 31 45 32
f 32 45 55
f 32 55 46
f 32 46 47
f 33 48 34
f 33 36 52
f 33 52 49
f 33 49 50
f 33 50 48
f 34 48 50
f 34 50 51
f 34 51 43
f 36 39 38
f 36 38 37
f 40 47 53
f 41 53 46
f 41 46 55
f 41 55 54
f 41 54 51
f 41 51 50
f 41 50 49
f 41 49 52
f 41 52 42
f 43 51 54
f 44 54 45
f 45 54 55
f 46 53 47
