# https://github.com/mikedh/trimesh
v 0.07970294 0.03931709 -0.01756213
v 0.09423310 0.02825714 -0.01826302
v 0.09423310 0.03931709 -0.01826490
v 0.07970294 0.03997292 -0.01756400
v 0.07970294 -0.03931709 -0.01756213
v 0.09423310 -0.03931709 -0.01826490
v 0.09423310 0.03996482 -0.01828926
v 0.07970294 0.04058826 -0.01763522
v 0.07970294 -0.03997292 -0.01756400
v 0.09423310 -0.03980289 -0.01828176
v 0.09423310 0.04056397 -0.01857037
v 0.07970294 0.04065304 -0.01765021
v 0.07970294 0.04062874 -0.01764271
v 0.07970294 -0.04016724 -0.01757525
v 0.09423310 -0.03996482 -0.01828926
v 0.09423310 0.04086354 -0.01915320
v 0.09277368 0.04091213 -0.01893206
v 0.09225592 0.04092832 -0.01886647
v 0.09182208 0.04093641 -0.01882711
v 0.07970294 0.04110644 -0.01794818
v 0.07970294 0.04104977 -0.01788821
v 0.07970294 -0.04058826 -0.01763522
v 0.07970294 -0.04065304 -0.01765021
v 0.09423310 -0.04041823 -0.01849353
v 0.09423310 0.04087164 -0.01931062
v 0.09407379 0.04091213 -0.01980162
v 0.09331279 0.04095261 -0.01936122
v 0.09348632 0.04091213 -0.01914945
v 0.09207243 0.04098500 -0.01911009
v 0.09147358 0.04102548 -0.01915320
v 0.09147358 0.04095261 -0.01881962
v 0.07970294 0.04128457 -0.01841857
v 0.07970294 -0.04110644 -0.01794818
v 0.09423310 -0.04056397 -0.01857037
v 0.09423310 0.04089593 -0.01980162
v 0.09407522 0.04091213 -0.03214601
v 0.09375090 0.04093641 -0.03214601
v 0.09342374 0.04096070 -0.03149758
v 0.09341805 0.04096070 -0.01980162
v 0.09212364 0.04104977 -0.01980162
v 0.09202122 0.04104977 -0.01970042
v 0.09082353 0.04112264 -0.01980162
v 0.09277368 0.04096880 -0.01925627
v 0.08952342 0.04118741 -0.01980162
v 0.08757469 0.04118741 -0.01915320
v 0.07977547 0.04130886 -0.01850103
v 0.07970294 0.04130886 -0.01850103
v 0.07970294 -0.04130886 -0.01850103
v 0.07977547 -0.04130886 -0.01850103
v 0.09182208 -0.04094451 -0.01882711
v 0.09202122 -0.04093641 -0.01884398
v 0.09225592 -0.04092832 -0.01886647
v 0.09277368 -0.04091213 -0.01893206
v 0.09423310 -0.04079067 -0.01900515
v 0.09423310 0.04089593 -0.03276632
v 0.09374094 0.04093641 -0.03294435
v 0.09375090 0.04093641 -0.03250957
v 0.09342374 0.04096070 -0.03214601
v 0.09202264 0.04105787 -0.02749648
v 0.09082353 0.04112264 -0.03344660
v 0.08952342 0.04118741 -0.03344660
v 0.08887479 0.04121170 -0.03344660
v 0.08627600 0.04130886 -0.01980162
v 0.08497732 0.04133315 -0.01980162
v 0.08107558 0.04134125 -0.01915132
v 0.07977547 0.04135744 -0.01915132
v 0.07970294 0.04135744 -0.01915132
v 0.07970294 -0.04135744 -0.01915132
v 0.07977547 -0.04135744 -0.01915132
v 0.08107558 -0.04134125 -0.01915132
v 0.08497732 -0.04133315 -0.01980162
v 0.08627600 -0.04130886 -0.01980162
v 0.08757469 -0.04118741 -0.01915320
v 0.09082353 -0.04105787 -0.01915320
v 0.09202122 -0.04099309 -0.01911384
v 0.09423310 -0.04086354 -0.01915320
v 0.09348775 -0.04091213 -0.01914945
v 0.09423310 0.04085545 -0.03344660
v 0.09330710 0.04095261 -0.03330230
v 0.09212364 0.04104977 -0.03279630
v 0.09407379 0.04087164 -0.03344660
v 0.08952342 0.04113883 -0.03409689
v 0.08822474 0.04121170 -0.03409689
v 0.09306102 0.04093641 -0.03373707
v 0.09017348 0.04109835 -0.03409689
v 0.08757469 0.04124409 -0.03409689
v 0.08692606 0.04126837 -0.03409689
v 0.08692606 0.04128457 -0.03344660
v 0.08692606 0.04128457 -0.03084728
v 0.08627600 0.04130886 -0.03344660
v 0.08497732 0.04133315 -0.03344660
v 0.08382230 0.04134934 -0.03099159
v 0.08382088 0.04134934 -0.01980162
v 0.08237569 0.04135744 -0.01980162
v 0.07970294 0.04135744 -0.03344847
v 0.07970294 -0.04135744 -0.03344847
v 0.08237569 -0.04135744 -0.01980162
v 0.08382088 -0.04134934 -0.01980162
v 0.08562737 -0.04132505 -0.03214788
v 0.08692606 -0.04129267 -0.02500211
v 0.08757469 -0.04126837 -0.01980162
v 0.08952342 -0.04119550 -0.01980162
v 0.09147358 -0.04102548 -0.01915320
v 0.09082353 -0.04113073 -0.01980162
v 0.09331279 -0.04095261 -0.01936122
v 0.09423310 -0.04089593 -0.01964233
v 0.09423310 0.04082306 -0.03360589
v 0.08692606 0.04116312 -0.03474719
v 0.08562737 0.04123599 -0.03474719
v 0.09117345 0.04093641 -0.03442860
v 0.09082353 0.04104977 -0.03409689
v 0.09423310 0.04071781 -0.03409689
v 0.09281636 0.04087164 -0.03406878
v 0.08822474 0.04107406 -0.03474719
v 0.09017348 0.04098500 -0.03455229
v 0.08880936 0.04102548 -0.03477905
v 0.08627600 0.04129267 -0.03409689
v 0.08562737 0.04130886 -0.03409689
v 0.08382088 0.04134934 -0.03409689
v 0.08237569 0.04135744 -0.03344847
v 0.07970294 0.04134934 -0.03409689
v 0.08237569 -0.04135744 -0.03344847
v 0.07970294 -0.04134934 -0.03417186
v 0.08382230 -0.04134934 -0.03344660
v 0.08562737 -0.04132505 -0.03344660
v 0.08692606 -0.04129267 -0.03344660
v 0.08887479 -0.04121980 -0.03344660
v 0.08952342 -0.04119550 -0.03279817
v 0.09082353 -0.04113073 -0.03279817
v 0.09202264 -0.04105787 -0.02110221
v 0.09202122 -0.04105787 -0.01980162
v 0.09342089 -0.04096070 -0.01980162
v 0.09407379 -0.04091213 -0.01980162
v 0.09423310 -0.04089593 -0.03279630
v 0.08822474 0.04096070 -0.03509764
v 0.08627600 0.04102548 -0.03523819
v 0.08562737 0.04104977 -0.03527567
v 0.08432584 0.04107406 -0.03533189
v 0.08382088 0.04108215 -0.03534876
v 0.08382088 0.04128457 -0.03474906
v 0.09202264 0.04089593 -0.03426743
v 0.09277368 0.04062065 -0.03474719
v 0.09202264 0.04070971 -0.03473782
v 0.09082353 0.04081497 -0.03479592
v 0.08952342 0.04088784 -0.03495334
v 0.09423310 0.04043443 -0.03477155
v 0.09407806 0.04044252 -0.03479966
v 0.08302574 0.04129267 -0.03474906
v 0.07977547 0.04130076 -0.03474906
v 0.07970294 0.04130076 -0.03474906
v 0.08382088 -0.04134934 -0.03409689
v 0.07977547 -0.04130076 -0.03474906
v 0.07970294 -0.04130076 -0.03474906
v 0.08562737 -0.04131695 -0.03409689
v 0.08432584 -0.04134125 -0.03409689
v 0.08822474 -0.04121980 -0.03409689
v 0.09082353 -0.04112264 -0.03344660
v 0.09202122 -0.04105787 -0.03289937
v 0.09202264 -0.04105787 -0.02630458
v 0.09342232 -0.04096070 -0.02824798
v 0.09407379 -0.04091213 -0.03279630
v 0.09423310 -0.04085545 -0.03344660
v 0.08757469 0.04077448 -0.03547058
v 0.08627600 0.04083926 -0.03556240
v 0.09423310 0.04028059 -0.03505828
v 0.09386327 0.04030488 -0.03509201
v 0.09202264 0.04041823 -0.03524756
v 0.09147358 0.04045062 -0.03529441
v 0.08952342 0.04060446 -0.03539749
v 0.08562737 0.04086354 -0.03560176
v 0.08497732 0.04088784 -0.03563362
v 0.08367579 0.04092022 -0.03567860
v 0.08302574 0.04109025 -0.03536375
v 0.09423310 0.04039394 -0.03484839
v 0.07970294 0.04109835 -0.03538062
v 0.08302574 -0.04129267 -0.03474906
v 0.08382088 -0.04130076 -0.03460289
v 0.07970294 -0.04109835 -0.03538062
v 0.08382088 -0.04128457 -0.03474906
v 0.08562737 -0.04123599 -0.03474719
v 0.08692606 -0.04117122 -0.03474719
v 0.09017348 -0.04109835 -0.03409689
v 0.09147358 -0.04108215 -0.03344660
v 0.09341662 -0.04096070 -0.03279630
v 0.09342232 -0.04096070 -0.03214601
v 0.09407379 -0.04087164 -0.03344660
v 0.09330568 -0.04095261 -0.03330230
v 0.09423310 -0.04072590 -0.03409689
v 0.09306102 -0.04093641 -0.03373707
v 0.09040248 0.04028059 -0.03570671
v 0.08822474 0.04041823 -0.03584726
v 0.08627600 0.04051539 -0.03594096
v 0.09423310 0.04021582 -0.03513512
v 0.08562737 0.04053968 -0.03596532
v 0.08497732 0.04056397 -0.03598407
v 0.08237569 0.04092832 -0.03569359
v 0.08432584 0.04058016 -0.03599906
v 0.08382230 0.04058826 -0.03600843
v 0.07977547 0.04093641 -0.03570483
v 0.07970294 0.04093641 -0.03570483
v 0.08302574 -0.04109025 -0.03536000
v 0.08382088 -0.04113073 -0.03521758
v 0.07977547 -0.04093641 -0.03570483
v 0.07970294 -0.04093641 -0.03570483
v 0.08432584 -0.04107406 -0.03533189
v 0.08562737 -0.04104977 -0.03527567
v 0.08627600 -0.04103357 -0.03523819
v 0.08822474 -0.04108215 -0.03474719
v 0.08692606 -0.04100928 -0.03519322
v 0.08757469 -0.04098500 -0.03514636
v 0.08822474 -0.04096070 -0.03509764
v 0.09017348 -0.04099309 -0.03455229
v 0.09082353 -0.04104977 -0.03409689
v 0.09202122 -0.04104167 -0.03344660
v 0.09281636 -0.04097690 -0.03349157
v 0.09117345 -0.04094451 -0.03442860
v 0.09277368 -0.04062065 -0.03474719
v 0.09407948 -0.04044252 -0.03479966
v 0.09423310 -0.04043443 -0.03477155
v 0.09202122 -0.04096880 -0.03400319
v 0.09423310 0.04001340 -0.03536938
v 0.09407379 0.03968144 -0.03576292
v 0.09082353 0.03991624 -0.03595033
v 0.08822474 0.04000530 -0.03617147
v 0.08757469 0.04004579 -0.03620708
v 0.08627600 0.04011866 -0.03626330
v 0.08497732 0.04017533 -0.03631015
v 0.08382088 0.04022391 -0.03633264
v 0.08237569 0.04060446 -0.03601592
v 0.08382088 0.04050729 -0.03608152
v 0.07977547 0.04061255 -0.03602529
v 0.07970294 0.04061255 -0.03602529
v 0.08237569 -0.04092832 -0.03568984
v 0.08367579 -0.04092022 -0.03567672
v 0.08382088 -0.04108215 -0.03534876
v 0.07977547 -0.04061255 -0.03602529
v 0.08172563 -0.04060446 -0.03601967
v 0.07970294 -0.04061255 -0.03602529
v 0.08497732 -0.04088784 -0.03563362
v 0.08562737 -0.04086354 -0.03560176
v 0.08627600 -0.04083926 -0.03556240
v 0.08855048 -0.04094451 -0.03507328
v 0.08880936 -0.04102548 -0.03477905
v 0.08692606 -0.04080687 -0.03551930
v 0.08952342 -0.04089593 -0.03495334
v 0.09082353 -0.04082306 -0.03479592
v 0.09423310 -0.04032917 -0.03497582
v 0.09423310 0.03966525 -0.03575356
v 0.09423310 0.03933329 -0.03599906
v 0.08862729 0.03965715 -0.03637949
v 0.08822474 0.03968144 -0.03639448
v 0.08757469 0.03972192 -0.03641510
v 0.08562737 0.04014295 -0.03628954
v 0.08627600 0.03979480 -0.03645258
v 0.08497732 0.03985957 -0.03647319
v 0.08302574 0.04023201 -0.03634014
v 0.08382088 0.04015104 -0.03636825
v 0.08237569 0.04024011 -0.03634201
v 0.07970294 0.04025630 -0.03635138
v 0.08302574 -0.04059636 -0.03601592
v 0.08382230 -0.04058826 -0.03600843
v 0.08432584 -0.04058016 -0.03599906
v 0.08497732 -0.04056397 -0.03598407
v 0.07970294 -0.04057207 -0.03606277
v 0.08237569 -0.04024011 -0.03634201
v 0.08562737 -0.04053968 -0.03596532
v 0.08627600 -0.04051539 -0.03594096
v 0.08692606 -0.04048301 -0.03591285
v 0.08822474 -0.04041823 -0.03584538
v 0.08757469 -0.04077448 -0.03547058
v 0.08952342 -0.04061255 -0.03539749
v 0.09147358 -0.04045871 -0.03529441
v 0.09386753 -0.04030488 -0.03509201
v 0.08996864 -0.04031298 -0.03573857
v 0.09423310 -0.04020772 -0.03513887
v 0.09423310 0.03918755 -0.03609089
v 0.09407379 0.03931709 -0.03602717
v 0.09423310 0.03883940 -0.03630453
v 0.09342374 0.03891226 -0.03634014
v 0.09202264 0.03903371 -0.03639635
v 0.09147358 0.03907420 -0.03641510
v 0.08952342 0.03923613 -0.03647507
v 0.08822474 0.03930900 -0.03652567
v 0.08757469 0.03930900 -0.03655753
v 0.08692606 0.03930900 -0.03658564
v 0.08627600 0.03930900 -0.03660812
v 0.08382088 0.03990005 -0.03648819
v 0.08562737 0.03930900 -0.03662686
v 0.08302574 0.03990815 -0.03649193
v 0.08042553 0.03992434 -0.03649568
v 0.07970294 0.03996482 -0.03648069
v 0.08302574 -0.04023201 -0.03634014
v 0.08382088 -0.04022391 -0.03633264
v 0.08497732 -0.04017533 -0.03631015
v 0.07970294 -0.04024820 -0.03635138
v 0.08042553 -0.04024820 -0.03634763
v 0.08237569 -0.03991624 -0.03649380
v 0.08562737 -0.04015104 -0.03628954
v 0.08692606 -0.04008627 -0.03623706
v 0.08757469 -0.04004579 -0.03620708
v 0.08822474 -0.04000530 -0.03617147
v 0.08952342 -0.04033726 -0.03576855
v 0.09040248 -0.04028059 -0.03570671
v 0.09423310 -0.04001340 -0.03536938
v 0.09082353 -0.03992434 -0.03595033
v 0.09407379 -0.03968144 -0.03576292
v 0.09423310 0.03851553 -0.03644696
v 0.09147358 0.03866127 -0.03655190
v 0.09082353 0.03866127 -0.03658376
v 0.09017348 0.03866127 -0.03661187
v 0.08952342 0.03866127 -0.03663811
v 0.08497732 0.03930900 -0.03663811
v 0.08382088 0.03931709 -0.03665310
v 0.08367579 0.03931709 -0.03665498
v 0.08887479 0.03866127 -0.03665685
v 0.08822474 0.03866127 -0.03667184
v 0.07977547 0.03992434 -0.03649756
v 0.07970294 0.03992434 -0.03649756
v 0.08302574 -0.03990815 -0.03649193
v 0.08382088 -0.03990005 -0.03648819
v 0.08497732 -0.03985957 -0.03647319
v 0.08562737 -0.03982718 -0.03646382
v 0.08627600 -0.03979480 -0.03645258
v 0.07970294 -0.04021582 -0.03636637
v 0.07977547 -0.03992434 -0.03649756
v 0.07970294 -0.03985957 -0.03651630
v 0.08172563 -0.03931709 -0.03666060
v 0.08367579 -0.03931709 -0.03665498
v 0.08692606 -0.03976241 -0.03643383
v 0.08757469 -0.03972192 -0.03641510
v 0.08822474 -0.03968144 -0.03639448
v 0.08862729 -0.03965715 -0.03637949
v 0.09423310 -0.03973002 -0.03568609
v 0.09423310 -0.03933329 -0.03599906
v 0.09423310 -0.03966525 -0.03575356
v 0.09423310 0.03840218 -0.03648069
v 0.09407379 0.03801354 -0.03660063
v 0.09277368 0.03801354 -0.03664373
v 0.08432584 0.03930900 -0.03664748
v 0.08757469 0.03866127 -0.03668309
v 0.08692606 0.03866127 -0.03669058
v 0.08627600 0.03866127 -0.03669808
v 0.08562737 0.03866127 -0.03670183
v 0.08382088 0.03917945 -0.03666622
v 0.08172563 0.03931709 -0.03666060
v 0.09212364 0.03801354 -0.03666060
v 0.09147358 0.03800545 -0.03667559
v 0.07970294 0.03938996 -0.03664373
v 0.08432584 -0.03931709 -0.03664748
v 0.08497732 -0.03931709 -0.03663811
v 0.08562737 -0.03931709 -0.03662686
v 0.08627600 -0.03931709 -0.03660812
v 0.08692606 -0.03931709 -0.03658564
v 0.08757469 -0.03931709 -0.03655753
v 0.07970294 -0.03992434 -0.03649756
v 0.08042553 -0.03931709 -0.03666247
v 0.07970294 -0.03931709 -0.03666247
v 0.08432584 -0.03866937 -0.03670558
v 0.08562737 -0.03866937 -0.03670183
v 0.08627600 -0.03866937 -0.03669808
v 0.08822474 -0.03931709 -0.03652567
v 0.08952342 -0.03924422 -0.03647507
v 0.09147358 -0.03908229 -0.03641510
v 0.09342374 -0.03891226 -0.03634014
v 0.09423310 -0.03883940 -0.03630453
v 0.09202122 -0.03936567 -0.03621082
v 0.09407379 -0.03931709 -0.03602717
v 0.09423310 0.03801354 -0.03659126
v 0.09423310 0.03785161 -0.03661937
v 0.09423310 0.03735772 -0.03668683
v 0.09082353 0.03800545 -0.03668683
v 0.09017348 0.03800545 -0.03669620
v 0.08952342 0.03800545 -0.03670183
v 0.08432584 0.03866127 -0.03670558
v 0.08887479 0.03800545 -0.03670558
v 0.08042553 0.03931709 -0.03666247
v 0.07970294 0.03931709 -0.03666247
v 0.08692606 -0.03866937 -0.03669058
v 0.08757469 -0.03866937 -0.03668309
v 0.08822474 -0.03866937 -0.03667184
v 0.08887479 -0.03866937 -0.03665685
v 0.08952342 -0.03866937 -0.03663811
v 0.09017348 -0.03866937 -0.03661187
v 0.09082353 -0.03866937 -0.03658376
v 0.07970294 -0.03925232 -0.03666809
v 0.07970294 -0.03866937 -0.03670558
v 0.09423310 -0.03670999 -0.03670745
v 0.08887479 -0.03802164 -0.03670558
v 0.08952342 -0.03802164 -0.03670183
v 0.09017348 -0.03802164 -0.03669620
v 0.09147358 -0.03866937 -0.03655190
v 0.09423310 -0.03851553 -0.03644696
v 0.09423310 0.03720388 -0.03669246
v 0.09277368 0.03735772 -0.03670183
v 0.09423310 0.03670999 -0.03670745
v 0.08382088 0.03866937 -0.03670558
v 0.07970294 0.03874224 -0.03670183
v 0.09082353 -0.03802164 -0.03668683
v 0.09147358 -0.03802164 -0.03667559
v 0.09202122 -0.03802164 -0.03666247
v 0.09277368 -0.03801354 -0.03664373
v 0.09407379 -0.03801354 -0.03660063
v 0.07970294 0.03866937 -0.03670558
v 0.09202264 -0.03670999 -0.03670745
v 0.09423310 -0.03735772 -0.03668683
v 0.09277368 -0.03735772 -0.03670183
v 0.09423310 -0.03801354 -0.03659126
v 0.09202264 0.03670999 -0.03670745
f 1 2 3
f 1 3 4
f 1 4 8
f 1 8 13
f 1 13 12
f 1 12 21
f 1 21 20
f 1 20 32
f 1 32 47
f 1 47 67
f 1 67 95
f 1 95 121
f 1 121 150
f 1 150 175
f 1 175 200
f 1 200 232
f 1 232 259
f 1 259 291
f 1 291 318
f 1 318 348
f 1 348 377
f 1 377 397
f 1 397 403
f 1 403 386
f 1 386 385
f 1 385 357
f 1 357 326
f 1 326 355
f 1 355 324
f 1 324 295
f 1 295 264
f 1 264 238
f 1 238 204
f 1 204 178
f 1 178 153
f 1 153 123
f 1 123 96
f 1 96 68
f 1 68 48
f 1 48 33
f 1 33 23
f 1 23 22
f 1 22 14
f 1 14 9
f 1 9 5
f 1 5 2
f 2 5 6
f 2 6 10
f 2 10 15
f 2 15 24
f 2 24 34
f 2 34 54
f 2 54 76
f 2 76 106
f 2 106 134
f 2 134 162
f 2 162 188
f 2 188 219
f 2 219 247
f 2 247 275
f 2 275 304
f 2 304 333
f 2 333 335
f 2 335 334
f 2 334 365
f 2 365 392
f 2 392 407
f 2 407 405
f 2 405 387
f 2 387 395
f 2 395 393
f 2 393 370
f 2 370 369
f 2 369 368
f 2 368 336
f 2 336 307
f 2 307 278
f 2 278 276
f 2 276 249
f 2 249 248
f 2 248 221
f 2 221 193
f 2 193 165
f 2 165 174
f 2 174 146
f 2 146 112
f 2 112 107
f 2 107 78
f 2 78 55
f 2 55 35
f 2 35 25
f 2 25 16
f 2 16 11
f 2 11 7
f 2 7 3
f 3 7 4
f 4 7 8
f 5 9 6
f 6 9 10
f 7 11 12
f 7 12 13
f 7 13 8
f 9 14 15
f 9 15 10
f 11 16 17
f 11 17 18
f 11 18 19
f 11 19 20
f 11 20 21
f 11 21 12
f 14 22 15
f 15 22 23
f 15 23 24
f 16 25 26
f 16 26 27
f 16 27 28
f 16 28 17
f 17 28 29
f 17 29 18
f 18 29 30
f 18 30 31
f 18 31 19
f 19 31 20
f 20 31 32
f 23 33 34
f 23 34 24
f 25 35 26
f 26 35 36
f 26 36 37
f 26 37 38
f 26 38 39
f 26 39 27
f 27 39 40
f 27 40 41
f 27 41 42
f 27 42 30
f 27 30 43
f 27 43 28
f 28 43 30
f 28 30 29
f 30 42 44
f 30 44 45
f 30 45 31
f 31 45 46
f 31 46 32
f 32 46 47
f 33 48 49
f 33 49 50
f 33 50 34
f 34 50 51
f 34 51 52
f 34 52 53
f 34 53 54
f 35 55 36
f 36 55 56
f 36 56 57
f 36 57 37
f 37 57 58
f 37 58 38
f 38 58 59
f 38 59 39
f 39 59 40
f 40 59 42
f 40 42 41
f 42 59 60
f 42 60 61
f 42 61 44
f 44 61 62
f 44 62 63
f 44 63 45
f 45 63 46
f 46 63 64
f 46 64 65
f 46 65 66
f 46 66 67
f 46 67 47
f 48 68 69
f 48 69 49
f 49 69 70
f 49 70 71
f 49 71 72
f 49 72 73
f 49 73 50
f 50 73 74
f 50 74 75
f 50 75 52
f 50 52 51
f 52 75 53
f 53 76 54
f 53 75 77
f 53 77 76
f 55 78 56
f 56 79 60
f 56 60 80
f 56 80 58
f 56 58 57
f 56 78 81
f 56 81 79
f 58 80 59
f 59 80 60
f 60 82 83
f 60 83 86
f 60 86 61
f 60 79 84
f 60 84 85
f 60 85 82
f 61 86 87
f 61 87 62
f 62 87 88
f 62 88 89
f 62 89 63
f 63 89 88
f 63 88 90
f 63 90 91
f 63 91 64
f 64 91 92
f 64 92 93
f 64 93 65
f 65 93 66
f 66 93 94
f 66 94 120
f 66 120 95
f 66 95 67
f 68 96 122
f 68 122 97
f 68 97 69
f 69 97 98
f 69 98 70
f 70 98 71
f 71 98 99
f 71 99 72
f 72 99 100
f 72 100 101
f 72 101 73
f 73 101 102
f 73 102 74
f 74 103 75
f 74 102 104
f 74 104 103
f 75 103 104
f 75 104 105
f 75 105 77
f 76 77 105
f 76 105 106
f 78 107 84
f 78 84 81
f 79 81 84
f 82 85 108
f 82 108 109
f 82 109 83
f 83 109 86
f 84 110 111
f 84 111 85
f 84 107 112
f 84 112 113
f 84 113 110
f 85 114 108
f 85 111 115
f 85 115 116
f 85 116 114
f 86 109 87
f 87 109 117
f 87 117 90
f 87 90 88
f 90 117 118
f 90 118 119
f 90 119 91
f 91 119 92
f 92 119 120
f 92 120 94
f 92 94 93
f 95 120 119
f 95 119 121
f 96 123 122
f 97 122 124
f 97 124 98
f 98 124 99
f 99 125 126
f 99 126 100
f 99 124 125
f 100 126 127
f 100 127 102
f 100 102 101
f 102 127 128
f 102 128 129
f 102 129 104
f 104 129 159
f 104 159 130
f 104 130 131
f 104 131 105
f 105 132 106
f 105 131 132
f 106 133 161
f 106 161 134
f 106 132 133
f 108 114 116
f 108 116 135
f 108 135 136
f 108 136 137
f 108 137 109
f 109 137 138
f 109 138 139
f 109 139 140
f 109 140 117
f 110 135 115
f 110 115 111
f 110 113 141
f 110 141 112
f 110 112 142
f 110 142 143
f 110 143 144
f 110 144 145
f 110 145 135
f 112 141 113
f 112 146 147
f 112 147 142
f 115 135 116
f 117 140 118
f 118 140 119
f 119 140 148
f 119 148 149
f 119 149 150
f 119 150 121
f 122 123 151
f 122 151 124
f 123 152 151
f 123 153 152
f 124 151 125
f 125 154 126
f 125 151 155
f 125 155 154
f 126 154 127
f 127 156 157
f 127 157 129
f 127 129 128
f 127 154 156
f 129 157 158
f 129 158 159
f 130 159 185
f 130 185 160
f 130 160 132
f 130 132 131
f 132 160 133
f 133 160 185
f 133 185 161
f 134 161 186
f 134 186 162
f 135 163 164
f 135 164 136
f 135 145 147
f 135 147 165
f 135 165 166
f 135 166 167
f 135 167 168
f 135 168 169
f 135 169 163
f 136 164 170
f 136 170 137
f 137 170 171
f 137 171 172
f 137 172 138
f 138 172 139
f 139 173 140
f 139 172 173
f 140 173 148
f 142 145 143
f 142 147 145
f 143 145 144
f 146 174 147
f 147 174 165
f 148 173 175
f 148 175 149
f 149 175 150
f 151 152 176
f 151 176 177
f 151 177 155
f 152 153 178
f 152 178 176
f 154 155 177
f 154 177 179
f 154 179 180
f 154 180 156
f 156 180 181
f 156 181 182
f 156 182 183
f 156 183 157
f 157 183 158
f 158 183 184
f 158 184 185
f 158 185 159
f 161 185 184
f 161 184 187
f 161 187 186
f 162 186 189
f 162 189 188
f 163 169 190
f 163 190 191
f 163 191 164
f 164 191 192
f 164 192 170
f 165 193 190
f 165 190 166
f 166 190 167
f 167 190 168
f 168 190 169
f 170 192 171
f 171 192 194
f 171 194 195
f 171 195 172
f 172 196 173
f 172 195 197
f 172 197 198
f 172 198 196
f 173 196 199
f 173 199 175
f 175 199 200
f 176 179 177
f 176 178 201
f 176 201 202
f 176 202 179
f 178 203 201
f 178 204 203
f 179 202 180
f 180 202 205
f 180 205 206
f 180 206 207
f 180 207 181
f 181 208 182
f 181 207 209
f 181 209 210
f 181 210 211
f 181 211 208
f 182 208 212
f 182 212 213
f 182 213 189
f 182 189 183
f 183 189 214
f 183 214 187
f 183 187 184
f 186 187 189
f 187 214 215
f 187 215 189
f 188 189 216
f 188 216 217
f 188 217 218
f 188 218 219
f 189 215 214
f 189 213 220
f 189 220 216
f 190 193 221
f 190 221 222
f 190 222 223
f 190 223 191
f 191 223 224
f 191 224 225
f 191 225 226
f 191 226 192
f 192 226 227
f 192 227 194
f 194 227 195
f 195 227 228
f 195 228 197
f 196 198 229
f 196 229 199
f 197 228 230
f 197 230 198
f 198 230 229
f 199 229 231
f 199 231 232
f 199 232 200
f 201 203 233
f 201 233 234
f 201 234 235
f 201 235 202
f 202 235 205
f 203 236 237
f 203 237 233
f 203 204 238
f 203 238 236
f 205 235 234
f 205 234 206
f 206 234 239
f 206 239 207
f 207 239 240
f 207 240 241
f 207 241 209
f 208 211 242
f 208 242 243
f 208 243 212
f 209 241 210
f 210 241 211
f 211 241 244
f 211 244 242
f 212 243 242
f 212 242 216
f 212 216 213
f 213 216 220
f 216 242 245
f 216 245 246
f 216 246 217
f 217 246 245
f 217 245 218
f 218 247 219
f 218 245 247
f 221 248 222
f 222 248 249
f 222 249 223
f 223 249 224
f 224 249 250
f 224 250 225
f 225 250 226
f 226 250 251
f 226 251 252
f 226 252 253
f 226 253 227
f 227 253 254
f 227 254 255
f 227 255 228
f 228 256 230
f 228 255 257
f 228 257 256
f 229 230 256
f 229 256 258
f 229 258 259
f 229 259 231
f 231 259 232
f 233 237 260
f 233 260 234
f 234 260 261
f 234 261 262
f 234 262 263
f 234 263 239
f 236 238 264
f 236 264 237
f 237 264 265
f 237 265 260
f 239 263 266
f 239 266 267
f 239 267 240
f 240 267 268
f 240 268 241
f 241 268 269
f 241 269 244
f 242 244 270
f 242 270 271
f 242 271 272
f 242 272 273
f 242 273 247
f 242 247 245
f 244 269 274
f 244 274 270
f 247 273 275
f 249 276 277
f 249 277 250
f 250 277 276
f 250 276 278
f 250 278 279
f 250 279 280
f 250 280 281
f 250 281 282
f 250 282 283
f 250 283 251
f 251 283 252
f 252 254 253
f 252 283 284
f 252 284 254
f 254 284 285
f 254 285 286
f 254 286 255
f 255 287 257
f 255 286 288
f 255 288 287
f 256 257 287
f 256 287 289
f 256 289 258
f 258 289 259
f 259 289 290
f 259 290 291
f 260 265 292
f 260 292 261
f 261 292 293
f 261 293 262
f 262 293 263
f 263 293 294
f 263 294 266
f 264 295 296
f 264 296 265
f 265 296 295
f 265 295 297
f 265 297 319
f 265 319 292
f 266 294 298
f 266 298 267
f 267 298 299
f 267 299 268
f 268 299 269
f 269 299 300
f 269 300 301
f 269 301 302
f 269 302 274
f 270 274 271
f 271 274 272
f 272 274 273
f 273 274 303
f 273 303 304
f 273 304 275
f 274 302 305
f 274 305 306
f 274 306 303
f 278 307 279
f 279 307 280
f 280 307 281
f 281 307 282
f 282 307 283
f 283 307 308
f 283 308 309
f 283 309 284
f 284 309 285
f 285 309 310
f 285 310 311
f 285 311 286
f 286 311 315
f 286 315 288
f 287 288 312
f 287 312 313
f 287 313 314
f 287 314 289
f 288 315 316
f 288 316 340
f 288 340 312
f 289 314 290
f 290 317 291
f 290 314 345
f 290 345 317
f 291 317 318
f 292 319 320
f 292 320 293
f 293 320 321
f 293 321 322
f 293 322 294
f 294 322 323
f 294 323 298
f 295 324 297
f 297 325 326
f 297 326 327
f 297 327 328
f 297 328 319
f 297 324 325
f 298 323 329
f 298 329 330
f 298 330 331
f 298 331 299
f 299 331 332
f 299 332 300
f 300 332 301
f 301 305 302
f 301 332 305
f 303 306 333
f 303 333 304
f 305 332 334
f 305 334 306
f 306 334 335
f 306 335 333
f 307 336 308
f 308 336 337
f 308 337 309
f 309 337 310
f 310 337 311
f 311 337 338
f 311 338 315
f 312 339 313
f 312 340 339
f 313 339 340
f 313 340 314
f 314 340 341
f 314 341 342
f 314 342 343
f 314 343 344
f 314 344 345
f 315 338 346
f 315 346 316
f 316 346 347
f 316 347 371
f 316 371 340
f 317 345 348
f 317 348 318
f 319 328 320
f 320 328 349
f 320 349 350
f 320 350 351
f 320 351 321
f 321 351 352
f 321 352 322
f 322 352 323
f 323 352 353
f 323 353 354
f 323 354 329
f 324 355 325
f 325 355 326
f 326 356 327
f 326 357 356
f 327 356 358
f 327 358 359
f 327 359 328
f 328 359 360
f 328 360 378
f 328 378 349
f 329 354 361
f 329 361 330
f 330 361 331
f 331 361 332
f 332 361 362
f 332 362 363
f 332 363 364
f 332 364 365
f 332 365 366
f 332 366 367
f 332 367 334
f 334 367 365
f 336 368 337
f 337 368 369
f 337 369 338
f 338 369 370
f 338 370 346
f 340 371 372
f 340 372 341
f 341 372 342
f 342 372 373
f 342 373 375
f 342 375 343
f 343 374 344
f 343 375 374
f 344 374 345
f 345 376 348
f 345 374 376
f 346 370 347
f 347 370 371
f 348 376 377
f 349 378 379
f 349 379 350
f 350 379 380
f 350 380 351
f 351 380 381
f 351 381 382
f 351 382 352
f 352 382 353
f 353 382 383
f 353 383 384
f 353 384 354
f 354 384 391
f 354 391 361
f 356 357 385
f 356 385 358
f 358 386 404
f 358 404 387
f 358 387 388
f 358 388 359
f 358 385 386
f 359 388 389
f 359 389 360
f 360 389 390
f 360 390 378
f 361 391 392
f 361 392 362
f 362 392 363
f 363 392 364
f 364 392 365
f 365 367 366
f 370 393 394
f 370 394 372
f 370 372 371
f 372 394 373
f 373 394 375
f 374 375 395
f 374 395 396
f 374 396 376
f 375 394 395
f 376 396 397
f 376 397 377
f 378 390 379
f 379 390 398
f 379 398 399
f 379 399 380
f 380 399 381
f 381 399 400
f 381 400 401
f 381 401 382
f 382 401 402
f 382 402 383
f 383 402 384
f 384 402 391
f 386 403 408
f 386 408 404
f 387 404 408
f 387 408 395
f 387 405 406
f 387 406 388
f 388 406 389
f 389 406 390
f 390 406 405
f 390 405 398
f 391 402 392
f 392 402 407
f 393 395 394
f 395 408 403
f 395 403 396
f 396 403 397
f 398 405 399
f 399 405 400
f 400 405 401
f 401 405 402
f 402 405 407
