# https://github.com/mikedh/trimesh
v 0.04792692 -0.03997323 -0.03670503
v 0.04792692 -0.04062378 -0.03663245
v 0.04727549 -0.03997323 -0.03669535
v 0.04792692 -0.03087478 -0.03670503
v 0.05442559 -0.03997323 -0.03670503
v 0.04987730 -0.04062378 -0.03662761
v 0.04792692 -0.04104961 -0.03646552
v 0.04727549 -0.04104653 -0.03646069
v 0.04727549 -0.04062378 -0.03662277
v 0.05702740 -0.03997323 -0.03670261
v 0.05833025 -0.03997323 -0.03670019
v 0.04727549 -0.03087478 -0.03669535
v 0.04662797 -0.04062378 -0.03656713
v 0.04662797 -0.03997323 -0.03663729
v 0.07970253 -0.03087478 -0.03670503
v 0.07970253 -0.03867316 -0.03670503
v 0.05117625 -0.04062378 -0.03662277
v 0.04922587 -0.04104756 -0.03646310
v 0.04987730 -0.04124970 -0.03604699
v 0.04857445 -0.04125278 -0.03604699
v 0.04792692 -0.04125381 -0.03604699
v 0.04727549 -0.04125073 -0.03604699
v 0.04693223 -0.04123534 -0.03604699
v 0.04662797 -0.04122199 -0.03604457
v 0.04693223 -0.04103217 -0.03644859
v 0.04662797 -0.04101883 -0.03643407
v 0.07197122 -0.03932473 -0.03669052
v 0.07970253 -0.03932473 -0.03665907
v 0.06157569 -0.03997323 -0.03668084
v 0.04662797 -0.03087478 -0.03663729
v 0.04620279 -0.04097983 -0.03639778
v 0.04598044 -0.04059915 -0.03643649
v 0.04597654 -0.03997323 -0.03649939
v 0.07970253 -0.03087478 -0.01756617
v 0.05312664 -0.04062378 -0.03661068
v 0.05117625 -0.04103935 -0.03645584
v 0.05052483 -0.04104242 -0.03645827
v 0.05052483 -0.04124662 -0.03604699
v 0.05702740 -0.04135128 -0.03539379
v 0.05572845 -0.04135436 -0.03539379
v 0.05312664 -0.04135744 -0.03539862
v 0.04727549 -0.04135744 -0.03539862
v 0.04662797 -0.04135539 -0.03539620
v 0.04597654 -0.04134820 -0.03539620
v 0.04598044 -0.04112349 -0.03608570
v 0.04532511 -0.04130306 -0.03539620
v 0.07970253 -0.03986036 -0.03651391
v 0.06807046 -0.03997323 -0.03662036
v 0.06612787 -0.03997323 -0.03664213
v 0.06482892 -0.03997323 -0.03665423
v 0.06287854 -0.03997323 -0.03667116
v 0.04597654 -0.03087478 -0.03649939
v 0.04532511 -0.04109989 -0.03591635
v 0.04485312 -0.04102601 -0.03580506
v 0.04576980 -0.04079821 -0.03633246
v 0.04562157 -0.04036520 -0.03638327
v 0.04560597 -0.03997323 -0.03639052
v 0.07970253 -0.03932473 -0.01756617
v 0.07348862 -0.03087478 -0.01305665
v 0.05431637 -0.04062378 -0.03659859
v 0.05247521 -0.04103012 -0.03644859
v 0.05182378 -0.04103319 -0.03645343
v 0.05312664 -0.04122918 -0.03604699
v 0.05182378 -0.04123841 -0.03604699
v 0.06027673 -0.04133487 -0.03539379
v 0.07970253 -0.04130203 -0.03474542
v 0.07970253 -0.04135539 -0.03409464
v 0.07717093 -0.04135744 -0.03409464
v 0.04532511 -0.04135744 -0.03474784
v 0.04402616 -0.04135539 -0.03409706
v 0.04467759 -0.04134410 -0.03474784
v 0.04337863 -0.04132666 -0.03409706
v 0.04207578 -0.04130203 -0.03344869
v 0.04402616 -0.04127432 -0.03474784
v 0.04465028 -0.04114811 -0.03543491
v 0.07970253 -0.03993013 -0.03649455
v 0.05637597 -0.04062378 -0.03657439
v 0.04560597 -0.03087478 -0.03639052
v 0.04402616 -0.04107116 -0.03523653
v 0.04362828 -0.04099112 -0.03511557
v 0.04441623 -0.04079514 -0.03567684
v 0.04537192 -0.04059915 -0.03621875
v 0.04465028 -0.04059608 -0.03586071
v 0.04433042 -0.04036110 -0.03573490
v 0.04527830 -0.03997323 -0.03625021
v 0.07348862 -0.03997323 -0.01305665
v 0.07970253 -0.03997323 -0.01756859
v 0.07316095 -0.03087478 -0.01283650
v 0.07316485 -0.03997323 -0.01283650
v 0.05377806 -0.04122199 -0.03604699
v 0.05431637 -0.04101267 -0.03643165
v 0.05312664 -0.04102498 -0.03644133
v 0.05637597 -0.04119018 -0.03604457
v 0.05442559 -0.04121584 -0.03604457
v 0.06612787 -0.04127843 -0.03539379
v 0.06417359 -0.04129895 -0.03539379
v 0.06287854 -0.04131229 -0.03539379
v 0.07970253 -0.04109886 -0.03537685
v 0.07970253 -0.04135744 -0.03344627
v 0.04207578 -0.04135744 -0.03279791
v 0.04078072 -0.04135539 -0.03214712
v 0.04272721 -0.04135128 -0.03344869
v 0.04142825 -0.04134102 -0.03279791
v 0.04012930 -0.04132255 -0.03214712
v 0.04078072 -0.04126304 -0.03279791
v 0.04207578 -0.04109886 -0.03399061
v 0.07970253 -0.04025541 -0.03634698
v 0.05833025 -0.04062378 -0.03654536
v 0.05572845 -0.04099831 -0.03641714
v 0.04527830 -0.03087478 -0.03625021
v 0.04078072 -0.04106090 -0.03326724
v 0.04161939 -0.04101883 -0.03385029
v 0.04039845 -0.04098291 -0.03315354
v 0.04240344 -0.04094597 -0.03442124
v 0.04431872 -0.03997323 -0.03573974
v 0.04467759 -0.03997323 -0.03594538
v 0.04110058 -0.04030466 -0.03377287
v 0.07310634 -0.04062378 -0.01287520
v 0.07343011 -0.04062378 -0.01310020
v 0.07970253 -0.04016511 -0.01757827
v 0.07262264 -0.03087478 -0.01253409
v 0.07262264 -0.03087786 -0.01253409
v 0.07262264 -0.03997323 -0.01253651
v 0.05442559 -0.04101267 -0.03642923
v 0.05702740 -0.04117993 -0.03604457
v 0.07970253 -0.04093776 -0.03570103
v 0.05767883 -0.04116864 -0.03604457
v 0.07970253 -0.04135744 -0.01915563
v 0.04012930 -0.04135744 -0.03149634
v 0.03985234 -0.04135231 -0.03149634
v 0.03985234 -0.04125996 -0.03216648
v 0.04016050 -0.04110605 -0.03280032
v 0.07970253 -0.04057350 -0.03605909
v 0.05932495 -0.04094905 -0.03637117
v 0.05833025 -0.04096342 -0.03638569
v 0.05767883 -0.04097368 -0.03639295
v 0.05637597 -0.04099112 -0.03640746
v 0.05897778 -0.04114401 -0.03604457
v 0.04467759 -0.03087478 -0.03594538
v 0.03985234 -0.04106808 -0.03268178
v 0.03985234 -0.04063301 -0.03292855
v 0.04030483 -0.04062378 -0.03321160
v 0.04399495 -0.03087478 -0.03554378
v 0.04431872 -0.03087478 -0.03573974
v 0.03985234 -0.03997323 -0.03301322
v 0.03985234 -0.04045857 -0.03295274
v 0.07301272 -0.04099112 -0.01293569
v 0.07262264 -0.04062378 -0.01261634
v 0.07970253 -0.04065456 -0.01765327
v 0.07970253 -0.04059197 -0.01763875
v 0.07223257 -0.03087478 -0.01235022
v 0.07223257 -0.03347698 -0.01235022
v 0.07223257 -0.03997323 -0.01235264
v 0.07970253 -0.04061352 -0.03602279
v 0.07970253 -0.04131332 -0.01850485
v 0.07912131 -0.04134820 -0.01850485
v 0.07262264 -0.04135539 -0.01395420
v 0.07327017 -0.04135744 -0.01460256
v 0.03985234 -0.04135744 -0.03084797
v 0.03985234 -0.03087478 -0.03301322
v 0.07324677 -0.04110297 -0.01330584
v 0.07373437 -0.04103217 -0.01352357
v 0.07970253 -0.04111015 -0.01795084
v 0.07168646 -0.04096547 -0.01231635
v 0.07262264 -0.04106705 -0.01283650
v 0.07213115 -0.04062378 -0.01239377
v 0.07190880 -0.03087478 -0.01224136
v 0.07190880 -0.03087786 -0.01224136
v 0.07190491 -0.03997323 -0.01224136
v 0.07180738 -0.04062378 -0.01227523
v 0.07327017 -0.04131640 -0.01395420
v 0.07392160 -0.04133384 -0.01460256
v 0.07262264 -0.04126817 -0.01330341
v 0.07197122 -0.04133794 -0.01330341
v 0.07131979 -0.04135539 -0.01330341
v 0.07067227 -0.04135744 -0.01330341
v 0.03985234 -0.04135744 -0.02175393
v 0.03985234 -0.03087478 -0.01987174
v 0.07192831 -0.04110605 -0.01263086
v 0.07131979 -0.04062378 -0.01215910
v 0.07131979 -0.04100446 -0.01227765
v 0.07131979 -0.03087478 -0.01208894
v 0.07131979 -0.03997323 -0.01208894
v 0.07131979 -0.04120763 -0.01265263
v 0.07067227 -0.04125278 -0.01265263
v 0.07002084 -0.04125585 -0.01265263
v 0.07002084 -0.04135744 -0.01330341
v 0.03985234 -0.04134820 -0.02110315
v 0.06937331 -0.04135539 -0.01330341
v 0.03985234 -0.03958126 -0.01987900
v 0.06872188 -0.03932473 -0.01221232
v 0.06872188 -0.03672357 -0.01221232
v 0.06872188 -0.03087478 -0.01221474
v 0.07067227 -0.03997323 -0.01199943
v 0.07067227 -0.04062378 -0.01207201
v 0.07067227 -0.04104961 -0.01223652
v 0.07067227 -0.03087478 -0.01200185
v 0.07067227 -0.03737309 -0.01199943
v 0.07002084 -0.04105064 -0.01223168
v 0.06937331 -0.04122199 -0.01265263
v 0.06872188 -0.04134820 -0.01330341
v 0.03985234 -0.04118300 -0.02043785
v 0.03985234 -0.03997323 -0.01988141
v 0.06872188 -0.03997323 -0.01221474
v 0.06937331 -0.03997323 -0.01206233
v 0.06937331 -0.03087478 -0.01206233
v 0.07002084 -0.03997323 -0.01199217
v 0.07002084 -0.04062378 -0.01206475
v 0.07002084 -0.03087478 -0.01199217
v 0.06937331 -0.04101883 -0.01226555
v 0.06873359 -0.04112349 -0.01261634
v 0.03985234 -0.04099523 -0.02008221
v 0.03985234 -0.04062378 -0.01995641
v 0.06838252 -0.04033339 -0.01232119
v 0.06873359 -0.04058068 -0.01226797
v 0.06937331 -0.04062378 -0.01213249
v 0.06895983 -0.04097778 -0.01230426
f 1 2 9
f 1 9 3
f 1 3 12
f 1 12 4
f 1 4 15
f 1 15 16
f 1 16 5
f 1 5 2
f 2 6 7
f 2 7 8
f 2 8 9
f 2 5 10
f 2 10 11
f 2 11 6
f 3 9 13
f 3 13 14
f 3 14 30
f 3 30 12
f 4 12 30
f 4 30 52
f 4 52 78
f 4 78 110
f 4 110 139
f 4 139 144
f 4 144 143
f 4 143 160
f 4 160 178
f 4 178 193
f 4 193 206
f 4 206 209
f 4 209 197
f 4 197 182
f 4 182 167
f 4 167 151
f 4 151 121
f 4 121 88
f 4 88 59
f 4 59 34
f 4 34 15
f 5 16 10
f 6 17 18
f 6 18 7
f 6 11 17
f 7 18 19
f 7 19 20
f 7 20 21
f 7 21 22
f 7 22 8
f 8 22 23
f 8 23 24
f 8 24 25
f 8 25 9
f 9 25 26
f 9 26 13
f 10 16 11
f 11 16 27
f 11 27 28
f 11 28 29
f 11 29 17
f 13 26 31
f 13 31 32
f 13 32 14
f 14 32 33
f 14 33 52
f 14 52 30
f 15 34 58
f 15 58 87
f 15 87 120
f 15 120 150
f 15 150 149
f 15 149 163
f 15 163 155
f 15 155 128
f 15 128 99
f 15 99 67
f 15 67 66
f 15 66 98
f 15 98 126
f 15 126 154
f 15 154 133
f 15 133 107
f 15 107 76
f 15 76 47
f 15 47 28
f 15 28 16
f 16 28 27
f 17 35 36
f 17 36 37
f 17 37 18
f 17 29 35
f 18 37 38
f 18 38 19
f 19 38 39
f 19 39 40
f 19 40 20
f 20 40 21
f 21 40 41
f 21 41 42
f 21 42 43
f 21 43 22
f 22 43 44
f 22 44 23
f 23 44 24
f 24 45 26
f 24 26 25
f 24 44 46
f 24 46 45
f 26 45 31
f 28 47 48
f 28 48 49
f 28 49 50
f 28 50 51
f 28 51 29
f 29 51 35
f 31 45 53
f 31 53 54
f 31 54 55
f 31 55 32
f 32 55 56
f 32 56 33
f 33 56 57
f 33 57 78
f 33 78 52
f 34 59 86
f 34 86 58
f 35 60 61
f 35 61 62
f 35 62 36
f 35 51 50
f 35 50 49
f 35 49 60
f 36 62 61
f 36 61 63
f 36 63 64
f 36 64 37
f 37 64 38
f 38 64 65
f 38 65 39
f 39 65 66
f 39 66 67
f 39 67 40
f 40 67 41
f 41 67 68
f 41 68 99
f 41 99 128
f 41 128 158
f 41 158 176
f 41 176 187
f 41 187 177
f 41 177 159
f 41 159 129
f 41 129 100
f 41 100 69
f 41 69 42
f 42 69 43
f 43 69 44
f 44 69 70
f 44 70 102
f 44 102 71
f 44 71 46
f 45 46 53
f 46 71 72
f 46 72 73
f 46 73 74
f 46 74 75
f 46 75 53
f 47 76 48
f 48 77 60
f 48 60 49
f 48 76 77
f 53 75 54
f 54 75 79
f 54 79 80
f 54 80 81
f 54 81 82
f 54 82 55
f 55 82 56
f 56 82 83
f 56 83 84
f 56 84 85
f 56 85 57
f 57 85 110
f 57 110 78
f 58 86 87
f 59 88 89
f 59 89 86
f 60 77 61
f 61 90 63
f 61 77 91
f 61 91 92
f 61 92 93
f 61 93 94
f 61 94 90
f 63 90 94
f 63 94 95
f 63 95 96
f 63 96 97
f 63 97 65
f 63 65 64
f 65 97 66
f 66 97 96
f 66 96 95
f 66 95 98
f 67 99 68
f 69 100 70
f 70 100 101
f 70 101 102
f 71 102 103
f 71 103 72
f 72 103 104
f 72 104 73
f 73 104 105
f 73 105 74
f 74 105 106
f 74 106 75
f 75 106 79
f 76 107 108
f 76 108 77
f 77 108 109
f 77 109 91
f 79 106 111
f 79 111 112
f 79 112 80
f 80 112 113
f 80 113 114
f 80 114 81
f 81 84 83
f 81 83 82
f 81 114 84
f 84 115 116
f 84 116 85
f 84 114 117
f 84 117 115
f 85 116 139
f 85 139 110
f 86 89 118
f 86 118 119
f 86 119 120
f 86 120 87
f 88 121 89
f 89 121 122
f 89 122 123
f 89 123 118
f 91 109 124
f 91 124 92
f 92 124 93
f 93 95 94
f 93 124 125
f 93 125 98
f 93 98 95
f 98 125 127
f 98 127 126
f 100 129 101
f 101 103 102
f 101 129 130
f 101 130 104
f 101 104 103
f 104 130 131
f 104 131 105
f 105 131 132
f 105 132 106
f 106 132 111
f 107 133 134
f 107 134 135
f 107 135 136
f 107 136 109
f 107 109 108
f 109 137 126
f 109 126 138
f 109 138 127
f 109 127 125
f 109 125 124
f 109 136 137
f 111 113 112
f 111 132 140
f 111 140 113
f 113 140 141
f 113 141 114
f 114 141 142
f 114 142 117
f 115 143 144
f 115 144 139
f 115 139 116
f 115 117 145
f 115 145 143
f 117 142 141
f 117 141 146
f 117 146 145
f 118 147 119
f 118 123 148
f 118 148 147
f 119 147 149
f 119 149 150
f 119 150 120
f 121 151 152
f 121 152 122
f 122 152 123
f 123 152 153
f 123 153 148
f 126 127 138
f 126 137 136
f 126 136 135
f 126 135 134
f 126 134 154
f 128 155 156
f 128 156 157
f 128 157 158
f 129 159 130
f 130 159 177
f 130 177 188
f 130 188 202
f 130 202 212
f 130 212 213
f 130 213 203
f 130 203 190
f 130 190 178
f 130 178 160
f 130 160 145
f 130 145 146
f 130 146 141
f 130 141 140
f 130 140 131
f 131 140 132
f 133 154 134
f 143 145 160
f 147 161 162
f 147 162 163
f 147 163 149
f 147 148 164
f 147 164 165
f 147 165 161
f 148 153 166
f 148 166 164
f 151 167 168
f 151 168 152
f 152 168 169
f 152 169 153
f 153 169 170
f 153 170 166
f 155 171 172
f 155 172 156
f 155 163 173
f 155 173 171
f 156 172 157
f 157 174 175
f 157 175 176
f 157 176 158
f 157 172 174
f 161 163 162
f 161 165 173
f 161 173 163
f 164 179 165
f 164 166 170
f 164 170 180
f 164 180 181
f 164 181 179
f 165 179 173
f 167 182 183
f 167 183 168
f 168 183 169
f 169 183 170
f 170 183 180
f 171 173 174
f 171 174 172
f 173 179 184
f 173 184 174
f 174 184 185
f 174 185 175
f 175 185 186
f 175 186 176
f 176 186 187
f 177 187 189
f 177 189 188
f 178 190 191
f 178 191 192
f 178 192 193
f 179 181 184
f 180 183 194
f 180 194 195
f 180 195 181
f 181 195 196
f 181 196 184
f 182 197 198
f 182 198 194
f 182 194 183
f 184 196 185
f 185 199 186
f 185 196 199
f 186 199 200
f 186 200 201
f 186 201 189
f 186 189 187
f 188 189 201
f 188 201 202
f 190 203 204
f 190 204 191
f 191 204 205
f 191 205 206
f 191 206 192
f 192 206 193
f 194 198 209
f 194 209 207
f 194 207 208
f 194 208 195
f 195 208 196
f 196 208 199
f 197 209 198
f 199 208 210
f 199 210 200
f 200 210 211
f 200 211 202
f 200 202 201
f 202 211 212
f 203 213 214
f 203 214 204
f 204 214 205
f 205 214 215
f 205 215 216
f 205 216 207
f 205 207 209
f 205 209 206
f 207 216 208
f 208 216 210
f 210 216 217
f 210 217 211
f 211 217 212
f 212 217 213
f 213 217 215
f 213 215 214
f 215 217 216
