# https://github.com/mikedh/trimesh
v 0.08178016 -0.01997515 0.00215102
v 0.08178016 -0.02372382 0.00215102
v 0.07905725 -0.01997515 0.00215102
v 0.08146904 -0.01672556 0.00499198
v 0.08176847 -0.01997515 0.00230459
v 0.08177549 -0.02437449 0.00215102
v 0.08176847 -0.02372382 0.00230459
v 0.08176613 -0.02439249 0.00230459
v 0.07845839 -0.01672556 0.00499198
v 0.07905491 -0.02439249 0.00215102
v 0.05788211 -0.01699273 0.02872068
v 0.08146904 -0.01997440 0.00499198
v 0.08157431 -0.01997515 0.00425544
v 0.08165150 -0.01997515 0.00360421
v 0.08171700 -0.01997515 0.00295582
v 0.08141524 -0.01672556 0.00533324
v 0.08177314 -0.02438799 0.00215102
v 0.08171700 -0.02372382 0.00295582
v 0.08171232 -0.02439249 0.00295582
v 0.08113686 -0.02439249 0.00215102
v 0.07344064 -0.01672556 0.01722034
v 0.06249751 -0.01674057 0.02674424
v 0.06938200 -0.02439249 0.02217709
v 0.05927632 -0.02439174 0.02831686
v 0.05809966 -0.01997515 0.02872068
v 0.05927632 -0.02439174 0.03119763
v 0.05927632 -0.02372382 0.03120048
v 0.05927632 -0.01997515 0.03120332
v 0.06493504 -0.01699273 0.02872068
v 0.08148073 -0.02372382 0.00490382
v 0.08157431 -0.02372382 0.00425544
v 0.08141524 -0.02372382 0.00533324
v 0.08165150 -0.02372382 0.00360421
v 0.08135909 -0.01672556 0.00565743
v 0.08140354 -0.01997515 0.00540718
v 0.08164682 -0.02439249 0.00360421
v 0.07344064 -0.01672556 0.02194958
v 0.06806732 -0.01674057 0.02674424
v 0.06938200 -0.02439249 0.02505217
v 0.05961786 -0.02439174 0.03108104
v 0.05962721 -0.02437449 0.03107819
v 0.05962721 -0.02372382 0.03108388
v 0.06977031 -0.02439249 0.02544177
v 0.05962721 -0.01997515 0.03108388
v 0.06012782 -0.01997515 0.03090472
v 0.06027753 -0.01997515 0.03085069
v 0.06081089 -0.01997515 0.03065162
v 0.06113838 -0.01997515 0.03052649
v 0.06157817 -0.01997515 0.03034733
v 0.06222849 -0.01997515 0.03006864
v 0.06255833 -0.01997515 0.02992361
v 0.06288349 -0.01997515 0.02977289
v 0.06352679 -0.01997515 0.02946291
v 0.06388002 -0.01997515 0.02928660
v 0.06420518 -0.01997515 0.02911881
v 0.06493971 -0.01917513 0.02872068
v 0.06513387 -0.01699273 0.02861262
v 0.08147606 -0.02439249 0.00492089
v 0.08141524 -0.02437449 0.00532186
v 0.08156963 -0.02439249 0.00425544
v 0.08135909 -0.01997440 0.00565743
v 0.08135675 -0.02372382 0.00565743
v 0.08135675 -0.02437449 0.00564890
v 0.08133570 -0.01672556 0.00578540
v 0.06828488 -0.01674057 0.02658783
v 0.06904748 -0.01674057 0.02602191
v 0.06929310 -0.01674057 0.02582853
v 0.06978201 -0.01674057 0.02543893
v 0.07010249 -0.01674057 0.02517161
v 0.07048848 -0.01674057 0.02484742
v 0.07073176 -0.01674057 0.02463129
v 0.07117388 -0.01674057 0.02423315
v 0.07149904 -0.01674057 0.02393171
v 0.07183824 -0.01674057 0.02360752
v 0.07216106 -0.01674057 0.02329186
v 0.07240434 -0.01674057 0.02305014
v 0.07280903 -0.01675858 0.02262925
v 0.07311548 -0.01675858 0.02230506
v 0.07343830 -0.01675858 0.02195243
v 0.07366521 -0.01672556 0.02169649
v 0.06547540 -0.01699273 0.02841639
v 0.06601110 -0.01699273 0.02810073
v 0.06633626 -0.01699273 0.02790166
v 0.06677604 -0.01699273 0.02762581
v 0.06716904 -0.01699273 0.02736987
v 0.06749654 -0.01699273 0.02714805
v 0.06796206 -0.01722538 0.02682386
v 0.06806265 -0.01699273 0.02674992
v 0.06027753 -0.02439174 0.03084784
v 0.06027753 -0.02372382 0.03085353
v 0.06977967 -0.02439249 0.02543608
v 0.06600876 -0.02439174 0.02810073
v 0.06547540 -0.02439174 0.02841355
v 0.06513153 -0.02439174 0.02860977
v 0.06480871 -0.02439174 0.02878893
v 0.06418880 -0.02439174 0.02912450
v 0.06387768 -0.02439174 0.02928375
v 0.06352913 -0.02439174 0.02945722
v 0.06281331 -0.02439174 0.02980132
v 0.06255365 -0.02439174 0.02992076
v 0.06229165 -0.02439174 0.03003736
v 0.06157817 -0.02439174 0.03034165
v 0.06112201 -0.02439174 0.03052934
v 0.06080621 -0.02439174 0.03065162
v 0.06027753 -0.02242398 0.03085353
v 0.06081089 -0.02372382 0.03065162
v 0.06113838 -0.02372382 0.03052649
v 0.06157817 -0.02372382 0.03034733
v 0.06222849 -0.02372382 0.03006864
v 0.06255833 -0.02242398 0.02992361
v 0.06288349 -0.02372382 0.02977289
v 0.06352679 -0.02177481 0.02946291
v 0.06388002 -0.02372382 0.02928660
v 0.06420518 -0.02372382 0.02911881
v 0.06481105 -0.02242398 0.02879177
v 0.06513621 -0.01917513 0.02861262
v 0.08141290 -0.02439249 0.00532186
v 0.08135675 -0.02439249 0.00564606
v 0.08125850 -0.02177481 0.00620344
v 0.08125617 -0.02437449 0.00620344
v 0.08125850 -0.01672556 0.00620344
v 0.06904982 -0.01722613 0.02602191
v 0.06828488 -0.01787605 0.02659067
v 0.06937498 -0.02112489 0.02576596
v 0.06978201 -0.01997440 0.02543893
v 0.07010249 -0.01997440 0.02517161
v 0.07048848 -0.01787605 0.02484742
v 0.07081597 -0.01997515 0.02455735
v 0.07109201 -0.01997440 0.02430994
v 0.07150372 -0.02177481 0.02393171
v 0.07176104 -0.01997440 0.02368430
v 0.07208854 -0.01997440 0.02336580
v 0.07216807 -0.02177481 0.02328901
v 0.07216807 -0.02372382 0.02328901
v 0.07248855 -0.02372382 0.02296198
v 0.07248387 -0.01997515 0.02296766
v 0.07248387 -0.01675858 0.02296766
v 0.07280903 -0.01997515 0.02262925
v 0.07312016 -0.01997515 0.02230221
v 0.07343830 -0.01997515 0.02195243
v 0.07344532 -0.02372382 0.02194390
v 0.07373071 -0.02372382 0.02161970
v 0.07405821 -0.02372382 0.02124148
v 0.07405587 -0.01672556 0.02124148
v 0.06547540 -0.02242398 0.02841924
v 0.06601110 -0.02177481 0.02810357
v 0.06633626 -0.02372382 0.02790166
v 0.06677604 -0.01997515 0.02762581
v 0.06708015 -0.01997515 0.02742959
v 0.06717138 -0.02177481 0.02736987
v 0.06749654 -0.02372382 0.02714805
v 0.06785679 -0.01997515 0.02689780
v 0.06807200 -0.01997515 0.02674708
v 0.06828722 -0.02047572 0.02659351
v 0.07009547 -0.02439249 0.02517161
v 0.06978201 -0.02437449 0.02543608
v 0.06904748 -0.02437449 0.02602191
v 0.06904514 -0.02439174 0.02602191
v 0.06872232 -0.02439174 0.02626363
v 0.06828488 -0.02439174 0.02659067
v 0.06795972 -0.02439174 0.02682102
v 0.06748250 -0.02439174 0.02715090
v 0.06716670 -0.02439174 0.02736703
v 0.06677604 -0.02439174 0.02761728
v 0.06633392 -0.02439174 0.02789882
v 0.06601110 -0.02372382 0.02810357
v 0.06547540 -0.02372382 0.02841924
v 0.06513153 -0.02437449 0.02861262
v 0.06480871 -0.02437449 0.02879177
v 0.06387768 -0.02437449 0.02928660
v 0.06352679 -0.02372382 0.02946007
v 0.06255599 -0.02418611 0.02992361
v 0.06157817 -0.02437449 0.03034449
v 0.06113371 -0.02437449 0.03052649
v 0.06481105 -0.02372382 0.02879177
v 0.06513621 -0.02372382 0.02861262
v 0.08125383 -0.02439249 0.00620344
v 0.08112750 -0.02372382 0.00685467
v 0.08112282 -0.02439249 0.00685467
v 0.08112516 -0.01672556 0.00685467
v 0.08112750 -0.02307315 0.00685467
v 0.06872466 -0.01997515 0.02626648
v 0.06904982 -0.02372382 0.02602191
v 0.06937498 -0.02372382 0.02576596
v 0.06978435 -0.02372382 0.02543608
v 0.07010717 -0.02372382 0.02516592
v 0.07049081 -0.02372382 0.02484457
v 0.07081597 -0.02372382 0.02455451
v 0.07117622 -0.02372382 0.02423031
v 0.07150372 -0.02372382 0.02393171
v 0.07216574 -0.02437449 0.02328617
v 0.07248621 -0.02437449 0.02296198
v 0.07281137 -0.02372382 0.02262641
v 0.07312016 -0.02372382 0.02230221
v 0.07344298 -0.02437449 0.02194105
v 0.07372838 -0.02437449 0.02161686
v 0.07404418 -0.02439249 0.02125001
v 0.07432723 -0.02437449 0.02091444
v 0.07432956 -0.02372382 0.02091728
v 0.07432956 -0.01672556 0.02091728
v 0.06677604 -0.02437449 0.02762013
v 0.06677604 -0.02372382 0.02762297
v 0.06717138 -0.02372382 0.02736987
v 0.06716904 -0.02437449 0.02736703
v 0.06796206 -0.02372382 0.02682386
v 0.06828722 -0.02372382 0.02659351
v 0.07048848 -0.02439249 0.02484173
v 0.06872232 -0.02437449 0.02626648
v 0.08098013 -0.01997440 0.00750591
v 0.08098013 -0.02372382 0.00750306
v 0.08097779 -0.02439249 0.00750306
v 0.08097779 -0.01672556 0.00750591
v 0.08098013 -0.01982580 0.00750591
v 0.06872466 -0.02372382 0.02626648
v 0.07081363 -0.02437449 0.02455451
v 0.07116453 -0.02439249 0.02423884
v 0.07149904 -0.02437449 0.02392887
v 0.07183824 -0.02439249 0.02360183
v 0.07215404 -0.02439249 0.02329186
v 0.07247686 -0.02439249 0.02296766
v 0.07280903 -0.02439249 0.02262357
v 0.07311548 -0.02439249 0.02229937
v 0.07343128 -0.02439249 0.02194958
v 0.07372838 -0.02439249 0.02161401
v 0.07432489 -0.02439249 0.02091159
v 0.07491205 -0.02439249 0.02018927
v 0.07491439 -0.02372382 0.02019211
v 0.07491439 -0.01672556 0.02019211
v 0.08082574 -0.02372382 0.00813439
v 0.08082574 -0.02437449 0.00812585
v 0.08082574 -0.02439249 0.00812301
v 0.08082574 -0.01672556 0.00813439
v 0.07149670 -0.02439249 0.02392603
v 0.07547113 -0.02439249 0.01944135
v 0.07548049 -0.02437449 0.01942997
v 0.07548283 -0.02372382 0.01943282
v 0.07517638 -0.01997440 0.01984801
v 0.07517638 -0.01917513 0.01984801
v 0.07517404 -0.01672556 0.01984801
v 0.08074152 -0.01997440 0.00845858
v 0.08074152 -0.02372382 0.00845574
v 0.08073919 -0.02437449 0.00845289
v 0.08073919 -0.02439249 0.00845005
v 0.08074152 -0.01672556 0.00845858
v 0.07571442 -0.02439249 0.01910578
v 0.07571676 -0.02437449 0.01910578
v 0.07548283 -0.01672556 0.01942997
v 0.07571676 -0.02372382 0.01910862
v 0.07571910 -0.01997440 0.01910578
v 0.07571910 -0.01672556 0.01910578
v 0.08064795 -0.02372382 0.00880268
v 0.08064327 -0.02439249 0.00880268
v 0.08064795 -0.01672556 0.00880268
v 0.07603022 -0.02439249 0.01865361
v 0.07603958 -0.02437449 0.01864224
v 0.07604191 -0.02372382 0.01864508
v 0.07604425 -0.01997440 0.01864508
v 0.07604425 -0.01672556 0.01864508
v 0.08060584 -0.01672556 0.00895340
v 0.08046081 -0.02047572 0.00945391
v 0.08045847 -0.02372382 0.00945391
v 0.08045379 -0.02439249 0.00945391
v 0.07625479 -0.02439249 0.01832658
v 0.07626415 -0.02372382 0.01831805
v 0.07626415 -0.01982580 0.01832089
v 0.07626415 -0.01672556 0.01832089
v 0.08046081 -0.01672556 0.00945391
v 0.08025963 -0.01672556 0.01010514
v 0.08025729 -0.02372382 0.01010230
v 0.08025495 -0.02437449 0.01010230
v 0.08025028 -0.02439249 0.01011652
v 0.07653784 -0.02439249 0.01789716
v 0.07654018 -0.02372382 0.01789716
v 0.07654486 -0.01787605 0.01789716
v 0.07654486 -0.01672556 0.01789716
v 0.08012629 -0.01672556 0.01051181
v 0.08012629 -0.01997440 0.01051181
v 0.08012629 -0.02372382 0.01050896
v 0.08012395 -0.02439249 0.01050327
v 0.07679048 -0.02439249 0.01750472
v 0.07679984 -0.02437449 0.01749334
v 0.07679984 -0.02372382 0.01749619
v 0.07680218 -0.01997440 0.01749334
v 0.07680218 -0.01672556 0.01749334
v 0.08001167 -0.01672556 0.01083600
v 0.08010056 -0.01997515 0.01058574
v 0.08001167 -0.02242323 0.01083600
v 0.08001167 -0.02372382 0.01083316
v 0.08000933 -0.02437449 0.01082747
v 0.07980347 -0.02439249 0.01140192
v 0.07699868 -0.02439249 0.01716631
v 0.07699868 -0.02437449 0.01716915
v 0.07700102 -0.02372382 0.01717199
v 0.07700102 -0.01672556 0.01717199
v 0.07982920 -0.01672556 0.01134220
v 0.07980815 -0.01997515 0.01140192
v 0.07980815 -0.02177481 0.01140192
v 0.07980581 -0.02372382 0.01140192
v 0.07956955 -0.02372382 0.01203040
v 0.07956721 -0.02437449 0.01202471
v 0.07956253 -0.02439249 0.01203040
v 0.07731682 -0.02439249 0.01664305
v 0.07732618 -0.02372382 0.01663167
v 0.07732618 -0.01672556 0.01663167
v 0.07975201 -0.01672556 0.01154979
v 0.07953914 -0.01672556 0.01210434
v 0.07943854 -0.01917513 0.01235459
v 0.07943854 -0.02372382 0.01235459
v 0.07943387 -0.02439249 0.01235743
v 0.07770281 -0.02439249 0.01596622
v 0.07751332 -0.02437449 0.01630463
v 0.07751332 -0.02372382 0.01630748
v 0.07747121 -0.01997515 0.01638142
v 0.07751566 -0.01672556 0.01630463
v 0.07943854 -0.01672556 0.01235175
v 0.07929351 -0.01672556 0.01270438
v 0.07929351 -0.02372382 0.01270438
v 0.07929117 -0.02437449 0.01270438
v 0.07929117 -0.02439249 0.01270153
v 0.07801159 -0.02439249 0.01540030
v 0.07771216 -0.02437449 0.01595200
v 0.07771683 -0.02372382 0.01595200
v 0.07771683 -0.01997515 0.01595200
v 0.07771450 -0.01672556 0.01594916
v 0.07901280 -0.01672556 0.01335276
v 0.07901514 -0.01997440 0.01335276
v 0.07901514 -0.02372382 0.01335276
v 0.07900344 -0.02439249 0.01336698
v 0.07818937 -0.02439249 0.01505620
v 0.07818937 -0.02437449 0.01505905
v 0.07802328 -0.02372382 0.01538609
v 0.07802328 -0.01672556 0.01538609
v 0.07883267 -0.01672556 0.01375374
v 0.07883267 -0.02307315 0.01375374
v 0.07883033 -0.02372382 0.01375374
v 0.07883033 -0.02439249 0.01374805
v 0.07839055 -0.02439249 0.01466091
v 0.07819171 -0.02372382 0.01506189
v 0.07815428 -0.01997515 0.01513867
v 0.07815428 -0.01672556 0.01513867
v 0.07868062 -0.01672556 0.01407793
v 0.07868062 -0.02372382 0.01407793
v 0.07867828 -0.02437449 0.01407225
v 0.07867828 -0.02439249 0.01406940
v 0.07839990 -0.02372382 0.01464954
v 0.07840224 -0.01997440 0.01464954
v 0.07840224 -0.01672556 0.01464954
v 0.07861746 -0.01997515 0.01420875
f 1 2 6
f 1 6 17
f 1 17 20
f 1 20 10
f 1 10 3
f 1 3 9
f 1 9 4
f 1 4 5
f 1 5 7
f 1 7 2
f 2 7 8
f 2 8 6
f 3 10 11
f 3 11 9
f 4 12 31
f 4 31 13
f 4 13 14
f 4 14 15
f 4 15 5
f 4 9 21
f 4 21 37
f 4 37 80
f 4 80 144
f 4 144 200
f 4 200 228
f 4 228 239
f 4 239 247
f 4 247 250
f 4 250 258
f 4 258 266
f 4 266 275
f 4 275 284
f 4 284 294
f 4 294 304
f 4 304 314
f 4 314 324
f 4 324 332
f 4 332 340
f 4 340 347
f 4 347 341
f 4 341 333
f 4 333 325
f 4 325 316
f 4 316 315
f 4 315 306
f 4 306 305
f 4 305 295
f 4 295 285
f 4 285 276
f 4 276 268
f 4 268 267
f 4 267 259
f 4 259 253
f 4 253 244
f 4 244 232
f 4 232 212
f 4 212 180
f 4 180 121
f 4 121 64
f 4 64 34
f 4 34 16
f 4 16 32
f 4 32 12
f 5 15 18
f 5 18 7
f 6 8 17
f 7 18 8
f 8 18 19
f 8 19 36
f 8 36 60
f 8 60 58
f 8 58 117
f 8 117 118
f 8 118 177
f 8 177 179
f 8 179 211
f 8 211 231
f 8 231 243
f 8 243 252
f 8 252 262
f 8 262 271
f 8 271 279
f 8 279 290
f 8 290 301
f 8 301 309
f 8 309 319
f 8 319 328
f 8 328 336
f 8 336 344
f 8 344 337
f 8 337 329
f 8 329 320
f 8 320 310
f 8 310 302
f 8 302 291
f 8 291 280
f 8 280 272
f 8 272 263
f 8 263 254
f 8 254 245
f 8 245 234
f 8 234 226
f 8 226 225
f 8 225 197
f 8 197 224
f 8 224 223
f 8 223 222
f 8 222 221
f 8 221 220
f 8 220 219
f 8 219 218
f 8 218 233
f 8 233 216
f 8 216 207
f 8 207 155
f 8 155 91
f 8 91 43
f 8 43 39
f 8 39 23
f 8 23 10
f 8 10 20
f 8 20 17
f 9 11 22
f 9 22 21
f 10 23 24
f 10 24 25
f 10 25 11
f 11 25 26
f 11 26 27
f 11 27 28
f 11 28 29
f 11 29 38
f 11 38 22
f 12 30 31
f 12 32 30
f 13 31 33
f 13 33 14
f 14 33 18
f 14 18 15
f 16 34 35
f 16 35 32
f 18 33 36
f 18 36 19
f 21 22 37
f 22 38 37
f 23 39 26
f 23 26 24
f 24 26 25
f 26 40 41
f 26 41 42
f 26 42 27
f 26 39 43
f 26 43 40
f 27 42 28
f 28 42 44
f 28 44 29
f 29 44 45
f 29 45 46
f 29 46 47
f 29 47 48
f 29 48 49
f 29 49 50
f 29 50 51
f 29 51 52
f 29 52 53
f 29 53 54
f 29 54 55
f 29 55 56
f 29 56 57
f 29 57 38
f 30 58 31
f 30 32 59
f 30 59 58
f 31 60 36
f 31 36 33
f 31 58 60
f 32 35 61
f 32 61 62
f 32 62 63
f 32 63 59
f 34 64 61
f 34 61 35
f 37 65 66
f 37 66 67
f 37 67 68
f 37 68 69
f 37 69 70
f 37 70 71
f 37 71 72
f 37 72 73
f 37 73 74
f 37 74 75
f 37 75 76
f 37 76 77
f 37 77 78
f 37 78 79
f 37 79 80
f 37 38 65
f 38 57 81
f 38 81 82
f 38 82 83
f 38 83 84
f 38 84 85
f 38 85 86
f 38 86 87
f 38 87 88
f 38 88 65
f 40 43 89
f 40 89 41
f 41 89 42
f 42 89 90
f 42 90 105
f 42 105 44
f 43 91 92
f 43 92 93
f 43 93 94
f 43 94 95
f 43 95 96
f 43 96 97
f 43 97 98
f 43 98 99
f 43 99 100
f 43 100 101
f 43 101 102
f 43 102 103
f 43 103 104
f 43 104 89
f 44 105 45
f 45 105 46
f 46 105 47
f 47 105 90
f 47 90 106
f 47 106 107
f 47 107 48
f 48 107 108
f 48 108 49
f 49 108 109
f 49 109 50
f 50 109 110
f 50 110 51
f 51 110 111
f 51 111 52
f 52 111 112
f 52 112 53
f 53 112 113
f 53 113 54
f 54 113 114
f 54 114 55
f 55 114 175
f 55 175 115
f 55 115 56
f 56 116 57
f 56 115 116
f 57 116 81
f 58 59 117
f 59 63 118
f 59 118 117
f 61 64 119
f 61 119 62
f 62 119 120
f 62 120 63
f 63 120 118
f 64 121 119
f 65 122 66
f 65 88 87
f 65 87 123
f 65 123 122
f 66 122 67
f 67 124 68
f 67 122 124
f 68 124 184
f 68 184 125
f 68 125 126
f 68 126 69
f 69 126 127
f 69 127 70
f 70 127 128
f 70 128 71
f 71 128 129
f 71 129 72
f 72 129 130
f 72 130 73
f 73 130 131
f 73 131 74
f 74 131 132
f 74 132 75
f 75 132 133
f 75 133 76
f 76 133 134
f 76 134 135
f 76 135 136
f 76 136 137
f 76 137 77
f 77 137 136
f 77 136 138
f 77 138 194
f 77 194 139
f 77 139 78
f 78 139 79
f 79 139 194
f 79 194 140
f 79 140 80
f 80 140 141
f 80 141 142
f 80 142 143
f 80 143 144
f 81 116 145
f 81 145 146
f 81 146 82
f 82 146 83
f 83 147 148
f 83 148 84
f 83 146 166
f 83 166 147
f 84 148 149
f 84 149 85
f 85 149 150
f 85 150 86
f 86 150 203
f 86 203 151
f 86 151 152
f 86 152 87
f 87 152 153
f 87 153 154
f 87 154 123
f 89 104 90
f 90 104 106
f 91 155 156
f 91 156 157
f 91 157 158
f 91 158 159
f 91 159 160
f 91 160 161
f 91 161 162
f 91 162 163
f 91 163 164
f 91 164 165
f 91 165 92
f 92 165 147
f 92 147 166
f 92 166 167
f 92 167 93
f 93 167 168
f 93 168 94
f 94 168 169
f 94 169 95
f 95 169 96
f 96 170 97
f 96 169 114
f 96 114 170
f 97 170 98
f 98 171 111
f 98 111 99
f 98 170 171
f 99 172 100
f 99 111 172
f 100 172 101
f 101 172 109
f 101 109 173
f 101 173 102
f 102 173 103
f 103 174 104
f 103 173 174
f 104 174 107
f 104 107 106
f 107 174 108
f 108 174 173
f 108 173 109
f 109 172 110
f 110 172 111
f 111 171 112
f 112 171 113
f 113 170 114
f 113 171 170
f 114 169 175
f 115 175 176
f 115 176 116
f 116 176 167
f 116 167 145
f 118 120 177
f 119 121 181
f 119 181 178
f 119 178 120
f 120 178 179
f 120 179 177
f 121 180 181
f 122 182 214
f 122 214 183
f 122 183 184
f 122 184 124
f 122 123 154
f 122 154 182
f 125 184 185
f 125 185 126
f 126 185 186
f 126 186 187
f 126 187 127
f 127 187 128
f 128 187 188
f 128 188 129
f 129 188 189
f 129 189 190
f 129 190 130
f 130 190 131
f 131 190 134
f 131 134 133
f 131 133 132
f 134 190 191
f 134 191 192
f 134 192 135
f 135 192 193
f 135 193 136
f 136 193 138
f 138 193 194
f 140 194 141
f 141 195 196
f 141 196 142
f 141 194 195
f 142 196 143
f 143 196 197
f 143 197 198
f 143 198 199
f 143 199 200
f 143 200 144
f 145 167 166
f 145 166 146
f 147 165 201
f 147 201 202
f 147 202 148
f 148 202 203
f 148 203 149
f 149 203 150
f 151 204 162
f 151 162 161
f 151 161 205
f 151 205 152
f 151 203 204
f 152 205 153
f 153 205 206
f 153 206 154
f 154 206 214
f 154 214 182
f 155 207 156
f 156 185 184
f 156 184 157
f 156 207 187
f 156 187 186
f 156 186 185
f 157 184 183
f 157 183 214
f 157 214 208
f 157 208 158
f 158 208 159
f 159 208 160
f 160 206 205
f 160 205 161
f 160 208 206
f 162 204 163
f 163 204 201
f 163 201 164
f 164 201 165
f 167 176 168
f 168 176 169
f 169 176 175
f 178 181 213
f 178 213 209
f 178 209 210
f 178 210 211
f 178 211 179
f 180 212 213
f 180 213 181
f 187 207 215
f 187 215 188
f 188 215 216
f 188 216 189
f 189 216 190
f 190 216 217
f 190 217 218
f 190 218 191
f 191 218 219
f 191 219 220
f 191 220 192
f 192 220 221
f 192 221 193
f 193 221 194
f 194 222 195
f 194 221 222
f 195 222 223
f 195 223 224
f 195 224 196
f 196 224 197
f 197 225 198
f 198 225 226
f 198 226 199
f 199 226 227
f 199 227 228
f 199 228 200
f 201 204 203
f 201 203 202
f 206 208 214
f 207 216 215
f 209 213 232
f 209 232 229
f 209 229 210
f 210 229 230
f 210 230 211
f 211 230 231
f 212 232 213
f 216 233 217
f 217 233 218
f 226 234 235
f 226 235 236
f 226 236 227
f 227 236 237
f 227 237 238
f 227 238 228
f 228 238 239
f 229 232 244
f 229 244 240
f 229 240 241
f 229 241 230
f 230 241 242
f 230 242 243
f 230 243 231
f 234 245 246
f 234 246 235
f 235 246 236
f 236 247 238
f 236 238 237
f 236 246 248
f 236 248 249
f 236 249 250
f 236 250 247
f 238 247 239
f 240 244 253
f 240 253 251
f 240 251 241
f 241 251 242
f 242 251 252
f 242 252 243
f 245 254 246
f 246 254 255
f 246 255 256
f 246 256 248
f 248 256 257
f 248 257 249
f 249 257 258
f 249 258 250
f 251 253 259
f 251 259 260
f 251 260 261
f 251 261 262
f 251 262 252
f 254 263 255
f 255 263 256
f 256 263 264
f 256 264 257
f 257 264 265
f 257 265 266
f 257 266 258
f 259 267 260
f 260 267 268
f 260 268 269
f 260 269 261
f 261 269 270
f 261 270 262
f 262 270 271
f 263 272 264
f 264 272 273
f 264 273 274
f 264 274 265
f 265 274 275
f 265 275 266
f 268 276 277
f 268 277 278
f 268 278 269
f 269 278 270
f 270 278 271
f 271 278 279
f 272 280 281
f 272 281 273
f 273 281 282
f 273 282 274
f 274 282 283
f 274 283 284
f 274 284 275
f 276 285 286
f 276 286 277
f 277 286 278
f 278 286 287
f 278 287 288
f 278 288 279
f 279 288 289
f 279 289 290
f 280 291 281
f 281 291 292
f 281 292 293
f 281 293 282
f 282 293 283
f 283 293 294
f 283 294 284
f 285 295 296
f 285 296 297
f 285 297 287
f 285 287 286
f 287 297 288
f 288 297 298
f 288 298 290
f 288 290 289
f 290 298 299
f 290 299 300
f 290 300 301
f 291 302 292
f 292 302 293
f 293 302 303
f 293 303 304
f 293 304 294
f 295 305 296
f 296 305 299
f 296 299 297
f 297 299 298
f 299 305 306
f 299 306 307
f 299 307 308
f 299 308 309
f 299 309 300
f 300 309 301
f 302 310 311
f 302 311 303
f 303 311 312
f 303 312 313
f 303 313 304
f 304 313 314
f 306 315 307
f 307 315 316
f 307 316 317
f 307 317 308
f 308 317 318
f 308 318 309
f 309 318 319
f 310 320 321
f 310 321 311
f 311 321 322
f 311 322 312
f 312 322 314
f 312 314 313
f 314 322 323
f 314 323 324
f 316 325 326
f 316 326 327
f 316 327 317
f 317 327 318
f 318 327 328
f 318 328 319
f 320 322 321
f 320 329 330
f 320 330 331
f 320 331 322
f 322 331 332
f 322 332 323
f 323 332 324
f 325 333 326
f 326 333 334
f 326 334 327
f 327 334 335
f 327 335 336
f 327 336 328
f 329 337 330
f 330 338 331
f 330 337 338
f 331 338 339
f 331 339 340
f 331 340 332
f 333 341 342
f 333 342 334
f 334 342 335
f 335 342 336
f 336 342 343
f 336 343 344
f 337 345 338
f 337 344 343
f 337 343 342
f 337 342 345
f 338 345 346
f 338 346 339
f 339 346 347
f 339 347 340
f 341 347 348
f 341 348 342
f 342 348 346
f 342 346 345
f 346 348 347
