# https://github.com/mikedh/trimesh
v 0.10432457 -0.02768566 -0.01623909
v 0.10432899 -0.03704844 -0.01623909
v 0.12058248 -0.03470582 -0.00957985
v 0.12058248 -0.02612905 -0.00957910
v 0.10432457 0.02397532 -0.01623909
v 0.10433340 -0.03782675 -0.01623909
v 0.10434224 -0.03840470 -0.01623909
v 0.12020275 -0.03548413 -0.00974875
v 0.12131104 -0.03470582 -0.00928709
v 0.12131104 -0.03080659 -0.00928634
v 0.12131104 -0.01520966 -0.00928559
v 0.12131104 0.00350820 -0.00928484
v 0.12131104 0.02612530 -0.00928408
v 0.12058248 0.03470977 -0.00957910
v 0.10432899 0.03158884 -0.01623909
v 0.10435548 -0.03862047 -0.01623909
v 0.12059131 -0.03548413 -0.00959261
v 0.12131104 -0.03548413 -0.00933438
v 0.12203077 -0.03470582 -0.00904237
v 0.12202635 0.00116558 -0.00904087
v 0.12131104 0.03470977 -0.00928408
v 0.12020275 0.03548808 -0.00974875
v 0.10435548 0.03861671 -0.01623909
v 0.10433340 0.03782300 -0.01623909
v 0.10466015 -0.03892100 -0.01623909
v 0.10533131 -0.03895183 -0.01596734
v 0.12070612 -0.03598502 -0.00964516
v 0.12214557 -0.03543789 -0.00909567
v 0.12244141 -0.03514506 -0.00893427
v 0.12242375 -0.03470582 -0.00892826
v 0.12241492 0.00272990 -0.00892676
v 0.12202635 0.00584312 -0.00904087
v 0.12203077 0.03470977 -0.00904012
v 0.12131104 0.03548808 -0.00933213
v 0.12059131 0.03548808 -0.00959261
v 0.10533131 0.03895578 -0.01596659
v 0.10496040 0.03901743 -0.01623909
v 0.12070612 0.03598897 -0.00964516
v 0.10508846 -0.03919071 -0.01623909
v 0.10585234 -0.03907513 -0.01589828
v 0.11544283 -0.03744145 -0.01205933
v 0.12131104 -0.03606978 -0.00955358
v 0.11928432 -0.03667085 -0.01048667
v 0.12287413 -0.03526065 -0.00888473
v 0.12287413 -0.03565366 -0.00906489
v 0.12365126 -0.03470582 -0.00868505
v 0.12287413 -0.03470582 -0.00882467
v 0.12241492 0.00428651 -0.00892676
v 0.12287413 -0.02066550 -0.00882392
v 0.12241933 0.03470977 -0.00892751
v 0.12244141 0.03514131 -0.00893352
v 0.12214557 0.03543414 -0.00909416
v 0.11544283 0.03744540 -0.01205933
v 0.10585234 0.03907907 -0.01589828
v 0.10566247 0.03927943 -0.01623909
v 0.12131104 0.03606603 -0.00955208
v 0.11928432 0.03667480 -0.01048667
v 0.10566247 -0.03928318 -0.01623909
v 0.10649259 -0.03914447 -0.01581871
v 0.11221068 -0.03823517 -0.01359746
v 0.11585347 -0.03746457 -0.01202930
v 0.12209259 -0.03607749 -0.00947476
v 0.11975237 -0.03668626 -0.01046415
v 0.12365126 -0.03535312 -0.00881717
v 0.12365126 -0.03574613 -0.00915722
v 0.12443281 -0.03532230 -0.00879164
v 0.12443281 -0.03470582 -0.00862124
v 0.12443281 -0.03392752 -0.00860322
v 0.12365126 -0.03392752 -0.00868129
v 0.12365126 -0.02066550 -0.00868054
v 0.12287413 0.03470977 -0.00882542
v 0.12287413 -0.01988720 -0.00882392
v 0.12287413 0.03525690 -0.00888548
v 0.12365126 0.03470977 -0.00868580
v 0.12287413 0.03564991 -0.00906639
v 0.11585347 0.03746082 -0.01202930
v 0.11221509 0.03823912 -0.01359746
v 0.10649259 0.03914072 -0.01581871
v 0.10649259 0.03935649 -0.01623909
v 0.12209259 0.03607373 -0.00947401
v 0.11975237 0.03668251 -0.01046415
v 0.10571104 -0.03929089 -0.01623909
v 0.10663830 -0.03936795 -0.01623909
v 0.10727414 -0.03915989 -0.01573313
v 0.10864294 -0.03898265 -0.01520916
v 0.10915956 -0.03899806 -0.01518064
v 0.11273170 -0.03824287 -0.01357870
v 0.12287413 -0.03602355 -0.00945449
v 0.12029547 -0.03667856 -0.01046940
v 0.11663060 -0.03746457 -0.01201879
v 0.12365126 -0.03594649 -0.00954757
v 0.12657875 -0.03513736 -0.00890575
v 0.12599148 -0.03519130 -0.00885545
v 0.12521435 -0.03526836 -0.00880891
v 0.12521435 -0.03470582 -0.00862499
v 0.12677303 -0.03392752 -0.00857169
v 0.12599148 -0.03392752 -0.00857094
v 0.12521435 -0.03392752 -0.00857695
v 0.12443281 0.02456868 -0.00860322
v 0.12365126 -0.01988720 -0.00868054
v 0.12365126 0.03392376 -0.00868279
v 0.12365126 0.03534937 -0.00881717
v 0.12443281 0.03470977 -0.00862124
v 0.12443281 0.03392376 -0.00860397
v 0.12365126 0.03574238 -0.00915872
v 0.12443281 0.03532625 -0.00879164
v 0.11273170 0.03824683 -0.01357644
v 0.10915956 0.03900201 -0.01518064
v 0.10863853 0.03897890 -0.01520916
v 0.10727414 0.03916384 -0.01573388
v 0.10727414 0.03932567 -0.01623909
v 0.10924345 0.03900201 -0.01518064
v 0.12287413 0.03602750 -0.00945674
v 0.12029547 0.03667480 -0.01046940
v 0.11663060 0.03746852 -0.01201879
v 0.10740218 -0.03932941 -0.01623909
v 0.10924345 -0.03899806 -0.01518064
v 0.11323066 -0.03823517 -0.01359071
v 0.11706332 -0.03744145 -0.01204582
v 0.12287413 -0.03617766 -0.01011508
v 0.12209259 -0.03631637 -0.01011508
v 0.12411930 -0.03589255 -0.00966393
v 0.12709536 -0.03507571 -0.00899433
v 0.14518128 -0.03121501 -0.00891776
v 0.14470883 -0.03126895 -0.00886446
v 0.14392729 -0.03134601 -0.00880065
v 0.12599148 -0.03470582 -0.00866853
v 0.14314574 -0.03141536 -0.00876762
v 0.12832730 -0.03392752 -0.00859722
v 0.12754574 -0.03392752 -0.00857695
v 0.14392729 -0.03080659 -0.00861373
v 0.14314574 -0.03080659 -0.00858070
v 0.13066751 -0.03314921 -0.00857169
v 0.12988596 -0.03314921 -0.00857094
v 0.12599148 0.03392376 -0.00857094
v 0.12521435 0.03080284 -0.00857695
v 0.12521435 0.03470977 -0.00862499
v 0.12521435 0.03392376 -0.00857770
v 0.12677303 0.03392376 -0.00857169
v 0.12521435 0.03526461 -0.00880891
v 0.12599148 0.03519525 -0.00885545
v 0.12657875 0.03513360 -0.00890575
v 0.11324390 0.03823912 -0.01358770
v 0.10805126 0.03924089 -0.01623909
v 0.10972475 0.03896348 -0.01557474
v 0.10933618 0.03901743 -0.01557474
v 0.12365126 0.03594273 -0.00954832
v 0.12287413 0.03618162 -0.01011508
v 0.11706332 0.03744540 -0.01204582
v 0.12411930 0.03589649 -0.00966318
v 0.10816607 -0.03923694 -0.01623909
v 0.10972475 -0.03895953 -0.01557474
v 0.11117303 -0.03866670 -0.01479479
v 0.11195016 -0.03854341 -0.01479479
v 0.11331014 -0.03825058 -0.01401484
v 0.11369870 -0.03818122 -0.01401484
v 0.11507192 -0.03788069 -0.01323489
v 0.11585347 -0.03772657 -0.01323489
v 0.11708982 -0.03744916 -0.01245494
v 0.12365126 -0.03601584 -0.01011508
v 0.14198446 -0.03197790 -0.00970822
v 0.14470883 -0.03136142 -0.00933513
v 0.14524752 -0.03123813 -0.00933513
v 0.14563608 -0.03111483 -0.00933513
v 0.14626750 -0.03086053 -0.00933513
v 0.14679736 -0.03050605 -0.00885320
v 0.14626750 -0.03062935 -0.00878263
v 0.14470883 -0.03080659 -0.00867679
v 0.14236861 -0.03080659 -0.00857169
v 0.14626750 -0.03002828 -0.00859572
v 0.14548595 -0.03002828 -0.00857094
v 0.13768816 0.03158884 -0.00857094
v 0.12599148 0.03470977 -0.00866853
v 0.12754574 0.03392376 -0.00857695
v 0.12832730 0.03392376 -0.00859722
v 0.14314574 0.03080284 -0.00858070
v 0.14392729 0.03080284 -0.00861373
v 0.13846971 0.03158884 -0.00857169
v 0.14392729 0.03134225 -0.00880140
v 0.14470883 0.03126520 -0.00886446
v 0.12709536 0.03507196 -0.00899433
v 0.14136629 0.03201267 -0.00890575
v 0.14518128 0.03121896 -0.00891776
v 0.13420875 0.03354617 -0.00893802
v 0.11332779 0.03825453 -0.01401484
v 0.11195016 0.03853966 -0.01479479
v 0.11372078 0.03818518 -0.01401484
v 0.10883722 0.03912531 -0.01623909
v 0.11039148 0.03884789 -0.01557474
v 0.10979097 0.03896348 -0.01623909
v 0.12131104 0.03652839 -0.01089503
v 0.11708982 0.03745311 -0.01245494
v 0.12415463 0.03590420 -0.01011508
v 0.11585347 0.03773052 -0.01323489
v 0.12521435 0.03567302 -0.01011508
v 0.14470883 0.03135767 -0.00933513
v 0.14198446 0.03197414 -0.00970897
v 0.10890787 -0.03912136 -0.01623909
v 0.11039148 -0.03885165 -0.01557474
v 0.11117303 -0.03870523 -0.01557474
v 0.11372519 -0.03818122 -0.01479479
v 0.11429038 -0.03806563 -0.01479479
v 0.11710306 -0.03745686 -0.01323489
v 0.12298894 -0.03616225 -0.01623909
v 0.14232004 -0.03190855 -0.01623909
v 0.13534795 -0.03344204 -0.01011508
v 0.14392729 -0.03155407 -0.01011508
v 0.14470883 -0.03137683 -0.01011508
v 0.14526960 -0.03124583 -0.01011508
v 0.14565817 -0.03113024 -0.01011508
v 0.14626750 -0.03088365 -0.01011508
v 0.14687243 -0.03055229 -0.00933513
v 0.14726099 -0.03028258 -0.00933513
v 0.14761424 -0.02980481 -0.00882167
v 0.14705347 -0.03005140 -0.00874060
v 0.14704905 -0.02924998 -0.00857169
v 0.14626750 -0.02924998 -0.00857094
v 0.14548595 0.03002453 -0.00857094
v 0.14314574 0.03141161 -0.00876837
v 0.14236861 0.03080284 -0.00857169
v 0.14626750 0.03002453 -0.00859572
v 0.14470883 0.03080284 -0.00867754
v 0.14626750 0.03063330 -0.00878263
v 0.14626750 0.03086448 -0.00933513
v 0.14563608 0.03111107 -0.00933513
v 0.14524752 0.03123437 -0.00933513
v 0.14679736 0.03051001 -0.00885320
v 0.11273170 0.03838553 -0.01479479
v 0.11429038 0.03806959 -0.01401484
v 0.11374286 0.03818518 -0.01479479
v 0.11117303 0.03869377 -0.01557474
v 0.11105823 0.03871689 -0.01623909
v 0.11039148 0.03884789 -0.01623909
v 0.12209259 0.03635886 -0.01089503
v 0.11585347 0.03773052 -0.01623909
v 0.12521435 0.03567302 -0.01623909
v 0.13865517 0.03271392 -0.01011508
v 0.14303535 0.03175067 -0.01623909
v 0.14470883 0.03138078 -0.01011508
v 0.10989253 -0.03894412 -0.01623909
v 0.11039148 -0.03885165 -0.01623909
v 0.11117303 -0.03870523 -0.01623909
v 0.11128783 -0.03868211 -0.01623909
v 0.11380909 -0.03816581 -0.01623909
v 0.11429038 -0.03806563 -0.01623909
v 0.11518673 -0.03787299 -0.01623909
v 0.11596827 -0.03770345 -0.01623909
v 0.11710306 -0.03745686 -0.01623909
v 0.14326495 -0.03170048 -0.01623909
v 0.14392729 -0.03155407 -0.01623909
v 0.14478831 -0.03136142 -0.01623909
v 0.14526960 -0.03124583 -0.01479479
v 0.14565817 -0.03113024 -0.01623909
v 0.14626750 -0.03088365 -0.01623909
v 0.14635582 -0.03083741 -0.01623909
v 0.14687684 -0.03056000 -0.01323489
v 0.14687243 -0.03056000 -0.01011508
v 0.14726540 -0.03029029 -0.01011508
v 0.14771138 -0.02989728 -0.00933513
v 0.14809994 -0.02949657 -0.00933513
v 0.14833838 -0.02901880 -0.00883668
v 0.14785708 -0.02926539 -0.00873084
v 0.14782618 -0.02846397 -0.00858370
v 0.14782618 -0.02768566 -0.00857094
v 0.14704905 0.02846792 -0.00857094
v 0.14704905 0.02924622 -0.00857169
v 0.14705347 0.03004765 -0.00874060
v 0.14626750 0.03087990 -0.01011508
v 0.14565817 0.03113419 -0.01011508
v 0.14687243 0.03055624 -0.00933513
v 0.14526960 0.03124208 -0.01011508
v 0.14761424 0.02980876 -0.00882167
v 0.14726099 0.03028653 -0.00933513
v 0.11261690 0.03840865 -0.01623909
v 0.11429038 0.03806959 -0.01623909
v 0.11374286 0.03818518 -0.01623909
v 0.14470883 0.03138078 -0.01623909
v 0.14518571 0.03126520 -0.01623909
v 0.14526518 -0.03124583 -0.01623909
v 0.14687684 -0.03056000 -0.01623909
v 0.14726540 -0.03029029 -0.01623909
v 0.14771579 -0.02989728 -0.01011508
v 0.14810435 -0.02950428 -0.01011508
v 0.14840020 -0.02911127 -0.00933513
v 0.14899629 -0.02807867 -0.00894478
v 0.14860331 -0.02838691 -0.00880515
v 0.14860773 -0.02768566 -0.00868655
v 0.14860773 -0.02690736 -0.00859497
v 0.14860773 -0.02612905 -0.00857320
v 0.14860773 -0.02534304 -0.00857094
v 0.14782618 0.02768961 -0.00857094
v 0.14785708 0.02926934 -0.00873084
v 0.14782618 0.02846792 -0.00858370
v 0.14617920 0.03091842 -0.01623909
v 0.14687684 0.03055624 -0.01245494
v 0.14626750 0.03087990 -0.01623909
v 0.14565817 0.03113419 -0.01401484
v 0.14726540 0.03028653 -0.01011508
v 0.14526960 0.03124208 -0.01479479
v 0.14833838 0.02902275 -0.00883668
v 0.14809994 0.02950052 -0.00933513
v 0.14771138 0.02989353 -0.00933513
v 0.14771579 0.02990123 -0.01011508
v 0.14532259 0.03122666 -0.01623909
v 0.14771579 -0.02989728 -0.01623909
v 0.14805137 -0.02956592 -0.01623909
v 0.14810878 -0.02950428 -0.01323489
v 0.14840461 -0.02911127 -0.01089503
v 0.14879318 -0.02847167 -0.01011508
v 0.14878877 -0.02847167 -0.00933513
v 0.14900070 -0.02807867 -0.00933513
v 0.14912876 -0.02768566 -0.00933513
v 0.14931862 -0.02690736 -0.00933513
v 0.14906253 -0.02768566 -0.00887347
v 0.14915524 -0.02690736 -0.00878188
v 0.14919057 -0.02612905 -0.00876011
v 0.14919941 -0.02534304 -0.00875861
v 0.14860773 0.02534699 -0.00857094
v 0.14860773 0.02612530 -0.00857320
v 0.14860331 0.02839086 -0.00880515
v 0.14860773 0.02690360 -0.00859497
v 0.14860773 0.02768961 -0.00868655
v 0.14565817 0.03112649 -0.01623909
v 0.14693424 0.03051771 -0.01623909
v 0.14687684 0.03055624 -0.01623909
v 0.14726540 0.03028653 -0.01623909
v 0.14840020 0.02910752 -0.00933513
v 0.14899629 0.02807491 -0.00894478
v 0.14810435 0.02950052 -0.01011508
v 0.14840461 0.02911522 -0.01089503
v 0.14810878 0.02950823 -0.01479479
v 0.14771579 0.02990123 -0.01623909
v 0.14810878 -0.02950428 -0.01623909
v 0.14815293 -0.02945033 -0.01623909
v 0.14840461 -0.02911898 -0.01557474
v 0.14879318 -0.02847167 -0.01623909
v 0.14900070 -0.02807867 -0.01623909
v 0.14911109 -0.02774731 -0.01623909
v 0.14912876 -0.02768566 -0.01623909
v 0.14930096 -0.02702295 -0.01623909
v 0.14932746 -0.02690736 -0.01011508
v 0.14941135 -0.02612905 -0.01011508
v 0.14939810 -0.02612905 -0.00933513
v 0.14941135 -0.02534304 -0.00933513
v 0.14919941 0.02534699 -0.00875861
v 0.14919057 0.02612530 -0.00876011
v 0.14906253 0.02768961 -0.00887347
v 0.14915524 0.02690360 -0.00878188
v 0.14878877 0.02846792 -0.00933513
v 0.14912876 0.02768961 -0.00933513
v 0.14900070 0.02808262 -0.00933513
v 0.14931862 0.02690360 -0.00933513
v 0.14836046 0.02917687 -0.01623909
v 0.14879318 0.02846792 -0.01011508
v 0.14846201 0.02902275 -0.01623909
v 0.14840461 0.02911522 -0.01623909
v 0.14810878 0.02950823 -0.01623909
v 0.14840461 -0.02911898 -0.01623909
v 0.14932746 -0.02690736 -0.01623909
v 0.14942901 -0.02534304 -0.01011508
v 0.14941135 -0.02612905 -0.01623909
v 0.14941135 0.02534699 -0.00933513
v 0.14939810 0.02612530 -0.00933513
v 0.14912876 0.02768961 -0.01623909
v 0.14932746 0.02690360 -0.01011508
v 0.14915967 0.02757402 -0.01623909
v 0.14900070 0.02808262 -0.01623909
v 0.14941135 0.02612530 -0.01011508
v 0.14879318 0.02846792 -0.01623909
v 0.14942901 -0.02534304 -0.01623909
v 0.14942901 0.02534699 -0.01011508
v 0.14934069 0.02678801 -0.01623909
v 0.14932746 0.02690360 -0.01623909
v 0.14941578 0.02600971 -0.01623909
v 0.14941135 0.02612530 -0.01623909
v 0.14942901 0.02534699 -0.01623909
f 1 2 3
f 1 3 4
f 1 4 14
f 1 14 5
f 1 5 15
f 1 15 24
f 1 24 23
f 1 23 37
f 1 37 55
f 1 55 79
f 1 79 111
f 1 111 144
f 1 144 188
f 1 188 190
f 1 190 233
f 1 233 232
f 1 232 274
f 1 274 276
f 1 276 275
f 1 275 235
f 1 235 236
f 1 236 238
f 1 238 277
f 1 277 278
f 1 278 304
f 1 304 323
f 1 323 294
f 1 294 296
f 1 296 325
f 1 325 324
f 1 324 326
f 1 326 332
f 1 332 357
f 1 357 353
f 1 353 356
f 1 356 355
f 1 355 369
f 1 369 367
f 1 367 364
f 1 364 366
f 1 366 373
f 1 373 372
f 1 372 375
f 1 375 374
f 1 374 376
f 1 376 370
f 1 370 361
f 1 361 359
f 1 359 340
f 1 340 339
f 1 339 338
f 1 338 337
f 1 337 336
f 1 336 358
f 1 358 334
f 1 334 333
f 1 333 306
f 1 306 305
f 1 305 281
f 1 281 280
f 1 280 255
f 1 255 254
f 1 254 253
f 1 253 279
f 1 279 251
f 1 251 250
f 1 250 249
f 1 249 205
f 1 205 204
f 1 204 248
f 1 248 247
f 1 247 246
f 1 246 245
f 1 245 244
f 1 244 243
f 1 243 242
f 1 242 241
f 1 241 240
f 1 240 198
f 1 198 151
f 1 151 116
f 1 116 83
f 1 83 82
f 1 82 58
f 1 58 39
f 1 39 25
f 1 25 16
f 1 16 7
f 1 7 6
f 1 6 2
f 2 6 3
f 3 6 7
f 3 7 8
f 3 8 17
f 3 17 9
f 3 9 10
f 3 10 4
f 4 10 11
f 4 11 12
f 4 12 13
f 4 13 21
f 4 21 14
f 5 14 15
f 7 16 8
f 8 16 17
f 9 17 18
f 9 18 19
f 9 19 10
f 10 19 20
f 10 20 11
f 11 20 12
f 12 20 13
f 13 20 32
f 13 32 21
f 14 21 22
f 14 22 23
f 14 23 24
f 14 24 15
f 16 25 26
f 16 26 27
f 16 27 17
f 17 27 18
f 18 28 29
f 18 29 19
f 18 27 28
f 19 29 30
f 19 30 31
f 19 31 20
f 20 31 48
f 20 48 32
f 21 33 34
f 21 34 35
f 21 35 22
f 21 32 33
f 22 35 23
f 23 36 37
f 23 35 38
f 23 38 36
f 25 39 26
f 26 39 40
f 26 40 41
f 26 41 27
f 27 42 28
f 27 41 43
f 27 43 42
f 28 44 29
f 28 42 45
f 28 45 44
f 29 44 46
f 29 46 47
f 29 47 30
f 30 47 31
f 31 47 49
f 31 49 72
f 31 72 48
f 32 48 33
f 33 50 51
f 33 51 34
f 33 48 50
f 34 51 52
f 34 52 38
f 34 38 35
f 36 53 54
f 36 54 55
f 36 55 37
f 36 38 53
f 38 52 56
f 38 56 57
f 38 57 53
f 39 58 59
f 39 59 40
f 40 59 41
f 41 59 60
f 41 60 61
f 41 61 43
f 42 62 45
f 42 43 62
f 43 61 63
f 43 63 62
f 44 45 64
f 44 64 46
f 45 62 65
f 45 65 66
f 45 66 64
f 46 64 67
f 46 67 68
f 46 68 69
f 46 69 47
f 47 69 70
f 47 70 49
f 48 71 50
f 48 72 71
f 49 70 100
f 49 100 72
f 50 71 51
f 51 73 52
f 51 71 74
f 51 74 73
f 52 73 75
f 52 75 56
f 53 57 76
f 53 76 77
f 53 77 54
f 54 78 55
f 54 77 78
f 55 78 79
f 56 75 80
f 56 80 57
f 57 81 76
f 57 80 81
f 58 82 59
f 59 82 83
f 59 83 84
f 59 84 85
f 59 85 60
f 60 85 86
f 60 86 87
f 60 87 61
f 61 87 63
f 62 88 65
f 62 63 89
f 62 89 88
f 63 87 90
f 63 90 89
f 64 66 67
f 65 88 91
f 65 91 92
f 65 92 93
f 65 93 94
f 65 94 66
f 66 94 95
f 66 95 67
f 67 95 96
f 67 96 97
f 67 97 98
f 67 98 68
f 68 70 69
f 68 98 136
f 68 136 99
f 68 99 100
f 68 100 70
f 71 101 74
f 71 72 100
f 71 100 101
f 73 102 75
f 73 74 102
f 74 103 102
f 74 101 104
f 74 104 103
f 75 105 80
f 75 102 106
f 75 106 105
f 76 107 77
f 76 81 107
f 77 107 108
f 77 108 109
f 77 109 78
f 78 109 110
f 78 110 79
f 79 110 108
f 79 108 112
f 79 112 111
f 80 105 113
f 80 113 114
f 80 114 81
f 81 114 115
f 81 115 107
f 83 116 117
f 83 117 86
f 83 86 84
f 84 86 85
f 86 117 87
f 87 118 90
f 87 117 118
f 88 89 91
f 89 90 119
f 89 119 120
f 89 120 121
f 89 121 91
f 90 118 119
f 91 122 123
f 91 123 92
f 91 121 122
f 92 123 124
f 92 124 125
f 92 125 126
f 92 126 93
f 93 126 94
f 94 127 95
f 94 126 128
f 94 128 127
f 95 129 130
f 95 130 96
f 95 127 131
f 95 131 132
f 95 132 129
f 96 130 133
f 96 133 134
f 96 134 97
f 97 134 171
f 97 171 217
f 97 217 264
f 97 264 290
f 97 290 318
f 97 318 291
f 97 291 265
f 97 265 218
f 97 218 172
f 97 172 135
f 97 135 136
f 97 136 98
f 99 136 104
f 99 104 101
f 99 101 100
f 102 103 106
f 103 137 106
f 103 104 138
f 103 138 135
f 103 135 139
f 103 139 137
f 104 136 138
f 105 106 140
f 105 140 141
f 105 141 142
f 105 142 113
f 106 137 140
f 107 143 112
f 107 112 108
f 107 115 143
f 108 110 109
f 111 112 144
f 112 145 146
f 112 146 144
f 112 143 145
f 113 142 147
f 113 147 114
f 114 148 149
f 114 149 115
f 114 147 150
f 114 150 148
f 115 149 143
f 116 151 117
f 117 151 152
f 117 152 153
f 117 153 118
f 118 153 154
f 118 154 155
f 118 155 156
f 118 156 119
f 119 156 157
f 119 157 158
f 119 158 159
f 119 159 120
f 120 160 122
f 120 122 121
f 120 159 160
f 122 160 161
f 122 161 162
f 122 162 124
f 122 124 123
f 124 162 163
f 124 163 164
f 124 164 165
f 124 165 166
f 124 166 167
f 124 167 125
f 125 167 126
f 126 167 168
f 126 168 131
f 126 131 128
f 127 128 131
f 129 132 130
f 130 132 169
f 130 169 133
f 131 168 170
f 131 170 132
f 132 170 171
f 132 171 169
f 133 169 171
f 133 171 134
f 135 172 178
f 135 178 139
f 135 138 136
f 137 173 140
f 137 139 174
f 137 174 175
f 137 175 176
f 137 176 177
f 137 177 173
f 139 178 174
f 140 173 179
f 140 179 141
f 141 179 180
f 141 180 142
f 142 181 147
f 142 180 182
f 142 182 183
f 142 183 184
f 142 184 181
f 143 185 186
f 143 186 145
f 143 149 187
f 143 187 185
f 144 146 145
f 144 145 188
f 145 186 189
f 145 189 190
f 145 190 188
f 147 181 150
f 148 191 192
f 148 192 149
f 148 150 193
f 148 193 191
f 149 192 194
f 149 194 187
f 150 195 193
f 150 181 183
f 150 183 196
f 150 196 197
f 150 197 195
f 151 198 152
f 152 199 154
f 152 154 153
f 152 198 199
f 154 199 200
f 154 200 201
f 154 201 156
f 154 156 155
f 156 201 202
f 156 202 158
f 156 158 157
f 158 202 203
f 158 203 160
f 158 160 159
f 160 203 204
f 160 204 205
f 160 205 206
f 160 206 161
f 161 206 207
f 161 207 162
f 162 207 208
f 162 208 163
f 163 208 209
f 163 209 210
f 163 210 164
f 164 210 165
f 165 210 211
f 165 211 212
f 165 212 166
f 166 212 213
f 166 213 214
f 166 214 215
f 166 215 167
f 167 215 170
f 167 170 168
f 170 215 216
f 170 216 171
f 171 216 217
f 172 218 178
f 173 177 219
f 173 219 179
f 174 178 220
f 174 220 176
f 174 176 175
f 176 220 218
f 176 218 221
f 176 221 177
f 177 221 222
f 177 222 179
f 177 179 219
f 178 218 220
f 179 222 223
f 179 223 180
f 180 183 182
f 180 223 183
f 181 184 183
f 183 224 225
f 183 225 226
f 183 226 196
f 183 223 227
f 183 227 224
f 185 187 186
f 186 187 228
f 186 228 231
f 186 231 189
f 187 194 229
f 187 229 230
f 187 230 228
f 189 231 232
f 189 232 233
f 189 233 190
f 191 193 234
f 191 234 194
f 191 194 192
f 193 195 234
f 194 235 275
f 194 275 229
f 194 234 195
f 194 195 236
f 194 236 235
f 195 197 237
f 195 237 238
f 195 238 236
f 196 226 239
f 196 239 197
f 197 239 237
f 198 240 199
f 199 240 241
f 199 241 242
f 199 242 200
f 200 242 243
f 200 243 244
f 200 244 202
f 200 202 201
f 202 244 245
f 202 245 246
f 202 246 203
f 203 246 247
f 203 247 248
f 203 248 204
f 205 249 207
f 205 207 206
f 207 249 250
f 207 250 251
f 207 251 208
f 208 251 209
f 209 251 252
f 209 252 253
f 209 253 210
f 210 253 254
f 210 254 211
f 211 254 255
f 211 255 256
f 211 256 257
f 211 257 212
f 212 257 258
f 212 258 213
f 213 258 259
f 213 259 214
f 214 259 260
f 214 260 261
f 214 261 262
f 214 262 215
f 215 262 216
f 216 262 263
f 216 263 264
f 216 264 217
f 218 265 266
f 218 266 221
f 221 267 223
f 221 223 222
f 221 266 267
f 223 267 227
f 224 268 269
f 224 269 225
f 224 227 270
f 224 270 268
f 225 269 226
f 226 271 239
f 226 269 271
f 227 267 272
f 227 272 273
f 227 273 270
f 228 274 232
f 228 232 231
f 228 230 274
f 229 275 276
f 229 276 230
f 230 276 274
f 237 239 238
f 238 239 277
f 239 271 278
f 239 278 277
f 251 279 252
f 252 279 253
f 255 280 256
f 256 280 281
f 256 281 258
f 256 258 257
f 258 281 305
f 258 305 282
f 258 282 259
f 259 282 283
f 259 283 260
f 260 283 284
f 260 284 261
f 261 284 285
f 261 285 286
f 261 286 262
f 262 286 263
f 263 286 287
f 263 287 288
f 263 288 289
f 263 289 264
f 264 289 290
f 265 291 266
f 266 292 267
f 266 291 293
f 266 293 292
f 267 292 272
f 268 294 269
f 268 270 295
f 268 295 325
f 268 325 296
f 268 296 294
f 269 294 297
f 269 297 299
f 269 299 271
f 270 273 298
f 270 298 295
f 271 299 278
f 272 292 300
f 272 300 301
f 272 301 302
f 272 302 273
f 273 302 303
f 273 303 298
f 278 299 297
f 278 297 304
f 282 305 306
f 282 306 307
f 282 307 283
f 283 307 308
f 283 308 284
f 284 308 309
f 284 309 310
f 284 310 285
f 285 311 312
f 285 312 313
f 285 313 314
f 285 314 286
f 285 310 311
f 286 314 287
f 287 314 315
f 287 315 288
f 288 315 316
f 288 316 289
f 289 316 317
f 289 317 290
f 290 317 345
f 290 345 318
f 291 319 293
f 291 318 319
f 292 293 320
f 292 320 300
f 293 319 321
f 293 321 322
f 293 322 320
f 294 323 297
f 295 298 324
f 295 324 325
f 297 323 304
f 298 326 324
f 298 303 332
f 298 332 326
f 300 327 301
f 300 320 328
f 300 328 327
f 301 329 303
f 301 303 302
f 301 327 330
f 301 330 329
f 303 329 331
f 303 331 357
f 303 357 332
f 306 333 307
f 307 334 335
f 307 335 308
f 307 333 334
f 308 335 309
f 309 335 358
f 309 358 336
f 309 336 337
f 309 337 311
f 309 311 310
f 311 337 338
f 311 338 312
f 312 338 339
f 312 339 340
f 312 340 341
f 312 341 313
f 313 315 314
f 313 341 342
f 313 342 343
f 313 343 315
f 315 343 316
f 316 343 344
f 316 344 317
f 317 344 362
f 317 362 345
f 318 345 319
f 319 346 321
f 319 345 346
f 320 322 347
f 320 347 328
f 321 346 348
f 321 348 322
f 322 348 347
f 327 328 349
f 327 349 330
f 328 350 351
f 328 351 349
f 328 347 352
f 328 352 350
f 329 330 331
f 330 353 331
f 330 349 354
f 330 354 355
f 330 355 356
f 330 356 353
f 331 353 357
f 334 358 335
f 340 359 341
f 341 359 361
f 341 361 342
f 342 360 343
f 342 361 370
f 342 370 360
f 343 360 344
f 344 360 371
f 344 371 362
f 345 362 346
f 346 362 363
f 346 363 348
f 347 348 352
f 348 363 352
f 349 351 354
f 350 364 367
f 350 367 351
f 350 352 365
f 350 365 366
f 350 366 364
f 351 367 369
f 351 369 354
f 352 363 368
f 352 368 365
f 354 369 355
f 360 370 376
f 360 376 371
f 362 371 363
f 363 371 368
f 365 368 372
f 365 372 373
f 365 373 366
f 368 371 374
f 368 374 375
f 368 375 372
f 371 376 374
