# https://github.com/mikedh/trimesh
v 0.00611139 0.03040573 0.01243639
v 0.00611008 0.03029513 0.01270219
v 0.00611008 0.03020925 0.01290569
v 0.00611008 0.03002838 0.01332307
v 0.00611008 0.02988524 0.01364701
v 0.00611008 0.02971738 0.01400210
v 0.00611008 0.02961588 0.01421390
v 0.00611008 0.02940638 0.01464582
v 0.00611008 0.02935433 0.01475173
v 0.00611008 0.02924503 0.01496976
v 0.00611008 0.02907066 0.01530201
v 0.00611008 0.02896526 0.01549720
v 0.00611008 0.02874925 0.01589382
v 0.00611008 0.02868940 0.01600180
v 0.00611008 0.02849551 0.01634235
v 0.00611008 0.02834717 0.01659984
v 0.00611008 0.02805439 0.01709406
v 0.00611008 0.02798803 0.01720204
v 0.00611008 0.02775120 0.01757789
v 0.00611008 0.02730357 0.01827145
v 0.00611008 0.02709407 0.01857670
v 0.00611008 0.02676746 0.01904185
v 0.00611008 0.02669199 0.01914775
v 0.00611008 0.02653324 0.01936579
v 0.00611008 0.02620793 0.01980393
v 0.00611008 0.02596329 0.02012995
v 0.00611008 0.02566791 0.02049957
v 0.00611008 0.02537643 0.02085674
v 0.00611008 0.02510708 0.02118275
v 0.00611008 0.02478177 0.02156691
v 0.00611008 0.02468807 0.02167489
v 0.00611008 0.02449159 0.02189293
v 0.00611008 0.02416628 0.02225009
v 0.00611008 0.02386569 0.02257403
v 0.00611008 0.02354038 0.02291666
v 0.00611008 0.02321247 0.02324060
v 0.00611008 0.02310706 0.02334442
v 0.00611008 0.02288976 0.02355416
v 0.00611008 0.02244343 0.02398192
v 0.00611008 0.02222482 0.02418750
v 0.00611008 0.02186308 0.02451351
v 0.00611008 0.02175637 0.02460696
v 0.00611008 0.02153907 0.02479592
v 0.00611008 0.02115650 0.02512194
v 0.00611008 0.02083119 0.02539812
v 0.00611008 0.02047595 0.02568053
v 0.00611008 0.02009599 0.02597954
v 0.00611008 0.01977068 0.02622665
v 0.00611008 0.01933867 0.02655059
v 0.00611008 0.01908883 0.02673540
v 0.00611139 0.02733740 0.01243639
v 0.00611139 0.03049162 0.01223082
v 0.00567241 0.03029513 0.01270219
v -0.00472355 0.03002577 0.01332307
v 0.00242285 0.03002838 0.01332307
v 0.00047311 0.03029383 0.01270219
v 0.00177162 0.02988524 0.01364909
v 0.00437127 0.02971738 0.01400210
v -0.00212390 0.02971608 0.01400210
v 0.00502381 0.02940638 0.01464582
v 0.00242285 0.02924503 0.01496976
v 0.00437127 0.02907066 0.01530201
v 0.00177162 0.02874925 0.01589382
v -0.00537214 0.02834327 0.01659984
v 0.00502381 0.02834717 0.01659984
v -0.00277250 0.02805439 0.01709406
v -0.00537214 0.02784879 0.01741800
v 0.00437127 0.02754300 0.01789975
v -0.00017680 0.02731528 0.01824861
v -0.00607215 0.02729707 0.01827145
v -0.00212390 0.02709277 0.01857463
v 0.00372267 0.02709407 0.01857670
v -0.00472355 0.02676746 0.01903769
v 0.00567241 0.02653324 0.01936579
v 0.00567241 0.02620793 0.01980393
v -0.00212390 0.02596459 0.02012995
v 0.00567241 0.02566791 0.02049957
v -0.00602206 0.02566531 0.02049957
v 0.00372267 0.02510708 0.02118275
v -0.00407364 0.02478177 0.02156691
v 0.00502381 0.02449159 0.02189293
v 0.00567241 0.02416628 0.02225009
v 0.00567241 0.02386569 0.02257403
v 0.00307276 0.02354038 0.02291666
v -0.00277250 0.02321247 0.02324060
v -0.00667197 0.02288976 0.02355416
v -0.00667197 0.02222482 0.02418750
v -0.00667197 0.02186308 0.02451351
v -0.00667197 0.02153907 0.02479592
v -0.00667197 0.02115650 0.02512194
v -0.00667197 0.02083119 0.02539812
v -0.00602206 0.02047595 0.02568053
v -0.00602206 0.02009599 0.02597954
v -0.00667197 0.01977068 0.02622665
v -0.00602206 0.01933867 0.02655059
v -0.00472355 0.01908883 0.02673540
v 0.00611008 0.01908883 0.02315338
v 0.00611139 0.02947144 0.00552153
v 0.00611139 0.03062044 0.01190688
v 0.00437258 0.03062044 0.01190688
v -0.00472355 0.03062044 0.01190272
v -0.00667328 0.03062044 0.01190065
v -0.00602337 0.03048641 0.01222666
v -0.00667197 0.03002577 0.01332099
v -0.00407364 0.02988524 0.01364909
v -0.00407364 0.03028992 0.01270219
v -0.00602337 0.03039923 0.01243639
v -0.00667197 0.02940118 0.01463959
v -0.00082276 0.02940378 0.01464375
v -0.00602206 0.02988524 0.01364701
v -0.00147399 0.02924373 0.01496769
v -0.00212390 0.02906806 0.01530201
v 0.00047311 0.02906936 0.01530201
v -0.00407364 0.02906676 0.01530201
v -0.00342241 0.02874795 0.01588967
v -0.00602206 0.02834197 0.01659984
v -0.00667197 0.02805309 0.01709198
v -0.00602206 0.02856318 0.01621153
v -0.00667197 0.02729577 0.01827145
v -0.00667197 0.02709017 0.01857047
v -0.00537214 0.02709147 0.01857255
v -0.00667197 0.02676616 0.01903562
v -0.00667197 0.02652933 0.01936163
v -0.00667197 0.02620402 0.01980393
v -0.00602206 0.02596459 0.02012995
v -0.00667197 0.02596069 0.02012995
v -0.00667197 0.02537383 0.02085051
v -0.00667197 0.02510577 0.02117860
v -0.00667197 0.02478046 0.02156691
v -0.00602206 0.02448898 0.02189085
v -0.00667197 0.02416367 0.02224594
v -0.00667197 0.02386048 0.02256988
v -0.00212390 0.02353778 0.02291666
v 0.00047311 0.02353908 0.02291666
v -0.00667197 0.02321247 0.02323852
v -0.00707800 0.02284291 0.02351055
v -0.00707141 0.02218318 0.02415012
v -0.00705163 0.02150914 0.02477100
v -0.00701868 0.02082078 0.02538981
v -0.00667197 0.02009599 0.02597539
v -0.00667197 0.01933736 0.02655059
v -0.00667197 0.01908883 0.02673333
v -0.00667197 0.01908883 0.02331120
v -0.00667328 0.02962109 0.00552153
v 0.00611139 0.03238232 0.00552153
v 0.00611139 0.03081042 0.01140020
v 0.00502381 0.03081042 0.01140020
v -0.00342372 0.03080782 0.01140020
v -0.00667328 0.03080652 0.01140020
v -0.00706085 0.03059702 0.01184250
v -0.00709118 0.02998283 0.01322340
v -0.00667197 0.02988133 0.01364701
v -0.00602206 0.03028732 0.01270219
v -0.00710173 0.02935043 0.01453369
v -0.00667197 0.02924112 0.01496353
v -0.00602206 0.02924242 0.01496353
v -0.00472355 0.02924242 0.01496561
v -0.00602206 0.02906415 0.01530201
v -0.00667197 0.02874535 0.01588759
v -0.00707668 0.02801795 0.01703591
v -0.00701076 0.02730748 0.01823823
v -0.00701736 0.02536602 0.02084220
v -0.00705558 0.02475314 0.02153576
v -0.00667197 0.02448768 0.02189085
v -0.00707141 0.02412594 0.02220441
v -0.00667197 0.02353648 0.02291251
v -0.00708195 0.02349093 0.02286682
v -0.00716764 0.02306673 0.02308901
v -0.00716368 0.02241090 0.02373689
v -0.00714655 0.02174596 0.02437854
v -0.00711359 0.02107322 0.02501188
v -0.00711227 0.01967959 0.02615813
v -0.00694090 0.01908883 0.02668141
v -0.00687234 0.01908883 0.02337972
v -0.00669174 0.02962499 0.00552153
v 0.00307276 0.03238102 0.00552153
v 0.00177293 0.03237582 0.00555268
v 0.00567372 0.03237712 0.00555268
v 0.00611139 0.03237712 0.00555268
v 0.00611139 0.03104204 0.01075025
v 0.00437258 0.03104204 0.01075025
v -0.00147399 0.03103814 0.01075025
v -0.00602337 0.03103424 0.01075025
v -0.00602337 0.03117347 0.01035155
v -0.00667328 0.03128147 0.01002554
v -0.00706877 0.03125415 0.00994247
v -0.00713336 0.03067770 0.01140020
v -0.00715841 0.03008433 0.01270219
v -0.00716500 0.02947665 0.01400210
v -0.00716104 0.02882993 0.01530201
v -0.00709645 0.02869721 0.01580038
v -0.00667197 0.02906285 0.01530201
v -0.00718873 0.02764710 0.01725187
v -0.00709514 0.02741548 0.01789975
v -0.00707800 0.02672712 0.01898370
v -0.00714655 0.02813897 0.01659984
v -0.00711359 0.02613506 0.01971049
v -0.00714787 0.02435626 0.02177041
v -0.00711491 0.02499256 0.02109554
v -0.00716368 0.02371475 0.02243075
v -0.00732979 0.02307714 0.02244944
v -0.00732847 0.02242651 0.02309732
v -0.00732452 0.02177589 0.02374935
v -0.00730738 0.02112657 0.02439930
v -0.00727969 0.02047595 0.02504718
v -0.00720850 0.01986957 0.02574282
v -0.00718741 0.01917601 0.02636370
v -0.00714391 0.01908883 0.02651945
v -0.00720323 0.01908883 0.02371820
v -0.00715050 0.02976032 0.00552153
v -0.00537346 0.03237712 0.00552153
v -0.00602337 0.03237191 0.00555268
v 0.00242285 0.03226131 0.00620056
v 0.00611139 0.03226131 0.00620056
v 0.00611139 0.03117737 0.01035778
v 0.00177293 0.03117737 0.01035778
v 0.00372267 0.03128147 0.01003384
v -0.00667328 0.03145584 0.00945034
v -0.00713864 0.03132832 0.00945034
v -0.00702658 0.03186703 0.00789709
v -0.00731265 0.03022486 0.01140020
v -0.00733638 0.02957294 0.01270219
v -0.00734297 0.02892362 0.01400210
v -0.00734165 0.02827300 0.01530201
v -0.00732452 0.02762368 0.01659984
v -0.00727574 0.02697436 0.01789975
v -0.00718741 0.02634065 0.01919966
v -0.00712545 0.02695614 0.01849364
v -0.00720850 0.02572386 0.01989530
v -0.00727969 0.02502510 0.02049957
v -0.00731133 0.02437578 0.02114745
v -0.00732320 0.02372646 0.02179948
v -0.00735352 0.01982793 0.02504718
v -0.00735220 0.01917731 0.02569921
v -0.00735352 0.02567442 0.01919966
v -0.00735352 0.02502510 0.01984962
v -0.00720587 0.01908883 0.02636163
v -0.00734693 0.01908883 0.02439930
v -0.00732979 0.03022486 0.00552153
v -0.00602337 0.03237582 0.00552153
v -0.00667328 0.03235890 0.00552153
v -0.00667328 0.03224830 0.00620056
v -0.00602337 0.03225610 0.00620056
v -0.00537346 0.03225740 0.00620056
v -0.00667328 0.03212208 0.00685052
v 0.00567372 0.03212598 0.00685052
v 0.00611139 0.03221707 0.00641444
v 0.00611139 0.03128147 0.01003384
v 0.00611139 0.03139989 0.00964345
v 0.00567372 0.03145844 0.00945034
v 0.00611139 0.03158596 0.00901426
v 0.00567372 0.03164712 0.00880038
v -0.00017680 0.03164452 0.00880038
v -0.00602337 0.03164192 0.00880038
v -0.00602337 0.03179286 0.00825841
v -0.00667328 0.03187614 0.00793447
v -0.00717423 0.03141160 0.00880038
v -0.00731793 0.03087418 0.00945034
v -0.00708195 0.03191257 0.00750255
v -0.00714787 0.03198545 0.00685052
v -0.00667328 0.03197633 0.00750255
v -0.00735483 0.03022486 0.01075025
v -0.00735483 0.02957424 0.01205016
v -0.00735352 0.02697436 0.01724980
v -0.00732847 0.02632374 0.01854971
v -0.00735352 0.01908883 0.02569921
v -0.00735352 0.01908883 0.02504718
v -0.00735352 0.01917731 0.02439930
v -0.00733111 0.03022486 0.00555268
v -0.00735483 0.03087418 0.00552153
v -0.00717555 0.03209735 0.00552153
v -0.00717423 0.03204400 0.00620056
v -0.00017680 0.03198024 0.00750255
v 0.00611139 0.03207913 0.00706440
v 0.00611139 0.03212598 0.00685052
v 0.00611139 0.03145844 0.00945034
v 0.00611139 0.03164712 0.00880038
v 0.00047311 0.03179546 0.00826671
v -0.00017680 0.03187874 0.00794277
v -0.00732583 0.03152350 0.00685052
v -0.00735483 0.03087418 0.00880038
v -0.00735483 0.02892492 0.01243639
v -0.00735483 0.02892492 0.01140020
v -0.00735483 0.03022486 0.00620056
v -0.00735483 0.03152350 0.00552153
v -0.00717687 0.03209215 0.00555268
v -0.00735483 0.03152350 0.00620056
v 0.00567372 0.03198154 0.00750255
v 0.00611139 0.03198154 0.00750255
v 0.00611139 0.03179546 0.00826671
v 0.00611139 0.03187874 0.00794277
f 1 2 3
f 1 3 4
f 1 4 5
f 1 5 6
f 1 6 7
f 1 7 8
f 1 8 9
f 1 9 10
f 1 10 11
f 1 11 12
f 1 12 13
f 1 13 14
f 1 14 15
f 1 15 16
f 1 16 17
f 1 17 18
f 1 18 19
f 1 19 20
f 1 20 21
f 1 21 22
f 1 22 23
f 1 23 24
f 1 24 25
f 1 25 26
f 1 26 27
f 1 27 28
f 1 28 29
f 1 29 30
f 1 30 31
f 1 31 32
f 1 32 33
f 1 33 34
f 1 34 35
f 1 35 36
f 1 36 37
f 1 37 38
f 1 38 39
f 1 39 40
f 1 40 41
f 1 41 42
f 1 42 43
f 1 43 44
f 1 44 45
f 1 45 46
f 1 46 47
f 1 47 48
f 1 48 49
f 1 49 50
f 1 50 51
f 1 51 98
f 1 98 145
f 1 145 179
f 1 179 214
f 1 214 247
f 1 247 275
f 1 275 274
f 1 274 289
f 1 289 291
f 1 291 290
f 1 290 277
f 1 277 251
f 1 251 276
f 1 276 249
f 1 249 248
f 1 248 215
f 1 215 180
f 1 180 146
f 1 146 99
f 1 99 52
f 1 52 2
f 2 53 3
f 2 52 53
f 3 54 55
f 3 55 4
f 3 53 56
f 3 56 54
f 4 55 105
f 4 105 57
f 4 57 5
f 5 57 6
f 6 58 7
f 6 57 105
f 6 105 58
f 7 58 59
f 7 59 60
f 7 60 8
f 8 60 9
f 9 60 61
f 9 61 10
f 10 61 62
f 10 62 11
f 11 62 12
f 12 62 63
f 12 63 13
f 13 63 14
f 14 63 15
f 15 63 64
f 15 64 65
f 15 65 16
f 16 65 66
f 16 66 17
f 17 66 18
f 18 66 19
f 19 66 67
f 19 67 68
f 19 68 20
f 20 69 70
f 20 70 71
f 20 71 72
f 20 72 21
f 20 68 69
f 21 72 22
f 22 72 73
f 22 73 23
f 23 73 74
f 23 74 24
f 24 74 75
f 24 75 25
f 25 75 125
f 25 125 76
f 25 76 26
f 26 76 27
f 27 77 28
f 27 76 125
f 27 125 77
f 28 77 78
f 28 78 79
f 28 79 29
f 29 79 80
f 29 80 30
f 30 80 31
f 31 80 81
f 31 81 32
f 32 81 82
f 32 82 33
f 33 82 83
f 33 83 34
f 34 83 84
f 34 84 35
f 35 84 85
f 35 85 36
f 36 85 37
f 37 85 86
f 37 86 38
f 38 86 39
f 39 87 40
f 39 86 87
f 40 87 88
f 40 88 41
f 41 88 42
f 42 88 89
f 42 89 43
f 43 89 90
f 43 90 44
f 44 90 91
f 44 91 45
f 45 91 92
f 45 92 46
f 46 92 93
f 46 93 47
f 47 93 94
f 47 94 48
f 48 94 95
f 48 95 49
f 49 95 96
f 49 96 50
f 50 96 142
f 50 142 173
f 50 173 208
f 50 208 237
f 50 237 266
f 50 266 267
f 50 267 238
f 50 238 209
f 50 209 174
f 50 174 143
f 50 143 97
f 50 97 51
f 51 97 98
f 52 99 100
f 52 100 101
f 52 101 102
f 52 102 103
f 52 103 56
f 52 56 53
f 54 56 104
f 54 104 110
f 54 110 105
f 54 105 55
f 56 106 104
f 56 103 107
f 56 107 106
f 58 105 59
f 59 108 109
f 59 109 60
f 59 105 110
f 59 110 108
f 60 109 111
f 60 111 61
f 61 111 112
f 61 112 113
f 61 113 62
f 62 113 63
f 63 113 112
f 63 112 114
f 63 114 115
f 63 115 64
f 64 116 117
f 64 117 66
f 64 66 65
f 64 115 118
f 64 118 116
f 66 117 67
f 67 117 119
f 67 119 70
f 67 70 69
f 67 69 68
f 70 119 120
f 70 120 121
f 70 121 71
f 71 121 73
f 71 73 72
f 73 121 122
f 73 122 123
f 73 123 74
f 74 124 125
f 74 125 75
f 74 123 124
f 77 125 78
f 78 125 126
f 78 126 127
f 78 127 128
f 78 128 79
f 79 128 80
f 80 128 129
f 80 129 130
f 80 130 81
f 81 130 82
f 82 130 131
f 82 131 83
f 83 131 132
f 83 132 133
f 83 133 134
f 83 134 84
f 84 134 85
f 85 134 133
f 85 133 135
f 85 135 86
f 86 135 136
f 86 136 137
f 86 137 87
f 87 137 138
f 87 138 88
f 88 138 139
f 88 139 89
f 89 139 90
f 90 139 91
f 91 140 93
f 91 93 92
f 91 139 140
f 93 140 94
f 94 141 95
f 94 140 139
f 94 139 141
f 95 141 142
f 95 142 96
f 97 143 98
f 98 144 175
f 98 175 210
f 98 210 239
f 98 239 270
f 98 270 285
f 98 285 271
f 98 271 241
f 98 241 240
f 98 240 211
f 98 211 176
f 98 176 145
f 98 143 144
f 99 146 147
f 99 147 100
f 100 147 101
f 101 147 148
f 101 148 102
f 102 107 103
f 102 148 149
f 102 149 150
f 102 150 104
f 102 104 107
f 104 151 152
f 104 152 110
f 104 106 153
f 104 153 107
f 104 150 151
f 106 107 153
f 108 154 155
f 108 155 156
f 108 156 109
f 108 110 152
f 108 152 154
f 109 156 157
f 109 157 111
f 111 157 114
f 111 114 112
f 114 158 159
f 114 159 115
f 114 157 156
f 114 156 158
f 115 159 118
f 116 118 159
f 116 159 117
f 117 159 160
f 117 160 161
f 117 161 119
f 119 161 120
f 120 122 121
f 120 161 122
f 122 161 123
f 123 161 124
f 124 162 126
f 124 126 125
f 124 161 162
f 126 162 127
f 127 162 128
f 128 162 129
f 129 162 163
f 129 163 164
f 129 164 130
f 130 164 131
f 131 165 132
f 131 164 163
f 131 163 165
f 132 165 166
f 132 166 133
f 133 166 135
f 135 166 167
f 135 167 136
f 136 167 168
f 136 168 169
f 136 169 137
f 137 169 170
f 137 170 138
f 138 171 172
f 138 172 139
f 138 170 171
f 139 172 173
f 139 173 141
f 141 173 142
f 143 174 144
f 144 174 175
f 145 176 177
f 145 177 178
f 145 178 179
f 146 180 181
f 146 181 147
f 147 181 148
f 148 181 149
f 149 181 182
f 149 182 183
f 149 183 184
f 149 184 185
f 149 185 186
f 149 186 150
f 150 186 187
f 150 187 151
f 151 188 189
f 151 189 154
f 151 154 152
f 151 187 188
f 154 189 190
f 154 190 191
f 154 191 155
f 155 191 192
f 155 192 158
f 155 158 156
f 158 192 159
f 159 192 191
f 159 191 160
f 160 193 194
f 160 194 195
f 160 195 161
f 160 191 196
f 160 196 193
f 161 195 162
f 162 195 197
f 162 197 163
f 163 198 165
f 163 197 199
f 163 199 198
f 165 200 167
f 165 167 166
f 165 198 200
f 167 200 168
f 168 200 201
f 168 201 202
f 168 202 203
f 168 203 169
f 169 203 204
f 169 204 170
f 170 204 205
f 170 205 206
f 170 206 172
f 170 172 171
f 172 206 207
f 172 207 208
f 172 208 173
f 174 209 210
f 174 210 175
f 176 211 177
f 177 211 212
f 177 212 244
f 177 244 213
f 177 213 178
f 178 213 214
f 178 214 179
f 180 215 216
f 180 216 181
f 181 216 182
f 182 216 184
f 182 184 183
f 184 216 185
f 185 216 217
f 185 217 218
f 185 218 186
f 186 219 187
f 186 218 220
f 186 220 219
f 187 219 221
f 187 221 188
f 188 222 189
f 188 221 222
f 189 223 224
f 189 224 190
f 189 222 223
f 190 224 225
f 190 225 196
f 190 196 191
f 193 226 227
f 193 227 228
f 193 228 194
f 193 196 225
f 193 225 226
f 194 228 195
f 195 228 227
f 195 227 197
f 197 229 198
f 197 198 199
f 197 227 229
f 198 229 230
f 198 230 231
f 198 231 200
f 200 231 232
f 200 232 201
f 201 233 234
f 201 234 202
f 201 232 235
f 201 235 236
f 201 236 233
f 202 234 203
f 203 234 204
f 204 234 205
f 205 234 237
f 205 237 207
f 205 207 206
f 207 237 208
f 209 238 239
f 209 239 210
f 211 240 212
f 212 240 241
f 212 241 242
f 212 242 243
f 212 243 244
f 213 244 245
f 213 245 246
f 213 246 247
f 213 247 214
f 215 248 217
f 215 217 216
f 217 248 249
f 217 249 250
f 217 250 218
f 218 250 251
f 218 251 252
f 218 252 253
f 218 253 254
f 218 254 255
f 218 255 256
f 218 256 220
f 219 257 258
f 219 258 221
f 219 220 259
f 219 259 260
f 219 260 257
f 220 261 245
f 220 245 242
f 220 242 241
f 220 241 259
f 220 256 261
f 221 258 262
f 221 262 222
f 222 262 223
f 223 262 263
f 223 263 264
f 223 264 224
f 224 264 225
f 225 264 265
f 225 265 226
f 226 265 227
f 227 265 230
f 227 230 229
f 230 265 231
f 231 265 235
f 231 235 232
f 233 266 234
f 233 236 263
f 233 263 266
f 234 266 237
f 235 265 264
f 235 264 263
f 235 263 236
f 238 267 268
f 238 268 239
f 239 269 270
f 239 268 269
f 241 271 272
f 241 272 260
f 241 260 259
f 242 245 243
f 243 245 244
f 245 261 273
f 245 273 274
f 245 274 246
f 246 274 275
f 246 275 247
f 249 276 250
f 250 276 251
f 251 277 252
f 252 277 290
f 252 290 278
f 252 278 253
f 253 278 254
f 254 278 255
f 255 278 279
f 255 279 256
f 256 279 261
f 257 260 258
f 258 260 280
f 258 280 281
f 258 281 262
f 260 272 280
f 261 279 273
f 262 281 287
f 262 287 285
f 262 285 270
f 262 270 284
f 262 284 283
f 262 283 282
f 262 282 263
f 263 282 266
f 266 282 283
f 266 283 267
f 267 283 268
f 268 283 284
f 268 284 269
f 269 284 270
f 271 286 272
f 271 285 287
f 271 287 286
f 272 287 280
f 272 286 287
f 273 288 274
f 273 279 288
f 274 288 289
f 278 290 291
f 278 291 279
f 279 291 289
f 279 289 288
f 280 287 281
