# https://github.com/mikedh/trimesh
v 0.01608433 -0.02678963 0.01361311
v 0.01369334 -0.02675954 0.01361311
v 0.01608433 -0.02911813 0.01361311
v 0.01608433 -0.02893328 -0.00039388
v 0.00567365 -0.01821361 -0.02734151
v 0.00568054 -0.01821361 -0.02724530
v 0.00568054 -0.01821361 -0.02404622
v 0.00567365 -0.01821361 -0.02399812
v -0.00666909 -0.02764652 0.01198952
v -0.00713490 -0.02780128 0.01198952
v -0.00714636 -0.02782707 0.01198952
v -0.00730929 -0.02827127 0.01198952
v -0.00732764 -0.02833145 0.01198952
v 0.01369104 -0.02676957 0.01361311
v 0.00563235 -0.01821361 -0.02399812
v -0.00667138 -0.01821361 -0.02400212
v -0.00700639 -0.01821361 -0.02401014
v 0.01607974 -0.02971422 0.01361311
v 0.01608433 -0.02981739 0.01332848
v 0.01608433 -0.03215018 -0.00039388
v 0.01369334 -0.02869828 -0.00860004
v 0.01335144 -0.02701603 -0.00860004
v 0.00568054 -0.01826376 -0.02730944
v 0.00567365 -0.01825946 -0.02731345
v -0.00667138 -0.01821361 -0.02734151
v 0.01369334 -0.03165439 -0.00860004
v -0.00718766 -0.01821361 -0.02436292
v -0.00733682 -0.01821361 -0.02499632
v -0.00735288 -0.02892468 0.01198952
v -0.00735747 -0.01821361 -0.02564576
v 0.01369104 -0.02987614 0.01361311
v 0.01558181 -0.02976294 0.01361311
v 0.01477180 -0.03019712 0.01269508
v 0.01458824 -0.03056681 0.01176903
v 0.01608433 -0.02991483 0.01306390
v 0.01608433 -0.03215305 -0.00029767
v 0.01554050 -0.03241671 -0.00029767
v 0.01553821 -0.03241384 -0.00039388
v 0.01369334 -0.03221610 -0.00614661
v 0.01369334 -0.03208857 -0.00680006
v 0.01369334 -0.03186217 -0.00782232
v 0.01369334 -0.03182921 -0.00795862
v 0.00568054 -0.01936854 -0.02652771
v 0.00567365 -0.01904327 -0.02676023
v -0.00667138 -0.01825946 -0.02731345
v -0.00703164 -0.01824084 -0.02729741
v -0.00703852 -0.01821361 -0.02730543
v 0.01347076 -0.03167875 -0.00860004
v 0.00568054 -0.02925425 -0.01493005
v 0.00568054 -0.02908087 -0.01525878
v 0.00568054 -0.02876133 -0.01586412
v 0.00568054 -0.02858222 -0.01619685
v 0.00568054 -0.02837158 -0.01654963
v 0.00568054 -0.02786576 -0.01738749
v 0.00568054 -0.02757201 -0.01784851
v 0.00568054 -0.02733128 -0.01821331
v 0.00568054 -0.02678533 -0.01901108
v 0.00568054 -0.02655463 -0.01933981
v 0.00568054 -0.02623366 -0.01976876
v 0.00568054 -0.02598290 -0.02010149
v 0.00568054 -0.02540543 -0.02083111
v 0.00568054 -0.02512315 -0.02115984
v 0.00568054 -0.02480217 -0.02152865
v 0.00568054 -0.02451272 -0.02185738
v 0.00568054 -0.02419175 -0.02221818
v 0.00568054 -0.02388510 -0.02254690
v 0.00568054 -0.02355840 -0.02288365
v 0.00568054 -0.02323886 -0.02320837
v 0.00568054 -0.02291788 -0.02352908
v 0.00568054 -0.02257685 -0.02385780
v 0.00568054 -0.02225444 -0.02415446
v 0.00568054 -0.02189048 -0.02448319
v 0.00568054 -0.02156951 -0.02477183
v 0.00568054 -0.02118549 -0.02510056
v 0.00568054 -0.02086308 -0.02536514
v 0.00568054 -0.02012942 -0.02595445
v 0.00568054 -0.01980845 -0.02619899
v -0.00735288 -0.02957523 0.01198952
v -0.00735747 -0.01852742 -0.02499632
v -0.00735747 -0.02957379 -0.00939781
v -0.00735747 -0.03022291 -0.00860806
v -0.00735747 -0.01917653 -0.02564576
v -0.00734370 -0.01821361 -0.02629520
v 0.01412243 -0.02986038 0.01361311
v -0.00735059 -0.02963254 0.01198952
v -0.00718766 -0.03025300 0.01198952
v -0.00717161 -0.03029599 0.01198952
v -0.00714178 -0.03035474 0.01198952
v -0.00690314 -0.03054961 0.01198952
v -0.00666909 -0.03057970 0.01198952
v -0.00648322 -0.03058114 0.01198952
v 0.01369104 -0.02997071 0.01340064
v 0.01485441 -0.02981882 0.01361311
v 0.01477180 -0.02998361 0.01322826
v 0.01412243 -0.03025157 0.01269508
v 0.01412243 -0.03046507 0.01215789
v 0.01412243 -0.03058974 0.01182917
v 0.01412243 -0.03074736 0.01139220
v 0.01412243 -0.03097089 0.01074276
v 0.01479016 -0.03065278 0.01144031
v 0.01502192 -0.03053815 0.01168485
v 0.01608433 -0.03003663 0.01270711
v 0.01608433 -0.03215305 -0.00027762
v 0.01554280 -0.03241527 0.00035177
v 0.01521696 -0.03254424 0.00035177
v 0.01521696 -0.03254280 -0.00029767
v 0.01521467 -0.03254280 -0.00039388
v 0.01369334 -0.03248692 -0.00461522
v 0.01369334 -0.03233360 -0.00549717
v 0.01347076 -0.03224332 -0.00614661
v 0.01347076 -0.03211293 -0.00680006
v 0.01347076 -0.03187076 -0.00785439
v 0.01347076 -0.03196820 -0.00744549
v 0.01347076 -0.03178766 -0.00817911
v 0.00567365 -0.01980558 -0.02620299
v -0.00602200 -0.01936854 -0.02652771
v -0.00667138 -0.01904327 -0.02676023
v -0.00667138 -0.01936854 -0.02652370
v -0.00667138 -0.01980558 -0.02619899
v -0.00703393 -0.02084158 -0.02535311
v -0.00708900 -0.01898022 -0.02671212
v -0.00720833 -0.01821361 -0.02694063
v -0.00714407 -0.01848443 -0.02693662
v 0.01282138 -0.03179625 -0.00821519
v 0.01282138 -0.03169595 -0.00860004
v 0.00568054 -0.03049803 -0.01219199
v 0.00568054 -0.03031175 -0.01264900
v 0.00567365 -0.03003663 -0.01328240
v 0.00568054 -0.02989047 -0.01360712
v 0.00568054 -0.02973428 -0.01395188
v 0.00568054 -0.02942334 -0.01459731
v -0.00667138 -0.02925282 -0.01493406
v -0.00667138 -0.02875703 -0.01587213
v -0.00602200 -0.02858222 -0.01619685
v -0.00602200 -0.02837158 -0.01654963
v -0.00667138 -0.02806206 -0.01706277
v -0.00602200 -0.02786576 -0.01738749
v -0.00602200 -0.02757201 -0.01784851
v -0.00667138 -0.02732984 -0.01821331
v -0.00667138 -0.02678103 -0.01901509
v -0.00212116 -0.02655463 -0.01933981
v 0.00502428 -0.02598290 -0.02010149
v 0.00567365 -0.02540257 -0.02083512
v -0.00602200 -0.02512315 -0.02115984
v -0.00667138 -0.02480647 -0.02152464
v -0.00667138 -0.02451272 -0.02185738
v -0.00667138 -0.02418889 -0.02222219
v -0.00667138 -0.02388510 -0.02254690
v -0.00667138 -0.02355840 -0.02288365
v -0.00667138 -0.02323886 -0.02320837
v 0.00567365 -0.02291502 -0.02353309
v -0.00667138 -0.02257685 -0.02385780
v -0.00667138 -0.02189048 -0.02448319
v 0.00567365 -0.02156521 -0.02477584
v -0.00667138 -0.02118549 -0.02510056
v -0.00667138 -0.02086021 -0.02536915
v -0.00602200 -0.02012942 -0.02595445
v -0.00735059 -0.03022434 0.01074276
v -0.00735747 -0.03087202 -0.00860806
v -0.00735288 -0.03022434 0.01009733
v -0.00733223 -0.01852742 -0.02629520
v -0.00731846 -0.02112674 -0.02434689
v -0.00733682 -0.02242639 -0.02304801
v -0.00735747 -0.02567482 -0.01914738
v 0.01477180 -0.02982456 0.01361311
v 0.01412243 -0.03000940 0.01327236
v -0.00730929 -0.03022434 0.01139621
v -0.00713030 -0.03067714 0.01139621
v -0.00705687 -0.03059690 0.01183718
v -0.00666909 -0.03061983 0.01189732
v -0.00453510 -0.03058257 0.01198952
v 0.01369104 -0.03001943 0.01328839
v 0.00242448 -0.03058400 0.01198952
v 0.00581822 -0.03058400 0.01198952
v 0.01369104 -0.03019138 0.01289152
v 0.01369104 -0.03027306 0.01269508
v 0.01369104 -0.03047653 0.01218996
v 0.01369104 -0.03060263 0.01186124
v 0.01369104 -0.03072300 0.01154454
v 0.01369104 -0.03092934 0.01096726
v 0.01369104 -0.03110129 0.01046615
v 0.01412243 -0.03113854 0.01022963
v 0.01477180 -0.03088492 0.01074276
v 0.01608433 -0.03024440 0.01205767
v 0.01608433 -0.03215162 0.00035177
v 0.01607056 -0.03215878 0.00035177
v 0.01607056 -0.03213872 0.00100121
v 0.01551526 -0.03240524 0.00100121
v 0.01519172 -0.03253421 0.00100121
v 0.01477180 -0.03267176 0.00035177
v 0.01477180 -0.03267176 -0.00029767
v 0.01477180 -0.03266890 -0.00039388
v 0.01369334 -0.03251271 -0.00443482
v 0.01333767 -0.03250985 -0.00459919
v 0.01352124 -0.03246399 -0.00483170
v 0.01347076 -0.03236082 -0.00549717
v 0.01282138 -0.03226195 -0.00614661
v 0.01282138 -0.03213442 -0.00680006
v 0.01282138 -0.03238232 -0.00549717
v 0.01282138 -0.03199113 -0.00744549
v 0.01282138 -0.03187936 -0.00789047
v -0.00602200 -0.01980558 -0.02620299
v -0.00667138 -0.02012942 -0.02595044
v -0.00711653 -0.01970385 -0.02612282
v -0.00667138 -0.02156521 -0.02477584
v -0.00706835 -0.02152795 -0.02473976
v -0.00719455 -0.01918800 -0.02632326
v 0.00582510 -0.03169738 -0.00860405
v 0.01169702 -0.03169738 -0.00860004
v 0.00568054 -0.03147241 -0.00939781
v 0.00568054 -0.03128613 -0.00998711
v 0.00568054 -0.03118010 -0.01031985
v 0.00568054 -0.03105543 -0.01070069
v 0.00568054 -0.03082187 -0.01135013
v -0.00602200 -0.03049803 -0.01219199
v -0.00602200 -0.03031175 -0.01264900
v -0.00667138 -0.03003663 -0.01328240
v -0.00602200 -0.02989047 -0.01360712
v -0.00602200 -0.02973428 -0.01395188
v -0.00667138 -0.02942334 -0.01459731
v -0.00700181 -0.02925139 -0.01493005
v -0.00667138 -0.02857935 -0.01619685
v -0.00702475 -0.02731981 -0.01820129
v -0.00667138 -0.02786146 -0.01738749
v -0.00667138 -0.02756771 -0.01784851
v -0.00667138 -0.02655320 -0.01933981
v -0.00602200 -0.02540113 -0.02083512
v 0.00242448 -0.02540257 -0.02083512
v -0.00602200 -0.02622936 -0.01976876
v -0.00667138 -0.02512315 -0.02115582
v -0.00703852 -0.02538251 -0.02081106
v -0.00706376 -0.02476492 -0.02149658
v -0.00708212 -0.02414160 -0.02217408
v -0.00708900 -0.02350538 -0.02282753
v -0.00709130 -0.02286057 -0.02348097
v -0.00667138 -0.02291502 -0.02353309
v -0.00708212 -0.02220142 -0.02411036
v -0.00735059 -0.03087345 0.00879445
v -0.00731617 -0.03087345 0.00944389
v -0.00735747 -0.03087202 -0.00874837
v -0.00735059 -0.03217311 0.00034776
v -0.00735288 -0.03152400 0.00554727
v -0.00735288 -0.03087345 0.00814501
v -0.00729322 -0.02047619 -0.02499632
v -0.00716243 -0.02175722 -0.02433486
v -0.00717849 -0.02242066 -0.02369745
v -0.00718078 -0.02307551 -0.02304401
v -0.00733682 -0.02307551 -0.02239457
v -0.00729552 -0.02502571 -0.02044626
v -0.00733223 -0.02632393 -0.01849394
v -0.00735747 -0.02697305 -0.01719907
v -0.00733223 -0.02372462 -0.02174513
v -0.00731617 -0.02437660 -0.02109569
v -0.00713490 -0.03132769 0.00944389
v -0.00706605 -0.03125318 0.00993698
v -0.00666909 -0.03080467 0.01139621
v -0.00601971 -0.03080611 0.01139621
v 0.00567136 -0.03080897 0.01139621
v 0.00112572 -0.03061983 0.01190133
v 0.00582510 -0.03061983 0.01190133
v 0.01282138 -0.03117580 0.01035390
v 0.01347076 -0.03114571 0.01038196
v 0.01347076 -0.03116720 0.01032183
v 0.01369104 -0.03122738 0.01007729
v 0.01369104 -0.03126177 0.00996905
v 0.01412243 -0.03124028 0.00990892
v 0.01452628 -0.03121305 0.00982072
v 0.01475345 -0.03109842 0.01006125
v 0.01583880 -0.03056824 0.01113563
v 0.01608433 -0.03044358 0.01138819
v 0.01608433 -0.03213155 0.00100121
v 0.01608433 -0.03209573 0.00165064
v 0.01547166 -0.03238662 0.00165064
v 0.01477180 -0.03265314 0.00100121
v 0.01514583 -0.03251558 0.00165064
v 0.01412243 -0.03277350 0.00100121
v 0.01412243 -0.03279070 0.00035177
v 0.01412243 -0.03279070 -0.00029767
v 0.01412243 -0.03278927 -0.00039388
v 0.01369334 -0.03275201 -0.00202950
v 0.01369334 -0.03270186 -0.00267894
v 0.01369334 -0.03268037 -0.00289943
v 0.01369334 -0.03263738 -0.00332437
v 0.01369334 -0.03261159 -0.00356089
v 0.01352124 -0.03254567 -0.00425843
v 0.01347076 -0.03263594 -0.00354886
v 0.01282138 -0.03246972 -0.00496800
v 0.01282138 -0.03257433 -0.00419830
v 0.00582510 -0.03226195 -0.00615062
v 0.01216971 -0.03213586 -0.00680006
v 0.01216971 -0.03247116 -0.00496399
v 0.00582739 -0.03240381 -0.00537290
v -0.00601971 -0.03238232 -0.00549717
v 0.00582739 -0.03202552 -0.00729315
v -0.00666909 -0.03199113 -0.00744549
v 0.00582739 -0.03190659 -0.00778624
v -0.00584532 -0.03169738 -0.00860806
v -0.00713490 -0.02108518 -0.02497227
v 0.00568054 -0.03165869 -0.00874837
v -0.00147407 -0.03147385 -0.00939781
v -0.00602200 -0.03118010 -0.01031985
v -0.00602200 -0.03147385 -0.00939781
v -0.00602200 -0.03105543 -0.01070069
v -0.00602200 -0.03082187 -0.01135013
v -0.00667138 -0.03062269 -0.01186727
v -0.00667138 -0.03030315 -0.01264900
v -0.00706376 -0.03059833 -0.01180313
v -0.00667138 -0.02973285 -0.01395188
v -0.00709818 -0.02999077 -0.01317817
v -0.00708212 -0.02933450 -0.01459731
v -0.00710277 -0.02870401 -0.01577191
v -0.00707982 -0.02802481 -0.01699863
v -0.00708670 -0.02673661 -0.01895095
v -0.00667138 -0.02622793 -0.01976475
v -0.00667138 -0.02539970 -0.02083111
v -0.00711653 -0.02615055 -0.01966853
v -0.00713490 -0.02499848 -0.02105560
v -0.00707753 -0.02480647 -0.02142041
v -0.00717620 -0.02372462 -0.02239056
v -0.00716243 -0.02436513 -0.02172508
v -0.00735059 -0.03152400 0.00619670
v -0.00732305 -0.03152400 0.00684614
v -0.00717161 -0.03141080 0.00879445
v -0.00714407 -0.03198540 0.00684614
v -0.00732076 -0.03087202 -0.00939781
v -0.00732994 -0.03152256 -0.00680006
v -0.00735059 -0.03152256 -0.00615062
v -0.00735288 -0.03152256 -0.00549717
v -0.00735059 -0.03217311 -0.00095112
v -0.00735747 -0.03022291 -0.01070069
v -0.00717161 -0.03267176 0.00034776
v -0.00733912 -0.03217311 0.00164663
v -0.00719455 -0.02635116 -0.01915941
v -0.00728404 -0.02697305 -0.01784851
v -0.00732764 -0.02762359 -0.01654963
v -0.00734370 -0.02827270 -0.01524675
v -0.00735059 -0.02892325 -0.01395188
v -0.00735747 -0.02762359 -0.01590020
v -0.00707753 -0.03191232 0.00749558
v -0.00702245 -0.03186646 0.00789245
v -0.00666909 -0.03145665 0.00944389
v -0.00666909 -0.03128040 0.01002117
v -0.00601971 -0.03117293 0.01034588
v -0.00406929 -0.03117437 0.01034989
v 0.00582510 -0.03104110 0.01074276
v 0.00582510 -0.03080897 0.01139621
v 0.01221790 -0.03116720 0.01038196
v 0.01156852 -0.03116863 0.01038196
v 0.01216971 -0.03117723 0.01035390
v 0.01216971 -0.03128183 0.01002918
v 0.01282138 -0.03128040 0.01002517
v 0.01347076 -0.03127180 0.00999711
v 0.01347076 -0.03144089 0.00944389
v 0.01369104 -0.03137354 0.00960023
v 0.01369104 -0.03142083 0.00944389
v 0.01412243 -0.03137928 0.00944389
v 0.01412243 -0.03155982 0.00879445
v 0.01475345 -0.03127180 0.00944790
v 0.01495996 -0.03117150 0.00966838
v 0.01608433 -0.03054102 0.01103942
v 0.01608433 -0.03204415 0.00231211
v 0.01536152 -0.03237802 0.00226801
v 0.01510911 -0.03250268 0.00202748
v 0.01477180 -0.03261732 0.00165064
v 0.01412243 -0.03274198 0.00165064
v 0.01347076 -0.03279643 0.00165064
v 0.01369334 -0.03280789 0.00100121
v 0.01369334 -0.03282366 0.00034776
v 0.01369334 -0.03282366 -0.00030168
v 0.01369334 -0.03281363 -0.00073063
v 0.01369334 -0.03280789 -0.00094711
v 0.01369334 -0.03279070 -0.00138006
v 0.01369334 -0.03278067 -0.00160055
v 0.01347076 -0.03275488 -0.00224999
v 0.01347076 -0.03270186 -0.00289943
v 0.01282138 -0.03265457 -0.00354886
v -0.00666909 -0.03265457 -0.00354886
v -0.00666909 -0.03257290 -0.00419830
v -0.00601971 -0.03247116 -0.00496800
v 0.00582510 -0.03247116 -0.00496800
v -0.00601971 -0.03226195 -0.00615062
v -0.00666909 -0.03213586 -0.00680006
v -0.00666909 -0.03246256 -0.00496800
v -0.00666909 -0.03225192 -0.00615062
v -0.00702705 -0.03186933 -0.00785038
v -0.00666909 -0.03187936 -0.00789047
v -0.00602200 -0.03169738 -0.00860806
v -0.00602200 -0.03165869 -0.00874837
v -0.00667138 -0.03128470 -0.00999112
v -0.00667138 -0.03147241 -0.00939781
v -0.00667138 -0.03104827 -0.01070069
v -0.00667138 -0.03082043 -0.01135013
v -0.00707065 -0.03125604 -0.00990292
v -0.00713490 -0.03068431 -0.01135013
v -0.00716243 -0.03009681 -0.01264900
v -0.00716931 -0.02948925 -0.01395188
v -0.00726339 -0.02892325 -0.01459731
v -0.00714866 -0.02815807 -0.01654963
v -0.00718996 -0.02765225 -0.01720709
v -0.00710506 -0.02743015 -0.01784851
v -0.00713948 -0.02696158 -0.01844984
v -0.00732764 -0.03217311 0.00229607
v -0.00730469 -0.03217311 0.00294551
v -0.00727257 -0.03217311 0.00359495
v -0.00717161 -0.03204271 0.00619670
v -0.00709359 -0.03257146 0.00359495
v -0.00704770 -0.03253421 0.00424438
v -0.00700869 -0.03250841 0.00463324
v -0.00713948 -0.03133485 -0.00939781
v -0.00717620 -0.03141940 -0.00874837
v -0.00731387 -0.03022291 -0.01135013
v -0.00715096 -0.03199113 -0.00680006
v -0.00717161 -0.03204558 -0.00615062
v -0.00727716 -0.03217311 -0.00354886
v -0.00730699 -0.03217311 -0.00289943
v -0.00732764 -0.03217311 -0.00224999
v -0.00734140 -0.03217311 -0.00160055
v -0.00716702 -0.03266460 -0.00095112
v -0.00716931 -0.03267033 -0.00030168
v -0.00734140 -0.02957379 -0.01264900
v -0.00666909 -0.03284515 0.00034776
v -0.00716702 -0.03266317 0.00100121
v -0.00666909 -0.03212153 0.00684614
v -0.00666909 -0.03197537 0.00749558
v -0.00666909 -0.03187650 0.00792853
v -0.00537034 -0.03145808 0.00944389
v -0.00601971 -0.03164293 0.00879445
v -0.00537034 -0.03128183 0.01002117
v -0.00082240 -0.03117580 0.01034989
v 0.00567136 -0.03117723 0.01035390
v 0.01087325 -0.03117723 0.01035791
v 0.01152034 -0.03117723 0.01035791
v 0.00582510 -0.03128327 0.01002918
v 0.01216971 -0.03146238 0.00944389
v 0.01282138 -0.03146095 0.00944389
v 0.01282138 -0.03164866 0.00879445
v 0.01347076 -0.03162717 0.00879445
v 0.01382413 -0.03185213 0.00783633
v 0.01407424 -0.03175040 0.00808889
v 0.01477180 -0.03144089 0.00879445
v 0.01521008 -0.03122882 0.00923543
v 0.01608433 -0.03061409 0.01076682
v 0.01608433 -0.03196964 0.00303771
v 0.01541889 -0.03228488 0.00294551
v 0.01503798 -0.03248119 0.00246043
v 0.01480164 -0.03256286 0.00226801
v 0.01412243 -0.03269469 0.00230008
v 0.01347076 -0.03275488 0.00230008
v 0.01282138 -0.03281076 0.00165064
v 0.01347076 -0.03282366 0.00100121
v 0.01347076 -0.03283942 0.00034776
v 0.01347076 -0.03283942 -0.00030168
v 0.01347076 -0.03282509 -0.00094711
v 0.01347076 -0.03279786 -0.00160055
v 0.01282138 -0.03276634 -0.00224999
v 0.01282138 -0.03271762 -0.00289943
v -0.00666909 -0.03271762 -0.00289943
v -0.00700869 -0.03250841 -0.00459919
v -0.00666909 -0.03251415 -0.00463928
v -0.00708670 -0.03191948 -0.00744549
v -0.00667138 -0.03165010 -0.00874837
v -0.00716013 -0.03265027 0.00164663
v -0.00714636 -0.03263164 0.00229607
v -0.00712572 -0.03260442 0.00294551
v -0.00666909 -0.03276634 0.00229607
v -0.00666909 -0.03271189 0.00294551
v -0.00666909 -0.03264597 0.00359495
v -0.00666909 -0.03257003 0.00424438
v -0.00666909 -0.03251415 0.00466531
v -0.00666909 -0.03224762 0.00619670
v -0.00704770 -0.03253564 -0.00419830
v -0.00709818 -0.03257719 -0.00354886
v -0.00712801 -0.03260728 -0.00289943
v -0.00714636 -0.03263164 -0.00224999
v -0.00715784 -0.03264884 -0.00172884
v -0.00716013 -0.03265314 -0.00160055
v -0.00666909 -0.03283082 -0.00095112
v -0.00666909 -0.03284085 -0.00030168
v -0.00212116 -0.03284802 0.00034776
v -0.00341991 -0.03283225 0.00100121
v -0.00666909 -0.03282939 0.00100121
v -0.00601971 -0.03225765 0.00619670
v -0.00146948 -0.03212582 0.00684614
v -0.00277053 -0.03197967 0.00749558
v -0.00537034 -0.03197680 0.00749558
v -0.00277053 -0.03187793 0.00793254
v -0.00601971 -0.03179196 0.00825325
v 0.00112572 -0.03146095 0.00944389
v 0.00502198 -0.03165010 0.00879445
v 0.00177740 -0.03179482 0.00826127
v 0.00112572 -0.03128327 0.01002517
v 0.00437031 -0.03128327 0.01002918
v 0.01022388 -0.03146238 0.00944389
v 0.01216971 -0.03165010 0.00879445
v 0.01282138 -0.03179339 0.00826127
v 0.01347076 -0.03178192 0.00821316
v 0.01369104 -0.03185787 0.00785637
v 0.01369104 -0.03189369 0.00770805
v 0.01347076 -0.03210433 0.00684614
v 0.01412243 -0.03202838 0.00684614
v 0.01407424 -0.03189512 0.00747954
v 0.01426011 -0.03181775 0.00768800
v 0.01477180 -0.03160138 0.00814100
v 0.01564376 -0.03117007 0.00899489
v 0.01607056 -0.03078891 0.01009332
v 0.01608433 -0.03078174 0.01010535
v 0.01608433 -0.03190659 0.00359495
v 0.01597189 -0.03196247 0.00359495
v 0.01541889 -0.03220607 0.00359495
v 0.01494161 -0.03245683 0.00294551
v 0.01461806 -0.03254280 0.00294551
v 0.01412243 -0.03263451 0.00294551
v 0.01347076 -0.03269899 0.00294551
v 0.01282138 -0.03271762 0.00294551
v 0.01282138 -0.03275201 0.00252458
v 0.01282138 -0.03276921 0.00230008
v 0.01087325 -0.03281076 0.00165064
v 0.01216971 -0.03283799 0.00100121
v 0.01282138 -0.03283655 0.00100121
v 0.01216971 -0.03277064 0.00230008
v 0.01282138 -0.03285088 0.00034776
v 0.01282138 -0.03284945 -0.00030168
v 0.01282138 -0.03283512 -0.00094711
v 0.01282138 -0.03280933 -0.00160055
v -0.00666909 -0.03276490 -0.00224999
v -0.00666909 -0.03280216 0.00164663
v -0.00082240 -0.03276921 0.00229607
v -0.00212116 -0.03271475 0.00294551
v 0.00632532 -0.03265314 0.00359895
v 0.00047635 -0.03257433 0.00424438
v -0.00017532 -0.03251558 0.00467734
v -0.00537034 -0.03244823 0.00508224
v -0.00601971 -0.03237085 0.00554727
v -0.00666909 -0.03280789 -0.00160055
v -0.00537034 -0.03283225 -0.00095112
v 0.01216971 -0.03284945 -0.00030168
v 0.01022158 -0.03285231 0.00034776
v 0.00567136 -0.03237802 0.00554727
v 0.00242448 -0.03226195 0.00619670
v 0.00632532 -0.03212869 0.00684614
v 0.00582510 -0.03209430 0.00700249
v 0.00502198 -0.03198253 0.00749558
v 0.00957450 -0.03198396 0.00749558
v 0.00697470 -0.03187936 0.00793655
v 0.00502198 -0.03187793 0.00794056
v 0.00437031 -0.03179482 0.00826528
v 0.00582510 -0.03179482 0.00826528
v 0.01216971 -0.03179482 0.00826127
v 0.01216971 -0.03187936 0.00793655
v 0.01282138 -0.03187793 0.00793254
v 0.01347076 -0.03186646 0.00788845
v 0.01347076 -0.03195960 0.00749558
v 0.01282138 -0.03212726 0.00684614
v 0.01282138 -0.03226052 0.00619670
v 0.01347076 -0.03223616 0.00619670
v 0.01282138 -0.03198396 0.00749558
v 0.01449186 -0.03187793 0.00723099
v 0.01412243 -0.03215878 0.00619670
v 0.01453317 -0.03186933 0.00723099
v 0.01474886 -0.03175900 0.00747954
v 0.01456300 -0.03186217 0.00723099
v 0.01608433 -0.03093507 0.00945591
v 0.01541889 -0.03142370 0.00814100
v 0.01580209 -0.03121735 0.00856194
v 0.01608433 -0.03182348 0.00424438
v 0.01588929 -0.03191805 0.00424438
v 0.01581127 -0.03187936 0.00478558
v 0.01541889 -0.03211723 0.00424438
v 0.01477180 -0.03233646 0.00424438
v 0.01474886 -0.03242817 0.00362301
v 0.01451710 -0.03251558 0.00341856
v 0.01415455 -0.03255427 0.00362301
v 0.01395951 -0.03252418 0.00411209
v 0.01347076 -0.03263308 0.00359895
v 0.01282138 -0.03265314 0.00359895
v 0.01216971 -0.03271905 0.00294551
v 0.00582739 -0.03277064 0.00230008
v 0.00372323 -0.03277064 0.00229607
v 0.01216971 -0.03285231 0.00034776
v 0.01216971 -0.03283512 -0.00094711
v 0.01022388 -0.03271905 0.00294551
v 0.00177740 -0.03271618 0.00294551
v 0.01152034 -0.03265457 0.00359895
v 0.00582739 -0.03257433 0.00424839
v 0.00582510 -0.03256143 0.00434861
v 0.00112572 -0.03251558 0.00468135
v 0.00582510 -0.03245396 0.00508224
v 0.01152034 -0.03237945 0.00554727
v 0.01216971 -0.03226195 0.00619670
v 0.01216971 -0.03212869 0.00684614
v 0.01282138 -0.03237802 0.00554727
v 0.01347076 -0.03235366 0.00554727
v 0.01477180 -0.03201406 0.00619670
v 0.01412243 -0.03227628 0.00554727
v 0.01474886 -0.03190229 0.00679803
v 0.01485441 -0.03178479 0.00723099
v 0.01608433 -0.03106976 0.00882251
v 0.01495308 -0.03180915 0.00698244
v 0.01511370 -0.03185357 0.00655349
v 0.01608433 -0.03172031 0.00499003
v 0.01604761 -0.03174323 0.00496197
v 0.01608433 -0.03164293 0.00554727
v 0.01574472 -0.03184784 0.00521854
v 0.01548543 -0.03198683 0.00496197
v 0.01477180 -0.03223902 0.00489382
v 0.01439090 -0.03248835 0.00385151
v 0.01415455 -0.03246686 0.00429650
v 0.01374611 -0.03249408 0.00454505
v 0.01369104 -0.03250555 0.00449293
v 0.01350518 -0.03254424 0.00429650
v 0.01331243 -0.03250985 0.00464527
v 0.01282138 -0.03257433 0.00424839
v 0.01216971 -0.03265457 0.00359895
v 0.00582739 -0.03256143 0.00434861
v 0.00827345 -0.03251558 0.00468536
v 0.01152034 -0.03246542 0.00501008
v 0.01282138 -0.03246542 0.00501008
v 0.01216971 -0.03237945 0.00554727
v 0.01350518 -0.03246113 0.00487778
v 0.01369104 -0.03249695 0.00456108
v 0.01369104 -0.03248692 0.00462122
v 0.01477180 -0.03213155 0.00554727
v 0.01412243 -0.03238232 0.00489382
v 0.01592141 -0.03126177 0.00814100
v 0.01608433 -0.03120446 0.00814100
v 0.01520090 -0.03188653 0.00619670
v 0.01552673 -0.03176760 0.00619670
v 0.01608433 -0.03132912 0.00747954
v 0.01608433 -0.03153833 0.00621274
v 0.01608433 -0.03143516 0.00685817
v 0.01567359 -0.03182061 0.00554727
v 0.01535005 -0.03194384 0.00554727
v 0.01282138 -0.03251415 0.00468135
v 0.01216971 -0.03251415 0.00468536
v 0.00957450 -0.03251558 0.00468536
f 1 2 14
f 1 14 31
f 1 31 84
f 1 84 165
f 1 165 93
f 1 93 32
f 1 32 18
f 1 18 3
f 1 3 19
f 1 19 35
f 1 35 102
f 1 102 184
f 1 184 270
f 1 270 360
f 1 360 442
f 1 442 506
f 1 506 562
f 1 562 597
f 1 597 625
f 1 625 628
f 1 628 630
f 1 630 629
f 1 629 602
f 1 602 600
f 1 600 565
f 1 565 507
f 1 507 443
f 1 443 361
f 1 361 272
f 1 272 271
f 1 271 185
f 1 185 103
f 1 103 36
f 1 36 20
f 1 20 4
f 1 4 5
f 1 5 6
f 1 6 7
f 1 7 8
f 1 8 2
f 2 9 10
f 2 10 11
f 2 11 12
f 2 12 13
f 2 13 14
f 2 8 15
f 2 15 16
f 2 16 17
f 2 17 9
f 3 18 19
f 4 20 26
f 4 26 21
f 4 21 22
f 4 22 5
f 5 23 24
f 5 24 45
f 5 45 25
f 5 25 47
f 5 47 122
f 5 122 83
f 5 83 30
f 5 30 28
f 5 28 27
f 5 27 17
f 5 17 16
f 5 16 15
f 5 15 8
f 5 8 7
f 5 7 6
f 5 22 21
f 5 21 26
f 5 26 23
f 9 17 10
f 10 17 27
f 10 27 28
f 10 28 11
f 11 28 12
f 12 28 13
f 13 29 14
f 13 28 30
f 13 30 29
f 14 29 78
f 14 78 31
f 18 32 33
f 18 33 34
f 18 34 35
f 18 35 19
f 20 36 37
f 20 37 38
f 20 38 39
f 20 39 40
f 20 40 41
f 20 41 42
f 20 42 26
f 23 43 44
f 23 44 24
f 23 26 43
f 24 44 117
f 24 117 45
f 25 45 46
f 25 46 47
f 26 42 48
f 26 48 49
f 26 49 50
f 26 50 51
f 26 51 52
f 26 52 53
f 26 53 54
f 26 54 55
f 26 55 56
f 26 56 57
f 26 57 58
f 26 58 59
f 26 59 60
f 26 60 61
f 26 61 62
f 26 62 63
f 26 63 64
f 26 64 65
f 26 65 66
f 26 66 67
f 26 67 68
f 26 68 69
f 26 69 70
f 26 70 71
f 26 71 72
f 26 72 73
f 26 73 74
f 26 74 75
f 26 75 76
f 26 76 77
f 26 77 43
f 29 30 79
f 29 79 80
f 29 80 81
f 29 81 159
f 29 159 78
f 30 82 164
f 30 164 251
f 30 251 338
f 30 338 330
f 30 330 240
f 30 240 159
f 30 159 81
f 30 81 80
f 30 80 79
f 30 83 82
f 31 78 85
f 31 85 86
f 31 86 87
f 31 87 88
f 31 88 89
f 31 89 90
f 31 90 91
f 31 91 92
f 31 92 84
f 32 93 94
f 32 94 95
f 32 95 33
f 33 95 96
f 33 96 34
f 34 97 98
f 34 98 99
f 34 99 100
f 34 100 101
f 34 101 35
f 34 96 97
f 35 101 102
f 36 103 37
f 37 103 104
f 37 104 105
f 37 105 106
f 37 106 107
f 37 107 38
f 38 107 108
f 38 108 109
f 38 109 39
f 39 109 196
f 39 196 110
f 39 110 40
f 40 110 111
f 40 111 41
f 41 112 42
f 41 111 113
f 41 113 112
f 42 112 114
f 42 114 48
f 43 115 202
f 43 202 116
f 43 116 117
f 43 117 44
f 43 77 115
f 45 117 46
f 46 117 118
f 46 118 119
f 46 119 120
f 46 120 121
f 46 121 47
f 47 121 123
f 47 123 122
f 48 114 124
f 48 124 125
f 48 125 126
f 48 126 127
f 48 127 128
f 48 128 129
f 48 129 130
f 48 130 131
f 48 131 49
f 49 131 132
f 49 132 50
f 50 132 51
f 51 132 133
f 51 133 52
f 52 134 135
f 52 135 53
f 52 133 134
f 53 135 136
f 53 136 54
f 54 136 137
f 54 137 138
f 54 138 55
f 55 138 56
f 56 138 139
f 56 139 57
f 57 139 140
f 57 140 141
f 57 141 58
f 58 141 59
f 59 141 142
f 59 142 60
f 60 142 228
f 60 228 143
f 60 143 61
f 61 143 62
f 62 144 145
f 62 145 63
f 62 143 228
f 62 228 144
f 63 145 64
f 64 146 147
f 64 147 65
f 64 145 146
f 65 147 66
f 66 148 149
f 66 149 67
f 66 147 148
f 67 149 150
f 67 150 68
f 68 150 236
f 68 236 151
f 68 151 69
f 69 151 70
f 70 151 236
f 70 236 152
f 70 152 71
f 71 152 153
f 71 153 72
f 72 153 205
f 72 205 154
f 72 154 73
f 73 154 74
f 74 154 205
f 74 205 155
f 74 155 156
f 74 156 75
f 75 156 76
f 76 157 202
f 76 202 115
f 76 115 77
f 76 156 157
f 78 158 85
f 78 159 160
f 78 160 158
f 82 83 161
f 82 161 162
f 82 162 163
f 82 163 164
f 83 122 161
f 84 92 166
f 84 166 165
f 85 158 167
f 85 167 86
f 86 167 87
f 87 167 168
f 87 168 88
f 88 168 169
f 88 169 89
f 89 169 90
f 90 169 170
f 90 170 91
f 91 171 92
f 91 170 171
f 92 172 166
f 92 171 173
f 92 173 174
f 92 174 172
f 93 165 95
f 93 95 94
f 95 175 176
f 95 176 177
f 95 177 96
f 95 165 166
f 95 166 175
f 96 177 178
f 96 178 179
f 96 179 97
f 97 179 98
f 98 179 180
f 98 180 99
f 99 181 182
f 99 182 183
f 99 183 100
f 99 180 181
f 100 183 101
f 101 183 102
f 102 183 184
f 103 185 186
f 103 186 104
f 104 186 187
f 104 187 188
f 104 188 189
f 104 189 105
f 105 189 190
f 105 190 191
f 105 191 106
f 106 191 107
f 107 191 192
f 107 192 193
f 107 193 108
f 108 193 194
f 108 194 195
f 108 195 196
f 108 196 109
f 110 197 198
f 110 198 111
f 110 196 199
f 110 199 197
f 111 198 200
f 111 200 113
f 112 201 124
f 112 124 114
f 112 113 200
f 112 200 201
f 116 202 119
f 116 119 118
f 116 118 117
f 119 203 120
f 119 202 157
f 119 157 203
f 120 204 121
f 120 203 156
f 120 156 155
f 120 155 205
f 120 205 206
f 120 206 204
f 121 207 123
f 121 204 207
f 122 123 207
f 122 207 161
f 124 201 208
f 124 208 209
f 124 209 125
f 125 209 210
f 125 210 211
f 125 211 212
f 125 212 213
f 125 213 214
f 125 214 126
f 126 214 304
f 126 304 215
f 126 215 216
f 126 216 127
f 127 216 217
f 127 217 128
f 128 217 218
f 128 218 129
f 129 218 219
f 129 219 130
f 130 219 220
f 130 220 131
f 131 220 132
f 132 220 221
f 132 221 133
f 133 222 134
f 133 221 222
f 134 222 135
f 135 222 136
f 136 223 224
f 136 224 137
f 136 222 223
f 137 224 225
f 137 225 138
f 138 225 139
f 139 225 223
f 139 223 140
f 140 223 226
f 140 226 141
f 141 226 142
f 142 227 228
f 142 226 229
f 142 229 227
f 144 228 227
f 144 227 230
f 144 230 145
f 145 230 231
f 145 231 146
f 146 231 147
f 147 231 232
f 147 232 233
f 147 233 148
f 148 233 149
f 149 233 234
f 149 234 150
f 150 235 236
f 150 234 235
f 152 236 235
f 152 235 237
f 152 237 206
f 152 206 153
f 153 206 205
f 156 203 157
f 158 160 238
f 158 238 239
f 158 239 167
f 159 240 329
f 159 329 241
f 159 241 242
f 159 242 243
f 159 243 160
f 160 243 238
f 161 207 244
f 161 244 162
f 162 245 246
f 162 246 163
f 162 244 245
f 163 246 247
f 163 247 248
f 163 248 164
f 164 249 250
f 164 250 251
f 164 248 252
f 164 252 253
f 164 253 249
f 166 172 175
f 167 239 168
f 168 239 254
f 168 254 255
f 168 255 169
f 169 255 256
f 169 256 170
f 170 256 257
f 170 257 258
f 170 258 259
f 170 259 171
f 171 259 173
f 172 174 175
f 173 259 260
f 173 260 174
f 174 260 176
f 174 176 175
f 176 260 177
f 177 260 178
f 178 260 179
f 179 261 262
f 179 262 263
f 179 263 180
f 179 260 261
f 180 263 181
f 181 263 264
f 181 264 182
f 182 264 265
f 182 265 266
f 182 266 267
f 182 267 183
f 183 267 268
f 183 268 184
f 184 268 269
f 184 269 270
f 185 271 187
f 185 187 186
f 187 271 272
f 187 272 188
f 188 272 273
f 188 273 189
f 189 274 190
f 189 273 275
f 189 275 274
f 190 274 276
f 190 276 277
f 190 277 278
f 190 278 191
f 191 278 279
f 191 279 192
f 192 279 280
f 192 280 281
f 192 281 282
f 192 282 283
f 192 283 284
f 192 284 193
f 193 285 194
f 193 284 286
f 193 286 285
f 194 287 196
f 194 196 195
f 194 285 286
f 194 286 288
f 194 288 287
f 196 287 199
f 197 289 290
f 197 290 198
f 197 199 289
f 198 290 200
f 199 287 291
f 199 291 292
f 199 292 293
f 199 293 381
f 199 381 289
f 200 294 295
f 200 295 296
f 200 296 201
f 200 290 294
f 201 296 297
f 201 297 208
f 204 206 298
f 204 298 207
f 206 237 245
f 206 245 298
f 207 298 244
f 208 297 299
f 208 299 209
f 209 299 210
f 210 299 300
f 210 300 211
f 211 301 212
f 211 300 302
f 211 302 301
f 212 301 303
f 212 303 213
f 213 303 304
f 213 304 214
f 215 304 305
f 215 305 216
f 216 305 306
f 216 306 217
f 217 306 307
f 217 307 221
f 217 221 308
f 217 308 219
f 217 219 218
f 219 308 220
f 220 308 221
f 221 307 309
f 221 309 310
f 221 310 311
f 221 311 312
f 221 312 222
f 222 312 223
f 223 313 231
f 223 231 226
f 223 225 224
f 223 312 313
f 226 231 314
f 226 314 229
f 227 229 314
f 227 314 315
f 227 315 230
f 230 315 231
f 231 315 314
f 231 313 316
f 231 316 317
f 231 317 318
f 231 318 232
f 232 318 233
f 233 319 234
f 233 318 320
f 233 320 319
f 234 319 247
f 234 247 235
f 235 247 246
f 235 246 237
f 237 246 245
f 238 243 242
f 238 242 321
f 238 321 322
f 238 322 239
f 239 323 254
f 239 322 324
f 239 324 323
f 240 325 326
f 240 326 327
f 240 327 328
f 240 328 329
f 240 330 325
f 241 329 331
f 241 331 332
f 241 332 321
f 241 321 242
f 244 298 245
f 247 319 252
f 247 252 248
f 249 333 250
f 249 253 320
f 249 320 317
f 249 317 333
f 250 334 335
f 250 335 251
f 250 333 334
f 251 335 336
f 251 336 337
f 251 337 338
f 252 319 253
f 253 319 320
f 254 323 324
f 254 324 339
f 254 339 340
f 254 340 255
f 255 340 341
f 255 341 342
f 255 342 256
f 256 343 257
f 256 342 343
f 257 343 344
f 257 344 345
f 257 345 258
f 258 346 260
f 258 260 259
f 258 345 346
f 260 346 261
f 261 347 348
f 261 348 349
f 261 349 350
f 261 350 351
f 261 351 352
f 261 352 263
f 261 263 262
f 261 346 347
f 263 352 264
f 264 352 265
f 265 352 353
f 265 353 354
f 265 354 266
f 266 354 355
f 266 355 356
f 266 356 267
f 267 356 357
f 267 357 358
f 267 358 359
f 267 359 268
f 268 359 269
f 269 360 270
f 269 359 360
f 272 361 273
f 273 361 362
f 273 362 363
f 273 363 275
f 274 275 364
f 274 364 365
f 274 365 276
f 275 363 364
f 276 365 366
f 276 366 367
f 276 367 277
f 277 368 369
f 277 369 278
f 277 367 368
f 278 369 279
f 279 369 370
f 279 370 371
f 279 371 372
f 279 372 373
f 279 373 280
f 280 373 374
f 280 374 281
f 281 374 375
f 281 375 282
f 282 375 283
f 283 286 284
f 283 375 286
f 286 375 376
f 286 376 288
f 287 288 291
f 288 376 377
f 288 377 378
f 288 378 379
f 288 379 380
f 288 380 291
f 289 381 382
f 289 382 290
f 290 382 294
f 291 380 292
f 292 380 379
f 292 379 293
f 293 379 383
f 293 383 384
f 293 384 382
f 293 382 381
f 294 382 295
f 295 382 385
f 295 385 386
f 295 386 296
f 296 386 387
f 296 387 297
f 297 387 388
f 297 388 299
f 299 388 302
f 299 302 300
f 301 302 389
f 301 389 303
f 302 388 390
f 302 390 389
f 303 391 392
f 303 392 304
f 303 389 391
f 304 392 305
f 305 307 306
f 305 392 307
f 307 392 391
f 307 391 393
f 307 393 394
f 307 394 309
f 309 394 395
f 309 395 396
f 309 396 310
f 310 396 311
f 311 396 397
f 311 397 398
f 311 398 312
f 312 398 399
f 312 399 400
f 312 400 313
f 313 400 401
f 313 401 333
f 313 333 316
f 316 333 317
f 317 320 318
f 321 332 402
f 321 402 403
f 321 403 322
f 322 403 404
f 322 404 405
f 322 405 324
f 324 405 406
f 324 406 407
f 324 407 408
f 324 408 339
f 325 409 410
f 325 410 326
f 325 330 411
f 325 411 394
f 325 394 409
f 326 412 413
f 326 413 414
f 326 414 415
f 326 415 416
f 326 416 327
f 326 410 412
f 327 416 417
f 327 417 329
f 327 329 328
f 329 417 418
f 329 418 419
f 329 419 331
f 330 338 337
f 330 337 420
f 330 420 411
f 331 421 422
f 331 422 332
f 331 419 421
f 332 422 402
f 333 401 399
f 333 399 334
f 334 399 335
f 335 399 398
f 335 398 397
f 335 397 336
f 336 397 337
f 337 397 420
f 339 408 340
f 340 408 423
f 340 423 424
f 340 424 425
f 340 425 341
f 341 426 428
f 341 428 342
f 341 425 427
f 341 427 426
f 342 428 344
f 342 344 343
f 344 428 429
f 344 429 345
f 345 429 430
f 345 430 431
f 345 431 432
f 345 432 346
f 346 432 348
f 346 348 347
f 348 432 349
f 349 432 350
f 350 433 434
f 350 434 435
f 350 435 351
f 350 432 433
f 351 435 352
f 352 435 353
f 353 355 354
f 353 435 436
f 353 436 437
f 353 437 355
f 355 437 356
f 356 437 357
f 357 437 438
f 357 438 439
f 357 439 440
f 357 440 358
f 358 440 359
f 359 440 441
f 359 441 442
f 359 442 360
f 361 443 444
f 361 444 362
f 362 444 363
f 363 444 445
f 363 445 446
f 363 446 364
f 364 446 447
f 364 447 365
f 365 447 448
f 365 448 366
f 366 449 450
f 366 450 367
f 366 448 516
f 366 516 449
f 367 450 451
f 367 451 368
f 368 451 452
f 368 452 369
f 369 452 453
f 369 453 370
f 370 453 371
f 371 453 372
f 372 454 373
f 372 453 454
f 373 454 374
f 374 455 456
f 374 456 375
f 374 454 524
f 374 524 455
f 375 456 376
f 376 456 457
f 376 457 377
f 377 457 458
f 377 458 378
f 378 458 459
f 378 459 379
f 379 459 383
f 382 384 458
f 382 458 385
f 383 459 458
f 383 458 384
f 385 460 409
f 385 409 393
f 385 393 390
f 385 390 461
f 385 461 386
f 385 458 460
f 386 461 387
f 387 461 390
f 387 390 388
f 389 390 393
f 389 393 391
f 393 409 394
f 394 411 395
f 395 420 396
f 395 411 420
f 396 420 397
f 399 401 400
f 402 422 462
f 402 462 463
f 402 463 403
f 403 463 464
f 403 464 404
f 404 464 405
f 405 464 406
f 406 464 465
f 406 465 407
f 407 465 466
f 407 466 408
f 408 466 467
f 408 467 468
f 408 468 469
f 408 469 470
f 408 470 423
f 409 460 412
f 409 412 410
f 412 460 458
f 412 458 471
f 412 471 472
f 412 472 413
f 413 472 473
f 413 473 414
f 414 473 415
f 415 473 474
f 415 474 475
f 415 475 416
f 416 475 476
f 416 476 417
f 417 476 418
f 418 476 477
f 418 477 478
f 418 478 419
f 419 478 421
f 421 478 479
f 421 479 480
f 421 480 481
f 421 481 462
f 421 462 422
f 423 470 482
f 423 482 483
f 423 483 484
f 423 484 485
f 423 485 424
f 424 485 425
f 425 485 484
f 425 484 486
f 425 486 490
f 425 490 487
f 425 487 427
f 426 488 428
f 426 427 489
f 426 489 488
f 427 487 490
f 427 490 489
f 428 488 491
f 428 491 430
f 428 430 429
f 430 491 492
f 430 492 431
f 431 492 433
f 431 433 432
f 433 492 493
f 433 493 434
f 434 493 489
f 434 489 494
f 434 494 436
f 434 436 435
f 436 494 548
f 436 548 495
f 436 495 437
f 437 495 496
f 437 496 438
f 438 497 498
f 438 498 499
f 438 499 500
f 438 500 501
f 438 501 502
f 438 502 439
f 438 496 497
f 439 502 440
f 440 502 503
f 440 503 441
f 441 503 504
f 441 504 505
f 441 505 442
f 442 505 506
f 443 507 508
f 443 508 444
f 444 508 509
f 444 509 445
f 445 509 510
f 445 510 511
f 445 511 446
f 446 511 447
f 447 511 512
f 447 512 513
f 447 513 448
f 448 513 514
f 448 514 515
f 448 515 516
f 449 517 518
f 449 518 519
f 449 519 450
f 449 516 520
f 449 520 577
f 449 577 517
f 450 519 451
f 451 521 452
f 451 519 521
f 452 522 523
f 452 523 453
f 452 521 522
f 453 523 524
f 453 524 454
f 455 524 534
f 455 534 525
f 455 525 457
f 455 457 456
f 457 525 472
f 457 472 471
f 457 471 458
f 462 481 463
f 463 481 526
f 463 526 464
f 464 526 465
f 465 527 528
f 465 528 466
f 465 526 517
f 465 517 527
f 466 528 467
f 467 528 529
f 467 529 530
f 467 530 468
f 468 530 469
f 469 530 531
f 469 531 532
f 469 532 533
f 469 533 470
f 470 533 482
f 472 525 534
f 472 534 473
f 473 534 474
f 474 534 475
f 475 534 476
f 476 534 477
f 477 534 535
f 477 535 478
f 478 535 536
f 478 536 479
f 479 536 537
f 479 537 518
f 479 518 480
f 480 518 517
f 480 517 526
f 480 526 481
f 482 538 539
f 482 539 483
f 482 533 538
f 483 540 541
f 483 541 484
f 483 539 540
f 484 542 486
f 484 541 542
f 486 542 543
f 486 543 544
f 486 544 545
f 486 545 546
f 486 546 490
f 488 489 493
f 488 493 492
f 488 492 491
f 489 490 546
f 489 546 547
f 489 547 494
f 494 547 548
f 495 548 549
f 495 549 550
f 495 550 551
f 495 551 496
f 496 551 497
f 497 551 498
f 498 551 552
f 498 552 499
f 499 553 554
f 499 554 555
f 499 555 500
f 499 552 556
f 499 556 553
f 500 557 502
f 500 502 501
f 500 555 558
f 500 558 557
f 502 557 559
f 502 559 503
f 503 560 504
f 503 559 561
f 503 561 560
f 504 562 505
f 504 560 563
f 504 563 564
f 504 564 562
f 505 562 506
f 507 565 508
f 508 565 566
f 508 566 509
f 509 566 567
f 509 567 568
f 509 568 510
f 510 568 569
f 510 569 570
f 510 570 571
f 510 571 511
f 511 571 512
f 512 571 572
f 512 572 573
f 512 573 574
f 512 574 513
f 513 574 575
f 513 575 514
f 514 575 613
f 514 613 576
f 514 576 515
f 515 576 520
f 515 520 516
f 517 577 578
f 517 578 527
f 518 537 579
f 518 579 521
f 518 521 519
f 520 576 581
f 520 581 577
f 521 579 522
f 522 536 580
f 522 580 523
f 522 579 537
f 522 537 536
f 523 580 524
f 524 580 534
f 527 578 581
f 527 581 582
f 527 582 528
f 528 582 529
f 529 582 581
f 529 581 583
f 529 583 530
f 530 584 585
f 530 585 586
f 530 586 531
f 530 583 584
f 531 586 587
f 531 587 532
f 532 587 538
f 532 538 533
f 534 580 535
f 535 580 536
f 538 588 539
f 538 587 588
f 539 588 618
f 539 618 589
f 539 589 590
f 539 590 540
f 540 590 541
f 541 590 556
f 541 556 543
f 541 543 542
f 543 556 549
f 543 549 544
f 544 549 547
f 544 547 546
f 544 546 545
f 547 549 548
f 549 556 550
f 550 556 551
f 551 556 552
f 553 590 589
f 553 589 554
f 553 556 590
f 554 589 618
f 554 618 591
f 554 591 592
f 554 592 555
f 555 592 594
f 555 594 558
f 557 558 559
f 558 593 559
f 558 594 622
f 558 622 593
f 559 595 561
f 559 593 595
f 560 596 563
f 560 561 596
f 561 595 596
f 562 564 597
f 563 596 598
f 563 598 599
f 563 599 564
f 564 599 597
f 565 600 601
f 565 601 566
f 566 601 567
f 567 601 602
f 567 602 603
f 567 603 568
f 568 603 604
f 568 604 605
f 568 605 569
f 569 606 570
f 569 605 606
f 570 606 571
f 571 606 572
f 572 606 573
f 573 606 607
f 573 607 608
f 573 608 574
f 574 608 609
f 574 609 610
f 574 610 611
f 574 611 612
f 574 612 575
f 575 612 613
f 576 613 583
f 576 583 581
f 577 581 578
f 583 613 612
f 583 612 584
f 584 612 614
f 584 614 585
f 585 614 635
f 585 635 615
f 585 615 586
f 586 615 587
f 587 615 616
f 587 616 617
f 587 617 618
f 587 618 588
f 591 618 617
f 591 617 611
f 591 611 592
f 592 611 619
f 592 619 620
f 592 620 621
f 592 621 608
f 592 608 594
f 593 622 599
f 593 599 595
f 594 608 623
f 594 623 605
f 594 605 622
f 595 599 598
f 595 598 596
f 597 599 624
f 597 624 625
f 599 622 626
f 599 626 627
f 599 627 628
f 599 628 625
f 599 625 624
f 600 602 601
f 602 629 603
f 603 629 630
f 603 630 631
f 603 631 632
f 603 632 604
f 604 632 605
f 605 623 606
f 605 632 626
f 605 626 622
f 606 623 607
f 607 623 608
f 608 621 620
f 608 620 609
f 609 620 610
f 610 620 611
f 611 620 619
f 611 617 633
f 611 633 612
f 612 633 634
f 612 634 635
f 612 635 614
f 615 635 617
f 615 617 616
f 617 635 634
f 617 634 633
f 626 632 627
f 627 632 631
f 627 631 628
f 628 631 630
