# https://github.com/mikedh/trimesh
v 0.04792969 0.02892283 -0.03670745
v 0.04727824 0.02827489 -0.03668544
v 0.04727824 0.02892283 -0.03669370
v 0.04792969 0.03021338 -0.03670745
v 0.04906486 0.02892283 -0.03670745
v 0.06313150 0.02113422 -0.03670470
v 0.06092359 0.02113422 -0.03670195
v 0.04792969 0.02827489 -0.03669370
v 0.04663069 0.02827489 -0.03663043
v 0.04727824 0.03021338 -0.03669370
v 0.04663069 0.02892283 -0.03663593
v 0.05864546 0.03021426 -0.03670195
v 0.06313150 0.03021426 -0.03670470
v 0.04906486 0.03021338 -0.03670745
v 0.07970253 0.02113422 -0.03670470
v 0.06034236 0.02113422 -0.03652591
v 0.03985093 0.02113600 -0.03154184
v 0.04011619 0.02113600 -0.03161886
v 0.04065451 0.02113600 -0.03176739
v 0.04097439 0.02113600 -0.03185541
v 0.04562426 0.02793448 -0.03638013
v 0.04597534 0.02787848 -0.03643239
v 0.04611967 0.02827489 -0.03652591
v 0.04663069 0.03021338 -0.03663593
v 0.04597534 0.02827489 -0.03649565
v 0.04597534 0.02892372 -0.03649841
v 0.05864546 0.03021426 -0.01963728
v 0.04597534 0.03021338 -0.03649841
v 0.04560475 0.03021338 -0.03639113
v 0.04528098 0.03021338 -0.03624810
v 0.04467634 0.03021338 -0.03594553
v 0.04432526 0.03021338 -0.03574199
v 0.04399758 0.03021338 -0.03554395
v 0.03985093 0.03021338 -0.03301065
v 0.07970253 0.03021426 -0.03670470
v 0.07970253 0.02113422 -0.01756609
v 0.06006539 0.02113422 -0.03604180
v 0.03985093 0.02827489 -0.03299965
v 0.04110311 0.02795225 -0.03376982
v 0.04433696 0.02793537 -0.03573099
v 0.05864546 0.02113422 -0.03139606
v 0.03985093 0.02113600 -0.00861292
v 0.04467634 0.02827489 -0.03593728
v 0.04528488 0.02827489 -0.03624260
v 0.04560475 0.02827489 -0.03638838
v 0.04560475 0.02892372 -0.03639113
v 0.06381806 0.03021426 -0.01609727
v 0.03985093 0.03021338 -0.02057799
v 0.03985873 0.03021338 -0.01987108
v 0.04528098 0.02892372 -0.03624810
v 0.04467634 0.02892372 -0.03594553
v 0.04432526 0.02892372 -0.03574199
v 0.04399758 0.02892372 -0.03554395
v 0.03985093 0.02892372 -0.03301065
v 0.07970253 0.03021426 -0.01756609
v 0.07784960 0.02113422 -0.01609727
v 0.04024492 0.02827489 -0.03324721
v 0.04399758 0.02827489 -0.03554120
v 0.04432526 0.02827489 -0.03573649
v 0.05864546 0.02113422 -0.01441941
v 0.03985093 0.02633285 -0.00860742
v 0.05864546 0.02113600 -0.00861292
v 0.07738149 0.03021426 -0.01609727
v 0.03985093 0.02935657 -0.00860742
v 0.07784180 0.02785537 -0.01609727
v 0.07784960 0.02762428 -0.01609727
v 0.05864546 0.02633285 -0.00860742
v 0.06005369 0.02113422 -0.01441941
v 0.05864546 0.02935657 -0.00860742
f 1 2 3
f 1 3 10
f 1 10 4
f 1 4 14
f 1 14 5
f 1 5 15
f 1 15 6
f 1 6 7
f 1 7 8
f 1 8 2
f 2 9 3
f 2 8 7
f 2 7 9
f 3 9 11
f 3 11 24
f 3 24 10
f 4 12 13
f 4 13 35
f 4 35 14
f 4 10 12
f 5 14 35
f 5 35 15
f 6 15 36
f 6 36 56
f 6 56 68
f 6 68 60
f 6 60 41
f 6 41 37
f 6 37 16
f 6 16 7
f 7 16 17
f 7 17 18
f 7 18 19
f 7 19 20
f 7 20 21
f 7 21 22
f 7 22 9
f 9 22 21
f 9 21 23
f 9 23 11
f 10 24 12
f 11 23 25
f 11 25 26
f 11 26 28
f 11 28 24
f 12 27 47
f 12 47 63
f 12 63 55
f 12 55 35
f 12 35 13
f 12 24 28
f 12 28 29
f 12 29 30
f 12 30 31
f 12 31 32
f 12 32 33
f 12 33 34
f 12 34 48
f 12 48 27
f 15 35 55
f 15 55 36
f 16 37 17
f 17 38 39
f 17 39 40
f 17 40 21
f 17 21 18
f 17 37 41
f 17 41 60
f 17 60 42
f 17 42 61
f 17 61 64
f 17 64 48
f 17 48 34
f 17 34 54
f 17 54 38
f 18 21 19
f 19 21 20
f 21 40 43
f 21 43 44
f 21 44 45
f 21 45 25
f 21 25 23
f 25 45 46
f 25 46 26
f 26 46 29
f 26 29 28
f 27 48 49
f 27 49 47
f 29 46 50
f 29 50 30
f 30 50 51
f 30 51 31
f 31 51 52
f 31 52 32
f 32 52 53
f 32 53 33
f 33 53 54
f 33 54 34
f 36 55 66
f 36 66 56
f 38 54 57
f 38 57 39
f 39 57 54
f 39 54 58
f 39 58 40
f 40 58 59
f 40 59 43
f 42 60 68
f 42 68 62
f 42 62 67
f 42 67 61
f 43 59 51
f 43 51 44
f 44 51 50
f 44 50 45
f 45 50 46
f 47 49 64
f 47 64 69
f 47 69 63
f 48 64 49
f 51 59 52
f 52 58 53
f 52 59 58
f 53 58 54
f 55 63 65
f 55 65 66
f 56 67 62
f 56 62 68
f 56 66 69
f 56 69 67
f 61 67 69
f 61 69 64
f 63 69 65
f 65 69 66
