# https://github.com/mikedh/trimesh
v 0.03554981 -0.01635747 -0.00860462
v 0.06679427 -0.01635747 -0.00860742
v 0.03554981 -0.01635747 0.01995775
v 0.03554981 0.02935748 -0.00860462
v 0.07082759 -0.01635747 -0.00860742
v 0.06679427 0.02935748 -0.00860742
v 0.06679081 -0.01635747 0.01995775
v 0.03554981 0.02828352 0.01995775
v 0.03554981 0.02935748 0.01464512
v 0.07082759 0.02835512 -0.00860742
v 0.07082759 -0.01635747 0.01681770
v 0.06742275 0.02935748 -0.00860742
v 0.06679427 -0.01627692 0.01995775
v 0.03555671 0.02835512 0.01995775
v 0.03554981 0.02835512 0.01987386
v 0.03557743 0.02935748 0.01529662
v 0.03554981 0.02935301 0.01531898
v 0.06842417 0.02926799 -0.00848998
v 0.06909063 0.02928141 -0.00664734
v 0.06971221 0.02925904 -0.00459778
v 0.06974329 0.02928141 -0.00419793
v 0.06977437 0.02929931 -0.00354644
v 0.07019220 0.02913374 -0.00094884
v 0.07020602 0.02915164 -0.00029735
v 0.07082759 0.02846699 -0.00165067
v 0.06824806 0.02928588 -0.00860742
v 0.07082759 0.02835512 0.01681770
v 0.06807195 0.02935748 -0.00744703
v 0.06807195 0.02934406 -0.00809852
v 0.06806504 0.02931273 -0.00860742
v 0.06679427 0.02835512 0.01995775
v 0.04222137 0.02927694 0.01995775
v 0.04096441 0.02928141 0.01956909
v 0.03964184 0.02928141 0.01893437
v 0.03838833 0.02928141 0.01828008
v 0.03716590 0.02926799 0.01759503
v 0.03645109 0.02928141 0.01698547
v 0.03575355 0.02928141 0.01637871
v 0.03554981 0.02924114 0.01629483
v 0.03622663 0.02935748 0.01594532
v 0.03554981 0.02931273 0.01597328
v 0.06847252 0.02929036 -0.00809852
v 0.06872460 0.02935301 -0.00614683
v 0.06913553 0.02929931 -0.00614683
v 0.06937380 0.02933511 -0.00419793
v 0.06986760 0.02929931 -0.00094884
v 0.06937380 0.02935301 -0.00354644
v 0.06937380 0.02935748 -0.00289774
v 0.07020602 0.02915164 0.00035415
v 0.07082759 0.02847594 -0.00096282
v 0.06988142 0.02929931 -0.00029735
v 0.06478451 0.02929931 0.01395448
v 0.06413876 0.02930378 0.01461157
v 0.06348956 0.02930378 0.01526306
v 0.06282310 0.02929483 0.01590896
v 0.07082759 0.02847594 0.00100285
v 0.06977437 0.02929931 0.00360044
v 0.06973983 0.02928141 0.00425194
v 0.06912863 0.02929931 0.00619804
v 0.06908718 0.02927694 0.00667618
v 0.06846561 0.02929036 0.00814694
v 0.06777842 0.02927246 0.00983300
v 0.06740893 0.02930378 0.01007067
v 0.06679427 0.02929483 0.01127300
v 0.06612089 0.02931273 0.01204752
v 0.06872460 0.02935748 -0.00549813
v 0.06091003 0.02931273 0.01723712
v 0.06068558 0.02928141 0.01762858
v 0.06027119 0.02929931 0.01775441
v 0.05892099 0.02929931 0.01852893
v 0.05832359 0.02928141 0.01893996
v 0.05702174 0.02927694 0.01956909
v 0.05552651 0.02929931 0.01995775
v 0.04272554 0.02931721 0.01995775
v 0.04142714 0.02929931 0.01962501
v 0.04142714 0.02935301 0.01919720
v 0.04012874 0.02929931 0.01902664
v 0.03944501 0.02931273 0.01858206
v 0.03882689 0.02929931 0.01838633
v 0.03817423 0.02931273 0.01789980
v 0.03692073 0.02930378 0.01722035
v 0.03623009 0.02931273 0.01659402
v 0.03817769 0.02935748 0.01724831
v 0.03687929 0.02935301 0.01659961
v 0.06937380 0.02935748 0.00295174
v 0.06988142 0.02929931 0.00035415
v 0.06986760 0.02929931 0.00100285
v 0.06482249 0.02934406 0.01334492
v 0.06417330 0.02934853 0.01399642
v 0.06352064 0.02935301 0.01464512
v 0.06287144 0.02934853 0.01529662
v 0.06222224 0.02933958 0.01594532
v 0.06937380 0.02935301 0.00360044
v 0.06937380 0.02933511 0.00425194
v 0.06872460 0.02935301 0.00619804
v 0.06807195 0.02934406 0.00814694
v 0.06783713 0.02929036 0.00944713
v 0.06742275 0.02934406 0.00944713
v 0.06679427 0.02933511 0.01072496
v 0.06612089 0.02935301 0.01139882
v 0.06027119 0.02935301 0.01724831
v 0.05832359 0.02933511 0.01854850
v 0.05702174 0.02933063 0.01919720
v 0.05507069 0.02934406 0.01984870
v 0.05507069 0.02932616 0.01995775
v 0.04337819 0.02933958 0.01995775
v 0.04272554 0.02933063 0.01984870
v 0.04337819 0.02935301 0.01984870
v 0.04402739 0.02935748 0.01984870
v 0.04207979 0.02935748 0.01919720
v 0.03882689 0.02935301 0.01789980
v 0.03752849 0.02934406 0.01724831
v 0.03947954 0.02935748 0.01789980
v 0.06872460 0.02935748 0.00554934
v 0.06547169 0.02935748 0.01204752
v 0.06092039 0.02935748 0.01659961
v 0.06807195 0.02935748 0.00749544
v 0.06742275 0.02935748 0.00879843
v 0.06677355 0.02935748 0.01009863
v 0.05896934 0.02935748 0.01789980
v 0.05636909 0.02935748 0.01919720
v 0.05442149 0.02934406 0.01995775
v 0.05442149 0.02935748 0.01984870
v 0.04402739 0.02934406 0.01995775
v 0.04727684 0.02935748 0.01995775
v 0.04532924 0.02935301 0.01995775
v 0.05301949 0.02935301 0.01995775
v 0.05171764 0.02935748 0.01995775
f 1 2 5
f 1 5 11
f 1 11 7
f 1 7 3
f 1 3 8
f 1 8 15
f 1 15 39
f 1 39 41
f 1 41 17
f 1 17 9
f 1 9 4
f 1 4 6
f 1 6 2
f 2 6 12
f 2 12 30
f 2 30 26
f 2 26 10
f 2 10 5
f 3 7 13
f 3 13 31
f 3 31 73
f 3 73 105
f 3 105 122
f 3 122 127
f 3 127 128
f 3 128 125
f 3 125 126
f 3 126 124
f 3 124 106
f 3 106 74
f 3 74 32
f 3 32 14
f 3 14 8
f 4 9 16
f 4 16 40
f 4 40 83
f 4 83 113
f 4 113 110
f 4 110 109
f 4 109 125
f 4 125 128
f 4 128 123
f 4 123 121
f 4 121 120
f 4 120 116
f 4 116 115
f 4 115 119
f 4 119 118
f 4 118 117
f 4 117 114
f 4 114 85
f 4 85 48
f 4 48 66
f 4 66 28
f 4 28 12
f 4 12 6
f 5 10 25
f 5 25 50
f 5 50 56
f 5 56 27
f 5 27 11
f 7 11 13
f 8 14 15
f 9 17 16
f 10 18 19
f 10 19 20
f 10 20 21
f 10 21 22
f 10 22 23
f 10 23 24
f 10 24 25
f 10 26 18
f 11 27 31
f 11 31 13
f 12 28 29
f 12 29 30
f 14 32 33
f 14 33 34
f 14 34 35
f 14 35 36
f 14 36 37
f 14 37 38
f 14 38 39
f 14 39 15
f 16 17 41
f 16 41 40
f 18 26 42
f 18 42 19
f 19 42 29
f 19 29 43
f 19 43 44
f 19 44 21
f 19 21 20
f 21 44 45
f 21 45 22
f 22 46 24
f 22 24 23
f 22 45 47
f 22 47 48
f 22 48 46
f 24 49 56
f 24 56 50
f 24 50 25
f 24 46 51
f 24 51 86
f 24 86 49
f 26 30 42
f 27 52 53
f 27 53 54
f 27 54 55
f 27 55 31
f 27 56 49
f 27 49 57
f 27 57 58
f 27 58 59
f 27 59 60
f 27 60 61
f 27 61 62
f 27 62 63
f 27 63 64
f 27 64 65
f 27 65 52
f 28 66 43
f 28 43 29
f 29 42 30
f 31 55 67
f 31 67 68
f 31 68 69
f 31 69 70
f 31 70 71
f 31 71 72
f 31 72 73
f 32 74 33
f 33 75 76
f 33 76 77
f 33 77 34
f 33 74 75
f 34 77 78
f 34 78 79
f 34 79 35
f 35 79 80
f 35 80 81
f 35 81 36
f 36 81 37
f 37 81 82
f 37 82 38
f 38 82 41
f 38 41 39
f 40 41 82
f 40 82 84
f 40 84 83
f 43 66 48
f 43 48 47
f 43 47 45
f 43 45 44
f 46 48 51
f 48 85 86
f 48 86 51
f 49 86 87
f 49 87 57
f 52 65 88
f 52 88 53
f 53 88 89
f 53 89 90
f 53 90 54
f 54 90 91
f 54 91 92
f 54 92 55
f 55 92 67
f 57 87 85
f 57 85 93
f 57 93 94
f 57 94 58
f 58 94 59
f 59 61 60
f 59 94 95
f 59 95 96
f 59 96 61
f 61 97 62
f 61 96 97
f 62 97 98
f 62 98 63
f 63 98 99
f 63 99 64
f 64 99 65
f 65 99 100
f 65 100 88
f 67 92 101
f 67 101 69
f 67 69 68
f 69 101 102
f 69 102 70
f 70 102 103
f 70 103 71
f 71 103 72
f 72 103 104
f 72 104 105
f 72 105 73
f 74 106 108
f 74 108 107
f 74 107 76
f 74 76 75
f 76 108 109
f 76 109 110
f 76 110 113
f 76 113 111
f 76 111 78
f 76 78 77
f 76 107 108
f 78 111 79
f 79 111 80
f 80 111 112
f 80 112 81
f 81 112 82
f 82 112 84
f 83 84 111
f 83 111 113
f 84 112 111
f 85 114 95
f 85 95 93
f 85 87 86
f 88 100 89
f 89 100 115
f 89 115 90
f 90 115 116
f 90 116 91
f 91 116 101
f 91 101 92
f 93 95 94
f 95 114 117
f 95 117 96
f 96 117 118
f 96 118 119
f 96 119 98
f 96 98 97
f 98 119 100
f 98 100 99
f 100 119 115
f 101 116 120
f 101 120 102
f 102 120 121
f 102 121 103
f 103 121 104
f 104 122 105
f 104 121 123
f 104 123 122
f 106 124 109
f 106 109 108
f 109 124 126
f 109 126 125
f 122 123 127
f 123 128 127
