# https://github.com/mikedh/trimesh
v 0.07344282 -0.00551902 0.02195133
v 0.07344282 -0.00617139 0.02195133
v 0.07373407 -0.00096343 0.02162387
v 0.07373407 0.02761459 0.02161635
v 0.07344282 0.02176522 0.02194381
v 0.07344174 0.01591586 0.02194381
v 0.07083014 0.02834919 0.01681734
v 0.07373407 -0.00681279 0.02162387
v 0.07083014 -0.01634611 0.01681734
v 0.07344282 -0.01671341 0.02194757
v 0.07405877 0.01136574 0.02123995
v 0.07405877 0.02696771 0.02123619
v 0.07405769 0.02761459 0.02123619
v 0.07491204 0.02795448 0.02018605
v 0.07430148 0.02800382 0.02087861
v 0.07368985 0.02803671 0.02157118
v 0.07344282 0.02761459 0.02194004
v 0.07344282 0.02810249 0.02170292
v 0.07344282 0.02813538 0.02161635
v 0.07344282 0.02831081 0.02098400
v 0.07344282 0.02834919 0.02033284
v 0.07083014 0.02847527 0.00100884
v 0.07373407 -0.01671341 0.02161635
v 0.07405877 -0.01526614 0.02123995
v 0.07083014 -0.01634611 -0.00860047
v 0.07472758 -0.02436637 -0.01567289
v 0.07970159 -0.02752952 -0.00860423
v 0.07905543 -0.02438830 0.00215307
v 0.08113629 -0.02438830 0.00215307
v 0.08177382 -0.02438281 0.00215307
v 0.07432845 0.01656274 0.02091625
v 0.07433169 -0.00876441 0.02091625
v 0.07432629 0.02761459 0.02091249
v 0.07624426 0.02799833 0.01828527
v 0.07566392 0.02805316 0.01902300
v 0.07503717 0.02805316 0.01984730
v 0.07465099 0.02761459 0.02051728
v 0.07491852 0.02761459 0.02018981
v 0.07517309 0.02761459 0.01984730
v 0.07571893 0.02761459 0.01910204
v 0.07454204 0.02806960 0.02043823
v 0.07391530 0.02811346 0.02111951
v 0.07457764 0.02825599 0.01984730
v 0.07392716 0.02828888 0.02049469
v 0.07522703 0.02833274 0.01854498
v 0.07457764 0.02834919 0.01919614
v 0.07587750 0.02834919 0.01724266
v 0.07782245 0.02834919 0.01399815
v 0.07912230 0.02834919 0.01074612
v 0.07977278 0.02834919 0.00879641
v 0.08042217 0.02834919 0.00620306
v 0.08107264 0.02834919 0.00100884
v 0.07083014 0.02847527 -0.00095969
v 0.07405769 -0.01671341 0.02123995
v 0.07433169 -0.01671341 0.02091625
v 0.07421195 -0.01722324 -0.01650095
v 0.07421626 -0.01915841 -0.01650095
v 0.07083014 0.02834919 -0.00860047
v 0.07790227 -0.02436637 -0.01567289
v 0.07970159 -0.02746922 -0.00874726
v 0.07998852 -0.02709644 -0.00860423
v 0.08184393 -0.02438830 -0.00029348
v 0.08184393 -0.02438830 0.00035392
v 0.08183099 -0.02438830 0.00100131
v 0.08180510 -0.02438830 0.00165247
v 0.08177490 -0.02436637 0.00215307
v 0.08146854 -0.01996975 0.00498731
v 0.08012553 -0.01671341 0.01050523
v 0.07996479 -0.01671341 0.01096066
v 0.07980730 -0.01671341 0.01139352
v 0.07956890 -0.01671341 0.01202209
v 0.07943622 -0.01671341 0.01234579
v 0.07929274 -0.01671341 0.01269207
v 0.07901227 -0.01671341 0.01334700
v 0.07879761 -0.01671341 0.01382125
v 0.07868219 -0.01671341 0.01407343
v 0.07835317 -0.01671341 0.01474341
v 0.07819245 -0.01671341 0.01505582
v 0.07795297 -0.01671341 0.01551502
v 0.07766926 -0.01671341 0.01602691
v 0.07751609 -0.01671341 0.01629791
v 0.07732623 -0.01671341 0.01662537
v 0.07700045 -0.01671341 0.01716738
v 0.07695515 -0.01671341 0.01724266
v 0.07680197 -0.01671341 0.01749484
v 0.07654415 -0.01671341 0.01789758
v 0.07626908 -0.01671341 0.01831914
v 0.07604686 -0.01671341 0.01864284
v 0.07572217 -0.01671341 0.01910581
v 0.07548592 -0.01671341 0.01942950
v 0.07491852 -0.01671341 0.02018981
v 0.07485703 -0.01671341 0.02026886
v 0.07465638 -0.01671341 0.02051728
v 0.07465207 0.02631534 0.02051728
v 0.07465638 -0.01071602 0.02051728
v 0.07604470 0.02761459 0.01863908
v 0.07626692 0.02761459 0.01831914
v 0.07679442 0.02761459 0.01749108
v 0.07700261 0.02761459 0.01716362
v 0.07750853 0.02795448 0.01629039
v 0.07695191 0.02804767 0.01708081
v 0.07636508 0.02808605 0.01789758
v 0.07587858 0.02812442 0.01851863
v 0.07526371 0.02816828 0.01922249
v 0.07517633 -0.01591302 0.01984730
v 0.07548592 -0.01656539 0.01942950
v 0.07572217 -0.01656539 0.01910581
v 0.07604578 0.01396972 0.01864284
v 0.07587750 0.02828888 0.01789758
v 0.07652365 0.02832726 0.01659903
v 0.07717413 0.02834370 0.01529671
v 0.07847291 0.02833822 0.01269207
v 0.07782245 0.02827792 0.01464555
v 0.07847291 0.02826696 0.01334700
v 0.07912230 0.02832178 0.01139352
v 0.07977278 0.02832726 0.00944757
v 0.08042217 0.02833274 0.00684669
v 0.08107264 0.02834370 0.00231116
v 0.08160877 0.02814087 0.00100884
v 0.08161417 0.02814087 0.00036144
v 0.08107264 0.02834919 -0.00094087
v 0.07083014 0.02846431 -0.00164473
v 0.07977494 0.02835467 -0.00874726
v 0.07970159 0.02835467 -0.00874726
v 0.07799396 -0.01722324 -0.01650095
v 0.07970159 0.02762007 -0.01165678
v 0.07799396 -0.01915841 -0.01650095
v 0.07970159 0.02833274 -0.00939842
v 0.07970159 0.02826696 -0.01004958
v 0.07970159 0.02812442 -0.01107713
v 0.07970159 0.02803123 -0.01125027
v 0.07970159 0.02779550 -0.01157020
v 0.07869190 -0.02436637 -0.01403934
v 0.07970159 -0.02566562 -0.01126156
v 0.07970159 -0.02631799 -0.01069697
v 0.07970159 -0.02679492 -0.01003452
v 0.07970159 -0.02696487 -0.00979363
v 0.07970159 -0.02718415 -0.00936831
v 0.07996803 -0.02706354 -0.00874726
v 0.08001658 -0.02704710 -0.00860423
v 0.08180726 -0.02438830 -0.00157698
v 0.08183207 -0.02438830 -0.00094840
v 0.08184502 -0.02436637 -0.00029348
v 0.08184502 -0.02436637 0.00035392
v 0.08183207 -0.02436637 0.00100131
v 0.08180834 -0.02371949 0.00165247
v 0.08177813 -0.02371949 0.00215307
v 0.08171664 -0.01996975 0.00294726
v 0.08164977 -0.01996975 0.00359466
v 0.08157317 -0.01996975 0.00424582
v 0.08148148 -0.01996975 0.00489698
v 0.08148148 -0.01671341 0.00490451
v 0.08141568 -0.01671341 0.00533359
v 0.08140273 -0.01671341 0.00540887
v 0.08125819 -0.01671341 0.00620306
v 0.08122798 -0.01671341 0.00635362
v 0.08112551 -0.01671341 0.00684669
v 0.08097772 -0.01671341 0.00749785
v 0.08094212 -0.01671341 0.00764464
v 0.08082454 -0.01671341 0.00812643
v 0.08074255 -0.01671341 0.00845013
v 0.08064763 -0.01671341 0.00879641
v 0.08045993 -0.01671341 0.00944757
v 0.08025821 -0.01671341 0.01009496
v 0.08012660 -0.01332000 0.01050523
v 0.08001225 -0.00876441 0.01082893
v 0.08001225 -0.00616591 0.01082893
v 0.07980838 -0.00421977 0.01139352
v 0.07980838 -0.00941129 0.01139352
v 0.07956890 -0.00616591 0.01202209
v 0.07943622 -0.01332000 0.01234579
v 0.07929274 -0.01591302 0.01269207
v 0.07883429 0.00162959 0.01374597
v 0.07901227 0.01851436 0.01334700
v 0.07883537 0.01396972 0.01374597
v 0.07868219 -0.01526614 0.01407343
v 0.07840064 -0.00031654 0.01464555
v 0.07819352 0.01461661 0.01505582
v 0.07819352 -0.00031654 0.01505582
v 0.07802308 -0.01006366 0.01538328
v 0.07802308 -0.00941129 0.01538328
v 0.07802201 0.00876724 0.01538328
v 0.07771565 -0.01200979 0.01594410
v 0.07751609 -0.01656539 0.01629791
v 0.07732623 -0.01396141 0.01662537
v 0.07700261 0.02241759 0.01716738
v 0.07700153 -0.00876441 0.01716738
v 0.07680197 -0.00162127 0.01749484
v 0.07654415 0.00033034 0.01789758
v 0.07627016 0.00098271 0.01832291
v 0.07604686 -0.00031654 0.01864284
v 0.07627016 0.00616326 0.01832291
v 0.07679981 0.01526349 0.01749484
v 0.07679766 0.02631534 0.01749108
v 0.07679658 0.02696771 0.01749108
v 0.07732731 0.02761459 0.01661785
v 0.07817627 0.02798189 0.01502571
v 0.07760454 0.02804219 0.01594410
v 0.07751285 0.02761459 0.01629415
v 0.07770918 0.02761459 0.01594410
v 0.07801985 0.02761459 0.01537575
v 0.07819137 0.02761459 0.01505205
v 0.07717089 0.02810249 0.01653880
v 0.07656573 0.02816828 0.01727654
v 0.07717413 0.02825051 0.01594410
v 0.07783647 0.02812442 0.01526283
v 0.07827120 0.02807508 0.01464555
v 0.07903925 0.02813538 0.01269207
v 0.07962283 0.02811894 0.01139352
v 0.07890441 0.02806412 0.01334700
v 0.07977278 0.02824502 0.01009496
v 0.08027331 0.02812442 0.00944757
v 0.08042217 0.02828888 0.00749785
v 0.08107264 0.02826696 0.00424958
v 0.08107264 0.02829985 0.00360219
v 0.08158072 0.02813538 0.00231116
v 0.08159798 0.02814087 0.00166000
v 0.08183746 0.02761459 0.00036144
v 0.08161201 0.02814087 -0.00028971
v 0.08160877 0.02814087 -0.00094087
v 0.08107264 0.02834370 -0.00223943
v 0.08042217 0.02834919 -0.00614262
v 0.08042217 0.02833822 -0.00679378
v 0.07977494 0.02833274 -0.00939842
v 0.07970159 0.02728018 -0.01166430
v 0.07982348 0.02697319 -0.01134813
v 0.08002412 0.02697319 -0.01079860
v 0.08002304 -0.02306712 -0.01080236
v 0.08012121 0.02798189 -0.01043726
v 0.07981917 0.02762007 -0.01134813
v 0.08002304 -0.02371949 -0.01080236
v 0.07982779 -0.02371949 -0.01134813
v 0.07982348 -0.02437185 -0.01134813
v 0.07970159 -0.02435540 -0.01166807
v 0.07953007 -0.02436637 -0.01210845
v 0.07935855 -0.02436637 -0.01253001
v 0.07903170 -0.02436637 -0.01329785
v 0.07884184 -0.02436637 -0.01371564
v 0.07977494 0.02825599 -0.01004958
v 0.08028302 0.02812990 -0.00939842
v 0.08018377 0.02805316 -0.01004958
v 0.07970159 -0.02501873 -0.01156644
v 0.07970159 -0.02549019 -0.01134813
v 0.08009747 -0.02532573 -0.01036575
v 0.07990330 -0.02566562 -0.01069697
v 0.08011582 -0.02603840 -0.00977105
v 0.07994646 -0.02627961 -0.01001194
v 0.08003275 -0.02647148 -0.00951134
v 0.08010072 -0.02664691 -0.00907849
v 0.07987741 -0.02691005 -0.00933443
v 0.08014602 -0.02673462 -0.00874726
v 0.08015896 -0.02678396 -0.00860423
v 0.08180618 -0.02438830 -0.00159580
v 0.08180726 -0.02436637 -0.00159580
v 0.08181049 -0.02371949 -0.00159580
v 0.08183531 -0.02371949 -0.00094840
v 0.08185041 -0.02371949 -0.00029348
v 0.08185041 -0.02371949 0.00035392
v 0.08183423 -0.02371949 0.00100131
v 0.08176950 -0.01917485 0.00230363
v 0.08183423 -0.01671341 0.00100884
v 0.08180834 -0.01787012 0.00165247
v 0.08176950 -0.00941129 0.00231116
v 0.08171664 -0.01671888 0.00294726
v 0.08170154 -0.01671888 0.00309782
v 0.08164977 -0.01671341 0.00360219
v 0.08157317 -0.01671888 0.00424582
v 0.08155160 -0.01671341 0.00440390
v 0.08148148 -0.01332000 0.00490451
v 0.08141568 -0.01591302 0.00533359
v 0.08135851 -0.01526614 0.00565729
v 0.08125927 -0.01526614 0.00620306
v 0.08135959 0.00746251 0.00564976
v 0.08126035 -0.00421977 0.00620306
v 0.08112551 -0.01656539 0.00684669
v 0.08097772 -0.01656539 0.00749785
v 0.08082454 -0.00031654 0.00813019
v 0.08074255 0.01656274 0.00845013
v 0.08064763 -0.01136291 0.00879641
v 0.08045993 -0.00291504 0.00944757
v 0.08025929 -0.01200979 0.01009496
v 0.08012660 -0.00876441 0.01050523
v 0.08012553 -0.00291504 0.01050523
v 0.08012445 0.01201263 0.01049770
v 0.08000794 0.02631534 0.01081763
v 0.07980514 0.02371684 0.01139352
v 0.07980730 0.00616326 0.01139352
v 0.07956890 0.02761459 0.01201833
v 0.07943514 0.01656274 0.01234203
v 0.07928735 0.02371684 0.01269207
v 0.07901012 0.02761459 0.01334700
v 0.07883537 0.01981361 0.01374597
v 0.07867572 0.02696771 0.01407343
v 0.07839848 0.01266499 0.01464555
v 0.07802093 0.01526349 0.01538328
v 0.07839741 0.01851436 0.01464555
v 0.07819245 0.01916672 0.01505582
v 0.07839417 0.02761459 0.01464555
v 0.07882135 0.02798189 0.01372339
v 0.07801985 0.02696771 0.01537952
v 0.07819245 0.02566846 0.01505205
v 0.07952791 0.02804219 0.01192047
v 0.08017623 0.02804219 0.01009496
v 0.08079865 0.02800930 0.00802104
v 0.08086121 0.02808605 0.00749785
v 0.08093133 0.02812990 0.00684669
v 0.08152032 0.02810249 0.00360219
v 0.08155376 0.02811894 0.00295479
v 0.08179863 0.02761459 0.00166000
v 0.08182452 0.02761459 0.00100884
v 0.08183423 0.02761459 -0.00028971
v 0.08184393 0.02696771 0.00036144
v 0.08160014 0.02814087 -0.00158827
v 0.08182559 0.02761459 -0.00094087
v 0.08107264 0.02832726 -0.00289059
v 0.08157965 0.02813538 -0.00223943
v 0.08107264 0.02830533 -0.00354175
v 0.08107264 0.02827244 -0.00418914
v 0.08042217 0.02829436 -0.00744118
v 0.08001981 0.02762007 -0.01079860
v 0.08013199 0.02762007 -0.01047114
v 0.08013307 0.01981909 -0.01047490
v 0.08013523 -0.02371949 -0.01047867
v 0.08080081 0.02801478 -0.00797565
v 0.08065733 0.02762007 -0.00874726
v 0.08047072 0.02762007 -0.00939842
v 0.08026791 0.02762007 -0.01004958
v 0.08002089 -0.02437185 -0.01079860
v 0.08012121 -0.02489813 -0.01043726
v 0.07978465 -0.02501873 -0.01134813
v 0.08093780 0.02813538 -0.00679378
v 0.08086769 0.02809153 -0.00744118
v 0.08032293 -0.02566562 -0.00939842
v 0.08016220 -0.02566562 -0.00991784
v 0.08005864 -0.02566562 -0.01024530
v 0.08001981 -0.02507356 -0.01067063
v 0.08020750 -0.02507356 -0.01010980
v 0.08043404 -0.02501873 -0.00939842
v 0.08031322 -0.02631799 -0.00874726
v 0.08015896 -0.02627961 -0.00933443
v 0.08051063 -0.02566562 -0.00874726
v 0.08054838 -0.02567110 -0.00860423
v 0.08035205 -0.02631799 -0.00860423
v 0.08171664 -0.02438830 -0.00289435
v 0.08176842 -0.02438830 -0.00224696
v 0.08181049 -0.02306712 -0.00159580
v 0.08177166 -0.02371949 -0.00224696
v 0.08183531 -0.02047410 -0.00094840
v 0.08185041 -0.02112098 -0.00029348
v 0.08185041 -0.01996975 0.00035392
v 0.08183423 -0.01266764 0.00100884
v 0.08180618 0.00552734 0.00166000
v 0.08176950 -0.00226816 0.00231116
v 0.08171557 -0.00421977 0.00295479
v 0.08164977 -0.01266764 0.00360219
v 0.08157209 0.01331736 0.00424958
v 0.08147933 0.01461661 0.00490451
v 0.08141352 0.00486949 0.00532607
v 0.08126035 0.00422809 0.00620306
v 0.08135743 0.02566846 0.00563471
v 0.08125495 0.02696771 0.00620306
v 0.08112442 -0.00226816 0.00684669
v 0.08097448 0.02761459 0.00749785
v 0.08082454 0.01396972 0.00813019
v 0.08064547 0.01136574 0.00879641
v 0.08082454 0.02761459 0.00812266
v 0.08074147 0.02306447 0.00845013
v 0.08025929 -0.00421977 0.01009496
v 0.08045777 0.01916672 0.00944757
v 0.08025821 0.00681563 0.01009496
v 0.08025605 0.02241759 0.01009496
v 0.08012228 0.02501609 0.01049017
v 0.07980406 0.02696771 0.01139352
v 0.08012121 0.02761459 0.01049017
v 0.07928628 0.02696771 0.01269207
v 0.07980083 0.02761459 0.01139352
v 0.08011366 0.02796544 0.01046759
v 0.07883321 0.02761459 0.01374221
v 0.07883429 0.02566846 0.01374221
v 0.08073932 0.02761459 0.00844636
v 0.08111795 0.02761459 0.00684669
v 0.08140597 0.02795448 0.00528090
v 0.08143618 0.02800382 0.00490451
v 0.08148256 0.02806412 0.00424958
v 0.08176411 0.02761459 0.00231116
v 0.08179971 0.02696771 0.00166000
v 0.08182883 0.02696771 0.00100884
v 0.08183962 0.02696771 -0.00028971
v 0.08182991 0.02436372 0.00100884
v 0.08183099 0.01786199 0.00100884
v 0.08183207 0.01071886 0.00100884
v 0.08184502 0.01916672 0.00036144
v 0.08180510 0.02761459 -0.00158827
v 0.08182991 0.02696771 -0.00094087
v 0.08155592 0.02812442 -0.00289059
v 0.08152463 0.02810249 -0.00354175
v 0.08027547 -0.02371949 -0.01004958
v 0.08013415 -0.02437185 -0.01047114
v 0.08141244 0.02796544 -0.00525057
v 0.08098958 0.02761459 -0.00744118
v 0.08082777 0.02761459 -0.00808857
v 0.08069617 0.02762007 -0.00860423
v 0.08066165 0.02697319 -0.00874726
v 0.08047395 0.02697319 -0.00939842
v 0.08027115 -0.02437185 -0.01004958
v 0.08047287 -0.02437185 -0.00939842
v 0.08148364 0.02806412 -0.00418914
v 0.08144157 0.02800930 -0.00483654
v 0.08062173 -0.02501873 -0.00874726
v 0.08050524 -0.02581364 -0.00860423
v 0.08066057 -0.02501873 -0.00860423
v 0.08126358 -0.02438830 -0.00614262
v 0.08136390 -0.02438830 -0.00560062
v 0.08141784 -0.02438830 -0.00528445
v 0.08148687 -0.02438830 -0.00482901
v 0.08157533 -0.02438830 -0.00420044
v 0.08165192 -0.02438830 -0.00354551
v 0.08171772 -0.02436637 -0.00289435
v 0.08172096 -0.02371949 -0.00289435
v 0.08177166 -0.01996975 -0.00224696
v 0.08180942 0.01266499 -0.00158827
v 0.08173282 -0.01996975 -0.00274756
v 0.08183315 -0.00096343 0.00100884
v 0.08180078 0.02501609 0.00166000
v 0.08176519 0.02566846 0.00231116
v 0.08176734 0.01786199 0.00231116
v 0.08176842 0.00941413 0.00231116
v 0.08171125 0.02566846 0.00295479
v 0.08164652 0.01201263 0.00360219
v 0.08156994 0.02761459 0.00424958
v 0.08147608 0.02761459 0.00490451
v 0.08112011 0.02696771 0.00684669
v 0.08135743 0.02696771 0.00563094
v 0.08141029 0.02761459 0.00530348
v 0.08135095 0.02761459 0.00563094
v 0.08124632 0.02761459 0.00620306
v 0.08064223 0.02501609 0.00879641
v 0.08074040 0.02696771 0.00844636
v 0.08045562 0.02566846 0.00944757
v 0.08025389 0.02761459 0.01009496
v 0.08045238 0.02761459 0.00944757
v 0.08064116 0.02696771 0.00879641
v 0.08164329 0.02761459 0.00360219
v 0.08171017 0.02761459 0.00295479
v 0.08176411 0.02761459 -0.00223943
v 0.08180618 0.02696771 -0.00158827
v 0.08180834 0.01851436 -0.00158827
v 0.08180726 0.02371684 -0.00158827
v 0.08171557 0.02761459 -0.00289059
v 0.08047611 -0.02371949 -0.00939842
v 0.08047611 0.00033034 -0.00939842
v 0.08165300 0.02761459 -0.00354175
v 0.08157101 0.02761459 -0.00418914
v 0.08148472 0.02761459 -0.00483654
v 0.08142000 0.02761459 -0.00529197
v 0.08113090 0.02761459 -0.00679378
v 0.08113413 0.02696771 -0.00679378
v 0.08099066 0.02436372 -0.00744118
v 0.08082885 0.02566846 -0.00808857
v 0.08069941 0.02538887 -0.00860423
v 0.08069833 0.02697319 -0.00860423
v 0.08070480 -0.00292052 -0.00860423
v 0.08066273 -0.00357289 -0.00875855
v 0.08069833 -0.02442667 -0.00860423
v 0.08066165 -0.02371949 -0.00875479
v 0.08067675 -0.02436089 -0.00868704
v 0.08080620 -0.02438830 -0.00819020
v 0.08098850 -0.02438830 -0.00744118
v 0.08113197 -0.02438830 -0.00679378
v 0.08113413 -0.02436637 -0.00679378
v 0.08113737 -0.02371949 -0.00679378
v 0.08126681 -0.02371949 -0.00614262
v 0.08136174 -0.02436637 -0.00561567
v 0.08142000 -0.02371949 -0.00529574
v 0.08148579 -0.02436637 -0.00484407
v 0.08157965 -0.02371949 -0.00420044
v 0.08165300 -0.02436637 -0.00354551
v 0.08165623 -0.02371949 -0.00354551
v 0.08167242 -0.01671888 -0.00339872
v 0.08172096 -0.01671888 -0.00289435
v 0.08171880 0.01916672 -0.00289059
v 0.08177166 -0.01671888 -0.00224319
v 0.08176842 0.00876724 -0.00223943
v 0.08177166 -0.01396141 -0.00223943
v 0.08176950 0.00227099 -0.00223943
v 0.08164437 0.02371684 0.00360219
v 0.08045454 0.02696771 0.00944757
v 0.08171664 0.02566846 -0.00289059
v 0.08066273 -0.00681827 -0.00875855
v 0.08066273 -0.01721776 -0.00875479
v 0.08165408 0.02501609 -0.00354175
v 0.08157209 0.02566846 -0.00418914
v 0.08148579 0.02696771 -0.00483654
v 0.08148687 0.02241759 -0.00483654
v 0.08142000 0.02436372 -0.00529574
v 0.08135959 0.02696771 -0.00561567
v 0.08126035 0.02696771 -0.00614262
v 0.08126681 -0.01996975 -0.00614262
v 0.08113737 -0.01996975 -0.00679378
v 0.08099282 0.01331736 -0.00744118
v 0.08099174 0.01981361 -0.00744118
v 0.08083425 -0.00096343 -0.00809234
v 0.08083209 0.00811488 -0.00809234
v 0.08083533 -0.00616591 -0.00809234
v 0.08075011 -0.00357289 -0.00842733
v 0.08076952 -0.01996975 -0.00835205
v 0.08070480 -0.00387440 -0.00860423
v 0.08069941 -0.02429510 -0.00860423
v 0.08074903 -0.02413612 -0.00841980
v 0.08070264 -0.02371949 -0.00860423
v 0.08098958 -0.02436637 -0.00744118
v 0.08083425 -0.02371949 -0.00809234
v 0.08081591 -0.02435540 -0.00815256
v 0.08099282 -0.02371949 -0.00744118
v 0.08099390 -0.01787012 -0.00744494
v 0.08136282 -0.02371949 -0.00561944
v 0.08143618 -0.01996975 -0.00519411
v 0.08148903 -0.02371949 -0.00484407
v 0.08165731 -0.01852249 -0.00354175
v 0.08148903 -0.01671888 -0.00484407
v 0.08148903 -0.00096343 -0.00483654
v 0.08157965 -0.00486666 -0.00418914
v 0.08165623 0.01721511 -0.00354175
v 0.08165731 -0.00745967 -0.00354175
v 0.08070372 -0.01427388 -0.00860423
v 0.08136282 -0.02112098 -0.00561944
v 0.08099390 -0.01671888 -0.00744494
v 0.08083533 -0.02176787 -0.00809234
v 0.08075011 -0.01787012 -0.00842733
v 0.08074903 -0.02306712 -0.00842733
f 1 2 8
f 1 8 3
f 1 3 4
f 1 4 5
f 1 5 6
f 1 6 7
f 1 7 9
f 1 9 2
f 2 9 10
f 2 10 8
f 3 8 24
f 3 24 11
f 3 11 12
f 3 12 4
f 4 12 13
f 4 13 14
f 4 14 15
f 4 15 16
f 4 16 17
f 4 17 5
f 5 17 7
f 5 7 6
f 7 17 18
f 7 18 19
f 7 19 20
f 7 20 21
f 7 21 22
f 7 22 53
f 7 53 122
f 7 122 58
f 7 58 25
f 7 25 9
f 8 10 23
f 8 23 24
f 9 25 26
f 9 26 27
f 9 27 10
f 10 27 28
f 10 28 29
f 10 29 30
f 10 30 23
f 11 31 12
f 11 24 55
f 11 55 32
f 11 32 31
f 12 31 33
f 12 33 13
f 13 33 14
f 14 34 35
f 14 35 36
f 14 36 15
f 14 33 37
f 14 37 38
f 14 38 39
f 14 39 40
f 14 40 34
f 15 36 41
f 15 41 16
f 16 41 42
f 16 42 18
f 16 18 17
f 18 42 19
f 19 42 43
f 19 43 44
f 19 44 20
f 20 44 45
f 20 45 46
f 20 46 21
f 21 46 22
f 22 46 47
f 22 47 48
f 22 48 49
f 22 49 50
f 22 50 51
f 22 51 52
f 22 52 121
f 22 121 53
f 23 54 24
f 23 30 54
f 24 54 55
f 25 56 57
f 25 57 26
f 25 58 56
f 26 57 127
f 26 127 59
f 26 59 60
f 26 60 27
f 27 60 61
f 27 61 62
f 27 62 63
f 27 63 64
f 27 64 65
f 27 65 30
f 27 30 29
f 27 29 28
f 30 65 66
f 30 66 67
f 30 67 68
f 30 68 69
f 30 69 70
f 30 70 71
f 30 71 72
f 30 72 73
f 30 73 74
f 30 74 75
f 30 75 76
f 30 76 77
f 30 77 78
f 30 78 79
f 30 79 80
f 30 80 81
f 30 81 82
f 30 82 83
f 30 83 84
f 30 84 85
f 30 85 86
f 30 86 87
f 30 87 88
f 30 88 89
f 30 89 90
f 30 90 91
f 30 91 92
f 30 92 93
f 30 93 55
f 30 55 54
f 31 94 33
f 31 32 94
f 32 55 93
f 32 93 95
f 32 95 38
f 32 38 94
f 33 94 37
f 34 40 96
f 34 96 97
f 34 97 98
f 34 98 99
f 34 99 100
f 34 100 101
f 34 101 102
f 34 102 35
f 35 102 103
f 35 103 104
f 35 104 36
f 36 104 41
f 37 94 38
f 38 95 92
f 38 92 91
f 38 91 105
f 38 105 39
f 39 105 106
f 39 106 40
f 40 106 107
f 40 107 108
f 40 108 96
f 41 104 42
f 42 104 43
f 43 104 109
f 43 109 45
f 43 45 44
f 45 109 110
f 45 110 111
f 45 111 47
f 45 47 46
f 47 111 48
f 48 112 49
f 48 111 113
f 48 113 114
f 48 114 112
f 49 112 115
f 49 115 116
f 49 116 50
f 50 116 117
f 50 117 51
f 51 117 118
f 51 118 52
f 52 118 119
f 52 119 120
f 52 120 121
f 53 121 123
f 53 123 124
f 53 124 122
f 56 125 127
f 56 127 57
f 56 58 126
f 56 126 125
f 58 122 124
f 58 124 128
f 58 128 129
f 58 129 130
f 58 130 131
f 58 131 132
f 58 132 126
f 59 127 133
f 59 133 134
f 59 134 135
f 59 135 136
f 59 136 137
f 59 137 138
f 59 138 60
f 60 138 139
f 60 139 61
f 61 139 140
f 61 140 141
f 61 141 142
f 61 142 62
f 62 142 143
f 62 143 144
f 62 144 63
f 63 144 145
f 63 145 64
f 64 145 65
f 65 145 146
f 65 146 147
f 65 147 66
f 66 147 148
f 66 148 149
f 66 149 150
f 66 150 151
f 66 151 67
f 67 151 152
f 67 152 153
f 67 153 154
f 67 154 155
f 67 155 156
f 67 156 157
f 67 157 158
f 67 158 159
f 67 159 160
f 67 160 161
f 67 161 162
f 67 162 163
f 67 163 164
f 67 164 68
f 68 164 165
f 68 165 69
f 69 165 166
f 69 166 167
f 69 167 168
f 69 168 169
f 69 169 70
f 70 169 71
f 71 169 168
f 71 168 170
f 71 170 171
f 71 171 72
f 72 171 172
f 72 172 73
f 73 172 174
f 73 174 74
f 74 173 75
f 74 174 292
f 74 292 175
f 74 175 173
f 75 173 76
f 76 173 175
f 76 175 292
f 76 292 176
f 76 176 77
f 77 176 177
f 77 177 178
f 77 178 179
f 77 179 78
f 78 179 180
f 78 180 79
f 79 180 181
f 79 181 182
f 79 182 183
f 79 183 80
f 80 183 184
f 80 184 81
f 81 184 185
f 81 185 82
f 82 185 186
f 82 186 187
f 82 187 83
f 83 187 84
f 84 187 85
f 85 187 186
f 85 186 188
f 85 188 189
f 85 189 86
f 86 189 192
f 86 192 190
f 86 190 87
f 87 190 88
f 88 190 192
f 88 192 191
f 88 191 107
f 88 107 89
f 89 107 106
f 89 106 90
f 90 106 105
f 90 105 91
f 92 95 93
f 96 108 192
f 96 192 97
f 97 192 193
f 97 193 194
f 97 194 195
f 97 195 98
f 98 195 99
f 99 195 194
f 99 194 186
f 99 186 196
f 99 196 100
f 100 197 198
f 100 198 101
f 100 196 199
f 100 199 200
f 100 200 201
f 100 201 202
f 100 202 197
f 101 198 203
f 101 203 102
f 102 203 204
f 102 204 103
f 103 204 109
f 103 109 104
f 107 191 108
f 108 191 192
f 109 204 205
f 109 205 110
f 110 205 113
f 110 113 111
f 112 114 115
f 113 205 206
f 113 206 207
f 113 207 114
f 114 208 209
f 114 209 115
f 114 207 210
f 114 210 208
f 115 209 211
f 115 211 116
f 116 211 212
f 116 212 213
f 116 213 117
f 117 213 214
f 117 214 215
f 117 215 118
f 118 215 216
f 118 216 217
f 118 217 119
f 119 217 218
f 119 218 120
f 120 219 121
f 120 218 219
f 121 219 220
f 121 220 221
f 121 221 222
f 121 222 123
f 123 222 223
f 123 223 224
f 123 224 128
f 123 128 124
f 125 126 225
f 125 225 226
f 125 226 227
f 125 227 228
f 125 228 231
f 125 231 127
f 126 132 229
f 126 229 230
f 126 230 225
f 127 231 232
f 127 232 233
f 127 233 234
f 127 234 235
f 127 235 236
f 127 236 237
f 127 237 238
f 127 238 133
f 128 224 129
f 129 224 239
f 129 239 130
f 130 239 240
f 130 240 241
f 130 241 229
f 130 229 131
f 131 229 132
f 133 238 242
f 133 242 243
f 133 243 134
f 134 243 244
f 134 244 245
f 134 245 135
f 135 245 246
f 135 246 247
f 135 247 248
f 135 248 249
f 135 249 136
f 136 249 137
f 137 249 250
f 137 250 139
f 137 139 138
f 139 250 249
f 139 249 251
f 139 251 252
f 139 252 140
f 140 252 141
f 141 252 253
f 141 253 254
f 141 254 142
f 142 254 255
f 142 255 256
f 142 256 257
f 142 257 143
f 143 257 258
f 143 258 144
f 144 258 145
f 145 258 259
f 145 259 146
f 146 260 147
f 146 259 261
f 146 261 351
f 146 351 262
f 146 262 353
f 146 353 263
f 146 263 260
f 147 260 148
f 148 260 263
f 148 263 353
f 148 353 264
f 148 264 265
f 148 265 266
f 148 266 149
f 149 266 150
f 150 266 355
f 150 355 267
f 150 267 268
f 150 268 152
f 150 152 151
f 152 268 269
f 152 269 270
f 152 270 153
f 153 270 154
f 154 271 272
f 154 272 155
f 154 270 273
f 154 273 271
f 155 272 156
f 156 272 274
f 156 274 157
f 157 274 359
f 157 359 275
f 157 275 276
f 157 276 158
f 158 276 364
f 158 364 277
f 158 277 159
f 159 277 160
f 160 277 161
f 161 277 364
f 161 364 278
f 161 278 279
f 161 279 162
f 162 279 280
f 162 280 163
f 163 280 368
f 163 368 281
f 163 281 164
f 164 281 165
f 165 281 368
f 165 368 282
f 165 282 167
f 165 167 166
f 167 282 283
f 167 283 284
f 167 284 285
f 167 285 286
f 167 286 287
f 167 287 168
f 168 287 288
f 168 288 170
f 170 288 171
f 171 288 172
f 172 288 289
f 172 289 290
f 172 290 174
f 174 290 291
f 174 291 292
f 176 292 293
f 176 293 177
f 177 293 294
f 177 294 178
f 178 295 182
f 178 182 181
f 178 181 180
f 178 180 179
f 178 294 296
f 178 296 297
f 178 297 295
f 182 295 200
f 182 200 183
f 183 200 199
f 183 199 184
f 184 199 196
f 184 196 185
f 185 196 186
f 186 194 193
f 186 193 188
f 188 193 189
f 189 193 192
f 197 202 298
f 197 298 299
f 197 299 207
f 197 207 198
f 198 207 203
f 200 295 300
f 200 300 201
f 201 300 202
f 202 300 301
f 202 301 298
f 203 206 205
f 203 205 204
f 203 207 206
f 207 299 210
f 208 210 209
f 209 212 211
f 209 210 302
f 209 302 303
f 209 303 212
f 210 299 302
f 212 303 304
f 212 304 305
f 212 305 213
f 213 305 306
f 213 306 214
f 214 306 307
f 214 307 215
f 215 307 308
f 215 308 216
f 216 308 309
f 216 309 310
f 216 310 217
f 217 310 218
f 218 311 220
f 218 220 219
f 218 310 312
f 218 312 311
f 220 313 221
f 220 311 314
f 220 314 313
f 221 315 223
f 221 223 222
f 221 313 316
f 221 316 315
f 223 315 317
f 223 317 318
f 223 318 319
f 223 319 224
f 224 319 240
f 224 240 239
f 225 230 226
f 226 230 320
f 226 320 227
f 227 320 321
f 227 321 322
f 227 322 323
f 227 323 228
f 228 323 231
f 229 324 325
f 229 325 326
f 229 326 327
f 229 327 321
f 229 321 320
f 229 320 230
f 229 241 324
f 231 323 328
f 231 328 232
f 232 328 233
f 233 328 329
f 233 329 330
f 233 330 242
f 233 242 234
f 234 242 235
f 235 242 236
f 236 242 237
f 237 242 238
f 240 319 331
f 240 331 332
f 240 332 241
f 241 332 324
f 242 330 243
f 243 330 244
f 244 333 334
f 244 334 335
f 244 335 245
f 244 330 336
f 244 336 329
f 244 329 337
f 244 337 338
f 244 338 333
f 245 335 246
f 246 339 340
f 246 340 249
f 246 249 248
f 246 248 247
f 246 335 334
f 246 334 333
f 246 333 341
f 246 341 342
f 246 342 339
f 249 340 339
f 249 339 343
f 249 343 251
f 251 343 252
f 252 343 344
f 252 344 345
f 252 345 253
f 253 345 254
f 254 345 255
f 255 346 348
f 255 348 256
f 255 345 347
f 255 347 420
f 255 420 346
f 256 348 349
f 256 349 257
f 257 349 350
f 257 350 258
f 258 350 351
f 258 351 261
f 258 261 259
f 262 351 352
f 262 352 353
f 264 353 354
f 264 354 265
f 265 354 355
f 265 355 266
f 267 355 356
f 267 356 268
f 268 356 269
f 269 356 357
f 269 357 270
f 270 357 358
f 270 358 273
f 271 273 359
f 271 359 274
f 271 274 272
f 273 360 361
f 273 361 359
f 273 358 360
f 275 359 362
f 275 362 363
f 275 363 276
f 276 363 364
f 278 365 279
f 278 364 366
f 278 366 367
f 278 367 365
f 279 365 280
f 280 365 369
f 280 369 368
f 282 368 370
f 282 370 371
f 282 371 283
f 283 371 284
f 284 371 372
f 284 372 285
f 285 373 286
f 285 372 374
f 285 374 373
f 286 373 288
f 286 288 287
f 288 291 375
f 288 375 290
f 288 290 289
f 288 373 376
f 288 376 377
f 288 377 302
f 288 302 299
f 288 299 291
f 290 375 291
f 291 378 379
f 291 379 292
f 291 299 378
f 292 379 293
f 293 296 294
f 293 379 378
f 293 378 298
f 293 298 296
f 295 297 300
f 296 298 301
f 296 301 297
f 297 301 300
f 298 378 299
f 302 377 303
f 303 377 304
f 304 377 380
f 304 380 366
f 304 366 363
f 304 363 381
f 304 381 382
f 304 382 305
f 305 382 383
f 305 383 306
f 306 383 384
f 306 384 307
f 307 384 385
f 307 385 308
f 308 385 309
f 309 385 386
f 309 386 387
f 309 387 310
f 310 387 312
f 311 312 388
f 311 388 314
f 312 387 389
f 312 389 390
f 312 390 391
f 312 391 392
f 312 392 349
f 312 349 388
f 313 314 393
f 313 393 316
f 314 388 394
f 314 394 393
f 315 316 395
f 315 395 317
f 316 393 395
f 317 395 318
f 318 395 396
f 318 396 331
f 318 331 319
f 321 327 322
f 322 327 397
f 322 397 323
f 323 397 398
f 323 398 328
f 324 399 400
f 324 400 401
f 324 401 402
f 324 402 325
f 324 332 399
f 325 402 403
f 325 403 326
f 326 403 404
f 326 404 327
f 327 404 397
f 328 398 329
f 329 338 337
f 329 336 330
f 329 398 405
f 329 405 406
f 329 406 338
f 331 396 407
f 331 407 408
f 331 408 332
f 332 408 399
f 333 338 409
f 333 409 341
f 338 406 409
f 339 342 410
f 339 410 343
f 341 409 411
f 341 411 342
f 342 411 412
f 342 412 413
f 342 413 414
f 342 414 415
f 342 415 410
f 343 410 415
f 343 415 416
f 343 416 417
f 343 417 344
f 344 417 477
f 344 477 418
f 344 418 345
f 345 418 419
f 345 419 347
f 346 420 421
f 346 421 348
f 347 419 422
f 347 422 420
f 348 421 394
f 348 394 349
f 349 394 388
f 349 392 350
f 350 392 391
f 350 391 423
f 350 423 351
f 351 423 352
f 352 423 391
f 352 391 390
f 352 390 389
f 352 389 424
f 352 424 425
f 352 425 426
f 352 426 427
f 352 427 353
f 353 427 354
f 354 427 426
f 354 426 428
f 354 428 429
f 354 429 355
f 355 429 356
f 356 429 430
f 356 430 357
f 357 430 431
f 357 431 358
f 358 431 360
f 359 361 432
f 359 432 362
f 360 433 361
f 360 431 433
f 361 433 434
f 361 434 435
f 361 435 436
f 361 436 381
f 361 381 432
f 362 432 363
f 363 366 364
f 363 432 381
f 365 367 437
f 365 437 369
f 366 380 438
f 366 438 367
f 367 438 437
f 368 369 370
f 369 371 370
f 369 437 439
f 369 439 371
f 371 439 440
f 371 440 374
f 371 374 372
f 373 374 376
f 374 440 377
f 374 377 376
f 377 440 441
f 377 441 380
f 380 441 487
f 380 487 442
f 380 442 438
f 381 436 382
f 382 436 435
f 382 435 434
f 382 434 431
f 382 431 430
f 382 430 443
f 382 443 383
f 383 443 444
f 383 444 384
f 384 444 385
f 385 444 428
f 385 428 425
f 385 425 386
f 386 425 424
f 386 424 387
f 387 424 389
f 393 445 396
f 393 396 395
f 393 394 446
f 393 446 445
f 394 421 447
f 394 447 448
f 394 448 446
f 396 445 449
f 396 449 407
f 397 450 406
f 397 406 405
f 397 405 398
f 397 404 451
f 397 451 450
f 399 408 449
f 399 449 452
f 399 452 453
f 399 453 454
f 399 454 455
f 399 455 456
f 399 456 400
f 400 456 457
f 400 457 458
f 400 458 459
f 400 459 401
f 401 459 460
f 401 460 461
f 401 461 402
f 402 461 403
f 403 461 460
f 403 460 462
f 403 462 463
f 403 463 404
f 404 463 451
f 406 464 409
f 406 450 465
f 406 465 466
f 406 466 464
f 407 449 408
f 409 464 411
f 411 464 467
f 411 467 468
f 411 468 469
f 411 469 412
f 412 469 470
f 412 470 471
f 412 471 472
f 412 472 473
f 412 473 413
f 413 473 414
f 414 473 474
f 414 474 475
f 414 475 415
f 415 475 416
f 416 475 476
f 416 476 477
f 416 477 417
f 418 477 478
f 418 478 419
f 419 478 479
f 419 479 480
f 419 480 422
f 420 422 481
f 420 481 482
f 420 482 421
f 421 483 447
f 421 482 484
f 421 484 485
f 421 485 483
f 422 480 481
f 425 428 426
f 428 444 443
f 428 443 486
f 428 486 429
f 429 486 430
f 430 486 443
f 431 434 433
f 437 438 442
f 437 442 439
f 439 442 487
f 439 487 440
f 440 487 441
f 445 446 448
f 445 448 483
f 445 483 481
f 445 481 488
f 445 488 449
f 447 483 448
f 449 488 452
f 450 451 463
f 450 463 489
f 450 489 490
f 450 490 465
f 452 488 491
f 452 491 492
f 452 492 453
f 453 492 493
f 453 493 454
f 454 493 455
f 455 493 494
f 455 494 495
f 455 495 496
f 455 496 497
f 455 497 456
f 456 497 457
f 457 497 498
f 457 498 499
f 457 499 500
f 457 500 501
f 457 501 458
f 458 501 502
f 458 502 503
f 458 503 459
f 459 503 460
f 460 503 502
f 460 502 504
f 460 504 505
f 460 505 462
f 462 505 506
f 462 506 507
f 462 507 489
f 462 489 463
f 464 466 508
f 464 508 509
f 464 509 467
f 465 510 466
f 465 490 510
f 466 510 508
f 467 511 468
f 467 509 512
f 467 512 513
f 467 513 511
f 468 511 470
f 468 470 469
f 470 511 514
f 470 514 471
f 471 514 515
f 471 515 527
f 471 527 499
f 471 499 498
f 471 498 472
f 472 498 526
f 472 526 516
f 472 516 473
f 473 516 474
f 474 517 518
f 474 518 475
f 474 516 526
f 474 526 495
f 474 495 517
f 475 518 476
f 476 519 478
f 476 478 477
f 476 518 520
f 476 520 521
f 476 521 522
f 476 522 523
f 476 523 524
f 476 524 519
f 478 519 479
f 479 524 523
f 479 523 481
f 479 481 480
f 479 519 524
f 481 483 485
f 481 485 484
f 481 484 482
f 481 523 491
f 481 491 488
f 489 507 490
f 490 507 525
f 490 525 510
f 491 523 492
f 492 523 522
f 492 522 493
f 493 522 494
f 494 522 521
f 494 521 495
f 495 521 520
f 495 520 517
f 495 526 498
f 495 498 496
f 496 498 497
f 499 527 500
f 500 527 504
f 500 504 501
f 501 504 502
f 504 527 515
f 504 515 528
f 504 528 506
f 504 506 505
f 506 529 507
f 506 528 530
f 506 530 510
f 506 510 529
f 507 529 525
f 508 510 509
f 509 510 512
f 510 530 512
f 510 525 529
f 511 513 512
f 511 512 514
f 512 530 528
f 512 528 514
f 514 528 515
f 517 520 518
