# https://github.com/mikedh/trimesh
v 0.05170536 0.02935748 0.01996059
v 0.05116087 0.02935748 0.02050214
v 0.05300763 0.02935222 0.01996059
v 0.07343424 0.02835297 0.01681806
v 0.04727651 0.02935748 0.01996059
v 0.04986982 0.02831615 0.03219637
v 0.05506770 0.02833719 0.03154495
v 0.05181201 0.02935222 0.02050214
v 0.05441656 0.02934170 0.01996059
v 0.04727651 0.02935748 0.02050214
v 0.07343424 0.02835297 0.02033732
v 0.07343424 -0.01656074 0.01681806
v 0.06678816 0.02835297 0.01681806
v 0.05506208 0.02931540 0.01996059
v 0.04533432 0.02935222 0.01996059
v 0.04857878 0.02811630 0.03268141
v 0.04922430 0.02811630 0.03267984
v 0.05052096 0.02831089 0.03219637
v 0.04793325 0.02831615 0.03219637
v 0.05571883 0.02830038 0.03154495
v 0.05766663 0.02833719 0.03089667
v 0.05178395 0.02827934 0.03219637
v 0.05960881 0.02833719 0.03024838
v 0.06308903 0.02833719 0.02872264
v 0.06611457 0.02834771 0.02699911
v 0.04597985 0.02935222 0.02050214
v 0.07196919 0.02833719 0.02245013
v 0.07326584 0.02831615 0.02115042
v 0.07343424 0.02831089 0.02098717
v 0.07343424 -0.01675533 0.01723717
v 0.05926640 -0.02437067 0.02831922
v 0.01608930 -0.01997397 0.02303720
v 0.02714178 -0.01634511 0.01782737
v 0.06678816 -0.01634511 0.01681806
v 0.04338653 0.02933644 0.01996059
v 0.04403205 0.02934170 0.01996059
v 0.02714178 0.02834771 0.01782737
v 0.06806798 0.02833719 0.02569940
v 0.07131805 0.02833719 0.02302464
v 0.04857878 0.02760616 0.03284152
v 0.04793325 0.02811104 0.03267356
v 0.04922430 0.02760616 0.03283838
v 0.04986982 0.02811104 0.03267670
v 0.05052096 0.02810052 0.03266415
v 0.04338091 0.02833719 0.03154495
v 0.04273539 0.02832667 0.03154495
v 0.04663098 0.02828986 0.03219637
v 0.05246876 0.02823727 0.03219637
v 0.05506770 0.02812156 0.03206923
v 0.05571883 0.02808475 0.03200958
v 0.05636435 0.02823200 0.03154495
v 0.05831215 0.02828986 0.03089667
v 0.06025995 0.02828986 0.03024838
v 0.05116649 0.02808475 0.03264374
v 0.05181762 0.02806897 0.03262176
v 0.06156222 0.02831615 0.02959853
v 0.06286450 0.02832667 0.02894867
v 0.06416677 0.02832667 0.02829725
v 0.06546343 0.02831615 0.02764896
v 0.06741684 0.02832141 0.02634769
v 0.04013645 0.02832667 0.03089667
v 0.07206461 0.02815838 0.02302464
v 0.07262594 0.02815312 0.02245641
v 0.07002139 0.02831089 0.02440283
v 0.07326584 0.02814260 0.02179557
v 0.07343424 0.02813208 0.02162290
v 0.07343424 -0.01675533 0.02195411
v 0.05926640 -0.02437067 0.03119648
v 0.04650749 -0.02437067 0.03003490
v 0.01608930 -0.01997397 0.02666790
v 0.01608930 0.01854453 0.02497734
v 0.04273539 0.02931540 0.01996059
v 0.03818865 0.02832667 0.03024524
v 0.01608930 0.01909675 0.02505426
v 0.01608930 0.01929134 0.02569940
v 0.02577776 0.02807423 0.02302464
v 0.02586758 0.02811104 0.02302464
v 0.02649065 0.02830038 0.02302464
v 0.02714178 0.02834771 0.02310312
v 0.04857878 -0.01526171 0.03284780
v 0.04922430 -0.02241950 0.03284780
v 0.04922430 -0.01395742 0.03284623
v 0.04793325 0.02760616 0.03282582
v 0.01608930 0.00097875 0.03283838
v 0.01608930 0.00033712 0.03285094
v 0.02192708 -0.00032554 0.03285408
v 0.04013645 0.00032661 0.03285251
v 0.04663098 0.02808475 0.03263903
v 0.04986982 0.00810499 0.03283681
v 0.04986982 0.02760616 0.03283210
v 0.05052096 0.02760616 0.03280699
v 0.04208425 0.02828460 0.03154495
v 0.04274100 0.02812156 0.03205196
v 0.04532871 0.02822675 0.03219637
v 0.04597423 0.02826356 0.03219637
v 0.05246876 0.02803741 0.03259037
v 0.05636435 0.02802164 0.03193738
v 0.05831215 0.02808475 0.03135502
v 0.05766663 0.02812156 0.03144292
v 0.05311990 0.02797956 0.03254956
v 0.05348476 0.02794275 0.03252758
v 0.06025995 0.02808475 0.03070830
v 0.06156222 0.02811630 0.03012908
v 0.06351563 0.02823200 0.02894867
v 0.06374016 0.02827408 0.02872264
v 0.06546343 0.02811104 0.02818894
v 0.06613141 0.02815838 0.02768507
v 0.06676570 0.02827408 0.02699911
v 0.06937025 0.02828986 0.02504955
v 0.03948532 0.02826882 0.03089667
v 0.07241824 0.02804793 0.02290377
v 0.07132366 0.02814786 0.02375926
v 0.07111036 0.02803741 0.02418464
v 0.07304693 0.02804793 0.02224293
v 0.07343424 0.02810052 0.02170766
v 0.07343424 -0.01007086 0.02195568
v 0.07311429 -0.01675533 0.02230729
v 0.06492456 -0.01996345 0.02872421
v 0.06418923 -0.01996345 0.02911977
v 0.06378507 -0.01996345 0.02932854
v 0.06351002 -0.01996345 0.02946353
v 0.06286450 -0.01996345 0.02977276
v 0.06254454 -0.01996345 0.02992502
v 0.06221336 -0.01996345 0.03006944
v 0.06146680 -0.01996345 0.03038809
v 0.06112439 -0.01996345 0.03052936
v 0.06067533 -0.01996345 0.03069888
v 0.05926640 -0.02371327 0.03119962
v 0.05891838 -0.02371327 0.03131264
v 0.05891277 -0.02437067 0.03130950
v 0.04650749 -0.02437067 0.03276147
v 0.02128717 -0.01997397 0.02853898
v 0.01608930 -0.01972152 0.02685313
v 0.02778169 0.02834771 0.02375298
v 0.02907835 0.02834771 0.02504955
v 0.03298517 0.02834771 0.02765053
v 0.03428183 0.02834771 0.02829882
v 0.03688638 0.02833719 0.02959853
v 0.03493297 0.02831615 0.02895024
v 0.03623525 0.02830038 0.02959853
v 0.03753752 0.02825304 0.03024524
v 0.01608930 0.01929660 0.02635083
v 0.01608930 0.01929134 0.02699911
v 0.01608930 0.01912304 0.02764896
v 0.01608930 0.01890216 0.02803511
v 0.02610333 0.02800060 0.02348456
v 0.02586758 0.02809527 0.02307487
v 0.02649065 0.02828986 0.02310312
v 0.02714178 0.02828986 0.02375298
v 0.04922430 -0.02371327 0.03284780
v 0.04728212 0.02760616 0.03279286
v 0.01608930 0.00227778 0.03278501
v 0.01608930 0.00162563 0.03281797
v 0.01608930 -0.00032554 0.03285094
v 0.01867701 -0.00032554 0.03285251
v 0.04597423 0.02805845 0.03261234
v 0.05052096 -0.01996345 0.03281169
v 0.05052096 0.01525752 0.03280856
v 0.04986982 0.00614856 0.03283681
v 0.05116649 0.02760616 0.03276774
v 0.04013645 0.02812156 0.03141781
v 0.04208425 0.02807423 0.03198760
v 0.04478984 0.02797430 0.03254642
v 0.05181762 0.02760616 0.03272379
v 0.05676851 0.02795327 0.03188871
v 0.05882296 0.02801112 0.03127653
v 0.05246876 0.02760616 0.03265943
v 0.05311990 0.02760616 0.03257938
v 0.05350721 0.02760616 0.03253072
v 0.05383278 0.02760616 0.03247892
v 0.05506770 0.02760616 0.03227172
v 0.05571883 0.02760616 0.03214771
v 0.06072585 0.02800060 0.03062354
v 0.06210110 0.02803741 0.03001607
v 0.06286450 0.02812156 0.02952161
v 0.06470003 0.02805845 0.02872264
v 0.06592933 0.02803741 0.02805394
v 0.06676570 0.02806371 0.02747159
v 0.06737755 0.02810052 0.02699440
v 0.06808481 0.02815838 0.02637908
v 0.06998210 0.02810052 0.02503071
v 0.07065568 0.02813208 0.02440283
v 0.03818865 0.02812156 0.03078365
v 0.07176711 0.02803741 0.02354735
v 0.07215443 0.02761142 0.02329463
v 0.07242386 0.02762194 0.02302464
v 0.07280556 0.02762194 0.02262594
v 0.07116649 0.02761142 0.02423801
v 0.07149206 0.02761142 0.02393192
v 0.07043116 0.02802690 0.02480624
v 0.07343424 0.02762194 0.02194783
v 0.07343424 -0.00422262 0.02195568
v 0.07311429 -0.00941346 0.02230729
v 0.07280556 -0.01675533 0.02263222
v 0.07242947 -0.01675533 0.02302464
v 0.07175027 -0.01673429 0.02369333
v 0.07141347 -0.01673429 0.02401355
v 0.07116649 -0.01673429 0.02423958
v 0.07080724 -0.01673429 0.02456451
v 0.07048167 -0.01673429 0.02484706
v 0.07009997 -0.01673429 0.02517198
v 0.06977440 -0.01673429 0.02544197
v 0.06937025 -0.01673429 0.02576533
v 0.06805114 -0.01698673 0.02675110
v 0.06748420 -0.01698673 0.02714823
v 0.06716424 -0.01698673 0.02737113
v 0.06691165 -0.01698673 0.02753438
v 0.06632787 -0.01698673 0.02790326
v 0.06600230 -0.01698673 0.02809947
v 0.06565990 -0.01698673 0.02830196
v 0.06512664 -0.01698673 0.02861276
v 0.06493017 -0.01733384 0.02872421
v 0.06419484 -0.01733384 0.02911977
v 0.06386927 -0.01733384 0.02928930
v 0.06351563 -0.01733384 0.02946510
v 0.06255016 -0.01733384 0.02992502
v 0.06209548 -0.01733384 0.03012124
v 0.06156222 0.00745810 0.03034727
v 0.06112439 0.02500285 0.03052936
v 0.06025995 -0.01590859 0.03085114
v 0.06025995 -0.01733384 0.03085114
v 0.06011400 -0.01996345 0.03090451
v 0.05960881 -0.01996345 0.03108189
v 0.05924395 0.01200207 0.03120746
v 0.05891838 -0.01996345 0.03131264
v 0.05831215 -0.02371327 0.03149629
v 0.05831215 -0.02437067 0.03149315
v 0.04662537 -0.02437067 0.03276931
v 0.01608930 -0.00357573 0.03268141
v 0.01608930 -0.00422262 0.03261548
v 0.01608930 -0.00475380 0.03255112
v 0.01608930 -0.00507987 0.03250561
v 0.01608930 -0.00552690 0.03244125
v 0.01608930 -0.00617378 0.03233765
v 0.01608930 -0.00682067 0.03222149
v 0.01608930 -0.00747281 0.03208964
v 0.01608930 -0.00818280 0.03193424
v 0.01608930 -0.00872450 0.03180238
v 0.01608930 -0.00942398 0.03162187
v 0.01608930 -0.01006560 0.03143978
v 0.01608930 -0.01058627 0.03128124
v 0.01608930 -0.01091234 0.03118078
v 0.01608930 -0.01136463 0.03102852
v 0.01608930 -0.01200625 0.03080405
v 0.01608930 -0.01249010 0.03062668
v 0.01608930 -0.01281617 0.03050424
v 0.01608930 -0.01331580 0.03030175
v 0.02452040 -0.01997397 0.02948551
v 0.02395907 -0.01997397 0.02935365
v 0.02376261 -0.01997397 0.02930186
v 0.02346510 -0.01997397 0.02922180
v 0.02317883 -0.01997397 0.02914332
v 0.02258383 -0.01997397 0.02896437
v 0.02194953 -0.01997397 0.02876345
v 0.02179236 -0.01997397 0.02871165
v 0.01608930 -0.01811220 0.02792523
v 0.01608930 -0.01851716 0.02767094
v 0.01608930 -0.01893790 0.02740252
v 0.01608930 -0.01927449 0.02717178
v 0.02778169 0.02826882 0.02440283
v 0.02974072 0.02832667 0.02569940
v 0.03168851 0.02832667 0.02699911
v 0.03233404 0.02828986 0.02765053
v 0.03363070 0.02831089 0.02829882
v 0.03493297 0.02811104 0.02946981
v 0.03623525 0.02810052 0.03008670
v 0.01608930 0.01851823 0.02827056
v 0.03714459 0.02797956 0.03059842
v 0.03575812 0.02802164 0.02998624
v 0.03445023 0.02803741 0.02935365
v 0.03317602 0.02802690 0.02870066
v 0.03193550 0.02800060 0.02801941
v 0.03003822 0.02802164 0.02674639
v 0.02926359 0.02804793 0.02613264
v 0.02855632 0.02806897 0.02553615
v 0.02743367 0.02796379 0.02474816
v 0.02676008 0.02799534 0.02412343
v 0.02651871 0.02808475 0.02372158
v 0.04857878 -0.02371327 0.03284623
v 0.04922430 -0.02437067 0.03284466
v 0.04986982 -0.02371327 0.03283367
v 0.04663098 0.02760616 0.03275833
v 0.01608930 0.00293518 0.03273949
v 0.01608930 -0.00096716 0.03283995
v 0.04857878 -0.02437067 0.03284152
v 0.04532871 0.02801112 0.03257781
v 0.05052096 -0.02371327 0.03281169
v 0.05116649 -0.02306113 0.03277402
v 0.03948532 0.02806371 0.03132519
v 0.04143311 0.02799534 0.03191226
v 0.04597423 0.02760616 0.03270653
v 0.04110193 0.02793749 0.03187145
v 0.01608930 0.00941979 0.03170663
v 0.01608930 0.00889913 0.03182907
v 0.01608930 0.00857832 0.03190127
v 0.01608930 0.00812076 0.03200173
v 0.01608930 0.00748440 0.03213045
v 0.01608930 0.00683226 0.03224818
v 0.01608930 0.00617485 0.03236119
v 0.01608930 0.00553323 0.03245851
v 0.01608930 0.00512301 0.03251345
v 0.01608930 0.00480746 0.03255270
v 0.05181762 -0.02241950 0.03272536
v 0.05246876 -0.00225567 0.03266257
v 0.05680219 0.02760616 0.03189813
v 0.05766663 0.02760616 0.03167209
v 0.05831215 0.02760616 0.03149001
v 0.05636435 0.02760616 0.03200173
v 0.05891838 0.02760616 0.03130636
v 0.05924395 0.02760616 0.03120433
v 0.05311990 -0.00680489 0.03258880
v 0.05311990 0.02500285 0.03258252
v 0.05351282 0.02500285 0.03253229
v 0.05383278 0.02694876 0.03248520
v 0.05441656 0.02694876 0.03239102
v 0.05506770 0.02630187 0.03227486
v 0.05571883 0.02630187 0.03214928
v 0.06025995 0.02760616 0.03084487
v 0.06079321 0.02760616 0.03064865
v 0.06111877 0.02760616 0.03052308
v 0.06156222 0.02760616 0.03033943
v 0.06221336 0.02760616 0.03006473
v 0.06385243 0.02794275 0.02927988
v 0.06351563 0.02803216 0.02936621
v 0.06469441 0.02804793 0.02873676
v 0.06512664 0.02760616 0.02860962
v 0.06600230 0.02760616 0.02809633
v 0.06713057 0.02797430 0.02735072
v 0.06787713 0.02803741 0.02677307
v 0.06860685 0.02806371 0.02618287
v 0.06937025 0.02807423 0.02556598
v 0.06974634 0.02799534 0.02542000
v 0.03753752 0.02804793 0.03067063
v 0.07242947 0.01655129 0.02302464
v 0.07215443 0.01331161 0.02329620
v 0.07280556 0.02631239 0.02262750
v 0.07343424 0.02696453 0.02195097
v 0.07080163 0.02761142 0.02456451
v 0.07080724 0.01915986 0.02456451
v 0.07080724 0.01201259 0.02456608
v 0.07116649 0.00875187 0.02424115
v 0.07280556 -0.01591911 0.02263222
v 0.07215443 -0.01673429 0.02329620
v 0.07116649 0.00357680 0.02424115
v 0.07048167 -0.01395742 0.02484706
v 0.07009997 -0.01201151 0.02517198
v 0.06977440 0.02761142 0.02544197
v 0.06937025 0.00614856 0.02576533
v 0.06903907 -0.01673429 0.02602119
v 0.06871350 -0.01673429 0.02626606
v 0.06819708 -0.01673429 0.02664907
v 0.06795010 0.01006142 0.02682487
v 0.06716424 -0.01460957 0.02737113
v 0.06632787 0.02566025 0.02790482
v 0.06632787 0.01915986 0.02790482
v 0.06512664 0.02695402 0.02861119
v 0.06491894 0.02760616 0.02872421
v 0.06418923 0.02240480 0.02911977
v 0.06419484 -0.01006034 0.02911977
v 0.06386927 -0.01006034 0.02928930
v 0.06351563 -0.00551112 0.02946510
v 0.06287011 -0.00485898 0.02977590
v 0.06255016 -0.00291307 0.02992502
v 0.06221336 -0.01071249 0.03007101
v 0.06221336 -0.00940820 0.03007101
v 0.06156222 0.02630187 0.03034413
v 0.06112439 0.02694876 0.03052779
v 0.05960881 0.01720343 0.03108032
v 0.05960881 -0.01071249 0.03108189
v 0.05924395 0.01914934 0.03120746
v 0.05831215 0.01070304 0.03149472
v 0.05831215 -0.01395742 0.03149629
v 0.05766663 -0.01733384 0.03168152
v 0.05766102 -0.02371327 0.03168152
v 0.05766102 -0.02437067 0.03167837
v 0.04728212 -0.02437067 0.03279914
v 0.01608930 -0.00226093 0.03278344
v 0.01608930 -0.00292359 0.03273792
v 0.01608930 -0.01398372 0.03002235
v 0.01608930 -0.01456223 0.02976962
v 0.01608930 -0.01534060 0.02940389
v 0.01608930 -0.01588230 0.02914018
v 0.01608930 -0.01661333 0.02876188
v 0.01610052 -0.01716029 0.02846677
v 0.01608930 -0.01778613 0.02811203
v 0.02718108 0.02806371 0.02436516
v 0.02778169 0.02806371 0.02489258
v 0.02906713 0.02816889 0.02573236
v 0.03038624 0.02830038 0.02634769
v 0.03165483 0.02812156 0.02764112
v 0.03297395 0.02815838 0.02833335
v 0.03363070 0.02810052 0.02881839
v 0.03459617 0.02805845 0.02939290
v 0.01608930 0.01801861 0.02853427
v 0.03904187 0.02799534 0.03125770
v 0.03233404 0.02807423 0.02813243
v 0.03116648 0.02804793 0.02745118
v 0.03038624 0.02808475 0.02686255
v 0.02975756 0.02812156 0.02634926
v 0.04986982 -0.02437067 0.03283053
v 0.01608930 0.00357154 0.03268769
v 0.01608930 -0.00161930 0.03281797
v 0.04792764 -0.02437067 0.03282268
v 0.05052096 -0.02437067 0.03280856
v 0.05116649 -0.02371327 0.03277402
v 0.01608930 0.00422369 0.03262333
v 0.01608930 0.01494723 0.02992502
v 0.01608930 0.01464745 0.03004432
v 0.01608930 0.01396375 0.03030646
v 0.01608930 0.01343783 0.03050110
v 0.01608930 0.01311702 0.03061255
v 0.01608930 0.01266473 0.03076638
v 0.01608930 0.01201784 0.03097986
v 0.01608930 0.01145511 0.03115253
v 0.01608930 0.01113430 0.03124671
v 0.01608930 0.01072408 0.03136287
v 0.01608930 0.01007719 0.03153867
v 0.05181762 -0.02371327 0.03272536
v 0.05246876 -0.02371327 0.03266257
v 0.05636435 -0.02306113 0.03200958
v 0.05681342 -0.01720236 0.03190127
v 0.05713898 -0.01996345 0.03182279
v 0.05712214 0.02694876 0.03181965
v 0.05766663 0.02694876 0.03167681
v 0.05924395 0.02694876 0.03120590
v 0.05960881 0.02694876 0.03107875
v 0.05311990 -0.01996345 0.03258723
v 0.05352966 -0.02371327 0.03253543
v 0.05353528 -0.01460957 0.03253543
v 0.05353528 -0.00745703 0.03253543
v 0.05384962 0.01525752 0.03248834
v 0.05441656 0.02564973 0.03239259
v 0.05441656 0.01330635 0.03239572
v 0.05506770 -0.00420158 0.03228114
v 0.05571883 -0.02371327 0.03215242
v 0.06156222 0.02694876 0.03034256
v 0.06253893 0.02630187 0.02992188
v 0.06253893 0.02760616 0.02992032
v 0.06418361 0.02760616 0.02911820
v 0.06286450 0.02760616 0.02977120
v 0.06351563 0.02760616 0.02945882
v 0.06632226 0.02760616 0.02790326
v 0.06715301 0.02760616 0.02736485
v 0.06747859 0.02760616 0.02714823
v 0.06795010 0.02760616 0.02682330
v 0.06805675 0.02761142 0.02674639
v 0.06827567 0.02761142 0.02658942
v 0.06676570 0.02760616 0.02761914
v 0.06871350 0.02761142 0.02626449
v 0.06903907 0.02761142 0.02601805
v 0.06937025 0.02761142 0.02576062
v 0.06903907 -0.01656074 0.02602119
v 0.06795010 0.01070830 0.02682487
v 0.06676570 0.02695402 0.02762071
v 0.06351563 0.02630187 0.02946039
v 0.06286450 0.01265421 0.02977590
v 0.06286450 0.02564973 0.02977276
v 0.05766663 0.00485479 0.03168152
v 0.05713898 -0.02371327 0.03182279
v 0.05712776 -0.02437067 0.03182122
v 0.01608930 -0.01716029 0.02846207
v 0.01608930 0.01770305 0.02869281
v 0.01608930 0.01721921 0.02892356
v 0.01608930 0.01668803 0.02917314
v 0.01608930 0.01636196 0.02932069
v 0.01608930 0.01591492 0.02951690
v 0.01608930 0.01524700 0.02979945
v 0.05116649 -0.02437067 0.03277088
v 0.05181762 -0.02437067 0.03272222
v 0.05246876 -0.02437067 0.03265943
v 0.05311428 -0.02371327 0.03258723
v 0.05636435 -0.02371327 0.03200958
v 0.05311428 -0.02437067 0.03258409
v 0.05351282 -0.02437067 0.03253229
v 0.05383839 -0.02437067 0.03248363
v 0.05385523 -0.02371327 0.03248520
v 0.05441656 -0.02371327 0.03239730
v 0.05441656 -0.01733384 0.03239730
v 0.05506770 -0.02371327 0.03228114
v 0.05571883 -0.02437067 0.03214928
v 0.05680780 -0.02437067 0.03189970
v 0.05636435 -0.02437067 0.03200487
v 0.05441656 -0.02437067 0.03239259
v 0.05506770 -0.02437067 0.03227800
f 1 2 3
f 1 3 4
f 1 4 13
f 1 13 5
f 1 5 10
f 1 10 2
f 2 6 7
f 2 7 8
f 2 8 9
f 2 9 3
f 2 10 19
f 2 19 6
f 3 9 4
f 4 11 29
f 4 29 66
f 4 66 115
f 4 115 191
f 4 191 337
f 4 337 192
f 4 192 116
f 4 116 67
f 4 67 30
f 4 30 12
f 4 12 34
f 4 34 13
f 4 9 14
f 4 14 11
f 5 15 10
f 5 13 15
f 6 16 17
f 6 17 18
f 6 18 7
f 6 19 16
f 7 20 21
f 7 21 8
f 7 18 22
f 7 22 20
f 8 21 9
f 9 21 23
f 9 23 24
f 9 24 25
f 9 25 14
f 10 15 26
f 10 26 19
f 11 27 28
f 11 28 29
f 11 14 27
f 12 30 31
f 12 31 32
f 12 32 33
f 12 33 34
f 13 35 36
f 13 36 15
f 13 34 33
f 13 33 37
f 13 37 35
f 14 25 38
f 14 38 39
f 14 39 27
f 15 36 26
f 16 40 17
f 16 19 41
f 16 41 40
f 17 40 42
f 17 42 43
f 17 43 18
f 18 43 44
f 18 44 22
f 19 26 45
f 19 45 46
f 19 46 47
f 19 47 41
f 20 22 48
f 20 48 49
f 20 49 50
f 20 50 51
f 20 51 52
f 20 52 21
f 21 52 53
f 21 53 23
f 22 44 54
f 22 54 55
f 22 55 48
f 23 53 56
f 23 56 57
f 23 57 24
f 24 57 58
f 24 58 25
f 25 58 59
f 25 59 60
f 25 60 38
f 26 36 35
f 26 35 61
f 26 61 46
f 26 46 45
f 27 62 63
f 27 63 28
f 27 39 64
f 27 64 62
f 28 63 29
f 29 63 65
f 29 65 66
f 30 67 68
f 30 68 31
f 31 68 130
f 31 130 227
f 31 227 375
f 31 375 460
f 31 460 481
f 31 481 482
f 31 482 480
f 31 480 484
f 31 484 483
f 31 483 475
f 31 475 474
f 31 474 473
f 31 473 470
f 31 470 469
f 31 469 468
f 31 468 404
f 31 404 400
f 31 400 280
f 31 280 285
f 31 285 403
f 31 403 376
f 31 376 228
f 31 228 131
f 31 131 69
f 31 69 32
f 32 70 133
f 32 133 259
f 32 259 258
f 32 258 257
f 32 257 256
f 32 256 385
f 32 385 461
f 32 461 383
f 32 383 382
f 32 382 381
f 32 381 380
f 32 380 379
f 32 379 247
f 32 247 246
f 32 246 245
f 32 245 244
f 32 244 243
f 32 243 242
f 32 242 241
f 32 241 240
f 32 240 239
f 32 239 238
f 32 238 237
f 32 237 236
f 32 236 235
f 32 235 234
f 32 234 233
f 32 233 232
f 32 232 231
f 32 231 230
f 32 230 229
f 32 229 378
f 32 378 377
f 32 377 402
f 32 402 284
f 32 284 154
f 32 154 85
f 32 85 84
f 32 84 153
f 32 153 152
f 32 152 283
f 32 283 401
f 32 401 406
f 32 406 302
f 32 302 301
f 32 301 300
f 32 300 299
f 32 299 298
f 32 298 297
f 32 297 296
f 32 296 295
f 32 295 294
f 32 294 293
f 32 293 417
f 32 417 416
f 32 416 415
f 32 415 414
f 32 414 413
f 32 413 412
f 32 412 411
f 32 411 410
f 32 410 409
f 32 409 408
f 32 408 407
f 32 407 467
f 32 467 466
f 32 466 465
f 32 465 464
f 32 464 463
f 32 463 462
f 32 462 394
f 32 394 267
f 32 267 145
f 32 145 144
f 32 144 143
f 32 143 142
f 32 142 75
f 32 75 74
f 32 74 71
f 32 71 37
f 32 37 33
f 32 69 131
f 32 131 70
f 35 37 72
f 35 72 73
f 35 73 61
f 37 71 74
f 37 74 75
f 37 75 76
f 37 76 77
f 37 77 78
f 37 78 79
f 37 79 72
f 38 60 64
f 38 64 39
f 40 80 81
f 40 81 82
f 40 82 42
f 40 41 83
f 40 83 84
f 40 84 85
f 40 85 86
f 40 86 87
f 40 87 80
f 41 47 88
f 41 88 83
f 42 82 89
f 42 89 90
f 42 90 43
f 43 90 44
f 44 90 91
f 44 91 54
f 46 61 92
f 46 92 93
f 46 93 94
f 46 94 95
f 46 95 47
f 47 95 88
f 48 55 49
f 49 55 96
f 49 96 50
f 50 97 98
f 50 98 99
f 50 99 51
f 50 96 100
f 50 100 101
f 50 101 97
f 51 99 98
f 51 98 52
f 52 98 102
f 52 102 53
f 53 102 103
f 53 103 56
f 54 91 55
f 55 91 96
f 56 103 104
f 56 104 105
f 56 105 57
f 57 105 58
f 58 105 59
f 59 106 107
f 59 107 108
f 59 108 60
f 59 105 106
f 60 109 64
f 60 108 109
f 61 73 110
f 61 110 92
f 62 111 63
f 62 64 112
f 62 112 113
f 62 113 111
f 63 114 65
f 63 111 114
f 64 109 112
f 65 114 115
f 65 115 66
f 67 116 117
f 67 117 118
f 67 118 68
f 68 118 119
f 68 119 120
f 68 120 121
f 68 121 122
f 68 122 123
f 68 123 124
f 68 124 125
f 68 125 126
f 68 126 127
f 68 127 128
f 68 128 129
f 68 129 130
f 70 132 133
f 70 131 132
f 72 79 134
f 72 134 135
f 72 135 136
f 72 136 137
f 72 137 138
f 72 138 73
f 73 138 139
f 73 139 140
f 73 140 141
f 73 141 110
f 75 142 76
f 76 142 143
f 76 143 144
f 76 144 145
f 76 145 146
f 76 146 147
f 76 147 77
f 77 148 78
f 77 147 148
f 78 148 149
f 78 149 135
f 78 135 134
f 78 134 79
f 80 87 81
f 81 87 150
f 81 150 159
f 81 159 89
f 81 89 82
f 83 88 151
f 83 151 152
f 83 152 153
f 83 153 84
f 85 154 155
f 85 155 86
f 86 155 150
f 86 150 87
f 88 95 94
f 88 94 156
f 88 156 151
f 89 157 158
f 89 158 91
f 89 91 90
f 89 159 287
f 89 287 157
f 91 158 160
f 91 160 96
f 92 110 161
f 92 161 93
f 93 161 162
f 93 162 163
f 93 163 156
f 93 156 94
f 96 160 164
f 96 164 101
f 96 101 100
f 97 101 165
f 97 165 98
f 98 165 166
f 98 166 102
f 101 164 167
f 101 167 168
f 101 168 169
f 101 169 170
f 101 170 171
f 101 171 172
f 101 172 165
f 102 173 174
f 102 174 103
f 102 166 173
f 103 174 175
f 103 175 104
f 104 176 106
f 104 106 105
f 104 175 176
f 106 177 107
f 106 176 177
f 107 177 178
f 107 178 179
f 107 179 108
f 108 179 180
f 108 180 109
f 109 180 181
f 109 181 182
f 109 182 112
f 110 141 183
f 110 183 161
f 111 113 184
f 111 184 185
f 111 185 186
f 111 186 187
f 111 187 114
f 112 182 113
f 113 188 189
f 113 189 185
f 113 185 184
f 113 182 190
f 113 190 188
f 114 187 191
f 114 191 115
f 116 192 193
f 116 193 117
f 117 193 342
f 117 342 194
f 117 194 118
f 118 194 195
f 118 195 196
f 118 196 197
f 118 197 198
f 118 198 199
f 118 199 200
f 118 200 201
f 118 201 202
f 118 202 203
f 118 203 204
f 118 204 205
f 118 205 206
f 118 206 207
f 118 207 208
f 118 208 209
f 118 209 210
f 118 210 211
f 118 211 212
f 118 212 213
f 118 213 119
f 119 213 214
f 119 214 120
f 120 214 215
f 120 215 121
f 121 215 122
f 122 215 216
f 122 216 123
f 123 216 124
f 124 216 217
f 124 217 125
f 125 217 218
f 125 218 219
f 125 219 126
f 126 219 127
f 127 219 220
f 127 220 221
f 127 221 222
f 127 222 128
f 128 222 223
f 128 223 224
f 128 224 129
f 129 224 370
f 129 370 225
f 129 225 372
f 129 372 226
f 129 226 227
f 129 227 130
f 131 228 229
f 131 229 230
f 131 230 231
f 131 231 232
f 131 232 233
f 131 233 234
f 131 234 235
f 131 235 236
f 131 236 237
f 131 237 238
f 131 238 239
f 131 239 240
f 131 240 241
f 131 241 242
f 131 242 243
f 131 243 244
f 131 244 245
f 131 245 246
f 131 246 247
f 131 247 248
f 131 248 249
f 131 249 250
f 131 250 251
f 131 251 252
f 131 252 253
f 131 253 254
f 131 254 255
f 131 255 132
f 132 255 256
f 132 256 257
f 132 257 258
f 132 258 259
f 132 259 133
f 135 149 260
f 135 260 261
f 135 261 262
f 135 262 136
f 136 262 263
f 136 263 264
f 136 264 139
f 136 139 137
f 137 139 138
f 139 265 140
f 139 264 265
f 140 265 266
f 140 266 141
f 141 266 183
f 145 267 268
f 145 268 269
f 145 269 270
f 145 270 271
f 145 271 272
f 145 272 273
f 145 273 274
f 145 274 275
f 145 275 276
f 145 276 277
f 145 277 146
f 146 277 278
f 146 278 147
f 147 278 149
f 147 149 148
f 149 278 260
f 150 279 280
f 150 280 400
f 150 400 281
f 150 281 159
f 150 155 154
f 150 154 279
f 151 156 282
f 151 282 152
f 152 282 283
f 154 284 285
f 154 285 279
f 156 163 286
f 156 286 282
f 157 287 405
f 157 405 288
f 157 288 158
f 158 288 160
f 159 281 287
f 160 288 164
f 161 183 289
f 161 289 162
f 162 289 290
f 162 290 163
f 163 291 282
f 163 282 286
f 163 290 292
f 163 292 293
f 163 293 294
f 163 294 295
f 163 295 296
f 163 296 297
f 163 297 298
f 163 298 299
f 163 299 300
f 163 300 301
f 163 301 302
f 163 302 291
f 164 303 304
f 164 304 167
f 164 288 303
f 165 305 306
f 165 306 307
f 165 307 166
f 165 172 308
f 165 308 305
f 166 307 309
f 166 309 310
f 166 310 173
f 167 304 311
f 167 311 312
f 167 312 168
f 168 312 169
f 169 312 313
f 169 313 314
f 169 314 170
f 170 314 315
f 170 315 171
f 171 315 316
f 171 316 172
f 172 316 317
f 172 317 308
f 173 310 318
f 173 318 319
f 173 319 320
f 173 320 321
f 173 321 322
f 173 322 323
f 173 323 174
f 174 324 175
f 174 323 324
f 175 324 176
f 176 325 177
f 176 324 325
f 177 325 323
f 177 323 326
f 177 326 327
f 177 327 328
f 177 328 178
f 178 328 329
f 178 329 179
f 179 329 180
f 180 329 330
f 180 330 331
f 180 331 181
f 181 190 182
f 181 331 332
f 181 332 190
f 183 266 333
f 183 333 289
f 185 334 186
f 185 189 196
f 185 196 335
f 185 335 334
f 186 334 336
f 186 336 187
f 187 336 337
f 187 337 191
f 188 197 189
f 188 190 338
f 188 338 339
f 188 339 340
f 188 340 341
f 188 341 197
f 189 197 196
f 190 332 338
f 192 337 193
f 193 336 334
f 193 334 342
f 193 337 336
f 194 342 334
f 194 334 195
f 195 334 335
f 195 335 343
f 195 343 196
f 196 343 335
f 197 341 344
f 197 344 198
f 198 344 199
f 199 344 340
f 199 340 200
f 200 340 345
f 200 345 346
f 200 346 201
f 201 346 347
f 201 347 202
f 202 347 348
f 202 348 203
f 203 348 452
f 203 452 349
f 203 349 204
f 204 349 350
f 204 350 351
f 204 351 205
f 205 351 352
f 205 352 206
f 206 352 453
f 206 453 353
f 206 353 207
f 207 354 355
f 207 355 208
f 207 353 354
f 208 355 209
f 209 355 354
f 209 354 210
f 210 354 327
f 210 327 356
f 210 356 211
f 211 356 212
f 212 356 357
f 212 357 358
f 212 358 359
f 212 359 213
f 213 359 360
f 213 360 214
f 214 360 361
f 214 361 215
f 215 361 362
f 215 362 216
f 216 363 365
f 216 365 364
f 216 364 217
f 216 362 363
f 217 364 365
f 217 365 218
f 218 366 219
f 218 365 366
f 219 366 367
f 219 367 318
f 219 318 220
f 220 318 222
f 220 222 221
f 222 368 369
f 222 369 223
f 222 318 368
f 223 369 370
f 223 370 224
f 225 370 309
f 225 309 371
f 225 371 372
f 226 372 458
f 226 458 373
f 226 373 374
f 226 374 375
f 226 375 227
f 228 376 377
f 228 377 378
f 228 378 229
f 247 379 248
f 248 379 249
f 249 379 380
f 249 380 250
f 250 380 251
f 251 380 381
f 251 381 252
f 252 381 382
f 252 382 383
f 252 383 253
f 253 383 384
f 253 384 254
f 254 384 385
f 254 385 256
f 254 256 255
f 260 278 386
f 260 386 387
f 260 387 388
f 260 388 389
f 260 389 261
f 261 389 262
f 262 389 263
f 263 389 390
f 263 390 391
f 263 391 264
f 264 391 392
f 264 392 265
f 265 393 269
f 265 269 266
f 265 392 393
f 266 269 268
f 266 268 333
f 267 394 395
f 267 395 268
f 268 395 333
f 269 393 270
f 270 393 392
f 270 392 271
f 271 392 396
f 271 396 272
f 272 396 390
f 272 390 397
f 272 397 273
f 273 397 398
f 273 398 399
f 273 399 274
f 274 399 388
f 274 388 275
f 275 387 276
f 275 388 387
f 276 387 277
f 277 387 386
f 277 386 278
f 279 285 280
f 281 400 404
f 281 404 287
f 282 291 401
f 282 401 283
f 284 402 285
f 285 402 403
f 287 404 468
f 287 468 405
f 288 405 418
f 288 418 303
f 289 395 292
f 289 292 290
f 289 333 395
f 291 302 406
f 291 406 401
f 292 395 407
f 292 407 408
f 292 408 409
f 292 409 410
f 292 410 411
f 292 411 412
f 292 412 413
f 292 413 414
f 292 414 415
f 292 415 416
f 292 416 417
f 292 417 293
f 303 418 419
f 303 419 304
f 304 419 311
f 305 308 420
f 305 420 421
f 305 421 422
f 305 422 423
f 305 423 306
f 306 424 307
f 306 423 424
f 307 424 371
f 307 371 309
f 308 317 420
f 309 370 425
f 309 425 310
f 310 425 426
f 310 426 318
f 311 427 428
f 311 428 429
f 311 429 430
f 311 430 313
f 311 313 312
f 311 419 427
f 313 430 431
f 313 431 314
f 314 431 432
f 314 432 315
f 315 432 316
f 316 432 433
f 316 433 434
f 316 434 317
f 317 434 435
f 317 435 420
f 318 367 319
f 318 426 368
f 319 367 320
f 320 367 321
f 321 367 322
f 322 367 436
f 322 436 366
f 322 366 365
f 322 365 363
f 322 363 437
f 322 437 438
f 322 438 323
f 323 439 357
f 323 357 326
f 323 325 324
f 323 438 440
f 323 440 441
f 323 441 439
f 326 356 327
f 326 357 356
f 327 354 442
f 327 442 328
f 328 443 444
f 328 444 445
f 328 445 446
f 328 446 447
f 328 447 332
f 328 332 329
f 328 442 448
f 328 448 443
f 329 332 330
f 330 332 331
f 332 447 449
f 332 449 450
f 332 450 451
f 332 451 347
f 332 347 338
f 338 347 339
f 339 347 340
f 340 344 341
f 340 347 346
f 340 346 345
f 347 451 348
f 348 451 450
f 348 450 452
f 349 452 350
f 350 447 351
f 350 452 449
f 350 449 447
f 351 447 453
f 351 453 352
f 353 444 443
f 353 443 454
f 353 454 354
f 353 453 445
f 353 445 444
f 354 454 448
f 354 448 442
f 357 439 358
f 358 360 359
f 358 439 455
f 358 455 360
f 360 455 361
f 361 455 362
f 362 455 456
f 362 456 363
f 363 456 457
f 363 457 437
f 366 436 367
f 368 426 370
f 368 370 369
f 370 426 425
f 371 424 458
f 371 458 372
f 373 458 422
f 373 422 459
f 373 459 374
f 374 459 375
f 375 459 460
f 376 403 402
f 376 402 377
f 383 461 384
f 384 461 385
f 388 399 389
f 389 399 390
f 390 396 391
f 390 399 398
f 390 398 397
f 391 396 392
f 394 462 395
f 395 462 463
f 395 463 464
f 395 464 465
f 395 465 466
f 395 466 467
f 395 467 407
f 405 468 469
f 405 469 418
f 418 469 470
f 418 470 419
f 419 470 473
f 419 473 471
f 419 471 427
f 420 435 472
f 420 472 459
f 420 459 422
f 420 422 421
f 422 458 423
f 423 458 424
f 427 471 428
f 428 471 473
f 428 473 474
f 428 474 475
f 428 475 476
f 428 476 429
f 429 476 431
f 429 431 430
f 431 476 477
f 431 477 478
f 431 478 433
f 431 433 432
f 433 478 434
f 434 479 435
f 434 478 477
f 434 477 479
f 435 480 472
f 435 479 484
f 435 484 480
f 437 457 440
f 437 440 438
f 439 441 455
f 440 457 455
f 440 455 441
f 443 448 454
f 445 453 447
f 445 447 446
f 449 452 450
f 455 457 456
f 459 481 460
f 459 472 481
f 472 482 481
f 472 480 482
f 475 483 477
f 475 477 476
f 477 483 484
f 477 484 479
