# https://github.com/mikedh/trimesh
v 0.03026564 0.01499752 -0.02916959
v 0.03026564 0.01499752 -0.02877562
v 0.03026564 0.01877338 -0.02916959
v 0.03027143 -0.00031816 -0.03284831
v 0.03027143 -0.00096981 -0.03284356
v 0.03027143 -0.00150975 -0.03283407
v 0.03027143 -0.00162146 -0.03283169
v 0.03027143 -0.00292104 -0.03280084
v 0.03027143 -0.00346098 -0.03278185
v 0.03027143 -0.00422062 -0.03274863
v 0.03027143 -0.00486855 -0.03271540
v 0.03027143 -0.00540849 -0.03268217
v 0.03027143 -0.00552020 -0.03267505
v 0.03027143 -0.00606014 -0.03263945
v 0.03027143 -0.00682350 -0.03258486
v 0.03027143 -0.00747143 -0.03252790
v 0.03027143 -0.00819756 -0.03246145
v 0.03027143 -0.00877101 -0.03240212
v 0.03027143 -0.00941894 -0.03233092
v 0.03027143 -0.00995888 -0.03226921
v 0.03027143 -0.01061053 -0.03218851
v 0.03027143 -0.01126218 -0.03210544
v 0.03027143 -0.01137017 -0.03209120
v 0.03027143 -0.01191011 -0.03201526
v 0.03027143 -0.01256176 -0.03191795
v 0.03027143 -0.01302350 -0.03184437
v 0.03027143 -0.01385017 -0.03170672
v 0.03027143 -0.01461726 -0.03157144
v 0.03027143 -0.01516092 -0.03147176
v 0.03027143 -0.01644561 -0.03122967
v 0.03026564 0.01787224 -0.02819652
v 0.03027143 -0.01644561 -0.02916959
v 0.03026564 0.01876966 -0.02889903
v 0.03027143 0.01878083 -0.02954933
v 0.03027143 0.01876593 -0.03009046
v 0.03027143 0.01876221 -0.03019963
v 0.03027143 0.01852761 -0.03064108
v 0.03027143 0.01847548 -0.03072177
v 0.03027143 0.01797278 -0.03094961
v 0.03027143 0.01787224 -0.03098997
v 0.03027143 0.01721686 -0.03112287
v 0.03027143 0.01661734 -0.03124154
v 0.03027143 0.01591728 -0.03137682
v 0.03027143 0.01526935 -0.03149786
v 0.03027143 0.01461770 -0.03161179
v 0.03027143 0.01396978 -0.03172096
v 0.03027143 0.01315428 -0.03184675
v 0.03027143 0.01267020 -0.03191795
v 0.03027143 0.01201854 -0.03201288
v 0.03027143 0.01136689 -0.03210307
v 0.03027143 0.01071896 -0.03218614
v 0.03027143 0.01006731 -0.03226446
v 0.03027143 0.00941938 -0.03234041
v 0.03027143 0.00877146 -0.03240923
v 0.03027143 0.00828737 -0.03245670
v 0.03027143 0.00747188 -0.03253502
v 0.03027143 0.00681650 -0.03258961
v 0.03027143 0.00616857 -0.03263708
v 0.03027143 0.00551320 -0.03268217
v 0.03027143 0.00486899 -0.03272014
v 0.03027143 0.00422106 -0.03275337
v 0.03027143 0.00357314 -0.03278185
v 0.03027143 0.00291776 -0.03280321
v 0.03027143 0.00226983 -0.03282220
v 0.03027143 0.00162191 -0.03283881
v 0.03027143 0.00098142 -0.03284593
v 0.03027143 0.00033350 -0.03284831
v 0.03985369 -0.00031816 -0.03285543
v 0.04922462 -0.01526891 -0.03284831
v 0.04922462 -0.01655732 -0.03284119
v 0.04857036 -0.01655732 -0.03281271
v 0.04726185 -0.01655732 -0.03270353
v 0.04662207 -0.01655732 -0.03264894
v 0.04199306 -0.01690735 -0.03219326
v 0.03985369 -0.01690735 -0.03199864
v 0.03026564 0.01837122 -0.02831993
v 0.03985369 -0.01635251 -0.00860914
v 0.03985369 0.02113422 -0.00860914
v 0.03985369 -0.01690735 -0.02920519
v 0.03139756 0.01916437 -0.02773134
v 0.03026564 0.01847921 -0.02835078
v 0.03985369 0.02113422 -0.03154296
v 0.04012871 0.02113422 -0.03162128
v 0.04065559 0.02113422 -0.03176843
v 0.04097114 0.02113422 -0.03185624
v 0.04142275 0.02113422 -0.03196067
v 0.04199306 0.02113422 -0.03208409
v 0.04272258 0.02113050 -0.03224073
v 0.04337105 0.02113050 -0.03235940
v 0.04390082 0.02113050 -0.03244246
v 0.04422216 0.02113050 -0.03249230
v 0.04467088 0.02113050 -0.03256113
v 0.04532513 0.02113050 -0.03263945
v 0.04596492 0.02113050 -0.03270116
v 0.04662207 0.02113050 -0.03276049
v 0.04726185 0.02113050 -0.03280084
v 0.04792190 0.02113050 -0.03282457
v 0.04857036 0.02113050 -0.03284356
v 0.04921594 0.02113050 -0.03284593
v 0.04922462 0.02113050 -0.03284593
v 0.04922462 0.01137062 -0.03284831
v 0.04987309 -0.01267347 -0.03283169
v 0.04985861 -0.01655732 -0.03283169
v 0.05051287 -0.01655732 -0.03281271
v 0.05116713 -0.01655732 -0.03277711
v 0.05182139 -0.01655732 -0.03272727
v 0.05246117 -0.01655732 -0.03266556
v 0.05312122 -0.01655732 -0.03258961
v 0.05368863 -0.01655732 -0.03251366
v 0.05983748 -0.01655732 -0.03165925
v 0.04199306 -0.01690735 -0.02937370
v 0.05983748 -0.01635251 -0.00860914
v 0.05983748 0.02113422 -0.00860914
v 0.04187436 -0.01690735 -0.02936184
v 0.05983748 0.02113422 -0.02628121
v 0.05983748 0.02113050 -0.03165688
v 0.05311253 0.02113050 -0.03258724
v 0.05246117 0.02113050 -0.03266556
v 0.05182139 0.02113050 -0.03272252
v 0.05116424 0.02113050 -0.03277473
v 0.05052445 0.02113050 -0.03281271
v 0.04987309 0.02113050 -0.03283169
v 0.05052445 -0.01072224 -0.03281271
v 0.05116713 -0.00096981 -0.03277711
v 0.05246985 -0.01592056 -0.03266556
v 0.05182139 -0.00162146 -0.03272727
v 0.05312122 0.01332185 -0.03258961
v 0.05983748 -0.00357269 -0.03165925
v 0.05983748 -0.01655732 -0.02764115
v 0.05312122 0.01982347 -0.03258724
v 0.05246985 0.01786852 -0.03266556
f 1 2 31
f 1 31 76
f 1 76 81
f 1 81 33
f 1 33 3
f 1 3 67
f 1 67 4
f 1 4 5
f 1 5 6
f 1 6 7
f 1 7 8
f 1 8 9
f 1 9 10
f 1 10 11
f 1 11 12
f 1 12 13
f 1 13 14
f 1 14 15
f 1 15 16
f 1 16 17
f 1 17 18
f 1 18 19
f 1 19 20
f 1 20 21
f 1 21 22
f 1 22 23
f 1 23 24
f 1 24 25
f 1 25 26
f 1 26 27
f 1 27 28
f 1 28 29
f 1 29 30
f 1 30 32
f 1 32 2
f 2 32 31
f 3 33 34
f 3 34 35
f 3 35 36
f 3 36 37
f 3 37 38
f 3 38 39
f 3 39 40
f 3 40 41
f 3 41 42
f 3 42 43
f 3 43 44
f 3 44 45
f 3 45 46
f 3 46 47
f 3 47 48
f 3 48 49
f 3 49 50
f 3 50 51
f 3 51 52
f 3 52 53
f 3 53 54
f 3 54 55
f 3 55 56
f 3 56 57
f 3 57 58
f 3 58 59
f 3 59 60
f 3 60 61
f 3 61 62
f 3 62 63
f 3 63 64
f 3 64 65
f 3 65 66
f 3 66 67
f 4 67 68
f 4 68 69
f 4 69 70
f 4 70 5
f 5 70 6
f 6 70 7
f 7 70 8
f 8 70 9
f 9 70 10
f 10 70 11
f 11 70 71
f 11 71 12
f 12 71 13
f 13 71 14
f 14 71 15
f 15 71 16
f 16 71 17
f 17 71 18
f 18 71 19
f 19 71 20
f 20 71 21
f 21 71 22
f 22 71 23
f 23 71 24
f 24 71 25
f 25 71 72
f 25 72 26
f 26 72 27
f 27 72 73
f 27 73 74
f 27 74 28
f 28 74 29
f 29 74 30
f 30 74 75
f 30 75 79
f 30 79 32
f 31 32 77
f 31 77 78
f 31 78 76
f 32 79 77
f 33 78 80
f 33 80 34
f 33 81 78
f 34 80 35
f 35 80 36
f 36 80 82
f 36 82 37
f 37 82 38
f 38 82 83
f 38 83 84
f 38 84 85
f 38 85 86
f 38 86 39
f 39 86 87
f 39 87 88
f 39 88 40
f 40 88 89
f 40 89 90
f 40 90 91
f 40 91 41
f 41 91 42
f 42 91 92
f 42 92 43
f 43 92 44
f 44 92 45
f 45 92 46
f 46 92 47
f 47 92 48
f 48 92 49
f 49 92 50
f 50 92 93
f 50 93 51
f 51 93 52
f 52 93 53
f 53 93 54
f 54 93 94
f 54 94 55
f 55 94 56
f 56 94 95
f 56 95 57
f 57 95 58
f 58 95 59
f 59 95 96
f 59 96 60
f 60 96 61
f 61 96 62
f 62 96 97
f 62 97 63
f 63 97 64
f 64 97 98
f 64 98 65
f 65 98 66
f 66 98 67
f 67 98 99
f 67 99 68
f 68 99 100
f 68 100 101
f 68 101 69
f 69 102 103
f 69 103 70
f 69 101 122
f 69 122 102
f 70 103 74
f 70 74 71
f 71 74 72
f 72 74 73
f 74 103 104
f 74 104 105
f 74 105 106
f 74 106 107
f 74 107 108
f 74 108 109
f 74 109 110
f 74 110 129
f 74 129 111
f 74 111 114
f 74 114 79
f 74 79 75
f 76 78 81
f 77 79 112
f 77 112 113
f 77 113 78
f 78 113 115
f 78 115 87
f 78 87 86
f 78 86 85
f 78 85 84
f 78 84 83
f 78 83 82
f 78 82 80
f 79 114 112
f 87 115 116
f 87 116 117
f 87 117 118
f 87 118 119
f 87 119 120
f 87 120 121
f 87 121 122
f 87 122 100
f 87 100 99
f 87 99 98
f 87 98 97
f 87 97 96
f 87 96 95
f 87 95 94
f 87 94 93
f 87 93 92
f 87 92 91
f 87 91 90
f 87 90 89
f 87 89 88
f 100 122 101
f 102 123 104
f 102 104 103
f 102 122 121
f 102 121 123
f 104 123 105
f 105 123 121
f 105 121 124
f 105 124 126
f 105 126 106
f 106 125 107
f 106 126 131
f 106 131 125
f 107 125 108
f 108 125 131
f 108 131 127
f 108 127 109
f 109 128 110
f 109 127 128
f 110 128 116
f 110 116 115
f 110 115 113
f 110 113 112
f 110 112 129
f 111 129 112
f 111 112 114
f 116 128 127
f 116 127 130
f 116 130 117
f 117 130 118
f 118 130 127
f 118 127 131
f 118 131 119
f 119 131 126
f 119 126 120
f 120 126 124
f 120 124 121
