# https://github.com/mikedh/trimesh
v 0.04792921 0.03021645 -0.03670503
v 0.04734410 0.03021645 -0.03669778
v 0.04792921 0.03997231 -0.03670503
v 0.07970012 0.03021645 -0.03670503
v 0.04727779 0.03021645 -0.03669536
v 0.04734410 0.03997340 -0.03669778
v 0.04727779 0.04062343 -0.03662520
v 0.04792921 0.04062234 -0.03663004
v 0.05506742 0.03997231 -0.03670503
v 0.07970012 0.03867117 -0.03670503
v 0.07970012 0.03021645 -0.01756805
v 0.04663808 0.03021645 -0.03663730
v 0.04727779 0.03997340 -0.03669536
v 0.04662638 0.04062343 -0.03656715
v 0.04662638 0.04101824 -0.03643410
v 0.04727779 0.04104551 -0.03646313
v 0.04792921 0.04104879 -0.03646554
v 0.04987954 0.04062234 -0.03662762
v 0.05703335 0.03997231 -0.03670261
v 0.07970012 0.03932229 -0.03665665
v 0.07196900 0.03932229 -0.03669052
v 0.07348636 0.03282637 -0.01305897
v 0.07348245 0.03021645 -0.01305897
v 0.07970012 0.03966366 -0.01756805
v 0.04662638 0.03997340 -0.03663488
v 0.04662638 0.03021645 -0.03663488
v 0.04598277 0.04059835 -0.03643894
v 0.04620121 0.04097898 -0.03639781
v 0.04662638 0.04122111 -0.03604705
v 0.04598277 0.04112295 -0.03608818
v 0.04727779 0.04124946 -0.03604705
v 0.04734410 0.04122765 -0.03609302
v 0.04792921 0.04125165 -0.03604463
v 0.04858061 0.04125165 -0.03604463
v 0.04987954 0.04124837 -0.03604463
v 0.04922812 0.04104660 -0.03646071
v 0.05053094 0.04104115 -0.03645829
v 0.05117846 0.04062234 -0.03662036
v 0.05898369 0.03997231 -0.03669536
v 0.07970012 0.03992978 -0.03649215
v 0.06157763 0.03997231 -0.03667842
v 0.06287655 0.03997231 -0.03666874
v 0.06612191 0.03997231 -0.03663972
v 0.06806833 0.03997231 -0.03661795
v 0.07348636 0.03997231 -0.01305897
v 0.07316260 0.03217635 -0.01283883
v 0.07316260 0.03087738 -0.01284125
v 0.07315090 0.03021645 -0.01283642
v 0.07970012 0.03997231 -0.01757047
v 0.04598667 0.03021645 -0.03650183
v 0.04597887 0.03997340 -0.03649941
v 0.04562001 0.04036604 -0.03638572
v 0.04576823 0.04079902 -0.03633250
v 0.04485158 0.04102479 -0.03580515
v 0.04532746 0.04109896 -0.03591884
v 0.04532746 0.04130291 -0.03539633
v 0.04597887 0.04134762 -0.03539633
v 0.04662638 0.04135526 -0.03539633
v 0.04727779 0.04135635 -0.03539633
v 0.04734410 0.04135635 -0.03539633
v 0.05506742 0.04135526 -0.03539633
v 0.05768086 0.04134762 -0.03539149
v 0.05963119 0.04133672 -0.03539149
v 0.05247738 0.04123311 -0.03604463
v 0.05312879 0.04122765 -0.03604463
v 0.05182987 0.04103352 -0.03645103
v 0.05378020 0.04062234 -0.03660343
v 0.07970012 0.04025479 -0.03634460
v 0.05506742 0.04062234 -0.03658892
v 0.05638194 0.04062234 -0.03657198
v 0.05833228 0.04062234 -0.03654296
v 0.05442771 0.04062234 -0.03659618
v 0.07342785 0.04062234 -0.01310251
v 0.07310019 0.04062234 -0.01287754
v 0.07316260 0.03997231 -0.01283883
v 0.07970012 0.04059289 -0.01764062
v 0.07262041 0.03021645 -0.01253645
v 0.04560440 0.03021645 -0.03639298
v 0.04560440 0.03997340 -0.03639298
v 0.04528065 0.03997340 -0.03625267
v 0.04432889 0.04036168 -0.03573741
v 0.04465264 0.04059616 -0.03586079
v 0.04537427 0.04059835 -0.03622122
v 0.04441860 0.04079466 -0.03568178
v 0.04362677 0.04099207 -0.03511814
v 0.04402464 0.04106951 -0.03523668
v 0.04465264 0.04114695 -0.03543746
v 0.04402464 0.04127237 -0.03474803
v 0.04207821 0.04130073 -0.03344901
v 0.04337713 0.04132690 -0.03409731
v 0.04467605 0.04134217 -0.03474803
v 0.04402464 0.04135526 -0.03409731
v 0.04532746 0.04135635 -0.03474803
v 0.04734410 0.04135635 -0.02312215
v 0.07970012 0.04135526 -0.03409247
v 0.07970012 0.04129964 -0.03474319
v 0.06352406 0.04130509 -0.03539149
v 0.05442771 0.04121457 -0.03604463
v 0.05506742 0.04120693 -0.03604463
v 0.05312879 0.04102261 -0.03644136
v 0.07970012 0.04061253 -0.03602044
v 0.05573053 0.04099644 -0.03641475
v 0.05833228 0.04096153 -0.03638330
v 0.05932694 0.04094845 -0.03636878
v 0.05442771 0.04101170 -0.03642926
v 0.07970012 0.04062780 -0.01764788
v 0.07970012 0.04065397 -0.01765513
v 0.07301438 0.04098989 -0.01293801
v 0.07262041 0.04062234 -0.01261870
v 0.07262041 0.03997231 -0.01253645
v 0.07223035 0.03021645 -0.01235261
v 0.04528065 0.03021645 -0.03625267
v 0.04467605 0.03997340 -0.03594787
v 0.04432109 0.03997340 -0.03574225
v 0.04109914 0.04030496 -0.03377558
v 0.04240196 0.04094626 -0.03442146
v 0.04039702 0.04098116 -0.03315631
v 0.04161793 0.04101934 -0.03385299
v 0.04077538 0.04105969 -0.03327000
v 0.04207821 0.04109786 -0.03399329
v 0.04339663 0.04111422 -0.03475771
v 0.04077538 0.04126146 -0.03279829
v 0.04012787 0.04132145 -0.03214757
v 0.04142679 0.04133999 -0.03279829
v 0.04272572 0.04134981 -0.03344901
v 0.04077538 0.04135526 -0.03214757
v 0.04207821 0.04135635 -0.03279829
v 0.04727779 0.04135635 -0.02305200
v 0.07970012 0.04135526 -0.01908236
v 0.07970012 0.04109677 -0.03537456
v 0.06806833 0.04125165 -0.03539149
v 0.06677331 0.04126801 -0.03539149
v 0.06547049 0.04128437 -0.03539149
v 0.06482298 0.04129200 -0.03539149
v 0.05638194 0.04118839 -0.03604221
v 0.07970012 0.04093645 -0.03569871
v 0.05768086 0.04116658 -0.03604221
v 0.05898369 0.04114258 -0.03604221
v 0.05768086 0.04097135 -0.03639056
v 0.07970012 0.04105424 -0.01789220
v 0.07262041 0.04106515 -0.01283883
v 0.07168425 0.04096372 -0.01231874
v 0.07970012 0.04111096 -0.01795267
v 0.07324452 0.04110441 -0.01330813
v 0.07212893 0.04062234 -0.01239615
v 0.07223035 0.03997231 -0.01235503
v 0.07223035 0.03607433 -0.01235261
v 0.07190659 0.03672327 -0.01224375
v 0.07190659 0.03021645 -0.01224617
v 0.04467605 0.03021645 -0.03594787
v 0.04432109 0.03021645 -0.03574225
v 0.04228104 0.03997340 -0.03449887
v 0.03985093 0.03997340 -0.03301358
v 0.03985093 0.04063215 -0.03293134
v 0.03985093 0.04076631 -0.03286602
v 0.03985093 0.04106951 -0.03268218
v 0.04015908 0.04110441 -0.03280071
v 0.03985093 0.04112731 -0.03255155
v 0.03985093 0.04125928 -0.03216934
v 0.03985093 0.04133344 -0.03187422
v 0.03985093 0.04135308 -0.03149685
v 0.04012787 0.04135635 -0.03149685
v 0.04077538 0.04135635 -0.02175056
v 0.07132149 0.04135526 -0.01330571
v 0.07262041 0.04135526 -0.01395643
v 0.07911891 0.04134435 -0.01850663
v 0.07970012 0.04131272 -0.01850663
v 0.07262041 0.04126801 -0.01330571
v 0.07192999 0.04110441 -0.01263322
v 0.07132149 0.04100407 -0.01228004
v 0.07132149 0.04062234 -0.01216150
v 0.07180517 0.04062234 -0.01227762
v 0.07970012 0.04128873 -0.01842197
v 0.07190268 0.03997231 -0.01224375
v 0.07190659 0.03802114 -0.01224375
v 0.07132149 0.03737220 -0.01209135
v 0.07132149 0.03021645 -0.01209619
v 0.04024879 0.03021645 -0.03325791
v 0.03985093 0.03021645 -0.03301358
v 0.03985093 0.04135635 -0.03122350
v 0.03985093 0.04135635 -0.02175056
v 0.07067008 0.04125165 -0.01265499
v 0.07196900 0.04133672 -0.01330571
v 0.06937116 0.04135526 -0.01330571
v 0.07001866 0.04125492 -0.01265499
v 0.07326792 0.04131490 -0.01395643
v 0.07391933 0.04133127 -0.01460473
v 0.07132149 0.04120693 -0.01265499
v 0.07067008 0.04104660 -0.01223891
v 0.07067008 0.04062234 -0.01207442
v 0.07067008 0.03997231 -0.01199943
v 0.07132149 0.03997231 -0.01209135
v 0.07067008 0.03607433 -0.01199943
v 0.07067008 0.03282637 -0.01200185
v 0.07067008 0.03021645 -0.01200427
v 0.03985093 0.03021645 -0.01987097
v 0.03985093 0.04135526 -0.02147721
v 0.07001866 0.04104879 -0.01223408
v 0.06871974 0.04134762 -0.01330571
v 0.03985093 0.04134762 -0.02110226
v 0.06937116 0.04122220 -0.01265499
v 0.07001866 0.04062234 -0.01206716
v 0.07001866 0.03997231 -0.01199217
v 0.07001866 0.03542648 -0.01199217
v 0.07001866 0.03021645 -0.01199459
v 0.03985093 0.03022626 -0.01987097
v 0.06871974 0.03021645 -0.01221956
v 0.06871974 0.03152632 -0.01221714
v 0.06871974 0.03607433 -0.01221472
v 0.06937116 0.04101716 -0.01226794
v 0.03985093 0.04130836 -0.02082891
v 0.06873535 0.04112077 -0.01261870
v 0.03985093 0.04118184 -0.02043702
v 0.03985093 0.04109786 -0.02024834
v 0.06937116 0.04062234 -0.01213489
v 0.06937116 0.03997231 -0.01206474
v 0.06937116 0.03477754 -0.01206474
v 0.06937116 0.03087738 -0.01206716
v 0.06937116 0.03021645 -0.01206958
v 0.03985093 0.03997340 -0.01988064
v 0.06871974 0.03932229 -0.01221472
v 0.06895769 0.04097790 -0.01230665
v 0.03985093 0.04099534 -0.02008143
v 0.06873535 0.04057762 -0.01227036
v 0.06838039 0.04033223 -0.01232358
v 0.06871974 0.03997231 -0.01221714
v 0.03985093 0.04042602 -0.01993144
v 0.03985093 0.04095499 -0.02006207
v 0.03985093 0.04062343 -0.01995564
f 1 2 6
f 1 6 3
f 1 3 9
f 1 9 10
f 1 10 4
f 1 4 11
f 1 11 23
f 1 23 48
f 1 48 77
f 1 77 111
f 1 111 149
f 1 149 177
f 1 177 195
f 1 195 205
f 1 205 219
f 1 219 207
f 1 207 196
f 1 196 179
f 1 179 178
f 1 178 151
f 1 151 150
f 1 150 112
f 1 112 78
f 1 78 50
f 1 50 26
f 1 26 12
f 1 12 5
f 1 5 2
f 2 5 13
f 2 13 6
f 3 6 7
f 3 7 8
f 3 8 9
f 4 10 20
f 4 20 40
f 4 40 68
f 4 68 101
f 4 101 136
f 4 136 130
f 4 130 96
f 4 96 95
f 4 95 129
f 4 129 167
f 4 167 173
f 4 173 143
f 4 143 140
f 4 140 107
f 4 107 106
f 4 106 76
f 4 76 49
f 4 49 24
f 4 24 11
f 5 12 13
f 6 13 7
f 7 13 14
f 7 14 15
f 7 15 16
f 7 16 8
f 8 17 18
f 8 18 19
f 8 19 9
f 8 16 17
f 9 19 10
f 10 19 21
f 10 21 20
f 11 22 23
f 11 24 45
f 11 45 22
f 12 25 13
f 12 26 25
f 13 25 14
f 14 25 27
f 14 27 28
f 14 28 15
f 15 29 16
f 15 28 30
f 15 30 29
f 16 29 31
f 16 31 32
f 16 32 17
f 17 33 34
f 17 34 35
f 17 35 36
f 17 36 37
f 17 37 18
f 17 32 33
f 18 37 38
f 18 38 39
f 18 39 19
f 19 39 21
f 20 21 39
f 20 39 41
f 20 41 42
f 20 42 43
f 20 43 44
f 20 44 40
f 22 45 75
f 22 75 46
f 22 46 23
f 23 46 47
f 23 47 48
f 24 49 45
f 25 26 50
f 25 50 51
f 25 51 27
f 27 51 52
f 27 52 53
f 27 53 28
f 28 53 54
f 28 54 55
f 28 55 30
f 29 30 56
f 29 56 57
f 29 57 31
f 30 55 56
f 31 57 58
f 31 58 33
f 31 33 32
f 33 58 59
f 33 59 60
f 33 60 34
f 34 60 61
f 34 61 35
f 35 37 36
f 35 61 62
f 35 62 63
f 35 63 64
f 35 64 37
f 37 64 65
f 37 65 66
f 37 66 67
f 37 67 38
f 38 67 39
f 39 67 41
f 40 44 69
f 40 69 70
f 40 70 71
f 40 71 68
f 41 67 42
f 42 67 43
f 43 67 44
f 44 67 72
f 44 72 69
f 45 73 74
f 45 74 75
f 45 49 76
f 45 76 73
f 46 77 47
f 46 75 110
f 46 110 77
f 47 77 48
f 50 78 79
f 50 79 51
f 51 79 52
f 52 79 80
f 52 80 81
f 52 81 82
f 52 82 83
f 52 83 53
f 53 83 54
f 54 84 85
f 54 85 86
f 54 86 87
f 54 87 55
f 54 83 84
f 55 87 56
f 56 87 88
f 56 88 89
f 56 89 90
f 56 90 91
f 56 91 57
f 57 91 92
f 57 92 93
f 57 93 58
f 58 93 59
f 59 93 127
f 59 127 162
f 59 162 180
f 59 180 181
f 59 181 163
f 59 163 128
f 59 128 94
f 59 94 60
f 60 94 129
f 60 129 95
f 60 95 61
f 61 95 62
f 62 95 96
f 62 96 63
f 63 97 64
f 63 96 97
f 64 97 65
f 65 98 66
f 65 97 134
f 65 134 98
f 66 98 99
f 66 99 100
f 66 100 67
f 67 100 72
f 68 71 102
f 68 102 103
f 68 103 104
f 68 104 101
f 69 72 100
f 69 100 70
f 70 100 105
f 70 105 71
f 71 105 102
f 73 76 106
f 73 106 107
f 73 107 108
f 73 108 74
f 74 108 109
f 74 109 110
f 74 110 75
f 77 110 147
f 77 147 111
f 78 112 80
f 78 80 79
f 80 112 150
f 80 150 113
f 80 113 81
f 81 84 82
f 81 113 114
f 81 114 115
f 81 115 116
f 81 116 84
f 82 84 83
f 84 116 85
f 85 116 117
f 85 117 118
f 85 118 86
f 86 118 119
f 86 119 120
f 86 120 121
f 86 121 87
f 87 121 88
f 88 121 122
f 88 122 89
f 89 122 123
f 89 123 90
f 90 123 124
f 90 124 91
f 91 124 125
f 91 125 92
f 92 125 126
f 92 126 127
f 92 127 93
f 94 128 129
f 96 130 131
f 96 131 132
f 96 132 133
f 96 133 134
f 96 134 97
f 98 134 133
f 98 133 99
f 99 105 100
f 99 133 132
f 99 132 131
f 99 131 130
f 99 130 135
f 99 135 105
f 101 104 136
f 102 105 137
f 102 137 138
f 102 138 136
f 102 136 139
f 102 139 103
f 103 139 136
f 103 136 104
f 105 135 137
f 107 140 108
f 108 141 142
f 108 142 109
f 108 140 143
f 108 143 144
f 108 144 141
f 109 142 145
f 109 145 146
f 109 146 110
f 110 146 147
f 111 148 149
f 111 147 175
f 111 175 148
f 113 150 151
f 113 151 114
f 114 151 152
f 114 152 115
f 115 152 153
f 115 153 154
f 115 154 116
f 116 154 117
f 117 154 155
f 117 155 156
f 117 156 119
f 117 119 118
f 119 156 120
f 120 156 157
f 120 157 122
f 120 122 121
f 122 157 158
f 122 158 159
f 122 159 123
f 123 159 160
f 123 160 124
f 124 160 126
f 124 126 125
f 126 160 161
f 126 161 162
f 126 162 127
f 128 163 164
f 128 164 165
f 128 165 129
f 129 166 167
f 129 165 166
f 130 136 137
f 130 137 135
f 136 138 137
f 141 144 168
f 141 168 169
f 141 169 142
f 142 170 171
f 142 171 172
f 142 172 145
f 142 169 170
f 143 173 144
f 144 173 168
f 145 172 146
f 146 172 174
f 146 174 175
f 146 175 147
f 148 176 149
f 148 175 192
f 148 192 176
f 149 176 177
f 151 178 152
f 152 178 153
f 153 178 179
f 153 179 196
f 153 196 206
f 153 206 220
f 153 220 227
f 153 227 229
f 153 229 228
f 153 228 223
f 153 223 214
f 153 214 213
f 153 213 211
f 153 211 200
f 153 200 197
f 153 197 181
f 153 181 180
f 153 180 161
f 153 161 160
f 153 160 159
f 153 159 158
f 153 158 156
f 153 156 155
f 153 155 154
f 156 158 157
f 161 180 162
f 163 181 184
f 163 184 164
f 164 182 183
f 164 183 165
f 164 184 185
f 164 185 182
f 165 183 186
f 165 186 187
f 165 187 167
f 165 167 166
f 167 187 186
f 167 186 168
f 167 168 173
f 168 183 188
f 168 188 169
f 168 186 183
f 169 188 170
f 170 188 189
f 170 189 190
f 170 190 171
f 171 190 191
f 171 191 192
f 171 192 172
f 172 192 174
f 174 192 175
f 176 192 191
f 176 191 193
f 176 193 177
f 177 193 194
f 177 194 195
f 181 197 184
f 182 189 188
f 182 188 183
f 182 185 198
f 182 198 189
f 184 199 185
f 184 197 200
f 184 200 199
f 185 199 201
f 185 201 198
f 189 198 202
f 189 202 190
f 190 202 203
f 190 203 191
f 191 203 204
f 191 204 193
f 193 204 205
f 193 205 194
f 194 205 195
f 196 207 208
f 196 208 209
f 196 209 221
f 196 221 206
f 198 201 210
f 198 210 202
f 199 200 211
f 199 211 201
f 201 212 210
f 201 211 213
f 201 213 214
f 201 214 212
f 202 210 215
f 202 215 203
f 203 215 216
f 203 216 217
f 203 217 204
f 204 217 205
f 205 217 218
f 205 218 219
f 206 221 220
f 207 219 218
f 207 218 208
f 208 218 217
f 208 217 209
f 209 217 216
f 209 216 221
f 210 212 222
f 210 222 215
f 212 214 222
f 214 223 222
f 215 222 224
f 215 224 216
f 216 224 225
f 216 225 226
f 216 226 221
f 220 221 226
f 220 226 225
f 220 225 227
f 222 223 228
f 222 228 229
f 222 229 224
f 224 229 225
f 225 229 227
