# https://github.com/mikedh/trimesh
v 0.01420660 -0.00055740 -0.03284451
v 0.01420660 -0.00055740 -0.03012776
v 0.01420660 -0.00032285 -0.03284935
v 0.01436222 -0.00055740 -0.03284548
v 0.01645920 -0.00055740 -0.03013260
v 0.01423803 0.01986913 -0.02311504
v 0.01423803 0.02048481 -0.02297974
v 0.01420660 0.01016684 -0.02845480
v 0.01420660 0.00032634 -0.03284935
v 0.01542643 -0.00032285 -0.03285224
v 0.01477721 -0.00055740 -0.03284645
v 0.01645920 -0.00055740 -0.03284838
v 0.03026406 0.00080172 -0.03013743
v 0.01423803 0.02057696 -0.02304449
v 0.03026406 0.01787129 -0.02819772
v 0.03026406 0.01837180 -0.02832046
v 0.03026406 0.01847860 -0.02835139
v 0.01420660 0.01016684 -0.03133875
v 0.01423803 0.02083035 -0.02370073
v 0.01423803 0.02083454 -0.02435213
v 0.01477721 0.00032634 -0.03285031
v 0.01420660 0.00097763 -0.03283582
v 0.01477721 0.00097763 -0.03283871
v 0.01542643 0.00097763 -0.03284065
v 0.01542643 0.00032634 -0.03285128
v 0.01645920 -0.00032285 -0.03285224
v 0.01621554 -0.00055740 -0.03284838
v 0.01542643 -0.00055740 -0.03284741
v 0.03026406 0.00080172 -0.03284838
v 0.03026406 0.01877178 -0.02890034
v 0.01423803 0.02080941 -0.02498903
v 0.01423803 0.02056439 -0.02579700
v 0.01423803 0.02032985 -0.02621645
v 0.01423803 0.01999059 -0.02662140
v 0.01423803 0.01964505 -0.02687945
v 0.01423803 0.01923878 -0.02715393
v 0.01423803 0.01889534 -0.02737138
v 0.01423803 0.01856446 -0.02757724
v 0.01423803 0.01809537 -0.02786235
v 0.01423803 0.01777077 -0.02805178
v 0.01423803 0.01715299 -0.02839971
v 0.01423803 0.01667133 -0.02866162
v 0.01423803 0.01589649 -0.02906174
v 0.01423803 0.01540226 -0.02930626
v 0.01423803 0.01529127 -0.02935942
v 0.01423803 0.01462323 -0.02967062
v 0.01423803 0.01423372 -0.02984458
v 0.01423803 0.01391331 -0.02998376
v 0.01423803 0.01332485 -0.03022634
v 0.01423803 0.01278874 -0.03044090
v 0.01423803 0.01246415 -0.03056654
v 0.01423803 0.01202646 -0.03072697
v 0.01423803 0.01137518 -0.03095313
v 0.01423803 0.01088095 -0.03111839
v 0.01423803 0.01055845 -0.03122471
v 0.01420660 0.01007470 -0.03136775
v 0.03026406 0.01878016 -0.02944060
v 0.03026406 0.01878016 -0.02955078
v 0.03026406 0.01877178 -0.03009104
v 0.03026406 0.01876760 -0.03020025
v 0.01420660 0.00162682 -0.03281359
v 0.01542643 0.00162682 -0.03281842
v 0.02127723 0.00101742 -0.03284548
v 0.01737879 0.00162892 -0.03282325
v 0.01867879 0.00162892 -0.03282615
v 0.02062644 0.00162892 -0.03283001
v 0.02322487 0.00162892 -0.03283388
v 0.02907253 0.00097972 -0.03284741
v 0.01645920 0.00032634 -0.03285128
v 0.03026406 0.00097972 -0.03284741
v 0.02972174 0.01880529 -0.03020025
v 0.02483455 0.01884717 -0.02987551
v 0.02091253 0.01884927 -0.02922798
v 0.01504444 0.01952359 -0.02729890
v 0.01461216 0.01939166 -0.02720902
v 0.01480708 0.01917596 -0.02742261
v 0.01569995 0.01887649 -0.02794353
v 0.01607721 0.01852258 -0.02826537
v 0.01642933 0.01817913 -0.02856594
v 0.01686319 0.01831526 -0.02863263
v 0.01802801 0.01797181 -0.02912650
v 0.01849645 0.01811212 -0.02918835
v 0.01893031 0.01823777 -0.02924344
v 0.01932801 0.01786920 -0.02948409
v 0.01997722 0.01786920 -0.02962326
v 0.02063430 0.01783569 -0.02976437
v 0.02127723 0.01802417 -0.02981366
v 0.02173309 0.01813516 -0.02985328
v 0.02127723 0.01769957 -0.02992867
v 0.02194059 0.01789852 -0.02996733
v 0.02127723 0.01722210 -0.03009104
v 0.02192802 0.01722210 -0.03018961
v 0.02127723 0.01605984 -0.03046603
v 0.02178496 0.01616873 -0.03050082
v 0.02257409 0.01722210 -0.03027950
v 0.01420660 0.00942551 -0.03155427
v 0.02127723 0.01573524 -0.03056654
v 0.02221725 0.01626088 -0.03052788
v 0.02197203 0.01593837 -0.03059264
v 0.02682935 0.01818123 -0.03051918
v 0.03026406 0.01852677 -0.03063999
v 0.01420660 0.00227811 -0.03277879
v 0.03026406 0.00487697 -0.03272177
v 0.03026406 0.00422778 -0.03275560
v 0.03026406 0.00357649 -0.03278363
v 0.03026406 0.00162682 -0.03283968
v 0.03026406 0.00303829 -0.03280199
v 0.03026406 0.00227811 -0.03282422
v 0.03026406 0.01847651 -0.03072214
v 0.02972174 0.01849117 -0.03069218
v 0.02842174 0.01874875 -0.03023117
v 0.02907253 0.01847651 -0.03065449
v 0.02842174 0.01842206 -0.03061680
v 0.02387252 0.01847022 -0.03001178
v 0.02322487 0.01840321 -0.02996829
v 0.02066731 0.01857493 -0.02938938
v 0.01997722 0.01844928 -0.02936135
v 0.01607721 0.01893304 -0.02801022
v 0.01932801 0.01832991 -0.02928983
v 0.01737722 0.01843672 -0.02870898
v 0.02216695 0.01823149 -0.02988904
v 0.02257409 0.01786920 -0.03007171
v 0.02322487 0.01786920 -0.03016255
v 0.02387252 0.01786920 -0.03024760
v 0.01420660 0.00870511 -0.03174757
v 0.02726321 0.01826081 -0.03054624
v 0.02842174 0.01787129 -0.03078593
v 0.02972174 0.01787129 -0.03093090
v 0.03026406 0.01787129 -0.03098985
v 0.02257409 0.01830269 -0.02992094
v 0.01420660 0.00292730 -0.03272853
v 0.03026406 0.00682664 -0.03259130
v 0.03026406 0.00617745 -0.03263962
v 0.03026406 0.00553035 -0.03268408
v 0.03026406 0.01797600 -0.03095023
v 0.02777252 0.01834038 -0.03057814
v 0.01420660 0.00819832 -0.03187418
v 0.03026406 0.01721582 -0.03112516
v 0.01420660 0.00682664 -0.03217572
v 0.01420660 0.00747793 -0.03203944
v 0.01420660 0.00816272 -0.03188287
v 0.01420660 0.00357649 -0.03266862
v 0.03026406 0.00747793 -0.03253621
v 0.03026406 0.01714252 -0.03113966
v 0.01420660 0.00617745 -0.03230039
v 0.03026406 0.01661688 -0.03124307
v 0.03026406 0.01592162 -0.03137741
v 0.01420660 0.00422778 -0.03259516
v 0.03026406 0.00942760 -0.03234195
v 0.03026406 0.00877841 -0.03240960
v 0.03026406 0.00829256 -0.03245793
v 0.03026406 0.00755123 -0.03252944
v 0.01420660 0.00551988 -0.03241153
v 0.03026406 0.01527243 -0.03149918
v 0.03026406 0.01462114 -0.03161420
v 0.01420660 0.00483928 -0.03251301
v 0.03026406 0.01137099 -0.03210516
v 0.03026406 0.01072389 -0.03218731
v 0.03026406 0.01007470 -0.03226656
v 0.01420660 0.00515968 -0.03246759
v 0.03026406 0.01397195 -0.03172147
v 0.03026406 0.01348401 -0.03179783
v 0.03026406 0.01202228 -0.03201528
v 0.03026406 0.01315732 -0.03184808
v 0.03026406 0.01267147 -0.03192056
f 1 2 8
f 1 8 18
f 1 18 56
f 1 56 96
f 1 96 125
f 1 125 137
f 1 137 141
f 1 141 140
f 1 140 139
f 1 139 145
f 1 145 153
f 1 153 160
f 1 160 156
f 1 156 148
f 1 148 142
f 1 142 131
f 1 131 102
f 1 102 61
f 1 61 22
f 1 22 9
f 1 9 3
f 1 3 4
f 1 4 11
f 1 11 28
f 1 28 27
f 1 27 12
f 1 12 5
f 1 5 2
f 2 5 6
f 2 6 7
f 2 7 8
f 3 9 10
f 3 10 4
f 4 10 11
f 5 12 29
f 5 29 13
f 5 13 6
f 6 13 7
f 7 14 8
f 7 13 15
f 7 15 16
f 7 16 17
f 7 17 14
f 8 14 19
f 8 19 20
f 8 20 18
f 9 21 10
f 9 22 23
f 9 23 24
f 9 24 21
f 10 21 25
f 10 25 69
f 10 69 26
f 10 26 12
f 10 12 27
f 10 27 28
f 10 28 11
f 12 26 29
f 13 29 70
f 13 70 106
f 13 106 108
f 13 108 107
f 13 107 105
f 13 105 104
f 13 104 103
f 13 103 134
f 13 134 133
f 13 133 132
f 13 132 143
f 13 143 152
f 13 152 151
f 13 151 150
f 13 150 149
f 13 149 159
f 13 159 158
f 13 158 157
f 13 157 163
f 13 163 165
f 13 165 164
f 13 164 162
f 13 162 161
f 13 161 155
f 13 155 154
f 13 154 147
f 13 147 146
f 13 146 144
f 13 144 138
f 13 138 129
f 13 129 135
f 13 135 109
f 13 109 101
f 13 101 60
f 13 60 59
f 13 59 58
f 13 58 57
f 13 57 30
f 13 30 17
f 13 17 16
f 13 16 15
f 14 17 30
f 14 30 19
f 18 20 31
f 18 31 32
f 18 32 33
f 18 33 34
f 18 34 35
f 18 35 36
f 18 36 37
f 18 37 38
f 18 38 39
f 18 39 40
f 18 40 41
f 18 41 42
f 18 42 43
f 18 43 44
f 18 44 45
f 18 45 46
f 18 46 47
f 18 47 48
f 18 48 49
f 18 49 50
f 18 50 51
f 18 51 52
f 18 52 53
f 18 53 54
f 18 54 55
f 18 55 56
f 19 30 57
f 19 57 20
f 20 58 59
f 20 59 60
f 20 60 31
f 20 57 58
f 21 24 25
f 22 61 23
f 23 61 62
f 23 62 24
f 24 63 25
f 24 62 64
f 24 64 65
f 24 65 66
f 24 66 67
f 24 67 63
f 25 63 68
f 25 68 70
f 25 70 69
f 26 69 29
f 29 69 70
f 31 60 71
f 31 71 32
f 32 71 72
f 32 72 33
f 33 72 73
f 33 73 34
f 34 73 74
f 34 74 35
f 35 74 75
f 35 75 36
f 36 75 37
f 37 75 76
f 37 76 38
f 38 76 39
f 39 76 77
f 39 77 40
f 40 77 41
f 41 77 78
f 41 78 42
f 42 78 79
f 42 79 80
f 42 80 43
f 43 80 44
f 44 80 81
f 44 81 45
f 45 81 82
f 45 82 46
f 46 82 83
f 46 83 47
f 47 83 48
f 48 83 84
f 48 84 49
f 49 84 85
f 49 85 50
f 50 85 51
f 51 85 86
f 51 86 87
f 51 87 52
f 52 87 88
f 52 88 89
f 52 89 53
f 53 89 90
f 53 90 91
f 53 91 54
f 54 91 92
f 54 92 55
f 55 93 94
f 55 94 56
f 55 92 95
f 55 95 93
f 56 94 97
f 56 97 98
f 56 98 99
f 56 99 100
f 56 100 96
f 60 101 71
f 61 102 103
f 61 103 104
f 61 104 62
f 62 104 105
f 62 105 64
f 63 106 68
f 63 67 106
f 64 105 65
f 65 105 107
f 65 107 66
f 66 107 67
f 67 107 108
f 67 108 106
f 68 106 70
f 71 101 109
f 71 109 110
f 71 110 111
f 71 111 72
f 72 111 110
f 72 110 112
f 72 112 113
f 72 113 114
f 72 114 115
f 72 115 73
f 73 115 116
f 73 116 117
f 73 117 74
f 74 118 77
f 74 77 76
f 74 76 75
f 74 117 119
f 74 119 118
f 77 118 120
f 77 120 80
f 77 80 78
f 78 80 79
f 80 120 83
f 80 83 82
f 80 82 81
f 83 120 119
f 83 119 85
f 83 85 84
f 85 119 87
f 85 87 86
f 87 119 88
f 88 119 117
f 88 117 121
f 88 121 90
f 88 90 89
f 90 122 92
f 90 92 91
f 90 121 122
f 92 122 123
f 92 123 95
f 93 95 94
f 94 98 97
f 94 95 124
f 94 124 98
f 95 123 124
f 96 100 126
f 96 126 127
f 96 127 128
f 96 128 129
f 96 129 125
f 98 124 100
f 98 100 99
f 100 124 130
f 100 130 126
f 102 131 132
f 102 132 133
f 102 133 134
f 102 134 103
f 109 135 110
f 110 135 112
f 112 135 129
f 112 129 113
f 113 136 115
f 113 115 114
f 113 129 136
f 115 136 126
f 115 126 130
f 115 130 117
f 115 117 116
f 117 130 121
f 118 119 120
f 121 130 123
f 121 123 122
f 123 130 124
f 125 129 137
f 126 136 128
f 126 128 127
f 128 136 129
f 129 138 139
f 129 139 140
f 129 140 141
f 129 141 137
f 131 142 152
f 131 152 143
f 131 143 132
f 138 144 139
f 139 144 146
f 139 146 147
f 139 147 145
f 142 148 149
f 142 149 150
f 142 150 151
f 142 151 152
f 145 147 154
f 145 154 155
f 145 155 153
f 148 156 157
f 148 157 158
f 148 158 159
f 148 159 149
f 153 155 161
f 153 161 162
f 153 162 160
f 156 160 163
f 156 163 157
f 160 162 164
f 160 164 165
f 160 165 163
