# https://github.com/mikedh/trimesh
v 0.03984632 -0.01645141 -0.02845296
v 0.03984632 -0.01645141 -0.03200855
v 0.03399450 -0.01645141 -0.02789298
v 0.05983793 -0.01656548 -0.02764231
v 0.03027216 -0.01645141 -0.03123001
v 0.05983793 -0.01656548 -0.03166033
v 0.05369224 -0.01656548 -0.03251357
v 0.05311301 -0.01656548 -0.03259198
v 0.05247417 -0.01656548 -0.03266669
v 0.05182680 -0.01656548 -0.03272966
v 0.05115389 -0.01656650 -0.03277721
v 0.05050227 -0.01656650 -0.03281116
v 0.04986768 -0.01656650 -0.03283153
v 0.04921606 -0.01656650 -0.03284203
v 0.04855591 -0.01656650 -0.03281055
v 0.01944586 -0.01645141 -0.02654335
v 0.05996996 -0.02635497 -0.02716445
v 0.05996996 -0.01916868 -0.02806585
v 0.05996996 -0.01916358 -0.02914136
v 0.02947147 -0.01645141 -0.03116395
v 0.04725267 -0.01656650 -0.03270373
v 0.05996996 -0.01916358 -0.03177146
v 0.05247417 -0.01787625 -0.03266669
v 0.05996996 -0.02372325 -0.03177146
v 0.05312153 -0.02242369 -0.03259075
v 0.05182680 -0.01916358 -0.03272966
v 0.05117518 -0.01916358 -0.03277782
v 0.05073651 -0.01916868 -0.03280067
v 0.05051504 -0.01916460 -0.03281116
v 0.04986768 -0.02403083 -0.03283215
v 0.04985490 -0.01916460 -0.03283215
v 0.04921606 -0.02112617 -0.03284697
v 0.04856443 -0.02177187 -0.03284944
v 0.04791707 -0.02177187 -0.03283586
v 0.04726545 -0.02177187 -0.03281919
v 0.04661809 -0.02177187 -0.03279758
v 0.04596220 -0.02177187 -0.03277103
v 0.04531484 -0.02177187 -0.03273769
v 0.04466748 -0.02177187 -0.03270003
v 0.04466748 -0.02112617 -0.03268212
v 0.04402011 -0.02112617 -0.03263520
v 0.04336849 -0.02112617 -0.03258272
v 0.04336849 -0.02047639 -0.03255494
v 0.01646032 -0.01645141 -0.02654335
v 0.02516565 -0.02024214 -0.02654211
v 0.03792553 -0.02685503 -0.02654211
v 0.05996996 -0.02635497 -0.03148191
v 0.03879436 -0.02685503 -0.02683167
v 0.03984632 -0.02685503 -0.02720582
v 0.02895613 -0.01645141 -0.03112011
v 0.04661809 -0.01656650 -0.03264940
v 0.05247417 -0.02177289 -0.03266607
v 0.05996996 -0.02437405 -0.03177085
v 0.05312153 -0.02372325 -0.03259013
v 0.05247417 -0.02372325 -0.03266546
v 0.05182255 -0.02372325 -0.03272843
v 0.05117518 -0.02242369 -0.03277782
v 0.05073651 -0.02372325 -0.03280067
v 0.05051504 -0.02047639 -0.03281116
v 0.04986768 -0.02437405 -0.03283153
v 0.04952696 -0.02403083 -0.03284018
v 0.05051930 -0.02403083 -0.03281055
v 0.04921606 -0.02372325 -0.03284697
v 0.04856443 -0.02242267 -0.03284944
v 0.04791707 -0.02242267 -0.03283833
v 0.04726545 -0.02242267 -0.03282227
v 0.04661809 -0.02242267 -0.03280190
v 0.04596220 -0.02242267 -0.03277659
v 0.04531484 -0.02242267 -0.03274510
v 0.04466748 -0.02242267 -0.03270620
v 0.04402011 -0.02177187 -0.03265311
v 0.04336849 -0.02177187 -0.03260001
v 0.04271261 -0.02112617 -0.03252469
v 0.02766993 -0.01645141 -0.03100898
v 0.01646032 -0.01645141 -0.02892897
v 0.01646032 -0.02024214 -0.02654211
v 0.02824063 -0.02685503 -0.02654211
v 0.05996996 -0.02635395 -0.03149796
v 0.03984632 -0.02685503 -0.03113554
v 0.05996996 -0.02498819 -0.03176714
v 0.05311728 -0.02436998 -0.03258766
v 0.05246991 -0.02436998 -0.03266298
v 0.05182255 -0.02437405 -0.03272534
v 0.05117093 -0.02436998 -0.03277535
v 0.05117518 -0.02372325 -0.03277721
v 0.05073651 -0.02436998 -0.03279881
v 0.04986768 -0.02502383 -0.03279696
v 0.04922032 -0.02437405 -0.03284450
v 0.04922032 -0.02403083 -0.03284635
v 0.05051930 -0.02437405 -0.03280931
v 0.04921606 -0.02403083 -0.03284635
v 0.04856443 -0.02307347 -0.03284821
v 0.04791707 -0.02307347 -0.03283647
v 0.04726545 -0.02307347 -0.03282042
v 0.04661809 -0.02307347 -0.03279758
v 0.04596220 -0.02307347 -0.03277227
v 0.04531484 -0.02307347 -0.03273954
v 0.04466748 -0.02307347 -0.03269633
v 0.04402011 -0.02242267 -0.03265928
v 0.04336849 -0.02242267 -0.03260371
v 0.04271261 -0.02177187 -0.03254074
v 0.02713756 -0.01645141 -0.03095959
v 0.01646032 -0.01659909 -0.02885365
v 0.02039135 -0.01645141 -0.02985568
v 0.03649877 -0.02473561 -0.03118556
v 0.03721854 -0.02533345 -0.03116888
v 0.03557458 -0.02502383 -0.03083487
v 0.03514442 -0.02541594 -0.03055519
v 0.03471000 -0.02526725 -0.03048913
v 0.03492721 -0.02564815 -0.03037121
v 0.03318955 -0.02542206 -0.02991434
v 0.01646032 -0.02027575 -0.02654211
v 0.02798509 -0.02672773 -0.02654211
v 0.02853024 -0.02685503 -0.02670819
v 0.05996996 -0.02632442 -0.03151771
v 0.05190773 -0.02635497 -0.03236972
v 0.03977818 -0.02685503 -0.03111949
v 0.03984632 -0.02683976 -0.03114604
v 0.04222283 -0.02635497 -0.03187148
v 0.04265724 -0.02635497 -0.03194248
v 0.04290000 -0.02635497 -0.03197953
v 0.04337275 -0.02635497 -0.03204991
v 0.04402011 -0.02635497 -0.03213944
v 0.04466748 -0.02635497 -0.03221846
v 0.04531484 -0.02635497 -0.03228761
v 0.04534891 -0.02635497 -0.03229069
v 0.04636681 -0.02635497 -0.03237960
v 0.04656272 -0.02635497 -0.03239442
v 0.04661809 -0.02635497 -0.03239812
v 0.04726971 -0.02635497 -0.03243825
v 0.04767005 -0.02635497 -0.03245678
v 0.04792133 -0.02635497 -0.03246727
v 0.04857295 -0.02635497 -0.03249012
v 0.04922032 -0.02635497 -0.03249999
v 0.04951419 -0.02635497 -0.03249505
v 0.04986768 -0.02635497 -0.03248888
v 0.05021266 -0.02635497 -0.03247715
v 0.05051930 -0.02635497 -0.03246542
v 0.05073651 -0.02635497 -0.03245369
v 0.05097075 -0.02635497 -0.03244010
v 0.05117518 -0.02635497 -0.03242776
v 0.05178422 -0.02635497 -0.03238083
v 0.05996996 -0.02502282 -0.03176591
v 0.05312153 -0.02437405 -0.03258704
v 0.05247417 -0.02437405 -0.03266237
v 0.05182255 -0.02502485 -0.03268830
v 0.05117518 -0.02502485 -0.03273769
v 0.05073651 -0.02502485 -0.03276239
v 0.05051930 -0.02502383 -0.03277350
v 0.05051930 -0.02567362 -0.03266669
v 0.04986768 -0.02567362 -0.03268953
v 0.04922032 -0.02567362 -0.03270127
v 0.04922032 -0.02502383 -0.03280807
v 0.04857295 -0.02437405 -0.03283894
v 0.04887534 -0.02403083 -0.03284574
v 0.04856443 -0.02372325 -0.03284635
v 0.04791707 -0.02372325 -0.03283215
v 0.04726545 -0.02372325 -0.03281239
v 0.04596220 -0.02372325 -0.03275683
v 0.04726971 -0.02403083 -0.03280684
v 0.04726971 -0.02437405 -0.03280005
v 0.04531484 -0.02372325 -0.03271979
v 0.04466748 -0.02372325 -0.03267225
v 0.04402011 -0.02307347 -0.03264570
v 0.04336849 -0.02307347 -0.03258828
v 0.04271261 -0.02242267 -0.03254198
v 0.02635816 -0.01645141 -0.03088241
v 0.02700553 -0.01645141 -0.03094724
v 0.01646032 -0.01689546 -0.02869806
v 0.02068096 -0.01645141 -0.02992360
v 0.03817255 -0.02502383 -0.03149363
v 0.03746982 -0.02507985 -0.03131027
v 0.03687356 -0.02487819 -0.03123062
v 0.03881991 -0.02567362 -0.03143313
v 0.03765295 -0.02547705 -0.03122322
v 0.03798090 -0.02591092 -0.03113802
v 0.03746982 -0.02568584 -0.03109295
v 0.03687356 -0.02567362 -0.03093551
v 0.03557458 -0.02555344 -0.03061755
v 0.03591955 -0.02598730 -0.03051815
v 0.03557458 -0.02587833 -0.03046505
v 0.03422022 -0.02573370 -0.03009276
v 0.03396469 -0.02599138 -0.02986988
v 0.03275514 -0.02528049 -0.02983839
v 0.01646032 -0.01731507 -0.02847086
v 0.02396888 -0.02461645 -0.02654211
v 0.01646032 -0.02024214 -0.02656928
v 0.02425849 -0.02401759 -0.02724965
v 0.02445867 -0.02441785 -0.02699281
v 0.02422016 -0.02469080 -0.02661805
v 0.02514436 -0.02526928 -0.02654211
v 0.02806175 -0.02667069 -0.02665016
v 0.02876022 -0.02685503 -0.02683723
v 0.05996996 -0.02567362 -0.03172578
v 0.05241880 -0.02626229 -0.03235367
v 0.05216752 -0.02600360 -0.03247591
v 0.03954393 -0.02685503 -0.03106084
v 0.03969300 -0.02669106 -0.03119790
v 0.03984632 -0.02672162 -0.03121519
v 0.04186082 -0.02635497 -0.03180789
v 0.04206951 -0.02635497 -0.03184555
v 0.04206951 -0.02620424 -0.03190791
v 0.04337275 -0.02632340 -0.03206350
v 0.04402011 -0.02632340 -0.03215363
v 0.04466748 -0.02632340 -0.03223328
v 0.04531484 -0.02632340 -0.03230181
v 0.04594943 -0.02627756 -0.03237590
v 0.04614960 -0.02602906 -0.03248456
v 0.04661809 -0.02607591 -0.03250123
v 0.04726971 -0.02612989 -0.03252037
v 0.04792133 -0.02616961 -0.03253395
v 0.04857295 -0.02620118 -0.03254568
v 0.04922032 -0.02621442 -0.03255000
v 0.04986768 -0.02620016 -0.03254506
v 0.05051930 -0.02616757 -0.03253333
v 0.05073651 -0.02623072 -0.03249938
v 0.05117518 -0.02611665 -0.03251543
v 0.05182255 -0.02604536 -0.03249012
v 0.05996996 -0.02563491 -0.03173442
v 0.05247417 -0.02502485 -0.03262533
v 0.05312153 -0.02544141 -0.03249567
v 0.05182255 -0.02567362 -0.03258087
v 0.05117518 -0.02567362 -0.03263088
v 0.05073651 -0.02567362 -0.03265558
v 0.05073651 -0.02582027 -0.03261730
v 0.04857295 -0.02567362 -0.03269262
v 0.04857295 -0.02502383 -0.03280005
v 0.04792133 -0.02437405 -0.03282289
v 0.04822372 -0.02403083 -0.03283586
v 0.04757209 -0.02403083 -0.03281733
v 0.04562575 -0.02403083 -0.03272719
v 0.04627737 -0.02403083 -0.03276300
v 0.04792133 -0.02502383 -0.03278153
v 0.04726971 -0.02502383 -0.03275621
v 0.04661809 -0.02437405 -0.03276918
v 0.04531484 -0.02403083 -0.03270620
v 0.04497838 -0.02403083 -0.03268089
v 0.04466748 -0.02403083 -0.03265558
v 0.04402011 -0.02372325 -0.03261668
v 0.04336849 -0.02372325 -0.03255432
v 0.04265724 -0.02313051 -0.03251296
v 0.04230801 -0.02295329 -0.03248271
v 0.04223561 -0.02242267 -0.03249012
v 0.02571080 -0.01645141 -0.03080894
v 0.04190766 -0.02242267 -0.03245430
v 0.02112389 -0.01645141 -0.03002485
v 0.03881991 -0.02502383 -0.03163749
v 0.03989317 -0.02526521 -0.03180357
v 0.03947153 -0.02567362 -0.03158130
v 0.03841105 -0.02604332 -0.03119482
v 0.03818532 -0.02568584 -0.03127693
v 0.03752092 -0.02632340 -0.03081203
v 0.03634971 -0.02611155 -0.03058359
v 0.03617509 -0.02573167 -0.03070892
v 0.03557458 -0.02632340 -0.03021686
v 0.03439484 -0.02611461 -0.02994459
v 0.03673302 -0.02654440 -0.03046567
v 0.03520830 -0.02666865 -0.02988779
v 0.03477815 -0.02654848 -0.02980999
v 0.03422022 -0.02632849 -0.02974579
v 0.03298086 -0.02620220 -0.02936362
v 0.03252515 -0.02607184 -0.02927718
v 0.03231646 -0.02570722 -0.02942659
v 0.03129857 -0.02538030 -0.02924693
v 0.01646032 -0.01811456 -0.02801460
v 0.01646032 -0.01788745 -0.02814549
v 0.01646032 -0.01761348 -0.02830293
v 0.02428404 -0.02479773 -0.02654211
v 0.01646032 -0.02015862 -0.02663349
v 0.02469291 -0.02414388 -0.02735337
v 0.02518269 -0.02460728 -0.02719532
v 0.02465458 -0.02481301 -0.02673536
v 0.02500381 -0.02519494 -0.02654211
v 0.02548508 -0.02535891 -0.02663719
v 0.02948425 -0.02685503 -0.02722742
v 0.05241880 -0.02568075 -0.03252222
v 0.03925858 -0.02659125 -0.03114542
v 0.03801071 -0.02685503 -0.03065336
v 0.03984632 -0.02633664 -0.03139856
v 0.04012316 -0.02632340 -0.03146647
v 0.04077052 -0.02632340 -0.03160662
v 0.03947153 -0.02635395 -0.03130595
v 0.04149880 -0.02635497 -0.03173936
v 0.04154139 -0.02609119 -0.03186160
v 0.04206951 -0.02567362 -0.03208510
v 0.04272113 -0.02567362 -0.03218759
v 0.04337275 -0.02567362 -0.03228144
v 0.04466748 -0.02577546 -0.03241665
v 0.04531484 -0.02590379 -0.03244936
v 0.04571944 -0.02597508 -0.03246789
v 0.04661809 -0.02567362 -0.03260680
v 0.04726971 -0.02567362 -0.03264385
v 0.04792133 -0.02567362 -0.03267101
v 0.05073651 -0.02615026 -0.03252777
v 0.05345373 -0.02535280 -0.03247468
v 0.04596647 -0.02437405 -0.03273337
v 0.04531484 -0.02437405 -0.03268953
v 0.04661809 -0.02502383 -0.03272225
v 0.04466748 -0.02437405 -0.03263582
v 0.04432676 -0.02403083 -0.03262594
v 0.04402011 -0.02403083 -0.03259692
v 0.04297241 -0.02413777 -0.03248209
v 0.04282760 -0.02372325 -0.03249753
v 0.04239745 -0.02338818 -0.03247221
v 0.04367940 -0.02403083 -0.03256420
v 0.02506344 -0.01645141 -0.03072683
v 0.04141788 -0.02307347 -0.03236910
v 0.02180958 -0.01645141 -0.03017488
v 0.03943320 -0.02503911 -0.03176529
v 0.03963337 -0.02483134 -0.03185481
v 0.03984632 -0.02492301 -0.03187457
v 0.04011464 -0.02503809 -0.03189927
v 0.04033184 -0.02542104 -0.03184679
v 0.04011464 -0.02565223 -0.03172701
v 0.03919896 -0.02464395 -0.03181283
v 0.03881991 -0.02615128 -0.03124421
v 0.04077052 -0.02588444 -0.03178690
v 0.04110698 -0.02599036 -0.03182086
v 0.03881991 -0.02647617 -0.03108862
v 0.03818532 -0.02628469 -0.03101454
v 0.03716743 -0.02666356 -0.03053297
v 0.03691615 -0.02632543 -0.03063916
v 0.03496554 -0.02632849 -0.03001065
v 0.03557458 -0.02676032 -0.02995076
v 0.03537440 -0.02685503 -0.02981123
v 0.03503368 -0.02685503 -0.02968651
v 0.03421171 -0.02685503 -0.02938152
v 0.03376877 -0.02674300 -0.02929694
v 0.03568105 -0.02685503 -0.02992051
v 0.03333861 -0.02662894 -0.02921235
v 0.03358564 -0.02637636 -0.02947598
v 0.03209074 -0.02594555 -0.02919136
v 0.02481216 -0.02342485 -0.02794361
v 0.01646032 -0.01854741 -0.02775036
v 0.01646032 -0.01980318 -0.02690144
v 0.02453533 -0.02372122 -0.02760280
v 0.02518269 -0.02385667 -0.02778740
v 0.03070657 -0.02599749 -0.02857582
v 0.03152429 -0.02655255 -0.02849926
v 0.02551063 -0.02469793 -0.02727558
v 0.02523380 -0.02502689 -0.02682797
v 0.02933093 -0.02668902 -0.02731571
v 0.02979515 -0.02685503 -0.02738857
v 0.03752092 -0.02674606 -0.03058421
v 0.03766999 -0.02685503 -0.03055766
v 0.04136677 -0.02631423 -0.03173195
v 0.04206951 -0.02502383 -0.03223945
v 0.04136677 -0.02573370 -0.03194557
v 0.04077052 -0.02555955 -0.03188877
v 0.04077052 -0.02502383 -0.03202274
v 0.04142214 -0.02502383 -0.03213511
v 0.04272113 -0.02502383 -0.03233515
v 0.04386679 -0.02521531 -0.03245307
v 0.04430120 -0.02536909 -0.03247838
v 0.04405845 -0.02562167 -0.03238454
v 0.04466748 -0.02545057 -0.03249814
v 0.04531484 -0.02557890 -0.03253024
v 0.04594943 -0.02572454 -0.03254692
v 0.04596647 -0.02502383 -0.03267965
v 0.04531484 -0.02502383 -0.03262903
v 0.04466748 -0.02502383 -0.03256852
v 0.04402011 -0.02437405 -0.03257408
v 0.04315554 -0.02457062 -0.03246048
v 0.04274242 -0.02436183 -0.03242961
v 0.04285316 -0.02403083 -0.03247715
v 0.04337275 -0.02436183 -0.03250617
v 0.04250392 -0.02372325 -0.03245863
v 0.04206951 -0.02372325 -0.03240306
v 0.02453107 -0.01645141 -0.03065521
v 0.04141788 -0.02372325 -0.03231786
v 0.02247399 -0.01645141 -0.03030885
v 0.03943320 -0.02440665 -0.03190297
v 0.02311709 -0.01645141 -0.03043110
v 0.03733779 -0.02685503 -0.03045703
v 0.03698004 -0.02685503 -0.03034466
v 0.03586844 -0.02685503 -0.02998287
v 0.03389654 -0.02685503 -0.02925928
v 0.03350472 -0.02685503 -0.02909937
v 0.03258904 -0.02685503 -0.02871720
v 0.03232924 -0.02677050 -0.02867584
v 0.03195871 -0.02667273 -0.02859619
v 0.03113673 -0.02611868 -0.02866781
v 0.03231646 -0.02630303 -0.02902528
v 0.02440329 -0.02335966 -0.02781148
v 0.01646032 -0.01961986 -0.02703356
v 0.01646032 -0.01938867 -0.02719902
v 0.01646032 -0.01930108 -0.02725953
v 0.01646032 -0.01909840 -0.02739783
v 0.03062565 -0.02669004 -0.02796460
v 0.03019124 -0.02657292 -0.02785964
v 0.02973127 -0.02679291 -0.02741820
v 0.02997829 -0.02685503 -0.02748179
v 0.04077052 -0.02437405 -0.03214190
v 0.04142214 -0.02437405 -0.03224377
v 0.03984632 -0.02438729 -0.03198076
v 0.04012316 -0.02437405 -0.03203262
v 0.04337275 -0.02500958 -0.03242405
v 0.04206951 -0.02437405 -0.03233762
v 0.04358996 -0.02478246 -0.03248641
v 0.04405845 -0.02500958 -0.03250617
v 0.04239319 -0.02403083 -0.03241665
v 0.04172879 -0.02403083 -0.03232774
v 0.02438200 -0.01645141 -0.03063422
v 0.04107291 -0.02403083 -0.03223451
v 0.04076626 -0.02372325 -0.03222463
v 0.02332152 -0.01645141 -0.03046752
v 0.03241868 -0.02685503 -0.02864373
v 0.03212055 -0.02685503 -0.02850976
v 0.03103026 -0.02679596 -0.02805967
v 0.03108988 -0.02685503 -0.02803374
v 0.03077898 -0.02685503 -0.02788433
v 0.02361113 -0.01645141 -0.03051691
v 0.02391777 -0.01645141 -0.03056692
v 0.03128579 -0.02685503 -0.02812512
f 1 2 5
f 1 5 20
f 1 20 50
f 1 50 74
f 1 74 102
f 1 102 168
f 1 168 167
f 1 167 244
f 1 244 306
f 1 306 369
f 1 369 403
f 1 403 413
f 1 413 412
f 1 412 406
f 1 406 373
f 1 373 371
f 1 371 308
f 1 308 246
f 1 246 170
f 1 170 104
f 1 104 75
f 1 75 44
f 1 44 16
f 1 16 3
f 1 3 4
f 1 4 6
f 1 6 2
f 2 6 7
f 2 7 8
f 2 8 9
f 2 9 10
f 2 10 11
f 2 11 12
f 2 12 13
f 2 13 14
f 2 14 15
f 2 15 5
f 3 16 4
f 4 17 18
f 4 18 19
f 4 19 22
f 4 22 6
f 4 16 17
f 5 15 21
f 5 21 20
f 6 22 7
f 7 22 8
f 8 23 9
f 8 22 24
f 8 24 25
f 8 25 23
f 9 23 26
f 9 26 10
f 10 26 57
f 10 57 27
f 10 27 11
f 11 27 12
f 12 27 28
f 12 28 29
f 12 29 13
f 13 29 30
f 13 30 31
f 13 31 32
f 13 32 14
f 14 32 33
f 14 33 34
f 14 34 35
f 14 35 36
f 14 36 37
f 14 37 15
f 15 37 38
f 15 38 39
f 15 39 40
f 15 40 41
f 15 41 42
f 15 42 43
f 15 43 21
f 16 44 76
f 16 76 45
f 16 45 46
f 16 46 17
f 17 47 78
f 17 78 115
f 17 115 194
f 17 194 219
f 17 219 143
f 17 143 80
f 17 80 53
f 17 53 24
f 17 24 22
f 17 22 19
f 17 19 18
f 17 46 48
f 17 48 49
f 17 49 79
f 17 79 47
f 20 21 50
f 21 51 50
f 21 43 51
f 23 52 26
f 23 25 52
f 24 53 54
f 24 54 25
f 25 54 55
f 25 55 52
f 26 52 55
f 26 55 56
f 26 56 57
f 27 57 58
f 27 58 28
f 28 58 59
f 28 59 29
f 29 59 30
f 30 60 61
f 30 61 31
f 30 59 62
f 30 62 60
f 31 61 32
f 32 63 64
f 32 64 33
f 32 61 63
f 33 64 65
f 33 65 34
f 34 65 66
f 34 66 35
f 35 66 67
f 35 67 36
f 36 67 68
f 36 68 37
f 37 68 69
f 37 69 38
f 38 69 39
f 39 70 99
f 39 99 71
f 39 71 41
f 39 41 40
f 39 69 70
f 41 71 42
f 42 72 73
f 42 73 74
f 42 74 43
f 42 71 72
f 43 74 50
f 43 50 51
f 44 75 103
f 44 103 169
f 44 169 185
f 44 185 267
f 44 267 266
f 44 266 265
f 44 265 334
f 44 334 388
f 44 388 387
f 44 387 386
f 44 386 385
f 44 385 335
f 44 335 269
f 44 269 187
f 44 187 112
f 44 112 76
f 45 76 112
f 45 112 186
f 45 186 268
f 45 268 273
f 45 273 191
f 45 191 113
f 45 113 77
f 45 77 46
f 46 77 114
f 46 114 193
f 46 193 275
f 46 275 343
f 46 343 392
f 46 392 411
f 46 411 410
f 46 410 414
f 46 414 408
f 46 408 407
f 46 407 379
f 46 379 378
f 46 378 377
f 46 377 327
f 46 327 326
f 46 326 325
f 46 325 329
f 46 329 376
f 46 376 375
f 46 375 374
f 46 374 345
f 46 345 278
f 46 278 197
f 46 197 117
f 46 117 79
f 46 79 49
f 46 49 48
f 47 79 78
f 53 80 81
f 53 81 54
f 54 81 82
f 54 82 55
f 55 82 56
f 56 82 83
f 56 83 84
f 56 84 85
f 56 85 57
f 57 85 58
f 58 85 86
f 58 86 62
f 58 62 59
f 60 87 88
f 60 88 89
f 60 89 61
f 60 62 90
f 60 90 87
f 61 89 63
f 62 86 90
f 63 91 92
f 63 92 64
f 63 89 91
f 64 92 65
f 65 93 94
f 65 94 66
f 65 92 93
f 66 94 67
f 67 94 95
f 67 95 96
f 67 96 68
f 68 96 69
f 69 96 97
f 69 97 70
f 70 97 98
f 70 98 99
f 71 99 72
f 72 100 101
f 72 101 73
f 72 99 100
f 73 101 102
f 73 102 74
f 75 104 105
f 75 105 106
f 75 106 107
f 75 107 108
f 75 108 109
f 75 109 110
f 75 110 111
f 75 111 103
f 77 113 114
f 78 79 116
f 78 116 115
f 79 117 118
f 79 118 119
f 79 119 120
f 79 120 121
f 79 121 122
f 79 122 123
f 79 123 124
f 79 124 125
f 79 125 126
f 79 126 127
f 79 127 128
f 79 128 129
f 79 129 130
f 79 130 131
f 79 131 132
f 79 132 133
f 79 133 134
f 79 134 135
f 79 135 136
f 79 136 137
f 79 137 138
f 79 138 139
f 79 139 140
f 79 140 141
f 79 141 142
f 79 142 116
f 80 143 144
f 80 144 81
f 81 144 145
f 81 145 82
f 82 145 83
f 83 145 220
f 83 220 146
f 83 146 84
f 84 147 148
f 84 148 86
f 84 86 85
f 84 146 147
f 86 148 149
f 86 149 90
f 87 90 149
f 87 149 150
f 87 150 151
f 87 151 152
f 87 152 153
f 87 153 88
f 88 153 154
f 88 154 155
f 88 155 91
f 88 91 89
f 91 155 156
f 91 156 92
f 92 156 93
f 93 156 157
f 93 157 94
f 94 157 158
f 94 158 95
f 95 158 96
f 96 159 97
f 96 158 160
f 96 160 161
f 96 161 159
f 97 162 98
f 97 159 162
f 98 163 164
f 98 164 99
f 98 162 163
f 99 164 100
f 100 165 166
f 100 166 101
f 100 164 165
f 101 166 167
f 101 167 168
f 101 168 102
f 103 111 169
f 104 170 171
f 104 171 105
f 105 171 172
f 105 172 173
f 105 173 106
f 106 172 171
f 106 171 174
f 106 174 175
f 106 175 176
f 106 176 177
f 106 177 178
f 106 178 107
f 106 173 172
f 107 178 108
f 108 110 109
f 108 178 179
f 108 179 180
f 108 180 181
f 108 181 110
f 110 182 111
f 110 181 182
f 111 182 183
f 111 183 184
f 111 184 185
f 111 185 169
f 112 187 188
f 112 188 189
f 112 189 190
f 112 190 186
f 113 191 192
f 113 192 114
f 114 192 193
f 115 116 195
f 115 195 196
f 115 196 194
f 116 142 196
f 116 196 195
f 117 197 118
f 118 197 198
f 118 198 199
f 118 199 200
f 118 200 201
f 118 201 119
f 119 201 202
f 119 202 120
f 120 203 121
f 120 202 203
f 121 203 122
f 122 203 204
f 122 204 123
f 123 204 205
f 123 205 124
f 124 205 125
f 125 206 126
f 125 205 206
f 126 206 127
f 127 206 207
f 127 207 208
f 127 208 128
f 128 208 209
f 128 209 129
f 129 209 130
f 130 210 131
f 130 209 210
f 131 210 211
f 131 211 132
f 132 211 212
f 132 212 133
f 133 212 134
f 134 212 213
f 134 213 214
f 134 214 135
f 135 214 136
f 136 214 137
f 137 214 215
f 137 215 138
f 138 215 216
f 138 216 139
f 139 216 140
f 140 217 141
f 140 216 217
f 141 217 142
f 142 218 196
f 142 217 218
f 143 219 145
f 143 145 144
f 145 219 220
f 146 220 221
f 146 221 222
f 146 222 223
f 146 223 147
f 147 223 224
f 147 224 148
f 148 224 150
f 148 150 149
f 150 215 151
f 150 224 225
f 150 225 215
f 151 215 214
f 151 214 152
f 152 214 213
f 152 213 212
f 152 212 226
f 152 226 227
f 152 227 153
f 153 227 154
f 154 227 228
f 154 228 229
f 154 229 156
f 154 156 155
f 156 229 157
f 157 230 158
f 157 229 228
f 157 228 230
f 158 230 160
f 159 231 162
f 159 161 232
f 159 232 231
f 160 230 228
f 160 228 161
f 161 228 233
f 161 233 234
f 161 234 235
f 161 235 232
f 162 231 236
f 162 236 163
f 163 236 237
f 163 237 238
f 163 238 239
f 163 239 164
f 164 239 165
f 165 240 241
f 165 241 166
f 165 239 240
f 166 241 242
f 166 242 243
f 166 243 167
f 167 243 245
f 167 245 242
f 167 242 244
f 170 246 171
f 171 247 248
f 171 248 249
f 171 249 174
f 171 246 247
f 174 249 250
f 174 250 251
f 174 251 175
f 175 251 176
f 176 252 253
f 176 253 178
f 176 178 177
f 176 251 250
f 176 250 252
f 178 253 180
f 178 180 254
f 178 254 179
f 179 254 180
f 180 255 256
f 180 256 181
f 180 253 257
f 180 257 255
f 181 256 183
f 181 183 182
f 183 256 258
f 183 258 259
f 183 259 260
f 183 260 261
f 183 261 262
f 183 262 263
f 183 263 264
f 183 264 184
f 184 264 265
f 184 265 266
f 184 266 267
f 184 267 185
f 186 190 268
f 187 269 270
f 187 270 188
f 188 270 271
f 188 271 189
f 189 272 190
f 189 271 272
f 190 272 273
f 190 273 268
f 191 273 274
f 191 274 192
f 192 274 193
f 193 274 275
f 194 196 276
f 194 276 219
f 196 218 223
f 196 223 222
f 196 222 276
f 197 277 198
f 197 278 277
f 198 279 280
f 198 280 281
f 198 281 199
f 198 277 282
f 198 282 279
f 199 281 283
f 199 283 200
f 200 283 284
f 200 284 201
f 201 284 202
f 202 285 286
f 202 286 203
f 202 284 285
f 203 286 287
f 203 287 204
f 204 287 288
f 204 288 205
f 205 288 289
f 205 289 290
f 205 290 206
f 206 290 207
f 207 290 208
f 208 290 291
f 208 291 209
f 209 291 292
f 209 292 210
f 210 292 293
f 210 293 211
f 211 293 226
f 211 226 212
f 215 225 294
f 215 294 216
f 216 294 217
f 217 223 218
f 217 294 225
f 217 225 224
f 217 224 223
f 219 276 221
f 219 221 295
f 219 295 220
f 220 295 221
f 221 276 222
f 226 293 233
f 226 233 227
f 227 233 228
f 231 232 235
f 231 235 296
f 231 296 297
f 231 297 236
f 233 293 234
f 234 292 298
f 234 298 235
f 234 293 292
f 235 298 296
f 236 297 237
f 237 297 238
f 238 297 299
f 238 299 300
f 238 300 239
f 239 300 301
f 239 301 240
f 240 302 303
f 240 303 304
f 240 304 241
f 240 301 305
f 240 305 302
f 241 304 242
f 242 245 243
f 242 304 244
f 244 304 307
f 244 307 306
f 246 308 247
f 247 309 248
f 247 308 309
f 248 310 311
f 248 311 312
f 248 312 313
f 248 313 314
f 248 314 249
f 248 309 315
f 248 315 310
f 249 316 250
f 249 314 317
f 249 317 318
f 249 318 316
f 250 316 277
f 250 277 319
f 250 319 320
f 250 320 252
f 252 320 319
f 252 319 321
f 252 321 322
f 252 322 253
f 253 322 321
f 253 321 257
f 255 257 258
f 255 258 323
f 255 323 256
f 256 323 258
f 257 321 324
f 257 324 258
f 258 325 326
f 258 326 327
f 258 327 328
f 258 328 259
f 258 324 329
f 258 329 325
f 259 328 330
f 259 330 331
f 259 331 260
f 260 331 261
f 261 331 330
f 261 330 262
f 262 330 332
f 262 332 264
f 262 264 263
f 264 332 333
f 264 333 334
f 264 334 265
f 269 335 336
f 269 336 270
f 270 336 337
f 270 337 338
f 270 338 339
f 270 339 340
f 270 340 271
f 271 340 341
f 271 341 272
f 272 341 274
f 272 274 273
f 274 341 342
f 274 342 275
f 275 342 343
f 277 278 344
f 277 344 321
f 277 321 319
f 277 316 282
f 278 345 344
f 279 282 316
f 279 316 280
f 280 318 281
f 280 316 318
f 281 346 283
f 281 318 346
f 283 346 284
f 284 346 318
f 284 318 285
f 285 347 286
f 285 318 348
f 285 348 349
f 285 349 350
f 285 350 351
f 285 351 347
f 286 347 352
f 286 352 287
f 287 353 354
f 287 354 355
f 287 355 288
f 287 352 353
f 288 356 289
f 288 355 354
f 288 354 356
f 289 357 290
f 289 356 357
f 290 358 291
f 290 357 358
f 291 298 292
f 291 358 357
f 291 357 359
f 291 359 298
f 296 359 297
f 296 298 359
f 297 360 299
f 297 359 360
f 299 360 361
f 299 361 362
f 299 362 301
f 299 301 300
f 301 362 305
f 302 363 364
f 302 364 365
f 302 365 303
f 302 305 362
f 302 362 366
f 302 366 363
f 303 365 304
f 304 365 367
f 304 367 368
f 304 368 307
f 306 307 370
f 306 370 369
f 307 368 370
f 308 371 315
f 308 315 309
f 310 315 372
f 310 372 350
f 310 350 311
f 311 350 312
f 312 350 313
f 313 350 349
f 313 349 318
f 313 318 317
f 313 317 314
f 315 371 373
f 315 373 372
f 318 349 348
f 321 344 345
f 321 345 374
f 321 374 375
f 321 375 324
f 324 375 376
f 324 376 329
f 327 377 328
f 328 377 378
f 328 378 330
f 330 378 379
f 330 379 380
f 330 380 381
f 330 381 382
f 330 382 383
f 330 383 332
f 332 383 382
f 332 382 338
f 332 338 333
f 333 337 336
f 333 336 384
f 333 384 335
f 333 335 385
f 333 385 386
f 333 386 387
f 333 387 388
f 333 388 334
f 333 338 337
f 335 384 336
f 338 382 381
f 338 381 339
f 339 381 389
f 339 389 340
f 340 389 390
f 340 390 341
f 341 390 342
f 342 390 391
f 342 391 343
f 343 391 392
f 347 351 393
f 347 393 394
f 347 394 352
f 350 372 395
f 350 395 396
f 350 396 351
f 351 396 393
f 352 363 397
f 352 397 353
f 352 394 398
f 352 398 363
f 353 397 399
f 353 399 400
f 353 400 354
f 354 400 361
f 354 361 360
f 354 360 356
f 356 360 357
f 357 360 359
f 361 400 399
f 361 399 362
f 362 399 366
f 363 398 364
f 363 366 399
f 363 399 397
f 364 401 365
f 364 398 402
f 364 402 370
f 364 370 401
f 365 401 370
f 365 370 368
f 365 368 367
f 369 370 403
f 370 404 405
f 370 405 403
f 370 402 404
f 372 373 395
f 373 406 396
f 373 396 395
f 379 407 380
f 380 407 381
f 381 408 409
f 381 409 389
f 381 407 408
f 389 409 410
f 389 410 411
f 389 411 390
f 390 411 391
f 391 411 392
f 393 396 412
f 393 412 413
f 393 413 394
f 394 413 404
f 394 404 398
f 396 406 412
f 398 404 402
f 403 405 413
f 404 413 405
f 408 414 409
f 409 414 410
