# https://github.com/mikedh/trimesh
v -0.00735483 -0.00769205 0.03025053
v -0.00734297 -0.00769205 0.03003322
v -0.00735483 -0.00769205 0.03089960
v -0.00735483 0.00645295 0.03024958
v -0.00735352 0.01852180 0.02505128
v -0.00734693 0.01908802 0.02440125
v -0.00723619 -0.00769205 0.02956160
v -0.00720323 0.01908802 0.02372181
v -0.00728365 -0.00769205 0.03133232
v -0.00732056 -0.00682175 0.03154868
v -0.00735220 -0.00617165 0.03154868
v -0.00735483 -0.00552154 0.03154868
v -0.00735483 0.00645295 0.03089960
v -0.00735352 0.01908802 0.02505128
v -0.00716764 -0.00769205 0.02938319
v -0.00687234 0.01908802 0.02338304
v -0.00708458 -0.00769205 0.02920385
v -0.00721246 -0.00769205 0.03156007
v -0.00724674 -0.00747448 0.03154868
v -0.00714128 -0.00682175 0.03200227
v -0.00717160 -0.00617165 0.03205921
v -0.00729947 -0.00292375 0.03219870
v -0.00731925 -0.00227365 0.03219870
v -0.00733506 -0.00162354 0.03219870
v -0.00734297 -0.00097344 0.03219870
v -0.00734693 -0.00032334 0.03219870
v -0.00735352 -0.00077684 0.03174511
v -0.00735483 0.00552497 0.03154868
v -0.00735352 0.01908802 0.02570130
v -0.00667197 0.01908802 0.02331472
v -0.00699494 -0.00769205 0.02917822
v -0.00709777 -0.00769205 0.03180395
v -0.00706745 -0.00747448 0.03192731
v -0.00700285 -0.00456736 0.03252704
v -0.00703317 -0.00422396 0.03254792
v -0.00708458 -0.00357385 0.03258682
v -0.00712018 -0.00292375 0.03262099
v -0.00726255 -0.00357385 0.03219870
v -0.00714128 -0.00227365 0.03264471
v -0.00715446 -0.00162354 0.03266368
v -0.00716368 -0.00097344 0.03267792
v -0.00716500 -0.00077684 0.03267982
v -0.00729024 -0.00077684 0.03234484
v -0.00716632 -0.00032334 0.03268361
v -0.00734693 0.00032415 0.03219870
v -0.00734297 0.00097687 0.03219870
v -0.00734956 0.00617246 0.03154868
v -0.00735220 0.00877549 0.03089865
v -0.00735352 0.01072318 0.03024863
v -0.00735352 0.01202339 0.02959955
v -0.00735352 0.01722422 0.02700040
v -0.00732979 0.01852180 0.02635133
v -0.00720587 0.01908802 0.02636556
v 0.00611008 0.01908802 0.02315624
v -0.00667328 -0.00769205 0.02913173
v -0.00703581 -0.00769205 0.03190169
v -0.00667328 -0.00457784 0.03252894
v -0.00667328 -0.00422396 0.03257164
v -0.00667328 -0.00357385 0.03264850
v -0.00667328 -0.00292375 0.03271683
v -0.00667328 -0.00682175 0.03213038
v -0.00667328 -0.00617165 0.03225280
v -0.00602206 -0.00552154 0.03237616
v -0.00667328 -0.00227365 0.03276617
v -0.00667328 -0.00162354 0.03280318
v -0.00667328 -0.00097344 0.03283260
v -0.00701604 -0.00077684 0.03272821
v -0.00667197 -0.00032334 0.03284303
v -0.00716632 0.00032415 0.03268361
v -0.00716368 0.00097687 0.03267792
v -0.00733506 0.00162697 0.03219870
v -0.00732056 0.00227708 0.03219870
v -0.00729947 0.00292456 0.03219870
v -0.00731925 0.00682518 0.03154868
v -0.00730738 0.00942560 0.03089865
v -0.00730474 0.01137329 0.03024863
v -0.00733506 0.01267349 0.02959955
v -0.00734165 0.01397370 0.02894858
v -0.00734165 0.01527391 0.02829950
v -0.00731925 0.01657149 0.02765043
v -0.00727179 0.01787170 0.02700040
v -0.00714391 0.01908802 0.02652119
v -0.00718346 0.01722160 0.02767415
v 0.00611008 0.01908802 0.02673660
v 0.00611139 0.00645295 0.02933005
v 0.00611139 -0.00077684 0.03002468
v 0.00582533 -0.00769205 0.02907289
v -0.00687366 -0.00769205 0.03192351
v -0.00602206 -0.00490290 0.03247959
v -0.00472223 -0.00457784 0.03252894
v 0.00502249 -0.00422396 0.03257259
v 0.00567241 -0.00357385 0.03265135
v 0.00502249 -0.00292375 0.03271778
v -0.00537346 -0.00682175 0.03213133
v -0.00602206 -0.00617165 0.03226038
v -0.00667328 -0.00747448 0.03198140
v -0.00082407 -0.00617165 0.03226323
v 0.00112302 -0.00617165 0.03226418
v -0.00212258 -0.00552154 0.03237806
v 0.00582533 -0.00292375 0.03271778
v 0.00582533 -0.00227365 0.03276522
v 0.00582533 -0.00162354 0.03280698
v 0.00372267 -0.00162354 0.03280698
v -0.00082407 -0.00097344 0.03283639
v -0.00647686 -0.00077684 0.03283639
v -0.00212390 -0.00032334 0.03284588
v -0.00667197 0.00032415 0.03284303
v -0.00667197 0.00097687 0.03283260
v -0.00715446 0.00162697 0.03266368
v -0.00712018 0.00292456 0.03262099
v -0.00726387 0.00357466 0.03219870
v -0.00717291 0.00617246 0.03205921
v -0.00713996 0.00227708 0.03264471
v -0.00714260 0.00682518 0.03200227
v -0.00717160 0.00877549 0.03142817
v -0.00712941 0.00942560 0.03134276
v -0.00717291 0.01072318 0.03080281
v -0.00712414 0.01137329 0.03069178
v -0.00715446 0.01267349 0.03010534
v -0.00716368 0.01397370 0.02949327
v -0.00716104 0.01527391 0.02884610
v -0.00707931 0.01895433 0.02675273
v -0.00694090 0.01908802 0.02668441
v -0.00709118 0.01787170 0.02743882
v -0.00714260 0.01657149 0.02815621
v -0.00707141 0.01700402 0.02803665
v 0.00242285 0.01908802 0.02673660
v 0.00611008 0.01900938 0.02679354
v 0.00611139 0.00645295 0.03220345
v 0.00611139 -0.00077684 0.03284019
v 0.00582533 -0.00769205 0.03193205
v -0.00667328 -0.00769205 0.03192921
v -0.00082407 -0.00490290 0.03247959
v 0.00047311 -0.00552154 0.03237900
v 0.00372267 -0.00552154 0.03237996
v 0.00242285 -0.00457522 0.03252894
v 0.00582533 -0.00422396 0.03257259
v 0.00582533 -0.00357385 0.03265135
v -0.00082407 -0.00682175 0.03213228
v 0.00567241 -0.00769205 0.03193205
v 0.00567241 -0.00747448 0.03198329
v 0.00567241 -0.00617165 0.03226513
v 0.00582533 -0.00601961 0.03229265
v 0.00582533 -0.00097344 0.03283639
v 0.00437258 -0.00097344 0.03283734
v 0.00307276 -0.00097344 0.03283734
v -0.00017680 -0.00077684 0.03284019
v -0.00017680 -0.00032334 0.03284683
v 0.00611139 0.00032415 0.03285063
v 0.00112171 0.00032415 0.03284778
v -0.00212390 0.00032415 0.03284588
v -0.00602206 0.00097687 0.03283355
v -0.00667197 0.00162697 0.03280413
v -0.00708458 0.00357466 0.03258682
v -0.00667197 0.00227708 0.03276522
v -0.00706745 0.00747529 0.03192731
v -0.00703449 0.00422477 0.03254792
v -0.00700285 0.00457079 0.03252704
v -0.00701208 0.00783966 0.03188366
v -0.00705954 0.00990269 0.03126969
v -0.00704899 0.01180319 0.03061302
v -0.00708722 0.01317942 0.03000285
v -0.00709382 0.01313486 0.03001139
v -0.00710041 0.01449536 0.02937371
v -0.00709645 0.01576935 0.02871989
v -0.00700285 0.01820461 0.02733159
v -0.00667197 0.01908802 0.02673470
v -0.00667197 0.01585323 0.02876828
v -0.00667197 0.01705907 0.02806796
v -0.00537214 0.01908802 0.02673565
v -0.00667197 0.01900938 0.02679164
v -0.00667197 0.01853491 0.02711712
v 0.00177162 0.01853491 0.02711807
v 0.00611008 0.01853491 0.02711807
v 0.00611008 0.01843005 0.02718924
v 0.00611008 0.01787170 0.02755743
v 0.00611008 0.01771179 0.02766277
v 0.00611008 0.01738412 0.02787343
v 0.00611008 0.01727664 0.02793891
v 0.00611008 0.01705907 0.02807081
v 0.00611008 0.01644305 0.02843236
v 0.00611008 0.01618091 0.02858514
v 0.00611008 0.01607343 0.02864587
v 0.00611008 0.01585585 0.02876638
v 0.00611008 0.01566449 0.02886887
v 0.00611008 0.01527391 0.02907574
v 0.00611008 0.01459497 0.02942590
v 0.00611008 0.01439050 0.02952554
v 0.00611008 0.01397370 0.02972861
v 0.00611008 0.01385049 0.02978650
v 0.00611008 0.01359884 0.02990227
v 0.00611008 0.01327641 0.03004461
v 0.00611008 0.01267349 0.03030367
v 0.00611008 0.01218067 0.03050674
v 0.00611008 0.01185562 0.03063580
v 0.00611008 0.01137329 0.03081420
v 0.00611008 0.01072318 0.03104859
v 0.00611008 0.01030376 0.03119378
v 0.00611008 0.00997871 0.03129436
v 0.00611008 0.00942560 0.03146233
v 0.00611008 0.00877549 0.03165307
v 0.00611008 0.00818568 0.03181059
v 0.00611008 0.00747529 0.03198329
v 0.00611008 0.00726033 0.03203264
v 0.00611008 0.00682518 0.03213038
v -0.00537214 0.00617246 0.03225944
v 0.00611139 0.00617246 0.03225754
v 0.00611139 -0.00032334 0.03284778
v 0.00582533 -0.00457522 0.03252799
v 0.00582533 -0.00490027 0.03247959
v 0.00582533 -0.00552154 0.03237996
v 0.00582533 -0.00617165 0.03226513
v 0.00582533 -0.00682175 0.03213228
v 0.00582533 -0.00747448 0.03198329
v 0.00177162 -0.00032334 0.03284778
v 0.00611139 0.00097687 0.03283450
v -0.00147399 0.00097687 0.03283450
v -0.00602206 0.00162697 0.03280413
v 0.00437127 0.00227708 0.03276902
v -0.00667197 0.00292456 0.03271683
v -0.00667197 0.00357466 0.03264850
v -0.00667197 0.00422477 0.03257164
v -0.00667197 0.00458128 0.03252894
v -0.00602206 0.00552497 0.03237521
v -0.00667197 0.00617246 0.03225185
v -0.00667197 0.00645295 0.03220060
v -0.00667197 0.00682518 0.03212943
v -0.00667197 0.00747529 0.03198140
v -0.00667197 0.00786063 0.03188935
v -0.00667197 0.00877549 0.03164262
v -0.00667197 0.00942560 0.03146138
v -0.00667197 0.00997871 0.03129341
v -0.00667197 0.01030376 0.03118713
v -0.00667197 0.01185562 0.03063200
v -0.00667197 0.01218067 0.03050105
v -0.00667197 0.01267349 0.03029418
v -0.00667197 0.01326855 0.03004271
v -0.00667197 0.01072318 0.03104005
v -0.00667197 0.01137329 0.03080945
v -0.00667197 0.01359360 0.02989563
v -0.00667197 0.01397370 0.02971912
v -0.00667197 0.01459235 0.02942305
v -0.00667197 0.01527391 0.02907384
v -0.00667197 0.01738150 0.02787248
v -0.00667197 0.01787170 0.02755553
v -0.00667197 0.01820986 0.02733253
v -0.00602206 0.01585323 0.02876828
v 0.00307276 0.01618091 0.02858514
v -0.00407364 0.01617828 0.02858419
v -0.00602206 0.01617828 0.02858324
v -0.00602206 0.01527391 0.02907669
v -0.00602206 0.01657149 0.02835359
v -0.00537214 0.01705907 0.02806891
v -0.00602206 0.01738150 0.02787343
v -0.00602206 0.01787170 0.02755743
v -0.00342241 0.01738412 0.02787343
v 0.00502381 0.01705907 0.02807081
v -0.00147399 0.01705907 0.02806986
v -0.00342241 0.01527391 0.02907669
v 0.00112171 0.01397370 0.02972861
v 0.00177162 0.01360146 0.02990321
v 0.00307276 0.01360146 0.02990321
v 0.00177162 0.01327641 0.03004461
v 0.00047311 0.01267349 0.03030367
v -0.00277250 0.01218067 0.03050864
v 0.00502381 0.01218067 0.03050769
v -0.00602206 0.01218067 0.03050864
v -0.00602206 0.01137329 0.03081040
v -0.00342241 0.01072318 0.03104859
v -0.00342241 0.01030638 0.03119472
v 0.00242285 0.01030376 0.03119472
v 0.00372267 0.00997871 0.03129436
v 0.00502381 0.00942560 0.03146233
v -0.00602206 0.00877549 0.03165307
v -0.00602206 0.00818568 0.03181059
v 0.00502381 0.00682518 0.03213038
v -0.00602206 0.00645295 0.03220440
v -0.00602206 0.00617246 0.03225944
v 0.00611139 0.00552497 0.03237900
v 0.00611139 0.00141202 0.03281362
v 0.00611139 0.00162697 0.03280318
v 0.00611139 0.00227708 0.03276902
v 0.00372135 0.00292456 0.03271778
v -0.00602206 0.00357466 0.03264850
v 0.00611139 0.00401244 0.03259821
v -0.00082407 0.00459438 0.03253084
v -0.00147399 0.00459176 0.03253084
v -0.00602206 0.00490371 0.03247864
v 0.00047311 0.00491943 0.03248054
v 0.00372135 0.00491681 0.03248244
v -0.00407364 0.01030638 0.03119472
v -0.00602206 0.01030376 0.03119472
v -0.00602206 0.01267349 0.03030272
v -0.00602206 0.01359360 0.02990037
v -0.00537214 0.01359622 0.02990132
v -0.00602206 0.01072318 0.03104764
v -0.00602206 0.01397370 0.02972482
v -0.00277250 0.01397370 0.02972671
v -0.00082276 0.01657149 0.02835549
v 0.00611139 0.00532313 0.03241317
v 0.00611139 0.00292456 0.03271778
v 0.00611139 0.00357466 0.03264755
v 0.00611139 0.00422477 0.03257354
v 0.00047311 0.00459438 0.03253084
v 0.00437127 0.00491419 0.03248244
v 0.00611139 0.00458652 0.03252989
v 0.00611139 0.00491157 0.03248149
f 1 2 7
f 1 7 15
f 1 15 17
f 1 17 31
f 1 31 55
f 1 55 87
f 1 87 131
f 1 131 140
f 1 140 132
f 1 132 88
f 1 88 56
f 1 56 32
f 1 32 18
f 1 18 9
f 1 9 3
f 1 3 12
f 1 12 28
f 1 28 13
f 1 13 4
f 1 4 5
f 1 5 6
f 1 6 2
f 2 6 8
f 2 8 7
f 3 9 10
f 3 10 11
f 3 11 12
f 4 13 29
f 4 29 14
f 4 14 5
f 5 14 6
f 6 14 29
f 6 29 53
f 6 53 82
f 6 82 123
f 6 123 167
f 6 167 170
f 6 170 127
f 6 127 84
f 6 84 54
f 6 54 30
f 6 30 16
f 6 16 8
f 7 8 15
f 8 16 17
f 8 17 15
f 9 18 19
f 9 19 10
f 10 20 21
f 10 21 22
f 10 22 11
f 10 19 20
f 11 22 23
f 11 23 24
f 11 24 25
f 11 25 26
f 11 26 12
f 12 26 27
f 12 27 28
f 13 28 29
f 16 30 17
f 17 30 31
f 18 32 20
f 18 20 19
f 20 32 33
f 20 33 34
f 20 34 35
f 20 35 36
f 20 36 21
f 21 36 37
f 21 37 38
f 21 38 22
f 22 38 37
f 22 37 39
f 22 39 40
f 22 40 23
f 23 40 24
f 24 40 41
f 24 41 25
f 25 41 42
f 25 42 43
f 25 43 26
f 26 44 69
f 26 69 45
f 26 45 27
f 26 43 44
f 27 45 28
f 28 45 46
f 28 46 47
f 28 47 48
f 28 48 49
f 28 49 50
f 28 50 51
f 28 51 29
f 29 52 53
f 29 51 52
f 30 54 55
f 30 55 31
f 32 56 33
f 33 56 34
f 34 57 58
f 34 58 59
f 34 59 60
f 34 60 35
f 34 56 61
f 34 61 62
f 34 62 63
f 34 63 57
f 35 60 64
f 35 64 36
f 36 64 37
f 37 64 65
f 37 65 39
f 39 65 66
f 39 66 40
f 40 66 41
f 41 66 67
f 41 67 42
f 42 67 44
f 42 44 43
f 44 67 68
f 44 68 107
f 44 107 69
f 45 69 46
f 46 69 70
f 46 70 71
f 46 71 47
f 47 71 72
f 47 72 73
f 47 73 74
f 47 74 48
f 48 74 75
f 48 75 49
f 49 75 76
f 49 76 77
f 49 77 78
f 49 78 79
f 49 79 50
f 50 79 51
f 51 79 80
f 51 80 52
f 52 80 81
f 52 81 53
f 53 81 83
f 53 83 82
f 54 84 129
f 54 129 85
f 54 85 86
f 54 86 87
f 54 87 55
f 56 88 61
f 57 89 133
f 57 133 90
f 57 90 137
f 57 137 91
f 57 91 92
f 57 92 58
f 57 63 89
f 58 92 59
f 59 92 60
f 60 93 64
f 60 92 93
f 61 94 95
f 61 95 62
f 61 88 96
f 61 96 94
f 62 95 63
f 63 95 97
f 63 97 98
f 63 98 99
f 63 99 89
f 64 93 100
f 64 100 101
f 64 101 102
f 64 102 103
f 64 103 65
f 65 103 104
f 65 104 66
f 66 104 105
f 66 105 68
f 66 68 67
f 68 105 106
f 68 106 151
f 68 151 107
f 69 107 70
f 70 108 109
f 70 109 72
f 70 72 71
f 70 107 108
f 72 109 73
f 73 110 111
f 73 111 112
f 73 112 74
f 73 109 113
f 73 113 110
f 74 114 115
f 74 115 75
f 74 112 114
f 75 115 116
f 75 116 117
f 75 117 76
f 76 117 118
f 76 118 119
f 76 119 77
f 77 119 120
f 77 120 78
f 78 120 79
f 79 120 121
f 79 121 80
f 80 121 83
f 80 83 81
f 82 122 123
f 82 83 122
f 83 124 122
f 83 121 125
f 83 125 126
f 83 126 124
f 84 127 128
f 84 128 129
f 85 129 207
f 85 207 279
f 85 279 300
f 85 300 307
f 85 307 306
f 85 306 303
f 85 303 285
f 85 285 302
f 85 302 301
f 85 301 282
f 85 282 281
f 85 281 280
f 85 280 216
f 85 216 149
f 85 149 208
f 85 208 130
f 85 130 86
f 86 130 131
f 86 131 87
f 88 132 96
f 89 99 134
f 89 134 135
f 89 135 211
f 89 211 133
f 90 136 137
f 90 133 136
f 91 137 138
f 91 138 92
f 92 138 100
f 92 100 93
f 94 139 142
f 94 142 98
f 94 98 97
f 94 97 95
f 94 96 139
f 96 132 140
f 96 140 141
f 96 141 139
f 98 142 143
f 98 143 134
f 98 134 99
f 100 138 130
f 100 130 101
f 101 130 102
f 102 144 145
f 102 145 146
f 102 146 103
f 102 130 144
f 103 146 104
f 104 146 147
f 104 147 105
f 105 147 106
f 106 147 148
f 106 148 149
f 106 149 150
f 106 150 151
f 107 151 152
f 107 152 108
f 108 152 153
f 108 153 113
f 108 113 109
f 110 154 112
f 110 112 111
f 110 113 153
f 110 153 155
f 110 155 154
f 112 154 114
f 114 156 116
f 114 116 115
f 114 154 157
f 114 157 158
f 114 158 156
f 116 156 159
f 116 159 160
f 116 160 118
f 116 118 117
f 118 160 161
f 118 161 162
f 118 162 163
f 118 163 119
f 119 163 120
f 120 164 121
f 120 163 164
f 121 164 165
f 121 165 125
f 122 124 126
f 122 126 166
f 122 166 123
f 123 166 167
f 125 165 126
f 126 165 168
f 126 168 169
f 126 169 166
f 127 170 128
f 128 171 172
f 128 172 173
f 128 173 174
f 128 174 129
f 128 170 171
f 129 174 175
f 129 175 176
f 129 176 177
f 129 177 178
f 129 178 179
f 129 179 180
f 129 180 181
f 129 181 182
f 129 182 183
f 129 183 184
f 129 184 185
f 129 185 186
f 129 186 187
f 129 187 188
f 129 188 189
f 129 189 190
f 129 190 191
f 129 191 192
f 129 192 193
f 129 193 194
f 129 194 195
f 129 195 196
f 129 196 197
f 129 197 198
f 129 198 199
f 129 199 200
f 129 200 201
f 129 201 202
f 129 202 203
f 129 203 204
f 129 204 205
f 129 205 206
f 129 206 207
f 130 208 145
f 130 145 144
f 130 138 137
f 130 137 209
f 130 209 210
f 130 210 211
f 130 211 143
f 130 143 212
f 130 212 213
f 130 213 214
f 130 214 131
f 131 214 141
f 131 141 140
f 133 210 136
f 133 211 210
f 134 143 135
f 135 143 211
f 136 210 209
f 136 209 137
f 139 141 214
f 139 214 213
f 139 213 212
f 139 212 142
f 142 212 143
f 145 208 215
f 145 215 146
f 146 215 147
f 147 215 148
f 148 215 149
f 149 216 217
f 149 217 152
f 149 152 150
f 149 215 208
f 150 152 151
f 152 217 153
f 153 218 282
f 153 282 219
f 153 219 155
f 153 217 216
f 153 216 218
f 154 155 220
f 154 220 157
f 155 219 220
f 156 158 159
f 157 220 158
f 158 220 221
f 158 221 222
f 158 222 223
f 158 223 224
f 158 224 225
f 158 225 226
f 158 226 227
f 158 227 159
f 159 227 228
f 159 228 229
f 159 229 230
f 159 230 231
f 159 231 160
f 160 232 233
f 160 233 161
f 160 231 232
f 161 234 235
f 161 235 236
f 161 236 237
f 161 237 162
f 161 233 238
f 161 238 239
f 161 239 234
f 162 237 240
f 162 240 241
f 162 241 164
f 162 164 163
f 164 242 243
f 164 243 165
f 164 241 242
f 165 243 168
f 166 244 245
f 166 245 246
f 166 246 172
f 166 172 171
f 166 171 167
f 166 169 244
f 167 171 170
f 168 185 247
f 168 247 183
f 168 183 248
f 168 248 249
f 168 249 250
f 168 250 169
f 168 243 251
f 168 251 185
f 169 250 252
f 169 252 253
f 169 253 254
f 169 254 244
f 172 246 255
f 172 255 175
f 172 175 173
f 173 175 174
f 175 255 176
f 176 255 177
f 177 256 178
f 177 255 256
f 178 256 179
f 179 256 257
f 179 257 180
f 180 257 181
f 181 248 182
f 181 257 258
f 181 258 248
f 182 248 183
f 183 247 184
f 184 247 185
f 185 251 259
f 185 259 186
f 186 259 187
f 187 259 251
f 187 251 242
f 187 242 260
f 187 260 188
f 188 260 189
f 189 260 190
f 190 260 261
f 190 261 262
f 190 262 191
f 191 262 192
f 192 263 264
f 192 264 193
f 192 262 261
f 192 261 263
f 193 264 267
f 193 267 265
f 193 265 266
f 193 266 194
f 194 266 195
f 195 234 196
f 195 266 265
f 195 265 267
f 195 267 234
f 196 234 268
f 196 268 269
f 196 269 197
f 197 269 291
f 197 291 270
f 197 270 271
f 197 271 198
f 198 271 199
f 199 271 270
f 199 270 291
f 199 291 272
f 199 272 273
f 199 273 200
f 200 273 274
f 200 274 201
f 201 274 275
f 201 275 202
f 202 275 203
f 203 275 229
f 203 229 228
f 203 228 204
f 204 227 276
f 204 276 205
f 204 228 227
f 205 276 277
f 205 277 206
f 206 278 279
f 206 279 207
f 206 277 278
f 216 280 218
f 218 280 281
f 218 281 282
f 219 282 301
f 219 301 283
f 219 283 220
f 220 283 221
f 221 283 301
f 221 301 284
f 221 284 285
f 221 285 286
f 221 286 287
f 221 287 222
f 222 287 223
f 223 287 288
f 223 288 224
f 224 279 278
f 224 278 225
f 224 288 289
f 224 289 290
f 224 290 279
f 225 278 226
f 226 278 227
f 227 278 277
f 227 277 276
f 229 275 274
f 229 274 230
f 230 274 231
f 231 274 273
f 231 273 291
f 231 291 232
f 232 291 292
f 232 292 233
f 233 292 296
f 233 296 238
f 234 239 268
f 234 267 235
f 235 267 293
f 235 293 236
f 236 293 237
f 237 294 240
f 237 293 295
f 237 295 294
f 238 296 239
f 239 296 268
f 240 294 297
f 240 297 241
f 241 297 242
f 242 251 243
f 242 297 298
f 242 298 260
f 244 254 255
f 244 255 245
f 245 255 246
f 248 258 253
f 248 253 299
f 248 299 249
f 249 299 253
f 249 253 252
f 249 252 250
f 253 258 256
f 253 256 254
f 254 256 255
f 256 258 257
f 260 298 261
f 261 298 297
f 261 297 295
f 261 295 293
f 261 293 263
f 263 293 264
f 264 293 267
f 268 296 269
f 269 296 291
f 272 291 273
f 279 290 300
f 284 301 302
f 284 302 285
f 285 303 304
f 285 304 286
f 286 304 290
f 286 290 289
f 286 289 287
f 287 289 288
f 290 305 300
f 290 304 306
f 290 306 305
f 291 296 292
f 294 295 297
f 300 305 307
f 303 306 304
f 305 306 307
