# https://github.com/mikedh/trimesh
v 0.03984651 0.02935102 -0.00860785
v 0.03036739 0.02935102 -0.00860785
v 0.03984651 0.02634658 -0.00860785
v 0.03984872 0.02952642 -0.01974600
v 0.03984872 0.03997121 -0.01987740
v 0.03984872 0.04042386 -0.01992996
v 0.03984872 0.04062189 -0.01995624
v 0.03984872 0.04095006 -0.02005897
v 0.03984872 0.04099532 -0.02007809
v 0.03203368 0.04097269 -0.01424860
v 0.03080879 0.04099532 -0.01357964
v 0.03037401 0.04105756 -0.01351035
v 0.02972294 0.04062189 -0.01316871
v 0.02907628 0.04062189 -0.01310181
v 0.01802797 0.02833822 -0.00860785
v 0.02842742 0.04062189 -0.01311854
v 0.01730407 0.02634658 -0.00860785
v 0.03984430 -0.01634919 -0.00861024
v 0.03984872 -0.01633222 -0.02513828
v 0.03984872 0.04109716 -0.02024533
v 0.03167173 0.04105190 -0.01413392
v 0.03102508 0.04112546 -0.01391890
v 0.03037401 0.04126125 -0.01395234
v 0.02972294 0.04110848 -0.01343629
v 0.02907628 0.04112546 -0.01340284
v 0.02842742 0.04112546 -0.01341240
v 0.01790217 0.02829296 -0.00860785
v 0.02777856 0.04062189 -0.01321410
v 0.02777856 0.04109716 -0.01346018
v 0.02712749 0.04102927 -0.01354619
v 0.01730407 0.02697463 -0.00860785
v 0.01730407 -0.01526850 -0.00861024
v 0.01738793 -0.01577773 -0.00861024
v 0.01741663 -0.01591918 -0.00861024
v 0.01755788 -0.01620774 -0.00861024
v 0.01761526 -0.01628695 -0.00861024
v 0.01803018 -0.01634353 -0.00861024
v 0.01868125 -0.01634919 -0.00861024
v 0.03280834 -0.01644538 -0.02779977
v 0.03339100 -0.01644538 -0.02783322
v 0.03398027 -0.01644538 -0.02788578
v 0.03984430 -0.01644538 -0.02844723
v 0.03984872 -0.01633788 -0.02773288
v 0.03984872 0.04118204 -0.02043407
v 0.03167173 0.04125559 -0.01460219
v 0.03102287 0.04134047 -0.01460219
v 0.02972294 0.04131217 -0.01395234
v 0.02907628 0.04132915 -0.01395234
v 0.02842742 0.04132349 -0.01395234
v 0.02777856 0.04130086 -0.01395234
v 0.01751153 0.02812888 -0.00860785
v 0.02712749 0.04122730 -0.01395234
v 0.02651835 0.04109716 -0.01394518
v 0.02676113 0.04096703 -0.01360831
v 0.01734600 0.02761965 -0.00875358
v 0.01734379 0.02697463 -0.00875358
v 0.01730407 0.02634658 -0.00861024
v 0.01731290 0.02761965 -0.00860785
v 0.01734379 -0.01526850 -0.00875358
v 0.01768147 -0.01574944 -0.00980242
v 0.01761305 -0.01594747 -0.00943927
v 0.01744532 -0.01591918 -0.00875358
v 0.01766602 -0.01626998 -0.00924575
v 0.01762629 -0.01628695 -0.00875358
v 0.01803018 -0.01634353 -0.00875358
v 0.01868125 -0.01634919 -0.01005328
v 0.03026586 -0.01644538 -0.02845440
v 0.03234487 -0.01644538 -0.02782366
v 0.03984430 -0.01644538 -0.02916636
v 0.03984872 -0.01370688 -0.02916636
v 0.03984872 0.04130652 -0.02082350
v 0.03984872 0.04134612 -0.02109825
v 0.03167173 0.04135178 -0.01525203
v 0.03037401 0.04135744 -0.01460219
v 0.02777856 0.04135744 -0.01460219
v 0.02712749 0.04135178 -0.01460219
v 0.02647863 0.04132349 -0.01460219
v 0.02597322 0.04104058 -0.01416020
v 0.02480792 0.04097835 -0.01489605
v 0.02408402 0.04101795 -0.01549095
v 0.02341970 0.04104058 -0.01609540
v 0.02281940 0.04101795 -0.01675719
v 0.02226102 0.04091611 -0.01754561
v 0.02218378 0.04101795 -0.01797804
v 0.02211095 0.04108020 -0.01850126
v 0.02178210 0.04062189 -0.01915110
v 0.02578562 0.04115374 -0.01455441
v 0.02188142 0.03997121 -0.02045079
v 0.01753139 0.02761965 -0.00940104
v 0.02180196 0.04062189 -0.01980095
v 0.02195645 0.04062189 -0.02045079
v 0.01753360 -0.01526850 -0.00940104
v 0.01753139 0.02634658 -0.00940104
v 0.01833916 -0.01569851 -0.01171850
v 0.01825971 -0.01592484 -0.01137686
v 0.01774768 -0.01617945 -0.00968057
v 0.01767043 -0.01526850 -0.00984064
v 0.01777195 -0.01526850 -0.01016556
v 0.01794852 -0.01526850 -0.01070073
v 0.01831267 -0.01626998 -0.01117856
v 0.01826412 -0.01628695 -0.01070073
v 0.01868125 -0.01634353 -0.01070073
v 0.01933011 -0.01634919 -0.01200281
v 0.03026586 -0.01644538 -0.02916636
v 0.03984872 0.02827033 -0.03300092
v 0.03984872 0.04135744 -0.02174809
v 0.03947353 0.04135178 -0.02109825
v 0.02647863 0.04135744 -0.01525203
v 0.02517649 0.04135178 -0.01590188
v 0.02582755 0.04134047 -0.01525203
v 0.02387656 0.04132349 -0.01655172
v 0.02452763 0.04130086 -0.01590188
v 0.02517649 0.04126125 -0.01525203
v 0.02517649 0.04105756 -0.01476226
v 0.02456735 0.04108585 -0.01526637
v 0.02387214 0.04112546 -0.01588754
v 0.02321224 0.04112546 -0.01654456
v 0.02268256 0.04109716 -0.01720157
v 0.02251704 0.04114809 -0.01779885
v 0.02257662 0.04128388 -0.01850126
v 0.02205577 0.04111414 -0.01915110
v 0.02206460 0.04110848 -0.01980095
v 0.02211757 0.03997121 -0.02107197
v 0.01845393 0.02761965 -0.01206493
v 0.01818246 0.02761965 -0.01135057
v 0.01795293 0.02761965 -0.01070312
v 0.01767264 0.02761965 -0.00984303
v 0.01768147 0.02798177 -0.00980242
v 0.02215288 0.04062189 -0.02099552
v 0.01777195 0.02697463 -0.01016795
v 0.02213964 0.04105190 -0.02045079
v 0.02221026 0.04098966 -0.02086889
v 0.01777195 0.02634658 -0.01016795
v 0.01894829 -0.01591918 -0.01310659
v 0.01898802 -0.01624735 -0.01301819
v 0.01818467 -0.01526850 -0.01135296
v 0.01833033 -0.01526850 -0.01174000
v 0.01845393 -0.01526850 -0.01206493
v 0.01869228 -0.01526850 -0.01265504
v 0.01841640 -0.01613419 -0.01160860
v 0.01794852 0.02634658 -0.01070312
v 0.01894167 -0.01627564 -0.01265504
v 0.01933011 -0.01633222 -0.01265504
v 0.01998118 -0.01633788 -0.01395234
v 0.02063004 -0.01633788 -0.01525203
v 0.02130980 -0.01628130 -0.01713706
v 0.02261194 -0.01628695 -0.01909376
v 0.02224337 -0.01624735 -0.01884290
v 0.02355213 -0.01559667 -0.02077810
v 0.02280615 0.02827033 -0.02219725
v 0.02309748 0.02827033 -0.02251978
v 0.02341970 0.02827033 -0.02284471
v 0.02341529 0.02952642 -0.02284709
v 0.03026365 0.01268235 -0.02916636
v 0.03984872 0.02892101 -0.03301525
v 0.03984872 0.02836652 -0.03300331
v 0.03984872 0.04135744 -0.03122341
v 0.02452763 0.04135744 -0.01655172
v 0.02387656 0.04135744 -0.01720157
v 0.02322769 0.04134612 -0.01785141
v 0.02322769 0.04130086 -0.01720157
v 0.02257662 0.04131783 -0.01915110
v 0.02257662 0.04131217 -0.01980095
v 0.02257662 0.04125559 -0.02045079
v 0.02226544 0.03997121 -0.02139689
v 0.02211757 0.02952642 -0.02107197
v 0.01845172 0.02697463 -0.01206493
v 0.01845172 0.02634658 -0.01206493
v 0.01794852 0.02697463 -0.01070312
v 0.02230516 0.04062189 -0.02132044
v 0.02255014 0.04112546 -0.02109108
v 0.02277526 0.04104058 -0.02174809
v 0.02288561 0.04096137 -0.02209213
v 0.01891739 -0.01526850 -0.01317587
v 0.01906306 -0.01526850 -0.01349841
v 0.01926831 -0.01526850 -0.01395234
v 0.01957067 -0.01591918 -0.01444928
v 0.01962364 -0.01626432 -0.01435133
v 0.01956846 -0.01628695 -0.01395234
v 0.02021733 -0.01628130 -0.01525203
v 0.02027913 -0.01625866 -0.01563191
v 0.02154595 -0.01626998 -0.01763161
v 0.02095226 -0.01623603 -0.01687665
v 0.02220364 -0.01591918 -0.01890024
v 0.02240227 -0.01526850 -0.01926817
v 0.02272671 -0.01526850 -0.01970538
v 0.02217053 -0.01526850 -0.01894325
v 0.02162540 -0.01526850 -0.01814528
v 0.02250159 0.02827033 -0.02174570
v 0.02249056 0.02891535 -0.02174570
v 0.02248835 0.02952642 -0.02174809
v 0.02280174 0.02952642 -0.02219964
v 0.02282160 0.02952642 -0.02222353
v 0.02309086 0.02952642 -0.02252456
v 0.02341529 0.03997121 -0.02284709
v 0.03026365 0.01499084 -0.02916636
v 0.03984872 0.03996556 -0.03301525
v 0.03882025 0.04135744 -0.03084831
v 0.03984872 0.04135178 -0.03149816
v 0.02322769 0.04135744 -0.01850126
v 0.02322769 0.04135744 -0.01980095
v 0.02322769 0.04135178 -0.02045079
v 0.02322769 0.04133480 -0.02109825
v 0.02322769 0.04123862 -0.02174809
v 0.02256780 0.04062189 -0.02174809
v 0.02248835 0.03997121 -0.02174809
v 0.02228089 0.02952642 -0.02142317
v 0.02226544 0.02952642 -0.02139689
v 0.02226765 0.02891535 -0.02139689
v 0.02212198 0.02827033 -0.02106719
v 0.02327404 0.04104625 -0.02234538
v 0.02352123 0.04097269 -0.02275153
v 0.02313500 0.04062189 -0.02247678
v 0.02283926 0.04062189 -0.02215186
v 0.01953536 -0.01526850 -0.01451379
v 0.02227427 0.02827033 -0.02139450
v 0.02023057 -0.01591918 -0.01572030
v 0.01970089 -0.01526850 -0.01484110
v 0.02092136 -0.01591918 -0.01693399
v 0.02141132 -0.01526850 -0.01782274
v 0.02280174 0.03997121 -0.02219964
v 0.02309086 0.03997121 -0.02252456
v 0.02345943 0.04062189 -0.02280648
v 0.02416347 0.04041820 -0.02339899
v 0.02381917 0.03997121 -0.02317202
v 0.02414361 0.03997121 -0.02341332
v 0.02939630 0.04029938 -0.02662671
v 0.03908288 0.04046347 -0.03251115
v 0.03984872 0.04062189 -0.03293164
v 0.02712749 0.04135744 -0.02369763
v 0.03947132 0.04134047 -0.03149816
v 0.03427159 0.04135178 -0.02824893
v 0.03102508 0.04135178 -0.02629940
v 0.03984872 0.04132349 -0.03187325
v 0.02387656 0.04135744 -0.02109825
v 0.02387656 0.04134612 -0.02174809
v 0.02387656 0.04125559 -0.02239794
v 0.02387656 0.04105756 -0.02288532
v 0.02467550 0.04103493 -0.02347544
v 0.02424292 0.04085387 -0.02334404
v 0.02391849 0.04062754 -0.02316246
v 0.02108689 -0.01526850 -0.01730669
v 0.02063445 -0.01526850 -0.01655172
v 0.02037182 -0.01526850 -0.01610496
v 0.02019526 -0.01526850 -0.01578003
v 0.01991718 -0.01526850 -0.01525203
v 0.02739012 0.04046347 -0.02536285
v 0.02747399 0.04089914 -0.02531029
v 0.03069844 0.04093874 -0.02727178
v 0.03916675 0.04089348 -0.03245859
v 0.03984872 0.04075768 -0.03286474
v 0.02582755 0.04135178 -0.02304778
v 0.02517649 0.04135744 -0.02239794
v 0.03816918 0.04132915 -0.03084831
v 0.02972514 0.04134047 -0.02564716
v 0.02452763 0.04134047 -0.02239794
v 0.03984872 0.04124993 -0.03216950
v 0.03882025 0.04128388 -0.03149816
v 0.02582755 0.04124993 -0.02369763
v 0.02448569 0.04115374 -0.02309557
v 0.02517649 0.04131217 -0.02304778
v 0.03959933 0.04103493 -0.03258521
v 0.02668609 0.04101230 -0.02474168
v 0.02546340 0.04097269 -0.02404644
v 0.02521842 0.04109151 -0.02369524
v 0.02712749 0.04108585 -0.02487547
v 0.03557153 0.04107453 -0.03005751
v 0.03715837 0.04096137 -0.03119235
v 0.03838105 0.04100098 -0.03188998
v 0.03984872 0.04106322 -0.03268078
v 0.03686925 0.04130652 -0.03019607
v 0.02842742 0.04132349 -0.02499971
v 0.02647863 0.04133480 -0.02369763
v 0.03984872 0.04111980 -0.03255176
v 0.03752032 0.04124427 -0.03084831
v 0.03232280 0.04126691 -0.02759909
v 0.02712749 0.04128954 -0.02434747
v 0.02647200 0.04113111 -0.02437375
v 0.03882025 0.04108020 -0.03202615
f 1 2 15
f 1 15 27
f 1 27 51
f 1 51 58
f 1 58 31
f 1 31 17
f 1 17 3
f 1 3 4
f 1 4 5
f 1 5 6
f 1 6 7
f 1 7 8
f 1 8 9
f 1 9 10
f 1 10 11
f 1 11 12
f 1 12 13
f 1 13 14
f 1 14 2
f 2 14 16
f 2 16 15
f 3 17 38
f 3 38 18
f 3 18 19
f 3 19 4
f 4 19 43
f 4 43 70
f 4 70 105
f 4 105 156
f 4 156 155
f 4 155 197
f 4 197 229
f 4 229 251
f 4 251 270
f 4 270 274
f 4 274 257
f 4 257 234
f 4 234 199
f 4 199 157
f 4 157 106
f 4 106 72
f 4 72 71
f 4 71 44
f 4 44 20
f 4 20 9
f 4 9 8
f 4 8 7
f 4 7 6
f 4 6 5
f 9 20 10
f 10 20 21
f 10 21 11
f 11 21 22
f 11 22 12
f 12 22 23
f 12 23 24
f 12 24 13
f 13 24 14
f 14 24 25
f 14 25 26
f 14 26 16
f 15 16 28
f 15 28 29
f 15 29 30
f 15 30 27
f 16 26 29
f 16 29 28
f 17 31 57
f 17 57 32
f 17 32 33
f 17 33 34
f 17 34 35
f 17 35 36
f 17 36 37
f 17 37 38
f 18 38 39
f 18 39 40
f 18 40 41
f 18 41 42
f 18 42 19
f 19 42 43
f 20 44 21
f 21 44 45
f 21 45 22
f 22 45 23
f 23 45 46
f 23 46 47
f 23 47 24
f 24 47 25
f 25 47 48
f 25 48 26
f 26 48 49
f 26 49 50
f 26 50 29
f 27 30 51
f 29 50 52
f 29 52 30
f 30 52 53
f 30 53 54
f 30 54 51
f 31 55 56
f 31 56 57
f 31 58 55
f 32 57 56
f 32 56 59
f 32 59 60
f 32 60 61
f 32 61 62
f 32 62 33
f 33 62 34
f 34 62 63
f 34 63 35
f 35 63 64
f 35 64 36
f 36 64 65
f 36 65 37
f 37 65 66
f 37 66 38
f 38 66 104
f 38 104 67
f 38 67 68
f 38 68 39
f 39 68 67
f 39 67 104
f 39 104 69
f 39 69 42
f 39 42 41
f 39 41 40
f 42 69 43
f 43 69 70
f 44 71 45
f 45 71 46
f 46 48 47
f 46 71 72
f 46 72 73
f 46 73 74
f 46 74 48
f 48 74 75
f 48 75 76
f 48 76 49
f 49 76 50
f 50 76 77
f 50 77 52
f 51 54 78
f 51 78 79
f 51 79 80
f 51 80 81
f 51 81 82
f 51 82 83
f 51 83 84
f 51 84 85
f 51 85 86
f 51 86 58
f 52 77 53
f 53 77 87
f 53 87 78
f 53 78 54
f 55 88 89
f 55 89 56
f 55 58 90
f 55 90 91
f 55 91 88
f 56 89 93
f 56 93 59
f 58 86 90
f 59 92 60
f 59 93 92
f 60 94 95
f 60 95 96
f 60 96 61
f 60 92 97
f 60 97 98
f 60 98 99
f 60 99 94
f 61 96 63
f 61 63 62
f 63 96 100
f 63 100 101
f 63 101 65
f 63 65 64
f 65 102 103
f 65 103 66
f 65 101 102
f 66 103 104
f 69 105 70
f 69 104 105
f 72 106 107
f 72 107 73
f 73 107 74
f 74 107 106
f 74 106 157
f 74 157 198
f 74 198 230
f 74 230 253
f 74 253 235
f 74 235 201
f 74 201 200
f 74 200 159
f 74 159 158
f 74 158 108
f 74 108 75
f 75 108 76
f 76 108 158
f 76 158 109
f 76 109 110
f 76 110 77
f 77 110 111
f 77 111 112
f 77 112 113
f 77 113 87
f 78 87 114
f 78 114 79
f 79 114 80
f 80 114 115
f 80 115 116
f 80 116 81
f 81 116 117
f 81 117 82
f 82 117 118
f 82 118 83
f 83 118 84
f 84 118 119
f 84 119 85
f 85 119 120
f 85 120 121
f 85 121 86
f 86 121 122
f 86 122 90
f 87 113 115
f 87 115 114
f 88 123 124
f 88 124 125
f 88 125 126
f 88 126 127
f 88 127 128
f 88 128 89
f 88 91 129
f 88 129 123
f 89 128 127
f 89 127 130
f 89 130 133
f 89 133 93
f 90 122 131
f 90 131 132
f 90 132 91
f 91 132 129
f 92 93 97
f 93 133 98
f 93 98 97
f 94 134 135
f 94 135 95
f 94 99 136
f 94 136 137
f 94 137 138
f 94 138 139
f 94 139 134
f 95 135 140
f 95 140 96
f 96 140 100
f 98 133 141
f 98 141 99
f 99 141 125
f 99 125 136
f 100 140 135
f 100 135 142
f 100 142 143
f 100 143 102
f 100 102 101
f 102 143 103
f 103 143 144
f 103 144 104
f 104 144 145
f 104 145 146
f 104 146 147
f 104 147 148
f 104 148 149
f 104 149 150
f 104 150 151
f 104 151 152
f 104 152 153
f 104 153 154
f 104 154 155
f 104 155 156
f 104 156 105
f 109 158 111
f 109 111 110
f 111 158 159
f 111 159 160
f 111 160 161
f 111 161 117
f 111 117 116
f 111 116 112
f 112 116 113
f 113 116 115
f 117 161 118
f 118 161 119
f 119 161 120
f 120 161 160
f 120 160 162
f 120 162 121
f 121 162 163
f 121 163 122
f 122 163 164
f 122 164 131
f 123 129 165
f 123 165 208
f 123 208 166
f 123 166 168
f 123 168 167
f 123 167 124
f 124 167 125
f 125 167 168
f 125 168 137
f 125 137 136
f 125 141 169
f 125 169 126
f 126 169 130
f 126 130 127
f 129 132 170
f 129 170 165
f 130 169 141
f 130 141 133
f 131 164 171
f 131 171 132
f 132 171 172
f 132 172 173
f 132 173 170
f 134 139 174
f 134 174 175
f 134 175 176
f 134 176 177
f 134 177 135
f 135 178 142
f 135 177 178
f 137 168 138
f 138 168 139
f 139 168 166
f 139 166 174
f 142 179 143
f 142 178 179
f 143 179 144
f 144 179 145
f 145 179 180
f 145 180 146
f 146 180 181
f 146 181 182
f 146 182 147
f 147 182 148
f 148 182 183
f 148 183 184
f 148 184 149
f 149 184 185
f 149 185 186
f 149 186 150
f 150 186 185
f 150 185 187
f 150 187 188
f 150 188 189
f 150 189 190
f 150 190 191
f 150 191 192
f 150 192 193
f 150 193 194
f 150 194 151
f 151 194 152
f 152 194 153
f 153 194 222
f 153 222 195
f 153 195 196
f 153 196 154
f 154 196 197
f 154 197 155
f 157 199 198
f 159 200 160
f 160 200 162
f 162 200 201
f 162 201 202
f 162 202 163
f 163 202 203
f 163 203 164
f 164 204 171
f 164 203 204
f 165 170 205
f 165 205 206
f 165 206 207
f 165 207 208
f 166 208 209
f 166 209 210
f 166 210 174
f 170 173 205
f 171 204 172
f 172 211 173
f 172 204 211
f 173 211 212
f 173 212 213
f 173 213 214
f 173 214 205
f 174 210 175
f 175 210 176
f 176 215 177
f 176 210 209
f 176 209 216
f 176 216 215
f 177 217 181
f 177 181 178
f 177 215 218
f 177 218 217
f 178 181 180
f 178 180 179
f 181 183 182
f 181 217 183
f 183 217 219
f 183 219 184
f 184 219 220
f 184 220 188
f 184 188 187
f 184 187 185
f 188 220 189
f 189 220 216
f 189 216 190
f 190 209 191
f 190 216 209
f 191 209 207
f 191 207 206
f 191 206 221
f 191 221 192
f 192 221 193
f 193 221 222
f 193 222 194
f 195 222 223
f 195 223 224
f 195 224 225
f 195 225 196
f 196 225 226
f 196 226 224
f 196 224 227
f 196 227 228
f 196 228 197
f 197 228 229
f 198 199 231
f 198 231 232
f 198 232 233
f 198 233 230
f 199 234 231
f 201 235 202
f 202 235 236
f 202 236 203
f 203 236 237
f 203 237 204
f 204 237 211
f 205 214 206
f 206 214 221
f 207 209 208
f 211 237 238
f 211 238 212
f 212 238 239
f 212 239 240
f 212 240 241
f 212 241 223
f 212 223 213
f 213 223 222
f 213 222 214
f 214 222 221
f 215 216 218
f 216 220 242
f 216 242 243
f 216 243 244
f 216 244 245
f 216 245 246
f 216 246 218
f 217 218 246
f 217 246 245
f 217 245 244
f 217 244 219
f 219 244 243
f 219 243 242
f 219 242 220
f 223 241 224
f 224 241 240
f 224 240 247
f 224 247 227
f 224 226 225
f 227 247 228
f 228 247 248
f 228 248 249
f 228 249 250
f 228 250 229
f 229 250 251
f 230 252 253
f 230 233 252
f 231 234 254
f 231 254 232
f 232 254 233
f 233 254 255
f 233 255 256
f 233 256 252
f 234 257 258
f 234 258 254
f 235 253 236
f 236 253 252
f 236 252 256
f 236 256 237
f 237 259 260
f 237 260 238
f 237 256 261
f 237 261 259
f 238 260 239
f 239 262 263
f 239 263 264
f 239 264 240
f 239 260 265
f 239 265 266
f 239 266 267
f 239 267 262
f 240 264 248
f 240 248 247
f 248 264 249
f 249 268 250
f 249 264 268
f 250 268 269
f 250 269 262
f 250 262 251
f 251 262 270
f 254 258 271
f 254 271 272
f 254 272 255
f 255 273 256
f 255 272 273
f 256 273 261
f 257 274 258
f 258 274 275
f 258 275 276
f 258 276 277
f 258 277 272
f 258 272 271
f 259 275 278
f 259 278 265
f 259 265 260
f 259 261 277
f 259 277 276
f 259 276 275
f 261 273 272
f 261 272 277
f 262 269 263
f 262 267 279
f 262 279 270
f 263 269 264
f 264 269 268
f 265 278 266
f 266 278 267
f 267 278 279
f 270 279 274
f 274 279 275
f 275 279 278
