# https://github.com/mikedh/trimesh
v 0.00605845 0.00927484 -0.02859489
v 0.01867659 -0.02685411 -0.01325553
v 0.01932811 -0.02685411 -0.01328814
v 0.01997520 -0.02685411 -0.01337063
v 0.03026206 0.00079409 -0.03013535
v 0.00605845 0.00927484 -0.03150699
v -0.00602341 0.00927484 -0.02866779
v 0.01802951 -0.02685411 -0.01327663
v 0.01365504 -0.02837024 -0.01655706
v 0.01645612 -0.02841082 -0.01655706
v -0.00667050 0.00927484 -0.02867738
v 0.02063114 -0.02685411 -0.01355480
v 0.02127822 -0.02685411 -0.01388668
v 0.02192531 -0.02685411 -0.01431256
v 0.03791627 -0.02685411 -0.02654031
v 0.03026206 0.00079409 -0.03284602
v 0.00605845 0.00876947 -0.03164895
v -0.00602341 0.00927484 -0.03150699
v 0.01737799 -0.02685411 -0.01332459
v 0.02822331 -0.02685411 -0.02654031
v 0.01672648 -0.02685411 -0.01338598
v 0.01645612 -0.02685411 -0.01342051
v -0.00700291 -0.01820736 -0.02401380
v -0.00718019 -0.01820736 -0.02436678
v -0.00733531 -0.01820736 -0.02500177
v -0.00735747 -0.01820736 -0.02565018
v -0.00733975 -0.01820736 -0.02630051
v -0.00720235 -0.01820736 -0.02694509
v -0.00703393 -0.01820736 -0.02730958
v -0.00671925 0.00927484 -0.02869465
v 0.03026206 -0.01644407 -0.03122883
v 0.03026206 -0.01516034 -0.03147054
v 0.03026206 -0.01451110 -0.03158948
v 0.03026206 -0.01396883 -0.03168540
v 0.03026206 -0.01302447 -0.03184271
v 0.03026206 -0.01255967 -0.03191752
v 0.03026206 -0.01191043 -0.03201536
v 0.03026206 -0.01125750 -0.03210553
v 0.03026206 -0.01060457 -0.03218994
v 0.03026206 -0.00995901 -0.03226859
v 0.03026206 -0.00942412 -0.03233190
v 0.03026206 -0.00825843 -0.03245467
v 0.03026206 -0.00748377 -0.03252757
v 0.03026206 -0.00683452 -0.03258320
v 0.03026206 -0.00672017 -0.03259280
v 0.03026206 -0.00541799 -0.03268104
v 0.03026206 -0.00477244 -0.03271941
v 0.03026206 -0.00423386 -0.03274627
v 0.03026206 -0.00358093 -0.03277696
v 0.03026206 -0.00347026 -0.03278080
v 0.03026206 -0.00282470 -0.03280190
v 0.03026206 -0.00163319 -0.03283067
v 0.03026206 -0.00098395 -0.03284410
v 0.03026206 -0.00033102 -0.03284986
v 0.02650809 0.00101174 -0.03284410
v 0.00605845 0.00422107 -0.03257361
v 0.00605845 0.00485925 -0.03247961
v 0.00605845 0.00524289 -0.03242206
v 0.00605845 0.00551956 -0.03237794
v 0.00605845 0.00616880 -0.03226091
v 0.00605845 0.00681805 -0.03212471
v 0.00605845 0.00746729 -0.03198467
v 0.00605845 0.00767387 -0.03193671
v 0.00605845 0.00795791 -0.03186765
v 0.00605845 0.00809809 -0.03183120
v 0.02192088 0.00031823 -0.03285369
v -0.00602341 0.00876947 -0.03164895
v -0.00651981 0.00927484 -0.03150507
v 0.03025319 -0.01644407 -0.03122883
v -0.00666607 -0.01708963 -0.02804624
v -0.00666607 -0.01656950 -0.02835318
v -0.00666607 -0.01621905 -0.02855461
v -0.00700733 -0.01496483 -0.02923371
v -0.00698961 -0.01364421 -0.02987253
v -0.00715802 0.00927484 -0.02891334
v -0.00720678 0.00927484 -0.02904763
v -0.00735304 0.00927484 -0.02954833
v -0.00735747 -0.01786798 -0.02565018
v -0.00735747 -0.01786798 -0.02630051
v -0.00735747 -0.01721874 -0.02695084
v -0.00729099 -0.01786798 -0.02695084
v -0.00710928 -0.01786798 -0.02741317
v -0.00707825 -0.01702323 -0.02800595
v -0.00666607 -0.00617421 -0.03224941
v -0.00601898 -0.00552497 -0.03237794
v -0.00666607 -0.00473186 -0.03249879
v -0.00666607 -0.00423386 -0.03257361
v -0.00666607 -0.00358093 -0.03265035
v -0.00666607 -0.00293168 -0.03270981
v -0.00666607 -0.00227875 -0.03276737
v -0.00666607 -0.00162950 -0.03280765
v 0.02906540 -0.00163319 -0.03283067
v -0.00602341 -0.00032733 -0.03284602
v 0.02061784 -0.00098395 -0.03284218
v 0.01997076 -0.00032733 -0.03285369
v 0.02192088 -0.00032733 -0.03285369
v 0.02252807 0.00101174 -0.03284410
v 0.00605845 0.00226965 -0.03276929
v 0.00605845 0.00318818 -0.03268679
v 0.00605845 0.00356814 -0.03265226
v 0.00605845 0.00384480 -0.03261965
v -0.00667050 0.00422107 -0.03257361
v -0.00602341 0.00504738 -0.03245084
v -0.00602341 0.00551956 -0.03237794
v -0.00602341 0.00616880 -0.03226091
v -0.00667050 0.00681805 -0.03212471
v -0.00667050 0.00746729 -0.03198467
v -0.00667050 0.00795791 -0.03186765
v -0.00602341 0.00828622 -0.03177940
v 0.02061784 0.00031823 -0.03285369
v -0.00667050 0.00927484 -0.03150316
v -0.00666607 -0.01190674 -0.03060727
v -0.00666607 -0.01136816 -0.03080870
v -0.00666607 -0.01072261 -0.03103507
v -0.00666607 -0.01003648 -0.03127103
v -0.00666607 -0.00987048 -0.03132283
v -0.00666607 -0.00942043 -0.03146287
v -0.00666607 -0.00796701 -0.03186765
v -0.00666607 -0.00747639 -0.03198467
v -0.00666607 -0.00682346 -0.03212471
v -0.00710041 -0.01579483 -0.02868122
v -0.00708711 -0.01462176 -0.02931620
v -0.00707382 -0.01331958 -0.02994735
v -0.00706495 -0.01183665 -0.03057850
v -0.00735747 0.00927484 -0.02969796
v -0.00735747 -0.01592025 -0.02760117
v -0.00734861 -0.01396883 -0.02889800
v -0.00734417 -0.01527101 -0.02824958
v -0.00732645 -0.01656950 -0.02760117
v -0.00714916 -0.01656950 -0.02813832
v -0.00718905 -0.01722980 -0.02762995
v -0.00702063 -0.00467284 -0.03248920
v -0.00706495 -0.00423386 -0.03252181
v -0.00710928 -0.00358093 -0.03256210
v -0.00667050 -0.00056342 -0.03283643
v -0.00713586 -0.00293168 -0.03259088
v -0.00715802 -0.00227875 -0.03261965
v -0.00716689 -0.00162950 -0.03263884
v -0.00667050 -0.00032733 -0.03284218
v -0.00602341 0.00031823 -0.03284602
v -0.00667050 0.00162409 -0.03280765
v -0.00667050 0.00226965 -0.03276929
v -0.00667050 0.00356814 -0.03265226
v -0.00667050 0.00472276 -0.03249879
v -0.00702507 0.00466374 -0.03249112
v -0.00667050 0.00504738 -0.03244508
v -0.00667050 0.00616880 -0.03224941
v -0.00703836 0.00790627 -0.03185230
v -0.00703393 0.00927484 -0.03139189
v -0.00707382 -0.00994057 -0.03123842
v -0.00703393 -0.00791168 -0.03185230
v -0.00726883 -0.01462176 -0.02889800
v -0.00715802 -0.01267034 -0.03007780
v -0.00713586 -0.01136816 -0.03066482
v -0.00735747 0.00927484 -0.03034829
v -0.00735747 -0.01072261 -0.03019866
v -0.00733975 -0.01267034 -0.02954641
v -0.00709598 -0.00747639 -0.03190409
v -0.00715360 -0.00682346 -0.03197316
v -0.00717132 -0.00617421 -0.03203071
v -0.00729099 -0.00358093 -0.03214773
v -0.00731316 -0.00293168 -0.03214773
v -0.00733531 -0.00227875 -0.03214773
v -0.00734861 -0.00162950 -0.03214773
v -0.00717132 -0.00098026 -0.03264843
v -0.00667050 0.00031823 -0.03284218
v -0.00717132 -0.00056342 -0.03265418
v -0.00717132 -0.00032733 -0.03265610
v -0.00716689 0.00162409 -0.03264075
v -0.00715802 0.00226965 -0.03261965
v -0.00713586 0.00292258 -0.03259280
v -0.00711371 0.00356814 -0.03256210
v -0.00706495 0.00422107 -0.03252373
v -0.00715360 0.00681805 -0.03197508
v -0.00709598 0.00746729 -0.03190409
v -0.00715360 0.00927484 -0.03133626
v -0.00714473 -0.00942043 -0.03131707
v -0.00725110 -0.01331958 -0.02954641
v -0.00731316 -0.01136816 -0.03019866
v -0.00735747 0.00876947 -0.03084707
v -0.00733088 0.00927484 -0.03084707
v -0.00735747 -0.00877488 -0.03084707
v -0.00732202 -0.00942043 -0.03084707
v -0.00727327 -0.00747639 -0.03149740
v -0.00733531 -0.00682346 -0.03149740
v -0.00735747 -0.00617421 -0.03149740
v -0.00735747 -0.00032733 -0.03214773
v -0.00717132 0.00031823 -0.03265610
v -0.00717132 0.00097116 -0.03264843
v -0.00734861 0.00162409 -0.03214773
v -0.00733531 0.00226965 -0.03214773
v -0.00731316 0.00292258 -0.03214773
v -0.00729099 0.00356814 -0.03214773
v -0.00727327 0.00746729 -0.03149740
v -0.00733531 0.00681805 -0.03149740
v -0.00729099 0.00927484 -0.03097560
v -0.00735747 0.00616880 -0.03149740
v -0.00735747 0.00031823 -0.03214773
f 1 2 3
f 1 3 4
f 1 4 5
f 1 5 16
f 1 16 6
f 1 6 18
f 1 18 68
f 1 68 111
f 1 111 149
f 1 149 176
f 1 176 196
f 1 196 181
f 1 181 155
f 1 155 125
f 1 125 77
f 1 77 76
f 1 76 75
f 1 75 30
f 1 30 11
f 1 11 7
f 1 7 2
f 2 8 9
f 2 9 10
f 2 10 3
f 2 7 11
f 2 11 8
f 3 10 4
f 4 10 12
f 4 12 5
f 5 12 13
f 5 13 14
f 5 14 15
f 5 15 16
f 6 16 17
f 6 17 67
f 6 67 18
f 8 19 9
f 8 11 19
f 9 20 10
f 9 19 21
f 9 21 22
f 9 22 23
f 9 23 24
f 9 24 25
f 9 25 26
f 9 26 27
f 9 27 28
f 9 28 29
f 9 29 20
f 10 20 15
f 10 15 14
f 10 14 13
f 10 13 12
f 11 30 22
f 11 22 21
f 11 21 19
f 15 20 69
f 15 69 31
f 15 31 32
f 15 32 33
f 15 33 34
f 15 34 35
f 15 35 36
f 15 36 37
f 15 37 38
f 15 38 39
f 15 39 40
f 15 40 41
f 15 41 42
f 15 42 43
f 15 43 44
f 15 44 45
f 15 45 46
f 15 46 47
f 15 47 48
f 15 48 49
f 15 49 50
f 15 50 51
f 15 51 52
f 15 52 53
f 15 53 54
f 15 54 16
f 16 55 56
f 16 56 57
f 16 57 58
f 16 58 59
f 16 59 60
f 16 60 61
f 16 61 62
f 16 62 63
f 16 63 64
f 16 64 65
f 16 65 17
f 16 54 66
f 16 66 55
f 17 65 67
f 18 67 68
f 20 29 70
f 20 70 71
f 20 71 72
f 20 72 73
f 20 73 74
f 20 74 69
f 22 30 23
f 23 30 75
f 23 75 24
f 24 75 76
f 24 76 77
f 24 77 25
f 25 77 78
f 25 78 26
f 26 78 125
f 26 125 155
f 26 155 180
f 26 180 197
f 26 197 198
f 26 198 187
f 26 187 186
f 26 186 182
f 26 182 156
f 26 156 126
f 26 126 80
f 26 80 79
f 26 79 27
f 27 79 80
f 27 80 81
f 27 81 28
f 28 81 82
f 28 82 29
f 29 82 83
f 29 83 70
f 31 69 32
f 32 69 84
f 32 84 33
f 33 84 34
f 34 84 85
f 34 85 86
f 34 86 35
f 35 86 36
f 36 86 37
f 37 86 87
f 37 87 38
f 38 87 39
f 39 87 40
f 40 87 41
f 41 87 88
f 41 88 42
f 42 88 43
f 43 88 89
f 43 89 90
f 43 90 44
f 44 90 45
f 45 90 46
f 46 90 91
f 46 91 47
f 47 91 48
f 48 91 49
f 49 91 50
f 50 91 51
f 51 92 52
f 51 91 93
f 51 93 92
f 52 92 53
f 53 92 94
f 53 94 95
f 53 95 96
f 53 96 54
f 54 96 66
f 55 66 110
f 55 110 97
f 55 97 142
f 55 142 98
f 55 98 99
f 55 99 100
f 55 100 101
f 55 101 56
f 56 101 102
f 56 102 57
f 57 102 103
f 57 103 58
f 58 103 104
f 58 104 59
f 59 104 105
f 59 105 60
f 60 105 106
f 60 106 61
f 61 106 107
f 61 107 62
f 62 107 63
f 63 107 108
f 63 108 64
f 64 108 65
f 65 108 109
f 65 109 67
f 66 96 95
f 66 95 110
f 67 109 108
f 67 108 68
f 68 108 111
f 69 74 112
f 69 112 113
f 69 113 114
f 69 114 115
f 69 115 116
f 69 116 117
f 69 117 118
f 69 118 119
f 69 119 120
f 69 120 84
f 70 83 71
f 71 83 73
f 71 73 72
f 73 83 121
f 73 121 122
f 73 122 123
f 73 123 74
f 74 123 124
f 74 124 112
f 77 125 78
f 80 126 127
f 80 127 128
f 80 128 129
f 80 129 81
f 81 129 130
f 81 130 131
f 81 131 82
f 82 131 130
f 82 130 83
f 83 130 121
f 84 120 132
f 84 132 86
f 84 86 85
f 86 132 87
f 87 132 88
f 88 132 133
f 88 133 89
f 89 133 90
f 90 133 134
f 90 134 91
f 91 135 93
f 91 134 136
f 91 136 137
f 91 137 138
f 91 138 135
f 92 93 94
f 93 135 139
f 93 139 166
f 93 166 140
f 93 140 95
f 93 95 94
f 95 140 110
f 97 110 140
f 97 140 141
f 97 141 142
f 98 142 99
f 99 142 143
f 99 143 100
f 100 143 101
f 101 143 102
f 102 144 103
f 102 143 145
f 102 145 144
f 103 144 104
f 104 144 146
f 104 146 147
f 104 147 105
f 105 147 106
f 106 147 145
f 106 145 148
f 106 148 107
f 107 148 108
f 108 148 111
f 111 148 149
f 112 124 113
f 113 124 114
f 114 124 150
f 114 150 115
f 115 150 116
f 116 150 117
f 117 150 151
f 117 151 118
f 118 151 119
f 119 151 120
f 120 151 132
f 121 130 152
f 121 152 122
f 122 152 153
f 122 153 123
f 123 153 154
f 123 154 124
f 124 154 150
f 126 156 127
f 127 156 157
f 127 157 152
f 127 152 128
f 128 152 129
f 129 152 130
f 132 151 158
f 132 158 159
f 132 159 133
f 133 159 134
f 134 159 160
f 134 160 161
f 134 161 136
f 135 138 139
f 136 161 137
f 137 161 162
f 137 162 163
f 137 163 138
f 138 163 164
f 138 164 165
f 138 165 139
f 139 165 167
f 139 167 168
f 139 168 188
f 139 188 166
f 140 166 141
f 141 166 169
f 141 169 170
f 141 170 171
f 141 171 172
f 141 172 142
f 142 172 173
f 142 173 145
f 142 145 143
f 144 145 146
f 145 173 174
f 145 174 175
f 145 175 148
f 145 147 146
f 148 175 176
f 148 176 149
f 150 154 177
f 150 177 151
f 151 177 158
f 152 157 178
f 152 178 153
f 153 178 179
f 153 179 154
f 154 179 177
f 155 181 180
f 156 182 183
f 156 183 179
f 156 179 157
f 157 179 178
f 158 177 159
f 159 177 184
f 159 184 185
f 159 185 161
f 159 161 160
f 161 185 186
f 161 186 162
f 162 186 163
f 163 186 164
f 164 186 187
f 164 187 165
f 165 187 167
f 166 188 189
f 166 189 169
f 167 187 168
f 168 187 198
f 168 198 188
f 169 189 190
f 169 190 191
f 169 191 170
f 170 191 192
f 170 192 193
f 170 193 171
f 171 193 172
f 172 193 174
f 172 174 173
f 174 194 176
f 174 176 175
f 174 193 195
f 174 195 194
f 176 194 196
f 177 179 183
f 177 183 184
f 180 181 195
f 180 195 197
f 181 196 195
f 182 186 185
f 182 185 183
f 183 185 184
f 188 198 189
f 189 198 190
f 190 198 197
f 190 197 191
f 191 197 192
f 192 197 195
f 192 195 193
f 194 195 196
