# https://github.com/mikedh/trimesh
v 0.02519651 -0.04127723 -0.00361071
v 0.02519651 -0.04127613 -0.00367284
v 0.02614117 -0.04127613 -0.00316957
v 0.03067816 -0.04127503 -0.00065010
v 0.03099967 -0.04127613 -0.00032701
v 0.03017373 -0.04127723 -0.00065010
v 0.02519651 -0.04127723 0.02304410
v 0.02519651 -0.04126291 -0.00411398
v 0.02563731 -0.04127062 -0.00367284
v 0.03099967 -0.04126621 -0.00065010
v 0.03099967 -0.04127723 -0.00014372
v 0.03099967 -0.04127723 0.02304410
v 0.02519651 -0.04127613 0.02354738
v 0.02519651 -0.04125189 -0.00417922
v 0.03099967 -0.04123758 -0.00083339
v 0.03099967 -0.04125740 0.02354738
v 0.02765388 -0.04127062 0.02354738
v 0.02519651 -0.04124639 0.02405065
v 0.02519651 -0.04113844 -0.00461726
v 0.03067816 -0.04119682 -0.00115337
v 0.03099967 -0.04110210 -0.00117823
v 0.03099967 -0.04117810 0.02405065
v 0.02714945 -0.04122546 0.02405065
v 0.02664559 -0.04123097 0.02405065
v 0.02563731 -0.04124198 0.02405065
v 0.02519651 -0.04113954 0.02455392
v 0.02519651 -0.04110650 -0.00467939
v 0.03099967 -0.04101508 -0.00133666
v 0.03099967 -0.04101178 0.02455392
v 0.02519651 -0.04111642 0.02461295
v 0.02519651 -0.04092916 -0.00499005
v 0.03099967 -0.04091595 -0.00147957
v 0.03099967 -0.04092366 0.02475275
v 0.02519651 -0.04094899 0.02502302
v 0.02519651 -0.04090603 -0.00501801
v 0.02539589 -0.04084545 -0.00494345
v 0.03099967 -0.04084986 -0.00151374
v 0.03099967 -0.04087079 0.02486769
v 0.02519651 -0.04081351 0.02527466
v 0.02519651 -0.04065490 -0.00513917
v 0.03099967 -0.04057009 -0.00160383
v 0.03099967 -0.04070446 0.02511933
v 0.03099967 -0.04054365 0.02532747
v 0.03099967 -0.04045223 0.02544552
v 0.02519651 -0.04056238 0.02556979
v 0.02519651 -0.04056017 -0.00516091
v 0.03099967 -0.04007993 -0.00164422
v 0.02519651 -0.04007993 -0.00520751
v 0.03099967 -0.04029031 0.02560707
v 0.02541748 -0.04033327 0.02581832
v 0.02519651 -0.04051832 0.02561949
v 0.03099967 -0.03957546 -0.00164732
v 0.02519651 -0.03151051 -0.00521062
v 0.03099967 -0.03251835 -0.00165043
v 0.03099967 -0.04019889 0.02569716
v 0.03099967 -0.04003808 0.02583074
v 0.03099967 -0.03994666 0.02590530
v 0.02519651 -0.04031124 0.02584317
v 0.02519651 -0.04033878 0.02582143
v 0.02519651 -0.03100604 -0.00520751
v 0.03099967 -0.03100604 -0.00165043
v 0.03099967 -0.03971204 0.02604821
v 0.02519651 -0.04002596 0.02603889
v 0.02519651 -0.04008654 0.02600161
v 0.02519651 -0.03054562 -0.00509257
v 0.02544134 -0.03062163 -0.00497762
v 0.03099967 -0.03052470 -0.00154481
v 0.03099967 -0.03957546 0.02612898
v 0.02519651 -0.03967239 0.02625014
v 0.02519651 -0.03039803 -0.00499316
v 0.03097581 -0.03024162 -0.00142054
v 0.03099967 -0.03024933 -0.00141122
v 0.03099967 -0.03027686 -0.00142675
v 0.03099967 -0.03924722 0.02629363
v 0.02519651 -0.03964045 0.02626567
v 0.02519651 -0.03027246 -0.00488753
v 0.02529932 -0.03028568 -0.00485025
v 0.03099967 -0.03024052 -0.00138326
v 0.02590259 -0.03024492 -0.00444018
v 0.02563731 -0.03023941 -0.00449920
v 0.03099967 -0.03899499 0.02637751
v 0.02519651 -0.03942015 0.02635887
v 0.02519651 -0.03023501 -0.00465764
v 0.03099967 -0.03023060 -0.00113784
v 0.03099967 -0.03872513 0.02643964
v 0.02563731 -0.03907209 0.02644275
v 0.02519651 -0.03907209 0.02644896
v 0.02519651 -0.03022399 -0.00417922
v 0.02563731 -0.03022620 -0.00417922
v 0.03067816 -0.03022399 -0.00115337
v 0.03099967 -0.03002573 0.00939672
v 0.03099967 -0.03856762 0.02647381
v 0.02519651 -0.03900820 0.02645828
v 0.03067816 -0.03856762 0.02647692
v 0.02519651 -0.03002573 0.02035066
v 0.03099967 -0.03002573 0.02652663
v 0.03099967 -0.03824599 0.02650488
v 0.02714945 -0.03856762 0.02650488
v 0.02664559 -0.03856762 0.02650799
v 0.02519651 -0.03856762 0.02651420
v 0.02519651 -0.03002573 0.02652663
v 0.03099967 -0.03755867 0.02652663
v 0.03099967 -0.03806314 0.02652041
v 0.02519651 -0.03850373 0.02651731
v 0.02519651 -0.03806314 0.02652663
v 0.02664559 -0.03806314 0.02652663
v 0.02916545 -0.03806314 0.02652352
f 1 2 3
f 1 3 4
f 1 4 5
f 1 5 6
f 1 6 11
f 1 11 12
f 1 12 7
f 1 7 13
f 1 13 18
f 1 18 26
f 1 26 30
f 1 30 34
f 1 34 39
f 1 39 45
f 1 45 51
f 1 51 59
f 1 59 58
f 1 58 64
f 1 64 63
f 1 63 69
f 1 69 75
f 1 75 82
f 1 82 87
f 1 87 93
f 1 93 100
f 1 100 104
f 1 104 105
f 1 105 101
f 1 101 95
f 1 95 88
f 1 88 83
f 1 83 76
f 1 76 70
f 1 70 65
f 1 65 60
f 1 60 53
f 1 53 48
f 1 48 46
f 1 46 40
f 1 40 35
f 1 35 31
f 1 31 27
f 1 27 19
f 1 19 14
f 1 14 8
f 1 8 2
f 2 8 9
f 2 9 3
f 3 9 4
f 4 10 5
f 4 9 8
f 4 8 10
f 5 10 15
f 5 15 21
f 5 21 28
f 5 28 32
f 5 32 37
f 5 37 41
f 5 41 47
f 5 47 52
f 5 52 54
f 5 54 61
f 5 61 67
f 5 67 73
f 5 73 72
f 5 72 78
f 5 78 84
f 5 84 91
f 5 91 96
f 5 96 102
f 5 102 103
f 5 103 97
f 5 97 92
f 5 92 85
f 5 85 81
f 5 81 74
f 5 74 68
f 5 68 62
f 5 62 57
f 5 57 56
f 5 56 55
f 5 55 49
f 5 49 44
f 5 44 43
f 5 43 42
f 5 42 38
f 5 38 33
f 5 33 29
f 5 29 22
f 5 22 16
f 5 16 12
f 5 12 11
f 5 11 6
f 7 12 13
f 8 14 15
f 8 15 10
f 12 16 17
f 12 17 13
f 13 17 18
f 14 19 15
f 15 20 21
f 15 19 20
f 16 22 23
f 16 23 24
f 16 24 25
f 16 25 18
f 16 18 17
f 18 25 26
f 19 27 21
f 19 21 20
f 21 27 28
f 22 26 23
f 22 29 26
f 23 26 24
f 24 26 25
f 26 29 30
f 27 31 28
f 28 31 32
f 29 33 34
f 29 34 30
f 31 35 32
f 32 35 36
f 32 36 37
f 33 38 34
f 34 38 39
f 35 40 36
f 36 40 37
f 37 40 41
f 38 42 39
f 39 42 43
f 39 43 44
f 39 44 45
f 40 46 41
f 41 46 48
f 41 48 47
f 44 49 50
f 44 50 51
f 44 51 45
f 47 48 52
f 48 53 54
f 48 54 52
f 49 55 50
f 50 56 57
f 50 57 58
f 50 58 59
f 50 59 51
f 50 55 56
f 53 60 61
f 53 61 54
f 57 62 63
f 57 63 64
f 57 64 58
f 60 65 66
f 60 66 61
f 61 66 67
f 62 68 69
f 62 69 63
f 65 70 71
f 65 71 72
f 65 72 73
f 65 73 67
f 65 67 66
f 68 74 69
f 69 74 75
f 70 76 77
f 70 77 71
f 71 78 72
f 71 77 79
f 71 79 80
f 71 80 78
f 74 81 82
f 74 82 75
f 76 83 79
f 76 79 77
f 78 80 83
f 78 83 84
f 79 83 80
f 81 85 86
f 81 86 82
f 82 86 87
f 83 88 89
f 83 89 84
f 84 89 90
f 84 90 91
f 85 92 86
f 86 92 87
f 87 92 94
f 87 94 93
f 88 95 91
f 88 91 89
f 89 91 90
f 91 95 101
f 91 101 96
f 92 97 94
f 93 94 98
f 93 98 99
f 93 99 100
f 94 97 98
f 96 101 105
f 96 105 106
f 96 106 102
f 97 103 98
f 98 103 99
f 99 103 100
f 100 103 104
f 102 106 107
f 102 107 103
f 103 107 104
f 104 107 106
f 104 106 105
