# https://github.com/mikedh/trimesh
v 0.03099951 -0.02052078 0.02652663
v 0.02928632 -0.02052078 0.02652663
v 0.03099951 -0.03002463 0.02652663
v 0.03099951 -0.01505712 0.02652495
v 0.02928632 -0.03002463 0.02652663
v 0.03067803 -0.01537935 0.02652495
v 0.03017393 -0.01688955 0.02652495
v 0.02967018 -0.01840153 0.02652495
v 0.02928632 -0.01979311 0.02652495
v 0.03099951 -0.03002463 0.00939425
v 0.03099951 -0.01455254 0.02651992
v 0.02928632 -0.03002463 0.01386852
v 0.03067803 -0.01487299 0.02650986
v 0.02928632 -0.01929030 0.02652327
v 0.02928632 -0.02646600 0.01459132
v 0.03099951 -0.02498235 0.01048934
v 0.03099951 -0.01356462 0.02648302
v 0.03099951 -0.01309722 0.02646458
v 0.02928632 -0.01878572 0.02648973
v 0.02928632 -0.02596318 0.01475734
v 0.03099951 -0.01688955 0.01316585
v 0.03099951 -0.01285821 0.02644613
v 0.02928632 -0.01799255 0.02640756
v 0.03084891 -0.01285821 0.02639917
v 0.02928632 -0.02573656 0.01498038
v 0.03099951 -0.01639559 0.01361194
v 0.03099951 -0.01654962 0.01346772
v 0.03099951 -0.01256962 0.02641427
v 0.02937369 -0.01752161 0.02636563
v 0.02928632 -0.01794829 0.02637737
v 0.03089469 -0.01244923 0.02635892
v 0.03099951 -0.01238726 0.02638911
v 0.02928632 -0.02040747 0.02153080
v 0.03099951 -0.01618668 0.01398424
v 0.02928632 -0.02004098 0.02202384
v 0.02928632 -0.01989934 0.02225192
v 0.02928632 -0.01972584 0.02253869
v 0.02928632 -0.01798724 0.02555731
v 0.02928632 -0.01776062 0.02617613
v 0.03099951 -0.01193757 0.02606880
v 0.03099951 -0.01592996 0.01447560
v 0.02928632 -0.01775177 0.02606880
v 0.03099951 -0.01569803 0.01497368
v 0.03099951 -0.01588747 0.01456281
v 0.03099951 -0.01202432 0.02556402
v 0.03099951 -0.01417189 0.01898677
v 0.03099951 -0.01433477 0.01850714
v 0.03099951 -0.01451182 0.01800236
v 0.03099951 -0.01469949 0.01748752
v 0.03099951 -0.01506597 0.01649305
v 0.03099951 -0.01525541 0.01600001
v 0.03099951 -0.01539174 0.01567802
v 0.03099951 -0.01547495 0.01548349
f 1 2 5
f 1 5 3
f 1 3 10
f 1 10 16
f 1 16 21
f 1 21 27
f 1 27 26
f 1 26 34
f 1 34 41
f 1 41 44
f 1 44 43
f 1 43 53
f 1 53 52
f 1 52 51
f 1 51 50
f 1 50 49
f 1 49 48
f 1 48 47
f 1 47 46
f 1 46 45
f 1 45 40
f 1 40 32
f 1 32 28
f 1 28 22
f 1 22 18
f 1 18 17
f 1 17 11
f 1 11 4
f 1 4 2
f 2 4 6
f 2 6 7
f 2 7 8
f 2 8 9
f 2 9 14
f 2 14 19
f 2 19 23
f 2 23 30
f 2 30 39
f 2 39 42
f 2 42 38
f 2 38 37
f 2 37 36
f 2 36 35
f 2 35 33
f 2 33 25
f 2 25 20
f 2 20 15
f 2 15 12
f 2 12 5
f 3 5 12
f 3 12 10
f 4 11 6
f 6 11 13
f 6 13 14
f 6 14 7
f 7 14 8
f 8 14 9
f 10 12 15
f 10 15 16
f 11 17 13
f 13 17 18
f 13 18 14
f 14 18 19
f 15 20 16
f 16 20 21
f 18 22 19
f 19 22 24
f 19 24 23
f 20 25 26
f 20 26 27
f 20 27 21
f 22 28 24
f 23 29 30
f 23 24 31
f 23 31 29
f 24 28 32
f 24 32 31
f 25 33 26
f 26 33 35
f 26 35 36
f 26 36 37
f 26 37 38
f 26 38 34
f 29 39 30
f 29 31 40
f 29 40 39
f 31 32 40
f 34 38 41
f 38 42 43
f 38 43 44
f 38 44 41
f 39 40 42
f 40 45 42
f 42 45 46
f 42 46 47
f 42 47 48
f 42 48 49
f 42 49 50
f 42 50 51
f 42 51 52
f 42 52 53
f 42 53 43
