# https://github.com/mikedh/trimesh
v 0.03622301 0.02798637 0.02652663
v 0.03723231 0.02798637 0.02652130
v 0.03219172 0.02798637 0.02652663
v 0.03622301 0.00014803 0.02652663
v 0.03824013 0.02798637 0.02650798
v 0.03723231 0.00014803 0.02652130
v 0.03773622 0.00014803 0.02651597
v 0.03184399 0.02798637 0.02241208
v 0.03184399 0.02797820 0.02652663
v 0.03319954 0.00014803 0.02652663
v 0.03824013 0.02394524 0.02650798
v 0.03884129 0.02798637 0.02649733
v 0.03884129 0.00014803 0.02649733
v 0.03131798 0.02798637 0.00943994
v 0.03131503 0.02797820 0.00945592
v 0.03184399 0.01184907 0.02652663
v 0.03269563 0.00014803 0.02651864
v 0.03269563 0.00327903 0.02652663
v 0.03269563 0.00176666 0.02652396
v 0.03884129 0.02798637 0.00075545
v 0.03884129 0.00014803 0.00075545
v 0.03270963 0.02798637 -0.00014469
v 0.03132166 0.01688755 0.00945592
v 0.03184399 0.01134495 0.02652396
v 0.03271552 0.00014803 -0.00014469
v 0.03234422 0.00014803 0.02641744
v 0.03319954 0.02797820 -0.00067998
v 0.03319439 0.02798637 -0.00067732
v 0.03319954 0.00014803 -0.00067998
v 0.03282750 0.02798637 -0.00055482
v 0.03283339 0.00014803 -0.00056014
v 0.03132313 0.01539699 0.00945592
v 0.03184399 0.00781066 0.02641211
v 0.03186241 0.00014803 0.00741595
v 0.03133050 0.01389008 0.00945592
v 0.03132461 0.01438602 0.00945592
v 0.03232064 0.00014803 0.02634553
v 0.03283118 0.02797820 -0.00056014
v 0.03184399 0.00731199 0.02626830
v 0.03223224 0.00014803 0.02606857
v 0.03184399 0.00014803 0.00762634
v 0.03181894 0.00014803 0.00792195
v 0.03184399 0.00691414 0.02606857
v 0.03222045 0.00014803 0.02556523
f 1 2 5
f 1 5 12
f 1 12 20
f 1 20 28
f 1 28 30
f 1 30 22
f 1 22 14
f 1 14 8
f 1 8 3
f 1 3 9
f 1 9 16
f 1 16 18
f 1 18 10
f 1 10 4
f 1 4 6
f 1 6 2
f 2 6 7
f 2 7 5
f 3 8 9
f 4 10 17
f 4 17 26
f 4 26 37
f 4 37 40
f 4 40 44
f 4 44 42
f 4 42 41
f 4 41 34
f 4 34 25
f 4 25 31
f 4 31 29
f 4 29 21
f 4 21 13
f 4 13 7
f 4 7 6
f 5 7 11
f 5 11 13
f 5 13 12
f 7 13 11
f 8 14 9
f 9 15 16
f 9 14 15
f 10 18 19
f 10 19 17
f 12 13 21
f 12 21 20
f 14 22 15
f 15 23 24
f 15 24 16
f 15 22 25
f 15 25 23
f 16 24 17
f 16 17 19
f 16 19 18
f 17 24 26
f 20 27 28
f 20 21 29
f 20 29 27
f 22 30 31
f 22 31 25
f 23 32 33
f 23 33 24
f 23 25 32
f 24 33 26
f 25 34 35
f 25 35 36
f 25 36 32
f 26 33 37
f 27 38 28
f 27 29 38
f 28 38 30
f 29 31 38
f 30 38 31
f 32 36 33
f 33 39 40
f 33 40 37
f 33 36 39
f 34 41 35
f 35 41 42
f 35 42 43
f 35 43 39
f 35 39 36
f 39 43 40
f 40 43 44
f 42 44 43
