# https://github.com/mikedh/trimesh
v 0.03890129 0.00014803 0.02649497
v 0.03914528 0.00014803 0.02648993
v 0.03890129 0.00014803 0.00076530
v 0.03890129 -0.03755674 0.02649497
v 0.03924949 0.00014803 0.02648742
v 0.03924949 -0.03755674 0.02648742
v 0.04735081 0.00014803 0.00088370
v 0.03890129 0.00009543 0.00076278
v 0.03890129 -0.03806249 0.02648238
v 0.03975319 0.00014803 0.02647230
v 0.03924949 -0.03806249 0.02647230
v 0.03975319 -0.03755674 0.02647230
v 0.04735081 0.00014803 0.02593826
v 0.04735081 -0.03957570 0.00088370
v 0.03890129 -0.03922774 0.00076530
v 0.03890129 -0.03856419 0.02641436
v 0.04015350 0.00014803 0.02645971
v 0.03975319 -0.03806249 0.02645467
v 0.04025771 -0.03755674 0.02645467
v 0.04731525 0.00014803 0.02594330
v 0.04735081 -0.02441530 0.02594078
v 0.04735081 -0.04007740 0.00096683
v 0.03890129 -0.04058316 0.00083836
v 0.03890129 -0.04007740 0.00076782
v 0.03924949 -0.03856419 0.02640177
v 0.03890129 -0.03887574 0.02634131
v 0.03961672 -0.03883528 0.02632619
v 0.04065802 0.00014803 0.02643955
v 0.04025771 -0.03851969 0.02636902
v 0.04025771 -0.03806249 0.02643452
v 0.04076223 -0.03755674 0.02643452
v 0.04630703 0.00014803 0.02604910
v 0.04681072 -0.02697238 0.02599872
v 0.04735081 -0.03654928 0.02594078
v 0.04735081 -0.04036872 0.00108019
v 0.03890129 -0.04068430 0.00088370
v 0.03977221 -0.03860870 0.02637154
v 0.03890129 -0.03904971 0.02627330
v 0.03995251 -0.03880696 0.02631864
v 0.03890129 -0.03912659 0.02624307
v 0.03977221 -0.03902948 0.02623803
v 0.04126593 -0.00579961 0.02641184
v 0.04076223 0.00014803 0.02643452
v 0.04126593 -0.03755674 0.02641184
v 0.04076223 -0.03846304 0.02635642
v 0.04166459 -0.03835380 0.02633123
v 0.04076223 -0.03806249 0.02641184
v 0.04569829 0.00014803 0.02610452
v 0.04580250 -0.01941038 0.02609696
v 0.04630703 -0.03150795 0.02604910
v 0.04681072 -0.03050050 0.02599872
v 0.04681072 -0.03654928 0.02599620
v 0.04630703 -0.03705503 0.02604658
v 0.04731525 -0.03705503 0.02594078
v 0.04735081 -0.03705503 0.02593574
v 0.04735081 -0.04052651 0.00136736
v 0.03890129 -0.04093516 0.00101217
v 0.04076223 -0.03871390 0.02629345
v 0.04025771 -0.03906994 0.02619269
v 0.04076223 -0.03906994 0.02615994
v 0.03924949 -0.03910636 0.02623299
v 0.03890129 -0.03957570 0.02601383
v 0.03924949 -0.03957570 0.02599620
v 0.04177045 -0.02091954 0.02638665
v 0.04298213 0.00014803 0.02631864
v 0.04126593 0.00014803 0.02640932
v 0.04177045 -0.03755674 0.02638665
v 0.04180767 -0.03853992 0.02627078
v 0.04200038 -0.03830121 0.02631864
v 0.04126593 -0.03806249 0.02638665
v 0.04519460 0.00014803 0.02614986
v 0.04529881 -0.03554182 0.02614230
v 0.04580250 -0.03705503 0.02609696
v 0.04580250 -0.03755674 0.02607681
v 0.04630703 -0.03755674 0.02602391
v 0.04681072 -0.03755674 0.02596597
v 0.04731525 -0.03755674 0.02590551
v 0.04735081 -0.03752437 0.02590299
v 0.04735081 -0.04065194 0.00187117
v 0.04452300 -0.04083401 0.00162934
v 0.03890129 -0.04110913 0.00136736
v 0.03890129 -0.04098775 0.00111293
v 0.04126593 -0.03906994 0.02612215
v 0.04126593 -0.03865321 0.02627582
v 0.04025771 -0.03954333 0.02595338
v 0.04126593 -0.03947859 0.02591559
v 0.03890129 -0.03985487 0.02584002
v 0.03924949 -0.03984274 0.02582994
v 0.03956296 -0.03983060 0.02581986
v 0.04227415 -0.03705503 0.02636146
v 0.04298213 -0.00025253 0.02631864
v 0.04328154 0.00014803 0.02629849
v 0.04261987 -0.03786424 0.02632619
v 0.04269762 -0.03755674 0.02633123
v 0.04227415 -0.03856419 0.02622543
v 0.04227415 -0.03821624 0.02630856
v 0.04180767 -0.03810295 0.02635139
v 0.04277867 -0.03856419 0.02618261
v 0.04328154 -0.03856419 0.02613727
v 0.04428976 -0.03806249 0.02616246
v 0.04378606 -0.03806249 0.02620780
v 0.04328154 -0.03806249 0.02625062
v 0.04469007 0.00014803 0.02619269
v 0.04479428 -0.02747408 0.02618513
v 0.04529881 -0.03705503 0.02614230
v 0.04479428 -0.03755674 0.02617253
v 0.04529881 -0.03755674 0.02612467
v 0.04479428 -0.03806249 0.02611208
v 0.04529881 -0.03806249 0.02605918
v 0.04580250 -0.03806249 0.02600124
v 0.04731525 -0.03791684 0.02584505
v 0.04735081 -0.03755674 0.02590048
v 0.04735081 -0.03790469 0.02584254
v 0.04731525 -0.04065598 0.00237498
v 0.04630703 -0.04074500 0.00237498
v 0.04681072 -0.04069645 0.00187117
v 0.04735081 -0.04065194 0.02206899
v 0.04479428 -0.04082591 0.00172255
v 0.04378606 -0.04090684 0.00187117
v 0.04277867 -0.04097157 0.00187117
v 0.04177045 -0.04103630 0.00187117
v 0.04126593 -0.04106868 0.00187117
v 0.04076223 -0.04109700 0.00187117
v 0.04025771 -0.04112532 0.00187117
v 0.03890129 -0.04113746 0.00152354
v 0.04177045 -0.03906994 0.02608185
v 0.03989958 -0.03981441 0.02580727
v 0.04025771 -0.03979418 0.02579468
v 0.04076223 -0.03976586 0.02577200
v 0.04126593 -0.03973350 0.02574681
v 0.04177045 -0.03944218 0.02589292
v 0.03890129 -0.04002885 0.02568384
v 0.03924949 -0.04009763 0.02560071
v 0.03973995 -0.04003289 0.02562338
v 0.04294988 -0.03755674 0.02631612
v 0.04272822 -0.03705503 0.02633375
v 0.04328154 -0.03705503 0.02629849
v 0.04378606 -0.01184839 0.02626322
v 0.04378606 0.00014803 0.02626070
v 0.04428976 -0.03755674 0.02621536
v 0.04378606 -0.03755674 0.02625566
v 0.04328154 -0.03755674 0.02629345
v 0.04227415 -0.03906994 0.02603650
v 0.04277867 -0.03906994 0.02598864
v 0.04378606 -0.03856419 0.02608689
v 0.04428976 0.00014803 0.02622291
v 0.04428976 -0.02797983 0.02622543
v 0.04479428 -0.03705503 0.02618513
v 0.04479428 -0.03856419 0.02597605
v 0.04630703 -0.03839426 0.02584757
v 0.04662132 -0.03833762 0.02582490
v 0.04630703 -0.03806249 0.02593826
v 0.04679832 -0.03807867 0.02587025
v 0.04695712 -0.03826075 0.02579971
v 0.04735081 -0.03815959 0.02577200
v 0.04731525 -0.04065598 0.02203372
v 0.04630703 -0.04074500 0.02203372
v 0.04536746 -0.04082187 0.00237498
v 0.04509287 -0.04083805 0.00208025
v 0.04527565 -0.04080973 0.00189636
v 0.04630703 -0.04073286 0.00187117
v 0.04735081 -0.04063980 0.02254005
v 0.04731525 -0.04064384 0.02254005
v 0.04681072 -0.04069240 0.02254005
v 0.04580250 -0.04076927 0.00187117
v 0.04479428 -0.04085019 0.00197445
v 0.04277867 -0.04099989 0.00237498
v 0.04177045 -0.04105654 0.00237498
v 0.04126593 -0.04108486 0.00237498
v 0.04076223 -0.04110913 0.00237498
v 0.03975319 -0.04114959 0.00187117
v 0.03924949 -0.04116983 0.00187117
v 0.03890129 -0.04118197 0.00187117
v 0.04227415 -0.03940576 0.02586773
v 0.04076223 -0.04004908 0.02552010
v 0.04177045 -0.03999244 0.02546971
v 0.04177045 -0.03969708 0.02572162
v 0.03890129 -0.04010977 0.02561078
v 0.03890129 -0.04029184 0.02543697
v 0.03975319 -0.04034444 0.02532865
v 0.04004019 -0.04033230 0.02531605
v 0.04378606 -0.03705503 0.02626322
v 0.04428976 -0.03705503 0.02622543
v 0.04277867 -0.03936126 0.02584254
v 0.04310124 -0.03933294 0.02582490
v 0.04327410 -0.03910636 0.02591811
v 0.04378606 -0.03900925 0.02591055
v 0.04428976 -0.03894857 0.02588284
v 0.04580250 -0.03848327 0.02588032
v 0.04479428 -0.03888788 0.02585009
v 0.04513753 -0.03884337 0.02582742
v 0.04530294 -0.03860060 0.02590048
v 0.04547415 -0.03879077 0.02580475
v 0.04580250 -0.03873413 0.02578208
v 0.04731525 -0.03856419 0.02561582
v 0.04630703 -0.03864511 0.02574177
v 0.04735081 -0.03852778 0.02562338
v 0.04630703 -0.04073690 0.02254005
v 0.04580250 -0.04078141 0.02254005
v 0.04536580 -0.04082187 0.02203372
v 0.04536663 -0.04082187 0.01901085
v 0.04536746 -0.04082187 0.00287879
v 0.04511437 -0.04084210 0.01497783
v 0.04511354 -0.04084210 0.01296259
v 0.04378606 -0.04093516 0.00237498
v 0.04735081 -0.04063575 0.02257532
v 0.04681072 -0.04064384 0.02304386
v 0.04630703 -0.04069645 0.02304386
v 0.04580250 -0.04074904 0.02304386
v 0.04507467 -0.04083805 0.02281715
v 0.04277867 -0.04099989 0.02254005
v 0.04177045 -0.04105654 0.02254005
v 0.04126593 -0.04108486 0.02254005
v 0.04076223 -0.04110913 0.02254005
v 0.03975319 -0.04115364 0.00237498
v 0.03890129 -0.04118601 0.00202735
v 0.04037599 -0.04032017 0.02529842
v 0.04126593 -0.04027566 0.02524552
v 0.04277867 -0.03992770 0.02540926
v 0.04277867 -0.03961616 0.02566116
v 0.03890129 -0.04037276 0.02535888
v 0.03890129 -0.04052651 0.02514979
v 0.03975319 -0.04053460 0.02505911
v 0.04022793 -0.04046986 0.02510193
v 0.04076223 -0.04048605 0.02502384
v 0.04327410 -0.03953119 0.02565864
v 0.04343621 -0.03930057 0.02580475
v 0.04378606 -0.03926011 0.02578208
v 0.04479428 -0.03913873 0.02571155
v 0.04580250 -0.03906994 0.02559819
v 0.04731525 -0.03896879 0.02540674
v 0.04735081 -0.03856419 0.02560826
v 0.04735081 -0.03896070 0.02540422
v 0.04479428 -0.04086233 0.02254005
v 0.04378606 -0.04093516 0.02254005
v 0.04511354 -0.04084210 0.02052228
v 0.04511437 -0.04084210 0.02001847
v 0.04735081 -0.04057911 0.02304386
v 0.04580250 -0.04064789 0.02354767
v 0.04529881 -0.04070454 0.02354767
v 0.04455857 -0.04083805 0.02330080
v 0.04489519 -0.04082187 0.02315218
v 0.04378606 -0.04091897 0.02304386
v 0.04277867 -0.04099180 0.02304386
v 0.04227415 -0.04102417 0.02304386
v 0.04177045 -0.04105249 0.02304386
v 0.04126593 -0.04108081 0.02304386
v 0.04076223 -0.04110509 0.02304386
v 0.04025771 -0.04112937 0.02304386
v 0.03975319 -0.04115364 0.02254005
v 0.03924949 -0.04117388 0.00287879
v 0.03924949 -0.04117388 0.01044101
v 0.03890129 -0.04118197 0.02304386
v 0.04126593 -0.04046177 0.02499361
v 0.04177045 -0.04024329 0.02521277
v 0.04177045 -0.04043750 0.02495835
v 0.04227415 -0.04041322 0.02492308
v 0.04277867 -0.04038490 0.02488529
v 0.04227415 -0.04021497 0.02517498
v 0.04277867 -0.04018260 0.02513720
v 0.04378606 -0.03985487 0.02533872
v 0.04378606 -0.03957570 0.02555788
v 0.03890129 -0.04058720 0.02505911
v 0.03924949 -0.04056697 0.02505911
v 0.03924949 -0.04078950 0.02471400
v 0.03975319 -0.04077332 0.02468377
v 0.04025771 -0.04075713 0.02464850
v 0.04076223 -0.04073690 0.02461324
v 0.04479428 -0.03951096 0.02545964
v 0.04529881 -0.03946241 0.02542185
v 0.04580250 -0.03940981 0.02537903
v 0.04630703 -0.03906994 0.02551506
v 0.04630703 -0.03935317 0.02533621
v 0.04656342 -0.03932485 0.02531353
v 0.04731525 -0.03921965 0.02523796
v 0.04735081 -0.03921560 0.02523292
v 0.04630703 -0.04058316 0.02354767
v 0.04735081 -0.04046582 0.02346958
v 0.04681072 -0.04051841 0.02354767
v 0.04722344 -0.04035658 0.02384996
v 0.04630703 -0.04042131 0.02399103
v 0.04479428 -0.04059125 0.02405149
v 0.04349824 -0.04082996 0.02378447
v 0.04378606 -0.04081782 0.02371897
v 0.04428976 -0.04079355 0.02361065
v 0.04331132 -0.04088660 0.02358798
v 0.04378606 -0.04087042 0.02346706
v 0.04277867 -0.04093516 0.02354767
v 0.04177045 -0.04100798 0.02354767
v 0.04076223 -0.04106868 0.02354767
v 0.03924949 -0.04114150 0.02354767
v 0.03924949 -0.04116983 0.02304386
v 0.03890129 -0.04117388 0.02320004
v 0.04177045 -0.04068026 0.02455530
v 0.04227415 -0.04063171 0.02455530
v 0.04277867 -0.04057911 0.02455530
v 0.04328154 -0.04035658 0.02484247
v 0.04358674 -0.04033635 0.02481728
v 0.04392254 -0.04031612 0.02478453
v 0.04328154 -0.04014618 0.02509438
v 0.04407389 -0.03983060 0.02531857
v 0.03890129 -0.04072881 0.02484247
v 0.03890129 -0.04079759 0.02473415
v 0.03924949 -0.04090684 0.02446209
v 0.04025771 -0.04087851 0.02439660
v 0.04076223 -0.04086233 0.02436133
v 0.04150413 -0.04083401 0.02430087
v 0.04440969 -0.03980228 0.02528834
v 0.04479428 -0.03976586 0.02525560
v 0.04529881 -0.03971326 0.02520773
v 0.04580250 -0.03966066 0.02515987
v 0.04630703 -0.03960402 0.02510949
v 0.04731525 -0.03951501 0.02498605
v 0.04735081 -0.03949073 0.02499865
v 0.04735081 -0.04043345 0.02358546
v 0.04735081 -0.04034444 0.02382981
v 0.04735081 -0.04024734 0.02401874
v 0.04681072 -0.04025948 0.02416736
v 0.04600762 -0.04032421 0.02429080
v 0.04529881 -0.04052651 0.02405149
v 0.04567100 -0.04034849 0.02433362
v 0.04479428 -0.04040917 0.02443438
v 0.04428976 -0.04044154 0.02449232
v 0.04378606 -0.04070454 0.02405149
v 0.04316244 -0.04084615 0.02383233
v 0.04331132 -0.04076523 0.02402126
v 0.04025771 -0.04099180 0.02405149
v 0.04277867 -0.04086233 0.02388271
v 0.04227415 -0.04088256 0.02394820
v 0.04076223 -0.04095943 0.02405149
v 0.03975319 -0.04102012 0.02405149
v 0.03924949 -0.04104440 0.02405149
v 0.03890129 -0.04112532 0.02370385
v 0.03890129 -0.04115364 0.02354767
v 0.03890129 -0.04106059 0.02405149
v 0.04328154 -0.04052246 0.02455530
v 0.04177045 -0.04082187 0.02426561
v 0.04479428 -0.04025138 0.02468881
v 0.04580250 -0.03991556 0.02490797
v 0.04529881 -0.03995602 0.02495583
v 0.04479428 -0.03999648 0.02500369
v 0.04376704 -0.04014214 0.02501628
v 0.04426081 -0.03999648 0.02509690
v 0.03890129 -0.04091493 0.02448224
v 0.04130811 -0.04090684 0.02409935
v 0.04630703 -0.03987106 0.02485507
v 0.04662794 -0.03983869 0.02482232
v 0.04696374 -0.03980632 0.02478453
v 0.04735081 -0.03951096 0.02498102
v 0.04735081 -0.03974563 0.02475430
v 0.04735081 -0.03996007 0.02448224
v 0.04630703 -0.04008954 0.02455530
v 0.04582484 -0.04019473 0.02452255
v 0.04529881 -0.04021093 0.02462835
v 0.04277867 -0.04077332 0.02413461
v 0.04735081 -0.03976182 0.02473667
f 1 2 5
f 1 5 10
f 1 10 17
f 1 17 28
f 1 28 43
f 1 43 66
f 1 66 65
f 1 65 92
f 1 92 139
f 1 139 146
f 1 146 103
f 1 103 71
f 1 71 48
f 1 48 32
f 1 32 20
f 1 20 13
f 1 13 7
f 1 7 3
f 1 3 8
f 1 8 15
f 1 15 24
f 1 24 23
f 1 23 36
f 1 36 57
f 1 57 82
f 1 82 81
f 1 81 125
f 1 125 173
f 1 173 216
f 1 216 253
f 1 253 293
f 1 293 334
f 1 334 333
f 1 333 335
f 1 335 344
f 1 344 303
f 1 303 302
f 1 302 263
f 1 263 222
f 1 222 221
f 1 221 179
f 1 179 178
f 1 178 132
f 1 132 87
f 1 87 62
f 1 62 40
f 1 40 38
f 1 38 26
f 1 26 16
f 1 16 9
f 1 9 4
f 1 4 2
f 2 4 6
f 2 6 5
f 3 7 8
f 4 9 6
f 5 6 12
f 5 12 10
f 6 9 11
f 6 11 12
f 7 13 21
f 7 21 34
f 7 34 55
f 7 55 78
f 7 78 112
f 7 112 113
f 7 113 155
f 7 155 197
f 7 197 232
f 7 232 233
f 7 233 276
f 7 276 314
f 7 314 349
f 7 349 350
f 7 350 356
f 7 356 351
f 7 351 317
f 7 317 316
f 7 316 315
f 7 315 278
f 7 278 238
f 7 238 206
f 7 206 162
f 7 162 117
f 7 117 79
f 7 79 56
f 7 56 35
f 7 35 22
f 7 22 14
f 7 14 8
f 8 14 15
f 9 16 11
f 10 12 17
f 11 16 18
f 11 18 19
f 11 19 12
f 12 19 17
f 13 20 21
f 14 22 23
f 14 23 24
f 14 24 15
f 16 25 18
f 16 26 27
f 16 27 25
f 17 19 31
f 17 31 28
f 18 25 29
f 18 29 30
f 18 30 31
f 18 31 19
f 20 32 33
f 20 33 21
f 21 33 51
f 21 51 34
f 22 35 23
f 23 35 36
f 25 27 37
f 25 37 29
f 26 38 27
f 27 39 37
f 27 38 40
f 27 40 41
f 27 41 39
f 28 42 43
f 28 31 44
f 28 44 42
f 29 45 30
f 29 37 39
f 29 39 45
f 30 45 46
f 30 46 47
f 30 47 31
f 31 47 44
f 32 48 49
f 32 49 73
f 32 73 50
f 32 50 51
f 32 51 33
f 34 51 52
f 34 52 53
f 34 53 54
f 34 54 55
f 35 56 57
f 35 57 36
f 39 58 46
f 39 46 45
f 39 41 59
f 39 59 60
f 39 60 58
f 40 59 61
f 40 61 41
f 40 62 63
f 40 63 59
f 41 61 59
f 42 64 65
f 42 65 66
f 42 66 43
f 42 44 67
f 42 67 64
f 44 47 67
f 46 58 68
f 46 68 69
f 46 69 70
f 46 70 47
f 47 70 67
f 48 71 49
f 49 71 72
f 49 72 105
f 49 105 73
f 50 73 53
f 50 53 52
f 50 52 51
f 53 73 74
f 53 74 75
f 53 75 54
f 54 75 76
f 54 76 77
f 54 77 78
f 54 78 55
f 56 79 80
f 56 80 81
f 56 81 82
f 56 82 57
f 58 60 83
f 58 83 84
f 58 84 68
f 59 63 85
f 59 85 60
f 60 85 86
f 60 86 83
f 62 87 88
f 62 88 63
f 63 88 89
f 63 89 85
f 64 67 90
f 64 90 65
f 65 90 91
f 65 91 137
f 65 137 92
f 67 70 93
f 67 93 94
f 67 94 90
f 68 95 69
f 68 84 95
f 69 96 93
f 69 93 97
f 69 97 70
f 69 95 98
f 69 98 99
f 69 99 100
f 69 100 101
f 69 101 102
f 69 102 96
f 70 97 93
f 71 103 104
f 71 104 72
f 72 104 148
f 72 148 105
f 73 105 106
f 73 106 107
f 73 107 74
f 74 107 100
f 74 100 108
f 74 108 109
f 74 109 75
f 75 109 110
f 75 110 76
f 76 110 111
f 76 111 77
f 77 112 78
f 77 111 113
f 77 113 112
f 79 114 115
f 79 115 116
f 79 116 80
f 79 117 156
f 79 156 114
f 80 116 118
f 80 118 119
f 80 119 120
f 80 120 121
f 80 121 122
f 80 122 81
f 81 122 123
f 81 123 124
f 81 124 125
f 83 126 84
f 83 86 126
f 84 126 95
f 85 89 127
f 85 127 128
f 85 128 86
f 86 128 129
f 86 129 130
f 86 130 131
f 86 131 126
f 87 132 88
f 88 132 133
f 88 133 89
f 89 133 134
f 89 134 127
f 90 94 135
f 90 135 136
f 90 136 91
f 91 136 137
f 92 138 139
f 92 137 182
f 92 182 138
f 93 96 102
f 93 102 140
f 93 140 141
f 93 141 142
f 93 142 135
f 93 135 94
f 95 126 98
f 98 126 143
f 98 143 99
f 99 143 144
f 99 144 145
f 99 145 108
f 99 108 100
f 100 107 106
f 100 106 101
f 101 106 140
f 101 140 102
f 103 146 138
f 103 138 147
f 103 147 104
f 104 147 183
f 104 183 148
f 105 148 140
f 105 140 106
f 108 145 109
f 109 145 149
f 109 149 110
f 110 149 150
f 110 150 151
f 110 151 152
f 110 152 111
f 111 152 153
f 111 153 151
f 111 151 154
f 111 154 155
f 111 155 113
f 114 156 157
f 114 157 115
f 115 157 202
f 115 202 158
f 115 158 116
f 116 158 159
f 116 159 160
f 116 160 161
f 116 161 118
f 117 162 163
f 117 163 164
f 117 164 156
f 118 161 165
f 118 165 160
f 118 160 166
f 118 166 119
f 119 166 120
f 120 166 121
f 121 166 122
f 122 166 159
f 122 159 167
f 122 167 123
f 123 167 168
f 123 168 169
f 123 169 124
f 124 169 170
f 124 170 171
f 124 171 125
f 125 171 172
f 125 172 173
f 126 131 174
f 126 174 143
f 127 134 128
f 128 134 175
f 128 175 129
f 129 175 176
f 129 176 130
f 130 177 131
f 130 176 177
f 131 177 174
f 132 178 133
f 133 178 179
f 133 179 180
f 133 180 134
f 134 180 181
f 134 181 175
f 135 142 137
f 135 137 136
f 137 142 182
f 138 146 139
f 138 182 183
f 138 183 147
f 140 148 141
f 141 148 183
f 141 183 182
f 141 182 142
f 143 174 184
f 143 184 144
f 144 184 185
f 144 185 186
f 144 186 187
f 144 187 145
f 145 187 188
f 145 188 149
f 149 189 150
f 149 188 190
f 149 190 191
f 149 191 192
f 149 192 189
f 150 189 193
f 150 193 194
f 150 194 151
f 151 195 154
f 151 153 152
f 151 194 196
f 151 196 195
f 154 195 155
f 155 195 197
f 156 164 198
f 156 198 157
f 157 198 199
f 157 199 200
f 157 200 201
f 157 201 202
f 158 202 237
f 158 237 203
f 158 203 204
f 158 204 205
f 158 205 159
f 159 166 160
f 159 205 167
f 160 165 161
f 162 206 207
f 162 207 163
f 163 207 208
f 163 208 209
f 163 209 210
f 163 210 164
f 164 210 198
f 167 205 235
f 167 235 211
f 167 211 212
f 167 212 168
f 168 212 213
f 168 213 169
f 169 213 214
f 169 214 170
f 170 214 250
f 170 250 215
f 170 215 171
f 171 215 216
f 171 216 172
f 172 216 173
f 174 177 184
f 175 181 217
f 175 217 176
f 176 217 218
f 176 218 219
f 176 219 177
f 177 220 184
f 177 219 220
f 179 221 180
f 180 217 181
f 180 221 222
f 180 222 223
f 180 223 224
f 180 224 225
f 180 225 217
f 184 220 185
f 185 220 226
f 185 226 227
f 185 227 186
f 186 227 187
f 187 227 188
f 188 227 228
f 188 228 190
f 189 192 193
f 190 228 229
f 190 229 191
f 191 193 192
f 191 229 230
f 191 230 193
f 193 230 231
f 193 231 194
f 194 231 195
f 194 195 196
f 195 232 197
f 195 231 233
f 195 233 232
f 198 210 199
f 199 210 200
f 200 210 234
f 200 234 235
f 200 235 236
f 200 236 237
f 200 237 201
f 201 237 202
f 203 237 235
f 203 235 205
f 203 205 204
f 206 238 207
f 207 238 239
f 207 239 240
f 207 240 241
f 207 241 208
f 208 241 209
f 209 241 242
f 209 242 210
f 210 242 241
f 210 241 243
f 210 243 244
f 210 244 235
f 210 235 234
f 211 244 245
f 211 245 246
f 211 246 212
f 211 235 244
f 212 246 247
f 212 247 213
f 213 247 248
f 213 248 214
f 214 248 249
f 214 249 250
f 215 251 216
f 215 250 252
f 215 252 251
f 216 251 252
f 216 252 253
f 217 225 254
f 217 254 218
f 218 255 219
f 218 254 256
f 218 256 257
f 218 257 258
f 218 258 255
f 219 255 259
f 219 259 260
f 219 260 261
f 219 261 220
f 220 261 262
f 220 262 226
f 222 263 264
f 222 264 223
f 223 225 224
f 223 264 265
f 223 265 266
f 223 266 225
f 225 266 267
f 225 267 268
f 225 268 254
f 226 262 227
f 227 262 269
f 227 269 270
f 227 270 228
f 228 270 229
f 229 270 271
f 229 271 230
f 230 272 231
f 230 271 273
f 230 273 274
f 230 274 272
f 231 272 274
f 231 274 275
f 231 275 276
f 231 276 233
f 235 237 236
f 238 277 239
f 238 278 279
f 238 279 277
f 239 277 280
f 239 280 281
f 239 281 282
f 239 282 283
f 239 283 240
f 240 283 284
f 240 284 285
f 240 285 241
f 241 285 284
f 241 284 283
f 241 283 286
f 241 286 287
f 241 287 288
f 241 288 289
f 241 289 244
f 241 244 243
f 244 289 245
f 245 289 290
f 245 290 246
f 246 290 247
f 247 290 248
f 248 291 249
f 248 290 291
f 249 291 292
f 249 292 250
f 250 292 253
f 250 253 252
f 253 292 293
f 254 268 256
f 255 258 259
f 256 268 257
f 257 268 294
f 257 294 295
f 257 295 258
f 258 295 296
f 258 296 297
f 258 297 260
f 258 260 259
f 260 297 298
f 260 298 299
f 260 299 300
f 260 300 301
f 260 301 261
f 261 301 262
f 262 301 269
f 263 302 264
f 264 302 265
f 265 302 303
f 265 303 344
f 265 344 304
f 265 304 305
f 265 305 266
f 266 305 306
f 266 306 267
f 267 306 268
f 268 306 307
f 268 307 294
f 269 301 270
f 270 301 308
f 270 308 309
f 270 309 271
f 271 309 273
f 273 309 274
f 274 309 310
f 274 310 311
f 274 311 312
f 274 312 313
f 274 313 275
f 275 313 314
f 275 314 276
f 277 279 280
f 278 315 279
f 279 315 280
f 280 316 317
f 280 317 318
f 280 318 319
f 280 319 281
f 280 315 316
f 281 320 282
f 281 319 320
f 282 320 321
f 282 321 322
f 282 322 323
f 282 323 324
f 282 324 283
f 283 325 286
f 283 324 326
f 283 326 325
f 286 288 287
f 286 325 288
f 288 325 289
f 289 327 290
f 289 325 328
f 289 328 329
f 289 329 330
f 289 330 327
f 290 327 331
f 290 331 332
f 290 332 291
f 291 333 334
f 291 334 293
f 291 293 292
f 291 332 335
f 291 335 333
f 294 307 295
f 295 307 296
f 296 323 336
f 296 336 297
f 296 307 337
f 296 337 324
f 296 324 323
f 297 336 298
f 298 336 323
f 298 323 299
f 299 323 322
f 299 322 321
f 299 321 338
f 299 338 339
f 299 339 340
f 299 340 341
f 299 341 342
f 299 342 300
f 300 342 301
f 301 342 343
f 301 343 341
f 301 341 308
f 304 344 335
f 304 335 332
f 304 332 331
f 304 331 305
f 305 331 306
f 306 331 327
f 306 327 307
f 307 327 330
f 307 330 345
f 307 345 329
f 307 329 328
f 307 328 325
f 307 325 337
f 308 341 340
f 308 340 339
f 308 339 309
f 309 339 346
f 309 346 310
f 310 346 311
f 311 346 347
f 311 347 348
f 311 348 312
f 312 348 313
f 313 349 314
f 313 348 350
f 313 350 349
f 317 351 318
f 318 351 319
f 319 321 320
f 319 351 352
f 319 352 353
f 319 353 354
f 319 354 338
f 319 338 321
f 324 337 355
f 324 355 326
f 325 326 337
f 326 355 337
f 329 345 330
f 338 354 346
f 338 346 339
f 341 343 342
f 346 354 352
f 346 352 351
f 346 351 347
f 347 351 348
f 348 356 350
f 348 351 356
f 352 354 353
