# https://github.com/mikedh/trimesh
v 0.03884129 0.03100452 0.02649869
v 0.03884129 0.02756977 0.02649869
v 0.03924944 0.03755666 0.02648861
v 0.03884129 0.03755666 0.02649617
v 0.03884129 0.00014803 0.02649617
v 0.03924944 0.00781696 0.02648861
v 0.03975338 0.03755666 0.02647349
v 0.03884129 0.03806283 0.02648357
v 0.03884129 0.00014803 0.00075551
v 0.03924944 0.00014803 0.02648609
v 0.03975338 0.00014803 0.02647349
v 0.04025816 0.03755666 0.02645585
v 0.03975338 0.03806283 0.02645585
v 0.03884129 0.03856498 0.02641552
v 0.03884962 0.00014803 0.00075551
v 0.03884129 0.03201285 0.00075551
v 0.04025816 0.00014803 0.02645585
v 0.04076210 0.03755666 0.02643568
v 0.04025816 0.03806283 0.02643568
v 0.03924944 0.03856498 0.02640292
v 0.03884129 0.03862122 0.02640292
v 0.04735081 0.03957332 0.00088404
v 0.04735081 0.00014803 0.00088404
v 0.03884129 0.04007949 0.00075803
v 0.04076210 0.00014803 0.02643568
v 0.04126604 0.03705450 0.02641300
v 0.04176998 0.03755666 0.02638528
v 0.04076210 0.03806283 0.02641300
v 0.04126604 0.03840028 0.02634244
v 0.04025816 0.03852079 0.02636764
v 0.03977254 0.03860917 0.02637016
v 0.03961678 0.03883414 0.02632732
v 0.03924944 0.03885423 0.02633488
v 0.03884129 0.03887833 0.02634244
v 0.03884129 0.04048523 0.00081347
v 0.03884129 0.04058164 0.00082859
v 0.04735081 0.04007949 0.00096468
v 0.04735081 0.00014803 0.02593922
v 0.04126604 0.00014803 0.02641048
v 0.04176998 0.03049835 0.02638780
v 0.04126604 0.03453166 0.02641300
v 0.04176998 0.03705450 0.02638780
v 0.04227475 0.03755666 0.02635756
v 0.04261877 0.03786197 0.02632732
v 0.04126604 0.03806283 0.02638780
v 0.04166503 0.03835207 0.02632984
v 0.04076210 0.03871362 0.02629456
v 0.04025816 0.03877388 0.02630968
v 0.03995246 0.03880602 0.02631724
v 0.04025816 0.03907115 0.02619375
v 0.03977254 0.03903098 0.02623912
v 0.03924944 0.03910731 0.02623408
v 0.03884129 0.03913141 0.02624415
v 0.03884129 0.04087892 0.00097728
v 0.04735081 0.04034865 0.00107053
v 0.04731499 0.01689192 0.02594426
v 0.04721088 0.00014803 0.02595434
v 0.04735081 0.03658448 0.02593922
v 0.04263626 0.00014803 0.02633740
v 0.04227475 0.01941074 0.02636008
v 0.04227475 0.03705450 0.02636008
v 0.04269956 0.03755666 0.02633236
v 0.04328180 0.03755666 0.02629204
v 0.04378574 0.03755666 0.02625675
v 0.04429052 0.03755666 0.02621643
v 0.04328180 0.03806283 0.02625172
v 0.04227475 0.03821548 0.02630968
v 0.04200071 0.03829984 0.02631976
v 0.04180747 0.03810300 0.02635252
v 0.04126604 0.03865336 0.02627692
v 0.04126604 0.03907115 0.02612319
v 0.04076210 0.03907115 0.02616099
v 0.04025816 0.03954519 0.02595182
v 0.03924944 0.03957332 0.02599466
v 0.03884129 0.03957332 0.02601734
v 0.03884129 0.04093918 0.00100752
v 0.04735081 0.04036873 0.00108061
v 0.04681106 0.00014803 0.02599718
v 0.04731499 0.03654832 0.02594426
v 0.04735081 0.03705450 0.02593670
v 0.04273038 0.00014803 0.02633236
v 0.04273122 0.00176698 0.02633236
v 0.04298360 0.00226913 0.02631724
v 0.04298527 0.01840241 0.02631724
v 0.04298610 0.02697120 0.02631724
v 0.04298694 0.03604617 0.02631724
v 0.04298694 0.03705450 0.02631724
v 0.04328180 0.03705450 0.02629708
v 0.04378574 0.03705450 0.02626180
v 0.04429052 0.03705450 0.02622399
v 0.04479446 0.03705450 0.02618367
v 0.04529840 0.03705450 0.02614083
v 0.04529840 0.03755666 0.02612571
v 0.04429052 0.03806283 0.02616351
v 0.04378574 0.03806283 0.02620887
v 0.04277870 0.03856498 0.02618367
v 0.04227475 0.03856498 0.02622651
v 0.04180747 0.03853686 0.02626936
v 0.04176998 0.03907115 0.02608287
v 0.04126604 0.03948091 0.02591402
v 0.04076210 0.03951306 0.02593418
v 0.03989915 0.03981435 0.02580817
v 0.03956347 0.03983042 0.02582077
v 0.03974006 0.03961750 0.02593922
v 0.03924944 0.03984247 0.02583085
v 0.03884129 0.03985853 0.02584093
v 0.03884129 0.04111594 0.00136790
v 0.04735081 0.04051737 0.00134522
v 0.04630711 0.00014803 0.02604758
v 0.04681106 0.03654832 0.02599718
v 0.04681106 0.03705450 0.02599466
v 0.04735081 0.03709065 0.02593418
v 0.04681106 0.03755666 0.02596694
v 0.04630711 0.03755666 0.02602238
v 0.04298194 0.00014803 0.02631724
v 0.04298277 0.00075865 0.02631724
v 0.04322016 0.00014803 0.02630212
v 0.04368163 0.00014803 0.02626936
v 0.04378574 0.00014803 0.02626180
v 0.04429052 0.00014803 0.02622399
v 0.04479446 0.00014803 0.02618367
v 0.04580234 0.03705450 0.02609547
v 0.04529840 0.00014803 0.02614083
v 0.04569822 0.00014803 0.02610555
v 0.04630711 0.03705450 0.02604758
v 0.04580234 0.03755666 0.02607531
v 0.04479446 0.03806283 0.02611311
v 0.04328180 0.03856498 0.02613579
v 0.04227475 0.03907115 0.02603750
v 0.04227475 0.03940459 0.02586865
v 0.04176998 0.03944476 0.02589134
v 0.04076210 0.03976614 0.02577289
v 0.04076210 0.04004735 0.02552088
v 0.04022817 0.04012368 0.02549820
v 0.03974006 0.04003128 0.02562168
v 0.03924944 0.04009556 0.02559900
v 0.03884129 0.04011162 0.02561412
v 0.03884129 0.03990674 0.02579809
v 0.03884129 0.04118423 0.00187193
v 0.03924944 0.04117218 0.00187193
v 0.03975338 0.04115209 0.00187193
v 0.04025816 0.04112799 0.00187193
v 0.04076210 0.04109987 0.00187193
v 0.04452292 0.04083473 0.00163000
v 0.04735081 0.04052540 0.00136790
v 0.04620299 0.00014803 0.02605767
v 0.04735081 0.03755666 0.02590142
v 0.04735081 0.03758879 0.02589638
v 0.04735081 0.03790615 0.02584345
v 0.04580234 0.03806283 0.02599970
v 0.04529840 0.03806283 0.02605767
v 0.04429052 0.03856498 0.02603246
v 0.04378574 0.03856498 0.02608539
v 0.04277870 0.03907115 0.02598710
v 0.04310022 0.03933629 0.02582329
v 0.04277870 0.03936442 0.02584093
v 0.04227475 0.03965767 0.02569225
v 0.04126604 0.03972999 0.02574769
v 0.04227475 0.03996299 0.02544023
v 0.04176998 0.03999513 0.02546795
v 0.04126604 0.04002324 0.02549567
v 0.04037644 0.04032052 0.02529910
v 0.03975338 0.04034463 0.02532683
v 0.03924944 0.04036070 0.02534699
v 0.03884129 0.04037275 0.02536211
v 0.03884129 0.04118825 0.00732046
v 0.03924944 0.04117218 0.02253956
v 0.04025816 0.04113201 0.00237596
v 0.04126604 0.04108380 0.00237596
v 0.04227475 0.04103157 0.00237596
v 0.04509266 0.04083874 0.00208110
v 0.04479446 0.04085080 0.00197274
v 0.04227475 0.04100345 0.00187193
v 0.04479446 0.04082669 0.00172072
v 0.04630711 0.04073430 0.00187193
v 0.04735081 0.04064592 0.00183665
v 0.04277870 0.04097132 0.00187193
v 0.04378574 0.04090704 0.00187193
v 0.04735081 0.03815522 0.02577037
v 0.04731499 0.03816728 0.02577289
v 0.04695183 0.03825565 0.02580061
v 0.04679440 0.03807890 0.02587117
v 0.04630711 0.03806283 0.02593922
v 0.04580234 0.03848464 0.02588126
v 0.04479446 0.03856498 0.02597450
v 0.04479446 0.03888636 0.02585101
v 0.04429052 0.03894662 0.02588126
v 0.04378574 0.03900688 0.02591150
v 0.04327348 0.03910731 0.02591906
v 0.04343590 0.03930014 0.02580313
v 0.04327348 0.03953314 0.02565696
v 0.04378574 0.03985452 0.02533943
v 0.04328180 0.03989469 0.02537471
v 0.04227475 0.04021607 0.02517562
v 0.04126604 0.04027231 0.02524618
v 0.04076210 0.04030044 0.02527642
v 0.04176998 0.04044104 0.02495889
v 0.04076210 0.04048523 0.02502441
v 0.03975338 0.04053745 0.02505969
v 0.03924944 0.04056959 0.02505969
v 0.03884129 0.04059369 0.02505969
v 0.03884129 0.04118423 0.02304358
v 0.03924944 0.04116816 0.02304358
v 0.04025816 0.04113201 0.02253956
v 0.04126604 0.04108380 0.02253956
v 0.04227475 0.04102756 0.02253956
v 0.04277870 0.04099943 0.02253956
v 0.04277870 0.04099943 0.00237596
v 0.04527591 0.04081063 0.00189461
v 0.04378574 0.04093516 0.00237596
v 0.04429052 0.04089900 0.00237596
v 0.04479446 0.04086285 0.00237596
v 0.04511515 0.04083874 0.00237596
v 0.04580234 0.04078652 0.00237596
v 0.04630711 0.04074635 0.00237596
v 0.04731499 0.04065395 0.00187193
v 0.04735081 0.04064994 0.00187193
v 0.04735081 0.03819540 0.02575525
v 0.04735081 0.03856498 0.02560908
v 0.04661531 0.03833600 0.02582329
v 0.04630711 0.03839224 0.02584597
v 0.04547415 0.03878995 0.02580565
v 0.04513764 0.03884218 0.02582833
v 0.04530257 0.03860114 0.02589890
v 0.04479446 0.03913945 0.02571241
v 0.04429052 0.03919971 0.02574769
v 0.04378574 0.03925997 0.02578297
v 0.04479446 0.03951306 0.02546039
v 0.04378574 0.03957332 0.02555616
v 0.04426136 0.03960947 0.02546291
v 0.04407395 0.03983042 0.02531675
v 0.04426136 0.03999914 0.02509749
v 0.04328180 0.04014377 0.02509497
v 0.04277870 0.04017992 0.02513530
v 0.04358667 0.04033659 0.02481776
v 0.04328180 0.04035668 0.02484296
v 0.04277870 0.04038480 0.02488328
v 0.04227475 0.04041292 0.02492360
v 0.04227475 0.04062985 0.02455566
v 0.04176998 0.04067805 0.02455566
v 0.04076210 0.04073832 0.02461363
v 0.03975338 0.04077447 0.02468419
v 0.03924944 0.04079054 0.02471443
v 0.03884129 0.04080259 0.02473711
v 0.03884129 0.04115611 0.02354761
v 0.03924944 0.04114004 0.02354761
v 0.04025816 0.04112799 0.02304358
v 0.04126604 0.04107978 0.02304358
v 0.04227475 0.04102354 0.02304358
v 0.04277870 0.04099140 0.02304358
v 0.04378574 0.04093516 0.02253956
v 0.04536504 0.04082268 0.02203553
v 0.04580234 0.04078652 0.02203553
v 0.04681106 0.04070216 0.02203553
v 0.04681106 0.04070216 0.00237596
v 0.04735081 0.04065395 0.00234068
v 0.04735081 0.03896269 0.02540243
v 0.04630711 0.03864533 0.02574265
v 0.04679440 0.03852883 0.02571493
v 0.04580234 0.03873371 0.02578045
v 0.04630711 0.03907115 0.02551584
v 0.04580234 0.03907115 0.02559900
v 0.04530257 0.03903500 0.02569477
v 0.04580234 0.03940861 0.02537975
v 0.04479446 0.03976614 0.02525626
v 0.04440963 0.03980230 0.02528902
v 0.04479446 0.03999914 0.02500425
v 0.04376742 0.04014377 0.02501433
v 0.04392235 0.04031650 0.02478248
v 0.04429052 0.04044104 0.02449266
v 0.04328180 0.04052138 0.02455566
v 0.04277870 0.04057763 0.02455566
v 0.04150343 0.04083473 0.02430113
v 0.04130769 0.04073832 0.02452038
v 0.04116775 0.04084678 0.02432885
v 0.04076210 0.04085883 0.02436161
v 0.04025816 0.04087490 0.02439690
v 0.03975338 0.04089097 0.02443218
v 0.03924944 0.04090704 0.02446242
v 0.03884129 0.04091508 0.02448510
v 0.03884129 0.04106371 0.02405164
v 0.03975338 0.04111995 0.02354761
v 0.04076210 0.04106773 0.02354761
v 0.04126604 0.04103961 0.02354761
v 0.04378574 0.04091909 0.02304358
v 0.04507350 0.04083874 0.02281425
v 0.04176998 0.04100747 0.02354761
v 0.04227475 0.04097132 0.02354761
v 0.04455873 0.04083473 0.02330316
v 0.04429052 0.04089900 0.02253956
v 0.04580234 0.04078251 0.02253956
v 0.04479446 0.04086285 0.02253956
v 0.04630711 0.04073832 0.02253956
v 0.04681106 0.04069412 0.02253956
v 0.04735081 0.04065395 0.02203553
v 0.04735081 0.03921578 0.02523358
v 0.04731499 0.03921980 0.02523862
v 0.04656367 0.03932424 0.02531170
v 0.04630711 0.03935236 0.02533691
v 0.04580234 0.03966169 0.02516050
v 0.04630711 0.03987059 0.02485556
v 0.04580234 0.03991478 0.02490848
v 0.04529840 0.03995897 0.02495637
v 0.04567157 0.04034865 0.02433389
v 0.04479446 0.04040890 0.02443470
v 0.04429052 0.04028838 0.02474467
v 0.04429052 0.04064994 0.02405164
v 0.04378574 0.04070618 0.02405164
v 0.04176998 0.04082268 0.02426585
v 0.04316269 0.04084678 0.02383239
v 0.04277870 0.04086285 0.02388279
v 0.04227475 0.04088294 0.02394831
v 0.04130769 0.04090704 0.02409952
v 0.04076210 0.04095927 0.02405164
v 0.04025816 0.04099140 0.02405164
v 0.03975338 0.04101952 0.02405164
v 0.03884129 0.04094320 0.02440698
v 0.04489525 0.04082268 0.02315195
v 0.04475364 0.04084678 0.02300578
v 0.04526425 0.04080259 0.02300578
v 0.04630711 0.04069814 0.02304358
v 0.04735081 0.04064190 0.02253956
v 0.04277870 0.04093516 0.02354761
v 0.04378574 0.04081866 0.02371898
v 0.04475364 0.04077046 0.02350225
v 0.04529840 0.04070216 0.02354761
v 0.04378574 0.04087088 0.02346697
v 0.04735081 0.03951306 0.02498157
v 0.04731499 0.03951707 0.02498661
v 0.04696349 0.03980631 0.02478500
v 0.04662780 0.03983845 0.02482280
v 0.04680189 0.03997906 0.02459095
v 0.04630711 0.04009154 0.02455566
v 0.04529840 0.04020804 0.02462875
v 0.04582483 0.04019599 0.02452290
v 0.04600725 0.04032454 0.02428853
v 0.04630711 0.04042095 0.02399115
v 0.04529840 0.04052540 0.02405164
v 0.04479446 0.04058968 0.02405164
v 0.04630711 0.04058566 0.02354761
v 0.04580234 0.04064592 0.02354761
v 0.04349837 0.04083071 0.02378450
v 0.04277870 0.04077447 0.02413480
v 0.04227475 0.04079857 0.02420033
v 0.04331096 0.04088695 0.02358793
v 0.04731499 0.04058566 0.02304358
v 0.04735081 0.04058164 0.02304358
v 0.04735081 0.03976212 0.02473459
v 0.04731499 0.03976614 0.02473963
v 0.04735081 0.03977820 0.02471695
v 0.04731499 0.03996299 0.02448762
v 0.04630711 0.04030044 0.02424317
v 0.04722337 0.04035668 0.02385003
v 0.04681106 0.04052138 0.02354761
v 0.04735081 0.04042898 0.02360305
v 0.04735081 0.03995897 0.02448258
v 0.04735081 0.03997504 0.02445738
v 0.04735081 0.04017590 0.02413480
v 0.04681106 0.04025624 0.02416504
v 0.04735081 0.04023214 0.02404156
v 0.04735081 0.04024419 0.02401887
v 0.04735081 0.04042497 0.02361565
f 1 2 6
f 1 6 3
f 1 3 4
f 1 4 8
f 1 8 14
f 1 14 21
f 1 21 34
f 1 34 53
f 1 53 75
f 1 75 106
f 1 106 138
f 1 138 137
f 1 137 165
f 1 165 201
f 1 201 244
f 1 244 280
f 1 280 317
f 1 317 281
f 1 281 245
f 1 245 202
f 1 202 166
f 1 166 139
f 1 139 107
f 1 107 76
f 1 76 54
f 1 54 36
f 1 36 35
f 1 35 24
f 1 24 16
f 1 16 9
f 1 9 5
f 1 5 2
f 2 5 6
f 3 7 8
f 3 8 4
f 3 6 11
f 3 11 7
f 5 9 15
f 5 15 23
f 5 23 38
f 5 38 57
f 5 57 78
f 5 78 109
f 5 109 146
f 5 146 124
f 5 124 123
f 5 123 121
f 5 121 120
f 5 120 119
f 5 119 118
f 5 118 117
f 5 117 115
f 5 115 81
f 5 81 59
f 5 59 39
f 5 39 25
f 5 25 17
f 5 17 11
f 5 11 10
f 5 10 6
f 6 10 11
f 7 12 13
f 7 13 8
f 7 11 17
f 7 17 12
f 8 13 14
f 9 16 15
f 12 18 19
f 12 19 13
f 12 17 25
f 12 25 18
f 13 19 20
f 13 20 14
f 14 20 21
f 15 16 22
f 15 22 23
f 16 24 22
f 18 26 42
f 18 42 27
f 18 27 45
f 18 45 28
f 18 28 19
f 18 25 41
f 18 41 26
f 19 28 29
f 19 29 30
f 19 30 20
f 20 31 32
f 20 32 33
f 20 33 34
f 20 34 21
f 20 30 31
f 22 24 35
f 22 35 36
f 22 36 37
f 22 37 55
f 22 55 77
f 22 77 108
f 22 108 145
f 22 145 176
f 22 176 217
f 22 217 256
f 22 256 295
f 22 295 322
f 22 322 347
f 22 347 355
f 22 355 362
f 22 362 361
f 22 361 360
f 22 360 358
f 22 358 357
f 22 357 356
f 22 356 350
f 22 350 348
f 22 348 328
f 22 328 296
f 22 296 257
f 22 257 219
f 22 219 218
f 22 218 179
f 22 179 149
f 22 149 148
f 22 148 147
f 22 147 112
f 22 112 80
f 22 80 58
f 22 58 38
f 22 38 23
f 25 39 40
f 25 40 41
f 26 41 40
f 26 40 42
f 27 42 61
f 27 61 43
f 27 43 44
f 27 44 45
f 28 45 46
f 28 46 29
f 29 46 47
f 29 47 48
f 29 48 30
f 30 48 32
f 30 32 31
f 32 48 49
f 32 49 50
f 32 50 51
f 32 51 52
f 32 52 53
f 32 53 33
f 33 53 34
f 36 54 55
f 36 55 37
f 38 56 57
f 38 58 79
f 38 79 56
f 39 59 60
f 39 60 40
f 40 60 61
f 40 61 42
f 43 62 44
f 43 61 62
f 44 62 63
f 44 63 64
f 44 64 65
f 44 65 66
f 44 66 67
f 44 67 68
f 44 68 69
f 44 69 45
f 45 69 68
f 45 68 46
f 46 68 70
f 46 70 47
f 47 70 71
f 47 71 72
f 47 72 48
f 48 72 49
f 49 72 50
f 50 52 51
f 50 72 73
f 50 73 52
f 52 73 74
f 52 74 75
f 52 75 53
f 54 76 77
f 54 77 55
f 56 78 57
f 56 79 110
f 56 110 78
f 58 80 79
f 59 81 60
f 60 81 82
f 60 82 83
f 60 83 84
f 60 84 85
f 60 85 86
f 60 86 87
f 60 87 61
f 61 87 62
f 62 87 88
f 62 88 63
f 63 88 89
f 63 89 64
f 64 89 90
f 64 90 65
f 65 90 91
f 65 91 92
f 65 92 122
f 65 122 93
f 65 93 94
f 65 94 95
f 65 95 66
f 66 95 68
f 66 68 67
f 68 95 94
f 68 94 96
f 68 96 97
f 68 97 98
f 68 98 70
f 70 97 99
f 70 99 71
f 70 98 97
f 71 99 100
f 71 100 72
f 72 100 101
f 72 101 73
f 73 101 102
f 73 102 103
f 73 103 104
f 73 104 74
f 74 104 103
f 74 103 75
f 75 103 105
f 75 105 106
f 76 107 108
f 76 108 77
f 78 110 125
f 78 125 109
f 79 80 111
f 79 111 125
f 79 125 110
f 80 112 113
f 80 113 114
f 80 114 111
f 81 115 116
f 81 116 83
f 81 83 82
f 83 116 117
f 83 117 84
f 84 117 85
f 85 117 86
f 86 117 87
f 87 117 88
f 88 117 89
f 89 117 118
f 89 118 119
f 89 119 120
f 89 120 90
f 90 120 121
f 90 121 91
f 91 121 123
f 91 123 92
f 92 123 124
f 92 124 122
f 93 122 125
f 93 125 126
f 93 126 127
f 93 127 94
f 94 127 153
f 94 153 128
f 94 128 96
f 96 128 129
f 96 129 99
f 96 99 97
f 99 129 130
f 99 130 131
f 99 131 100
f 100 131 132
f 100 132 101
f 101 132 102
f 102 132 133
f 102 133 134
f 102 134 103
f 103 134 135
f 103 135 136
f 103 136 137
f 103 137 105
f 105 137 138
f 105 138 106
f 107 139 140
f 107 140 141
f 107 141 142
f 107 142 143
f 107 143 144
f 107 144 108
f 108 144 145
f 109 125 146
f 111 114 125
f 112 147 113
f 113 147 148
f 113 148 149
f 113 149 150
f 113 150 151
f 113 151 127
f 113 127 114
f 114 126 125
f 114 127 126
f 115 117 116
f 122 124 146
f 122 146 125
f 127 151 152
f 127 152 153
f 128 153 154
f 128 154 129
f 129 154 155
f 129 155 156
f 129 156 130
f 130 156 157
f 130 157 158
f 130 158 131
f 131 158 132
f 132 158 159
f 132 159 160
f 132 160 161
f 132 161 133
f 133 161 162
f 133 162 134
f 134 162 163
f 134 163 136
f 134 136 135
f 136 163 137
f 137 163 164
f 137 164 165
f 139 166 140
f 140 166 167
f 140 167 204
f 140 204 168
f 140 168 141
f 141 168 142
f 142 168 169
f 142 169 170
f 142 170 143
f 143 170 171
f 143 171 172
f 143 172 173
f 143 173 144
f 144 174 175
f 144 175 176
f 144 176 145
f 144 173 177
f 144 177 178
f 144 178 174
f 149 179 180
f 149 180 181
f 149 181 182
f 149 182 183
f 149 183 150
f 150 183 184
f 150 184 151
f 151 184 152
f 152 184 185
f 152 185 186
f 152 186 187
f 152 187 188
f 152 188 153
f 153 188 154
f 154 189 155
f 154 188 189
f 155 190 191
f 155 191 157
f 155 157 156
f 155 189 188
f 155 188 190
f 157 192 193
f 157 193 159
f 157 159 158
f 157 191 192
f 159 194 195
f 159 195 160
f 159 193 194
f 160 195 196
f 160 196 162
f 160 162 161
f 162 196 197
f 162 197 198
f 162 198 199
f 162 199 163
f 163 199 200
f 163 200 164
f 164 200 201
f 164 201 165
f 166 202 167
f 167 202 203
f 167 203 247
f 167 247 204
f 168 204 205
f 168 205 169
f 169 205 170
f 170 205 206
f 170 206 207
f 170 207 208
f 170 208 171
f 171 175 209
f 171 209 172
f 171 208 210
f 171 210 211
f 171 211 212
f 171 212 213
f 171 213 214
f 171 214 215
f 171 215 216
f 171 216 175
f 172 209 174
f 172 174 178
f 172 178 177
f 172 177 173
f 174 209 175
f 175 216 176
f 176 216 217
f 179 218 180
f 180 218 219
f 180 219 181
f 181 219 220
f 181 220 182
f 182 220 183
f 183 220 221
f 183 221 184
f 184 221 222
f 184 222 223
f 184 223 224
f 184 224 185
f 185 224 223
f 185 223 186
f 186 223 225
f 186 225 226
f 186 226 227
f 186 227 187
f 187 227 188
f 188 227 190
f 190 227 228
f 190 228 191
f 191 228 229
f 191 229 192
f 192 229 230
f 192 230 231
f 192 231 232
f 192 232 233
f 192 233 234
f 192 234 194
f 192 194 193
f 194 234 235
f 194 235 236
f 194 236 237
f 194 237 238
f 194 238 195
f 195 238 197
f 195 197 196
f 197 238 239
f 197 239 240
f 197 240 241
f 197 241 198
f 198 241 242
f 198 242 199
f 199 242 243
f 199 243 244
f 199 244 200
f 200 244 201
f 202 245 246
f 202 246 203
f 203 246 247
f 204 247 248
f 204 248 205
f 205 248 249
f 205 249 206
f 206 249 207
f 207 249 250
f 207 250 251
f 207 251 210
f 207 210 208
f 210 251 252
f 210 252 211
f 211 252 212
f 212 252 213
f 213 252 214
f 214 252 215
f 215 252 253
f 215 253 254
f 215 254 255
f 215 255 216
f 216 256 217
f 216 255 256
f 219 257 258
f 219 258 259
f 219 259 220
f 220 259 258
f 220 258 221
f 221 258 222
f 222 258 260
f 222 260 257
f 222 257 261
f 222 261 262
f 222 262 223
f 223 262 263
f 223 263 225
f 225 263 262
f 225 262 264
f 225 264 226
f 226 264 227
f 227 264 228
f 228 264 265
f 228 265 266
f 228 266 231
f 228 231 230
f 228 230 229
f 231 266 267
f 231 267 232
f 232 267 268
f 232 268 233
f 233 268 235
f 233 235 234
f 235 268 269
f 235 269 270
f 235 270 271
f 235 271 236
f 236 271 272
f 236 272 239
f 236 239 237
f 237 239 238
f 239 272 273
f 239 273 240
f 240 273 274
f 240 274 241
f 241 274 273
f 241 273 275
f 241 275 242
f 242 275 276
f 242 276 277
f 242 277 278
f 242 278 279
f 242 279 243
f 243 279 244
f 244 279 280
f 245 281 246
f 246 282 247
f 246 281 282
f 247 282 248
f 248 283 249
f 248 282 283
f 249 283 284
f 249 284 287
f 249 287 250
f 250 285 286
f 250 286 251
f 250 287 288
f 250 288 289
f 250 289 285
f 251 290 252
f 251 286 290
f 252 286 291
f 252 291 253
f 252 290 292
f 252 292 286
f 253 291 254
f 254 291 293
f 254 293 294
f 254 294 295
f 254 295 256
f 254 256 255
f 257 260 258
f 257 296 297
f 257 297 298
f 257 298 261
f 261 298 299
f 261 299 262
f 262 299 264
f 264 299 265
f 265 300 301
f 265 301 302
f 265 302 303
f 265 303 266
f 265 299 300
f 266 303 267
f 267 303 269
f 267 269 268
f 269 304 305
f 269 305 270
f 269 303 306
f 269 306 304
f 270 305 307
f 270 307 308
f 270 308 272
f 270 272 271
f 272 308 309
f 272 309 273
f 273 309 310
f 273 310 311
f 273 311 312
f 273 312 313
f 273 313 314
f 273 314 315
f 273 315 275
f 275 315 276
f 276 315 316
f 276 316 277
f 277 316 278
f 278 316 279
f 279 317 280
f 279 316 281
f 279 281 317
f 281 316 282
f 282 316 283
f 283 316 315
f 283 315 284
f 284 315 314
f 284 314 287
f 285 289 318
f 285 318 319
f 285 319 286
f 286 319 318
f 286 318 320
f 286 320 321
f 286 321 322
f 286 322 294
f 286 294 293
f 286 293 291
f 286 292 290
f 287 314 312
f 287 312 311
f 287 311 310
f 287 310 288
f 288 323 289
f 288 310 323
f 289 324 325
f 289 325 326
f 289 326 321
f 289 321 318
f 289 323 327
f 289 327 324
f 294 322 295
f 296 328 329
f 296 329 297
f 297 329 298
f 298 329 300
f 298 300 299
f 300 330 331
f 300 331 301
f 300 329 330
f 301 331 332
f 301 332 333
f 301 333 334
f 301 334 302
f 302 334 306
f 302 306 303
f 304 306 334
f 304 334 335
f 304 335 336
f 304 336 337
f 304 337 338
f 304 338 339
f 304 339 305
f 305 339 307
f 307 339 340
f 307 340 341
f 307 341 342
f 307 342 308
f 308 342 310
f 308 310 343
f 308 343 344
f 308 344 309
f 309 344 310
f 310 344 343
f 310 342 345
f 310 345 323
f 312 314 313
f 318 321 320
f 321 326 341
f 321 341 346
f 321 346 322
f 322 346 347
f 323 345 327
f 324 327 342
f 324 342 341
f 324 341 326
f 324 326 325
f 327 345 342
f 328 348 349
f 328 349 329
f 329 349 330
f 330 349 350
f 330 350 351
f 330 351 332
f 330 332 331
f 332 351 333
f 333 351 336
f 333 336 335
f 333 335 334
f 336 352 353
f 336 353 337
f 336 351 352
f 337 340 339
f 337 339 338
f 337 353 340
f 340 347 341
f 340 353 354
f 340 354 347
f 341 347 346
f 347 354 355
f 348 350 349
f 350 356 351
f 351 356 357
f 351 357 358
f 351 358 352
f 352 358 359
f 352 359 360
f 352 360 353
f 353 360 361
f 353 361 362
f 353 362 354
f 354 362 355
f 358 360 359
