# https://github.com/mikedh/trimesh
v 0.02928632 -0.03002463 0.01386775
v 0.02519691 -0.03002463 0.02035024
v 0.02928632 -0.02646738 0.01458899
v 0.02928632 -0.03002463 0.02652663
v 0.02519691 -0.02747653 0.02086948
v 0.02519691 -0.03002463 0.02652663
v 0.02928632 -0.02596400 0.01475505
v 0.02928632 -0.01979377 0.02652663
v 0.02519691 -0.02702962 0.02109378
v 0.02534943 -0.02716898 0.02073192
v 0.02519691 -0.02539576 0.02652663
v 0.02928632 -0.02573694 0.01497811
v 0.02519691 -0.02701880 0.02110122
v 0.02928632 -0.01929040 0.02652415
v 0.02916582 -0.01991511 0.02652663
v 0.02916582 -0.01941054 0.02652291
v 0.02519691 -0.02495485 0.02651671
v 0.02928632 -0.02041969 0.02151636
v 0.02519691 -0.02672567 0.02153124
v 0.02928632 -0.02004126 0.02202569
v 0.02928632 -0.02040767 0.02153124
v 0.02928632 -0.01878582 0.02649069
v 0.02519691 -0.02489118 0.02651423
v 0.02519691 -0.02653585 0.02188194
v 0.02928632 -0.01798812 0.02555754
v 0.02928632 -0.01972650 0.02253998
v 0.02928632 -0.01989949 0.02225247
v 0.02928632 -0.01799172 0.02640766
v 0.02519691 -0.02446109 0.02642253
v 0.02519691 -0.02456081 0.02560835
v 0.02519691 -0.02435417 0.02603217
v 0.02928632 -0.01775145 0.02606934
v 0.02928632 -0.01794727 0.02637792
v 0.02519691 -0.02439381 0.02640270
v 0.02519691 -0.02442265 0.02641386
v 0.02519691 -0.02432894 0.02609661
v 0.02519691 -0.02432894 0.02612635
v 0.02928632 -0.01776106 0.02617840
f 1 2 3
f 1 3 7
f 1 7 12
f 1 12 18
f 1 18 21
f 1 21 20
f 1 20 27
f 1 27 26
f 1 26 25
f 1 25 32
f 1 32 38
f 1 38 33
f 1 33 28
f 1 28 22
f 1 22 14
f 1 14 8
f 1 8 4
f 1 4 6
f 1 6 2
f 2 5 3
f 2 6 11
f 2 11 17
f 2 17 23
f 2 23 29
f 2 29 35
f 2 35 34
f 2 34 37
f 2 37 36
f 2 36 31
f 2 31 30
f 2 30 24
f 2 24 19
f 2 19 13
f 2 13 9
f 2 9 5
f 3 5 7
f 4 8 15
f 4 15 11
f 4 11 6
f 5 9 10
f 5 10 7
f 7 10 13
f 7 13 12
f 8 14 15
f 9 13 10
f 11 15 14
f 11 14 16
f 11 16 17
f 12 13 18
f 13 19 20
f 13 20 21
f 13 21 18
f 14 22 16
f 16 22 23
f 16 23 17
f 19 24 25
f 19 25 26
f 19 26 27
f 19 27 20
f 22 28 23
f 23 28 29
f 24 30 25
f 25 30 31
f 25 31 32
f 28 33 34
f 28 34 35
f 28 35 29
f 31 36 32
f 32 36 37
f 32 37 38
f 33 38 34
f 34 38 37
