# https://github.com/mikedh/trimesh
v 0.03089469 0.02841788 0.01651565
v 0.03089469 0.02841788 0.01012924
v 0.02940966 0.02841788 0.01651565
v 0.03089469 0.01748053 0.01651565
v 0.03089484 0.01748053 0.01510846
v 0.03086692 0.02841788 0.01019051
v 0.03089484 0.01748053 0.01077689
v 0.03089484 0.01688928 0.01077689
v 0.03089484 0.01606180 0.01077814
v 0.03089484 0.01556888 0.01078564
v 0.02940966 0.02841788 0.01384756
v 0.02940966 0.01868727 0.01651565
v 0.03072969 0.01748053 0.01651565
v 0.03089484 0.01551908 0.01131450
v 0.03089484 0.01725961 0.01510846
v 0.03075164 0.02841788 0.01047807
v 0.03089484 0.01537478 0.01089691
v 0.02940966 0.01840251 0.01436705
v 0.02940966 0.01854170 0.01435205
v 0.02941242 0.02841788 0.01383881
v 0.02940966 0.01810497 0.01484715
v 0.03089484 0.01537350 0.01090441
v 0.02940966 0.01809475 0.01458710
f 1 2 6
f 1 6 16
f 1 16 20
f 1 20 11
f 1 11 3
f 1 3 12
f 1 12 13
f 1 13 4
f 1 4 15
f 1 15 5
f 1 5 7
f 1 7 2
f 2 7 8
f 2 8 9
f 2 9 10
f 2 10 6
f 3 11 19
f 3 19 18
f 3 18 23
f 3 23 21
f 3 21 12
f 4 13 14
f 4 14 15
f 5 15 14
f 5 14 22
f 5 22 17
f 5 17 10
f 5 10 9
f 5 9 8
f 5 8 7
f 6 10 16
f 10 17 18
f 10 18 19
f 10 19 16
f 11 20 19
f 12 21 13
f 13 21 22
f 13 22 14
f 16 19 20
f 17 22 23
f 17 23 18
f 21 23 22
