# https://github.com/mikedh/trimesh
v 0.03319414 0.02798638 -0.00067826
v 0.03282700 0.02798638 -0.00055392
v 0.03089484 0.02873314 -0.00141599
v 0.03095473 0.02873314 -0.00141323
v 0.03089484 0.02878908 -0.00146296
v 0.03089484 0.02902066 -0.00157349
v 0.03089484 0.02927305 -0.00165085
v 0.03884129 0.02798638 0.00075576
v 0.03270955 0.02798638 -0.00014499
v 0.03089484 0.02798638 0.01074691
v 0.03089484 0.02949422 -0.00170058
v 0.03884129 0.03957554 0.00075576
v 0.03884129 0.02798638 0.02649623
v 0.03089484 0.02798638 0.02652663
v 0.03089484 0.04008032 -0.00169506
v 0.03884129 0.04008032 0.00075852
v 0.03884129 0.03755902 0.02649623
v 0.03874484 0.02798638 0.02649900
v 0.03622385 0.02798638 0.02652663
v 0.03089484 0.03755902 0.02652663
v 0.03089484 0.04032231 -0.00167572
v 0.03884129 0.04048754 0.00081378
v 0.03089484 0.04056299 -0.00165361
v 0.03874484 0.03755902 0.02649900
v 0.03884129 0.03806380 0.02648242
v 0.03824002 0.02798638 0.02651005
v 0.03723193 0.02798638 0.02652110
v 0.03622385 0.03755902 0.02652663
v 0.03089484 0.03806380 0.02652110
v 0.03884129 0.04058381 0.00082760
v 0.03089484 0.04093637 -0.00150441
v 0.03106596 0.04090385 -0.00146573
v 0.03824002 0.03755902 0.02651005
v 0.03874484 0.03806380 0.02648518
v 0.03884129 0.03856728 0.02641610
v 0.03723193 0.03755902 0.02652110
v 0.03622385 0.03806380 0.02651557
v 0.03089484 0.03856728 0.02647413
v 0.03884129 0.04094158 0.00100719
v 0.03089484 0.04113282 -0.00117008
v 0.03824002 0.03806380 0.02649623
v 0.03773598 0.03806380 0.02650452
v 0.03874484 0.03856728 0.02641887
v 0.03824002 0.03856728 0.02643268
v 0.03773598 0.03856728 0.02644373
v 0.03884129 0.03887952 0.02634150
v 0.03874484 0.03888472 0.02634426
v 0.03723193 0.03806380 0.02651005
v 0.03571980 0.03856728 0.02646031
v 0.03089484 0.03899660 0.02637742
v 0.03884129 0.04111721 0.00136639
v 0.03089484 0.04126943 -0.00065063
v 0.03118264 0.04126032 -0.00065063
v 0.03168668 0.04121478 -0.00065063
v 0.03723193 0.03856728 0.02645202
v 0.03824002 0.03890684 0.02635255
v 0.03773598 0.03892505 0.02635808
v 0.03884129 0.03913061 0.02624203
v 0.03874484 0.03913581 0.02624480
v 0.03824002 0.03915923 0.02625585
v 0.03622385 0.03895107 0.02636637
v 0.03089484 0.03924900 0.02629453
v 0.03874484 0.04112632 0.00136639
v 0.03884129 0.04118747 0.00187203
v 0.03089484 0.04127593 -0.00014499
v 0.03168668 0.04127593 -0.00014499
v 0.03319959 0.04127463 0.00035788
v 0.03471172 0.04127203 0.00086352
v 0.03521498 0.04125902 0.00086352
v 0.03723193 0.04122649 0.00136639
v 0.03773598 0.04120047 0.00136639
v 0.03824002 0.04116665 0.00136639
v 0.03723193 0.03893806 0.02636085
v 0.03672789 0.03894587 0.02636361
v 0.03773598 0.03917744 0.02626414
v 0.03723193 0.03919045 0.02626966
v 0.03884129 0.03922038 0.02619782
v 0.03874484 0.03957554 0.02602099
v 0.03824002 0.03957554 0.02604309
v 0.03571980 0.03920867 0.02627795
v 0.03089484 0.03957554 0.02613151
v 0.03874484 0.04119137 0.00187203
v 0.03884129 0.04118747 0.02253956
v 0.03089484 0.04127593 0.02304243
v 0.03269555 0.04127593 0.00035788
v 0.03420768 0.04127463 0.00086352
v 0.03521498 0.04126813 0.00136639
v 0.03571980 0.04126292 0.00136639
v 0.03622385 0.04125511 0.00136639
v 0.03672789 0.04124471 0.00136639
v 0.03471172 0.04127203 0.01044297
v 0.03672789 0.03919826 0.02627243
v 0.03773598 0.03957554 0.02605967
v 0.03723193 0.03957554 0.02607349
v 0.03672789 0.03957554 0.02608178
v 0.03884129 0.03957554 0.02601546
v 0.03884129 0.03962758 0.02598507
v 0.03874484 0.03986306 0.02584415
v 0.03824002 0.03987867 0.02585521
v 0.03571980 0.03957554 0.02609283
v 0.03089484 0.03994893 0.02590494
v 0.03824002 0.04120698 0.00187203
v 0.03874484 0.04119137 0.02253956
v 0.03884129 0.04118617 0.02294573
v 0.03089484 0.04125772 0.02354807
v 0.03319959 0.04127593 0.02304243
v 0.03370363 0.04127593 0.00086352
v 0.03420768 0.04127463 0.01699414
v 0.03521498 0.04126813 0.00792032
v 0.03571980 0.04126292 0.00288054
v 0.03672789 0.04124601 0.00187203
v 0.03622385 0.04125511 0.00590330
v 0.03723193 0.04123430 0.00187203
v 0.03773598 0.04122129 0.00187203
v 0.03471172 0.04127073 0.02253956
v 0.03521498 0.04126682 0.02253956
v 0.03773598 0.03989168 0.02586350
v 0.03723193 0.03990079 0.02587179
v 0.03672789 0.03990860 0.02587731
v 0.03622385 0.03991380 0.02588007
v 0.03884129 0.03986046 0.02584139
v 0.03824002 0.04013107 0.02563140
v 0.03773598 0.04014277 0.02564245
v 0.03723193 0.04015318 0.02565351
v 0.03571980 0.03991770 0.02588284
v 0.03521498 0.03992030 0.02588560
v 0.03089484 0.04005691 0.02581652
v 0.03824002 0.04120698 0.02253956
v 0.03824002 0.04120568 0.02304243
v 0.03874484 0.04118876 0.02304243
v 0.03884129 0.04118486 0.02304243
v 0.03089484 0.04121348 0.02383543
v 0.03420768 0.04124861 0.02354807
v 0.03370363 0.04127463 0.02304243
v 0.03370363 0.04127593 0.02253956
v 0.03571980 0.04126162 0.02253956
v 0.03672789 0.04124471 0.02253956
v 0.03723193 0.04123430 0.02253956
v 0.03622385 0.04125381 0.02304243
v 0.03773598 0.04122129 0.02253956
v 0.03471172 0.04126943 0.02304243
v 0.03521498 0.04126552 0.02304243
v 0.03672789 0.04016099 0.02566179
v 0.03622385 0.04016489 0.02566732
v 0.03884129 0.04011155 0.02561206
v 0.03874484 0.04011545 0.02561759
v 0.03824002 0.04039126 0.02537997
v 0.03773598 0.04040297 0.02539102
v 0.03723193 0.04041078 0.02540207
v 0.03571980 0.04016879 0.02567008
v 0.03521498 0.04017270 0.02567285
v 0.03089484 0.04020001 0.02569771
v 0.03773598 0.04121999 0.02304243
v 0.03773598 0.04119527 0.02354807
v 0.03824002 0.04117966 0.02354807
v 0.03874484 0.04116144 0.02354807
v 0.03884129 0.04115754 0.02354807
v 0.03089484 0.04117836 0.02405094
v 0.03471172 0.04124601 0.02354807
v 0.03571980 0.04126032 0.02304243
v 0.03723193 0.04123300 0.02304243
v 0.03571980 0.04123560 0.02354807
v 0.03622385 0.04122780 0.02354807
v 0.03672789 0.04121869 0.02354807
v 0.03521498 0.04124210 0.02354807
v 0.03672789 0.04041728 0.02540760
v 0.03622385 0.04042248 0.02541312
v 0.03571980 0.04042639 0.02541865
v 0.03884129 0.04016229 0.02556509
v 0.03884129 0.04037565 0.02536062
v 0.03874484 0.04059942 0.02505945
v 0.03824002 0.04062414 0.02505945
v 0.03773598 0.04064495 0.02505945
v 0.03672789 0.04066967 0.02506498
v 0.03622385 0.04067488 0.02507327
v 0.03089484 0.04030930 0.02558995
v 0.03723193 0.04120828 0.02354807
v 0.03773598 0.04110550 0.02405094
v 0.03824002 0.04108859 0.02405094
v 0.03884129 0.04108208 0.02395424
v 0.03089484 0.04108599 0.02433830
v 0.03471172 0.04115754 0.02405094
v 0.03571980 0.04114713 0.02405094
v 0.03672789 0.04112892 0.02405094
v 0.03521498 0.04115364 0.02405094
v 0.03571980 0.04067878 0.02508156
v 0.03521498 0.04068138 0.02508708
v 0.03089484 0.04070480 0.02512024
v 0.03089484 0.04045371 0.02544628
v 0.03884129 0.04059421 0.02505945
v 0.03824002 0.04081668 0.02476657
v 0.03773598 0.04082709 0.02478867
v 0.03735872 0.04083360 0.02480249
v 0.03720704 0.04069569 0.02500972
v 0.03702269 0.04083750 0.02480802
v 0.03672789 0.04084010 0.02481354
v 0.03622385 0.04084530 0.02482183
v 0.03723193 0.04111851 0.02405094
v 0.03773598 0.04093767 0.02453724
v 0.03824002 0.04092857 0.02451514
v 0.03874484 0.04091816 0.02449027
v 0.03884129 0.04094288 0.02440738
v 0.03884129 0.04106387 0.02405094
v 0.03089484 0.04101443 0.02455658
v 0.03521498 0.04097931 0.02455658
v 0.03571980 0.04097150 0.02455658
v 0.03672789 0.04095329 0.02455658
v 0.03571980 0.04084921 0.02483012
v 0.03521498 0.04085311 0.02483565
v 0.03089484 0.04077765 0.02501248
v 0.03884129 0.04080237 0.02473618
v 0.03874484 0.04080497 0.02474170
v 0.03884129 0.04082449 0.02468920
v 0.03720704 0.04092336 0.02460355
v 0.03884129 0.04091556 0.02448474
v 0.03089484 0.04087262 0.02486880
f 1 2 3
f 1 3 4
f 1 4 5
f 1 5 6
f 1 6 7
f 1 7 8
f 1 8 13
f 1 13 18
f 1 18 26
f 1 26 27
f 1 27 19
f 1 19 14
f 1 14 10
f 1 10 9
f 1 9 2
f 2 9 3
f 3 5 4
f 3 9 10
f 3 10 14
f 3 14 20
f 3 20 29
f 3 29 38
f 3 38 50
f 3 50 62
f 3 62 81
f 3 81 101
f 3 101 127
f 3 127 152
f 3 152 176
f 3 176 189
f 3 189 188
f 3 188 210
f 3 210 216
f 3 216 204
f 3 204 181
f 3 181 158
f 3 158 132
f 3 132 105
f 3 105 84
f 3 84 65
f 3 65 52
f 3 52 40
f 3 40 31
f 3 31 23
f 3 23 21
f 3 21 15
f 3 15 11
f 3 11 7
f 3 7 6
f 3 6 5
f 7 11 8
f 8 11 12
f 8 12 16
f 8 16 22
f 8 22 30
f 8 30 39
f 8 39 51
f 8 51 64
f 8 64 83
f 8 83 104
f 8 104 131
f 8 131 157
f 8 157 180
f 8 180 203
f 8 203 202
f 8 202 215
f 8 215 213
f 8 213 211
f 8 211 190
f 8 190 170
f 8 170 169
f 8 169 145
f 8 145 121
f 8 121 97
f 8 97 96
f 8 96 77
f 8 77 58
f 8 58 46
f 8 46 35
f 8 35 25
f 8 25 17
f 8 17 13
f 11 15 12
f 12 15 16
f 13 17 24
f 13 24 18
f 14 19 28
f 14 28 20
f 15 21 16
f 16 21 23
f 16 23 22
f 17 25 34
f 17 34 24
f 18 24 33
f 18 33 26
f 19 27 36
f 19 36 28
f 20 28 29
f 22 23 30
f 23 31 32
f 23 32 30
f 24 34 41
f 24 41 33
f 25 35 43
f 25 43 34
f 26 33 36
f 26 36 27
f 28 36 48
f 28 48 37
f 28 37 29
f 29 37 38
f 30 32 31
f 30 31 39
f 31 40 39
f 33 41 42
f 33 42 48
f 33 48 36
f 34 43 44
f 34 44 45
f 34 45 41
f 35 46 47
f 35 47 43
f 37 48 55
f 37 55 49
f 37 49 38
f 38 49 50
f 39 40 51
f 40 52 53
f 40 53 54
f 40 54 51
f 41 45 55
f 41 55 42
f 42 55 48
f 43 47 44
f 44 47 56
f 44 56 45
f 45 56 57
f 45 57 55
f 46 58 59
f 46 59 47
f 47 59 60
f 47 60 56
f 49 55 61
f 49 61 50
f 50 61 62
f 51 63 64
f 51 54 63
f 52 65 66
f 52 66 67
f 52 67 68
f 52 68 69
f 52 69 53
f 53 69 70
f 53 70 71
f 53 71 72
f 53 72 63
f 53 63 54
f 55 57 73
f 55 73 74
f 55 74 61
f 56 60 75
f 56 75 57
f 57 75 76
f 57 76 73
f 58 77 59
f 59 77 60
f 60 77 78
f 60 78 79
f 60 79 75
f 61 74 92
f 61 92 80
f 61 80 62
f 62 80 81
f 63 72 64
f 64 72 71
f 64 71 70
f 64 70 82
f 64 82 103
f 64 103 83
f 65 84 106
f 65 106 135
f 65 135 107
f 65 107 85
f 65 85 66
f 66 85 67
f 67 85 107
f 67 107 86
f 67 86 68
f 68 87 88
f 68 88 89
f 68 89 90
f 68 90 69
f 68 86 108
f 68 108 91
f 68 91 109
f 68 109 87
f 69 90 70
f 70 90 82
f 73 76 92
f 73 92 74
f 75 79 93
f 75 93 94
f 75 94 76
f 76 94 95
f 76 95 92
f 77 96 78
f 78 96 97
f 78 97 79
f 79 97 98
f 79 98 99
f 79 99 93
f 80 92 100
f 80 100 81
f 81 100 101
f 82 90 102
f 82 102 128
f 82 128 103
f 83 103 104
f 84 105 106
f 86 107 135
f 86 135 108
f 87 109 110
f 87 110 88
f 88 110 112
f 88 112 89
f 89 111 90
f 89 112 111
f 90 111 113
f 90 113 114
f 90 114 102
f 91 108 115
f 91 115 116
f 91 116 109
f 92 95 100
f 93 99 117
f 93 117 118
f 93 118 94
f 94 118 119
f 94 119 95
f 95 119 120
f 95 120 100
f 97 121 98
f 98 121 122
f 98 122 99
f 99 122 123
f 99 123 124
f 99 124 117
f 100 120 125
f 100 125 126
f 100 126 101
f 101 126 125
f 101 125 127
f 102 114 140
f 102 140 128
f 103 128 129
f 103 129 104
f 104 129 130
f 104 130 131
f 105 132 133
f 105 133 134
f 105 134 106
f 106 134 135
f 108 135 115
f 109 116 136
f 109 136 110
f 110 136 112
f 111 112 137
f 111 137 138
f 111 138 113
f 112 136 139
f 112 139 137
f 113 138 140
f 113 140 114
f 115 135 134
f 115 134 141
f 115 141 142
f 115 142 116
f 116 142 160
f 116 160 136
f 117 124 118
f 118 124 143
f 118 143 119
f 119 143 144
f 119 144 120
f 120 144 150
f 120 150 125
f 121 145 146
f 121 146 122
f 122 146 147
f 122 147 148
f 122 148 123
f 123 148 124
f 124 148 149
f 124 149 143
f 125 150 151
f 125 151 152
f 125 152 127
f 128 140 153
f 128 153 129
f 129 153 154
f 129 154 155
f 129 155 130
f 130 155 156
f 130 156 157
f 130 157 131
f 132 158 133
f 133 159 141
f 133 141 134
f 133 158 159
f 136 160 139
f 137 139 161
f 137 161 138
f 138 161 153
f 138 153 140
f 139 160 162
f 139 162 163
f 139 163 164
f 139 164 177
f 139 177 161
f 141 159 165
f 141 165 142
f 142 165 160
f 143 149 166
f 143 166 167
f 143 167 168
f 143 168 144
f 144 168 150
f 145 169 146
f 146 169 170
f 146 170 147
f 147 170 171
f 147 171 172
f 147 172 173
f 147 173 148
f 148 173 149
f 149 173 174
f 149 174 175
f 149 175 166
f 150 168 151
f 151 168 152
f 152 168 176
f 153 161 177
f 153 177 154
f 154 177 198
f 154 198 178
f 154 178 155
f 155 178 179
f 155 179 156
f 156 179 157
f 157 179 180
f 158 181 182
f 158 182 159
f 159 182 185
f 159 185 165
f 160 165 162
f 162 165 185
f 162 185 183
f 162 183 163
f 163 183 184
f 163 184 164
f 164 184 198
f 164 198 177
f 166 175 186
f 166 186 167
f 167 186 168
f 168 186 187
f 168 187 188
f 168 188 189
f 168 189 176
f 170 190 171
f 171 190 191
f 171 191 192
f 171 192 172
f 172 192 193
f 172 193 173
f 173 193 194
f 173 194 174
f 174 194 193
f 174 193 195
f 174 195 196
f 174 196 197
f 174 197 175
f 175 197 208
f 175 208 186
f 178 198 199
f 178 199 200
f 178 200 179
f 179 200 201
f 179 201 202
f 179 202 203
f 179 203 180
f 181 204 182
f 182 204 185
f 183 185 205
f 183 205 206
f 183 206 207
f 183 207 184
f 184 207 198
f 185 204 205
f 186 208 209
f 186 209 187
f 187 209 188
f 188 209 210
f 190 211 212
f 190 212 191
f 191 212 213
f 191 213 201
f 191 201 200
f 191 200 192
f 192 200 199
f 192 199 193
f 193 199 214
f 193 214 207
f 193 207 195
f 195 197 196
f 195 207 206
f 195 206 197
f 197 206 205
f 197 205 208
f 198 207 199
f 199 207 214
f 201 215 202
f 201 213 215
f 204 216 209
f 204 209 205
f 205 209 208
f 209 216 210
f 211 213 212
