# https://github.com/mikedh/trimesh
v 0.03219177 -0.02950354 0.00577521
v 0.03270733 -0.02950354 -0.00014618
v 0.03890128 -0.02950354 0.00577521
v 0.03219965 -0.00830559 0.00577521
v 0.03271521 -0.00830144 -0.00014618
v 0.03282752 -0.02950354 -0.00056196
v 0.03283278 -0.00830144 -0.00056133
v 0.03890128 -0.02950354 0.00076373
v 0.03890128 -0.00830144 0.00577521
v 0.03262918 -0.00830144 0.00577521
v 0.03226008 -0.00830144 0.00541756
v 0.03319925 -0.02950354 -0.00068012
v 0.03318546 -0.00830144 -0.00067507
v 0.03319925 -0.00830144 -0.00067949
v 0.03890128 -0.00847579 0.00076310
v 0.03890128 -0.00830144 0.00076310
f 1 2 6
f 1 6 12
f 1 12 8
f 1 8 3
f 1 3 9
f 1 9 10
f 1 10 4
f 1 4 5
f 1 5 2
f 2 5 7
f 2 7 6
f 3 8 15
f 3 15 16
f 3 16 9
f 4 10 11
f 4 11 5
f 5 11 10
f 5 10 9
f 5 9 16
f 5 16 14
f 5 14 13
f 5 13 7
f 6 7 13
f 6 13 14
f 6 14 12
f 8 12 15
f 12 14 16
f 12 16 15
