# https://github.com/mikedh/trimesh
v 0.03674721 -0.00830144 0.02652459
v 0.03725151 -0.00830144 0.02652256
v 0.03219157 -0.00830144 0.02652459
v 0.03672788 -0.02950354 0.02652459
v 0.03775503 -0.00830144 0.02651647
v 0.03723217 -0.02950354 0.02652256
v 0.03773646 -0.02950354 0.02651647
v 0.03182495 -0.00830144 0.02642709
v 0.03118298 -0.01285735 0.02650225
v 0.03118298 -0.01336172 0.02652459
v 0.03099967 -0.02950354 0.02652459
v 0.03876361 -0.00830144 0.02650022
v 0.03874427 -0.02950354 0.02650022
v 0.03181180 -0.00830144 0.02642303
v 0.03099967 -0.01309812 0.02646366
v 0.03099967 -0.01336172 0.02647584
v 0.03099967 -0.01356512 0.02648397
v 0.03099967 -0.01455310 0.02652053
v 0.03099967 -0.01505747 0.02652459
v 0.03099967 -0.02950354 0.01043900
v 0.03890051 -0.00830144 0.02649616
v 0.03890051 -0.02950354 0.02649616
v 0.03167181 -0.00830144 0.02608178
v 0.03140806 -0.00992870 0.02635194
v 0.03137248 -0.01033551 0.02638850
v 0.03099967 -0.01285735 0.02644741
v 0.03219234 -0.02950354 0.00577521
v 0.03099967 -0.02792817 0.01044712
v 0.03220008 -0.00830559 0.00577521
v 0.03890051 -0.00830144 0.00577521
v 0.03890051 -0.02950354 0.00577521
v 0.03166717 -0.00830144 0.02606756
v 0.03099967 -0.01193786 0.02606756
v 0.03099967 -0.01238827 0.02639053
v 0.03099967 -0.01256884 0.02641491
v 0.03099967 -0.02690699 0.01045321
v 0.03186208 -0.00830144 0.00741647
v 0.03217842 -0.00830144 0.00590318
v 0.03262934 -0.00830144 0.00577521
v 0.03099967 -0.02639847 0.01045728
v 0.03099967 -0.02545823 0.01046743
v 0.03099967 -0.02541464 0.01046947
v 0.03099967 -0.02498084 0.01048978
v 0.03165943 -0.00830144 0.02558412
v 0.03099967 -0.01202504 0.02556381
v 0.03165943 -0.00830144 0.02556381
v 0.03180871 -0.00830144 0.00792023
v 0.03185976 -0.00830144 0.00743679
v 0.03136474 -0.01638584 0.00943352
v 0.03127889 -0.01689021 0.00993727
v 0.03099967 -0.01689021 0.01316496
v 0.03118994 -0.01689021 0.01094478
v 0.03099967 -0.01417119 0.01898454
v 0.03099967 -0.01618866 0.01398356
v 0.03099967 -0.01592921 0.01447512
v 0.03099967 -0.01588563 0.01456247
v 0.03099967 -0.01569882 0.01497481
v 0.03099967 -0.01547466 0.01548263
v 0.03099967 -0.01525465 0.01599857
v 0.03099967 -0.01506577 0.01649014
v 0.03099967 -0.01470047 0.01748343
v 0.03099967 -0.01451159 0.01800140
v 0.03099967 -0.01433517 0.01850516
v 0.03099967 -0.01654981 0.01346558
v 0.03099967 -0.01639415 0.01361183
f 1 2 5
f 1 5 12
f 1 12 21
f 1 21 30
f 1 30 39
f 1 39 38
f 1 38 37
f 1 37 48
f 1 48 47
f 1 47 46
f 1 46 44
f 1 44 32
f 1 32 23
f 1 23 14
f 1 14 8
f 1 8 3
f 1 3 10
f 1 10 19
f 1 19 11
f 1 11 4
f 1 4 6
f 1 6 2
f 2 6 7
f 2 7 5
f 3 8 9
f 3 9 10
f 4 11 20
f 4 20 27
f 4 27 31
f 4 31 22
f 4 22 13
f 4 13 7
f 4 7 6
f 5 7 12
f 7 13 12
f 8 14 15
f 8 15 9
f 9 15 16
f 9 16 10
f 10 16 17
f 10 17 18
f 10 18 19
f 11 19 18
f 11 18 17
f 11 17 16
f 11 16 15
f 11 15 26
f 11 26 35
f 11 35 34
f 11 34 33
f 11 33 45
f 11 45 53
f 11 53 63
f 11 63 62
f 11 62 61
f 11 61 60
f 11 60 59
f 11 59 58
f 11 58 57
f 11 57 56
f 11 56 55
f 11 55 54
f 11 54 65
f 11 65 64
f 11 64 51
f 11 51 43
f 11 43 42
f 11 42 41
f 11 41 40
f 11 40 36
f 11 36 28
f 11 28 20
f 12 13 22
f 12 22 21
f 14 23 24
f 14 24 25
f 14 25 26
f 14 26 15
f 20 28 29
f 20 29 27
f 21 22 31
f 21 31 30
f 23 32 24
f 24 32 33
f 24 33 34
f 24 34 25
f 25 34 35
f 25 35 26
f 27 29 39
f 27 39 30
f 27 30 31
f 28 36 29
f 29 37 38
f 29 38 39
f 29 36 40
f 29 40 41
f 29 41 42
f 29 42 43
f 29 43 37
f 32 44 33
f 33 44 46
f 33 46 47
f 33 47 45
f 37 43 49
f 37 49 50
f 37 50 48
f 43 51 52
f 43 52 50
f 43 50 49
f 45 47 53
f 47 54 55
f 47 55 56
f 47 56 57
f 47 57 58
f 47 58 59
f 47 59 60
f 47 60 61
f 47 61 62
f 47 62 63
f 47 63 53
f 47 48 50
f 47 50 52
f 47 52 51
f 47 51 64
f 47 64 65
f 47 65 54
