# https://github.com/mikedh/trimesh
v 0.03168633 0.02798637 0.02652496
v 0.03089477 0.02798637 0.02652496
v 0.03184380 0.02798019 0.02652496
v 0.03184380 0.02798637 0.02241098
v 0.03089477 0.02798637 0.01074914
v 0.02968737 0.01747925 0.02606710
v 0.02980136 0.01747925 0.02641467
v 0.03017434 0.01747925 0.02651660
v 0.03067841 0.01747925 0.02652496
v 0.03184380 0.01185029 0.02652496
v 0.03184380 0.02798637 0.00945579
v 0.03116411 0.02798637 0.00993871
v 0.03131504 0.02797812 0.00945579
v 0.03132137 0.01689346 0.00945579
v 0.03089477 0.01606428 0.01078089
v 0.02991745 0.01662119 0.02632611
v 0.02987903 0.01688934 0.02636454
v 0.03089477 0.01557130 0.01078757
v 0.03089477 0.01537742 0.01089786
v 0.03093002 0.01512577 0.01069400
v 0.03184380 0.00848818 0.01766871
v 0.03184380 0.00838298 0.01806306
v 0.03184380 0.00828191 0.01846410
v 0.03184380 0.00818703 0.01887516
v 0.03184380 0.00751254 0.02223218
v 0.03184380 0.00743416 0.02265828
v 0.03184380 0.00720521 0.02393994
v 0.03184380 0.00712889 0.02436938
v 0.03184380 0.00705464 0.02480049
v 0.03184380 0.00692882 0.02556247
v 0.03184380 0.00691644 0.02606543
v 0.03017434 0.01739468 0.02651493
v 0.02981402 0.01739468 0.02641133
v 0.03184380 0.00781575 0.02641133
v 0.03168633 0.01134700 0.02651994
v 0.03067841 0.01588276 0.02652328
v 0.03067841 0.01638605 0.02652496
v 0.03168633 0.01185029 0.02652496
v 0.03184380 0.01134700 0.02652328
v 0.03162343 0.02798637 0.00945579
v 0.03184380 0.01137176 0.00945579
v 0.03132348 0.01489682 0.00945579
v 0.03132432 0.01439353 0.00945579
v 0.03184380 0.00731247 0.02626762
v 0.03132960 0.01389025 0.00945579
v 0.03138702 0.01336015 0.00945579
v 0.03138934 0.01334365 0.00945579
v 0.03143894 0.01303219 0.00945579
v 0.03184380 0.00951125 0.01415128
v 0.03184380 0.00940605 0.01447545
v 0.03184380 0.00914616 0.01530092
v 0.03184380 0.00903272 0.01569193
v 0.03168633 0.01084372 0.02650156
v 0.03184380 0.01084372 0.02650825
v 0.03184380 0.01021049 0.01232990
v 0.03184380 0.01006610 0.01269083
v 0.03184380 0.00964120 0.01378031
f 1 2 9
f 1 9 37
f 1 37 38
f 1 38 10
f 1 10 3
f 1 3 4
f 1 4 11
f 1 11 40
f 1 40 12
f 1 12 5
f 1 5 2
f 2 5 6
f 2 6 7
f 2 7 8
f 2 8 9
f 3 10 39
f 3 39 54
f 3 54 34
f 3 34 44
f 3 44 31
f 3 31 30
f 3 30 29
f 3 29 28
f 3 28 27
f 3 27 26
f 3 26 25
f 3 25 24
f 3 24 23
f 3 23 22
f 3 22 21
f 3 21 52
f 3 52 51
f 3 51 50
f 3 50 49
f 3 49 57
f 3 57 56
f 3 56 55
f 3 55 41
f 3 41 11
f 3 11 4
f 5 12 13
f 5 13 14
f 5 14 15
f 5 15 6
f 6 16 17
f 6 17 7
f 6 15 18
f 6 18 19
f 6 19 20
f 6 20 21
f 6 21 22
f 6 22 23
f 6 23 24
f 6 24 25
f 6 25 26
f 6 26 27
f 6 27 28
f 6 28 29
f 6 29 30
f 6 30 31
f 6 31 16
f 7 32 8
f 7 17 33
f 7 33 34
f 7 34 32
f 8 32 35
f 8 35 36
f 8 36 37
f 8 37 9
f 10 38 39
f 11 41 48
f 11 48 47
f 11 47 46
f 11 46 45
f 11 45 43
f 11 43 42
f 11 42 14
f 11 14 13
f 11 13 40
f 12 40 13
f 14 42 15
f 15 42 43
f 15 43 18
f 16 31 44
f 16 44 17
f 17 44 34
f 17 34 33
f 18 43 45
f 18 45 20
f 18 20 19
f 20 45 46
f 20 46 47
f 20 47 48
f 20 48 49
f 20 49 50
f 20 50 51
f 20 51 52
f 20 52 21
f 32 34 53
f 32 53 35
f 34 54 35
f 34 35 53
f 35 54 39
f 35 39 38
f 35 38 36
f 36 38 37
f 41 55 48
f 48 55 56
f 48 56 57
f 48 57 49
