# https://github.com/mikedh/trimesh
v 0.02940926 0.01809504 0.01458851
v 0.02937523 0.01810919 0.01484041
v 0.02937523 0.01810919 0.01460961
v 0.02940926 0.01840327 0.01436887
v 0.02940926 0.01833657 0.02606795
v 0.02814519 0.01899143 0.01749839
v 0.02814519 0.01901569 0.01701692
v 0.02814519 0.01926934 0.01673897
v 0.02940926 0.01854273 0.01435398
v 0.02814519 0.01941083 0.01668685
v 0.02940926 0.01849018 0.02637693
v 0.02937140 0.01851242 0.02636825
v 0.02814519 0.01925924 0.02606795
v 0.02814519 0.01925823 0.02605679
v 0.02814519 0.01922387 0.02556415
v 0.02940926 0.02841716 0.01384894
v 0.02823256 0.02841716 0.01606020
v 0.02814519 0.02841716 0.01629101
v 0.02940926 0.01890755 0.02644022
v 0.02814519 0.01991511 0.02652584
v 0.02814519 0.01947853 0.02642285
v 0.02940926 0.02841716 0.02652584
v 0.02814519 0.02841716 0.02652584
v 0.02940926 0.01939870 0.02648489
v 0.02940926 0.01991511 0.02652584
f 1 2 3
f 1 3 4
f 1 4 9
f 1 9 16
f 1 16 22
f 1 22 25
f 1 25 24
f 1 24 19
f 1 19 11
f 1 11 5
f 1 5 2
f 2 6 3
f 2 5 6
f 3 6 7
f 3 7 8
f 3 8 4
f 4 8 10
f 4 10 9
f 5 11 12
f 5 12 13
f 5 13 14
f 5 14 15
f 5 15 6
f 6 15 14
f 6 14 13
f 6 13 21
f 6 21 20
f 6 20 23
f 6 23 18
f 6 18 10
f 6 10 8
f 6 8 7
f 9 10 17
f 9 17 16
f 10 18 17
f 11 19 20
f 11 20 21
f 11 21 12
f 12 21 13
f 16 17 18
f 16 18 23
f 16 23 22
f 19 24 20
f 20 24 25
f 20 25 22
f 20 22 23
