# https://github.com/mikedh/trimesh
v 0.02519591 0.02870683 0.02652663
v 0.02059575 0.02870683 0.02652663
v 0.02519591 0.02797349 0.02652663
v 0.02519591 0.02870683 0.01952713
v 0.02009163 0.02870683 0.02650059
v 0.02059575 0.02797349 0.02652663
v 0.02519591 0.01991509 0.02652594
v 0.02479476 0.02870683 0.01968334
v 0.02519591 0.01976749 0.02088373
v 0.01915601 0.02870683 0.02633136
v 0.02009163 0.01991509 0.02648415
v 0.02059575 0.01991509 0.02652594
v 0.02519591 0.01947880 0.02642385
v 0.01919708 0.02870683 0.02517414
v 0.02022257 0.01991509 0.02572089
v 0.02519591 0.01953264 0.02100363
v 0.02026364 0.01955677 0.02575240
v 0.01912506 0.02870683 0.02606894
v 0.01980535 0.01958184 0.02636150
v 0.01978750 0.01991509 0.02638137
v 0.02009163 0.01951036 0.02640261
v 0.02059575 0.01947880 0.02642385
v 0.02519591 0.01928664 0.02611417
v 0.01911613 0.02870683 0.02559688
v 0.01997081 0.01991509 0.02597165
v 0.01980535 0.01958184 0.02625599
v 0.02519591 0.01950015 0.02106872
v 0.02062194 0.01947230 0.02557701
v 0.02009401 0.01947787 0.02608059
v 0.02059575 0.01929036 0.02606894
v 0.02109987 0.01925880 0.02606894
v 0.02519591 0.01925880 0.02606894
v 0.02519591 0.01931078 0.02153256
v 0.02513223 0.01932285 0.02153256
v 0.02109987 0.01928571 0.02556467
v 0.02160399 0.01922445 0.02556467
v 0.02210811 0.01922352 0.02556467
v 0.02519591 0.01922352 0.02556467
v 0.02519591 0.01922630 0.02203684
v 0.02513223 0.01922630 0.02203684
v 0.02513223 0.01922352 0.02254111
v 0.02462751 0.01922352 0.02304401
v 0.02361927 0.01922352 0.02405186
v 0.02261163 0.01922352 0.02506040
v 0.02519591 0.01922352 0.02254111
f 1 2 6
f 1 6 3
f 1 3 7
f 1 7 13
f 1 13 23
f 1 23 32
f 1 32 38
f 1 38 45
f 1 45 39
f 1 39 33
f 1 33 27
f 1 27 16
f 1 16 9
f 1 9 4
f 1 4 8
f 1 8 14
f 1 14 24
f 1 24 18
f 1 18 10
f 1 10 5
f 1 5 2
f 2 5 6
f 3 6 12
f 3 12 7
f 4 9 8
f 5 10 11
f 5 11 12
f 5 12 6
f 7 12 22
f 7 22 13
f 8 9 15
f 8 15 14
f 9 16 17
f 9 17 15
f 10 18 19
f 10 19 20
f 10 20 11
f 11 20 19
f 11 19 21
f 11 21 12
f 12 21 22
f 13 22 23
f 14 15 25
f 14 25 26
f 14 26 24
f 15 17 25
f 16 27 17
f 17 26 25
f 17 27 28
f 17 28 29
f 17 29 26
f 18 24 19
f 19 26 30
f 19 30 21
f 19 24 26
f 21 30 22
f 22 30 31
f 22 31 23
f 23 31 32
f 26 29 30
f 27 33 34
f 27 34 28
f 28 34 35
f 28 35 29
f 29 35 30
f 30 35 36
f 30 36 31
f 31 36 37
f 31 37 38
f 31 38 32
f 33 39 40
f 33 40 35
f 33 35 34
f 35 40 36
f 36 41 42
f 36 42 43
f 36 43 44
f 36 44 37
f 36 40 41
f 37 44 43
f 37 43 42
f 37 42 41
f 37 41 45
f 37 45 38
f 39 45 41
f 39 41 40
