# https://github.com/mikedh/trimesh
v 0.03089428 0.02842041 0.01012988
v 0.03089428 0.02842041 0.02652352
v 0.02519651 0.02842041 0.02053085
v 0.02519651 0.02872374 -0.00417921
v 0.02519651 0.02872878 -0.00457997
v 0.02519651 0.02873004 -0.00462657
v 0.03089428 0.02873255 -0.00141743
v 0.03089428 0.03777574 0.02652352
v 0.02519651 0.02842041 0.02652352
v 0.02519651 0.02876025 -0.00474772
v 0.02589151 0.02873633 -0.00443085
v 0.03089428 0.02878919 -0.00146092
v 0.02916570 0.03806271 0.02652352
v 0.03089428 0.03806271 0.02652041
v 0.02519651 0.03812690 0.02652352
v 0.02519651 0.02886093 -0.00492480
v 0.02526232 0.02878290 -0.00481296
v 0.02519651 0.02904343 -0.00508324
v 0.03089428 0.02901952 -0.00157586
v 0.02544137 0.02911895 -0.00497761
v 0.02519651 0.03856742 0.02651420
v 0.03089428 0.03856742 0.02647381
v 0.03067786 0.03856742 0.02647692
v 0.02714931 0.03856742 0.02650488
v 0.02664507 0.03856742 0.02650799
v 0.02519651 0.02942480 -0.00520129
v 0.03089428 0.02927250 -0.00165042
v 0.02519651 0.03907213 0.02644896
v 0.03089428 0.03874866 0.02643343
v 0.02563716 0.03907213 0.02644275
v 0.02519651 0.02949402 -0.00520750
v 0.03089428 0.02949402 -0.00170013
v 0.02519651 0.03911366 0.02643964
v 0.03089428 0.03899661 0.02637751
v 0.02519651 0.02991314 -0.00521061
v 0.03089428 0.02999747 -0.00170013
v 0.02519651 0.03941951 0.02635887
v 0.03089428 0.03924833 0.02629363
v 0.03067786 0.03925337 0.02629674
v 0.02842552 0.03932385 0.02632159
v 0.02519651 0.03957557 -0.00520750
v 0.03089428 0.03633840 -0.00169702
v 0.02519651 0.03967249 0.02625014
v 0.03089428 0.03957557 0.02613209
v 0.02519651 0.04008028 -0.00520440
v 0.03089428 0.04008028 -0.00169392
v 0.02519651 0.03973542 0.02621286
v 0.03089428 0.03973416 0.02603578
v 0.02519651 0.04008657 0.02600161
v 0.02519651 0.04041256 -0.00517644
v 0.03089428 0.04032193 -0.00167528
v 0.03089428 0.03994812 0.02590530
v 0.02519651 0.04033956 0.02582142
v 0.02519651 0.04055982 -0.00516090
v 0.03089428 0.04056233 -0.00165353
v 0.03089428 0.04020111 0.02570027
v 0.02541795 0.04033326 0.02581832
v 0.03089428 0.04045283 0.02544552
v 0.02519651 0.04060135 0.02552629
v 0.02519651 0.04090594 -0.00502111
v 0.02539564 0.04084552 -0.00494344
v 0.03089428 0.04093614 -0.00150441
v 0.03089428 0.04030935 0.02559153
v 0.02519651 0.04081280 0.02527466
v 0.03089428 0.04070581 0.02511933
v 0.02519651 0.04110606 -0.00467938
v 0.03089428 0.04113249 -0.00116890
v 0.02519651 0.04083042 0.02524359
v 0.03089428 0.04087195 0.02486769
v 0.02519651 0.04125205 -0.00417921
v 0.02563716 0.04118283 -0.00417921
v 0.03067786 0.04119668 -0.00115336
v 0.03089428 0.04126842 -0.00065009
v 0.02519651 0.04094873 0.02502302
v 0.03089428 0.04093237 0.02473721
v 0.02519651 0.04127597 -0.00367283
v 0.02563716 0.04127094 -0.00367283
v 0.03017362 0.04125583 -0.00115336
v 0.03067786 0.04127597 -0.00065009
v 0.03089428 0.04127723 -0.00014371
v 0.02519651 0.04114004 0.02455392
v 0.03089428 0.04101418 0.02455392
v 0.02519651 0.04127723 -0.00316956
v 0.02563716 0.04127723 -0.00316956
v 0.02664507 0.04127723 -0.00266629
v 0.02614139 0.04127597 -0.00316956
v 0.03017362 0.04127723 -0.00065009
v 0.03089428 0.04127723 0.02304410
v 0.02519651 0.04115388 0.02449179
v 0.03089428 0.04108592 0.02433956
v 0.03089428 0.04117906 0.02405065
v 0.02519651 0.04127723 0.02304410
v 0.02519651 0.04127597 0.02354738
v 0.02714931 0.04127220 0.02354738
v 0.02765355 0.04127094 0.02354738
v 0.03067786 0.04125835 0.02354738
v 0.03089428 0.04126590 0.02332991
v 0.02714931 0.04122562 0.02405065
v 0.02563716 0.04124199 0.02405065
v 0.02519651 0.04124576 0.02405065
v 0.03089428 0.04121304 0.02383319
v 0.02519651 0.04125080 0.02398852
v 0.03089428 0.04125709 0.02354738
f 1 2 9
f 1 9 3
f 1 3 4
f 1 4 5
f 1 5 6
f 1 6 7
f 1 7 12
f 1 12 19
f 1 19 27
f 1 27 32
f 1 32 36
f 1 36 42
f 1 42 46
f 1 46 51
f 1 51 55
f 1 55 62
f 1 62 67
f 1 67 73
f 1 73 80
f 1 80 88
f 1 88 97
f 1 97 103
f 1 103 101
f 1 101 91
f 1 91 90
f 1 90 82
f 1 82 75
f 1 75 69
f 1 69 65
f 1 65 58
f 1 58 63
f 1 63 56
f 1 56 52
f 1 52 48
f 1 48 44
f 1 44 38
f 1 38 34
f 1 34 29
f 1 29 22
f 1 22 14
f 1 14 8
f 1 8 2
f 2 8 13
f 2 13 15
f 2 15 9
f 3 9 15
f 3 15 21
f 3 21 28
f 3 28 33
f 3 33 37
f 3 37 43
f 3 43 47
f 3 47 49
f 3 49 53
f 3 53 59
f 3 59 64
f 3 64 68
f 3 68 74
f 3 74 81
f 3 81 89
f 3 89 100
f 3 100 102
f 3 102 93
f 3 93 92
f 3 92 83
f 3 83 76
f 3 76 70
f 3 70 66
f 3 66 60
f 3 60 54
f 3 54 50
f 3 50 45
f 3 45 41
f 3 41 35
f 3 35 31
f 3 31 26
f 3 26 18
f 3 18 16
f 3 16 10
f 3 10 6
f 3 6 5
f 3 5 4
f 6 10 11
f 6 11 7
f 7 11 12
f 8 14 13
f 10 16 17
f 10 17 11
f 11 17 16
f 11 16 18
f 11 18 12
f 12 18 20
f 12 20 19
f 13 14 21
f 13 21 15
f 14 22 23
f 14 23 24
f 14 24 25
f 14 25 21
f 18 26 20
f 19 20 27
f 20 26 27
f 21 25 28
f 22 29 30
f 22 30 23
f 23 30 28
f 23 28 24
f 24 28 25
f 26 31 32
f 26 32 27
f 28 30 33
f 29 34 30
f 30 34 33
f 31 35 32
f 32 35 36
f 33 34 37
f 34 38 39
f 34 39 40
f 34 40 37
f 35 41 36
f 36 41 42
f 37 40 43
f 38 44 43
f 38 43 40
f 38 40 39
f 41 45 46
f 41 46 42
f 43 44 47
f 44 48 49
f 44 49 47
f 45 50 51
f 45 51 46
f 48 52 49
f 49 52 53
f 50 54 55
f 50 55 51
f 52 56 57
f 52 57 53
f 53 57 58
f 53 58 59
f 54 60 61
f 54 61 55
f 55 61 62
f 56 63 57
f 57 63 58
f 58 64 59
f 58 65 64
f 60 66 62
f 60 62 61
f 62 66 67
f 64 65 69
f 64 69 68
f 66 70 71
f 66 71 72
f 66 72 67
f 67 72 73
f 68 69 74
f 69 75 74
f 70 76 77
f 70 77 73
f 70 73 78
f 70 78 72
f 70 72 71
f 72 78 73
f 73 79 80
f 73 77 79
f 74 75 82
f 74 82 81
f 76 83 84
f 76 84 85
f 76 85 86
f 76 86 77
f 77 86 79
f 79 87 80
f 79 86 85
f 79 85 87
f 80 87 85
f 80 85 84
f 80 84 83
f 80 83 92
f 80 92 88
f 81 82 90
f 81 90 91
f 81 91 89
f 88 92 93
f 88 93 94
f 88 94 95
f 88 95 96
f 88 96 97
f 89 91 98
f 89 98 99
f 89 99 100
f 91 101 98
f 93 102 94
f 94 102 95
f 95 102 96
f 96 103 97
f 96 102 100
f 96 100 103
f 98 101 103
f 98 103 99
f 99 103 100
