# https://github.com/mikedh/trimesh
v 0.03099967 -0.04127607 -0.00032782
v 0.03099967 -0.04126570 -0.00065054
v 0.03168727 -0.04127607 -0.00014577
v 0.03099967 -0.04127607 0.02304294
v 0.03219157 -0.04126916 -0.00014577
v 0.03099967 -0.04123689 -0.00083258
v 0.03118298 -0.04125994 -0.00065054
v 0.03521500 -0.04125994 0.00086375
v 0.03319938 -0.04127492 0.00035899
v 0.03420796 -0.04127492 0.00086375
v 0.03370367 -0.04127607 0.00086375
v 0.03319938 -0.04127607 0.02304294
v 0.03099967 -0.04125764 0.02354770
v 0.03471226 -0.04127147 0.00086375
v 0.03099967 -0.04110205 -0.00117737
v 0.03890051 -0.04111127 0.00136575
v 0.03874427 -0.04112625 0.00136575
v 0.03823998 -0.04116659 0.00136575
v 0.03773646 -0.04120117 0.00136575
v 0.03723217 -0.04122652 0.00136575
v 0.03672788 -0.04124381 0.00136575
v 0.03471226 -0.04127262 0.00136575
v 0.03420796 -0.04127492 0.01144996
v 0.03370367 -0.04127607 0.02253818
v 0.03370367 -0.04127492 0.02304294
v 0.03319938 -0.04125188 0.02354770
v 0.03099967 -0.04117812 0.02405247
v 0.03622359 -0.04125533 0.00136575
v 0.03571929 -0.04126225 0.00136575
v 0.03521500 -0.04126801 0.00136575
v 0.03099967 -0.04101447 -0.00133734
v 0.03890051 -0.04093725 0.00101270
v 0.03890051 -0.04098911 0.00111199
v 0.03890051 -0.04114009 0.00152297
v 0.03890051 -0.04118503 0.00187052
v 0.03874427 -0.04119079 0.00187052
v 0.03823998 -0.04120693 0.00187052
v 0.03773646 -0.04122191 0.00187052
v 0.03723217 -0.04123459 0.00187052
v 0.03471226 -0.04127262 0.00439157
v 0.03420796 -0.04127377 0.02253818
v 0.03471226 -0.04126916 0.02304294
v 0.03420796 -0.04124842 0.02354770
v 0.03471226 -0.04115853 0.02405247
v 0.03099967 -0.04101216 0.02455447
v 0.03622359 -0.04125533 0.00187052
v 0.03571929 -0.04126225 0.01800084
v 0.03521500 -0.04126801 0.00590585
v 0.03099967 -0.04091651 -0.00148077
v 0.03890051 -0.04068601 0.00088306
v 0.03890051 -0.04118503 0.02269540
v 0.03874427 -0.04119079 0.02253818
v 0.03823998 -0.04120693 0.02253818
v 0.03723217 -0.04123459 0.00237528
v 0.03773646 -0.04122076 0.02253818
v 0.03521500 -0.04126686 0.02253818
v 0.03471226 -0.04127031 0.02253818
v 0.03521500 -0.04126570 0.02304294
v 0.03471226 -0.04124496 0.02354770
v 0.03521500 -0.04115392 0.02405247
v 0.03521500 -0.04097874 0.02455447
v 0.03521500 -0.04124150 0.02354770
v 0.03099967 -0.04092342 0.02475306
v 0.03672788 -0.04124496 0.02253818
v 0.03622359 -0.04125418 0.02253818
v 0.03571929 -0.04126110 0.02304294
v 0.03099967 -0.04084966 -0.00151111
v 0.03890051 -0.04058459 0.00083893
v 0.03890051 -0.04118388 0.02304294
v 0.03874427 -0.04118964 0.02304294
v 0.03823998 -0.04120577 0.02304294
v 0.03723217 -0.04123344 0.02304294
v 0.03773646 -0.04121961 0.02304294
v 0.03571929 -0.04114815 0.02405247
v 0.03571929 -0.04097183 0.02455447
v 0.03571929 -0.04084851 0.02482754
v 0.03521500 -0.04085197 0.02483305
v 0.03471226 -0.04085427 0.02483857
v 0.03571929 -0.04123574 0.02354770
v 0.03099967 -0.04087156 0.02486615
v 0.03672788 -0.04124381 0.02304294
v 0.03622359 -0.04125303 0.02304294
v 0.03099967 -0.04056961 -0.00160490
v 0.03890051 -0.04023654 0.00078928
v 0.03890051 -0.04115507 0.02354770
v 0.03874427 -0.04116198 0.02354770
v 0.03823998 -0.04117927 0.02354770
v 0.03773646 -0.04119540 0.02354770
v 0.03723217 -0.04120808 0.02354770
v 0.03672788 -0.04121961 0.02354770
v 0.03672788 -0.04112972 0.02405247
v 0.03672788 -0.04095338 0.02455447
v 0.03732499 -0.04083353 0.02479995
v 0.03672788 -0.04083929 0.02481099
v 0.03622359 -0.04067564 0.02507302
v 0.03571929 -0.04067910 0.02508130
v 0.03521500 -0.04068140 0.02508681
v 0.03099967 -0.04070445 0.02511991
v 0.03099967 -0.04037945 -0.00162145
v 0.03890051 -0.04007981 0.00076721
v 0.03890051 -0.04112625 0.02370492
v 0.03874427 -0.04106863 0.02405247
v 0.03823998 -0.04108822 0.02405247
v 0.03773646 -0.04110551 0.02405247
v 0.03723217 -0.04111934 0.02405247
v 0.03773646 -0.04093725 0.02453516
v 0.03718731 -0.04092342 0.02460136
v 0.03773646 -0.04082661 0.02478892
v 0.03773646 -0.04064567 0.02505923
v 0.03718731 -0.04069638 0.02500958
v 0.03672788 -0.04067103 0.02506475
v 0.03698931 -0.04083583 0.02480823
v 0.03672788 -0.04041864 0.02540953
v 0.03571929 -0.04042671 0.02541780
v 0.03521500 -0.04043016 0.02542056
v 0.03099967 -0.04045206 0.02544538
v 0.03099967 -0.04007981 -0.00164627
v 0.03890051 -0.03418721 0.00076445
v 0.03099967 -0.03100637 -0.00165179
v 0.03890051 -0.04106171 0.02405247
v 0.03874427 -0.04091881 0.02449103
v 0.03823998 -0.04092918 0.02451585
v 0.03823998 -0.04081739 0.02476685
v 0.03823998 -0.04062493 0.02505923
v 0.03823998 -0.04039213 0.02537919
v 0.03773646 -0.04040250 0.02539022
v 0.03723217 -0.04041172 0.02540126
v 0.03723217 -0.04015241 0.02565226
v 0.03672788 -0.04015817 0.02566053
v 0.03622359 -0.04016394 0.02566605
v 0.03571929 -0.04016855 0.02566881
v 0.03521500 -0.04017201 0.02567157
v 0.03099967 -0.04019851 0.02569639
v 0.03099967 -0.04029071 0.02560537
v 0.03890051 -0.02950470 0.00076445
v 0.03099967 -0.03052579 -0.00154421
v 0.03890051 -0.04091420 0.02448275
v 0.03874427 -0.04080471 0.02474203
v 0.03890051 -0.04073211 0.02484133
v 0.03874427 -0.04059957 0.02505923
v 0.03874427 -0.04037830 0.02536540
v 0.03823998 -0.04013052 0.02563019
v 0.03773646 -0.04014320 0.02564398
v 0.03773646 -0.03989080 0.02586464
v 0.03723217 -0.03990002 0.02587016
v 0.03672788 -0.03990579 0.02587568
v 0.03571929 -0.03991616 0.02588395
v 0.03099967 -0.04003832 0.02582878
v 0.03319938 -0.02950470 -0.00067812
v 0.03890051 -0.02950470 0.02649629
v 0.03099967 -0.03027685 -0.00142837
v 0.03890051 -0.04080010 0.02473376
v 0.03890051 -0.04059036 0.02505923
v 0.03890051 -0.04052582 0.02515025
v 0.03890051 -0.04037369 0.02535988
v 0.03874427 -0.04011554 0.02561640
v 0.03890051 -0.03985738 0.02583982
v 0.03823998 -0.03987812 0.02585637
v 0.03773646 -0.03957618 0.02606048
v 0.03672788 -0.03957618 0.02608255
v 0.03571929 -0.03957618 0.02609358
v 0.03099967 -0.03994728 0.02590326
v 0.03099967 -0.03025035 -0.00141182
v 0.03282812 -0.02950470 -0.00056227
v 0.03823998 -0.02950470 0.02651008
v 0.03890051 -0.03755935 0.02649629
v 0.03890051 -0.04010977 0.02561088
v 0.03890051 -0.04003141 0.02568260
v 0.03890051 -0.03957618 0.02601359
v 0.03874427 -0.03957618 0.02602186
v 0.03823998 -0.03915898 0.02625632
v 0.03723217 -0.03919125 0.02627011
v 0.03672788 -0.03920162 0.02627287
v 0.03622359 -0.03920738 0.02627562
v 0.03099967 -0.03971217 0.02604669
v 0.03571929 -0.03920969 0.02627838
v 0.03099967 -0.03957618 0.02612944
v 0.03099967 -0.03024113 -0.00138423
v 0.03270746 -0.02950470 -0.00014577
v 0.03823998 -0.03755935 0.02651008
v 0.03773646 -0.02950470 0.02651559
v 0.03823998 -0.03806298 0.02649629
v 0.03874427 -0.03806298 0.02648525
v 0.03890051 -0.03790739 0.02648525
v 0.03890051 -0.03943096 0.02608806
v 0.03890051 -0.03912786 0.02624252
v 0.03874427 -0.03913708 0.02624528
v 0.03874427 -0.03888469 0.02634458
v 0.03823998 -0.03890774 0.02635286
v 0.03773646 -0.03892503 0.02635837
v 0.03723217 -0.03893886 0.02636113
v 0.03672788 -0.03894923 0.02636389
v 0.03622359 -0.03895499 0.02636665
v 0.03099967 -0.03924657 0.02629217
v 0.03099967 -0.02950470 0.01044044
v 0.03773646 -0.03806298 0.02650456
v 0.03773646 -0.03755935 0.02651559
v 0.03723217 -0.02950470 0.02652111
v 0.03773646 -0.03856776 0.02644388
v 0.03890051 -0.03806298 0.02647974
v 0.03823998 -0.03856776 0.02643285
v 0.03890051 -0.03841102 0.02643560
v 0.03890051 -0.03887547 0.02634182
v 0.03874427 -0.03856776 0.02641905
v 0.03723217 -0.03856776 0.02645215
v 0.03672788 -0.03856776 0.02645767
v 0.03099967 -0.03908637 0.02634734
v 0.03622359 -0.03856776 0.02646043
v 0.03099967 -0.03899418 0.02637768
v 0.03099967 -0.02950470 0.02652663
v 0.03723217 -0.03806298 0.02651008
v 0.03723217 -0.03755935 0.02652111
v 0.03622359 -0.02950470 0.02652663
v 0.03890051 -0.03856776 0.02641354
v 0.03521500 -0.03856776 0.02646319
v 0.03622359 -0.03806298 0.02651559
v 0.03099967 -0.03856776 0.02647422
v 0.03099967 -0.03755935 0.02652663
v 0.03622359 -0.03755935 0.02652663
v 0.03099967 -0.03806298 0.02652111
v 0.03099967 -0.03824622 0.02650456
f 1 2 3
f 1 3 11
f 1 11 24
f 1 24 12
f 1 12 4
f 1 4 13
f 1 13 27
f 1 27 45
f 1 45 63
f 1 63 80
f 1 80 98
f 1 98 116
f 1 116 134
f 1 134 133
f 1 133 148
f 1 148 162
f 1 162 175
f 1 175 177
f 1 177 194
f 1 194 207
f 1 207 209
f 1 209 217
f 1 217 221
f 1 221 220
f 1 220 218
f 1 218 210
f 1 210 195
f 1 195 178
f 1 178 163
f 1 163 151
f 1 151 136
f 1 136 119
f 1 119 117
f 1 117 99
f 1 99 83
f 1 83 67
f 1 67 49
f 1 49 31
f 1 31 15
f 1 15 6
f 1 6 2
f 2 5 3
f 2 6 7
f 2 7 8
f 2 8 5
f 3 5 9
f 3 9 10
f 3 10 11
f 4 12 13
f 5 8 14
f 5 14 9
f 6 15 16
f 6 16 17
f 6 17 18
f 6 18 7
f 7 18 19
f 7 19 20
f 7 20 8
f 8 20 21
f 8 21 14
f 9 14 10
f 10 14 22
f 10 22 40
f 10 40 23
f 10 23 24
f 10 24 11
f 12 25 13
f 12 24 25
f 13 25 26
f 13 26 27
f 14 21 28
f 14 28 29
f 14 29 30
f 14 30 22
f 15 31 32
f 15 32 33
f 15 33 16
f 16 33 32
f 16 32 50
f 16 50 68
f 16 68 84
f 16 84 100
f 16 100 118
f 16 118 135
f 16 135 150
f 16 150 166
f 16 166 184
f 16 184 200
f 16 200 202
f 16 202 214
f 16 214 203
f 16 203 186
f 16 186 185
f 16 185 169
f 16 169 157
f 16 157 168
f 16 168 167
f 16 167 155
f 16 155 154
f 16 154 153
f 16 153 139
f 16 139 152
f 16 152 137
f 16 137 120
f 16 120 101
f 16 101 85
f 16 85 69
f 16 69 51
f 16 51 35
f 16 35 34
f 16 34 17
f 17 34 18
f 18 34 35
f 18 35 19
f 19 35 20
f 20 35 36
f 20 36 21
f 21 36 37
f 21 37 38
f 21 38 39
f 21 39 28
f 22 30 48
f 22 48 40
f 23 41 24
f 23 40 41
f 24 41 25
f 25 42 43
f 25 43 26
f 25 41 42
f 26 43 27
f 27 43 44
f 27 44 45
f 28 39 54
f 28 54 64
f 28 64 46
f 28 46 47
f 28 47 29
f 29 47 48
f 29 48 30
f 31 49 32
f 32 49 50
f 35 51 52
f 35 52 36
f 36 52 53
f 36 53 37
f 37 53 38
f 38 54 39
f 38 53 55
f 38 55 72
f 38 72 54
f 40 48 56
f 40 56 57
f 40 57 41
f 41 57 42
f 42 57 56
f 42 56 58
f 42 58 62
f 42 62 59
f 42 59 43
f 43 59 44
f 44 60 61
f 44 61 45
f 44 59 62
f 44 62 60
f 45 61 63
f 46 64 65
f 46 65 47
f 47 65 66
f 47 66 56
f 47 56 48
f 49 67 50
f 50 67 68
f 51 69 70
f 51 70 52
f 52 70 71
f 52 71 53
f 53 71 73
f 53 73 55
f 54 72 64
f 55 73 72
f 56 66 58
f 58 66 62
f 60 74 61
f 60 62 79
f 60 79 74
f 61 75 76
f 61 76 77
f 61 77 78
f 61 78 63
f 61 74 75
f 62 66 79
f 63 78 80
f 64 72 81
f 64 81 82
f 64 82 65
f 65 82 66
f 66 82 90
f 66 90 79
f 67 83 68
f 68 83 84
f 69 85 86
f 69 86 70
f 70 86 87
f 70 87 88
f 70 88 71
f 71 88 73
f 72 73 88
f 72 88 89
f 72 89 90
f 72 90 81
f 74 91 92
f 74 92 75
f 74 79 90
f 74 90 91
f 75 92 93
f 75 93 94
f 75 94 76
f 76 94 111
f 76 111 95
f 76 95 96
f 76 96 77
f 77 96 78
f 78 96 97
f 78 97 98
f 78 98 80
f 81 90 82
f 83 99 100
f 83 100 84
f 85 101 86
f 86 101 102
f 86 102 103
f 86 103 104
f 86 104 87
f 87 104 88
f 88 104 105
f 88 105 89
f 89 105 90
f 90 105 91
f 91 105 92
f 92 106 107
f 92 107 93
f 92 105 106
f 93 107 106
f 93 106 108
f 93 108 109
f 93 109 110
f 93 110 111
f 93 111 112
f 93 112 94
f 94 112 111
f 95 111 113
f 95 113 96
f 96 113 114
f 96 114 97
f 97 114 98
f 98 114 115
f 98 115 116
f 99 117 100
f 100 117 119
f 100 119 118
f 101 120 102
f 102 120 121
f 102 121 103
f 103 121 122
f 103 122 104
f 104 122 106
f 104 106 105
f 106 122 108
f 108 122 123
f 108 123 124
f 108 124 109
f 109 124 125
f 109 125 126
f 109 126 127
f 109 127 111
f 109 111 110
f 111 127 113
f 113 127 128
f 113 128 129
f 113 129 130
f 113 130 114
f 114 130 131
f 114 131 132
f 114 132 115
f 115 132 133
f 115 133 134
f 115 134 116
f 118 119 135
f 119 136 135
f 120 137 121
f 121 137 152
f 121 152 138
f 121 138 123
f 121 123 122
f 123 138 139
f 123 139 140
f 123 140 124
f 124 140 141
f 124 141 125
f 125 141 142
f 125 142 143
f 125 143 126
f 126 143 127
f 127 143 128
f 128 143 144
f 128 144 145
f 128 145 129
f 129 145 146
f 129 146 130
f 130 146 147
f 130 147 131
f 131 147 132
f 132 147 133
f 133 147 148
f 135 136 149
f 135 149 164
f 135 164 179
f 135 179 195
f 135 195 210
f 135 210 213
f 135 213 198
f 135 198 181
f 135 181 165
f 135 165 150
f 136 151 149
f 138 152 139
f 139 153 140
f 140 153 154
f 140 154 141
f 141 154 155
f 141 155 156
f 141 156 142
f 142 156 157
f 142 157 158
f 142 158 143
f 143 158 144
f 144 158 159
f 144 159 145
f 145 159 160
f 145 160 146
f 146 160 147
f 147 160 161
f 147 161 162
f 147 162 148
f 149 151 163
f 149 163 164
f 150 165 180
f 150 180 166
f 155 167 156
f 156 167 168
f 156 168 157
f 157 169 170
f 157 170 158
f 158 170 159
f 159 170 171
f 159 171 172
f 159 172 160
f 160 172 173
f 160 173 174
f 160 174 161
f 161 175 162
f 161 174 176
f 161 176 177
f 161 177 175
f 163 178 164
f 164 178 179
f 165 181 197
f 165 197 180
f 166 182 183
f 166 183 184
f 166 180 182
f 169 185 170
f 170 185 186
f 170 186 187
f 170 187 171
f 171 187 188
f 171 188 189
f 171 189 172
f 172 189 190
f 172 190 191
f 172 191 192
f 172 192 173
f 173 192 193
f 173 193 174
f 174 193 176
f 176 193 194
f 176 194 177
f 178 195 179
f 180 196 182
f 180 197 196
f 181 198 212
f 181 212 197
f 182 199 183
f 182 196 199
f 183 200 184
f 183 199 201
f 183 201 202
f 183 202 200
f 186 203 188
f 186 188 187
f 188 203 204
f 188 204 201
f 188 201 189
f 189 201 199
f 189 199 190
f 190 199 205
f 190 205 191
f 191 205 206
f 191 206 192
f 192 206 193
f 193 207 194
f 193 206 208
f 193 208 209
f 193 209 207
f 196 197 212
f 196 212 211
f 196 211 206
f 196 206 205
f 196 205 199
f 198 213 219
f 198 219 212
f 201 204 202
f 202 204 214
f 203 214 204
f 206 211 216
f 206 216 208
f 208 215 209
f 208 216 215
f 209 215 217
f 210 218 219
f 210 219 213
f 211 212 219
f 211 219 216
f 215 216 217
f 216 219 220
f 216 220 221
f 216 221 217
f 218 220 219
