# https://github.com/mikedh/trimesh
v 0.03089484 0.02841916 0.02652565
v 0.03089484 0.02841916 0.01651565
v 0.02940966 0.02841916 0.02652565
v 0.03089484 0.01748039 0.02652565
v 0.02940966 0.02841916 0.01651565
v 0.03089484 0.01748039 0.01651565
v 0.02940966 0.01991527 0.02652565
v 0.03067820 0.01748039 0.02652565
v 0.02940966 0.01868605 0.01651565
v 0.03072982 0.01748039 0.01651565
v 0.02940966 0.01939810 0.02648547
v 0.02967005 0.01890662 0.02651095
v 0.03017413 0.01748039 0.02651683
v 0.03017413 0.01789798 0.02652565
v 0.02972748 0.01748039 0.02556433
v 0.02968750 0.01748039 0.02606900
v 0.02940966 0.01833699 0.02606900
v 0.02940966 0.01890662 0.02644137
v 0.02980120 0.01748039 0.02641491
v 0.02940966 0.01849010 0.02637768
f 1 2 5
f 1 5 3
f 1 3 7
f 1 7 14
f 1 14 8
f 1 8 4
f 1 4 6
f 1 6 2
f 2 6 10
f 2 10 9
f 2 9 5
f 3 5 9
f 3 9 17
f 3 17 20
f 3 20 18
f 3 18 11
f 3 11 7
f 4 8 13
f 4 13 19
f 4 19 16
f 4 16 15
f 4 15 10
f 4 10 6
f 7 11 12
f 7 12 13
f 7 13 14
f 8 14 13
f 9 10 15
f 9 15 16
f 9 16 17
f 11 18 12
f 12 18 13
f 13 18 19
f 16 19 20
f 16 20 17
f 18 20 19
