# https://github.com/mikedh/trimesh
v 0.03319943 -0.00829936 -0.00067998
v 0.03283292 -0.00829936 -0.00056014
v 0.03319943 0.00014803 -0.00067998
v 0.03890058 -0.00829936 0.00076344
v 0.03282795 -0.00829936 -0.00054416
v 0.03283292 0.00014803 -0.00056014
v 0.03890058 0.00014803 0.00076344
v 0.03890058 -0.00829936 0.02649467
v 0.03271523 -0.00829936 -0.00014469
v 0.03271523 0.00014803 -0.00014469
v 0.03273934 0.00014803 -0.00022991
v 0.03890058 0.00014803 0.02649467
v 0.03876375 -0.00829936 0.02649999
v 0.03186169 -0.00829936 0.00741595
v 0.03186169 0.00014803 0.00741595
v 0.03874461 0.00014803 0.02649999
v 0.03813636 0.00014803 0.02651065
v 0.03775567 -0.00829936 0.02651597
v 0.03180853 -0.00829936 0.00792195
v 0.03182767 0.00014803 0.00781809
v 0.03773653 0.00014803 0.02651597
v 0.03725092 -0.00829936 0.02652130
v 0.03181916 0.00014803 0.00792195
v 0.03165894 -0.00829936 0.02558387
v 0.03723178 0.00014803 0.02652130
v 0.03674687 -0.00829936 0.02652396
v 0.03166745 -0.00829936 0.02606857
v 0.03221970 0.00014803 0.02556523
v 0.03622369 0.00014803 0.02652663
v 0.03622369 -0.00829936 0.02652663
v 0.03222962 0.00014803 0.02596470
v 0.03167170 -0.00829936 0.02608188
v 0.03232037 0.00014803 0.02634553
v 0.03223246 0.00014803 0.02606857
v 0.03319943 0.00014803 0.02652663
v 0.03269539 -0.00829936 0.02652663
v 0.03181136 -0.00829936 0.02642276
v 0.03183546 -0.00781399 0.02641744
v 0.03234376 0.00014803 0.02641744
v 0.03269539 -0.00327773 0.02652663
v 0.03269539 0.00014803 0.02651864
v 0.03269539 -0.00075658 0.02652130
v 0.03269539 -0.00176537 0.02652396
v 0.03219134 -0.00829936 0.02652396
v 0.03219134 -0.00781399 0.02651864
f 1 2 6
f 1 6 3
f 1 3 7
f 1 7 4
f 1 4 8
f 1 8 13
f 1 13 18
f 1 18 22
f 1 22 26
f 1 26 30
f 1 30 36
f 1 36 44
f 1 44 37
f 1 37 32
f 1 32 27
f 1 27 24
f 1 24 19
f 1 19 14
f 1 14 9
f 1 9 5
f 1 5 2
f 2 5 6
f 3 6 11
f 3 11 10
f 3 10 15
f 3 15 20
f 3 20 23
f 3 23 28
f 3 28 31
f 3 31 34
f 3 34 33
f 3 33 39
f 3 39 41
f 3 41 35
f 3 35 29
f 3 29 25
f 3 25 21
f 3 21 17
f 3 17 16
f 3 16 12
f 3 12 7
f 4 7 12
f 4 12 8
f 5 9 10
f 5 10 11
f 5 11 6
f 8 12 13
f 9 14 15
f 9 15 10
f 12 16 13
f 13 16 17
f 13 17 18
f 14 19 15
f 15 19 20
f 17 21 18
f 18 21 25
f 18 25 22
f 19 23 20
f 19 24 23
f 22 25 29
f 22 29 26
f 23 24 27
f 23 27 28
f 26 29 30
f 27 31 28
f 27 32 33
f 27 33 34
f 27 34 31
f 29 35 40
f 29 40 36
f 29 36 30
f 32 37 38
f 32 38 39
f 32 39 33
f 35 41 42
f 35 42 43
f 35 43 40
f 36 40 44
f 37 39 38
f 37 44 45
f 37 45 41
f 37 41 39
f 40 43 44
f 41 45 44
f 41 44 42
f 42 44 43
