# https://github.com/mikedh/trimesh
v 0.05232830 0.00377758 0.02527627
v 0.05232830 0.00372261 0.02527627
v 0.05286139 0.03553791 0.02518893
v 0.05235752 0.03553791 0.02527097
v 0.05232830 0.03604054 0.02527362
v 0.05232830 -0.03609561 0.02527362
v 0.05235752 -0.03604063 0.02527097
v 0.05286139 -0.03553800 0.02518893
v 0.05336575 0.03553791 0.02510424
v 0.05286139 0.03604054 0.02518628
v 0.05232830 0.03648821 0.02526039
v 0.05232830 -0.03655112 0.02525774
v 0.05336575 -0.03604063 0.02510159
v 0.05336575 -0.03553800 0.02510424
v 0.05386961 0.03553791 0.02501691
v 0.05336575 0.03604054 0.02510159
v 0.05232830 0.03655103 0.02525774
v 0.05286139 -0.03655112 0.02516511
v 0.05232830 -0.03658254 0.02525509
v 0.05386961 -0.03604063 0.02501161
v 0.05437398 -0.03553800 0.02492693
v 0.05386961 -0.03553800 0.02501691
v 0.05437398 0.03553791 0.02492693
v 0.05386961 0.03604054 0.02501161
v 0.05336575 0.03655103 0.02507513
v 0.05286139 0.03655103 0.02516511
v 0.05232830 0.03705367 0.02519422
v 0.05232830 -0.03705376 0.02519422
v 0.05235752 -0.03705376 0.02518893
v 0.05336575 -0.03655112 0.02507248
v 0.05437398 -0.03604063 0.02491899
v 0.05482393 -0.03553800 0.02484489
v 0.05482342 0.03553791 0.02484489
v 0.05482393 -0.03453272 0.02484489
v 0.05437398 0.03604054 0.02491899
v 0.05479168 0.03604054 0.02483959
v 0.05471560 0.03640967 0.02482636
v 0.05386961 0.03655103 0.02497721
v 0.05235752 0.03705367 0.02518893
v 0.05232830 0.03755631 0.02506190
v 0.05232830 -0.03707732 0.02518893
v 0.05286139 -0.03705376 0.02509101
v 0.05386961 -0.03655112 0.02497721
v 0.05479218 -0.03604063 0.02483959
v 0.05507535 -0.03553800 0.02479725
v 0.05507535 0.03553791 0.02479725
v 0.05538170 0.03553791 0.02473903
v 0.05538170 0.03604054 0.02472315
v 0.05588607 0.03604054 0.02461464
v 0.05694015 0.03608767 0.02437645
v 0.05538170 0.03655103 0.02465698
v 0.05488137 0.03656674 0.02476549
v 0.05458560 0.03674738 0.02479989
v 0.05336575 0.03705367 0.02499044
v 0.05286139 0.03705367 0.02509101
v 0.05235752 0.03755631 0.02505661
v 0.05232830 0.03794899 0.02490576
v 0.05232830 -0.03755639 0.02506190
v 0.05235752 -0.03755639 0.02505661
v 0.05336575 -0.03705376 0.02499044
v 0.05471560 -0.03640975 0.02482636
v 0.05458560 -0.03674746 0.02479989
v 0.05504361 -0.03604063 0.02478931
v 0.05638993 -0.03553800 0.02453789
v 0.05588607 -0.03553800 0.02463846
v 0.05538170 -0.03553800 0.02473903
v 0.05588607 0.03503527 0.02464111
v 0.05588607 0.03553791 0.02463846
v 0.05689430 0.03553791 0.02443203
v 0.05731603 0.03553791 0.02434205
v 0.05724448 0.03594630 0.02432617
v 0.05638993 0.03604054 0.02450349
v 0.05713867 0.03628401 0.02430235
v 0.05588607 0.03655103 0.02454054
v 0.05487835 0.03705367 0.02464640
v 0.05424953 0.03690445 0.02483695
v 0.05387617 0.03706152 0.02487664
v 0.05404798 0.03724216 0.02478931
v 0.05371190 0.03735996 0.02482901
v 0.05336575 0.03746206 0.02486870
v 0.05309366 0.03779977 0.02480254
v 0.05235752 0.03797255 0.02488988
v 0.05232830 0.03798040 0.02489252
v 0.05232830 -0.03798049 0.02489252
v 0.05235752 -0.03797264 0.02488988
v 0.05275759 -0.03787839 0.02484224
v 0.05309366 -0.03779200 0.02480254
v 0.05336575 -0.03746215 0.02486870
v 0.05371190 -0.03736005 0.02482901
v 0.05387617 -0.03706161 0.02487664
v 0.05424953 -0.03690454 0.02483695
v 0.05404798 -0.03724224 0.02478931
v 0.05488137 -0.03656683 0.02476549
v 0.05538170 -0.03655112 0.02465698
v 0.05694015 -0.03608776 0.02437645
v 0.05638993 -0.03604063 0.02450613
v 0.05588607 -0.03604063 0.02461464
v 0.05538170 -0.03604063 0.02472050
v 0.05487835 -0.03705376 0.02464640
v 0.05588607 -0.03655112 0.02454054
v 0.05689430 -0.03553800 0.02443203
v 0.05734022 -0.03503536 0.02434470
v 0.05689430 -0.03503536 0.02443732
v 0.05638993 -0.03503536 0.02454054
v 0.05588607 -0.03503536 0.02464111
v 0.05638993 0.03503527 0.02454054
v 0.05689430 0.03503527 0.02443732
v 0.05733820 0.03503527 0.02434470
v 0.05747525 0.03503527 0.02431558
v 0.05747525 0.03553791 0.02430500
v 0.05747525 0.03585206 0.02427324
v 0.05747525 0.03607981 0.02424942
v 0.05740723 0.03608767 0.02426530
v 0.05747525 0.03655103 0.02413827
v 0.05739866 0.03655103 0.02415944
v 0.05694015 0.03659030 0.02427060
v 0.05662473 0.03677879 0.02429971
v 0.05643024 0.03659030 0.02439763
v 0.05538170 0.03705367 0.02452466
v 0.05571778 0.03735211 0.02432617
v 0.05387617 0.03754060 0.02471521
v 0.05336575 0.03771338 0.02477078
v 0.05538170 0.03744635 0.02437116
v 0.05474180 0.03786260 0.02433676
v 0.05336575 0.03805894 0.02458818
v 0.05235752 0.03822387 0.02476020
v 0.05232830 0.03823173 0.02476284
v 0.05232830 -0.03824751 0.02475491
v 0.05235752 -0.03822396 0.02476020
v 0.05336575 -0.03805903 0.02458818
v 0.05474180 -0.03786268 0.02433676
v 0.05336575 -0.03771346 0.02477078
v 0.05571778 -0.03735220 0.02432617
v 0.05387617 -0.03754069 0.02471521
v 0.05538170 -0.03705376 0.02452466
v 0.05713867 -0.03628409 0.02430235
v 0.05724499 -0.03594639 0.02432617
v 0.05731704 -0.03553800 0.02434205
v 0.05662473 -0.03677887 0.02429971
v 0.05643024 -0.03659039 0.02439763
v 0.05747525 -0.03524741 0.02431294
v 0.05747525 -0.03503536 0.02431558
v 0.05734022 -0.03351960 0.02434470
v 0.05689430 0.03705367 0.02411710
v 0.05747525 0.03708509 0.02393449
v 0.05628866 0.03690445 0.02434205
v 0.05605385 0.03724216 0.02427853
v 0.05588556 0.03706152 0.02438969
v 0.05743796 0.03709294 0.02394243
v 0.05747525 0.03713221 0.02391332
v 0.05729638 0.03738353 0.02384451
v 0.05538170 0.03769767 0.02424413
v 0.05507737 0.03777621 0.02428912
v 0.05663582 0.03780762 0.02379687
v 0.05588607 0.03797255 0.02391597
v 0.05403589 0.03827099 0.02427589
v 0.05369981 0.03834167 0.02432617
v 0.05386861 0.03809036 0.02443732
v 0.05336575 0.03840451 0.02437381
v 0.05232830 0.03855373 0.02454318
v 0.05336575 -0.03840459 0.02437381
v 0.05369981 -0.03834176 0.02432617
v 0.05386861 -0.03809045 0.02443732
v 0.05232830 -0.03860093 0.02450878
v 0.05238423 -0.03860879 0.02449025
v 0.05663582 -0.03780771 0.02379687
v 0.05507737 -0.03777630 0.02428912
v 0.05538170 -0.03744644 0.02437116
v 0.05403589 -0.03827108 0.02427589
v 0.05588607 -0.03797264 0.02391597
v 0.05747525 -0.03733649 0.02381804
v 0.05747525 -0.03713229 0.02391332
v 0.05743796 -0.03709302 0.02394243
v 0.05605385 -0.03724224 0.02427853
v 0.05628866 -0.03690454 0.02434205
v 0.05588556 -0.03706161 0.02438969
v 0.05538170 -0.03769776 0.02424413
v 0.05739866 -0.03655112 0.02415944
v 0.05747525 -0.03655112 0.02413827
v 0.05747525 -0.03607990 0.02424942
v 0.05740723 -0.03608776 0.02426530
v 0.05694015 -0.03659039 0.02427060
v 0.05747525 -0.03565580 0.02429706
v 0.05747525 -0.03553800 0.02430500
v 0.05689430 -0.03705376 0.02411710
v 0.05747525 0.03750133 0.02371218
v 0.05743796 0.03755631 0.02369101
v 0.05739866 0.03795685 0.02341578
v 0.05558123 0.03828670 0.02378099
v 0.05524516 0.03835738 0.02383657
v 0.05540035 0.03809821 0.02397683
v 0.05257015 0.03880504 0.02429177
v 0.05238423 0.03860870 0.02449025
v 0.05232830 0.03870295 0.02443468
v 0.05257015 -0.03880513 0.02429177
v 0.05524516 -0.03835747 0.02383657
v 0.05232830 -0.03864020 0.02447967
v 0.05232830 -0.03884440 0.02432617
v 0.05743796 -0.03755639 0.02369101
v 0.05558123 -0.03828679 0.02378099
v 0.05739866 -0.03795693 0.02341578
v 0.05540035 -0.03809830 0.02397683
v 0.05747525 -0.03750142 0.02371218
v 0.05747525 -0.03708517 0.02393449
v 0.05747525 -0.03705376 0.02394772
v 0.05747525 0.03758772 0.02365396
v 0.05747525 0.03793328 0.02340254
v 0.05747525 0.03797255 0.02336814
v 0.05747525 0.03819245 0.02317230
v 0.05705553 0.03827884 0.02325963
v 0.05671895 0.03834167 0.02332315
v 0.05410693 0.03881290 0.02379422
v 0.05377086 0.03886787 0.02384980
v 0.05232830 0.03906421 0.02409593
v 0.05232830 0.03899353 0.02416473
v 0.05238423 -0.03908001 0.02406152
v 0.05377086 -0.03886796 0.02384980
v 0.05410693 -0.03881298 0.02379422
v 0.05671895 -0.03834176 0.02332315
v 0.05232830 -0.03908786 0.02406946
v 0.05747525 -0.03755639 0.02367513
v 0.05747525 -0.03790196 0.02342636
v 0.05705553 -0.03827893 0.02325963
v 0.05747525 -0.03819254 0.02317230
v 0.05747525 -0.03793337 0.02340254
v 0.05747525 0.03823958 0.02312466
v 0.05739866 0.03843592 0.02293676
v 0.05557216 0.03879719 0.02327022
v 0.05523609 0.03885217 0.02333374
v 0.05336575 0.03918202 0.02361426
v 0.05253438 0.03929983 0.02377040
v 0.05238423 0.03907992 0.02406152
v 0.05232830 0.03915846 0.02399271
v 0.05232830 -0.03915855 0.02399271
v 0.05253438 -0.03929991 0.02377040
v 0.05336575 -0.03918210 0.02361426
v 0.05437398 -0.03897791 0.02349252
v 0.05557216 -0.03879727 0.02327022
v 0.05739866 -0.03843601 0.02293676
v 0.05747525 -0.03842030 0.02292088
v 0.05747525 0.03842021 0.02292088
v 0.05747525 0.03870295 0.02253978
v 0.05689430 0.03877363 0.02272239
v 0.05663078 0.03881290 0.02278591
v 0.05588607 0.03892285 0.02294734
v 0.05365396 0.03933124 0.02330992
v 0.05232830 0.03946475 0.02360103
v 0.05232830 0.03944119 0.02363279
v 0.05232830 -0.03932347 0.02380746
v 0.05232830 -0.03948055 0.02357721
v 0.05365396 -0.03933132 0.02330992
v 0.05588607 -0.03892294 0.02294734
v 0.05663078 -0.03881298 0.02278591
v 0.05689430 -0.03877372 0.02272239
v 0.05747525 -0.03868732 0.02256360
v 0.05747525 0.03871865 0.02251597
v 0.05731150 0.03886787 0.02236776
v 0.05486928 0.03917417 0.02301086
v 0.05399004 0.03928412 0.02323317
v 0.05469494 0.03933909 0.02282296
v 0.05232830 0.03948046 0.02357721
v 0.05437398 0.03937836 0.02289441
v 0.05235752 0.03973963 0.02310613
v 0.05232830 0.03973178 0.02313260
v 0.05232830 -0.03973972 0.02311407
v 0.05235752 -0.03973972 0.02310613
v 0.05437398 -0.03937845 0.02289441
v 0.05469494 -0.03933918 0.02282296
v 0.05486928 -0.03917425 0.02301086
v 0.05399004 -0.03928421 0.02323317
v 0.05731150 -0.03886796 0.02236776
v 0.05747525 -0.03870303 0.02253978
v 0.05747525 0.03872651 0.02250273
v 0.05747525 0.03894641 0.02211370
v 0.05744703 0.03896997 0.02208459
v 0.05586541 0.03918987 0.02250538
v 0.05568352 0.03933124 0.02231483
v 0.05538170 0.03937051 0.02239423
v 0.05486928 0.03941763 0.02255831
v 0.05261399 0.03982602 0.02279385
v 0.05232830 0.03984958 0.02287589
v 0.05232830 -0.03974757 0.02309819
v 0.05235752 -0.03984967 0.02285472
v 0.05261399 -0.03982611 0.02279385
v 0.05486928 -0.03941772 0.02255831
v 0.05538170 -0.03937060 0.02239423
v 0.05568352 -0.03933132 0.02231483
v 0.05586541 -0.03918996 0.02250538
v 0.05744703 -0.03897006 0.02208459
v 0.05747525 -0.03894649 0.02211370
v 0.05747525 -0.03883655 0.02232806
v 0.05747525 -0.03872659 0.02250273
v 0.05747525 0.03896212 0.02207665
v 0.05747525 0.03918987 0.02149706
v 0.05661516 0.03931553 0.02175907
v 0.05689430 0.03913490 0.02203430
v 0.05601959 0.03929197 0.02220633
v 0.05627908 0.03935480 0.02187022
v 0.05538170 0.03949617 0.02203430
v 0.05386961 0.03965324 0.02253978
v 0.05323374 0.03984958 0.02235453
v 0.05235752 0.03995168 0.02253978
v 0.05295007 0.03979461 0.02269064
v 0.05232830 0.03995168 0.02253978
v 0.05232830 -0.03984967 0.02286266
v 0.05235752 -0.03995177 0.02253978
v 0.05356982 -0.03981826 0.02224602
v 0.05295007 -0.03979469 0.02269064
v 0.05386961 -0.03965333 0.02253978
v 0.05627908 -0.03935489 0.02187022
v 0.05538170 -0.03949625 0.02203430
v 0.05601959 -0.03929206 0.02220633
v 0.05689430 -0.03913499 0.02203430
v 0.05661516 -0.03931562 0.02175907
v 0.05747525 -0.03918996 0.02149706
v 0.05747525 -0.03896220 0.02207665
v 0.05747525 0.03922129 0.02138856
v 0.05735734 0.03922129 0.02148648
v 0.05689430 0.03928412 0.02164791
v 0.05689430 0.03935480 0.02139650
v 0.05487835 0.03960612 0.02203430
v 0.05356982 0.03981817 0.02224602
v 0.05232830 0.04006163 0.02203430
v 0.05232830 -0.03995177 0.02253978
v 0.05232830 -0.03995962 0.02251067
v 0.05232830 -0.04006172 0.02203430
v 0.05286139 -0.03997533 0.02203430
v 0.05376985 -0.03984967 0.02190992
v 0.05391043 -0.03979469 0.02206077
v 0.05588607 -0.03952767 0.02153147
v 0.05487835 -0.03960621 0.02203430
v 0.05689430 -0.03928421 0.02164791
v 0.05689430 -0.03935489 0.02139650
v 0.05735734 -0.03922138 0.02148648
v 0.05716185 -0.03932347 0.02129064
v 0.05747525 -0.03929991 0.02106304
v 0.05747525 0.03930768 0.02102599
v 0.05716185 0.03932339 0.02129064
v 0.05588607 0.03952758 0.02153147
v 0.05391043 0.03979461 0.02206077
v 0.05376985 0.03984958 0.02190992
v 0.05286139 0.03997524 0.02203430
v 0.05410593 0.03981817 0.02175642
v 0.05391043 0.03987315 0.02156587
v 0.05336575 0.03995954 0.02153147
v 0.05232830 0.04010876 0.02153147
v 0.05232830 -0.04010099 0.02153147
v 0.05235752 -0.04010099 0.02153147
v 0.05336575 -0.03995962 0.02153147
v 0.05391043 -0.03987323 0.02156587
v 0.05410593 -0.03981826 0.02175642
v 0.05727471 -0.03934703 0.02102599
v 0.05487835 -0.03971616 0.02153147
v 0.05747525 -0.03930777 0.02102599
v 0.05747525 0.03936265 0.02053373
v 0.05744149 0.03937051 0.02055226
v 0.05727471 0.03934695 0.02102599
v 0.05487835 0.03971607 0.02153147
v 0.05422181 0.03984173 0.02142031
v 0.05386961 0.03991241 0.02102599
v 0.05286139 0.04004593 0.02102599
v 0.05235752 0.04010876 0.02102599
v 0.05232830 0.04010876 0.00086230
v 0.05232830 -0.04010884 0.02102599
v 0.05235752 -0.04010884 0.02102599
v 0.05286139 -0.04004601 0.02102599
v 0.05386961 -0.03991250 0.02102599
v 0.05422181 -0.03984182 0.02142031
v 0.05638993 -0.03951196 0.02102599
v 0.05747525 -0.03933132 0.02086984
v 0.05747525 0.03937836 0.02001767
v 0.05739866 0.03939407 0.02001767
v 0.05689430 0.03946475 0.02052315
v 0.05538170 0.03968466 0.02102599
v 0.05588607 0.03959826 0.02102599
v 0.05638993 0.03951187 0.02102599
v 0.05487835 0.03976319 0.02102599
v 0.05538170 0.03970037 0.02052315
v 0.05456494 0.03981817 0.02052315
v 0.05336575 0.03998309 0.00691220
v 0.05235752 0.04010876 0.00136778
v 0.05286139 0.04004593 0.00086230
v 0.05430898 0.03984958 0.00035947
v 0.05424448 0.03984173 0.00007100
v 0.05386961 0.03985744 0.00004718
v 0.05286139 0.03996739 0.00035947
v 0.05232830 0.03994383 0.00029860
v 0.05232830 -0.04010884 0.00086230
v 0.05235752 -0.04010884 0.00136778
v 0.05336575 -0.03998318 0.00792052
v 0.05456394 -0.03981826 0.02052315
v 0.05538170 -0.03970045 0.02052315
v 0.05487835 -0.03976328 0.02102599
v 0.05538170 -0.03968474 0.02102599
v 0.05588607 -0.03959835 0.02102599
v 0.05744149 -0.03937060 0.02055226
v 0.05747525 -0.03936274 0.02055226
v 0.05747525 0.03937836 -0.00064885
v 0.05739866 0.03939407 -0.00014602
v 0.05689430 0.03947261 0.02001767
v 0.05588607 0.03962183 0.02052315
v 0.05538170 0.03970037 0.00035947
v 0.05638993 0.03955115 0.00993715
v 0.05456343 0.03981817 0.00086230
v 0.05336575 0.03998309 0.00086230
v 0.05456142 0.03981817 0.00035947
v 0.05588607 0.03962183 -0.00014602
v 0.05747525 0.03934695 -0.00097702
v 0.05739866 0.03935480 -0.00099025
v 0.05336575 0.03986529 0.00004718
v 0.05689430 0.03937836 -0.00100348
v 0.05286139 0.03985744 0.00006570
v 0.05246485 0.03984173 0.00008688
v 0.05232830 0.03962968 0.00000748
v 0.05286139 -0.03996748 0.00035947
v 0.05386961 -0.03985752 0.00004718
v 0.05424499 -0.03984182 0.00007100
v 0.05430948 -0.03984967 0.00035947
v 0.05286139 -0.04004601 0.00086230
v 0.05232830 -0.03998318 0.00043357
v 0.05336575 -0.03998318 0.00086230
v 0.05456394 -0.03981826 0.00086230
v 0.05538170 -0.03970045 0.00035947
v 0.05638993 -0.03955123 0.02001767
v 0.05588607 -0.03962191 0.02052315
v 0.05689430 -0.03946484 0.02052315
v 0.05747525 -0.03937845 0.02011559
v 0.05638993 0.03955115 -0.00014602
v 0.05747525 0.03933909 -0.00101142
v 0.05747525 0.03924485 -0.00122314
v 0.05638993 0.03937836 -0.00097966
v 0.05747525 0.03920558 -0.00130254
v 0.05588607 0.03935480 -0.00093732
v 0.05747525 0.03898568 -0.00155925
v 0.05232830 0.03961397 -0.00000046
v 0.05336575 -0.03986538 0.00004718
v 0.05232830 -0.03994391 0.00031183
v 0.05689430 -0.03937845 -0.00100348
v 0.05739866 -0.03935489 -0.00099025
v 0.05456142 -0.03981826 0.00035947
v 0.05747525 -0.03934703 -0.00097702
v 0.05588607 -0.03962191 -0.00014602
v 0.05638993 -0.03955123 -0.00014602
v 0.05739866 -0.03939416 0.02001767
v 0.05747525 -0.03937845 -0.00064885
v 0.05747525 0.03891499 -0.00159365
v 0.05689430 0.03890714 -0.00145868
v 0.05661667 0.03883646 -0.00141369
v 0.05747525 0.03856158 -0.00172598
v 0.05232830 0.03909563 -0.00011426
v 0.05286139 -0.03985752 0.00006570
v 0.05638993 -0.03937845 -0.00097966
v 0.05232830 -0.03983397 0.00009746
v 0.05246384 -0.03984182 0.00008688
v 0.05739866 -0.03923708 -0.00124167
v 0.05747525 -0.03924493 -0.00122314
v 0.05739866 -0.03939416 -0.00014602
v 0.05232830 0.03907207 -0.00011690
v 0.05747525 0.03845948 -0.00173392
v 0.05588607 -0.03935489 -0.00093732
v 0.05747525 -0.03898577 -0.00155925
v 0.05232830 -0.03962977 0.00000748
v 0.05689430 -0.03890723 -0.00145868
v 0.05747525 0.03805894 -0.00175244
v 0.05747525 0.03755631 -0.00175509
v 0.05232830 0.03405356 -0.00011955
v 0.05747525 -0.03856166 -0.00172598
v 0.05232830 -0.03962191 0.00000483
v 0.05661566 -0.03883655 -0.00141369
v 0.05747525 0.01083805 -0.00176038
v 0.05232830 0.02548518 -0.00012220
v 0.05747525 -0.03805903 -0.00175244
v 0.05232830 -0.03949625 -0.00002428
v 0.05232830 -0.03907216 -0.00011690
v 0.05747525 -0.03099856 -0.00175509
v 0.05232830 -0.00831710 -0.00012220
v 0.05232830 -0.02444858 -0.00011955
f 1 2 8
f 1 8 3
f 1 3 4
f 1 4 5
f 1 5 11
f 1 11 17
f 1 17 27
f 1 27 40
f 1 40 57
f 1 57 83
f 1 83 127
f 1 127 160
f 1 160 194
f 1 194 215
f 1 215 214
f 1 214 233
f 1 233 248
f 1 248 247
f 1 247 261
f 1 261 264
f 1 264 281
f 1 281 304
f 1 304 323
f 1 323 346
f 1 346 363
f 1 363 387
f 1 387 414
f 1 414 435
f 1 435 450
f 1 450 458
f 1 458 466
f 1 466 471
f 1 471 476
f 1 476 477
f 1 477 474
f 1 474 473
f 1 473 468
f 1 468 462
f 1 462 453
f 1 453 437
f 1 437 420
f 1 420 388
f 1 388 364
f 1 364 347
f 1 347 326
f 1 326 325
f 1 325 324
f 1 324 305
f 1 305 282
f 1 282 265
f 1 265 250
f 1 250 249
f 1 249 234
f 1 234 220
f 1 220 198
f 1 198 197
f 1 197 164
f 1 164 128
f 1 128 84
f 1 84 58
f 1 58 41
f 1 41 28
f 1 28 19
f 1 19 12
f 1 12 6
f 1 6 2
f 2 6 7
f 2 7 8
f 3 9 16
f 3 16 10
f 3 10 5
f 3 5 4
f 3 8 14
f 3 14 9
f 5 10 11
f 6 12 7
f 7 12 13
f 7 13 14
f 7 14 8
f 9 15 16
f 9 14 22
f 9 22 15
f 10 16 11
f 11 16 17
f 12 18 13
f 12 19 18
f 13 18 20
f 13 20 21
f 13 21 22
f 13 22 14
f 15 23 16
f 15 22 21
f 15 21 23
f 16 23 24
f 16 24 25
f 16 25 26
f 16 26 17
f 17 26 27
f 18 19 28
f 18 28 29
f 18 29 30
f 18 30 31
f 18 31 20
f 20 31 32
f 20 32 21
f 21 32 34
f 21 34 23
f 23 33 24
f 23 34 33
f 24 33 35
f 24 35 25
f 25 35 36
f 25 36 37
f 25 37 38
f 25 38 55
f 25 55 39
f 25 39 27
f 25 27 26
f 27 39 56
f 27 56 40
f 28 41 29
f 29 41 42
f 29 42 43
f 29 43 30
f 30 43 31
f 31 43 44
f 31 44 45
f 31 45 32
f 32 45 46
f 32 46 34
f 33 46 35
f 33 34 46
f 35 46 47
f 35 47 36
f 36 48 37
f 36 47 48
f 37 48 49
f 37 49 50
f 37 50 51
f 37 51 52
f 37 52 53
f 37 53 38
f 38 53 54
f 38 54 55
f 39 55 56
f 40 56 57
f 41 58 59
f 41 59 42
f 42 59 60
f 42 60 43
f 43 61 44
f 43 60 62
f 43 62 61
f 44 61 63
f 44 63 64
f 44 64 65
f 44 65 66
f 44 66 45
f 45 66 47
f 45 47 46
f 47 67 68
f 47 68 48
f 47 66 105
f 47 105 67
f 48 68 69
f 48 69 70
f 48 70 49
f 49 70 71
f 49 71 72
f 49 72 50
f 50 73 51
f 50 72 71
f 50 71 73
f 51 74 53
f 51 53 52
f 51 73 74
f 53 74 75
f 53 75 76
f 53 76 54
f 54 76 77
f 54 77 78
f 54 78 79
f 54 79 56
f 54 56 55
f 56 79 80
f 56 80 81
f 56 81 57
f 57 82 83
f 57 81 82
f 58 84 59
f 59 84 85
f 59 85 86
f 59 86 87
f 59 87 88
f 59 88 89
f 59 89 60
f 60 90 91
f 60 91 62
f 60 89 92
f 60 92 90
f 61 62 93
f 61 93 94
f 61 94 95
f 61 95 96
f 61 96 97
f 61 97 98
f 61 98 63
f 62 91 99
f 62 99 100
f 62 100 94
f 62 94 93
f 63 98 64
f 64 101 102
f 64 102 103
f 64 103 104
f 64 104 105
f 64 105 65
f 64 98 97
f 64 97 101
f 65 105 66
f 67 106 68
f 67 105 104
f 67 104 106
f 68 106 107
f 68 107 69
f 69 107 108
f 69 108 109
f 69 109 70
f 70 110 71
f 70 109 110
f 71 111 112
f 71 112 113
f 71 113 73
f 71 110 111
f 73 113 112
f 73 112 114
f 73 114 115
f 73 115 116
f 73 116 117
f 73 117 118
f 73 118 74
f 74 118 117
f 74 117 75
f 75 117 119
f 75 119 78
f 75 78 76
f 76 78 77
f 78 120 79
f 78 119 120
f 79 120 121
f 79 121 122
f 79 122 81
f 79 81 80
f 81 122 123
f 81 123 124
f 81 124 125
f 81 125 126
f 81 126 82
f 82 126 127
f 82 127 83
f 84 128 85
f 85 128 129
f 85 129 86
f 86 129 87
f 87 129 130
f 87 130 131
f 87 131 132
f 87 132 88
f 88 132 89
f 89 133 92
f 89 132 134
f 89 134 133
f 90 92 91
f 91 92 99
f 92 133 135
f 92 135 99
f 94 100 136
f 94 136 95
f 95 136 137
f 95 137 96
f 96 137 138
f 96 138 97
f 97 138 101
f 99 135 139
f 99 139 100
f 100 139 140
f 100 140 136
f 101 138 141
f 101 141 102
f 102 141 142
f 102 142 109
f 102 109 143
f 102 143 107
f 102 107 103
f 103 107 106
f 103 106 104
f 107 143 108
f 108 143 109
f 109 142 141
f 109 141 184
f 109 184 183
f 109 183 180
f 109 180 179
f 109 179 205
f 109 205 204
f 109 204 172
f 109 172 171
f 109 171 203
f 109 203 221
f 109 221 222
f 109 222 225
f 109 225 224
f 109 224 240
f 109 240 255
f 109 255 272
f 109 272 292
f 109 292 291
f 109 291 290
f 109 290 316
f 109 316 315
f 109 315 336
f 109 336 354
f 109 354 370
f 109 370 397
f 109 397 427
f 109 427 445
f 109 445 441
f 109 441 456
f 109 456 461
f 109 461 467
f 109 467 472
f 109 472 475
f 109 475 470
f 109 470 465
f 109 465 464
f 109 464 459
f 109 459 449
f 109 449 446
f 109 446 434
f 109 434 432
f 109 432 430
f 109 430 429
f 109 429 408
f 109 408 398
f 109 398 371
f 109 371 355
f 109 355 337
f 109 337 317
f 109 317 294
f 109 294 293
f 109 293 274
f 109 274 273
f 109 273 256
f 109 256 242
f 109 242 241
f 109 241 226
f 109 226 209
f 109 209 208
f 109 208 207
f 109 207 206
f 109 206 186
f 109 186 150
f 109 150 145
f 109 145 114
f 109 114 112
f 109 112 111
f 109 111 110
f 114 144 117
f 114 117 115
f 114 145 144
f 115 117 116
f 117 146 119
f 117 144 147
f 117 147 146
f 119 148 120
f 119 146 148
f 120 123 122
f 120 122 121
f 120 148 146
f 120 146 147
f 120 147 149
f 120 149 150
f 120 150 151
f 120 151 152
f 120 152 153
f 120 153 123
f 123 153 124
f 124 153 154
f 124 154 155
f 124 155 156
f 124 156 157
f 124 157 158
f 124 158 125
f 125 158 126
f 126 158 157
f 126 157 127
f 127 157 159
f 127 159 160
f 128 161 162
f 128 162 163
f 128 163 131
f 128 131 130
f 128 130 129
f 128 164 165
f 128 165 161
f 131 166 167
f 131 167 168
f 131 168 132
f 131 163 162
f 131 162 169
f 131 169 170
f 131 170 166
f 132 168 133
f 132 133 134
f 133 171 172
f 133 172 173
f 133 173 174
f 133 174 175
f 133 175 176
f 133 176 135
f 133 168 167
f 133 167 177
f 133 177 171
f 135 176 175
f 135 175 139
f 136 178 179
f 136 179 180
f 136 180 181
f 136 181 137
f 136 140 139
f 136 139 182
f 136 182 178
f 137 183 138
f 137 181 180
f 137 180 183
f 138 184 141
f 138 183 184
f 139 185 179
f 139 179 178
f 139 178 182
f 139 175 174
f 139 174 185
f 144 145 149
f 144 149 147
f 145 150 149
f 150 186 151
f 151 186 187
f 151 187 154
f 151 154 152
f 152 154 153
f 154 187 188
f 154 188 189
f 154 189 155
f 155 189 190
f 155 190 191
f 155 191 156
f 156 191 190
f 156 190 157
f 157 190 192
f 157 192 159
f 159 192 193
f 159 193 160
f 160 193 194
f 161 165 195
f 161 195 162
f 162 196 169
f 162 195 196
f 164 197 165
f 165 197 198
f 165 198 195
f 166 199 171
f 166 171 177
f 166 177 167
f 166 170 200
f 166 200 201
f 166 201 199
f 169 196 202
f 169 202 170
f 170 202 196
f 170 196 200
f 171 199 203
f 172 204 173
f 173 204 205
f 173 205 185
f 173 185 174
f 179 185 205
f 186 206 187
f 187 206 188
f 188 207 208
f 188 208 209
f 188 209 210
f 188 210 189
f 188 206 207
f 189 210 211
f 189 211 190
f 190 211 212
f 190 212 192
f 192 212 213
f 192 213 214
f 192 214 215
f 192 215 194
f 192 194 193
f 195 198 216
f 195 216 217
f 195 217 218
f 195 218 196
f 196 219 200
f 196 218 219
f 198 220 216
f 199 221 203
f 199 201 222
f 199 222 221
f 200 219 223
f 200 223 201
f 201 223 224
f 201 224 225
f 201 225 222
f 209 226 210
f 210 226 227
f 210 227 228
f 210 228 211
f 211 228 212
f 212 228 229
f 212 229 230
f 212 230 213
f 213 230 231
f 213 231 232
f 213 232 214
f 214 232 233
f 216 220 234
f 216 234 235
f 216 235 217
f 217 235 236
f 217 236 218
f 218 236 237
f 218 237 238
f 218 238 219
f 219 238 223
f 223 238 239
f 223 239 240
f 223 240 224
f 226 241 227
f 227 241 242
f 227 242 243
f 227 243 228
f 228 243 244
f 228 244 245
f 228 245 246
f 228 246 229
f 229 246 230
f 230 246 231
f 231 233 232
f 231 246 247
f 231 247 248
f 231 248 233
f 234 249 235
f 235 249 250
f 235 250 251
f 235 251 236
f 236 251 238
f 236 238 237
f 238 251 252
f 238 252 253
f 238 253 254
f 238 254 239
f 239 254 255
f 239 255 240
f 242 256 243
f 243 256 257
f 243 257 244
f 244 258 259
f 244 259 246
f 244 246 245
f 244 257 260
f 244 260 258
f 246 261 247
f 246 259 258
f 246 258 260
f 246 260 262
f 246 262 263
f 246 263 264
f 246 264 261
f 250 265 266
f 250 266 251
f 251 267 268
f 251 268 269
f 251 269 270
f 251 270 253
f 251 253 252
f 251 266 267
f 253 271 254
f 253 270 269
f 253 269 268
f 253 268 271
f 254 271 272
f 254 272 255
f 256 273 257
f 257 273 274
f 257 274 275
f 257 275 276
f 257 276 260
f 260 276 277
f 260 277 278
f 260 278 279
f 260 279 280
f 260 280 263
f 260 263 262
f 263 280 281
f 263 281 264
f 265 282 266
f 266 282 283
f 266 283 284
f 266 284 268
f 266 268 267
f 268 285 286
f 268 286 287
f 268 287 288
f 268 288 271
f 268 284 285
f 271 288 289
f 271 289 290
f 271 290 291
f 271 291 292
f 271 292 272
f 274 293 275
f 275 293 294
f 275 294 295
f 275 295 296
f 275 296 297
f 275 297 277
f 275 277 276
f 277 297 298
f 277 298 278
f 278 298 299
f 278 299 300
f 278 300 279
f 279 300 280
f 280 301 302
f 280 302 281
f 280 300 303
f 280 303 301
f 281 302 304
f 282 305 283
f 283 305 306
f 283 306 284
f 284 307 308
f 284 308 309
f 284 309 285
f 284 306 307
f 285 309 286
f 286 310 287
f 286 309 311
f 286 311 310
f 287 312 289
f 287 289 288
f 287 310 312
f 289 312 313
f 289 313 314
f 289 314 315
f 289 315 316
f 289 316 290
f 294 317 318
f 294 318 319
f 294 319 295
f 295 297 296
f 295 319 320
f 295 320 321
f 295 321 298
f 295 298 297
f 298 321 299
f 299 321 300
f 300 321 322
f 300 322 303
f 301 303 322
f 301 322 323
f 301 323 302
f 302 323 304
f 305 324 306
f 306 324 325
f 306 325 326
f 306 326 307
f 307 326 327
f 307 327 328
f 307 328 329
f 307 329 330
f 307 330 331
f 307 331 309
f 307 309 308
f 309 331 311
f 310 314 312
f 310 311 331
f 310 331 314
f 312 314 313
f 314 332 315
f 314 331 333
f 314 333 332
f 315 332 334
f 315 334 335
f 315 335 336
f 317 337 338
f 317 338 318
f 318 338 319
f 319 338 320
f 320 338 339
f 320 339 321
f 321 339 322
f 322 340 341
f 322 341 342
f 322 342 323
f 322 339 340
f 323 342 341
f 323 341 343
f 323 343 344
f 323 344 345
f 323 345 346
f 326 347 348
f 326 348 349
f 326 349 350
f 326 350 351
f 326 351 328
f 326 328 327
f 328 351 329
f 329 351 330
f 330 352 335
f 330 335 333
f 330 333 331
f 330 351 353
f 330 353 352
f 332 333 335
f 332 335 334
f 335 354 336
f 335 352 354
f 337 355 356
f 337 356 357
f 337 357 338
f 338 357 339
f 339 357 358
f 339 358 343
f 339 343 340
f 340 343 341
f 343 359 344
f 343 358 359
f 344 359 345
f 345 359 360
f 345 360 346
f 346 361 362
f 346 362 381
f 346 381 363
f 346 360 361
f 347 364 365
f 347 365 348
f 348 365 366
f 348 366 367
f 348 367 349
f 349 367 368
f 349 368 350
f 350 368 351
f 351 368 353
f 352 369 370
f 352 370 354
f 352 353 369
f 353 368 369
f 355 371 356
f 356 371 372
f 356 372 373
f 356 373 374
f 356 374 375
f 356 375 376
f 356 376 357
f 357 376 358
f 358 376 359
f 359 376 375
f 359 375 374
f 359 374 377
f 359 377 360
f 360 377 378
f 360 378 379
f 360 379 380
f 360 380 361
f 361 380 362
f 362 380 405
f 362 405 381
f 363 381 382
f 363 382 383
f 363 383 384
f 363 384 385
f 363 385 386
f 363 386 387
f 364 388 389
f 364 389 365
f 365 389 421
f 365 421 390
f 365 390 366
f 366 390 367
f 367 391 392
f 367 392 393
f 367 393 368
f 367 390 391
f 368 393 394
f 368 394 395
f 368 395 369
f 369 395 396
f 369 396 370
f 370 396 397
f 371 398 399
f 371 399 372
f 372 399 428
f 372 428 403
f 372 403 400
f 372 400 378
f 372 378 401
f 372 401 373
f 373 401 377
f 373 377 374
f 377 401 378
f 378 402 379
f 378 400 403
f 378 403 428
f 378 428 402
f 379 402 404
f 379 404 405
f 379 405 380
f 381 405 382
f 382 405 406
f 382 406 383
f 383 406 384
f 384 406 407
f 384 407 408
f 384 408 409
f 384 409 385
f 385 410 386
f 385 409 411
f 385 411 410
f 386 410 387
f 387 410 412
f 387 412 413
f 387 413 414
f 388 415 416
f 388 416 417
f 388 417 418
f 388 418 419
f 388 419 389
f 388 420 415
f 389 419 421
f 390 421 422
f 390 422 391
f 391 422 423
f 391 423 392
f 392 423 443
f 392 443 424
f 392 424 444
f 392 444 425
f 392 425 393
f 393 425 426
f 393 426 394
f 394 426 396
f 394 396 395
f 396 427 397
f 396 426 427
f 398 408 407
f 398 407 428
f 398 428 399
f 402 406 404
f 402 428 406
f 404 406 405
f 406 428 407
f 408 429 409
f 409 429 430
f 409 430 411
f 410 411 431
f 410 431 412
f 411 430 432
f 411 432 431
f 412 431 413
f 413 431 433
f 413 433 434
f 413 434 414
f 414 434 435
f 415 436 416
f 415 420 437
f 415 437 436
f 416 436 438
f 416 438 439
f 416 439 417
f 417 440 418
f 417 439 441
f 417 441 442
f 417 442 440
f 418 440 421
f 418 421 419
f 421 440 422
f 422 440 423
f 423 440 443
f 424 443 457
f 424 457 444
f 425 444 426
f 426 444 427
f 427 444 457
f 427 457 445
f 431 432 434
f 431 434 433
f 434 446 447
f 434 447 435
f 435 447 448
f 435 448 449
f 435 449 450
f 436 437 451
f 436 451 452
f 436 452 438
f 437 453 454
f 437 454 451
f 438 452 455
f 438 455 456
f 438 456 439
f 439 456 441
f 440 442 443
f 441 445 442
f 442 445 443
f 443 445 457
f 446 449 447
f 447 449 448
f 449 458 450
f 449 459 458
f 451 454 452
f 452 460 461
f 452 461 455
f 452 454 460
f 453 462 463
f 453 463 461
f 453 461 460
f 453 460 454
f 455 461 456
f 458 459 464
f 458 464 465
f 458 465 466
f 461 463 467
f 462 468 469
f 462 469 463
f 463 469 467
f 465 470 471
f 465 471 466
f 467 469 468
f 467 468 473
f 467 473 474
f 467 474 472
f 470 475 476
f 470 476 471
f 472 474 475
f 474 477 475
f 475 477 476
