# https://github.com/mikedh/trimesh
v 0.02519651 -0.02949124 0.02652663
v 0.02519651 -0.03021017 0.02652663
v 0.02519651 -0.02949124 0.02085890
v 0.02519591 -0.02433035 0.02612614
v 0.02519591 -0.02439539 0.02640271
v 0.02519591 -0.02442417 0.02641435
v 0.02519591 -0.02446216 0.02642325
v 0.02519591 -0.02489271 0.02651430
v 0.02519591 -0.02495603 0.02651704
v 0.02519591 -0.02539695 0.02652663
v 0.02059628 -0.03021017 0.02652663
v 0.02519651 -0.03021017 0.01953285
v 0.02519591 -0.02672602 0.02153254
v 0.02519591 -0.02653665 0.02188373
v 0.02519591 -0.02456232 0.02560790
v 0.02519591 -0.02435510 0.02603235
v 0.02519591 -0.02433035 0.02609602
v 0.02018197 -0.02764642 0.02606864
v 0.02017602 -0.02765102 0.02638629
v 0.02479351 -0.02463830 0.02637533
v 0.02059569 -0.02798027 0.02652320
v 0.02513222 -0.02495603 0.02651567
v 0.02462743 -0.02546026 0.02652594
v 0.02412383 -0.02596449 0.02652663
v 0.02059569 -0.02949124 0.02652663
v 0.02038258 -0.03021017 0.02652046
v 0.01958790 -0.03021017 0.02514718
v 0.02487149 -0.02721356 0.02127034
v 0.02519591 -0.02747604 0.02087123
v 0.02519591 -0.02703052 0.02109440
v 0.02519591 -0.02702016 0.02110262
v 0.02029627 -0.02769650 0.02577700
v 0.01996411 -0.02793019 0.02608027
v 0.01980517 -0.02806488 0.02625621
v 0.01980517 -0.02806488 0.02636164
v 0.02004149 -0.02793019 0.02642531
v 0.02059569 -0.02848450 0.02652663
v 0.02109988 -0.02798027 0.02652663
v 0.02160407 -0.02747604 0.02652594
v 0.02009149 -0.02848450 0.02648418
v 0.02009209 -0.03021017 0.02650061
v 0.02261126 -0.02697238 0.02652663
v 0.01917121 -0.03021017 0.02556478
v 0.02519413 -0.02702361 0.02110056
v 0.01911526 -0.03021017 0.02607001
v 0.01916228 -0.03021017 0.02633973
v 0.01914264 -0.03021017 0.02630414
v 0.01942063 -0.03021017 0.02639998
v 0.01987839 -0.03021017 0.02648076
f 1 2 12
f 1 12 3
f 1 3 17
f 1 17 4
f 1 4 5
f 1 5 6
f 1 6 7
f 1 7 8
f 1 8 9
f 1 9 10
f 1 10 24
f 1 24 42
f 1 42 38
f 1 38 37
f 1 37 25
f 1 25 11
f 1 11 2
f 2 11 26
f 2 26 41
f 2 41 49
f 2 49 48
f 2 48 46
f 2 46 47
f 2 47 45
f 2 45 43
f 2 43 27
f 2 27 12
f 3 12 13
f 3 13 14
f 3 14 15
f 3 15 16
f 3 16 17
f 4 17 18
f 4 18 19
f 4 19 20
f 4 20 5
f 5 20 19
f 5 19 6
f 6 19 7
f 7 19 21
f 7 21 8
f 8 21 22
f 8 22 9
f 9 22 23
f 9 23 10
f 10 23 24
f 11 25 26
f 12 27 28
f 12 28 29
f 12 29 30
f 12 30 31
f 12 31 13
f 13 31 32
f 13 32 14
f 14 32 15
f 15 32 16
f 16 32 18
f 16 18 17
f 18 32 33
f 18 33 34
f 18 34 19
f 19 34 35
f 19 35 36
f 19 36 21
f 21 37 38
f 21 38 39
f 21 39 23
f 21 23 22
f 21 36 40
f 21 40 41
f 21 41 37
f 23 39 42
f 23 42 24
f 25 37 26
f 26 37 41
f 27 43 28
f 28 44 30
f 28 30 29
f 28 43 32
f 28 32 44
f 30 44 31
f 31 44 32
f 32 43 33
f 33 43 34
f 34 43 45
f 34 45 35
f 35 46 36
f 35 45 47
f 35 47 46
f 36 46 40
f 38 42 39
f 40 46 48
f 40 48 49
f 40 49 41
