# https://github.com/mikedh/trimesh
v 0.02814519 0.01899038 0.01749913
v 0.02814519 0.01901438 0.01701720
v 0.02814519 0.01922296 0.02556476
v 0.02519679 0.01922296 0.02556476
v 0.02519679 0.01922296 0.02253990
v 0.02519679 0.01922573 0.02203592
v 0.02787474 0.01912329 0.01719655
v 0.02814519 0.01926819 0.01673966
v 0.02519679 0.01930972 0.02153195
v 0.02814519 0.01925804 0.02606874
v 0.02519679 0.01925804 0.02606874
v 0.02519679 0.01949985 0.02106905
v 0.02519679 0.01953215 0.02100392
v 0.02534544 0.01958753 0.02072839
v 0.02814519 0.01941032 0.01668656
v 0.02814519 0.01947862 0.02642343
v 0.02519679 0.01947862 0.02642343
v 0.02519679 0.01976658 0.02088369
v 0.02814519 0.02841916 0.01629179
v 0.02519679 0.01991425 0.02086165
v 0.02814519 0.01991425 0.02652663
v 0.02519679 0.01991425 0.02652663
v 0.02519679 0.02841916 0.02053401
v 0.02814519 0.02841916 0.02652663
v 0.02519679 0.02841916 0.02652663
f 1 2 8
f 1 8 15
f 1 15 19
f 1 19 24
f 1 24 21
f 1 21 16
f 1 16 10
f 1 10 3
f 1 3 4
f 1 4 5
f 1 5 6
f 1 6 2
f 2 7 8
f 2 6 9
f 2 9 7
f 3 10 11
f 3 11 4
f 4 11 17
f 4 17 22
f 4 22 25
f 4 25 23
f 4 23 20
f 4 20 18
f 4 18 13
f 4 13 12
f 4 12 9
f 4 9 6
f 4 6 5
f 7 9 12
f 7 12 13
f 7 13 14
f 7 14 8
f 8 14 15
f 10 16 17
f 10 17 11
f 13 18 14
f 14 18 15
f 15 18 20
f 15 20 19
f 16 21 22
f 16 22 17
f 19 20 23
f 19 23 25
f 19 25 24
f 21 24 25
f 21 25 22
