# https://github.com/mikedh/trimesh
v 0.04735130 -0.03654764 0.02594158
v 0.04735130 -0.03704905 0.02593648
v 0.04782001 -0.03654764 0.02588800
v 0.04851235 -0.02142564 0.02580890
v 0.04851235 -0.01940406 0.02580890
v 0.04782001 0.03654734 0.02588800
v 0.04735130 0.03657918 0.02593903
v 0.04735130 -0.03755843 0.02590076
v 0.04814889 -0.03737537 0.02582677
v 0.04782001 -0.03704905 0.02588290
v 0.04851138 -0.03654764 0.02580890
v 0.04882808 -0.02041485 0.02577063
v 0.04850797 0.03654734 0.02580890
v 0.04782001 0.03704876 0.02588290
v 0.04735130 0.03704876 0.02593648
v 0.04735130 -0.03790862 0.02584207
v 0.04762317 -0.03783699 0.02582422
v 0.04795936 -0.03770965 0.02580125
v 0.04882808 -0.03755843 0.02569409
v 0.04933235 -0.03755843 0.02561754
v 0.05034042 -0.03704905 0.02553845
v 0.04983663 -0.03704905 0.02561499
v 0.04933235 -0.03704905 0.02568643
v 0.04847533 -0.03704905 0.02580380
v 0.04822294 -0.03704905 0.02583442
v 0.04933235 -0.03654764 0.02570429
v 0.04983663 -0.03604623 0.02564051
v 0.04933235 0.03402435 0.02570685
v 0.04933235 0.03654734 0.02570685
v 0.04822148 0.03704876 0.02583442
v 0.04814840 0.03737507 0.02582677
v 0.04735130 0.03708855 0.02593393
v 0.04735130 -0.03813147 0.02577829
v 0.04780247 -0.03802800 0.02574001
v 0.04832429 -0.03805984 0.02564816
v 0.04983663 -0.03755843 0.02553845
v 0.05156238 -0.03726394 0.02530626
v 0.05084421 -0.03704905 0.02545680
v 0.05171732 -0.03692967 0.02533178
v 0.05181184 -0.03654764 0.02534709
v 0.05134849 -0.03654764 0.02541853
v 0.05084421 -0.03654764 0.02549507
v 0.04983663 -0.03654764 0.02563796
v 0.05084421 -0.03604623 0.02550017
v 0.05034042 0.02797556 0.02557162
v 0.04983663 0.03604593 0.02564051
v 0.04983663 0.03654734 0.02563796
v 0.04882808 0.03704876 0.02575533
v 0.04933235 0.03704876 0.02568643
v 0.04983663 0.03704876 0.02561499
v 0.05034042 0.03704876 0.02553845
v 0.04933235 0.03755813 0.02561754
v 0.04882808 0.03755813 0.02569409
v 0.04795887 0.03770935 0.02580125
v 0.04735130 0.03755813 0.02590076
v 0.04735130 -0.03815535 0.02577063
v 0.04782001 -0.03856125 0.02553334
v 0.04962713 -0.03833044 0.02531902
v 0.04933235 -0.03805984 0.02547466
v 0.05034042 -0.03790862 0.02534964
v 0.05034042 -0.03755843 0.02545170
v 0.05232781 -0.03708089 0.02518889
v 0.05232781 -0.03705701 0.02519400
v 0.05187226 -0.03708089 0.02527820
v 0.05137626 -0.03708089 0.02536495
v 0.05122620 -0.03739129 0.02533433
v 0.05097430 -0.03772556 0.02528840
v 0.05137626 -0.03755843 0.02525779
v 0.05185277 -0.03755843 0.02516338
v 0.05232781 -0.03755843 0.02506132
v 0.05232781 -0.03657947 0.02525523
v 0.05206422 -0.03654764 0.02530371
v 0.05232781 -0.03604623 0.02527565
v 0.05210077 -0.03604623 0.02531137
v 0.05134849 -0.03604623 0.02542618
v 0.05084421 0.03604593 0.02550017
v 0.05034042 0.03604593 0.02557162
v 0.05034042 0.03654734 0.02556906
v 0.05084421 0.03654734 0.02549507
v 0.05134849 0.03654734 0.02541853
v 0.05180989 0.03654734 0.02534709
v 0.05171732 0.03692937 0.02533178
v 0.05084421 0.03704876 0.02545680
v 0.05156238 0.03726365 0.02530626
v 0.04983663 0.03755813 0.02553845
v 0.04762317 0.03783669 0.02582422
v 0.04735130 0.03758997 0.02589566
v 0.04735130 -0.03856125 0.02560989
v 0.04816789 -0.03884778 0.02533178
v 0.04833111 -0.03860105 0.02542618
v 0.04850359 -0.03879206 0.02529606
v 0.04981178 -0.03852146 0.02517104
v 0.05172950 -0.03836228 0.02483934
v 0.04996282 -0.03825086 0.02528585
v 0.04981178 -0.03807576 0.02538536
v 0.05063812 -0.03782903 0.02532157
v 0.05232781 -0.03798025 0.02489292
v 0.05232781 -0.03654764 0.02525779
v 0.05210125 -0.02847727 0.02531137
v 0.05232781 0.03099996 0.02527565
v 0.05134849 0.03604593 0.02542618
v 0.05209687 0.03604593 0.02531137
v 0.05232781 0.03604593 0.02527309
v 0.05232781 0.03649163 0.02526033
v 0.05206227 0.03654734 0.02530371
v 0.05232781 0.03700100 0.02520165
v 0.05232781 0.03705671 0.02519400
v 0.05187226 0.03708059 0.02527820
v 0.05137626 0.03708059 0.02536495
v 0.05232781 0.03654734 0.02525779
v 0.05232781 0.03755813 0.02506132
v 0.05185277 0.03755813 0.02516338
v 0.05137626 0.03755813 0.02525779
v 0.05097430 0.03772527 0.02528840
v 0.05122620 0.03739099 0.02533433
v 0.05034042 0.03755813 0.02545170
v 0.05034042 0.03790832 0.02534964
v 0.04832429 0.03805954 0.02564816
v 0.04735130 0.03790037 0.02584207
v 0.04780247 0.03802771 0.02574001
v 0.04735130 0.03815505 0.02577063
v 0.04782001 -0.03889553 0.02536240
v 0.04735130 -0.03893532 0.02541598
v 0.04735130 -0.03921389 0.02523482
v 0.04782001 -0.03915022 0.02518634
v 0.04833111 -0.03903879 0.02515828
v 0.04933235 -0.03901491 0.02495671
v 0.05034042 -0.03886369 0.02484445
v 0.05060450 -0.03882390 0.02481128
v 0.05034042 -0.03856125 0.02503070
v 0.05134849 -0.03843391 0.02488272
v 0.05187957 -0.03854534 0.02467350
v 0.05206569 -0.03829065 0.02479852
v 0.05187957 -0.03809963 0.02493630
v 0.05134849 -0.03805984 0.02507408
v 0.05034042 -0.03815535 0.02524758
v 0.05232781 -0.03823493 0.02476280
v 0.05210125 -0.01134165 0.02531137
v 0.05209784 0.02596194 0.02531137
v 0.05209833 0.02091597 0.02531137
v 0.05232781 0.03794812 0.02490568
v 0.05063812 0.03782874 0.02532157
v 0.04981178 0.03807546 0.02538536
v 0.04933235 0.03805954 0.02547466
v 0.04996282 0.03825056 0.02528585
v 0.04962713 0.03833015 0.02531902
v 0.04933235 0.03838586 0.02534709
v 0.04782001 0.03856096 0.02553334
v 0.04735130 0.03819485 0.02575533
v 0.04735130 -0.03895920 0.02540322
v 0.04832429 -0.03939695 0.02488017
v 0.04735130 -0.03950837 0.02498223
v 0.04782001 -0.03946061 0.02493375
v 0.04903125 -0.03930939 0.02479597
v 0.04983663 -0.03919001 0.02469136
v 0.05185277 -0.03891941 0.02439539
v 0.05223329 -0.03885574 0.02434180
v 0.05232781 -0.03860105 0.02451020
v 0.05094068 -0.03876023 0.02476790
v 0.05232781 0.03797995 0.02489292
v 0.05134849 0.03805954 0.02507408
v 0.05034042 0.03815505 0.02524758
v 0.05172950 0.03836199 0.02483934
v 0.04981178 0.03852116 0.02517104
v 0.04850359 0.03879177 0.02529606
v 0.04816789 0.03884748 0.02533178
v 0.04833111 0.03860075 0.02542618
v 0.04735130 0.03856096 0.02560989
v 0.04735130 -0.03974714 0.02475259
v 0.04832429 -0.03965163 0.02460971
v 0.04983663 -0.03944470 0.02443876
v 0.05034042 -0.03938102 0.02436987
v 0.05066589 -0.03934123 0.02432394
v 0.05134849 -0.03924572 0.02421933
v 0.05232781 -0.03883982 0.02432649
v 0.05232781 -0.03899899 0.02416320
v 0.05232781 0.03823464 0.02476280
v 0.05206569 0.03829035 0.02479852
v 0.05187957 0.03809934 0.02493630
v 0.05187957 0.03854504 0.02467350
v 0.05060450 0.03882360 0.02481128
v 0.05134849 0.03843362 0.02488272
v 0.05034042 0.03856096 0.02503070
v 0.05034042 0.03886340 0.02484445
v 0.04983663 0.03894299 0.02490313
v 0.04833111 0.03903849 0.02515828
v 0.04782001 0.03914992 0.02518634
v 0.04735130 0.03921359 0.02523482
v 0.04782001 0.03889523 0.02536240
v 0.04735130 0.03895890 0.02540322
v 0.04735130 -0.03976306 0.02473473
v 0.04832429 -0.03986652 0.02435711
v 0.04862003 -0.03983469 0.02431629
v 0.04983663 -0.03969938 0.02412493
v 0.05134849 -0.03945265 0.02396674
v 0.05185277 -0.03938898 0.02388764
v 0.05232781 -0.03932531 0.02380854
v 0.05232781 -0.03915818 0.02399225
v 0.05185277 -0.03916613 0.02414024
v 0.05232781 0.03855300 0.02454337
v 0.05232781 0.03860075 0.02451020
v 0.05094068 0.03875993 0.02476790
v 0.05223329 0.03885544 0.02434180
v 0.05185277 0.03891911 0.02439539
v 0.05034042 0.03911809 0.02462247
v 0.04983663 0.03918971 0.02469136
v 0.04903125 0.03930910 0.02479597
v 0.04832429 0.03939665 0.02488017
v 0.04735130 0.03923747 0.02521696
v 0.04735130 -0.03994611 0.02450000
v 0.04782001 -0.03991427 0.02442345
v 0.04880420 -0.03994611 0.02407900
v 0.04735130 -0.04024059 0.02403052
v 0.04782001 -0.04014508 0.02405094
v 0.05015479 -0.03984264 0.02382130
v 0.04983663 -0.03987448 0.02387233
v 0.05232781 -0.03944470 0.02363249
v 0.05232781 0.03869626 0.02443366
v 0.05232781 0.03899870 0.02416320
v 0.05134849 0.03924543 0.02421933
v 0.05066589 0.03934094 0.02432394
v 0.05034042 0.03938073 0.02436987
v 0.04983663 0.03944440 0.02443876
v 0.04832429 0.03965133 0.02460971
v 0.04735130 0.03976276 0.02473473
v 0.04782001 0.03946032 0.02493375
v 0.04735130 0.03950807 0.02498223
v 0.04933235 -0.03992223 0.02395143
v 0.04735130 -0.04034406 0.02382896
v 0.04755983 -0.04032814 0.02379579
v 0.05032970 -0.03993019 0.02357381
v 0.05159405 -0.03982673 0.02329315
v 0.05084421 -0.03976306 0.02368863
v 0.04933235 -0.04012917 0.02354829
v 0.05185277 -0.03961184 0.02354829
v 0.05232781 -0.03949245 0.02355595
v 0.05232781 0.03906237 0.02409686
v 0.05219772 0.03934889 0.02383151
v 0.05134849 0.03945236 0.02396674
v 0.04983663 0.03969909 0.02412493
v 0.04862003 0.03983439 0.02431629
v 0.04832429 0.03986622 0.02435711
v 0.04735130 0.03977868 0.02471687
v 0.04735130 -0.04043161 0.02359422
v 0.04782001 -0.04039977 0.02349216
v 0.04863903 -0.04033610 0.02332121
v 0.04832429 -0.04026447 0.02364014
v 0.05084421 -0.04005754 0.02304310
v 0.05185277 -0.03989836 0.02297676
v 0.05232781 -0.03985060 0.02286194
v 0.05232781 -0.03974714 0.02309923
v 0.05232781 -0.03973918 0.02311454
v 0.04881541 -0.04023263 0.02351257
v 0.04897522 -0.04031222 0.02323446
v 0.05232781 0.03915788 0.02399225
v 0.05232781 0.03944440 0.02363249
v 0.05185277 0.03961154 0.02354829
v 0.05084421 0.03976276 0.02368863
v 0.05015479 0.03984235 0.02382130
v 0.04983663 0.03987418 0.02387233
v 0.04880420 0.03994581 0.02407900
v 0.04782001 0.03991398 0.02442345
v 0.04782001 0.04014479 0.02405094
v 0.04735130 0.04023233 0.02404328
v 0.04735130 0.03995378 0.02448468
v 0.04735130 -0.04058282 0.02304310
v 0.04832429 -0.04045548 0.02304310
v 0.04881541 -0.04038385 0.02305841
v 0.05185277 -0.04004162 0.02253791
v 0.05034042 -0.04014508 0.02304310
v 0.05232781 -0.03995407 0.02253791
v 0.04980838 -0.04024855 0.02300483
v 0.04962177 -0.04033610 0.02281091
v 0.05232781 0.03947624 0.02357891
v 0.05159405 0.03982643 0.02329315
v 0.05032970 0.03992990 0.02357381
v 0.04933235 0.04012887 0.02354829
v 0.04755983 0.04032784 0.02379579
v 0.04933235 0.03992194 0.02395143
v 0.04735130 0.04042335 0.02361463
v 0.04735130 -0.04063854 0.02253791
v 0.04782001 -0.04059079 0.02253791
v 0.04832429 -0.04053507 0.02253791
v 0.04933235 -0.04041569 0.02253791
v 0.04995747 -0.04031222 0.02267824
v 0.05084421 -0.04020080 0.02253791
v 0.05232781 -0.04006550 0.02200720
v 0.05232781 -0.03996203 0.02250984
v 0.05232781 0.03973092 0.02313240
v 0.05232781 0.03985031 0.02287470
v 0.05084421 0.04005724 0.02304310
v 0.04897522 0.04031193 0.02323446
v 0.04881541 0.04023233 0.02351257
v 0.04832429 0.04026417 0.02364014
v 0.04863903 0.04033580 0.02332121
v 0.04782001 0.04039947 0.02349216
v 0.04735130 0.04043131 0.02359422
v 0.04735130 -0.04065446 0.02203526
v 0.04832429 -0.04055895 0.02203526
v 0.04983663 -0.04039181 0.02203526
v 0.05015528 -0.04033610 0.02234144
v 0.05084421 -0.04027243 0.02203526
v 0.05232781 -0.04010529 0.02153007
v 0.05232781 0.03995378 0.02253791
v 0.05185277 0.04004132 0.02253791
v 0.05034042 0.04014479 0.02304310
v 0.04980838 0.04024826 0.02300483
v 0.04962177 0.04033580 0.02281091
v 0.04881541 0.04038356 0.02305841
v 0.04832429 0.04045519 0.02304310
v 0.04735130 0.04058253 0.02304310
v 0.04735130 -0.04064650 0.00187090
v 0.04782001 -0.04060670 0.00187090
v 0.04832429 -0.04055895 0.00187090
v 0.04882808 -0.04051119 0.00187090
v 0.04882808 -0.04051119 0.02153007
v 0.05029804 -0.04035202 0.02153007
v 0.05134849 -0.04023263 0.02153007
v 0.05024346 -0.04034406 0.02203526
v 0.05185277 -0.04016896 0.02153007
v 0.05232781 -0.04011325 0.02102743
v 0.05232781 0.04005724 0.02206333
v 0.05084421 0.04020050 0.02253791
v 0.04995747 0.04031193 0.02267824
v 0.04933235 0.04041539 0.02253791
v 0.04832429 0.04053478 0.02253791
v 0.04782001 0.04059049 0.02253791
v 0.04735130 0.04063824 0.02253791
v 0.04735130 -0.04052711 0.00136571
v 0.04832429 -0.04049528 0.00136571
v 0.04983663 -0.04035997 0.00105698
v 0.05022495 -0.04034406 0.00108250
v 0.05029511 -0.04035202 0.00136571
v 0.05029804 -0.04035202 0.02102743
v 0.05134849 -0.04023263 0.00136571
v 0.05232781 -0.04011325 0.00133764
v 0.05232781 0.04010499 0.02156069
v 0.05185277 0.04013683 0.02203526
v 0.05015528 0.04033580 0.02234144
v 0.05049682 0.04031989 0.02203526
v 0.04832429 0.04055865 0.02203526
v 0.04735130 0.04065416 0.02203526
v 0.04882808 -0.04037590 0.00104933
v 0.04933235 -0.04036793 0.00104678
v 0.04735130 -0.04036793 0.00108250
v 0.04782001 -0.04037590 0.00106974
v 0.04832429 -0.04037590 0.00105698
v 0.05232001 -0.03994611 0.00030940
v 0.05134849 -0.04019284 0.00086307
v 0.05185277 -0.04015304 0.00086307
v 0.05232781 -0.04010529 0.00086307
v 0.05232781 0.04011295 0.02105549
v 0.05185277 0.04016867 0.02153007
v 0.05055334 0.04032784 0.02153007
v 0.05134849 0.04023233 0.02153007
v 0.04882808 0.04051090 0.02153007
v 0.04735130 0.04064620 0.00187090
v 0.04882808 0.04051090 0.00187090
v 0.04832429 0.04055865 0.00187090
v 0.04782001 0.04060641 0.00187090
v 0.05232781 -0.03983469 0.00009762
v 0.04735130 -0.04007345 0.00096513
v 0.05212707 -0.03981877 0.00011038
v 0.05232781 -0.03994611 0.00031195
v 0.05232781 -0.04009733 0.00083500
v 0.05232781 0.04011295 0.00136571
v 0.05054896 0.04032784 0.00136571
v 0.05134849 0.04023233 0.00136571
v 0.04735130 0.04063824 0.00183518
v 0.05022690 0.04034376 0.00108250
v 0.04983663 0.04035968 0.00105698
v 0.04832429 0.04049498 0.00136571
v 0.05029706 0.04035172 0.00136571
v 0.05232001 -0.03961979 0.00000322
v 0.05232781 -0.03961979 0.00000322
v 0.04735130 -0.03957204 0.00088348
v 0.05232781 -0.03907062 -0.00011670
v 0.05185277 -0.03948449 0.00005425
v 0.05232781 0.04010499 0.00086307
v 0.04735130 0.04052682 0.00136571
v 0.05185277 0.04015275 0.00086307
v 0.05134849 0.04019254 0.00086307
v 0.05232781 0.03994581 0.00030685
v 0.04933235 0.04036764 0.00104678
v 0.05232781 -0.03949245 -0.00002485
v 0.05232781 -0.02747444 -0.00011925
v 0.04735130 0.03957174 0.00088348
v 0.05232781 0.00075595 -0.00012436
v 0.04882808 0.04037560 0.00104933
v 0.04832429 0.04037560 0.00105698
v 0.04782001 0.04037560 0.00106974
v 0.04735130 0.04036764 0.00107994
v 0.05232781 0.03993785 0.00029919
v 0.05212805 0.03981847 0.00011038
v 0.04735130 0.04004132 0.00095747
v 0.05232781 0.03909421 -0.00011415
v 0.05232781 0.03907033 -0.00011670
v 0.05232781 0.03556839 -0.00011925
v 0.05232781 0.02699661 -0.00012180
v 0.04735130 0.04034376 0.00106974
v 0.05232781 0.03961950 0.00000067
v 0.04735130 0.04007316 0.00096513
f 1 2 10
f 1 10 3
f 1 3 4
f 1 4 5
f 1 5 6
f 1 6 7
f 1 7 15
f 1 15 32
f 1 32 55
f 1 55 87
f 1 87 119
f 1 119 121
f 1 121 149
f 1 149 168
f 1 168 190
f 1 190 188
f 1 188 209
f 1 209 227
f 1 227 225
f 1 225 243
f 1 243 265
f 1 265 264
f 1 264 280
f 1 280 297
f 1 297 311
f 1 311 328
f 1 328 342
f 1 342 357
f 1 357 369
f 1 369 380
f 1 380 392
f 1 392 400
f 1 400 402
f 1 402 395
f 1 395 387
f 1 387 376
f 1 376 362
f 1 362 345
f 1 345 329
f 1 329 312
f 1 312 298
f 1 298 281
f 1 281 266
f 1 266 244
f 1 244 229
f 1 229 213
f 1 213 210
f 1 210 191
f 1 191 169
f 1 169 152
f 1 152 124
f 1 124 150
f 1 150 123
f 1 123 88
f 1 88 56
f 1 56 33
f 1 33 16
f 1 16 8
f 1 8 2
f 2 8 9
f 2 9 10
f 3 10 11
f 3 11 4
f 4 12 5
f 4 11 12
f 5 12 13
f 5 13 6
f 6 13 14
f 6 14 15
f 6 15 7
f 8 16 17
f 8 17 18
f 8 18 9
f 9 19 20
f 9 20 21
f 9 21 22
f 9 22 23
f 9 23 24
f 9 24 25
f 9 25 10
f 9 18 19
f 10 25 11
f 11 25 24
f 11 24 26
f 11 26 27
f 11 27 12
f 12 27 28
f 12 28 29
f 12 29 13
f 13 29 30
f 13 30 14
f 14 30 31
f 14 31 15
f 15 31 32
f 16 33 17
f 17 33 34
f 17 34 35
f 17 35 36
f 17 36 18
f 18 36 20
f 18 20 19
f 20 36 21
f 21 36 37
f 21 37 38
f 21 38 39
f 21 39 40
f 21 40 41
f 21 41 22
f 22 41 42
f 22 42 43
f 22 43 23
f 23 43 24
f 24 43 26
f 26 43 27
f 27 43 44
f 27 44 45
f 27 45 77
f 27 77 46
f 27 46 29
f 27 29 28
f 29 46 47
f 29 47 49
f 29 49 48
f 29 48 30
f 30 48 31
f 31 48 49
f 31 49 50
f 31 50 51
f 31 51 52
f 31 52 53
f 31 53 54
f 31 54 55
f 31 55 32
f 33 56 35
f 33 35 34
f 35 56 57
f 35 57 58
f 35 58 59
f 35 59 60
f 35 60 36
f 36 60 96
f 36 96 61
f 36 61 37
f 37 62 63
f 37 63 64
f 37 64 39
f 37 39 65
f 37 65 38
f 37 61 66
f 37 66 67
f 37 67 68
f 37 68 69
f 37 69 70
f 37 70 62
f 38 65 39
f 39 71 72
f 39 72 40
f 39 64 63
f 39 63 71
f 40 72 73
f 40 73 74
f 40 74 41
f 41 74 75
f 41 75 42
f 42 75 44
f 42 44 43
f 44 75 101
f 44 101 76
f 44 76 77
f 44 77 45
f 46 77 78
f 46 78 47
f 47 78 49
f 49 78 50
f 50 78 79
f 50 79 80
f 50 80 51
f 51 80 81
f 51 81 82
f 51 82 83
f 51 83 84
f 51 84 85
f 51 85 52
f 52 85 54
f 52 54 53
f 54 86 55
f 54 85 86
f 55 86 87
f 56 88 57
f 57 88 89
f 57 89 90
f 57 90 58
f 58 90 89
f 58 89 91
f 58 91 92
f 58 92 93
f 58 93 94
f 58 94 95
f 58 95 59
f 59 95 60
f 60 95 94
f 60 94 96
f 61 96 67
f 61 67 66
f 62 70 97
f 62 97 137
f 62 137 158
f 62 158 175
f 62 175 176
f 62 176 198
f 62 198 197
f 62 197 217
f 62 217 236
f 62 236 252
f 62 252 251
f 62 251 250
f 62 250 271
f 62 271 288
f 62 288 287
f 62 287 303
f 62 303 321
f 62 321 336
f 62 336 351
f 62 351 365
f 62 365 364
f 62 364 361
f 62 361 375
f 62 375 385
f 62 385 377
f 62 377 386
f 62 386 388
f 62 388 399
f 62 399 398
f 62 398 397
f 62 397 396
f 62 396 401
f 62 401 393
f 62 393 383
f 62 383 379
f 62 379 366
f 62 366 352
f 62 352 337
f 62 337 322
f 62 322 304
f 62 304 290
f 62 290 289
f 62 289 274
f 62 274 256
f 62 256 255
f 62 255 237
f 62 237 219
f 62 219 218
f 62 218 201
f 62 201 200
f 62 200 177
f 62 177 160
f 62 160 141
f 62 141 111
f 62 111 107
f 62 107 106
f 62 106 110
f 62 110 104
f 62 104 103
f 62 103 100
f 62 100 73
f 62 73 98
f 62 98 71
f 62 71 63
f 67 96 69
f 67 69 68
f 69 96 70
f 70 96 97
f 71 98 72
f 72 98 73
f 73 99 74
f 73 100 138
f 73 138 99
f 74 99 75
f 75 99 138
f 75 138 101
f 76 101 78
f 76 78 77
f 78 101 79
f 79 101 80
f 80 101 102
f 80 102 81
f 81 102 103
f 81 103 104
f 81 104 105
f 81 105 82
f 82 106 107
f 82 107 108
f 82 108 84
f 82 84 109
f 82 109 83
f 82 105 110
f 82 110 106
f 83 109 84
f 84 108 107
f 84 107 111
f 84 111 112
f 84 112 113
f 84 113 114
f 84 114 115
f 84 115 116
f 84 116 85
f 85 117 118
f 85 118 86
f 85 116 142
f 85 142 117
f 86 119 87
f 86 118 120
f 86 120 121
f 86 121 119
f 88 122 89
f 88 123 122
f 89 122 124
f 89 124 125
f 89 125 126
f 89 126 127
f 89 127 128
f 89 128 91
f 91 128 129
f 91 129 130
f 91 130 92
f 92 130 131
f 92 131 93
f 93 131 129
f 93 129 132
f 93 132 133
f 93 133 134
f 93 134 135
f 93 135 94
f 94 135 136
f 94 136 96
f 96 136 135
f 96 135 97
f 97 135 134
f 97 134 133
f 97 133 137
f 100 103 102
f 100 102 139
f 100 139 140
f 100 140 138
f 101 140 139
f 101 139 102
f 101 138 140
f 104 110 105
f 111 141 142
f 111 142 112
f 112 142 114
f 112 114 113
f 114 142 116
f 114 116 115
f 117 143 144
f 117 144 118
f 117 142 145
f 117 145 143
f 118 144 146
f 118 146 147
f 118 147 148
f 118 148 149
f 118 149 121
f 118 121 120
f 122 123 150
f 122 150 124
f 124 151 125
f 124 152 153
f 124 153 151
f 125 151 154
f 125 154 127
f 125 127 126
f 127 154 128
f 128 154 129
f 129 154 155
f 129 155 156
f 129 156 157
f 129 157 158
f 129 158 159
f 129 159 132
f 129 131 130
f 132 159 158
f 132 158 133
f 133 158 137
f 141 160 142
f 142 160 161
f 142 161 162
f 142 162 145
f 143 145 146
f 143 146 144
f 145 162 161
f 145 161 163
f 145 163 146
f 146 163 164
f 146 164 165
f 146 165 147
f 147 165 166
f 147 166 167
f 147 167 148
f 148 167 166
f 148 166 168
f 148 168 149
f 151 153 169
f 151 169 154
f 152 169 153
f 154 169 170
f 154 170 171
f 154 171 172
f 154 172 173
f 154 173 155
f 155 173 156
f 156 173 174
f 156 174 157
f 157 175 158
f 157 174 176
f 157 176 175
f 160 177 178
f 160 178 179
f 160 179 161
f 161 179 163
f 163 179 178
f 163 178 180
f 163 180 181
f 163 181 182
f 163 182 164
f 164 182 183
f 164 183 165
f 165 183 181
f 165 181 184
f 165 184 185
f 165 185 166
f 166 185 186
f 166 186 187
f 166 187 188
f 166 188 189
f 166 189 168
f 168 189 190
f 169 191 170
f 170 191 192
f 170 192 193
f 170 193 171
f 171 173 172
f 171 193 173
f 173 193 194
f 173 194 195
f 173 195 196
f 173 196 174
f 174 196 197
f 174 197 198
f 174 198 199
f 174 199 176
f 176 199 198
f 177 200 178
f 178 200 180
f 180 200 201
f 180 201 202
f 180 202 181
f 181 183 182
f 181 202 201
f 181 201 203
f 181 203 204
f 181 204 205
f 181 205 206
f 181 206 207
f 181 207 184
f 184 207 185
f 185 207 187
f 185 187 186
f 187 207 208
f 187 208 209
f 187 209 188
f 188 190 189
f 191 210 211
f 191 211 192
f 192 212 193
f 192 211 213
f 192 213 214
f 192 214 212
f 193 215 194
f 193 212 216
f 193 216 215
f 194 215 195
f 195 215 196
f 196 215 217
f 196 217 197
f 201 218 203
f 203 218 219
f 203 219 220
f 203 220 204
f 204 220 221
f 204 221 205
f 205 221 206
f 206 221 207
f 207 221 222
f 207 222 223
f 207 223 224
f 207 224 208
f 208 224 225
f 208 225 226
f 208 226 209
f 209 226 227
f 210 213 211
f 212 228 216
f 212 214 228
f 213 229 230
f 213 230 214
f 214 230 216
f 214 216 228
f 215 231 232
f 215 232 233
f 215 233 217
f 215 216 230
f 215 230 234
f 215 234 231
f 217 233 235
f 217 235 236
f 219 237 220
f 220 238 221
f 220 237 238
f 221 223 222
f 221 238 239
f 221 239 240
f 221 240 241
f 221 241 223
f 223 241 224
f 224 241 242
f 224 242 243
f 224 243 225
f 225 227 226
f 229 244 230
f 230 244 245
f 230 245 246
f 230 246 247
f 230 247 234
f 231 234 232
f 232 248 249
f 232 249 250
f 232 250 251
f 232 251 252
f 232 252 236
f 232 236 235
f 232 235 233
f 232 234 248
f 234 247 253
f 234 253 254
f 234 254 248
f 237 255 238
f 238 255 256
f 238 256 257
f 238 257 258
f 238 258 259
f 238 259 240
f 238 240 239
f 240 259 241
f 241 259 260
f 241 260 261
f 241 261 242
f 242 262 243
f 242 261 263
f 242 263 264
f 242 264 262
f 243 262 265
f 244 266 245
f 245 266 267
f 245 267 246
f 246 267 268
f 246 268 254
f 246 254 253
f 246 253 247
f 248 269 249
f 248 254 270
f 248 270 269
f 249 269 250
f 250 269 271
f 254 272 270
f 254 268 273
f 254 273 272
f 256 274 257
f 257 274 275
f 257 275 258
f 258 275 259
f 259 275 276
f 259 276 277
f 259 277 278
f 259 278 260
f 260 263 279
f 260 279 261
f 260 278 263
f 261 279 263
f 262 264 265
f 263 278 264
f 264 278 280
f 266 281 282
f 266 282 283
f 266 283 284
f 266 284 273
f 266 273 267
f 267 273 268
f 269 270 272
f 269 272 273
f 269 273 285
f 269 285 286
f 269 286 287
f 269 287 288
f 269 288 271
f 273 284 285
f 274 289 275
f 275 289 290
f 275 290 291
f 275 291 277
f 275 277 276
f 277 291 292
f 277 292 293
f 277 293 294
f 277 294 278
f 278 295 296
f 278 296 297
f 278 297 280
f 278 294 295
f 281 298 299
f 281 299 282
f 282 299 283
f 283 299 300
f 283 300 301
f 283 301 284
f 284 301 285
f 285 287 286
f 285 301 287
f 287 302 303
f 287 301 302
f 290 304 305
f 290 305 291
f 291 305 306
f 291 306 292
f 292 306 307
f 292 307 308
f 292 308 309
f 292 309 295
f 292 295 293
f 293 295 294
f 295 309 310
f 295 310 296
f 296 310 311
f 296 311 297
f 298 312 313
f 298 313 314
f 298 314 315
f 298 315 316
f 298 316 299
f 299 316 317
f 299 317 300
f 300 317 318
f 300 318 319
f 300 319 301
f 301 319 302
f 302 318 320
f 302 320 303
f 302 319 318
f 303 320 321
f 304 322 305
f 305 322 323
f 305 323 324
f 305 324 308
f 305 308 307
f 305 307 306
f 308 325 311
f 308 311 310
f 308 310 309
f 308 324 325
f 311 326 327
f 311 327 328
f 311 325 326
f 312 329 330
f 312 330 331
f 312 331 332
f 312 332 313
f 313 332 333
f 313 333 314
f 314 333 315
f 315 333 334
f 315 334 317
f 315 317 316
f 317 334 335
f 317 335 318
f 318 335 336
f 318 336 321
f 318 321 320
f 322 337 338
f 322 338 323
f 323 338 324
f 324 338 339
f 324 339 325
f 325 339 326
f 326 339 340
f 326 340 327
f 327 340 341
f 327 341 328
f 328 341 342
f 329 343 344
f 329 344 331
f 329 331 330
f 329 345 346
f 329 346 347
f 329 347 343
f 331 344 348
f 331 348 332
f 332 348 349
f 332 349 350
f 332 350 351
f 332 351 333
f 333 351 335
f 333 335 334
f 335 351 336
f 337 352 353
f 337 353 340
f 337 340 338
f 338 340 339
f 340 354 341
f 340 353 355
f 340 355 354
f 341 356 342
f 341 354 356
f 342 356 358
f 342 358 359
f 342 359 360
f 342 360 357
f 343 347 361
f 343 361 348
f 343 348 344
f 345 362 363
f 345 363 361
f 345 361 346
f 346 361 347
f 348 361 364
f 348 364 350
f 348 350 349
f 350 364 365
f 350 365 351
f 352 355 353
f 352 366 368
f 352 368 355
f 354 367 358
f 354 358 356
f 354 355 368
f 354 368 367
f 357 360 370
f 357 370 371
f 357 371 372
f 357 372 369
f 358 367 373
f 358 373 359
f 359 373 360
f 360 373 370
f 361 363 374
f 361 374 375
f 362 376 377
f 362 377 378
f 362 378 374
f 362 374 363
f 366 379 368
f 367 370 373
f 367 368 379
f 367 379 370
f 369 372 380
f 370 379 381
f 370 381 382
f 370 382 383
f 370 383 371
f 371 384 380
f 371 380 372
f 371 383 384
f 374 378 377
f 374 377 385
f 374 385 375
f 376 386 377
f 376 387 388
f 376 388 386
f 379 383 381
f 380 384 389
f 380 389 390
f 380 390 391
f 380 391 392
f 381 383 382
f 383 389 384
f 383 393 394
f 383 394 390
f 383 390 389
f 387 395 396
f 387 396 397
f 387 397 398
f 387 398 399
f 387 399 388
f 390 394 391
f 391 394 392
f 392 394 400
f 393 401 394
f 394 401 400
f 395 402 401
f 395 401 396
f 400 401 402
